<svg width="32" height="32" viewBox="0 0 32 32" fill="none" xmlns="http://www.w3.org/2000/svg">
<rect width="32" height="32" rx="16" fill="#F5F5F5"/>
<path d="M27.2496 11.8254L21.8809 15.8276V24.564H25.639C26.5175 24.564 27.2496 23.8563 27.2496 22.9534V11.8254Z" fill="#4CAF50"/>
<path d="M4.75 11.8255L10.0944 15.8521V24.5885H6.36063C5.4821 24.5885 4.75 23.8808 4.75 22.9779V11.8255Z" fill="#1E88E5"/>
<path d="M21.8816 9.14087L16.0004 13.5579L10.1191 9.14087V15.8274L16.0004 20.2444L21.8816 15.8274V9.14087Z" fill="#E53935"/>
<path d="M4.75 9.72679V11.8255L10.0944 15.8521V9.1411L8.43492 7.89653C8.04447 7.60368 7.5564 7.43286 7.04392 7.43286C5.77494 7.43286 4.75 8.45781 4.75 9.72679Z" fill="#C62828"/>
<path d="M27.2496 9.72678V11.8255L21.8809 15.8276V9.1411L23.5647 7.89653C23.9552 7.60368 24.4432 7.43286 24.9557 7.43286C26.2247 7.43286 27.2496 8.45781 27.2496 9.72678Z" fill="#5436EB"/>
</svg>
