<svg width="33" height="32" viewBox="0 0 33 32" fill="none" xmlns="http://www.w3.org/2000/svg">
<g clip-path="url(#clip0_2922_8087)">
<path d="M16.4375 32C25.2741 32 32.4375 24.8366 32.4375 16C32.4375 7.16344 25.2741 0 16.4375 0C7.60094 0 0.4375 7.16344 0.4375 16C0.4375 24.8366 7.60094 32 16.4375 32Z" fill="#0052FF"/>
<path d="M16.5719 11.3072C18.4556 11.3072 19.95 12.4691 20.5175 14.1969H24.3125C23.625 10.5028 20.5772 8 16.6022 8C12.0881 8 8.5625 11.4266 8.5625 16.0153C8.5625 20.6041 12 24 16.6022 24C20.4881 24 23.5966 21.4972 24.2847 17.7725H20.5172C19.9791 19.5006 18.4859 20.6928 16.6009 20.6928C14 20.6928 12.1772 18.6962 12.1772 16.0153C12.1784 13.3037 13.9719 11.3072 16.5719 11.3072Z" fill="white"/>
</g>
<defs>
<clipPath id="clip0_2922_8087">
<rect width="32" height="32" fill="white" transform="translate(0.4375)"/>
</clipPath>
</defs>
</svg>
