<svg width="32" height="32" viewBox="0 0 32 32" fill="none" xmlns="http://www.w3.org/2000/svg">
<rect width="32" height="32" rx="16" fill="#F5F5F5"/>
<path d="M20.688 9.875H14.1251C13.6291 9.875 13.0002 10.0895 12.8199 11.1115C12.7977 11.2358 10.626 25.3071 10.626 25.625C10.626 26.124 11.002 26.5 11.5005 26.5H16.3135C16.5275 26.5 16.71 26.3453 16.745 26.1343L17.5589 21.25H18.938C22.556 21.25 25.4997 18.3063 25.4997 14.6875C25.4997 12.0339 23.3412 9.875 20.688 9.875Z" fill="#009ADA"/>
<path d="M18.8962 5.5L10.1887 5.5C9.58205 5.5 9.07192 5.97382 8.88906 6.70697C8.863 6.8125 6.25167 22.4903 6.25081 23.0765C6.24782 23.2444 6.24355 23.4742 6.42812 23.6622C6.61184 23.8494 6.87246 23.875 7.12667 23.875H10.8723L11.8007 17.75H16.3137C20.4215 17.75 23.7618 14.4022 23.7503 10.2914C23.7429 7.63637 21.5512 5.5 18.8962 5.5Z" fill="#273691"/>
<path opacity="0.2" d="M11.8008 17.75H16.3138C20.1981 17.75 23.3919 14.7554 23.7187 10.9539C22.8907 10.2804 21.8363 9.875 20.6884 9.875H14.1254C13.6294 9.875 13.0005 10.0895 12.8202 11.1115L11.8008 17.75Z" fill="black"/>
</svg>
