<svg width="32" height="32" viewBox="0 0 32 32" fill="none" xmlns="http://www.w3.org/2000/svg">
<g clip-path="url(#clip0_2922_8510)">
<path d="M25.5328 0.00201416H6.46319C2.89163 0.00201416 0 2.89364 0 6.4652V25.5388C0 29.1064 2.89163 31.998 6.46319 31.998H25.5368C29.1044 31.998 32 29.1064 32 25.5348V6.4652C31.996 2.89364 29.1044 0.00201416 25.5328 0.00201416Z" fill="url(#paint0_linear_2922_8510)"/>
<path d="M15.8699 8.57784L16.4213 7.62487C16.7616 7.02925 17.5205 6.82848 18.1162 7.16881C18.7118 7.50914 18.9126 8.26809 18.5722 8.86371L13.2595 18.0598H17.1019C18.3476 18.0598 19.0452 19.5233 18.5041 20.5375H7.23884C6.55137 20.5375 6 19.9861 6 19.2986C6 18.6112 6.55137 18.0598 7.23884 18.0598H10.3972L14.4405 11.0521L13.1779 8.86031C12.8375 8.26469 13.0383 7.51255 13.6339 7.16541C14.2295 6.82507 14.9817 7.02585 15.3288 7.62147L15.8699 8.57784Z" fill="white"/>
<path d="M11.0915 21.8138L9.90036 23.8797C9.56002 24.4753 8.80107 24.6761 8.20545 24.3357C7.60983 23.9954 7.40906 23.2364 7.74939 22.6408L8.63428 21.1093C9.63486 20.7996 10.4483 21.0378 11.0915 21.8138Z" fill="white"/>
<path d="M21.3492 18.0666H24.5722C25.2597 18.0666 25.8111 18.618 25.8111 19.3055C25.8111 19.9929 25.2597 20.5443 24.5722 20.5443H22.782L23.9902 22.6408C24.3306 23.2364 24.1298 23.9886 23.5342 24.3357C22.9385 24.6761 22.1864 24.4753 21.8393 23.8797C19.804 20.3503 18.2759 17.7093 17.2617 15.9497C16.2236 14.1595 16.9656 12.3625 17.6973 11.7533C18.5108 13.1487 19.7258 15.2554 21.3492 18.0666Z" fill="white"/>
</g>
<defs>
<linearGradient id="paint0_linear_2922_8510" x1="16" y1="0.00201416" x2="16" y2="31.998" gradientUnits="userSpaceOnUse">
<stop stop-color="#00BFFC"/>
<stop offset="1" stop-color="#0073F6"/>
</linearGradient>
<clipPath id="clip0_2922_8510">
<rect width="32" height="32" rx="16" fill="white"/>
</clipPath>
</defs>
</svg>
