<svg width="32" height="32" viewBox="0 0 32 32" fill="none" xmlns="http://www.w3.org/2000/svg">
<rect width="32" height="32" rx="16" fill="black"/>
<path d="M25.4996 11.3846V14.7827C25.3169 14.7827 25.0976 14.8192 24.8784 14.8192C23.2342 14.8192 21.6996 14.198 20.5303 13.2115V20.4461C20.5303 21.9076 20.0553 23.2961 19.215 24.3923C18.0457 25.9634 16.1457 27.023 13.99 27.023C11.6515 27.023 9.60535 25.7807 8.47266 23.9538C9.64189 25.05 11.213 25.7442 12.9303 25.7442C15.0496 25.7442 16.9496 24.7211 18.1188 23.1134C18.9226 22.0173 19.4342 20.6653 19.4342 19.1673V11.8961C20.6034 12.9192 22.1015 13.5038 23.7823 13.5038C24.0015 13.5038 24.1842 13.5038 24.4034 13.4673V11.275C24.7323 11.348 25.0246 11.3846 25.3534 11.3846H25.4996V11.3846Z" fill="#FF004F"/>
<path d="M14.9037 13.9057V17.6692C14.648 17.5961 14.3556 17.5596 14.0999 17.5596C12.4922 17.5596 11.1768 18.9115 11.1768 20.5557C11.1768 20.9211 11.2499 21.25 11.3595 21.5788C10.6287 21.0307 10.1172 20.1538 10.1172 19.1673C10.1172 17.523 11.4326 16.1711 13.0403 16.1711C13.3326 16.1711 13.5883 16.2077 13.8441 16.2807V13.8692C13.9172 13.8692 13.9903 13.8692 14.0633 13.8692C14.3556 13.8692 14.648 13.8692 14.9037 13.9057Z" fill="#FF004F"/>
<path d="M21.0789 8.68075C20.4212 8.09613 19.9462 7.29229 19.6904 6.4519H20.5674C20.5674 6.6346 20.5674 6.78075 20.5674 6.96344C20.6404 7.54806 20.8231 8.13267 21.0789 8.68075Z" fill="#FF004F"/>
<path d="M24.4407 11.3113V13.5036C24.258 13.5402 24.0388 13.5402 23.8196 13.5402C22.1754 13.5402 20.6407 12.919 19.4715 11.9325V19.1671C19.4715 20.6286 18.9965 22.0171 18.1561 23.1132C16.9504 24.7209 15.0869 25.744 12.9677 25.744C11.2504 25.744 9.67921 25.0498 8.50998 23.9536C7.88882 22.9306 7.52344 21.7613 7.52344 20.4825C7.52344 16.9383 10.3369 14.0517 13.8446 13.9421V16.3536C13.5888 16.2806 13.2965 16.244 13.0407 16.244C11.4331 16.244 10.1177 17.5959 10.1177 19.2402C10.1177 20.2267 10.5927 21.1402 11.36 21.6517C11.7619 22.7844 12.858 23.6248 14.1004 23.6248C15.708 23.6248 17.0234 22.2729 17.0234 20.6286V6.45172H19.6907C19.9465 7.32864 20.4215 8.09595 21.0792 8.68057C21.7369 9.99595 22.9792 10.9825 24.4407 11.3113Z" fill="white"/>
<path d="M13.8442 12.6269V13.8692C10.3365 13.9788 7.52308 16.8654 7.52308 20.4096C7.52308 21.6884 7.88846 22.8577 8.50961 23.8807C7.26731 22.675 6.5 20.9942 6.5 19.0942C6.5 15.4769 9.42307 12.5538 13.0038 12.5538C13.2961 12.5538 13.5885 12.5904 13.8442 12.6269Z" fill="#00F7EF"/>
<path d="M19.6901 6.45192H17.0228V20.5558C17.0228 22.2 15.7074 23.5519 14.0998 23.5519C12.8209 23.5519 11.7613 22.7481 11.3594 21.5788C11.8344 21.9077 12.419 22.1269 13.0401 22.1269C14.6478 22.1269 15.9632 20.8115 15.9632 19.1673V5.02692H19.5074V5.09999C19.5074 5.24615 19.5074 5.3923 19.544 5.53845C19.544 5.83076 19.6171 6.15961 19.6901 6.45192Z" fill="#00F7EF"/>
<path d="M24.4401 9.95957V11.275C22.9785 10.9826 21.7362 9.99611 21.042 8.68073C21.9555 9.52111 23.1247 9.99611 24.4401 9.95957Z" fill="#00F7EF"/>
</svg>
