<svg width="32" height="32" viewBox="0 0 32 32" fill="none" xmlns="http://www.w3.org/2000/svg">
<rect width="32" height="32" rx="16" fill="#20C300"/>
<path fill-rule="evenodd" clip-rule="evenodd" d="M21.2515 12.2001C20.3443 12.3012 19.4558 12.3307 18.599 12.5101C16.6084 12.9295 14.9714 13.9418 13.8264 15.6545C12.8332 17.1396 12.63 18.7627 13.0763 20.479C13.1006 20.5723 13.1292 20.6661 13.1737 20.8263C12.6367 20.7941 12.1277 20.7988 11.6316 20.7252C11.0023 20.6309 10.3839 20.4671 9.75769 20.3483C9.63743 20.3261 9.48606 20.3432 9.37824 20.4002C8.61106 20.7973 7.85165 21.2094 7.08913 21.6163C6.98649 21.6707 6.88074 21.7205 6.71798 21.8003C6.75737 21.6515 6.77707 21.553 6.80921 21.4582C7.02019 20.8242 7.22442 20.1887 7.45147 19.562C7.52145 19.3666 7.48361 19.2733 7.31669 19.1551C5.96842 18.1961 4.91924 16.9872 4.44441 15.3788C3.6368 12.6433 4.45737 10.3438 6.51374 8.48394C8.50168 6.68675 10.9095 6.03465 13.5532 6.22541C15.5266 6.36692 17.3098 7.03458 18.8348 8.31287C20.0017 9.29104 20.8207 10.5056 21.2064 11.9943C21.2235 12.0602 21.2395 12.127 21.2504 12.1949C21.2551 12.2193 21.2395 12.2478 21.2515 12.2001ZM16.9132 10.9581C16.934 10.3091 16.4047 9.7472 15.7505 9.72076C15.0637 9.69536 14.5329 10.1987 14.5132 10.8975C14.4945 11.5558 14.9963 12.1125 15.6277 12.1369C16.3109 12.1618 16.8925 11.6284 16.9132 10.9581ZM10.9914 10.9296C10.9976 10.2946 10.4347 9.72802 9.78931 9.71869C9.11232 9.70936 8.58928 10.2391 8.58358 10.9394C8.5784 11.5853 9.1175 12.1353 9.7551 12.1343C10.4362 12.1322 10.9852 11.5978 10.9914 10.9296Z" fill="white"/>
<path fill-rule="evenodd" clip-rule="evenodd" d="M25.5276 25.7275C25.3057 25.6082 25.0849 25.4864 24.8625 25.3693C24.3861 25.1184 23.9279 24.8105 23.4246 24.6332C22.8953 24.4471 22.3842 24.7913 21.8581 24.8639C19.4829 25.1879 17.3114 24.7281 15.4427 23.1875C12.5819 20.8284 12.585 16.8893 15.4396 14.5219C17.0849 13.157 19.0096 12.6309 21.1225 12.7703C22.8051 12.8818 24.3302 13.4323 25.625 14.5318C28.4558 16.9354 28.4558 20.7511 25.6359 23.1657C25.6219 23.1787 25.6059 23.1911 25.5903 23.203C25.385 23.3813 25.0647 23.528 25.0061 23.7457C24.946 23.9676 25.1419 24.2589 25.2249 24.5202C25.3467 24.9079 25.4695 25.2957 25.5913 25.6844C25.5691 25.699 25.5483 25.713 25.5276 25.7275ZM19.302 16.8991C19.302 16.3927 18.8235 15.9168 18.3145 15.9168C17.7811 15.9168 17.3586 16.3585 17.3628 16.9111C17.3669 17.4263 17.7883 17.8488 18.3031 17.8524C18.8505 17.8566 19.302 17.4253 19.302 16.8991ZM24.0575 16.9069C24.0554 16.3865 23.5961 15.9199 23.0866 15.9199C22.5988 15.9199 22.0856 16.3979 22.0804 16.8577C22.0747 17.376 22.5646 17.8602 23.0866 17.8519C23.6195 17.8436 24.0585 17.4165 24.0575 16.9069Z" fill="white"/>
</svg>
