<svg width="32" height="32" viewBox="0 0 32 32" fill="none" xmlns="http://www.w3.org/2000/svg">
<g clip-path="url(#clip0_2922_8545)">
<path fill-rule="evenodd" clip-rule="evenodd" d="M16 0C24.8367 0 32.0001 7.16343 32.0001 16C32.0001 24.8367 24.8367 32.0001 16 32.0001C7.16343 32.0001 0 24.8367 0 16C0 7.16343 7.16343 0 16 0ZM16 25.9014C10.5398 25.9014 6.0986 21.461 6.0986 16C6.0986 10.539 10.5382 6.0985 16 6.0985C21.4603 6.0985 25.9015 10.5381 25.9015 16C25.9015 21.4618 21.461 25.9014 16 25.9014ZM24.3504 17.3543C24.061 17.2615 21.7312 16.5696 19.0827 16.994C20.1889 20.0336 20.6374 22.5092 20.7266 23.0241C22.6215 21.7407 23.9754 19.7094 24.3505 17.3543H24.3504ZM19.3033 23.7975C19.1757 23.0545 18.6883 20.4707 17.5015 17.3851C17.4817 17.3928 17.4632 17.3965 17.4471 17.4049C12.6749 19.0681 10.9605 22.3756 10.8107 22.6847C12.2455 23.8023 14.0487 24.4722 16.0016 24.4722C17.1739 24.4722 18.2916 24.2321 19.3049 23.799L19.3031 23.7976H19.3032L19.3033 23.7975ZM9.71473 21.6662C9.90807 21.3369 12.2288 17.4966 16.5877 16.0856C16.6965 16.0512 16.808 16.0165 16.9206 15.9855C16.7079 15.5053 16.4762 15.0229 16.2361 14.5509C12.0168 15.8158 7.91665 15.7614 7.54542 15.7576C7.54148 15.8433 7.54148 15.9284 7.54148 16.0165C7.54148 18.1858 8.36593 20.1699 9.71483 21.6675V21.666L9.71473 21.6662ZM7.7234 14.2787C8.10241 14.2823 11.5874 14.298 15.5442 13.2498C14.1448 10.7585 12.6319 8.66334 12.4079 8.35738C10.0405 9.47454 8.26906 11.6571 7.72455 14.2786H7.7234V14.2787ZM14.0199 7.78954C14.2525 8.10241 15.791 10.1958 17.1761 12.7402C20.1851 11.615 21.4572 9.90049 21.6085 9.6842C20.1156 8.35758 18.1505 7.55281 16.0004 7.55281C15.3199 7.55646 14.6536 7.63834 14.0204 7.78887L14.02 7.78954H14.0199H14.0199ZM22.5487 10.6668C22.3704 10.9066 20.9505 12.725 17.8255 14.0012C18.0221 14.4032 18.2125 14.8133 18.3861 15.2277C18.448 15.375 18.51 15.5172 18.5681 15.6644C21.3836 15.3133 24.1798 15.8776 24.4586 15.9352C24.4388 13.9402 23.7233 12.106 22.5476 10.6675L22.5487 10.6669L22.5488 10.6668H22.5487Z" fill="#EA4C89"/>
</g>
<defs>
<clipPath id="clip0_2922_8545">
<rect width="32" height="32" fill="white"/>
</clipPath>
</defs>
</svg>
