<svg width="32" height="32" viewBox="0 0 32 32" fill="none" xmlns="http://www.w3.org/2000/svg">
<rect width="32" height="32" rx="16" fill="#FFFC00"/>
<path d="M16.1197 25.4154C16.0659 25.4154 16.016 25.4154 15.9699 25.4077C15.9353 25.4077 15.9008 25.4154 15.8662 25.4154C14.6754 25.4154 13.9148 24.8738 13.1734 24.3514C12.6664 23.9864 12.1785 23.6522 11.6177 23.5562C11.3449 23.5101 11.0607 23.4871 10.8033 23.4871C10.3231 23.4871 9.94669 23.5639 9.67395 23.6177C9.50878 23.6522 9.35897 23.6791 9.24757 23.6791C9.13233 23.6791 9.0094 23.6522 8.95178 23.4678C8.90569 23.3104 8.87112 23.1529 8.83654 23.003C8.75588 22.6189 8.69441 22.3807 8.52924 22.3539C6.64314 22.0581 6.10151 21.6624 5.97859 21.382C5.96323 21.3397 5.9517 21.3013 5.9517 21.2591C5.94402 21.1477 6.02085 21.0516 6.1284 21.0401C9.02861 20.56 10.3308 17.5983 10.3846 17.4677C10.3846 17.46 10.3846 17.46 10.3923 17.4523C10.569 17.0951 10.6036 16.7801 10.496 16.5266C10.2963 16.0618 9.64707 15.8466 9.22068 15.716C9.11696 15.6815 9.01325 15.6546 8.94026 15.62C8.08364 15.2858 8.00681 14.9362 8.04139 14.7557C8.09517 14.4522 8.50235 14.241 8.82886 14.241C8.91721 14.241 9.00172 14.2563 9.06318 14.2909C9.44732 14.4676 9.79688 14.5636 10.0965 14.5636C10.5075 14.5636 10.6919 14.3908 10.715 14.3639C10.6996 14.1641 10.6957 13.9605 10.6804 13.7531C10.592 12.3818 10.4883 10.6762 10.9185 9.70434C12.2208 6.79261 14.975 6.56597 15.7894 6.56597C15.8086 6.56597 16.1466 6.55829 16.1466 6.55829H16.1965C17.0109 6.55829 19.7728 6.78493 21.075 9.70434C21.5053 10.6762 21.4054 12.3856 21.3132 13.7531L21.3055 13.8146C21.2902 14.0066 21.2863 14.191 21.2709 14.3716C21.2902 14.3908 21.4553 14.5483 21.8318 14.5713C22.1199 14.5559 22.4502 14.4676 22.8036 14.2986C22.9074 14.2525 23.0303 14.2371 23.1071 14.2371C23.23 14.2371 23.3529 14.2563 23.4567 14.3063H23.4643C23.7601 14.41 23.9445 14.6136 23.9522 14.8287C23.9599 15.0284 23.8024 15.3281 23.0456 15.6315C22.9688 15.6584 22.8689 15.693 22.7652 15.7276C22.335 15.8658 21.6897 16.0694 21.4899 16.5381C21.3785 16.7916 21.4131 17.1066 21.5936 17.4638C21.5936 17.4715 21.5936 17.4715 21.6013 17.4792C21.6551 17.6021 22.9573 20.5715 25.8575 21.0478C25.9689 21.067 26.0419 21.163 26.0342 21.2668C26.0342 21.309 26.0188 21.3474 26.0073 21.3897C25.8921 21.6701 25.3504 22.0696 23.4567 22.3577C23.3069 22.3769 23.2454 22.5843 23.1494 23.003C23.1148 23.1529 23.0802 23.3027 23.0341 23.464C22.9919 23.6023 22.9112 23.6638 22.7652 23.6638H22.746C22.6423 23.6638 22.5079 23.6445 22.3196 23.61C21.997 23.5485 21.6397 23.4871 21.1903 23.4871C20.9214 23.4871 20.6486 23.5063 20.3759 23.5562C19.8074 23.6522 19.3272 23.9864 18.8202 24.3514C18.075 24.8738 17.3067 25.4154 16.1197 25.4154Z" fill="white"/>
<path d="M16.1884 6.35858H16.1423H15.7851C14.9438 6.35858 12.0705 6.5929 10.7222 9.62756C10.2689 10.6494 10.3803 12.3818 10.461 13.7724C10.4763 13.9375 10.4802 14.1066 10.4879 14.2717C10.4187 14.314 10.2881 14.3601 10.0922 14.3601C9.82332 14.3601 9.50833 14.2794 9.14725 14.1066C9.05121 14.0643 8.93981 14.0374 8.82457 14.0374C8.40587 14.0374 7.90649 14.3101 7.82967 14.7212C7.77589 15.017 7.90649 15.4472 8.85915 15.8236C8.9475 15.8582 9.05121 15.8928 9.15493 15.9273C9.54674 16.0503 10.1422 16.2423 10.2996 16.6188C10.3803 16.8185 10.3457 17.0721 10.2036 17.3717C10.2036 17.3794 10.1959 17.3871 10.1959 17.3909C10.1422 17.5138 8.88603 20.3718 6.10491 20.8327C5.89363 20.8673 5.73614 21.0594 5.74766 21.2783C5.75535 21.3398 5.76687 21.4089 5.79376 21.4704C6.00503 21.9582 6.8847 22.3193 8.49422 22.5652C8.548 22.642 8.60562 22.8955 8.63635 23.053C8.67092 23.2028 8.70549 23.368 8.75159 23.5332C8.79768 23.6984 8.92445 23.8981 9.25096 23.8981C9.38157 23.8981 9.53906 23.8712 9.71576 23.829C9.98466 23.7752 10.3534 23.706 10.8067 23.706C11.0602 23.706 11.3291 23.7253 11.5865 23.7752C12.1089 23.8635 12.5468 24.1709 13.0539 24.5358C13.7876 25.0505 14.6096 25.6382 15.8696 25.6382C15.9042 25.6382 15.9387 25.6382 15.9733 25.6306C16.0156 25.6306 16.0693 25.6382 16.1231 25.6382C17.3831 25.6382 18.2051 25.0544 18.9388 24.5358C19.4535 24.1709 19.8915 23.8635 20.4062 23.7752C20.6751 23.7329 20.9325 23.706 21.186 23.706C21.6239 23.706 21.9658 23.7598 22.2769 23.8213C22.469 23.8635 22.6265 23.8751 22.7417 23.8751H22.7571H22.7725C23.0106 23.8751 23.1758 23.7521 23.2449 23.5178C23.291 23.3526 23.3256 23.1952 23.3602 23.0453C23.3948 22.8878 23.4485 22.6343 23.5023 22.5575C25.1042 22.3116 25.9915 21.9467 26.2028 21.4627C26.2297 21.4012 26.245 21.3321 26.2489 21.2706C26.2642 21.0517 26.1067 20.8596 25.8916 20.825C23.1028 20.3641 21.8467 17.5023 21.8006 17.3832C21.8006 17.3755 21.7929 17.3678 21.7929 17.364C21.6431 17.0644 21.6085 16.8109 21.6969 16.6111C21.8544 16.2347 22.4498 16.0426 22.8416 15.9197C22.953 15.8851 23.0529 15.8505 23.1374 15.8159C23.8288 15.5432 24.1784 15.2052 24.1707 14.8172C24.163 14.5099 23.9249 14.2333 23.5484 14.1027C23.4178 14.0489 23.268 14.022 23.122 14.022C23.0183 14.022 22.8685 14.0374 22.7302 14.1027C22.3999 14.2602 22.1002 14.3409 21.8467 14.3562C21.6738 14.3486 21.5663 14.3101 21.5048 14.2679C21.5125 14.1258 21.5202 13.9798 21.5317 13.83L21.5394 13.7685C21.6277 12.378 21.7391 10.6417 21.2782 9.62372C19.9107 6.58906 17.0373 6.35858 16.1884 6.35858ZM16.1884 6.78113C16.9644 6.78113 19.6226 6.98856 20.8748 9.79658C21.2859 10.7223 21.1821 12.401 21.0938 13.7455C21.0784 13.9567 21.0669 14.1642 21.0592 14.3639L21.0515 14.4446L21.1053 14.5061C21.1245 14.5329 21.3435 14.7519 21.8198 14.7749H21.8275H21.8352C22.1502 14.7596 22.5074 14.6635 22.8915 14.4868C22.9453 14.46 23.0221 14.4446 23.1028 14.4446C23.1912 14.4446 23.2872 14.4638 23.3717 14.4907L23.3871 14.4984C23.5945 14.5675 23.729 14.7058 23.7366 14.8287C23.7366 14.8979 23.6905 15.1437 22.9684 15.4241C22.8992 15.451 22.8032 15.4779 22.6995 15.5125C22.2347 15.6623 21.5279 15.8813 21.2859 16.4459C21.1476 16.7609 21.1898 17.1297 21.3973 17.5484C21.4779 17.7481 22.8147 20.7482 25.811 21.2438C25.811 21.2591 25.8033 21.2706 25.7956 21.2937C25.7495 21.4089 25.4191 21.8276 23.4101 22.1349C23.0951 22.181 23.0183 22.5383 22.93 22.9455C22.8954 23.0876 22.8685 23.2412 22.8186 23.3911C22.8032 23.4372 22.8032 23.4372 22.7494 23.4372H22.7302C22.6419 23.4372 22.5036 23.418 22.3461 23.3911C22.058 23.3373 21.6662 23.2681 21.1745 23.2681C20.894 23.2681 20.6059 23.295 20.3255 23.3373C19.7071 23.441 19.2077 23.7982 18.6814 24.167C17.967 24.6664 17.2371 25.1888 16.1116 25.1888C16.0655 25.1888 16.0156 25.1888 15.9695 25.1811H15.9541H15.9387H15.8581C14.7325 25.1811 14.0027 24.6587 13.2882 24.1593C12.7619 23.7829 12.2587 23.4333 11.6441 23.3296C11.356 23.2835 11.0679 23.2605 10.7952 23.2605C10.2958 23.2605 9.90399 23.3373 9.62357 23.3911C9.46608 23.4256 9.32779 23.4448 9.23944 23.4448C9.16261 23.4448 9.16261 23.4372 9.15109 23.3911C9.10499 23.2412 9.07426 23.0838 9.03969 22.9378C8.95134 22.5268 8.87451 22.1695 8.55952 22.1234C6.5505 21.8161 6.22783 21.3974 6.17405 21.2822C6.16637 21.263 6.15869 21.2476 6.15869 21.2361C9.15877 20.7444 10.4917 17.7405 10.5724 17.5407C10.7798 17.122 10.8105 16.7532 10.6838 16.4382C10.4456 15.8774 9.73881 15.6585 9.27017 15.5048C9.15877 15.4702 9.07042 15.4433 9.00127 15.4164C8.39818 15.1783 8.20612 14.9363 8.23301 14.7942C8.26758 14.6213 8.55568 14.4523 8.80921 14.4523C8.86299 14.4523 8.92061 14.46 8.95134 14.4792C9.36236 14.6712 9.74649 14.7749 10.0768 14.7749C10.5993 14.7749 10.8298 14.5368 10.8566 14.5061L10.9104 14.4446L10.9027 14.3639C10.8874 14.1642 10.8835 13.9606 10.8682 13.7455C10.7875 12.3972 10.6761 10.7223 11.0871 9.79658C12.3356 6.9924 14.9861 6.78113 15.7697 6.78113H16.127C16.1615 6.78113 16.173 6.78113 16.1884 6.78113Z" fill="black"/>
</svg>
