<svg width="32" height="32" viewBox="0 0 32 32" fill="none" xmlns="http://www.w3.org/2000/svg">
<path d="M15.9777 1.20001C7.79996 1.20001 1.17773 7.82223 1.17773 16C1.17773 22.2667 5.06662 27.6222 10.5777 29.7778C10.4444 28.6 10.3333 26.8222 10.6222 25.5333C10.8888 24.3778 12.3555 18.1778 12.3555 18.1778C12.3555 18.1778 11.9111 17.2889 11.9111 15.9778C11.9111 13.9111 13.1111 12.3778 14.5777 12.3778C15.8444 12.3778 16.4444 13.3333 16.4444 14.4667C16.4444 15.7333 15.6444 17.6445 15.2222 19.4C14.8666 20.8667 15.9555 22.0667 17.4222 22.0667C20.0444 22.0667 22.0666 19.2889 22.0666 15.2889C22.0666 11.7556 19.5111 9.26668 15.8888 9.26668C11.6888 9.26668 9.19996 12.4222 9.19996 15.6889C9.19996 16.9556 9.68885 18.3333 10.3111 19.0667C10.4222 19.2222 10.4444 19.3333 10.4222 19.4889C10.3111 19.9556 10.0666 20.9556 10.0222 21.1556C9.95551 21.4222 9.79996 21.4889 9.53329 21.3556C7.68885 20.4889 6.53329 17.8 6.53329 15.6222C6.53329 10.9556 9.93329 6.66668 16.3111 6.66668C21.4444 6.66668 25.4222 10.3333 25.4222 15.2C25.4222 20.2889 22.2 24.4 17.7555 24.4C16.2666 24.4 14.8444 23.6222 14.3555 22.7111C14.3555 22.7111 13.6222 25.5333 13.4444 26.2222C13.1111 27.5111 12.2 29.1111 11.6 30.1111C12.9777 30.5333 14.4444 30.7778 15.9777 30.7778C24.1555 30.7778 30.7777 24.1556 30.7777 15.9778C30.7777 7.82223 24.1555 1.20001 15.9777 1.20001Z" fill="#BD081C"/>
</svg>
