<svg width="32" height="32" viewBox="0 0 32 32" fill="none" xmlns="http://www.w3.org/2000/svg">
<g clip-path="url(#clip0_2922_8082)">
<path d="M14.4044 31.9342C11.9393 31.6982 9.44373 30.8135 7.29997 29.4155C5.50359 28.2445 5.09819 27.7624 5.09819 26.8015C5.09819 24.8712 7.22187 21.4897 10.8555 17.6358C12.9186 15.4464 15.7928 12.8815 16.1034 12.9507C16.7081 13.0856 21.5394 17.7956 23.3484 20.0133C26.2085 23.5186 27.5229 26.3897 26.8549 27.6695C26.3472 28.6423 23.1963 30.544 20.8818 31.2744C18.9739 31.8766 16.4682 32.1316 14.4044 31.9342ZM2.67177 24.7947C1.17888 22.5056 0.42462 20.2523 0.0608806 16.9931C-0.0596221 15.917 -0.0172231 15.3018 0.333499 13.0923C0.769764 10.3416 2.33816 7.15601 4.2238 5.19707C5.02641 4.36442 5.09782 4.34212 6.07672 4.67295C7.26315 5.0744 8.5314 5.95016 10.4989 7.72845L11.6481 8.76702L11.0196 9.53648C8.10816 13.1087 5.03534 18.1751 3.87866 21.3087C3.25011 23.0112 2.9972 24.7211 3.26871 25.4329C3.45095 25.9139 3.28358 25.7347 2.66991 24.7958L2.67177 24.7947ZM28.8748 25.1838C29.0224 24.4642 28.8357 23.1431 28.3987 21.8102C27.4522 18.9238 24.2875 13.5543 21.3817 9.90336L20.4667 8.75401L21.4568 7.84591C22.7489 6.66014 23.6459 5.95016 24.6144 5.34687C25.378 4.87107 26.4696 4.44992 26.9389 4.44992C27.2279 4.44992 28.2466 5.50931 29.0686 6.66163C30.342 8.44586 31.2785 10.613 31.7531 12.8656C32.0599 14.3227 32.0856 17.4377 31.8026 18.8911C31.5683 20.0835 31.0773 21.6291 30.6013 22.6777C30.2405 23.4632 29.3516 24.9891 28.9611 25.4857C28.7602 25.741 28.7602 25.7407 28.8718 25.1898L28.8748 25.1838ZM14.6685 3.90498C13.3273 3.22475 11.2587 2.49432 10.1162 2.29731C9.71597 2.22855 9.03275 2.18952 8.59872 2.21182C7.65553 2.2594 7.69755 2.21033 9.20979 1.49627C10.4669 0.902638 11.5157 0.553597 12.9402 0.254738C14.5413 -0.0816646 17.552 -0.0853818 19.1278 0.24656C20.8294 0.605266 22.8337 1.35056 23.9628 2.04566L24.299 2.25159L23.5292 2.21294C21.9983 2.13562 19.7675 2.75378 17.3724 3.91799C16.6501 4.26964 16.0223 4.54991 15.9762 4.54248C15.9304 4.53356 15.3417 4.24696 14.667 3.90498H14.6685Z" fill="#107C10"/>
</g>
<defs>
<clipPath id="clip0_2922_8082">
<rect width="32" height="32" rx="16" fill="white"/>
</clipPath>
</defs>
</svg>
