<svg width="32" height="32" viewBox="0 0 32 32" fill="none" xmlns="http://www.w3.org/2000/svg">
<g clip-path="url(#clip0_2922_8134)">
<path d="M25.0666 32H6.93337C3.10425 32 0 28.8958 0 25.0666V6.93337C0 3.10425 3.10425 0 6.93337 0H25.0667C28.8957 0 32 3.10425 32 6.93337V25.0667C32 28.8957 28.8958 32 25.0666 32Z" fill="#00B900"/>
<path d="M27.5989 14.593C27.5989 9.37963 22.3726 5.138 15.948 5.138C9.52299 5.138 4.29736 9.37963 4.29736 14.593C4.29736 19.2668 8.44211 23.181 14.0411 23.921C14.4206 24.0029 14.9369 24.1714 15.0674 24.4956C15.1849 24.79 15.1441 25.2516 15.1049 25.5494L14.9386 26.5469C14.8877 26.8413 14.7042 27.6989 15.9477 27.1749C17.1912 26.6509 22.6577 23.224 25.1019 20.4104H25.1014C26.7899 18.5589 27.5989 16.6798 27.5989 14.5933" fill="white"/>
<path d="M13.581 12.075H12.7635C12.6381 12.075 12.5366 12.1766 12.5366 12.3016V17.3781C12.5366 17.5029 12.6382 17.6031 12.7635 17.6031H13.581C13.7064 17.6031 13.8079 17.5031 13.8079 17.3781V12.3004C13.8079 12.1754 13.7062 12.0737 13.581 12.0737M19.206 12.075H18.3876C18.262 12.075 18.1607 12.1766 18.1607 12.3016V15.3176L15.8341 12.1757C15.8287 12.1677 15.8226 12.16 15.8166 12.1529L15.8154 12.1512L15.7975 12.1334L15.7852 12.1234C15.7834 12.1217 15.7815 12.1201 15.7794 12.1189L15.7676 12.1109C15.7655 12.1092 15.7631 12.1084 15.7607 12.1069L15.7487 12.1L15.7415 12.0965L15.7284 12.0909L15.7211 12.0884C15.7166 12.0865 15.7121 12.085 15.7074 12.0839L15.6994 12.0817L15.6866 12.0792C15.6834 12.0785 15.68 12.078 15.677 12.078C15.673 12.0772 15.669 12.0767 15.665 12.0764L15.6532 12.0756C15.6504 12.0756 15.6479 12.0754 15.6452 12.0754H14.8281C14.7027 12.0754 14.6012 12.177 14.6012 12.302V17.3785C14.6012 17.5032 14.7029 17.6035 14.8281 17.6035H15.6452C15.7709 17.6035 15.8725 17.5035 15.8725 17.3785V14.3632L18.2016 17.5091C18.2174 17.5311 18.237 17.5501 18.2595 17.5651C18.26 17.5656 18.2607 17.5664 18.2616 17.567L18.2757 17.5752L18.282 17.579C18.2855 17.5809 18.2892 17.5826 18.2929 17.5841L18.3037 17.5889L18.3104 17.5914L18.3261 17.5961C18.3269 17.5964 18.3282 17.5966 18.3294 17.5969C18.3483 17.602 18.3679 17.6045 18.3875 17.6044H19.2046C19.33 17.6044 19.4315 17.5044 19.4315 17.3794V12.3002C19.4315 12.1752 19.3299 12.0736 19.2046 12.0736" fill="#00B900"/>
<path d="M11.6108 16.3321H9.39014V12.3004C9.39014 12.175 9.28852 12.0735 9.16352 12.0735H8.34601C8.22064 12.0735 8.11914 12.1751 8.11914 12.3004V17.3754C8.11912 17.4339 8.14189 17.4901 8.18264 17.5321C8.18339 17.5335 8.18441 17.5347 8.18564 17.5356C8.18689 17.5366 8.18814 17.5378 8.18914 17.5389C8.23119 17.5794 8.28727 17.602 8.34564 17.6021H11.6106C11.736 17.6021 11.8373 17.5003 11.8373 17.3753V16.5578C11.8373 16.4324 11.7373 16.3309 11.6106 16.3309M23.7186 13.3438C23.844 13.3438 23.9453 13.2421 23.9453 13.1169V12.2994C23.9453 12.174 23.8453 12.0725 23.7186 12.0725H20.4536C20.3948 12.0725 20.3383 12.0954 20.2963 12.1365C20.2955 12.1373 20.2944 12.1381 20.2938 12.139C20.2931 12.1399 20.2913 12.1415 20.2903 12.143C20.2528 12.1835 20.2274 12.2385 20.2274 12.2993V17.3759C20.2274 17.4366 20.2516 17.4919 20.2909 17.5326L20.2938 17.5359L20.297 17.5389C20.3378 17.5781 20.393 17.6024 20.4538 17.6024H23.7188C23.8441 17.6024 23.9454 17.5008 23.9454 17.3758V16.5583C23.9454 16.4329 23.8454 16.3314 23.7188 16.3314H21.4999V15.4733H23.7201C23.7499 15.4733 23.7794 15.4675 23.807 15.4561C23.8345 15.4447 23.8595 15.428 23.8806 15.4069C23.9016 15.3858 23.9183 15.3608 23.9297 15.3332C23.941 15.3057 23.9468 15.2762 23.9468 15.2464V14.4293C23.9468 14.3039 23.8468 14.202 23.7201 14.202H21.4999V13.3441H23.7201L23.7186 13.3438Z" fill="#00B900"/>
</g>
<defs>
<clipPath id="clip0_2922_8134">
<rect width="32" height="32" rx="16" fill="white"/>
</clipPath>
</defs>
</svg>
