<svg width="32" height="33" viewBox="0 0 32 33" fill="none" xmlns="http://www.w3.org/2000/svg">
<g clip-path="url(#clip0_2922_8095)">
<path d="M6.93223 0.5H25.0678C28.8938 0.5 32 3.60625 32 7.43223V25.5678C32 29.3938 28.8938 32.5 25.0678 32.5H6.93223C3.10625 32.5 0 29.3938 0 25.5678V7.43223C0 3.60625 3.10625 0.5 6.93223 0.5Z" fill="#FFD02F"/>
<path d="M20.9034 7.5H18.1227L20.4387 11.5698L15.342 7.5H12.5613L15.1097 12.4767L9.78067 7.5H7L9.78067 13.8333L7 26.5H9.78067L15.1097 12.9264L12.5613 26.5H15.342L20.4387 12.027L18.1227 26.5H20.9034L26 10.6629L20.9034 7.5Z" fill="#050038"/>
</g>
<defs>
<clipPath id="clip0_2922_8095">
<rect y="0.5" width="32" height="32" rx="16" fill="white"/>
</clipPath>
</defs>
</svg>
