<svg width="32" height="32" viewBox="0 0 32 32" fill="none" xmlns="http://www.w3.org/2000/svg">
<g clip-path="url(#clip0_2922_8096)">
<rect width="32" height="32" rx="16" fill="#0A0B09"/>
<path d="M12.8064 31.0317C12.8064 31.4573 12.3 32.0225 11.5 31.875V32L21.75 32.0017V31.8057C20.938 31.9635 20.7384 31.4618 20.7384 31.032C20.7384 30.5047 20.7584 28.773 20.7584 26.6255C20.7584 25.1265 20.2464 24.1467 19.6724 23.6507C23.2364 23.2533 26.9774 21.8947 26.9774 15.7245C26.9774 13.9705 26.3584 12.537 25.3324 11.4135C25.4974 11.007 26.0464 9.3745 25.1734 7.16275C25.1734 7.16275 23.8324 6.731 20.7784 8.80925C19.5004 8.45275 18.1314 8.275 16.7724 8.268C15.4114 8.27525 14.0434 8.45275 12.7664 8.80925C9.71044 6.731 8.36644 7.16275 8.36644 7.16275C7.49644 9.3745 8.04544 11.007 8.21044 11.4135C7.18644 12.537 6.56344 13.9705 6.56344 15.7245C6.56344 21.8797 10.2984 23.2572 13.8514 23.6628C13.3944 24.0643 12.9804 24.7722 12.8354 25.8102C11.9234 26.222 9.60644 26.9307 8.17844 24.476C8.17844 24.476 7.33344 22.934 5.72844 22.8205C5.72844 22.8205 4.16544 22.8003 5.61844 23.7973C5.61844 23.7973 6.66744 24.2913 7.39444 26.1465C7.39444 26.1465 8.33344 29.2708 12.7844 28.3C12.7924 29.6402 12.8064 30.6502 12.8064 31.0317Z" fill="white"/>
</g>
<defs>
<clipPath id="clip0_2922_8096">
<rect width="32" height="32" rx="16" fill="white"/>
</clipPath>
</defs>
</svg>
