<svg width="32" height="32" viewBox="0 0 32 32" fill="none" xmlns="http://www.w3.org/2000/svg">
<rect width="32" height="32" rx="16" fill="#FF4500"/>
<path d="M19.6669 19.3346C18.7485 19.3346 17.9998 18.5858 17.9998 17.6674C17.9998 16.749 18.7485 16.0002 19.6669 16.0002C20.5853 16.0002 21.3342 16.749 21.3342 17.6674C21.3342 18.5858 20.5853 19.3346 19.6669 19.3346ZM19.9614 22.0706C18.8222 23.2066 16.643 23.2962 16.003 23.2962C15.363 23.2962 13.1806 23.2066 12.0446 22.0706C11.875 21.901 11.875 21.629 12.0446 21.4594C12.2142 21.2898 12.4862 21.2898 12.6558 21.4594C13.3726 22.1762 14.9054 22.4322 16.003 22.4322C17.0974 22.4322 18.6334 22.1762 19.3502 21.4594C19.5198 21.2898 19.7918 21.2898 19.9614 21.4594C20.1278 21.629 20.1278 21.901 19.9614 22.0706ZM10.6653 17.6674C10.6653 16.749 11.4142 16.0002 12.3326 16.0002C13.251 16.0002 13.9998 16.749 13.9998 17.6674C13.9998 18.5858 13.251 19.3346 12.3326 19.3346C11.4142 19.3346 10.6653 18.5858 10.6653 17.6674ZM26.6654 16.0002C26.6654 14.7106 25.6222 13.6674 24.3326 13.6674C23.7022 13.6674 23.1326 13.917 22.7134 14.3234C21.1198 13.1714 18.9214 12.429 16.4734 12.3426L17.5358 7.34101L21.0078 8.08021C21.0494 8.96341 21.7726 9.66741 22.6654 9.66741C23.587 9.66741 24.3326 8.92181 24.3326 8.00021C24.3326 7.07861 23.587 6.33301 22.6654 6.33301C22.0094 6.33301 21.4494 6.71381 21.1774 7.26421L17.2989 6.43861C17.1901 6.41621 17.0782 6.43541 16.9854 6.49621C16.8926 6.55701 16.8286 6.64981 16.8062 6.75861L15.6414 12.2466C15.635 12.2786 15.6414 12.3074 15.6414 12.3394C13.1485 12.4034 10.9085 13.149 9.28935 14.317C8.87015 13.9138 8.30375 13.6674 7.67655 13.6674C6.38695 13.6674 5.34375 14.7138 5.34375 16.0002C5.34375 16.9474 5.91015 17.7634 6.72295 18.1282C6.68775 18.3586 6.66855 18.5954 6.66855 18.8354C6.66855 22.4258 10.8478 25.3346 16.003 25.3346C21.1582 25.3346 25.3374 22.4258 25.3374 18.8354C25.3374 18.5986 25.3182 18.365 25.283 18.1346C26.0926 17.7698 26.6654 16.9538 26.6654 16.0002Z" fill="white"/>
</svg>
