<svg width="32" height="32" viewBox="0 0 32 32" fill="none" xmlns="http://www.w3.org/2000/svg">
<rect width="32" height="32" rx="16" fill="#FF0000"/>
<path d="M26.1824 10.8512C25.9392 9.92962 25.2192 9.20642 24.304 8.96002C22.6464 8.51202 16.0032 8.51202 16.0032 8.51202C16.0032 8.51202 9.35678 8.51202 7.70238 8.96002C6.78718 9.20642 6.06718 9.92962 5.82398 10.8512C5.37598 12.5184 5.37598 16 5.37598 16C5.37598 16 5.37598 19.4816 5.82078 21.1488C6.06398 22.0704 6.78398 22.7936 7.69918 23.04C9.35678 23.488 16 23.488 16 23.488C16 23.488 22.6464 23.488 24.3008 23.04C25.216 22.7936 25.936 22.0704 26.1792 21.1488C26.624 19.4816 26.624 16 26.624 16C26.624 16 26.624 12.5184 26.1824 10.8512ZM13.8272 19.1584V12.8416L19.3792 16L13.8272 19.1584Z" fill="white"/>
</svg>
