<svg width="32" height="32" viewBox="0 0 32 32" fill="none" xmlns="http://www.w3.org/2000/svg">
<rect width="32" height="32" rx="16" fill="#0078D7"/>
<path d="M16.0417 22.186C12.6273 22.186 11.0672 20.4466 11.0672 19.1709C11.0668 18.8665 11.1917 18.5754 11.4126 18.366C11.6335 18.1567 11.9308 18.0475 12.2347 18.0643C13.6966 18.0643 13.3142 20.2571 16.0417 20.2571C17.436 20.2571 18.2549 19.4179 18.2549 18.6294C18.2549 18.1556 17.9842 17.6142 17.0637 17.3976L14.0181 16.6294C11.5714 16.0068 11.1451 14.6464 11.1451 13.3842C11.1451 10.7649 13.541 9.8174 15.8218 9.8174C17.9233 9.8174 20.4207 10.9781 20.4207 12.5483C20.4207 13.2251 19.8555 13.5872 19.199 13.5872C17.9503 13.5872 18.1601 11.8343 15.6492 11.8343C14.4005 11.8343 13.744 12.4197 13.744 13.2387C13.744 14.0576 14.7152 14.3351 15.568 14.5212L17.815 15.0288C20.2786 15.5838 20.9351 17.0288 20.9351 18.4128C20.9351 20.5414 19.287 22.186 16.0384 22.186H16.0417ZM25.4696 17.6819C25.5672 17.1232 25.6159 16.557 25.6152 15.9899C25.6271 13.1409 24.3753 10.4333 22.1972 8.59681C20.019 6.76036 17.1388 5.98413 14.3328 6.47737C13.4704 5.98081 12.4922 5.72051 11.497 5.72273C9.45427 5.73521 7.57135 6.83001 6.54999 8.59912C5.52863 10.3682 5.52202 12.5463 6.53263 14.3215C5.96872 17.4201 6.95653 20.5985 9.17743 22.8315C11.3983 25.0646 14.5713 26.0697 17.6728 25.5227C18.5343 26.0188 19.5112 26.2791 20.5053 26.2773C22.547 26.2642 24.4287 25.1698 25.4499 23.4018C26.471 21.6338 26.4785 19.4569 25.4696 17.6819Z" fill="white"/>
</svg>
