<svg width="32" height="32" viewBox="0 0 32 32" fill="none" xmlns="http://www.w3.org/2000/svg">
<path d="M16.0002 1.22882C7.84212 1.22882 1.229 7.84194 1.229 16C1.229 24.1581 7.84212 30.7712 16.0002 30.7712C24.1583 30.7712 30.7714 24.1581 30.7714 16C30.7714 7.84194 24.1583 1.22882 16.0002 1.22882ZM23.7144 22.0442C23.5301 22.2439 23.237 22.3959 22.941 22.4733C22.1368 22.6835 21.1871 22.4656 20.4392 22.1363C18.0546 21.0874 18.581 18.4298 19.6271 16.5971C19.941 16.0467 20.2508 15.4928 20.5628 14.9357C20.8082 14.4973 21.3391 13.7584 21.1308 13.2221C20.9128 12.6599 20.3295 12.6563 19.9464 13.1303C19.5778 13.5866 19.2671 14.2407 19.0127 14.7715C18.7359 15.3498 17.3538 18.3872 17.3538 18.3872C17.0981 18.8823 16.668 19.5933 16.2012 19.9863C15.8527 20.2797 15.2165 20.3658 14.798 20.0618C14.4802 19.8304 14.4175 19.5232 14.4799 19.1658C14.7679 17.5149 17.2725 13.6727 15.5448 13.4023C14.8831 13.2986 14.7032 14.0352 14.4991 14.5053C14.1615 15.2819 13.9045 16.0906 13.5436 16.8586C13.1285 17.7395 12.8111 18.6576 12.5928 19.6051C12.4191 20.3619 12.1938 21.3264 11.332 21.5571C8.973 22.1882 8.2562 20.6304 8.2562 20.6304C7.87124 19.4051 8.23636 18.3031 8.60756 17.1245C8.89428 16.2141 9.06516 15.2755 9.42804 14.3898C10.0754 12.8106 10.7205 9.51586 13.0543 9.72642C13.6498 9.77986 14.316 10.081 14.8306 10.3811C15.2988 10.6544 15.6543 10.8 16.1989 10.5059C16.7288 10.2199 16.9711 9.68898 17.6028 9.5069C18.2792 9.31202 18.7244 9.60034 19.2306 10.0074C19.9397 10.5776 20.0168 10.32 20.6021 10.1703C21.0876 10.0458 21.6508 9.9885 22.1826 10.0794C24.9199 10.5482 23.1765 14.0426 22.5234 15.4467C22.0984 16.36 20.07 20.0336 21.8671 20.5274C22.4092 20.6762 23.108 20.6083 23.5596 20.9971C24.0188 21.3914 23.9733 21.7648 23.7144 22.0442Z" fill="#ED1C40"/>
</svg>
