<svg width="32" height="32" viewBox="0 0 32 32" fill="none" xmlns="http://www.w3.org/2000/svg">
<rect width="32" height="32" rx="16" fill="#0078B5"/>
<path d="M7.77862 13.0086H11.2718V24.2505H7.77862V13.0086ZM9.52655 7.42047C10.6436 7.42047 11.5505 8.32729 11.5505 9.44701C11.5505 10.5667 10.6436 11.4736 9.52655 11.4736C8.40682 11.4736 7.50001 10.5667 7.50001 9.44701C7.49738 8.32992 8.4042 7.42047 9.52655 7.42047Z" fill="white"/>
<path d="M13.4639 13.0086H16.8152V14.5436H16.8625C17.3277 13.6604 18.4658 12.7273 20.1691 12.7273C23.707 12.7273 24.3615 15.0561 24.3615 18.0815V24.2505H20.8682V18.7859C20.8682 17.4796 20.8446 15.8053 19.052 15.8053C17.2331 15.8053 16.9545 17.2246 16.9545 18.6913V24.2531H13.4639V13.0086Z" fill="white"/>
</svg>
