<svg width="32" height="32" viewBox="0 0 32 32" fill="none" xmlns="http://www.w3.org/2000/svg">
<path d="M32 16C32 7.16344 24.8366 0 16 0C7.16344 0 0 7.16344 0 16C0 24.8366 7.16344 32 16 32C24.8366 32 32 24.8366 32 16Z" fill="black"/>
<path d="M15.9834 16C15.9834 14.5272 17.1773 13.3333 18.6501 13.3333C20.1228 13.3333 21.3167 14.5272 21.3167 16C21.3167 17.4728 20.1228 18.6667 18.6501 18.6667C17.1773 18.6667 15.9834 17.4728 15.9834 16Z" fill="#1ABCFE"/>
<path d="M10.6499 21.3334C10.6499 19.8606 11.8438 18.6667 13.3166 18.6667H15.9832V21.3334C15.9832 22.8061 14.7893 24 13.3166 24C11.8438 24 10.6499 22.8061 10.6499 21.3334Z" fill="#0ACF83"/>
<path d="M15.9834 8V13.3333H18.6501C20.1228 13.3333 21.3167 12.1394 21.3167 10.6667C21.3167 9.19391 20.1228 8 18.6501 8H15.9834Z" fill="#FF7262"/>
<path d="M10.6499 10.6667C10.6499 12.1394 11.8438 13.3333 13.3166 13.3333H15.9832V8H13.3166C11.8438 8 10.6499 9.19391 10.6499 10.6667Z" fill="#F24E1E"/>
<path d="M10.6499 16C10.6499 17.4728 11.8438 18.6667 13.3166 18.6667H15.9832V13.3333H13.3166C11.8438 13.3333 10.6499 14.5272 10.6499 16Z" fill="#A259FF"/>
</svg>
