<svg width="32" height="32" viewBox="0 0 32 32" fill="none" xmlns="http://www.w3.org/2000/svg">
<g clip-path="url(#clip0_2922_8555)">
<path d="M16 0C7.16406 0 0 7.16406 0 16C0 24.8359 7.16406 32 16 32C24.8359 32 32 24.8359 32 16C32 7.16406 24.8359 0 16 0ZM24.888 18.9349L24.7943 18.974V19.0182H21.2526C20.0807 19.0156 19.1328 18.0677 19.1328 16.8984V14.5208C19.1328 14.2448 18.9089 14.0182 18.6302 14.0182C18.3542 14.0182 18.1276 14.2422 18.1276 14.5208V20.3385C18.1276 21.5104 17.1771 22.4583 16.0078 22.4583C14.8359 22.4583 13.888 21.5078 13.888 20.3385V11.6615C13.888 11.3854 13.6641 11.1589 13.3854 11.1589C13.1094 11.1589 12.8828 11.3828 12.8828 11.6615V16.9036C12.8802 18.0729 11.9323 19.0208 10.763 19.0208H7.20052L7.10938 18.9323V17.4948L7.20052 17.4063H10.7526C11.0286 17.4063 11.2552 17.1823 11.2552 16.9036V11.6615C11.2552 10.4896 12.2057 9.54167 13.375 9.54167C14.5469 9.54167 15.4948 10.4922 15.4948 11.6615V20.3411C15.4948 20.6172 15.7188 20.8438 15.9974 20.8438C16.2734 20.8438 16.5 20.6198 16.5 20.3411V14.5234C16.5 13.3516 17.4505 12.4036 18.6198 12.4036C19.7917 12.4036 20.7396 13.3542 20.7396 14.5234V16.9036C20.7396 17.1797 20.9635 17.4063 21.2422 17.4063H24.7865V17.4453L24.8802 17.4896L24.888 18.9349Z" fill="#FF0F50"/>
</g>
<defs>
<clipPath id="clip0_2922_8555">
<rect width="32" height="32" fill="white"/>
</clipPath>
</defs>
</svg>
