<svg width="32" height="33" viewBox="0 0 32 33" fill="none" xmlns="http://www.w3.org/2000/svg">
<g clip-path="url(#clip0_2922_8139)">
<path fill-rule="evenodd" clip-rule="evenodd" d="M30.4143 2.25622C31.135 3.20862 31.4598 4.78734 31.6197 6.70661C31.8312 9.57072 31.9162 13.0077 31.9974 16.5592C31.8923 20.1768 31.8495 23.8252 31.6197 26.4117C31.4384 28.3971 31.0532 29.7265 30.4099 30.5329C29.5916 31.338 28.0216 32.0178 25.7832 32.179C23.0607 32.4112 19.7019 32.4087 15.9961 32.5C11.8769 32.4295 9.08325 32.4597 6.15241 32.1802C3.86616 32.0216 2.37053 31.3499 1.45023 30.5392C0.768513 29.6239 0.568969 28.6507 0.380127 26.3695C0.144073 23.7352 0.0918269 20.1654 0.00244141 16.5787C0.13652 13.0108 0.144703 9.41461 0.382015 6.72676C0.541272 4.60605 0.792433 3.18029 1.43639 2.27385C2.33968 1.504 3.88064 1.12128 6.17948 0.932437C9.32686 0.564194 12.6039 0.491804 15.9917 0.499987C19.4784 0.505653 22.8253 0.60511 25.8116 0.899075C27.8259 1.06022 29.4927 1.40706 30.4111 2.25622H30.4143Z" fill="#B92B27"/>
<path d="M20.0282 22.3579C21.2501 21.5885 22.2563 20.5211 22.9524 19.256C23.6485 17.991 24.0117 16.5698 24.0078 15.1258C24.0078 10.4318 20.2536 6.62793 15.6219 6.62793C10.9902 6.62793 7.2373 10.4337 7.2373 15.1258C7.2373 19.818 10.9909 23.6238 15.6219 23.6238C16.288 23.6236 16.9517 23.5428 17.5985 23.3833C18.3948 24.8311 19.6071 25.8565 22.181 25.3661V23.9278C22.181 23.9278 20.5318 23.513 20.0282 22.3579ZM19.9697 16.252C19.9697 17.6714 19.5184 18.9587 18.7844 19.9105C18.2522 19.3371 17.5997 18.8887 16.8736 18.5973C16.1476 18.306 15.3661 18.179 14.5852 18.2254V19.896C14.5852 19.896 15.8284 19.9451 16.6801 21.4067C16.3576 21.5023 16.0231 21.5511 15.6867 21.5515C13.3212 21.5515 11.4063 19.1784 11.4063 16.2501V14.0595C11.4063 11.1318 13.3231 8.75807 15.6867 8.75807C18.0504 8.75807 19.9672 11.1318 19.9672 14.0595V16.2482L19.9697 16.252Z" fill="white"/>
</g>
<defs>
<clipPath id="clip0_2922_8139">
<rect y="0.5" width="31.9981" height="32" rx="15.9991" fill="white"/>
</clipPath>
</defs>
</svg>
