<svg width="32" height="32" viewBox="0 0 32 32" fill="none" xmlns="http://www.w3.org/2000/svg">
<rect width="32" height="32" rx="16" fill="#F5F5F5"/>
<path d="M16 29.25C23.3178 29.25 29.25 23.3178 29.25 16C29.25 8.68223 23.3178 2.75 16 2.75C8.68223 2.75 2.75 8.68223 2.75 16C2.75 23.3178 8.68223 29.25 16 29.25Z" fill="url(#paint0_linear_2922_8076)"/>
<path d="M22.4486 10.3738L20.0833 22.304C20.0833 22.304 19.752 23.1322 18.8411 22.7336L13.3807 18.5464L11.3932 17.5889L8.0496 16.4657C8.0496 16.4657 7.5372 16.2846 7.48544 15.8861C7.43368 15.4875 8.06513 15.2753 8.06513 15.2753L21.3565 10.0633C21.3565 10.0581 22.4486 9.57678 22.4486 10.3738Z" fill="white"/>
<path d="M12.9566 22.1696C12.9566 22.1696 12.7962 22.1541 12.5995 21.5278C12.4028 20.9016 11.3936 17.5891 11.3936 17.5891L19.4212 12.4909C19.4212 12.4909 19.887 12.2114 19.8663 12.4909C19.8663 12.4909 19.9491 12.5427 19.7007 12.7704C19.4522 13.0033 13.3966 18.4482 13.3966 18.4482" fill="#D2E4F0"/>
<path d="M15.4712 20.151L13.3129 22.1229C13.3129 22.1229 13.1421 22.2523 12.9609 22.1695L13.375 18.5103" fill="#B5CFE4"/>
<defs>
<linearGradient id="paint0_linear_2922_8076" x1="16" y1="2.75" x2="16" y2="29.1533" gradientUnits="userSpaceOnUse">
<stop stop-color="#41BCE7"/>
<stop offset="1" stop-color="#22A6DC"/>
</linearGradient>
</defs>
</svg>
