<svg width="32" height="32" viewBox="0 0 32 32" fill="none" xmlns="http://www.w3.org/2000/svg">
<rect width="32" height="32" rx="16" fill="#F5F5F5"/>
<path d="M25.9993 16.2442C25.9993 15.5553 25.9327 14.8442 25.8215 14.1776H16.1992V18.1109H21.7104C21.4882 19.3776 20.7548 20.4887 19.6659 21.1998L22.9548 23.7554C24.8882 21.9554 25.9993 19.3332 25.9993 16.2442Z" fill="#4280EF"/>
<path d="M16.1991 26.1999C18.9547 26.1999 21.2658 25.2887 22.9547 23.7332L19.6658 21.1998C18.7547 21.822 17.5769 22.1776 16.1991 22.1776C13.5324 22.1776 11.2879 20.3776 10.4657 17.9775L7.08789 20.5776C8.82124 24.022 12.3324 26.1999 16.1991 26.1999Z" fill="#34A353"/>
<path d="M10.466 17.9554C10.0438 16.6887 10.0438 15.3109 10.466 14.0442L7.08823 11.422C5.64377 14.3109 5.64377 17.711 7.08823 20.5777L10.466 17.9554Z" fill="#F6B704"/>
<path d="M16.1991 9.84419C17.6436 9.82197 19.0658 10.3775 20.1103 11.3775L23.0214 8.44418C21.1769 6.71083 18.7325 5.77748 16.1991 5.7997C12.3324 5.7997 8.82124 7.97751 7.08789 11.422L10.4657 14.0442C11.2879 11.622 13.5324 9.84419 16.1991 9.84419Z" fill="#E54335"/>
</svg>
