<svg width="32" height="32" viewBox="0 0 32 32" fill="none" xmlns="http://www.w3.org/2000/svg">
<g clip-path="url(#clip0_2922_8533)">
<path d="M32.0002 16C31.9472 20.2301 30.2227 24.2673 27.2033 27.2304C24.184 30.1935 20.115 31.8417 15.8847 31.8151C11.6543 31.7886 7.60632 30.0895 4.62437 27.0888C1.64242 24.0881 -0.03125 20.0295 -0.03125 15.7991C-0.03125 11.5687 1.64242 7.51008 4.62437 4.50937C7.60632 1.50866 11.6543 -0.190436 15.8847 -0.21697C20.115 -0.243503 24.184 1.40468 27.2033 4.36775C30.2227 7.33082 31.9472 11.3681 32.0002 15.5982V16Z" fill="#44BBFF"/>
<path d="M26 11.9072C25.9146 13.7927 24.5691 16.3836 22.0582 19.6509C19.6109 22.8236 17.6582 24.3854 16 24.7272C15.7797 24.7717 15.5556 24.7942 15.3309 24.7945C13.6091 24.7945 11.9327 19.9727 10.8273 15.9254C10.2491 13.8418 9.76183 12.9672 9.20183 12.9945C8.68547 13.0109 8.00001 13.4963 7.27274 14.0109L7.25092 14.0291C7.13891 14.1078 7.00086 14.1405 6.86544 14.1201C6.73002 14.0998 6.60762 14.0281 6.52365 13.92L6.1091 13.3854C6.02907 13.2767 5.9922 13.1421 6.00564 13.0078C6.01907 12.8735 6.08185 12.7489 6.18183 12.6582L6.5291 12.3636C8.76365 10.4163 11.4855 8.18179 12.7055 8.18179C14.3073 8.18179 14.5546 9.05815 15.0473 10.8018C15.0709 10.8854 15.5073 12.8145 16 14.7327C16.4927 16.6509 17.0473 18.5818 17.2855 18.5818C17.4291 18.5818 17.9273 17.9454 18.8273 16.5327C19.5673 15.3691 20.1636 14.2727 20.2818 13.8618C20.4182 13.3763 20.3946 13.0036 20.2055 12.7563C19.96 12.4382 19.4673 12.3636 19.0909 12.3636C18.8038 12.3651 18.5181 12.4054 18.2418 12.4836C18.1696 12.5033 18.0933 12.5027 18.0214 12.4819C17.9495 12.4611 17.8847 12.4209 17.8341 12.3656C17.7836 12.3104 17.7492 12.2423 17.7349 12.1688C17.7205 12.0953 17.7267 12.0193 17.7527 11.9491C18.7527 9.20906 20.5455 7.85815 23.0818 7.94906C23.98 7.97634 24.68 8.2527 25.1636 8.77634C25.78 9.42906 26.0564 10.4836 26 11.9072Z" fill="white"/>
</g>
<defs>
<clipPath id="clip0_2922_8533">
<rect width="32" height="32" fill="white"/>
</clipPath>
</defs>
</svg>
