<svg width="32" height="32" viewBox="0 0 32 32" fill="none" xmlns="http://www.w3.org/2000/svg">
<g clip-path="url(#clip0_2922_8080)">
<path d="M26.6955 32H5.3045C2.37488 32 0 29.6251 0 26.6955V5.3045C0 2.37488 2.37488 0 5.3045 0H26.6955C29.6251 0 32 2.37488 32 5.3045V26.6955C32 29.6251 29.6251 32 26.6955 32Z" fill="#00AEEF"/>
<path d="M16.3775 13.4733C14.7126 13.4733 13.2638 14.4098 12.5342 15.7846C11.8043 14.4098 10.3563 13.4733 8.69033 13.4733C7.74856 13.4723 6.83202 13.7777 6.07908 14.3434V10.678C6.07489 10.4501 5.98132 10.2331 5.81855 10.0735C5.65579 9.91403 5.43686 9.82486 5.20896 9.82526C4.73371 9.82526 4.35121 10.2044 4.34033 10.678V17.8958H4.34121C4.37958 20.2656 6.31083 22.1748 8.69033 22.1748C10.3563 22.1748 11.8043 21.2374 12.5342 19.8639C13.2638 21.2374 14.7126 22.1748 16.3775 22.1748C18.7795 22.1748 20.728 20.227 20.728 17.8231C20.728 15.4205 18.7795 13.4733 16.3775 13.4733ZM8.69033 20.4329C7.24896 20.4329 6.07908 19.2653 6.07908 17.8238C6.07908 16.3828 7.24896 15.215 8.69033 15.215C10.1316 15.215 11.299 16.3828 11.299 17.8231C11.299 19.2649 10.1316 20.4329 8.69033 20.4329ZM16.3775 20.4329C14.9357 20.4329 13.7667 19.2649 13.7667 17.8231C13.7667 16.3828 14.9357 15.215 16.3775 15.215C17.8186 15.215 18.987 16.3828 18.987 17.8231C18.987 19.2649 17.8186 20.4329 16.3775 20.4329Z" fill="white"/>
<path d="M27.479 20.7181L25.1142 17.8175L27.4818 14.9113C27.7812 14.5279 27.6953 13.9925 27.2821 13.7081C26.8683 13.4213 26.2878 13.4948 25.9677 13.8668V13.8663L23.9307 16.3628L21.8956 13.8663V13.8668C21.5787 13.4948 20.9946 13.4213 20.5821 13.7081C20.1696 13.9928 20.0833 14.5279 20.3842 14.9113H20.3833L22.7468 17.8175L20.3833 20.7181H20.3842C20.0833 21.1028 20.1696 21.6364 20.5821 21.922C20.9946 22.2076 21.5787 22.1349 21.8956 21.7624L23.9307 19.2694L25.9648 21.7624C26.2853 22.1349 26.8656 22.2076 27.2793 21.922C27.6927 21.6364 27.779 21.1028 27.479 20.7181Z" fill="white"/>
</g>
<defs>
<clipPath id="clip0_2922_8080">
<rect width="32" height="32" rx="16" fill="white"/>
</clipPath>
</defs>
</svg>
