<svg width="32" height="33" viewBox="0 0 32 33" fill="none" xmlns="http://www.w3.org/2000/svg">
<g clip-path="url(#clip0_2922_8145)">
<path d="M19.23 18.0774C19.6807 18.0774 20.0563 18.2528 20.3568 18.6034C20.6572 18.9038 20.8075 19.2793 20.8075 19.7301C20.8075 20.1808 20.6572 20.5564 20.3566 20.8568C20.0563 21.1573 19.6807 21.3075 19.23 21.3075H12.6949C12.244 21.3075 11.8684 21.1572 11.5681 20.8567C11.2675 20.5563 11.1172 20.1808 11.1172 19.7301C11.1172 19.2793 11.2675 18.9037 11.5681 18.6033C11.8685 18.2527 12.2441 18.0774 12.6949 18.0774H19.23ZM12.6949 13.2701C12.244 13.2701 11.8684 13.1198 11.5681 12.8192C11.2675 12.5188 11.1172 12.1432 11.1172 11.6924C11.1172 11.2418 11.2675 10.8663 11.5681 10.5658C11.8685 10.2653 12.2441 10.115 12.6949 10.115H16.9013C17.3521 10.115 17.7277 10.2653 18.0281 10.5658C18.3286 10.8663 18.4789 11.2418 18.4789 11.6924C18.4789 12.1433 18.3286 12.5189 18.0281 12.8192C17.7276 13.1198 17.352 13.2701 16.9013 13.2701H12.6949ZM22.3848 13.2701V10.115C22.3848 8.81286 21.9091 7.68608 20.9577 6.73462C20.0062 5.78317 18.8794 5.30744 17.5774 5.30744H11.1924C9.89038 5.30744 8.76365 5.78317 7.81219 6.73462C6.86073 7.68608 6.385 8.81286 6.385 10.115V21.3074C6.385 22.6094 6.86073 23.7361 7.81219 24.6876C8.76365 25.6391 9.89038 26.1149 11.1924 26.1149H20.8075C22.1095 26.1149 23.2362 25.6391 24.1877 24.6876C25.1392 23.7361 25.615 22.6094 25.615 21.3074V16.5C25.615 16.0491 25.4647 15.6735 25.1642 15.373C24.8637 15.0726 24.4882 14.9224 24.0375 14.9224C23.5868 14.9224 23.1862 14.7721 22.8356 14.4717C22.535 14.1211 22.3848 13.7205 22.3848 13.2697V13.2701ZM28.8452 0.500061C29.6965 0.500061 30.4226 0.825562 31.0235 1.47656C31.6745 2.07747 32 2.80362 32 3.65499V29.345C32 30.1963 31.6745 30.9475 31.0235 31.5985C30.4226 32.1994 29.6965 32.4999 28.8452 32.4999H3.15493C2.30356 32.4999 1.55237 32.1994 0.901363 31.5985C0.300454 30.9475 0 30.1964 0 29.3451V3.65499C0 2.80362 0.300454 2.07747 0.901363 1.47656C1.55237 0.825562 2.30356 0.500061 3.15493 0.500061L28.8452 0.500061Z" fill="#FF5722"/>
<path d="M10.5134 26.041C9.02085 25.8495 7.55977 24.7555 6.8632 23.3077C6.41076 22.367 6.44034 22.8994 6.44034 15.7334C6.44034 9.6651 6.44561 9.32649 6.54633 8.95063C6.99558 7.275 8.33659 5.94278 10.0578 5.46252C10.5051 5.33766 10.5518 5.33622 14.3536 5.33462C18.1593 5.33302 18.2022 5.33446 18.6976 5.4606C20.0332 5.80097 21.2486 6.79218 21.8682 8.04622C22.3047 8.92952 22.3079 8.95334 22.3461 11.4659L22.38 13.6987L22.5271 14.0095C22.8094 14.6064 23.1738 14.8381 24.0003 14.9459C24.6208 15.0268 24.8841 15.1324 25.1517 15.4079C25.5629 15.8312 25.5453 15.6666 25.5453 19.0966C25.5453 22.1702 25.545 22.1782 25.4128 22.5991C25.1391 23.4708 24.7033 24.1557 24.0112 24.8022C23.2554 25.5079 22.4294 25.905 21.4268 26.0444C20.8881 26.1194 11.1006 26.1163 10.5134 26.041ZM19.893 21.1955C20.2299 21.042 20.474 20.8119 20.6439 20.4882C20.7741 20.2402 20.7958 20.1301 20.7958 19.7184C20.796 19.1631 20.7044 18.9374 20.3171 18.5385C19.8498 18.0568 20.0874 18.0819 15.9616 18.0805L12.3128 18.0792L12.0215 18.2242C11.4914 18.4885 11.1606 18.9956 11.1163 19.6119C11.0669 20.2994 11.3756 20.8621 11.9627 21.1547L12.2562 21.301L15.9616 21.2997C19.4254 21.2986 19.6818 21.2917 19.893 21.1955ZM17.5755 13.1398C18.1843 12.8515 18.4775 12.3809 18.4775 11.692C18.4775 11.0068 18.1769 10.5241 17.5755 10.2427L17.2928 10.1105L14.83 10.1099C11.993 10.1092 11.9967 10.1087 11.5488 10.5687C11.2364 10.8896 11.1035 11.2333 11.1035 11.7214C11.1035 12.3559 11.5278 12.9849 12.0906 13.1847C12.2749 13.2502 12.7978 13.2666 14.8058 13.2698L17.2928 13.2736L17.5755 13.1398Z" fill="white"/>
</g>
<defs>
<clipPath id="clip0_2922_8145">
<rect y="0.5" width="32" height="32" rx="16" fill="white"/>
</clipPath>
</defs>
</svg>
