<svg width="33" height="33" viewBox="0 0 33 33" fill="none" xmlns="http://www.w3.org/2000/svg">
<g clip-path="url(#clip0_2922_8099)">
<path d="M20.975 0.5C24.175 0.5 25.775 0.5 27.525 1.05C28.454 1.38985 29.2977 1.9283 29.9972 2.62779C30.6967 3.32729 31.2352 4.17098 31.575 5.1C32.125 6.85 32.125 8.45 32.125 11.655V21.34C32.125 24.55 32.125 26.16 31.575 27.89C31.2352 28.819 30.6967 29.6627 29.9972 30.3622C29.2977 31.0617 28.454 31.6002 27.525 31.94C25.775 32.5 24.175 32.5 20.975 32.5H11.275C8.065 32.5 6.455 32.5 4.725 31.95C3.79598 31.6102 2.95229 31.0717 2.25279 30.3722C1.5533 29.6727 1.01485 28.829 0.675 27.9C0.125 26.15 0.125 24.55 0.125 21.345V11.65C0.125 8.44 0.125 6.83 0.675 5.1C1.01485 4.17098 1.5533 3.32729 2.25279 2.62779C2.95229 1.9283 3.79598 1.38985 4.725 1.05C6.475 0.5 8.075 0.5 11.275 0.5H20.975Z" fill="#00D632"/>
<path d="M21.3598 12.4C21.6098 12.65 22.0248 12.65 22.2598 12.4L23.5098 11.1C23.7748 10.85 23.7598 10.4 23.4798 10.13C22.4975 9.27445 21.3556 8.62189 20.1198 8.21L20.5148 6.31C20.5998 5.895 20.2898 5.505 19.8748 5.505H17.4548C17.3035 5.50663 17.1574 5.56016 17.0409 5.65664C16.9244 5.75312 16.8446 5.8867 16.8148 6.035L16.4648 7.725C13.2448 7.89 10.5148 9.525 10.5148 12.875C10.5148 15.775 12.7698 17.02 15.1548 17.875C17.4098 18.735 18.6048 19.055 18.6048 20.265C18.6048 21.51 17.4148 22.24 15.6548 22.24C14.0548 22.24 12.3748 21.705 11.0748 20.4C11.0144 20.3395 10.9427 20.2916 10.8638 20.2588C10.7848 20.2261 10.7002 20.2092 10.6148 20.2092C10.5293 20.2092 10.4447 20.2261 10.3658 20.2588C10.2869 20.2916 10.2152 20.3395 10.1548 20.4L8.80478 21.75C8.67777 21.8775 8.60645 22.0501 8.60645 22.23C8.60645 22.4099 8.67777 22.5825 8.80478 22.71C9.85478 23.745 11.1848 24.495 12.7008 24.91L12.3308 26.695C12.2458 27.11 12.5508 27.495 12.9658 27.5L15.3908 27.52C15.5438 27.5207 15.6922 27.4682 15.8108 27.3715C15.9294 27.2749 16.0107 27.14 16.0408 26.99L16.3908 25.295C20.2648 25.035 22.6248 22.9 22.6248 19.785C22.6248 16.915 20.2748 15.705 17.4248 14.72C15.7948 14.115 14.3848 13.7 14.3848 12.455C14.3848 11.245 15.6998 10.765 17.0198 10.765C18.6998 10.765 20.3148 11.46 21.3698 12.41L21.3598 12.4Z" fill="white"/>
</g>
<defs>
<clipPath id="clip0_2922_8099">
<rect x="0.125" y="0.5" width="32" height="32" rx="16" fill="white"/>
</clipPath>
</defs>
</svg>
