<svg width="32" height="32" viewBox="0 0 32 32" fill="none" xmlns="http://www.w3.org/2000/svg">
<rect width="32" height="32" rx="16" fill="#39475D"/>
<path d="M21.5169 24.2592C20.8801 24.9408 19.4017 25.4016 18.0769 25.424H17.9329C13.4849 25.424 12.5217 22.1536 12.5217 20.2464V14.944H10.7713C10.5697 14.944 10.4033 14.7808 10.4033 14.576V12.0736C10.4033 11.808 10.5697 11.5744 10.8193 11.4848C13.1009 10.6816 13.8177 8.68802 13.9233 7.17442C13.9521 6.77122 14.1633 6.57281 14.5153 6.57281H17.1265C17.3281 6.57281 17.4945 6.73601 17.4945 6.94081V11.1808H20.5505C20.7521 11.1808 20.9185 11.344 20.9185 11.5456V14.5536C20.9185 14.7552 20.7553 14.9216 20.5505 14.9216H17.4785V19.824C17.4785 21.056 18.2913 21.3952 18.7905 21.3952C19.2705 21.3824 19.7441 21.2384 19.9809 21.1424C20.1569 21.072 20.3105 21.024 20.4513 21.0592C20.5793 21.0912 20.6657 21.184 20.7233 21.3504L21.5329 23.7184C21.5969 23.9104 21.6513 24.1152 21.5169 24.2592Z" fill="white"/>
</svg>
