<svg width="32" height="32" viewBox="0 0 32 32" fill="none" xmlns="http://www.w3.org/2000/svg">
<g clip-path="url(#clip0_2922_8089)">
<path d="M27.2 0H4.8C2.14903 0 0 2.14903 0 4.8V27.2C0 29.851 2.14903 32 4.8 32H27.2C29.851 32 32 29.851 32 27.2V4.8C32 2.14903 29.851 0 27.2 0Z" fill="#3396CD"/>
<path d="M23.8377 6.58124C24.5252 7.71249 24.8314 8.87499 24.8314 10.35C24.8314 15.0437 20.8252 21.1437 17.5689 25.425H10.1439L7.16895 7.61249L13.6752 6.99374L15.2564 19.6687C16.7252 17.2687 18.5439 13.5 18.5439 10.9375C18.5439 9.53124 18.3002 8.57499 17.9252 7.78749L23.8377 6.58124Z" fill="white"/>
</g>
<defs>
<clipPath id="clip0_2922_8089">
<rect width="32" height="32" rx="16" fill="white"/>
</clipPath>
</defs>
</svg>
