<svg width="33" height="32" viewBox="0 0 33 32" fill="none" xmlns="http://www.w3.org/2000/svg">
<mask id="mask0_7_200" style="mask-type:luminance" maskUnits="userSpaceOnUse" x="1" y="0" width="31" height="32">
<path d="M31.232 0H1.5V32H31.232V0Z" fill="white"/>
</mask>
<g mask="url(#mask0_7_200)">
<path d="M29.1459 25.9141C28.9219 27.5804 27.8006 29.0213 26.2314 29.6618C25.4624 29.9813 24.6293 30.0784 23.7961 29.9813C22.9958 29.8858 22.194 29.629 21.3624 29.1497C20.2097 28.5077 19.0556 27.5162 17.7103 26.0426C19.8245 23.4476 21.1056 21.078 21.5864 18.9638C21.8103 17.9709 21.8432 17.0735 21.7461 16.2404C21.6177 15.4401 21.3295 14.7025 20.8816 14.062C19.8887 12.6211 18.2224 11.788 16.365 11.788C14.5076 11.788 12.8413 12.6525 11.8484 14.062C11.4005 14.7025 11.1123 15.4401 10.9839 16.2404C10.8555 17.0735 10.8883 18.0022 11.1437 18.9638C11.6244 21.078 12.9369 23.4804 15.0197 26.0739C13.7058 27.5476 12.5218 28.5405 11.3676 29.181C10.5345 29.6618 9.73417 29.9186 8.93387 30.0142C8.10819 30.1068 7.27355 29.9963 6.50013 29.6947C4.93089 29.0541 3.80957 27.6118 3.58561 25.947C3.49005 25.1467 3.55425 24.3464 3.87378 23.449C3.96933 23.128 4.13059 22.8085 4.29035 22.4248C4.51431 21.9127 4.77113 21.3677 5.02645 20.8227L5.05929 20.7585C7.26907 15.9851 9.64011 11.1161 12.1067 6.37551L12.2023 6.1829C12.4591 5.70362 12.7144 5.19 12.9712 4.70922C13.228 4.19709 13.5162 3.71631 13.8686 3.29974C14.5419 2.5308 15.4378 2.11422 16.4307 2.11422C17.4236 2.11422 18.321 2.5308 18.9929 3.29974C19.3452 3.71631 19.6334 4.19709 19.8902 4.70922C20.147 5.19 20.4023 5.70213 20.6591 6.18141L20.7562 6.37402C23.1899 11.146 25.561 16.0149 27.7708 20.7884V20.8197C28.0276 21.3318 28.2515 21.9097 28.5068 22.4218C28.6666 22.807 28.8279 23.1265 28.9234 23.4461C29.1787 24.2807 29.2743 25.081 29.1459 25.9141ZM16.365 24.4076C14.636 22.2292 13.5147 20.1792 13.1295 18.4502C12.9697 17.7126 12.9369 17.072 13.0339 16.4957C13.0981 15.9836 13.2907 15.5342 13.546 15.1504C14.1552 14.2859 15.1795 13.7409 16.365 13.7409C17.5505 13.7409 18.6076 14.2546 19.184 15.1504C19.4408 15.5356 19.6319 15.9836 19.6961 16.4957C19.7917 17.072 19.7603 17.7454 19.6005 18.4502C19.2168 20.1478 18.0955 22.1978 16.365 24.4076ZM30.8122 22.7428C30.6524 22.3591 30.4912 21.9425 30.3314 21.5901C30.0746 21.0138 29.8193 20.4688 29.5938 19.9567L29.5625 19.9253C27.3527 15.1206 24.9817 10.2516 22.4837 5.44681L22.3881 5.2542C22.1313 4.77342 21.876 4.26129 21.6192 3.74916C21.2982 3.17283 20.9787 2.56364 20.4665 1.98731C19.4408 0.704741 17.9671 0 16.3979 0C14.7958 0 13.3549 0.704741 12.2963 1.92161C11.8155 2.49795 11.4632 3.10713 11.1437 3.68346C10.8868 4.1956 10.6315 4.70773 10.3747 5.1885L10.2792 5.37962C7.81256 10.1844 5.41017 15.0534 3.20039 19.8582L3.16904 19.9224C2.94507 20.4345 2.68826 20.9795 2.43145 21.5558C2.25974 21.9351 2.09998 22.3203 1.95067 22.7085C1.5341 23.894 1.40569 25.0153 1.56545 26.168C1.91782 28.5704 3.51991 30.589 5.72969 31.4849C6.56284 31.8373 7.42734 31.997 8.32469 31.997C8.5815 31.997 8.90103 31.9657 9.15784 31.9328C10.215 31.8044 11.3034 31.4535 12.3605 30.8443C13.6744 30.1083 14.9227 29.0511 16.3322 27.5133C17.7416 29.0511 19.0227 30.1083 20.3038 30.8443C21.3609 31.4535 22.4494 31.8044 23.5065 31.9328C23.7633 31.9657 24.0828 31.997 24.3396 31.997C25.237 31.997 26.1328 31.8373 26.9346 31.4849C29.1772 30.5875 30.7465 28.5375 31.0989 26.168C31.3557 25.0482 31.2273 23.9283 30.8122 22.7428Z" fill="#E0565B"/>
</g>
</svg>
