<svg width="33" height="32" viewBox="0 0 33 32" fill="none" xmlns="http://www.w3.org/2000/svg">
<g clip-path="url(#clip0_7_208)">
<mask id="mask0_7_208" style="mask-type:luminance" maskUnits="userSpaceOnUse" x="0" y="6" width="33" height="20">
<path d="M32.5 6.5H0.5V25.636H32.5V6.5Z" fill="white"/>
</mask>
<g mask="url(#mask0_7_208)">
<path d="M9.51338 13.4501C9.51338 13.8438 9.55595 14.1631 9.63044 14.3972C9.71558 14.6313 9.822 14.8867 9.97098 15.1634C10.0242 15.2486 10.0455 15.3337 10.0455 15.4082C10.0455 15.5146 9.98162 15.621 9.84328 15.7274L9.17284 16.1744C9.07707 16.2383 8.98129 16.2702 8.89616 16.2702C8.78974 16.2702 8.68332 16.217 8.5769 16.1212C8.42792 15.9616 8.30021 15.7913 8.1938 15.621C8.08738 15.4401 7.98096 15.2379 7.8639 14.9932C7.03383 15.9722 5.99094 16.4617 4.7352 16.4617C3.84128 16.4617 3.12828 16.2063 2.60683 15.6955C2.08538 15.1847 1.81934 14.5036 1.81934 13.6523C1.81934 12.7477 2.13859 12.0134 2.78774 11.4601C3.43689 10.9067 4.29888 10.63 5.39499 10.63C5.75681 10.63 6.12928 10.6619 6.52303 10.7151C6.91677 10.7684 7.32116 10.8535 7.74684 10.9493V10.1724C7.74684 9.36363 7.57657 8.79961 7.24667 8.46972C6.90613 8.13982 6.33147 7.98019 5.51205 7.98019C5.13959 7.98019 4.75648 8.02276 4.36273 8.11854C3.96899 8.21431 3.58588 8.33137 3.21342 8.48036C3.04315 8.55485 2.91544 8.59742 2.84095 8.6187C2.76646 8.63999 2.71325 8.65063 2.67068 8.65063C2.5217 8.65063 2.4472 8.54421 2.4472 8.32073V7.79928C2.4472 7.62901 2.46849 7.50131 2.5217 7.42682C2.57491 7.35232 2.67068 7.27783 2.81967 7.20334C3.19213 7.01178 3.63909 6.85216 4.16054 6.72446C4.68199 6.58611 5.23536 6.52226 5.82067 6.52226C7.08704 6.52226 8.01288 6.80959 8.60883 7.38425C9.19413 7.95891 9.4921 8.83154 9.4921 10.0021V13.4501H9.51338ZM5.1928 15.0677C5.54398 15.0677 5.9058 15.0038 6.28891 14.8761C6.67201 14.7484 7.01255 14.5143 7.29988 14.195C7.47015 13.9928 7.59785 13.7694 7.6617 13.5139C7.72555 13.2585 7.76812 12.9499 7.76812 12.5881V12.1411C7.45951 12.0667 7.12961 12.0028 6.78907 11.9602C6.44853 11.9177 6.11864 11.8964 5.78874 11.8964C5.07574 11.8964 4.55429 12.0347 4.20311 12.3221C3.85193 12.6094 3.68166 13.0138 3.68166 13.5459C3.68166 14.046 3.80936 14.4185 4.0754 14.6739C4.33081 14.94 4.70327 15.0677 5.1928 15.0677ZM13.7382 16.217C13.5466 16.217 13.4189 16.185 13.3338 16.1106C13.2487 16.0467 13.1742 15.8977 13.1103 15.6955L10.6095 7.46938C10.5456 7.25655 10.5137 7.1182 10.5137 7.04371C10.5137 6.87344 10.5988 6.77766 10.7691 6.77766H11.812C12.0142 6.77766 12.1526 6.80959 12.227 6.88408C12.3122 6.94793 12.376 7.09692 12.4399 7.29911L14.2277 14.344L15.8878 7.29911C15.9411 7.08628 16.0049 6.94793 16.09 6.88408C16.1752 6.82023 16.3242 6.77766 16.5157 6.77766H17.3671C17.5693 6.77766 17.7076 6.80959 17.7927 6.88408C17.8779 6.94793 17.9524 7.09692 17.9949 7.29911L19.6763 14.4291L21.5174 7.29911C21.5812 7.08628 21.6557 6.94793 21.7302 6.88408C21.8153 6.82023 21.9537 6.77766 22.1452 6.77766H23.1349C23.3052 6.77766 23.401 6.8628 23.401 7.04371C23.401 7.09692 23.3903 7.15013 23.3797 7.21398C23.3691 7.27783 23.3478 7.36297 23.3052 7.48003L20.7405 15.7062C20.6767 15.919 20.6022 16.0573 20.517 16.1212C20.4319 16.185 20.2936 16.2276 20.1127 16.2276H19.1975C18.9953 16.2276 18.8569 16.1957 18.7718 16.1212C18.6866 16.0467 18.6122 15.9084 18.5696 15.6955L16.9201 8.83154L15.2813 15.6849C15.228 15.8977 15.1642 16.0361 15.0791 16.1106C14.9939 16.185 14.8449 16.217 14.6534 16.217H13.7382ZM27.4129 16.5043C26.8596 16.5043 26.3062 16.4405 25.7741 16.3127C25.242 16.185 24.827 16.0467 24.5503 15.8871C24.38 15.7913 24.263 15.6849 24.2204 15.5891C24.1778 15.4933 24.1565 15.3869 24.1565 15.2911V14.7484C24.1565 14.5249 24.2417 14.4185 24.4013 14.4185C24.4652 14.4185 24.529 14.4291 24.5929 14.4504C24.6567 14.4717 24.7525 14.5143 24.8589 14.5568C25.2207 14.7165 25.6145 14.8442 26.0295 14.9293C26.4552 15.0144 26.8702 15.057 27.2959 15.057C27.9663 15.057 28.4878 14.94 28.8496 14.7058C29.2114 14.4717 29.403 14.1312 29.403 13.6949C29.403 13.3969 29.3072 13.1521 29.1156 12.9499C28.9241 12.7477 28.5623 12.5668 28.0408 12.3966L26.4978 11.9177C25.7209 11.6729 25.1462 11.3111 24.7951 10.8322C24.4439 10.364 24.263 9.84251 24.263 9.28914C24.263 8.84218 24.3587 8.44843 24.5503 8.10789C24.7418 7.76736 24.9973 7.46938 25.3165 7.23526C25.6358 6.9905 25.9976 6.80959 26.4233 6.68189C26.8489 6.55419 27.2959 6.50098 27.7641 6.50098C27.9983 6.50098 28.243 6.51162 28.4771 6.54354C28.7219 6.57547 28.9454 6.61804 29.1689 6.6606C29.3817 6.71381 29.5839 6.76702 29.7754 6.83087C29.967 6.89472 30.116 6.95858 30.2224 7.02243C30.3714 7.10756 30.4778 7.1927 30.5416 7.28847C30.6055 7.37361 30.6374 7.49067 30.6374 7.63965V8.13982C30.6374 8.3633 30.5523 8.48036 30.3927 8.48036C30.3075 8.48036 30.1692 8.43779 29.9883 8.35266C29.3817 8.07597 28.7006 7.93762 27.945 7.93762C27.3385 7.93762 26.8596 8.0334 26.5297 8.2356C26.1998 8.43779 26.0295 8.7464 26.0295 9.18272C26.0295 9.48069 26.1359 9.73609 26.3488 9.93829C26.5616 10.1405 26.9553 10.3427 27.5194 10.5236L29.0305 11.0025C29.7967 11.2472 30.3501 11.5878 30.68 12.0241C31.0099 12.4604 31.1695 12.9606 31.1695 13.5139C31.1695 13.9715 31.0737 14.3866 30.8928 14.7484C30.7013 15.1102 30.4459 15.4295 30.116 15.6849C29.7861 15.9509 29.3923 16.1425 28.9347 16.2808C28.4559 16.4298 27.9557 16.5043 27.4129 16.5043Z" fill="#252F3E"/>
<path d="M29.425 21.6763C25.9238 24.2623 20.837 25.6351 16.4632 25.6351C10.3335 25.6351 4.81042 23.3684 0.638821 19.6012C0.308924 19.3032 0.606896 18.8988 1.00064 19.1329C5.51278 21.7508 11.0785 23.3364 16.8357 23.3364C20.72 23.3364 24.9873 22.5277 28.9142 20.8675C29.4995 20.6015 29.9996 21.2506 29.425 21.6763Z" fill="#FF9900"/>
<path d="M30.882 20.0161C30.435 19.4415 27.9235 19.7395 26.7848 19.8778C26.4443 19.9204 26.3911 19.6224 26.6997 19.3989C28.7004 17.9942 31.9887 18.3986 32.3718 18.8668C32.7549 19.3457 32.2654 22.634 30.3924 24.209C30.1051 24.4538 29.8284 24.3261 29.9561 24.0068C30.3818 22.9533 31.3289 20.5802 30.882 20.0161Z" fill="#FF9900"/>
</g>
</g>
<defs>
<clipPath id="clip0_7_208">
<rect width="32" height="32" fill="white" transform="translate(0.5)"/>
</clipPath>
</defs>
</svg>
