<svg width="33" height="32" viewBox="0 0 33 32" fill="none" xmlns="http://www.w3.org/2000/svg">
<path d="M24.6964 15.8011C24.683 13.3511 25.801 11.502 28.0641 10.1402C26.7979 8.34446 24.885 7.35648 22.3592 7.16288C19.9681 6.97597 17.3548 8.54473 16.3984 8.54473C15.388 8.54473 13.0711 7.22964 11.2525 7.22964C7.49411 7.28972 3.5 10.2003 3.5 16.1215C3.5 17.8705 3.8233 19.6773 4.4699 21.5421C5.33204 23.992 8.44381 30 11.6903 29.8999C13.3876 29.8598 14.5865 28.7049 16.7958 28.7049C18.9376 28.7049 20.049 29.8999 21.9416 29.8999C25.2151 29.8531 28.0305 24.3925 28.8522 21.9359C24.4607 19.8865 24.6964 15.9279 24.6964 15.8011ZM20.8842 4.83979C22.7229 2.6769 22.5546 0.70761 22.5007 0C20.8774 0.0934579 18.9982 1.09479 17.9273 2.32977C16.7486 3.65154 16.0549 5.28705 16.203 7.12951C17.961 7.26302 19.564 6.36849 20.8842 4.83979Z" fill="white"/>
</svg>
