<svg width="33" height="32" viewBox="0 0 33 32" fill="none" xmlns="http://www.w3.org/2000/svg">
<g clip-path="url(#clip0_7_227)">
<path d="M32.5 16C32.5 7.16344 25.3366 0 16.5 0C7.66344 0 0.5 7.16344 0.5 16C0.5 24.8366 7.66344 32 16.5 32C25.3366 32 32.5 24.8366 32.5 16Z" fill="#1769FF"/>
<path fill-rule="evenodd" clip-rule="evenodd" d="M15.5521 10.4813C15.9862 11.0725 16.2038 11.7787 16.2038 12.6026C16.2038 13.4503 15.9861 14.1341 15.5465 14.6498C15.3004 14.9382 14.9394 15.2025 14.462 15.4406C15.1868 15.6998 15.7331 16.1084 16.105 16.6679C16.4728 17.226 16.6581 17.9057 16.6581 18.7046C16.6581 19.5286 16.4471 20.2678 16.0238 20.9212C15.7561 21.3537 15.4206 21.7187 15.0177 22.0149C14.5647 22.3547 14.0305 22.5861 13.4126 22.7131C12.7946 22.8387 12.1266 22.8996 11.4044 22.8996H5V9H11.8684C13.602 9.02512 14.8285 9.51834 15.5521 10.4813ZM7.83312 11.4136V14.4806H11.2896C11.9048 14.4806 12.4065 14.3655 12.7934 14.1353C13.1774 13.9052 13.3709 13.4978 13.3709 12.9161C13.3709 12.2668 13.1166 11.8395 12.6081 11.6306C12.1673 11.4864 11.6074 11.4136 10.9272 11.4136H7.83312ZM7.83312 16.7803V20.4873H11.2842C11.9009 20.4873 12.3823 20.4053 12.7244 20.2425C13.3477 19.9383 13.6588 19.3617 13.6588 18.5074C13.6588 17.7826 13.3585 17.2867 12.754 17.0156C12.416 16.8649 11.9413 16.7855 11.3327 16.7801L7.83312 16.7803ZM25.2507 12.83C25.9851 13.1501 26.5896 13.658 27.0655 14.3509C27.4997 14.9618 27.7782 15.6708 27.9054 16.4761C27.9798 16.9469 28.0094 17.6293 27.9974 18.5167H20.3391C20.3851 19.547 20.7476 20.2703 21.4399 20.6843C21.8591 20.9422 22.3635 21.0717 22.9559 21.0717C23.5793 21.0717 24.0892 20.9142 24.48 20.6009C24.6951 20.4303 24.8843 20.195 25.0466 19.8934H27.8526C27.7782 20.5017 27.4375 21.1219 26.8343 21.7516C25.8931 22.7502 24.5745 23.25 22.8801 23.25C21.4805 23.25 20.2459 22.8294 19.1789 21.9857C18.1065 21.1433 17.5738 19.7705 17.5738 17.8713C17.5738 16.0899 18.0566 14.7237 19.0208 13.7729C19.9877 12.8247 21.2385 12.3471 22.7788 12.3471C23.6943 12.3473 24.5178 12.5085 25.2507 12.83ZM21.1397 15.1523C20.7515 15.5438 20.5068 16.0741 20.4067 16.7433H25.1438C25.0938 16.0292 24.8477 15.4894 24.4121 15.1179C23.9713 14.749 23.429 14.5652 22.7798 14.5652C22.0769 14.5652 21.5278 14.7609 21.1397 15.1523ZM19.6968 11.3778H25.7876V9.64802H19.6968V11.3778Z" fill="black"/>
</g>
<defs>
<clipPath id="clip0_7_227">
<rect width="32" height="32" fill="white" transform="translate(0.5)"/>
</clipPath>
</defs>
</svg>
