<svg width="33" height="32" viewBox="0 0 33 32" fill="none" xmlns="http://www.w3.org/2000/svg">
<g clip-path="url(#clip0_7_240)">
<mask id="mask0_7_240" style="mask-type:luminance" maskUnits="userSpaceOnUse" x="0" y="1" width="33" height="30">
<path d="M32.5 1.5H0.5V30.3768H32.5V1.5Z" fill="white"/>
</mask>
<g mask="url(#mask0_7_240)">
<path d="M1.65084 1.69198C1.50232 1.69006 1.35517 1.72068 1.21975 1.78168C1.08432 1.84269 0.963886 1.93261 0.866911 2.04512C0.769936 2.15763 0.698768 2.29001 0.658406 2.43295C0.618044 2.5759 0.609466 2.72595 0.633274 2.87257L4.95303 29.0962C5.00684 29.4171 5.17201 29.7088 5.41952 29.92C5.66703 30.1313 5.98106 30.2485 6.30644 30.2512H27.03C27.2739 30.2543 27.5108 30.1697 27.6975 30.0128C27.8842 29.856 28.0084 29.6372 28.0474 29.3964L32.3673 2.87765C32.3911 2.73105 32.3825 2.58101 32.3421 2.43809C32.3017 2.29516 32.2305 2.16281 32.1335 2.05033C32.0365 1.93784 31.9161 1.84795 31.7807 1.78697C31.6453 1.72598 31.4981 1.69538 31.3496 1.69731L1.65084 1.69198ZM19.8405 20.6449H13.2261L11.4351 11.288H21.4433L19.8405 20.6449Z" fill="#2684FF"/>
<path d="M30.9671 11.2749H21.4246L19.8231 20.6243H13.214L5.41016 29.8873C5.6575 30.1011 5.97285 30.22 6.29981 30.2227H27.0119C27.2556 30.2259 27.4924 30.1414 27.679 29.9846C27.8656 29.8278 27.9898 29.6093 28.0288 29.3687L30.9671 11.2749Z" fill="url(#paint0_linear_7_240)"/>
</g>
</g>
<defs>
<linearGradient id="paint0_linear_7_240" x1="7166.46" y1="615.645" x2="4230.02" y2="4346.99" gradientUnits="userSpaceOnUse">
<stop offset="0.18" stop-color="#0052CC"/>
<stop offset="1" stop-color="#2684FF"/>
</linearGradient>
<clipPath id="clip0_7_240">
<rect width="32" height="32" fill="white" transform="translate(0.5)"/>
</clipPath>
</defs>
</svg>
