<svg width="33" height="33" viewBox="0 0 33 33" fill="none" xmlns="http://www.w3.org/2000/svg">
<g clip-path="url(#clip0_7_247)">
<mask id="mask0_7_247" style="mask-type:luminance" maskUnits="userSpaceOnUse" x="0" y="0" width="33" height="33">
<path d="M32.5 16.5C32.5 7.66344 25.3366 0.5 16.5 0.5C7.66344 0.5 0.5 7.66344 0.5 16.5C0.5 25.3366 7.66344 32.5 16.5 32.5C25.3366 32.5 32.5 25.3366 32.5 16.5Z" fill="white"/>
</mask>
<g mask="url(#mask0_7_247)">
<path d="M19.73 18.0774C20.1807 18.0774 20.5563 18.2527 20.8568 18.6034C21.1572 18.9037 21.3075 19.2793 21.3075 19.73C21.3075 20.1807 21.1572 20.5563 20.8566 20.8568C20.5563 21.1572 20.1807 21.3075 19.73 21.3075H13.1949C12.744 21.3075 12.3684 21.1572 12.0681 20.8566C11.7675 20.5563 11.6172 20.1807 11.6172 19.73C11.6172 19.2793 11.7675 18.9037 12.0681 18.6032C12.3685 18.2527 12.7441 18.0774 13.1949 18.0774H19.73ZM13.1949 13.27C12.744 13.27 12.3684 13.1197 12.0681 12.8192C11.7675 12.5187 11.6172 12.1431 11.6172 11.6924C11.6172 11.2418 11.7675 10.8662 12.0681 10.5658C12.3685 10.2652 12.7441 10.1149 13.1949 10.1149H17.4013C17.8521 10.1149 18.2277 10.2652 18.5281 10.5658C18.8286 10.8662 18.9789 11.2418 18.9789 11.6924C18.9789 12.1432 18.8286 12.5188 18.5281 12.8192C18.2276 13.1197 17.852 13.27 17.4013 13.27H13.1949ZM22.8848 13.27V10.1149C22.8848 8.8128 22.4091 7.68602 21.4577 6.73456C20.5062 5.78311 19.3794 5.30738 18.0774 5.30738H11.6924C10.3904 5.30738 9.26365 5.78311 8.31219 6.73456C7.36073 7.68602 6.885 8.8128 6.885 10.1149V21.3073C6.885 22.6093 7.36073 23.736 8.31219 24.6875C9.26365 25.6391 10.3904 26.1148 11.6924 26.1148H21.3075C22.6095 26.1148 23.7362 25.6391 24.6877 24.6875C25.6392 23.736 26.115 22.6093 26.115 21.3073V16.4999C26.115 16.0491 25.9647 15.6734 25.6642 15.373C25.3637 15.0725 24.9882 14.9223 24.5375 14.9223C24.0868 14.9223 23.6862 14.7721 23.3356 14.4716C23.035 14.1211 22.8848 13.7207 22.8848 13.27ZM29.3452 0.5C30.1965 0.5 30.9226 0.825501 31.5235 1.4765C32.1745 2.07741 32.5 2.80356 32.5 3.65493V29.3449C32.5 30.1963 32.1745 30.9475 31.5235 31.5985C30.9226 32.1994 30.1965 32.4998 29.3452 32.4998H3.65493C2.80356 32.4998 2.05237 32.1994 1.40136 31.5985C0.800454 30.9475 0.5 30.1963 0.5 29.3451V3.65493C0.5 2.80356 0.800454 2.07741 1.40136 1.4765C2.05237 0.825501 2.80356 0.5 3.65493 0.5H29.3452Z" fill="#FF5722"/>
<path d="M11.0129 26.0412C9.52036 25.8496 8.05928 24.7556 7.36271 23.3078C6.91027 22.3671 6.93985 22.8995 6.93985 15.7335C6.93985 9.66522 6.94512 9.32661 7.04584 8.95075C7.49509 7.27512 8.8361 5.9429 10.5573 5.46264C11.0046 5.33778 11.0513 5.33634 14.8531 5.33474C18.6589 5.33314 18.7017 5.33458 19.1971 5.46072C20.5327 5.80109 21.7481 6.7923 22.3677 8.04635C22.8042 8.92964 22.8074 8.95347 22.8456 11.466L22.8795 13.6988L23.0266 14.0096C23.3089 14.6066 23.6733 14.8382 24.4998 14.946C25.1203 15.0269 25.3836 15.1326 25.6512 15.408C26.0624 15.8314 26.0448 15.6667 26.0448 19.0968C26.0448 22.1703 26.0445 22.1783 25.9123 22.5993C25.6386 23.4709 25.2028 24.1558 24.5107 24.8023C23.755 25.508 22.9289 25.9051 21.9263 26.0445C21.3876 26.1195 11.6001 26.1165 11.0129 26.0412ZM20.3925 21.1956C20.7294 21.0421 20.9735 20.812 21.1434 20.4883C21.2736 20.2403 21.2953 20.1302 21.2953 19.7185C21.2955 19.1633 21.2039 18.9375 20.8167 18.5386C20.3493 18.0569 20.5869 18.082 16.4611 18.0806L12.8123 18.0793L12.521 18.2243C11.9909 18.4886 11.6601 18.9957 11.6158 19.612C11.5664 20.2995 11.8751 20.8622 12.4622 21.1548L12.7557 21.3011L16.4611 21.2998C19.9249 21.2987 20.1813 21.2918 20.3925 21.1956ZM18.075 13.1399C18.6838 12.8516 18.977 12.381 18.977 11.6921C18.977 11.0069 18.6764 10.5242 18.075 10.2428L17.7923 10.1106L15.3295 10.11C12.4926 10.1093 12.4962 10.1089 12.0483 10.5688C11.7359 10.8897 11.603 11.2334 11.603 11.7215C11.603 12.356 12.0273 12.985 12.5901 13.1848C12.7744 13.2504 13.2974 13.2667 15.3054 13.2699L17.7923 13.2737L18.075 13.1399Z" fill="black"/>
</g>
</g>
<defs>
<clipPath id="clip0_7_247">
<rect width="32" height="33" fill="white" transform="translate(0.5)"/>
</clipPath>
</defs>
</svg>
