<svg width="33" height="32" viewBox="0 0 33 32" fill="none" xmlns="http://www.w3.org/2000/svg">
<g clip-path="url(#clip0_7_254)">
<mask id="mask0_7_254" style="mask-type:luminance" maskUnits="userSpaceOnUse" x="0" y="0" width="33" height="32">
<path d="M32.5 16C32.5 7.16344 25.3366 0 16.5 0C7.66344 0 0.5 7.16344 0.5 16C0.5 24.8366 7.66344 32 16.5 32C25.3366 32 32.5 24.8366 32.5 16Z" fill="white"/>
</mask>
<g mask="url(#mask0_7_254)">
<path d="M27.1955 32H5.8045C2.87488 32 0.5 29.6251 0.5 26.6955V5.3045C0.5 2.37488 2.87488 0 5.8045 0H27.1955C30.1251 0 32.5 2.37488 32.5 5.3045V26.6955C32.5 29.6251 30.1251 32 27.1955 32Z" fill="#00AEEF"/>
<path d="M16.8779 13.4732C15.2131 13.4732 13.7643 14.4097 13.0347 15.7846C12.3048 14.4097 10.8568 13.4732 9.19082 13.4732C8.24904 13.4722 7.3325 13.7776 6.57957 14.3433V10.6779C6.57537 10.4501 6.48181 10.233 6.31904 10.0735C6.15627 9.91397 5.93734 9.8248 5.70945 9.8252C5.2342 9.8252 4.8517 10.2043 4.84082 10.6779V17.8957C4.87919 20.2656 6.81132 22.1747 9.19082 22.1747C10.8568 22.1747 12.3048 21.2373 13.0347 19.8638C13.7643 21.2373 15.2131 22.1747 16.8779 22.1747C19.2799 22.1747 21.2284 20.2269 21.2284 17.8231C21.2284 15.4204 19.2799 13.4732 16.8779 13.4732ZM9.19082 20.4328C7.74945 20.4328 6.57957 19.2652 6.57957 17.8237C6.57957 16.3827 7.74945 15.2149 9.19082 15.2149C10.6321 15.2149 11.7994 16.3827 11.7994 17.8231C11.7994 19.2648 10.6321 20.4328 9.19082 20.4328ZM16.8779 20.4328C15.4362 20.4328 14.2672 19.2648 14.2672 17.8231C14.2672 16.3827 15.4362 15.2149 16.8779 15.2149C18.3191 15.2149 19.4874 16.3827 19.4874 17.8231C19.4874 19.2648 18.3191 20.4328 16.8779 20.4328Z" fill="black"/>
<path d="M27.979 20.7181L25.6142 17.8175L27.9818 14.9112C28.2812 14.5279 28.1953 13.9925 27.7821 13.7081C27.3683 13.4212 26.7878 13.4947 26.4677 13.8667L24.4307 16.3627L22.3956 13.8662C22.0787 13.4942 21.4946 13.4212 21.0821 13.7081C20.6696 13.9927 20.5833 14.5279 20.8842 14.9112L23.2468 17.8175L20.8833 20.7181C20.5824 21.1027 20.6696 21.6364 21.0821 21.922C21.4946 22.2076 22.0787 22.1349 22.3956 21.7624L24.4307 19.2694L26.4648 21.7624C26.7853 22.1349 27.3656 22.2076 27.7793 21.922C28.1927 21.6364 28.279 21.1027 27.979 20.7181Z" fill="black"/>
</g>
</g>
<defs>
<clipPath id="clip0_7_254">
<rect width="32" height="32" fill="white" transform="translate(0.5)"/>
</clipPath>
</defs>
</svg>
