<svg width="33" height="32" viewBox="0 0 33 32" fill="none" xmlns="http://www.w3.org/2000/svg">
<g clip-path="url(#clip0_7_262)">
<path d="M22.0267 20.7011C20.8232 21.9798 19.1684 22.7319 17.4384 22.7319H16.0092C14.4296 22.7319 12.8501 22.1302 11.7218 21.0019C10.6687 19.8737 10.067 18.4445 10.1422 16.9402V15.0597C10.1422 13.4801 10.744 12.051 11.797 10.9227C12.9253 9.79445 14.4296 9.1927 16.0092 9.1927H17.3631C19.0932 9.1927 20.8232 9.94488 22.0267 11.2236C23.1549 12.4271 24.7345 13.0288 26.3893 12.9536C26.7654 12.9536 27.1415 12.9536 27.5176 12.8784C27.3671 12.5023 27.2167 12.1262 26.9911 11.8253L25.3363 9.04227C23.8319 6.48485 21.124 4.90527 18.1153 4.90527H14.881C11.8722 4.90527 9.16438 6.48485 7.66002 9.04227L6.00522 11.8253C4.50086 14.3827 4.50086 17.6171 6.00522 20.1745L7.66002 23.0328C9.16438 25.5902 11.8722 27.1698 14.881 27.1698H18.1153C21.124 27.1698 23.8319 25.5902 25.3363 23.0328L26.9911 20.2498C27.2167 19.9489 27.3671 19.5728 27.5176 19.1967C27.1415 19.1215 26.7654 19.1215 26.3893 19.1215C24.7345 18.8958 23.1549 19.4976 22.0267 20.7011Z" fill="#006BFF"/>
<path d="M17.3673 10.9234H15.9381C13.7568 10.8481 11.8763 12.5029 11.7259 14.7595C11.7259 14.8347 11.7259 14.9851 11.7259 15.0604V16.9408C11.6507 19.1221 13.4559 21.0026 15.6372 21.0026C15.7125 21.0026 15.7877 21.0026 15.9381 21.0026H17.292C20.9777 21.0026 20.6768 17.2417 26.243 17.2417C26.7695 17.2417 27.296 17.3169 27.8226 17.3921C27.973 16.4143 27.973 15.4364 27.8226 14.5338C27.296 14.609 26.7695 14.6843 26.243 14.6843C20.8273 14.6843 21.1282 10.9234 17.3673 10.9234Z" fill="#006BFF"/>
<path d="M31.1299 18.7455C30.1521 18.0685 29.099 17.6172 27.8955 17.3915C27.8203 17.9181 27.6699 18.5198 27.4442 19.0463C28.4221 19.1968 29.3247 19.5729 30.0769 20.0994C27.7451 27.6212 19.772 31.8334 12.175 29.5769C4.57794 27.3203 0.440949 19.272 2.77271 11.675C5.10447 4.07794 13.0776 -0.0590491 20.6746 2.19749C25.1877 3.62663 28.7229 7.16188 30.1521 11.675C29.3999 12.2767 28.4973 12.5776 27.5194 12.728C27.7451 13.2545 27.8955 13.7811 27.9708 14.3828C29.099 14.2324 30.2273 13.7811 31.2051 13.1793C31.8821 12.8032 32.1077 11.9758 31.8069 11.2989C29.1742 2.87445 20.2233 -1.86428 11.7989 0.693131C3.37445 3.32576 -1.36428 12.2767 1.19313 20.7011C3.75054 29.1255 12.7767 33.8643 21.2011 31.3069C26.2407 29.7273 30.2273 25.816 31.8069 20.7011C32.0325 20.0242 31.8069 19.1968 31.1299 18.7455Z" fill="#006BFF"/>
<path d="M27.4418 12.8781C27.0657 12.9533 26.6896 12.9533 26.3135 12.9533C24.6587 13.0285 23.0791 12.4268 21.9509 11.2233C20.7474 9.94457 19.0926 9.2676 17.3626 9.19238H15.9334C14.3538 9.19238 12.8495 9.79413 11.7212 10.9224C10.6682 12.0507 10.0664 13.4798 10.0664 15.0594V16.9398C10.0664 18.4442 10.6682 19.9486 11.7212 21.0768C12.8495 22.2051 14.3538 22.8068 15.9334 22.7316H17.2873C19.0174 22.7316 20.7474 21.9795 21.9509 20.7007C23.0791 19.4973 24.6587 18.8203 26.3135 18.9707C26.6896 18.9707 27.0657 18.9707 27.4418 19.0459C27.6674 18.5194 27.8179 17.9929 27.8931 17.3911C27.3666 17.3159 26.84 17.2407 26.3135 17.2407C20.7474 17.2407 21.0482 21.0016 17.3626 21.0016H15.9334C13.7521 21.0768 11.8716 19.3468 11.7964 17.1655C11.7964 17.0903 11.7964 17.0151 11.7964 16.9398V14.9842C11.7212 12.8029 13.5264 10.9224 15.7078 10.8472C15.783 10.8472 15.8582 10.8472 15.9334 10.8472H17.2873C20.973 10.8472 20.6721 14.6081 26.2383 14.6081C26.7648 14.6081 27.2913 14.5329 27.8179 14.4576C27.8179 14.0063 27.6674 13.4798 27.4418 12.8781Z" fill="#0AE8F0"/>
<path d="M27.4418 12.8781C27.0657 12.9533 26.6896 12.9533 26.3135 12.9533C24.6587 13.0285 23.0791 12.4268 21.9509 11.2233C20.7474 9.94457 19.0926 9.2676 17.3626 9.19238H15.9334C14.3538 9.19238 12.8495 9.79413 11.7212 10.9224C10.6682 12.0507 10.0664 13.4798 10.0664 15.0594V16.9398C10.0664 18.4442 10.6682 19.9486 11.7212 21.0768C12.8495 22.2051 14.3538 22.8068 15.9334 22.7316H17.2873C19.0174 22.7316 20.7474 21.9795 21.9509 20.7007C23.0791 19.4973 24.6587 18.8203 26.3135 18.9707C26.6896 18.9707 27.0657 18.9707 27.4418 19.0459C27.6674 18.5194 27.8179 17.9929 27.8931 17.3911C27.3666 17.3159 26.84 17.2407 26.3135 17.2407C20.7474 17.2407 21.0482 21.0016 17.3626 21.0016H15.9334C13.7521 21.0768 11.8716 19.3468 11.7964 17.1655C11.7964 17.0903 11.7964 17.0151 11.7964 16.9398V14.9842C11.7212 12.8029 13.5264 10.9224 15.7078 10.8472C15.783 10.8472 15.8582 10.8472 15.9334 10.8472H17.2873C20.973 10.8472 20.6721 14.6081 26.2383 14.6081C26.7648 14.6081 27.2913 14.5329 27.8179 14.4576C27.8179 14.0063 27.6674 13.4798 27.4418 12.8781Z" fill="#0AE8F0"/>
</g>
<defs>
<clipPath id="clip0_7_262">
<rect width="32" height="32" fill="white" transform="translate(0.5)"/>
</clipPath>
</defs>
</svg>
