<svg width="34" height="33" viewBox="0 0 34 33" fill="none" xmlns="http://www.w3.org/2000/svg">
<g clip-path="url(#clip0_7_268)">
<mask id="mask0_7_268" style="mask-type:luminance" maskUnits="userSpaceOnUse" x="0" y="0" width="33" height="33">
<path d="M32.625 16.5C32.625 7.66344 25.4616 0.5 16.625 0.5C7.78844 0.5 0.625 7.66344 0.625 16.5C0.625 25.3366 7.78844 32.5 16.625 32.5C25.4616 32.5 32.625 25.3366 32.625 16.5Z" fill="white"/>
</mask>
<g mask="url(#mask0_7_268)">
<path d="M21.475 0.5C24.675 0.5 26.275 0.5 28.025 1.05C28.954 1.38985 29.7977 1.9283 30.4972 2.62779C31.1967 3.32729 31.7352 4.17098 32.075 5.1C32.625 6.85 32.625 8.45 32.625 11.655V21.34C32.625 24.55 32.625 26.16 32.075 27.89C31.7352 28.819 31.1967 29.6627 30.4972 30.3622C29.7977 31.0617 28.954 31.6002 28.025 31.94C26.275 32.5 24.675 32.5 21.475 32.5H11.775C8.565 32.5 6.955 32.5 5.225 31.95C4.29598 31.6102 3.45229 31.0717 2.75279 30.3722C2.0533 29.6727 1.51485 28.829 1.175 27.9C0.625 26.15 0.625 24.55 0.625 21.345V11.65C0.625 8.44 0.625 6.83 1.175 5.1C1.51485 4.17098 2.0533 3.32729 2.75279 2.62779C3.45229 1.9283 4.29598 1.38985 5.225 1.05C6.975 0.5 8.575 0.5 11.775 0.5H21.475Z" fill="#00D632"/>
<path d="M21.8598 12.3999C22.1098 12.6499 22.5248 12.6499 22.7598 12.3999L24.0098 11.0999C24.2748 10.8499 24.2598 10.3999 23.9798 10.1299C22.9975 9.27433 21.8556 8.62177 20.6198 8.20988L21.0148 6.30988C21.0998 5.89488 20.7898 5.50488 20.3748 5.50488H17.9548C17.8035 5.50651 17.6574 5.56004 17.5409 5.65652C17.4244 5.753 17.3446 5.88658 17.3148 6.03488L16.9648 7.72488C13.7448 7.88988 11.0148 9.52488 11.0148 12.8749C11.0148 15.7749 13.2698 17.0199 15.6548 17.8749C17.9098 18.7349 19.1048 19.0549 19.1048 20.2649C19.1048 21.5099 17.9148 22.2399 16.1548 22.2399C14.5548 22.2399 12.8748 21.7049 11.5748 20.3999C11.5144 20.3394 11.4427 20.2914 11.3638 20.2587C11.2848 20.226 11.2002 20.2091 11.1148 20.2091C11.0293 20.2091 10.9447 20.226 10.8658 20.2587C10.7869 20.2914 10.7152 20.3394 10.6548 20.3999L9.30478 21.7499C9.17777 21.8773 9.10645 22.0499 9.10645 22.2299C9.10645 22.4098 9.17777 22.5824 9.30478 22.7099C10.3548 23.7449 11.6848 24.4949 13.2008 24.9099L12.8308 26.6949C12.7458 27.1099 13.0508 27.4949 13.4658 27.4999L15.8908 27.5199C16.0438 27.5206 16.1922 27.4681 16.3108 27.3714C16.4294 27.2747 16.5107 27.1399 16.5408 26.9899L16.8908 25.2949C20.7648 25.0349 23.1248 22.8999 23.1248 19.7849C23.1248 16.9149 20.7748 15.7049 17.9248 14.7199C16.2948 14.1149 14.8848 13.6999 14.8848 12.4549C14.8848 11.2449 16.1998 10.7649 17.5198 10.7649C19.1998 10.7649 20.8148 11.4599 21.8698 12.4099L21.8598 12.3999Z" fill="black"/>
</g>
</g>
<defs>
<clipPath id="clip0_7_268">
<rect width="33" height="33" fill="white" transform="translate(0.5)"/>
</clipPath>
</defs>
</svg>
