<svg width="34" height="32" viewBox="0 0 34 32" fill="none" xmlns="http://www.w3.org/2000/svg">
<mask id="mask0_7_275" style="mask-type:luminance" maskUnits="userSpaceOnUse" x="0" y="3" width="33" height="27">
<path d="M32.9375 3H0.9375V29.3291H32.9375V3Z" fill="white"/>
</mask>
<g mask="url(#mask0_7_275)">
<path d="M9.07146 13.5905C9.49475 14.994 10.0071 16.3105 10.5641 17.5804C11.5221 19.8548 12.1682 21.0578 13.0613 22.5505C14.153 24.3328 15.358 26.3621 17.3408 27.6766C18.7889 28.6345 20.5509 29.1247 22.2441 29.1247C24.6299 29.1247 26.6796 28.0776 27.996 26.8502C29.2882 25.6472 30.9611 23.3282 30.9611 18.8036C30.9611 17.2442 31.6517 15.9054 32.1641 14.8361C32.1641 14.8138 32.1864 14.7692 32.2309 14.6801C32.4315 14.2345 32.6765 13.6553 32.6765 13.0761C32.6765 12.6528 32.5651 12.1626 32.2755 11.7393C31.8299 10.9819 31.0279 10.7145 30.2907 10.7145C28.5753 10.7145 27.3925 11.9176 26.7909 13.1449L26.5904 13.5459C26.3454 13.1895 26.1003 12.8107 25.8998 12.4766C25.276 11.3849 24.9196 10.6497 24.6077 9.712C24.3626 8.97681 24.1621 8.13023 24.0284 7.43757C23.6497 5.25226 23.0259 4.53935 21.999 4.272C21.2416 4.0715 20.3504 4.22745 19.7023 4.65074C19.2588 3.64821 18.5013 3.20264 17.4968 3.20264C16.0709 3.20264 14.7768 4.13833 14.7768 5.72213C14.7768 5.92264 14.7991 6.12314 14.8213 6.36821C14.6431 6.32365 14.4426 6.30137 14.2421 6.30137C12.7049 6.30137 11.5666 7.37074 11.5666 8.82086C11.5666 9.15504 11.6112 9.53378 11.7226 9.97934C11.5889 9.95707 11.4553 9.95707 11.3216 9.95707C10.5641 10.0016 9.87348 10.2912 9.38133 10.8928C8.89323 11.472 8.69272 12.3631 9.07146 13.5905Z" fill="#1F1F1A"/>
<path d="M10.3414 13.1895C10.1409 12.5435 10.1632 12.0533 10.4082 11.7414C10.6533 11.4518 10.9875 11.3181 11.3885 11.2959C12.0791 11.2736 12.3465 11.7637 12.7475 13.0336C12.9925 13.8356 13.4827 14.9961 13.7723 15.6422C14.151 16.4219 14.6857 17.469 14.9308 17.8275C15.1313 18.1394 15.3095 18.2285 15.51 18.2285C15.8665 18.2285 16.1338 18.028 16.1338 17.6716C16.1338 17.4711 15.9333 17.1369 15.8219 16.9364C15.6214 16.5576 15.1981 15.8002 14.9085 15.1541C14.5966 14.4412 14.2401 13.55 13.9505 12.746C13.7723 12.2781 13.5718 11.6098 13.3713 10.9414C13.0594 9.91662 12.9034 9.29283 12.9034 8.82295C12.9034 8.11004 13.4381 7.64219 14.2401 7.64219C14.8194 7.64219 15.1981 7.93181 15.4432 8.9789C15.6437 9.93688 16.0001 11.4984 16.5125 12.7237C16.8467 13.5257 17.3368 14.5971 17.6265 15.1318C17.8047 15.4437 18.0052 15.7111 18.0052 15.8224C18.0052 15.9784 17.7156 16.2235 17.4705 16.5576C17.3146 16.7581 17.2477 16.8918 17.2477 17.0478C17.2477 17.1814 17.3368 17.3151 17.4705 17.4933C17.6042 17.6716 17.7379 17.8498 17.8938 17.8498C18.0052 17.8498 18.072 17.8052 18.1389 17.7161C18.8295 16.8473 19.587 16.2457 20.4579 15.7536C21.4827 15.1743 22.5318 14.8847 23.3561 14.7065C23.7571 14.6174 23.8685 14.5283 23.8685 14.3055C23.8685 14.0381 23.668 13.8822 23.4006 13.8599C23.2001 13.8376 23.0219 13.8599 22.71 13.8822C22.4872 13.9045 22.3758 13.7931 22.2422 13.5035C21.8411 12.6569 21.0614 11.229 20.5935 9.40219C20.393 8.62245 20.2148 7.79814 20.1034 6.72675C20.0366 6.23662 20.1257 6.0584 20.3708 5.83561C20.6827 5.56827 21.2396 5.45688 21.6629 5.56827C22.1753 5.70194 22.4427 6.10295 22.71 7.66447C22.8437 8.39966 23.0665 9.33536 23.3338 10.1394C23.668 11.1642 24.0913 12.0128 24.7373 13.149C25.0938 13.7728 25.5394 14.4189 26.0072 15.0447C25.9181 15.3121 25.7622 15.4903 25.2498 15.9136C24.7373 16.3369 24.2249 16.7824 23.7571 17.6068C23.4229 18.2083 23.267 18.8766 23.267 19.3222C23.267 19.7455 23.3561 19.8346 23.6234 19.8346C24.0913 19.8346 24.47 19.7455 24.4923 19.545C24.6037 18.743 24.7373 18.2305 25.1829 17.627C25.4503 17.2928 25.9181 16.8695 26.2968 16.5354C27.0098 15.9561 27.2548 15.6219 27.4999 14.7976C27.6113 14.4189 27.7449 14.0624 27.9232 13.7283C28.3465 12.9485 29.1039 12.0574 30.2867 12.0574C30.6654 12.0574 30.9773 12.1688 31.1779 12.4807C31.2892 12.6589 31.3338 12.904 31.3338 13.0822C31.3338 13.4832 31.0442 14.0402 30.9105 14.3075C30.4204 15.3546 29.6184 16.9607 29.6184 18.8098C29.6184 22.8442 28.1925 24.8513 27.0766 25.8761C25.9849 26.9009 24.2675 27.7941 22.2401 27.7941C20.792 27.7941 19.2973 27.3708 18.072 26.5688C16.3566 25.4326 15.2852 23.6483 14.1935 21.866C13.3247 20.4179 12.7232 19.2797 11.7854 17.0741C11.2568 15.7961 10.7647 14.5485 10.3414 13.1895Z" fill="#FFE450"/>
<path d="M16.0703 5.72226C16.0703 4.87568 16.8501 4.5415 17.4961 4.5415C18.1868 4.5415 18.4318 4.87568 18.6101 5.58859C18.766 6.16783 18.8328 6.70252 18.8997 7.32631C18.9888 7.95011 19.3007 9.37796 19.3898 9.73442C19.724 10.9597 20.3923 12.4099 21.1944 14.1476C20.7265 14.3035 20.1027 14.5709 19.6794 14.7937C19.1447 15.0833 19.0334 15.0833 18.8106 14.66C18.3427 13.7911 18.0085 13.145 17.7189 12.3856C17.4739 11.7618 17.2288 11.0488 17.0283 10.2225C16.6941 8.81897 16.6496 8.41796 16.3822 7.76986C16.2263 7.10353 16.0703 6.27923 16.0703 5.72226Z" fill="#FFE450"/>
<path d="M8.09097 20.6448C7.61907 20.9364 5.11781 22.2468 4.55274 22.4554C4.1497 22.6053 3.71224 22.5688 3.45502 21.8073C3.13907 20.8655 3.58262 20.6427 4.21451 20.3977C4.7735 20.181 7.09249 19.3425 7.63122 19.1967C8.00996 19.0954 8.27325 19.223 8.45553 19.6787C8.65603 20.1789 8.51831 20.3794 8.09097 20.6448Z" fill="#1F1F1A"/>
<path d="M6.02919 15.3363C5.35678 15.3546 2.56387 15.2351 1.9259 15.1723C1.37096 15.1176 1.14615 14.8725 1.20691 14.0685C1.27172 13.2057 1.60792 13.1531 2.15273 13.2057C2.78463 13.2665 5.71121 13.7424 6.17703 13.8862C6.65906 14.0361 6.7259 14.2548 6.66716 14.6761C6.59222 15.2229 6.34514 15.3262 6.02919 15.3363Z" fill="#1F1F1A"/>
<path d="M6.37578 9.68157C5.60616 9.43853 3.3216 8.05524 2.72616 7.69879C2.18743 7.37473 2.11857 7.08309 2.49325 6.3722C2.8254 5.74435 3.19401 5.63499 3.74085 5.91853C4.37477 6.24866 6.61274 7.99043 7.04009 8.33473C7.45325 8.66689 7.39654 8.83904 7.17983 9.26638C6.96312 9.69372 6.76059 9.80309 6.37578 9.68157Z" fill="#1F1F1A"/>
</g>
</svg>
