<svg width="34" height="32" viewBox="0 0 34 32" fill="none" xmlns="http://www.w3.org/2000/svg">
<g clip-path="url(#clip0_7_286)">
<mask id="mask0_7_286" style="mask-type:luminance" maskUnits="userSpaceOnUse" x="0" y="0" width="33" height="32">
<path d="M32.9375 0H0.9375V32H32.9375V0Z" fill="white"/>
</mask>
<g mask="url(#mask0_7_286)">
<path d="M16.9375 32C25.7741 32 32.9375 24.8366 32.9375 16C32.9375 7.16344 25.7741 0 16.9375 0C8.10094 0 0.9375 7.16344 0.9375 16C0.9375 24.8366 8.10094 32 16.9375 32Z" fill="#0052FF"/>
<path d="M17.0719 11.3072C18.9556 11.3072 20.45 12.4691 21.0175 14.1969H24.8125C24.125 10.5028 21.0772 8 17.1022 8C12.5881 8 9.0625 11.4266 9.0625 16.0153C9.0625 20.6041 12.5 24 17.1022 24C20.9881 24 24.0966 21.4972 24.7847 17.7725H21.0172C20.4791 19.5006 18.9859 20.6928 17.1009 20.6928C14.5 20.6928 12.6772 18.6962 12.6772 16.0153C12.6784 13.3038 14.4719 11.3072 17.0719 11.3072Z" fill="black"/>
</g>
</g>
<defs>
<clipPath id="clip0_7_286">
<rect width="33" height="32" fill="white" transform="translate(0.5)"/>
</clipPath>
</defs>
</svg>
