<svg width="29" height="28" viewBox="0 0 29 28" fill="none" xmlns="http://www.w3.org/2000/svg">
<path d="M22.3727 6.31216V19.5795C22.3729 20.8923 21.8596 22.1559 20.9367 23.1142C20.0139 24.0724 18.7507 24.6535 17.4034 24.7397L17.0545 24.75H7.66476C7.88469 25.3548 8.29204 25.8784 8.83072 26.2488C9.36941 26.6192 10.0129 26.8181 10.6727 26.8182H18.1182C19.8107 26.8182 21.434 26.1645 22.6308 25.0009C23.8276 23.8373 24.5 22.2592 24.5 20.6136V9.23864C24.5003 8.59683 24.2959 7.97071 23.9149 7.44658C23.5339 6.92244 22.9951 6.5261 22.3727 6.31216ZM6.41818 2C5.5719 2 4.76028 2.32685 4.16187 2.90863C3.56346 3.49042 3.22727 4.2795 3.22727 5.10227V19.5795C3.22727 20.4023 3.56346 21.1914 4.16187 21.7732C4.76028 22.355 5.5719 22.6818 6.41818 22.6818H17.0545C17.9008 22.6818 18.7124 22.355 19.3109 21.7732C19.9093 21.1914 20.2455 20.4023 20.2455 19.5795V5.10227C20.2455 4.2795 19.9093 3.49042 19.3109 2.90863C18.7124 2.32685 17.9008 2 17.0545 2H6.41818ZM6.41818 4.06818H17.0545C17.3366 4.06818 17.6072 4.17713 17.8066 4.37106C18.0061 4.56499 18.1182 4.82801 18.1182 5.10227V19.5795C18.1182 19.8538 18.0061 20.1168 17.8066 20.3108C17.6072 20.5047 17.3366 20.6136 17.0545 20.6136H6.41818C6.13609 20.6136 5.86555 20.5047 5.66608 20.3108C5.46661 20.1168 5.35455 19.8538 5.35455 19.5795V5.10227C5.35455 4.82801 5.46661 4.56499 5.66608 4.37106C5.86555 4.17713 6.13609 4.06818 6.41818 4.06818Z" fill="white"/>
</svg>
