<svg width="33" height="32" viewBox="0 0 33 32" fill="none" xmlns="http://www.w3.org/2000/svg">
<g clip-path="url(#clip0_7_295)">
<path fill-rule="evenodd" clip-rule="evenodd" d="M27.3364 4.88248C27.6334 3.16658 28.0657 2.08719 28.5484 2.08454C29.4448 2.08719 30.1741 5.82927 30.1741 10.4492C30.1741 15.0691 29.4448 18.8139 28.5484 18.8139C28.1798 18.8139 27.8403 18.1774 27.5671 17.1112C27.1348 21.0124 26.2384 23.6937 25.1988 23.6937C24.3952 23.6937 23.6739 22.0839 23.1885 19.5432C22.857 24.3753 22.0269 27.8018 21.0536 27.8018C20.4436 27.8018 19.8867 26.4439 19.4756 24.2321C18.9797 28.7963 17.8366 31.9974 16.5 31.9974C15.1634 31.9974 14.0177 28.7989 13.5244 24.2321C13.1159 26.4439 12.559 27.8018 11.9464 27.8018C10.9731 27.8018 10.143 24.3726 9.81145 19.5432C9.32612 22.0839 8.60741 23.6937 7.80118 23.6937C6.76421 23.6937 5.86516 21.0124 5.43287 17.1112C5.16236 18.18 4.82024 18.8139 4.4516 18.8139C3.55254 18.8139 2.82587 15.0691 2.82587 10.4492C2.82587 5.82927 3.55254 2.08454 4.4516 2.08454C4.93428 2.08454 5.36391 3.16658 5.6636 4.88248C6.14363 1.92276 6.92069 0 7.80118 0C8.8461 0 9.75045 2.72103 10.1801 6.66998C10.5991 3.79513 11.2356 1.96254 11.9464 1.96254C12.9436 1.96254 13.7922 5.56672 14.1078 10.5951C14.6992 8.01724 15.5559 6.39947 16.5027 6.39947C17.4494 6.39947 18.3061 8.01724 18.8948 10.5951C19.2104 5.56672 20.0564 1.96254 21.0563 1.96254C21.767 1.96254 22.4009 3.79513 22.8226 6.66998C23.2495 2.72103 24.1566 0 25.1988 0C26.0767 0 26.8564 1.92541 27.3364 4.88248ZM0.5 9.62705C0.5 7.56108 0.913725 5.88762 1.42292 5.88762C1.93212 5.88762 2.34585 7.56108 2.34585 9.62705C2.34585 11.693 1.93212 13.3665 1.42292 13.3665C0.913725 13.3665 0.5 11.6904 0.5 9.62705ZM30.6542 9.62705C30.6542 7.56108 31.0679 5.88762 31.5771 5.88762C32.0863 5.88762 32.5 7.56108 32.5 9.62705C32.5 11.693 32.0863 13.3665 31.5771 13.3665C31.0679 13.3665 30.6542 11.6904 30.6542 9.62705Z" fill="#A238FF"/>
</g>
<defs>
<clipPath id="clip0_7_295">
<rect width="32" height="32" fill="white" transform="translate(0.5)"/>
</clipPath>
</defs>
</svg>
