<svg width="33" height="32" viewBox="0 0 33 32" fill="none" xmlns="http://www.w3.org/2000/svg">
<g clip-path="url(#clip0_7_297)">
<mask id="mask0_7_297" style="mask-type:luminance" maskUnits="userSpaceOnUse" x="0" y="0" width="33" height="32">
<path d="M32.5 16C32.5 7.16344 25.3366 0 16.5 0C7.66344 0 0.5 7.16344 0.5 16C0.5 24.8366 7.66344 32 16.5 32C25.3366 32 32.5 24.8366 32.5 16Z" fill="white"/>
</mask>
<g mask="url(#mask0_7_297)">
<path d="M32.5 0H0.5V32H32.5V0Z" fill="#5865F2"/>
<path d="M24.1936 9.20753C22.8112 8.56635 21.3288 8.09396 19.7789 7.8234C19.7506 7.81818 19.7224 7.83123 19.7079 7.85733C19.5173 8.20009 19.3061 8.64725 19.1582 8.99872C17.4912 8.74644 15.8327 8.74644 14.1998 8.99872C14.0519 8.63944 13.833 8.20009 13.6415 7.85733C13.627 7.8321 13.5988 7.81905 13.5706 7.8234C12.0215 8.09309 10.5391 8.56548 9.15587 9.20753C9.14389 9.21274 9.13363 9.22145 9.12682 9.23275C6.31504 13.4791 5.54477 17.621 5.92264 21.7116C5.92435 21.7317 5.93546 21.7508 5.95085 21.763C7.80598 23.1401 9.60299 23.9762 11.3666 24.5303C11.3949 24.539 11.4248 24.5286 11.4427 24.5051C11.8599 23.9292 12.2318 23.322 12.5507 22.6834C12.5695 22.646 12.5515 22.6016 12.5131 22.5868C11.9232 22.3606 11.3615 22.0848 10.8212 21.7717C10.7785 21.7464 10.7751 21.6847 10.8144 21.6551C10.9281 21.5689 11.0418 21.4793 11.1504 21.3889C11.17 21.3723 11.1974 21.3689 11.2205 21.3793C14.77 23.0175 18.6128 23.0175 22.1204 21.3793C22.1435 21.368 22.1709 21.3715 22.1914 21.388C22.3 21.4785 22.4137 21.5689 22.5282 21.6551C22.5675 21.6847 22.565 21.7464 22.5222 21.7717C21.9819 22.0909 21.4203 22.3606 20.8295 22.586C20.7911 22.6007 20.774 22.646 20.7928 22.6834C21.1185 23.3211 21.4904 23.9283 21.8999 24.5042C21.917 24.5286 21.9477 24.539 21.976 24.5303C23.7482 23.9762 25.5452 23.1401 27.4003 21.763C27.4165 21.7508 27.4268 21.7325 27.4285 21.7125C27.8807 16.9833 26.6711 12.8753 24.2218 9.23362C24.2158 9.22145 24.2055 9.21274 24.1936 9.20753ZM13.0807 19.2209C12.0121 19.2209 11.1315 18.2291 11.1315 17.0112C11.1315 15.7932 11.995 14.8015 13.0807 14.8015C14.175 14.8015 15.047 15.8019 15.0299 17.0112C15.0299 18.2291 14.1664 19.2209 13.0807 19.2209ZM20.2875 19.2209C19.2189 19.2209 18.3384 18.2291 18.3384 17.0112C18.3384 15.7932 19.2018 14.8015 20.2875 14.8015C21.3818 14.8015 22.2538 15.8019 22.2367 17.0112C22.2367 18.2291 21.3818 19.2209 20.2875 19.2209Z" fill="black"/>
</g>
</g>
<defs>
<clipPath id="clip0_7_297">
<rect width="32" height="32" fill="white" transform="translate(0.5)"/>
</clipPath>
</defs>
</svg>
