<svg width="33" height="32" viewBox="0 0 33 32" fill="none" xmlns="http://www.w3.org/2000/svg">
<g clip-path="url(#clip0_7_304)">
<path d="M32.5 16C32.5 7.16344 25.3366 0 16.5 0C7.66344 0 0.5 7.16344 0.5 16C0.5 24.8366 7.66344 32 16.5 32C25.3366 32 32.5 24.8366 32.5 16Z" fill="black"/>
<path d="M16.5 27.04C22.5972 27.04 27.54 22.0972 27.54 16C27.54 9.90274 22.5972 4.95996 16.5 4.95996C10.4027 4.95996 5.45996 9.90274 5.45996 16C5.45996 22.0972 10.4027 27.04 16.5 27.04Z" fill="#EA4C89"/>
<path fill-rule="evenodd" clip-rule="evenodd" d="M16.5 4.5C10.1513 4.5 5 9.65133 5 16C5 22.3487 10.1513 27.5 16.5 27.5C22.8363 27.5 28 22.3487 28 16C28 9.65133 22.8363 4.5 16.5 4.5ZM24.096 9.80105C25.4679 11.4725 26.2914 13.6053 26.3161 15.9126C25.9919 15.8503 22.7489 15.1892 19.481 15.601C19.4063 15.4388 19.3437 15.264 19.269 15.0894C19.0694 14.6156 18.8448 14.1292 18.6204 13.6676C22.2376 12.1958 23.8839 10.0754 24.096 9.80105ZM16.5 6.19625C18.9946 6.19625 21.2771 7.13188 23.0108 8.66601C22.8363 8.91533 21.3518 10.8986 17.8595 12.2082C16.2505 9.25224 14.467 6.83243 14.1926 6.45823C14.9284 6.28367 15.7016 6.19625 16.5 6.19625ZM12.3216 7.11926C12.5836 7.46862 14.3297 9.90087 15.9636 12.7945C11.3737 14.0167 7.31999 13.9919 6.88348 13.9919C7.5194 10.9485 9.57745 8.41642 12.3216 7.11926ZM6.67141 16.0124V15.7132C7.09552 15.7256 11.8602 15.7879 16.762 14.3161C17.0488 14.865 17.3108 15.4262 17.5601 15.9876C17.4354 16.0251 17.2984 16.0624 17.1734 16.0998C12.1095 17.7338 9.41533 22.1989 9.19085 22.5731C7.63188 20.8394 6.67141 18.5321 6.67141 16.0124ZM16.5 25.8286C14.2299 25.8286 12.1346 25.0554 10.4756 23.7581C10.6502 23.3963 12.6459 19.5549 18.1839 17.6215C18.2086 17.6091 18.2213 17.6091 18.2462 17.5964C19.6307 21.1762 20.1919 24.1823 20.3417 25.0429C19.1567 25.5542 17.8595 25.8286 16.5 25.8286ZM21.9756 24.1447C21.8758 23.5461 21.3521 20.6773 20.0673 17.1475C23.1482 16.661 25.8421 17.4593 26.1789 17.5716C25.755 20.3031 24.1834 22.6606 21.9756 24.1447Z" fill="#C32361"/>
</g>
<defs>
<clipPath id="clip0_7_304">
<rect width="32" height="32" fill="white" transform="translate(0.5)"/>
</clipPath>
</defs>
</svg>
