<svg width="33" height="32" viewBox="0 0 33 32" fill="none" xmlns="http://www.w3.org/2000/svg">
<g clip-path="url(#clip0_7_308)">
<path d="M32.5 16C32.5 7.16344 25.3366 0 16.5 0C7.66344 0 0.5 7.16344 0.5 16C0.5 24.8366 7.66344 32 16.5 32C25.3366 32 32.5 24.8366 32.5 16Z" fill="#1187E7"/>
<path fill-rule="evenodd" clip-rule="evenodd" d="M16.6071 10.869L11.1786 14.4881L5.75 10.869L11.1786 7.25L16.6071 10.869ZM11.1786 14.4881L16.6071 18.1071L11.1786 21.7262L5.75 18.1071L11.1786 14.4881ZM16.6071 10.869L22.036 14.4881L27.4646 10.869L22.036 7.25L16.6071 10.869ZM22.036 21.7264L16.6071 18.1071L22.036 14.4881L27.4646 18.1073L22.036 21.7264ZM11.1786 22.631L16.6071 26.25L22.0357 22.631L16.6071 19.0119L11.1786 22.631Z" fill="black"/>
</g>
<defs>
<clipPath id="clip0_7_308">
<rect width="32" height="32" fill="white" transform="translate(0.5)"/>
</clipPath>
</defs>
</svg>
