<svg width="33" height="32" viewBox="0 0 33 32" fill="none" xmlns="http://www.w3.org/2000/svg">
<g clip-path="url(#clip0_7_315)">
<mask id="mask0_7_315" style="mask-type:luminance" maskUnits="userSpaceOnUse" x="0" y="8" width="33" height="16">
<path d="M32.5 8H0.5V23.1808H32.5V8Z" fill="white"/>
</mask>
<g mask="url(#mask0_7_315)">
<path d="M3.9318 13.4833V9.19385C3.9318 9.03491 3.94765 8.93958 4.21788 8.93958H7.8559C8.49148 8.93958 8.84099 9.47983 9.09526 10.4965L9.30177 11.3069H9.9213C10.0324 9.00338 10.1276 8.00244 10.1276 8.00244C10.1276 8.00244 8.57076 8.17715 7.64929 8.17715H2.99466L0.5 8.09767V8.76497L1.34219 8.92382C1.93001 9.0351 2.07272 9.16204 2.12076 9.70239C2.12076 9.70239 2.16852 11.2911 2.16852 13.9126C2.16852 16.5337 2.12076 18.1067 2.12076 18.1067C2.12076 18.5832 1.93001 18.758 1.34219 18.8695L0.5 19.0285V19.6954L2.99466 19.6161H7.15708C8.09441 19.6161 10.2709 19.6954 10.2709 19.6954C10.3184 19.1233 10.6364 16.5337 10.684 16.2481H10.0962L9.47657 17.6621C8.98398 18.7739 8.26921 18.8535 7.47469 18.8535H5.10735C4.31292 18.8535 3.93161 18.5357 3.93161 17.8526V14.2303C3.93161 14.2303 5.66327 14.2303 6.26685 14.278C6.71178 14.3099 6.98172 14.437 7.1249 15.0565L7.31565 15.8826H7.99842L7.95094 13.8012L8.04618 11.7043H7.36322L7.14094 12.6256C6.99776 13.2293 6.90262 13.3408 6.2829 13.4041C5.58399 13.4838 3.93151 13.4678 3.93151 13.4678L3.9318 13.4833ZM13.3528 9.63877C13.1304 10.6238 12.9079 11.3863 12.1294 11.8947C11.6529 12.2123 11.1761 12.3234 10.9858 12.3394V12.9431H12.3996V17.8203C12.3996 19.1868 13.3053 19.8542 14.5126 19.8542C15.45 19.8542 16.419 19.4571 16.7527 18.6307L16.419 18.2017C16.26 18.472 15.752 18.869 15.1164 18.869C14.4175 18.869 14.0362 18.3923 14.0362 17.1851V12.8798L16.3876 13.0547L16.5146 11.9741L14.0362 12.0695V9.65454L13.3528 9.63877ZM18.3733 17.1408L17.7696 17.1566C17.8013 17.506 17.8174 17.9511 17.8174 18.3641C17.8174 18.7931 17.8015 19.1902 17.7696 19.3808C17.7696 19.3808 18.9771 19.8252 20.2004 19.8252C21.8526 19.8252 23.1714 19.0309 23.1714 17.474C23.1714 14.8053 19.1678 15.2025 19.1678 13.407C19.1678 12.6604 19.835 12.3743 20.5658 12.3743C21.1378 12.3743 21.6143 12.5808 21.7097 12.8829L22.1069 14.0744L22.6948 14.0427C22.7426 13.4071 22.7742 12.6763 22.8696 12.0886C22.3611 11.8661 21.2965 11.7388 20.6298 11.7388C19.0725 11.7388 17.8176 12.4221 17.8176 13.9473C17.8176 16.6003 21.7257 16.0602 21.7257 18.0146C21.7257 18.7133 21.2965 19.2059 20.3277 19.2059C19.4382 19.2059 18.9932 18.7453 18.8188 18.2843L18.3733 17.1408ZM27.9488 18.9762C27.029 21.5454 25.9031 22.211 24.8883 22.211C24.4599 22.211 24.254 22.0205 24.1903 21.7197L23.9524 20.4824L23.2862 20.5142C23.1594 21.2437 23.0325 22.0528 22.8583 22.7187C23.2548 23.0196 23.9205 23.1785 24.4441 23.1785C25.5385 23.1785 27.2035 23.0355 28.7256 19.4201L31.279 13.3941C31.4853 12.9024 31.5643 12.8548 32.1669 12.6168L32.5 12.4902V11.9351L30.9933 12.0144L29.3759 11.9351V12.4902L29.788 12.6168C30.2001 12.7439 30.3908 12.9024 30.3908 13.1879C30.3908 13.3305 30.343 13.4733 30.2636 13.6951C30.0257 14.2981 28.5509 17.8819 28.1548 18.6433L28.5508 18.5003C27.8529 16.7718 26.7909 13.8854 26.6322 13.3942C26.6004 13.299 26.5846 13.2197 26.5846 13.14C26.5846 12.8864 26.759 12.6802 27.1397 12.601L27.663 12.4903V11.9352L25.4902 12.0145L23.7617 11.9352V12.4903L24.0473 12.5853C24.4437 12.7122 24.5389 12.8233 24.7768 13.3783C26.0926 16.3915 26.7114 18.0404 27.5515 20.1974L27.9488 18.9762Z" fill="#F27224"/>
</g>
</g>
<defs>
<clipPath id="clip0_7_315">
<rect width="32" height="32" fill="white" transform="translate(0.5)"/>
</clipPath>
</defs>
</svg>
