<svg width="33" height="32" viewBox="0 0 33 32" fill="none" xmlns="http://www.w3.org/2000/svg">
<g clip-path="url(#clip0_7_321)">
<path d="M32.5 16C32.5 7.16344 25.3366 0 16.5 0C7.66344 0 0.5 7.16344 0.5 16C0.5 24.8366 7.66344 32 16.5 32C25.3366 32 32.5 24.8366 32.5 16Z" fill="#1877F2"/>
<path d="M22.7281 20.625L23.4375 16H19V12.9987C19 11.7334 19.62 10.5 21.6075 10.5H23.625V6.5625C23.625 6.5625 21.7941 6.25 20.0434 6.25C16.3888 6.25 14 8.465 14 12.475V16H9.9375V20.625H14V31.8056C14.8147 31.9334 15.6494 32 16.5 32C17.3506 32 18.1853 31.9334 19 31.8056V20.625H22.7281Z" fill="black"/>
</g>
<defs>
<clipPath id="clip0_7_321">
<rect width="32" height="32" fill="white" transform="translate(0.5)"/>
</clipPath>
</defs>
</svg>
