<svg width="33" height="33" viewBox="0 0 33 33" fill="none" xmlns="http://www.w3.org/2000/svg">
<g clip-path="url(#clip0_7_324)">
<mask id="mask0_7_324" style="mask-type:luminance" maskUnits="userSpaceOnUse" x="0" y="0" width="33" height="33">
<path d="M32.5 0.5H0.5V32.5H32.5V0.5Z" fill="white"/>
</mask>
<g mask="url(#mask0_7_324)">
<path d="M7.844 0.5H25.156C29.2253 0.5 32.5 3.77467 32.5 7.844V25.156C32.5 29.2253 29.2253 32.5 25.156 32.5H7.844C3.77467 32.5 0.5 29.2253 0.5 25.156V7.844C0.5 3.77467 3.77467 0.5 7.844 0.5Z" fill="url(#paint0_linear_7_324)"/>
<path d="M5.37988 12.6228V20.4148C5.37988 22.1161 6.76122 23.4921 8.45722 23.4921H17.8332C19.5345 23.4921 20.9105 22.1108 20.9105 20.4148V12.6228C20.9105 10.9214 19.5292 9.54543 17.8332 9.54543H8.46255C6.76122 9.54009 5.37988 10.9214 5.37988 12.6228ZM25.6092 10.5374L22.0785 13.4494C21.7639 13.7108 21.5825 14.0948 21.5825 14.5001V18.5321C21.5825 18.9374 21.7585 19.3161 22.0679 19.5774L25.5985 22.5428C26.4039 23.2148 27.6252 22.6441 27.6252 21.5988V11.4868C27.6305 10.4468 26.4145 9.87076 25.6092 10.5374Z" fill="black"/>
</g>
</g>
<defs>
<linearGradient id="paint0_linear_7_324" x1="16.4067" y1="1.16821" x2="16.5976" y2="32.5366" gradientUnits="userSpaceOnUse">
<stop stop-color="#5DF777"/>
<stop offset="1" stop-color="#0ABC28"/>
</linearGradient>
<clipPath id="clip0_7_324">
<rect width="32" height="33" fill="white" transform="translate(0.5)"/>
</clipPath>
</defs>
</svg>
