<svg width="33" height="32" viewBox="0 0 33 32" fill="none" xmlns="http://www.w3.org/2000/svg">
<g clip-path="url(#clip0_7_333)">
<path d="M32.5 16C32.5 7.16344 25.3366 0 16.5 0C7.66344 0 0.5 7.16344 0.5 16C0.5 24.8366 7.66344 32 16.5 32C25.3366 32 32.5 24.8366 32.5 16Z" fill="white"/>
<path d="M16.4834 16.0002C16.4834 14.5274 17.6773 13.3335 19.1501 13.3335C20.6228 13.3335 21.8167 14.5274 21.8167 16.0002C21.8167 17.4729 20.6228 18.6668 19.1501 18.6668C17.6773 18.6668 16.4834 17.4729 16.4834 16.0002Z" fill="#1ABCFE"/>
<path d="M11.1504 21.3332C11.1504 19.8604 12.3443 18.6665 13.8171 18.6665H16.4837V21.3332C16.4837 22.8059 15.2898 23.9998 13.8171 23.9998C12.3443 23.9998 11.1504 22.8059 11.1504 21.3332Z" fill="#0ACF83"/>
<path d="M16.4834 8V13.3333H19.1501C20.6228 13.3333 21.8167 12.1394 21.8167 10.6667C21.8167 9.19391 20.6228 8 19.1501 8H16.4834Z" fill="#FF7262"/>
<path d="M11.1504 10.6667C11.1504 12.1394 12.3443 13.3333 13.8171 13.3333H16.4837V8H13.8171C12.3443 8 11.1504 9.19391 11.1504 10.6667Z" fill="#F24E1E"/>
<path d="M11.1504 16.0002C11.1504 17.4729 12.3443 18.6668 13.8171 18.6668H16.4837V13.3335H13.8171C12.3443 13.3335 11.1504 14.5274 11.1504 16.0002Z" fill="#A259FF"/>
</g>
<defs>
<clipPath id="clip0_7_333">
<rect width="32" height="32" fill="white" transform="translate(0.5)"/>
</clipPath>
</defs>
</svg>
