<svg width="36" height="35" viewBox="0 0 36 35" fill="none" xmlns="http://www.w3.org/2000/svg">
<path d="M3.41675 17.4998C3.41675 10.6252 3.41675 7.18786 5.55243 5.05219C7.6881 2.9165 11.1254 2.9165 18.0001 2.9165C24.8747 2.9165 28.3121 2.9165 30.4477 5.05219C32.5834 7.18786 32.5834 10.6252 32.5834 17.4998C32.5834 24.3744 32.5834 27.8119 30.4477 29.9474C28.3121 32.0832 24.8747 32.0832 18.0001 32.0832C11.1254 32.0832 7.6881 32.0832 5.55243 29.9474C3.41675 27.8119 3.41675 24.3744 3.41675 17.4998Z" stroke="white" stroke-width="2"/>
<path d="M23.8334 14.5833C25.4442 14.5833 26.7501 13.2775 26.7501 11.6667C26.7501 10.0558 25.4442 8.75 23.8334 8.75C22.2226 8.75 20.9167 10.0558 20.9167 11.6667C20.9167 13.2775 22.2226 14.5833 23.8334 14.5833Z" stroke="white" stroke-width="2"/>
<path d="M3.41675 18.2294L5.97115 15.9944C7.30009 14.8317 9.30299 14.8983 10.5516 16.1469L16.8075 22.4028C17.8096 23.4051 19.3872 23.5417 20.5469 22.7267L20.9818 22.4211C22.6504 21.2483 24.9081 21.3843 26.4241 22.7487L31.1251 26.9794" stroke="white" stroke-width="2" stroke-linecap="round"/>
</svg>
