<svg width="32" height="32" viewBox="0 0 32 32" fill="none" xmlns="http://www.w3.org/2000/svg">
<g clip-path="url(#clip0_5954_21432)">
<rect width="32" height="32" rx="16" fill="#0A0B09"/>
<path d="M12.8064 31.0317C12.8064 31.4572 12.3 32.0224 11.5 31.8749V31.9999L21.75 32.0017V31.8057C20.938 31.9634 20.7384 31.4617 20.7384 31.0319C20.7384 30.5047 20.7584 28.7729 20.7584 26.6254C20.7584 25.1264 20.2464 24.1467 19.6724 23.6507C23.2364 23.2532 26.9774 21.8947 26.9774 15.7244C26.9774 13.9704 26.3584 12.5369 25.3324 11.4134C25.4974 11.0069 26.0464 9.37444 25.1734 7.16269C25.1734 7.16269 23.8324 6.73094 20.7784 8.80919C19.5004 8.45269 18.1314 8.27494 16.7724 8.26794C15.4114 8.27519 14.0434 8.45269 12.7664 8.80919C9.71044 6.73094 8.36644 7.16269 8.36644 7.16269C7.49644 9.37444 8.04544 11.0069 8.21044 11.4134C7.18644 12.5369 6.56344 13.9704 6.56344 15.7244C6.56344 21.8797 10.2984 23.2572 13.8514 23.6627C13.3944 24.0642 12.9804 24.7722 12.8354 25.8102C11.9234 26.2219 9.60644 26.9307 8.17844 24.4759C8.17844 24.4759 7.33344 22.9339 5.72844 22.8204C5.72844 22.8204 4.16544 22.8002 5.61844 23.7972C5.61844 23.7972 6.66744 24.2912 7.39444 26.1464C7.39444 26.1464 8.33344 29.2707 12.7844 28.2999C12.7924 29.6402 12.8064 30.6502 12.8064 31.0317Z" fill="white"/>
</g>
<defs>
<clipPath id="clip0_5954_21432">
<rect width="32" height="32" rx="16" fill="white"/>
</clipPath>
</defs>
</svg>
