<svg width="33" height="32" viewBox="0 0 33 32" fill="none" xmlns="http://www.w3.org/2000/svg">
<g clip-path="url(#clip0_7_354)">
<mask id="mask0_7_354" style="mask-type:luminance" maskUnits="userSpaceOnUse" x="0" y="0" width="33" height="31">
<path d="M32.5 0H0.5V30.7712H32.5V0Z" fill="white"/>
</mask>
<g mask="url(#mask0_7_354)">
<path d="M32.4499 14.7177C32.4865 15.587 32.3833 16.4529 32.1434 17.2889C31.907 18.1249 31.534 18.9142 31.041 19.6303C30.5513 20.3469 29.9484 20.979 29.2558 21.5021L29.2392 21.5154L22.5814 26.5046L19.3074 28.9859L17.3124 30.4913C17.1958 30.5813 17.0659 30.6479 16.9294 30.6945C16.7928 30.7411 16.6463 30.7644 16.4997 30.7644C16.3565 30.7644 16.21 30.7411 16.0734 30.6945C15.9369 30.6479 15.807 30.5813 15.6904 30.4913L13.6954 28.9859L10.4214 26.5046L3.80357 21.5454L3.7636 21.5188L3.75028 21.5054C3.05419 20.9825 2.45136 20.3497 1.95843 19.6336C1.46551 18.9176 1.09248 18.1249 0.852679 17.2889C0.612878 16.4529 0.50963 15.5837 0.546266 14.7144C0.586233 13.8451 0.762754 12.9892 1.0725 12.1765L1.1158 12.0599L5.46886 0.719307C5.49106 0.663798 5.51771 0.610508 5.54879 0.55944C5.57766 0.508371 5.61207 0.460632 5.65204 0.416225C5.68979 0.369597 5.73086 0.326299 5.77527 0.286332C5.81968 0.248586 5.86631 0.21306 5.91516 0.179754C6.0184 0.116473 6.12498 0.0698448 6.24155 0.0432002C6.35479 0.013225 6.47469 -9.73018e-05 6.59126 0.00656385C6.71116 0.013225 6.82773 0.036539 6.93764 0.0798365C7.04755 0.119803 7.15413 0.179754 7.24739 0.253027C7.29179 0.290773 7.33509 0.33074 7.37728 0.372927C7.41725 0.417335 7.45277 0.465073 7.48386 0.516142C7.51716 0.56499 7.54603 0.61717 7.57045 0.672679C7.59488 0.725968 7.61486 0.781478 7.6304 0.839208L10.5646 9.82177H22.4415L25.3757 0.839208C25.3913 0.781478 25.4124 0.725968 25.439 0.672679C25.4634 0.61939 25.4923 0.567211 25.5256 0.516142C25.5567 0.467294 25.5922 0.420666 25.6322 0.376258C25.6721 0.33185 25.7154 0.290773 25.7621 0.253027C25.8553 0.179754 25.9586 0.123134 26.0685 0.0798365C26.1817 0.0398696 26.2983 0.0165556 26.4149 0.00989443C26.5348 0.00323327 26.6513 0.013225 26.7679 0.0432002C26.8811 0.0731754 26.991 0.119803 27.091 0.183084C27.142 0.21417 27.1898 0.249696 27.2342 0.289663C27.2786 0.327409 27.3197 0.369597 27.3574 0.416225C27.3952 0.462853 27.4296 0.511701 27.4607 0.56277C27.4895 0.613839 27.5151 0.667128 27.5373 0.722638L31.8837 12.0666L31.927 12.1832C32.2367 12.9925 32.4132 13.8484 32.4499 14.7177Z" fill="#E24329"/>
<path d="M32.4535 14.7214C32.4901 15.5873 32.3869 16.4566 32.147 17.2926C31.9072 18.1285 31.5342 18.9212 31.0413 19.6373C30.5484 20.3534 29.9455 20.9862 29.2528 21.5091L29.2361 21.5224L22.5783 26.5116C22.5783 26.5116 19.7506 24.3767 16.5 21.9154L26.0421 14.6947C26.4717 14.3717 26.9214 14.0752 27.3843 13.8021C27.8473 13.5257 28.3269 13.2792 28.8165 13.0594C29.3094 12.8396 29.8123 12.6431 30.3219 12.4799C30.8348 12.3134 31.3544 12.1768 31.8839 12.0669L31.9272 12.1835C32.237 12.9961 32.4135 13.8521 32.4535 14.7214Z" fill="#FC6D26"/>
<path d="M16.5002 21.915C19.7508 24.3697 22.5818 26.5112 22.5818 26.5112L19.3079 28.9925L17.3128 30.4979C17.1963 30.5879 17.0664 30.6545 16.9298 30.7011C16.7933 30.7477 16.6467 30.771 16.5002 30.771C16.357 30.771 16.2104 30.7477 16.0739 30.7011C15.9373 30.6545 15.8074 30.5879 15.6908 30.4979L13.6958 28.9925L10.4219 26.5112C10.4219 26.5112 13.2495 24.3697 16.5002 21.915Z" fill="#FCA326"/>
<path d="M16.4997 21.9086C13.2458 24.3699 10.4214 26.5048 10.4214 26.5048L3.80357 21.5455L3.7636 21.5189L3.75028 21.5056C3.05419 20.9827 2.45136 20.3499 1.95843 19.6338C1.46551 18.9177 1.09248 18.125 0.852679 17.2891C0.612878 16.4531 0.50963 15.5838 0.546266 14.7145C0.586233 13.8452 0.762754 12.9893 1.0725 12.1766L1.1158 12.0601C1.64536 12.17 2.16493 12.3065 2.67784 12.473C3.18741 12.6396 3.69033 12.8328 4.18326 13.0559C4.67285 13.2757 5.15245 13.5255 5.6154 13.7986C6.07835 14.0717 6.52465 14.3715 6.95763 14.6945L16.4997 21.9086Z" fill="#FC6D26"/>
</g>
</g>
<defs>
<clipPath id="clip0_7_354">
<rect width="32" height="32" fill="white" transform="translate(0.5)"/>
</clipPath>
</defs>
</svg>
