<svg width="33" height="32" viewBox="0 0 33 32" fill="none" xmlns="http://www.w3.org/2000/svg">
<g clip-path="url(#clip0_7_363)">
<path d="M32.5 16C32.5 7.16344 25.3366 0 16.5 0C7.66344 0 0.5 7.16344 0.5 16C0.5 24.8366 7.66344 32 16.5 32C25.3366 32 32.5 24.8366 32.5 16Z" fill="black"/>
<path d="M27.7496 11.8252L22.3809 15.8274V24.5638H26.139C27.0175 24.5638 27.7496 23.8561 27.7496 22.9532V11.8252Z" fill="#4CAF50"/>
<path d="M5.25 11.8252L10.5944 15.8518V24.5882H6.86063C5.9821 24.5882 5.25 23.8805 5.25 22.9776V11.8252Z" fill="#1E88E5"/>
<path d="M22.3816 9.14062L16.5004 13.5576L10.6191 9.14062V15.8272L16.5004 20.2442L22.3816 15.8272V9.14062Z" fill="#E53935"/>
<path d="M5.25 9.72654V11.8252L10.5944 15.8518V9.14086L8.93492 7.89628C8.54447 7.60344 8.0564 7.43262 7.54392 7.43262C6.27494 7.43262 5.25 8.45756 5.25 9.72654Z" fill="#C62828"/>
<path d="M27.7496 9.72654V11.8252L22.3809 15.8274V9.14086L24.0647 7.89628C24.4552 7.60344 24.9432 7.43262 25.4557 7.43262C26.7247 7.43262 27.7496 8.45756 27.7496 9.72654Z" fill="#5436EB"/>
</g>
<defs>
<clipPath id="clip0_7_363">
<rect width="32" height="32" fill="white" transform="translate(0.5)"/>
</clipPath>
</defs>
</svg>
