<svg width="33" height="32" viewBox="0 0 33 32" fill="none" xmlns="http://www.w3.org/2000/svg">
<g clip-path="url(#clip0_7_387)">
<mask id="mask0_7_387" style="mask-type:luminance" maskUnits="userSpaceOnUse" x="0" y="1" width="33" height="30">
<path d="M32.5 1.5H0.5V30.2616H32.5V1.5Z" fill="white"/>
</mask>
<g mask="url(#mask0_7_387)">
<path d="M22.3712 20.9878H10.6637L5.65039 29.7448C6.2535 30.0515 6.93839 30.2481 7.38135 30.2481C11.9868 30.2481 21.3858 30.18 26.0516 30.18C26.5313 30.18 26.9804 30.0164 27.3832 29.7602L22.3712 20.9878Z" fill="#4185F3"/>
<path d="M5.6505 29.7448L10.6638 20.9878H0.504971C0.49986 21.5964 0.716231 22.1531 1.05527 22.7883C1.9998 24.5553 3.59788 27.3801 4.53662 28.8555C4.76798 29.2191 5.68662 29.7632 5.6505 29.7448Z" fill="#1767D1"/>
<path d="M22.3711 20.9875L27.3848 29.7585C28.0345 29.3455 28.5641 28.6913 28.9079 28.0889C29.6841 26.7303 30.9966 24.4682 31.902 22.9365C32.3228 22.2244 32.4863 21.5848 32.4761 20.9868L22.3711 20.9875Z" fill="#E94235"/>
<path d="M10.6652 20.9882L16.513 10.8218L11.2867 2.1084C10.7214 2.48015 10.2379 2.98478 10.0185 3.36914C7.73724 7.37012 3.14166 15.57 0.830758 19.6228C0.593963 20.0375 0.480589 20.5112 0.503987 20.9882H10.6652Z" fill="#30A753"/>
<path d="M22.3711 20.9885L16.5127 10.8222L21.5955 2.11865C22.1608 2.49074 22.7813 2.98516 23.0007 3.36985C25.282 7.37049 29.8776 15.5704 32.1895 19.6232C32.428 20.0399 32.4999 20.5115 32.4767 20.9885H22.3711Z" fill="#F9BC00"/>
<path d="M11.2861 2.10973L16.5131 10.8218L21.5959 2.11825C21.0712 1.81158 20.328 1.62996 19.6084 1.60713C17.6062 1.54035 14.3603 1.51343 12.6133 1.58942C12.1826 1.60816 11.2916 2.10598 11.2861 2.10973Z" fill="#0F8038"/>
</g>
</g>
<defs>
<clipPath id="clip0_7_387">
<rect width="32" height="32" fill="white" transform="translate(0.5)"/>
</clipPath>
</defs>
</svg>
