<svg width="34" height="32" viewBox="0 0 34 32" fill="none" xmlns="http://www.w3.org/2000/svg">
<g clip-path="url(#clip0_7_370)">
<mask id="mask0_7_370" style="mask-type:luminance" maskUnits="userSpaceOnUse" x="1" y="2" width="33" height="28">
<path d="M33.2402 2H1.24023V29.968H33.2402V2Z" fill="white"/>
</mask>
<g mask="url(#mask0_7_370)">
<path d="M29.7385 9.0127H3.95683C3.34425 9.0127 2.84766 9.50928 2.84766 10.1219V28.8401C2.84766 29.4526 3.34425 29.9492 3.95683 29.9492H29.7385C30.3511 29.9492 30.8477 29.4526 30.8477 28.8401V10.1219C30.8477 9.50928 30.3511 9.0127 29.7385 9.0127Z" fill="#4989F5"/>
<path d="M29.4149 8.85547H4.24945C3.4699 8.85547 2.86328 14.8886 2.86328 15.6681L16.6446 29.9493H29.4149C30.1968 29.9472 30.8302 29.3138 30.8323 28.5319V10.2726C30.83 9.49078 30.1967 8.8576 29.4149 8.85547Z" fill="url(#paint0_linear_7_370)"/>
<path d="M9.24121 12.5189H17.2412V2.01904H10.4391L9.24121 12.5189Z" fill="#3C4BA6"/>
<path d="M25.2412 12.5189H17.2412V2.01904H24.0433L25.2412 12.5189ZM30.8478 4.00942L30.8578 4.04521C30.8553 4.03258 30.8505 4.02085 30.8478 4.00942Z" fill="#7BABF7"/>
<path d="M30.8574 4.04472L30.8475 4.00893C30.5939 2.84752 29.5659 2.01931 28.3771 2.01855H24.043L25.24 12.5187H33.24L30.8574 4.04472Z" fill="#3F51B5"/>
<path d="M3.63492 4.00928L3.625 4.04507C3.62741 4.03244 3.63222 4.02071 3.63492 4.00928Z" fill="#7BABF7"/>
<path d="M3.62429 4.04472L3.63422 4.00893C3.88784 2.84752 4.91581 2.01931 6.1046 2.01855H10.439L9.24024 12.5187H1.24023L3.62429 4.04472Z" fill="#7BABF7"/>
<path fill-rule="evenodd" clip-rule="evenodd" d="M9.25428 12.5161C9.25428 14.724 7.46441 16.5139 5.25653 16.5139C3.04865 16.5139 1.25879 14.724 1.25879 12.5161H9.25428Z" fill="#709BE0"/>
<path fill-rule="evenodd" clip-rule="evenodd" d="M17.2504 12.5161C17.2504 14.724 15.4605 16.5139 13.2526 16.5139C11.0447 16.5139 9.25488 14.724 9.25488 12.5161H17.2504Z" fill="#3C4BA6"/>
<path fill-rule="evenodd" clip-rule="evenodd" d="M25.2455 12.5161C25.2455 14.724 23.4556 16.5139 21.2477 16.5139C19.0399 16.5139 17.25 14.724 17.25 12.5161H25.2455Z" fill="#709BE0"/>
<path fill-rule="evenodd" clip-rule="evenodd" d="M33.2406 12.5161C33.2406 14.724 31.4507 16.5139 29.2429 16.5139C27.035 16.5139 25.2451 14.724 25.2451 12.5161H33.2406Z" fill="#3C4BA6"/>
<path d="M29.2422 23.3472C29.2281 23.1568 29.2046 22.983 29.1712 22.761H24.8103C24.8103 23.371 24.8103 24.0365 24.8079 24.6468H27.3342C27.2806 24.9311 27.1712 25.2021 27.0125 25.4441C26.8538 25.6862 26.6488 25.8944 26.4094 26.057L26.4076 26.0462C26.0984 26.2492 25.75 26.3851 25.385 26.4453C25.0191 26.5122 24.6439 26.5106 24.2786 26.4404C23.9076 26.3637 23.5564 26.2114 23.2467 25.9932C22.7896 25.6691 22.437 25.2186 22.2323 24.697C22.2166 24.6564 22.2022 24.6155 22.1875 24.574V24.5695L22.1914 24.5665C21.9926 23.9831 21.9921 23.3504 22.1899 22.7668C22.3292 22.3573 22.5584 21.9843 22.8608 21.675C23.5702 20.9412 24.6301 20.6652 25.6073 20.9598C25.982 21.0748 26.3244 21.2763 26.6067 21.5481L27.459 20.6958C27.6094 20.5439 27.7655 20.3968 27.9102 20.2398C27.478 19.8367 26.9707 19.5226 26.4172 19.3153C25.41 18.9501 24.308 18.9404 23.2945 19.288C23.2592 19.3 23.2241 19.3125 23.1893 19.3256C22.0958 19.7366 21.1963 20.5428 20.6684 21.5848C20.4819 21.9536 20.3462 22.346 20.2647 22.7511C19.782 25.1503 21.2459 27.5118 23.6094 28.1466C24.382 28.3535 25.2034 28.3484 25.982 28.1716C26.6895 28.0118 27.3436 27.6719 27.881 27.1848C28.4416 26.669 28.8434 25.9818 29.0539 25.2519C29.2299 24.6333 29.2937 23.9882 29.2422 23.3472Z" fill="black"/>
</g>
</g>
<defs>
<linearGradient id="paint0_linear_7_370" x1="2.86328" y1="9803.48" x2="29761.6" y2="9803.48" gradientUnits="userSpaceOnUse">
<stop offset="0.03" stop-color="#4079D8"/>
<stop offset="1" stop-color="#4989F5"/>
</linearGradient>
<clipPath id="clip0_7_370">
<rect width="33" height="32" fill="white" transform="translate(0.5)"/>
</clipPath>
</defs>
</svg>
