<svg width="33" height="32" viewBox="0 0 33 32" fill="none" xmlns="http://www.w3.org/2000/svg">
<g clip-path="url(#clip0_7_410)">
<path d="M27.9356 13.2178C27.9356 5.91963 22.0136 0 14.7178 0C7.42201 0 1.5 5.91963 1.5 13.2178C1.5 20.132 7.806 25.7392 14.7178 25.7392V30.6094C22.7458 26.5358 27.9356 19.9817 27.9356 13.2178Z" fill="#00897B"/>
<path d="M22.8925 8.43604L21.1586 13.218H11.5899L7.75 17.926L21.824 32.0001H31.2401V16.7836L22.8925 8.43604Z" fill="url(#paint0_linear_7_410)"/>
<path opacity="0.2" d="M14.7178 25.5648C7.83224 25.5648 1.55247 20.0029 1.50239 13.1245C1.50239 13.1555 1.5 13.1865 1.5 13.2175C1.5 20.1317 7.806 25.7389 14.7178 25.7389V25.5648ZM14.7178 30.435V30.6091C22.7458 26.5355 27.9356 19.9815 27.9356 13.2175C27.9356 13.1889 27.9332 13.1603 27.9332 13.1341C27.8879 19.8646 22.71 26.3805 14.7178 30.435ZM17.6752 18.4336H8.97944C8.53344 18.4336 8.08982 18.2642 7.74876 17.9232C7.4077 17.5821 7.23837 17.1385 7.23837 16.6925V16.8666C7.23837 17.3126 7.4077 17.7562 7.74876 18.0973C8.08982 18.4383 8.53344 18.6077 8.97944 18.6077H17.6752C18.1212 18.6077 18.5648 18.4383 18.9059 18.0973C19.0678 17.9358 19.1962 17.744 19.2837 17.5328C19.3713 17.3216 19.4164 17.0952 19.4163 16.8666V16.6925C19.4163 17.1385 19.247 17.5821 18.9059 17.9232C18.5648 18.2642 18.1188 18.4336 17.6752 18.4336ZM19.4139 14.6962L22.8913 18.1736V17.9995L19.4139 14.5221V14.6962Z" fill="#263238"/>
<path d="M19.4138 11.9133V9.74058C19.4138 9.29458 19.2445 8.85097 18.9034 8.50991C18.742 8.34805 18.5501 8.21965 18.339 8.13206C18.1278 8.04448 17.9014 7.99943 17.6728 7.99951H8.97935C8.53335 7.99951 8.08973 8.16885 7.74868 8.50991C7.58682 8.67137 7.45842 8.86319 7.37083 9.07438C7.28325 9.28556 7.2382 9.51195 7.23828 9.74058V16.6977C7.23828 17.1437 7.40762 17.5873 7.74868 17.9284C8.08973 18.2694 8.53335 18.4388 8.97935 18.4388H17.6751C18.1211 18.4388 18.5648 18.2694 18.9058 17.9284C19.0677 17.7669 19.1961 17.5751 19.2837 17.3639C19.3712 17.1527 19.4163 16.9263 19.4162 16.6977V14.5249L22.8936 18.0023V8.43597L19.4138 11.9133Z" fill="#F5F5F5"/>
<path d="M7.24122 9.74058V13.2179H22.8917V8.43597L19.4144 11.9133V9.74058C19.4144 9.29458 19.245 8.85097 18.904 8.50991C18.7425 8.34805 18.5507 8.21965 18.3395 8.13206C18.1283 8.04448 17.9019 7.99943 17.6733 7.99951H8.9799C8.5339 7.99951 8.09028 8.16885 7.74922 8.50991C7.58769 8.67149 7.45966 8.86339 7.37248 9.07458C7.2853 9.28577 7.24069 9.5121 7.24122 9.74058Z" fill="#E0E0E0"/>
<path d="M7.24121 13.0439H22.8917V13.2181H7.24121V13.0439Z" fill="#212121" fill-opacity="0.02"/>
<path d="M27.9356 13.2178C27.9356 5.91963 22.0136 0 14.7178 0C7.42201 0 1.5 5.91963 1.5 13.2178C1.5 20.132 7.806 25.7392 14.7178 25.7392V30.6094C22.7458 26.5358 27.9356 19.9817 27.9356 13.2178Z" fill="url(#paint1_radial_7_410)"/>
</g>
<defs>
<linearGradient id="paint0_linear_7_410" x1="14.5752" y1="12.4343" x2="26.0093" y2="23.8683" gradientUnits="userSpaceOnUse">
<stop stop-color="#263238" stop-opacity="0.2"/>
<stop offset="1" stop-color="#263238" stop-opacity="0.02"/>
</linearGradient>
<radialGradient id="paint1_radial_7_410" cx="0" cy="0" r="1" gradientUnits="userSpaceOnUse" gradientTransform="translate(5.26881 3.79767) scale(26.9887)">
<stop stop-color="white" stop-opacity="0.1"/>
<stop offset="1" stop-color="white" stop-opacity="0"/>
</radialGradient>
<clipPath id="clip0_7_410">
<rect width="32" height="32" fill="white" transform="translate(0.5)"/>
</clipPath>
</defs>
</svg>
