<svg width="33" height="32" viewBox="0 0 33 32" fill="none" xmlns="http://www.w3.org/2000/svg">
<g clip-path="url(#clip0_7_403)">
<path d="M32.5 16C32.5 7.16344 25.3366 0 16.5 0C7.66344 0 0.5 7.16344 0.5 16C0.5 24.8366 7.66344 32 16.5 32C25.3366 32 32.5 24.8366 32.5 16Z" fill="white"/>
<mask id="mask0_7_403" style="mask-type:luminance" maskUnits="userSpaceOnUse" x="8" y="6" width="18" height="19">
<path d="M8.61905 7.35693H25.1428V23.8807H8.61905V7.35693Z" fill="white" stroke="white"/>
</mask>
<g mask="url(#mask0_7_403)">
<path d="M13.7064 10.4126V21.5872M19.9921 15.9999V21.5872M12.3095 21.5872H15.1032M18.5952 21.5872H21.3889M17.1984 12.5078V10.4126H10.2143V12.5078M22.7857 17.3967V15.9999H17.1984V17.3967" stroke="black" stroke-width="2" stroke-linecap="round" stroke-linejoin="round"/>
</g>
</g>
<defs>
<clipPath id="clip0_7_403">
<rect width="32" height="32" fill="white" transform="translate(0.5)"/>
</clipPath>
</defs>
</svg>
