<svg width="25" height="24" viewBox="0 0 25 24" fill="none" xmlns="http://www.w3.org/2000/svg">
<path d="M4.46 10C3.368 10 2.5 10.812 2.5 11.904C2.5 12.996 3.368 13.78 4.46 13.78C5.552 13.78 6.448 12.996 6.448 11.904C6.448 10.812 5.552 10 4.46 10Z" fill="white"/>
<path d="M12.8975 10C11.8055 10 10.9375 10.812 10.9375 11.904C10.9375 12.996 11.8055 13.78 12.8975 13.78C13.9895 13.78 14.8855 12.996 14.8855 11.904C14.8855 10.812 13.9895 10 12.8975 10Z" fill="white"/>
<path d="M21.335 10C20.243 10 19.375 10.812 19.375 11.904C19.375 12.996 20.243 13.78 21.335 13.78C22.427 13.78 23.323 12.996 23.323 11.904C23.323 10.812 22.427 10 21.335 10Z" fill="white"/>
</svg>
