<svg width="33" height="32" viewBox="0 0 33 32" fill="none" xmlns="http://www.w3.org/2000/svg">
<path d="M18.4054 19.6836L16.633 17.9261C15.7778 17.0779 15.3502 16.6539 14.8595 16.4989C14.4279 16.3625 13.964 16.3675 13.5355 16.5132C13.0482 16.6788 12.6299 17.112 11.7932 17.9784L7.54685 22.1726M18.4054 19.6836L18.7681 19.3239C19.6244 18.4748 20.0525 18.0502 20.5438 17.8952C20.9758 17.7589 21.44 17.7643 21.8688 17.9105C22.3563 18.0767 22.7746 18.511 23.6111 19.3796L24.5 20.2742M18.4054 19.6836L22.6672 23.9538M7.54685 22.1726C7.57981 22.4404 7.63596 22.652 7.73161 22.8398C7.93534 23.2396 8.26042 23.5647 8.66027 23.7684C9.11483 24 9.70988 24 10.9 24H21.1C21.7952 24 22.2874 24 22.6672 23.9538M7.54685 22.1726C7.5 21.7922 7.5 21.2986 7.5 20.6V10.4C7.5 9.20989 7.5 8.61483 7.73161 8.16027C7.93534 7.76042 8.26042 7.43534 8.66027 7.23161C9.11483 7 9.70988 7 10.9 7H21.1C22.2901 7 22.8852 7 23.3398 7.23161C23.7396 7.43534 24.0647 7.76042 24.2684 8.16027C24.5 8.61483 24.5 9.20989 24.5 10.4V20.2742M24.5 20.2742V20.6C24.5 21.7901 24.5 22.3852 24.2684 22.8398C24.0647 23.2396 23.7396 23.5647 23.3398 23.7684C23.1507 23.8647 22.9374 23.9209 22.6672 23.9538M21.3125 12.3124C21.3125 13.486 20.3611 14.4374 19.1875 14.4374C18.0139 14.4374 17.0625 13.486 17.0625 12.3124C17.0625 11.1388 18.0139 10.1874 19.1875 10.1874C20.3611 10.1874 21.3125 11.1388 21.3125 12.3124Z" stroke="white" stroke-width="2" stroke-linecap="round" stroke-linejoin="round"/>
</svg>
