<svg width="33" height="32" viewBox="0 0 33 32" fill="none" xmlns="http://www.w3.org/2000/svg">
<g clip-path="url(#clip0_7_424)">
<path d="M32.5 16C32.5 7.16344 25.3366 0 16.5 0C7.66344 0 0.5 7.16344 0.5 16C0.5 24.8366 7.66344 32 16.5 32C25.3366 32 32.5 24.8366 32.5 16Z" fill="url(#paint0_linear_7_424)"/>
<path d="M16.5 7.04661C19.4152 7.04661 19.7608 7.05621 20.9128 7.11061C21.9784 7.15861 22.5576 7.33781 22.9416 7.48821C23.4504 7.68661 23.8152 7.92341 24.196 8.30421C24.5768 8.68501 24.8136 9.04981 25.012 9.55861C25.1624 9.94261 25.3384 10.5218 25.3896 11.5874C25.4408 12.7394 25.4536 13.085 25.4536 16.0002C25.4536 18.9154 25.444 19.261 25.3896 20.413C25.3416 21.4786 25.1624 22.0578 25.012 22.4418C24.8136 22.9506 24.5768 23.3154 24.196 23.6962C23.8152 24.077 23.4504 24.3138 22.9416 24.5122C22.5576 24.6626 21.9784 24.8386 20.9128 24.8898C19.7608 24.941 19.4152 24.9538 16.5 24.9538C13.5848 24.9538 13.2392 24.9442 12.0872 24.8898C11.0216 24.8418 10.4424 24.6626 10.0584 24.5122C9.5496 24.3138 9.1848 24.077 8.804 23.6962C8.4232 23.3154 8.1864 22.9506 7.988 22.4418C7.8376 22.0578 7.6616 21.4786 7.6104 20.413C7.5592 19.261 7.5464 18.9154 7.5464 16.0002C7.5464 13.085 7.556 12.7394 7.6104 11.5874C7.6584 10.5218 7.8376 9.94261 7.988 9.55861C8.1864 9.04981 8.4232 8.68501 8.804 8.30421C9.1848 7.92341 9.5496 7.68661 10.0584 7.48821C10.4424 7.33781 11.0216 7.16181 12.0872 7.11061C13.2392 7.05621 13.5848 7.04661 16.5 7.04661ZM16.5 5.07861C13.5336 5.07861 13.1624 5.09141 11.9976 5.14581C10.836 5.20021 10.0424 5.38261 9.34479 5.65461C8.628 5.92981 8.0168 6.30421 7.412 6.91221C6.804 7.52021 6.4328 8.12821 6.1512 8.84821C5.8824 9.54261 5.6968 10.3362 5.6424 11.501C5.588 12.6658 5.5752 13.037 5.5752 16.0034C5.5752 18.9698 5.588 19.341 5.6424 20.5058C5.6968 21.6674 5.8792 22.461 6.1512 23.1586C6.4296 23.8722 6.804 24.4834 7.412 25.0882C8.02 25.6962 8.62799 26.0674 9.34799 26.349C10.0424 26.6178 10.836 26.8034 12.0008 26.8578C13.1656 26.9122 13.5368 26.925 16.5032 26.925C19.4696 26.925 19.8408 26.9122 21.0056 26.8578C22.1672 26.8034 22.9608 26.621 23.6584 26.349C24.372 26.0706 24.9832 25.6962 25.588 25.0882C26.196 24.4802 26.5672 23.8722 26.8488 23.1522C27.1176 22.4578 27.3032 21.6642 27.3576 20.4994C27.412 19.3346 27.4248 18.9634 27.4248 15.997C27.4248 13.0306 27.412 12.6594 27.3576 11.4946C27.3032 10.333 27.1208 9.53941 26.8488 8.84181C26.5704 8.12821 26.196 7.51701 25.588 6.91221C24.98 6.30421 24.372 5.93301 23.652 5.65141C22.9576 5.38261 22.164 5.19701 20.9992 5.14261C19.8376 5.09141 19.4664 5.07861 16.5 5.07861Z" fill="black"/>
<path d="M16.5002 10.3906C13.4026 10.3906 10.8906 12.9026 10.8906 16.0002C10.8906 19.0978 13.4026 21.6098 16.5002 21.6098C19.5978 21.6098 22.1098 19.0978 22.1098 16.0002C22.1098 12.9026 19.5978 10.3906 16.5002 10.3906ZM16.5002 19.6418C14.4906 19.6418 12.8586 18.013 12.8586 16.0002C12.8586 13.9874 14.4906 12.3586 16.5002 12.3586C18.5098 12.3586 20.1418 13.9874 20.1418 16.0002C20.1418 18.013 18.5098 19.6418 16.5002 19.6418Z" fill="black"/>
<path d="M22.3306 11.4814C23.0552 11.4814 23.6426 10.894 23.6426 10.1694C23.6426 9.44482 23.0552 8.85742 22.3306 8.85742C21.606 8.85742 21.0186 9.44482 21.0186 10.1694C21.0186 10.894 21.606 11.4814 22.3306 11.4814Z" fill="black"/>
</g>
<defs>
<linearGradient id="paint0_linear_7_424" x1="5.18629" y1="27.3137" x2="27.8137" y2="4.68629" gradientUnits="userSpaceOnUse">
<stop stop-color="#FFD521"/>
<stop offset="0.0551048" stop-color="#FFD020"/>
<stop offset="0.1241" stop-color="#FEC01E"/>
<stop offset="0.2004" stop-color="#FCA71B"/>
<stop offset="0.2821" stop-color="#FA8316"/>
<stop offset="0.3681" stop-color="#F85510"/>
<stop offset="0.4563" stop-color="#F51E09"/>
<stop offset="0.5" stop-color="#F30005"/>
<stop offset="0.5035" stop-color="#F20007"/>
<stop offset="0.5966" stop-color="#E1003B"/>
<stop offset="0.6879" stop-color="#D30067"/>
<stop offset="0.7757" stop-color="#C70088"/>
<stop offset="0.8589" stop-color="#BF00A0"/>
<stop offset="0.9357" stop-color="#BB00AF"/>
<stop offset="1" stop-color="#B900B4"/>
</linearGradient>
<clipPath id="clip0_7_424">
<rect width="32" height="32" fill="white" transform="translate(0.5)"/>
</clipPath>
</defs>
</svg>
