<svg width="34" height="32" viewBox="0 0 34 32" fill="none" xmlns="http://www.w3.org/2000/svg">
<g clip-path="url(#clip0_7_441)">
<mask id="mask0_7_441" style="mask-type:luminance" maskUnits="userSpaceOnUse" x="1" y="8" width="33" height="16">
<path d="M33.2402 8H1.24023V24H33.2402V8Z" fill="white"/>
</mask>
<g mask="url(#mask0_7_441)">
<path d="M31.3956 15.8306C32.4131 15.8306 33.2376 16.6516 33.2376 17.6645C33.2376 18.6772 32.4131 19.4982 31.3956 19.4982C30.3781 19.4982 29.5537 18.6772 29.5537 17.6645C29.5536 16.6518 30.378 15.8306 31.3956 15.8306Z" fill="#3DB4E7"/>
<path d="M16.5667 22.3478L13.2285 22.3477L13.2321 14.0444L16.5663 14.0561L16.5667 22.3478Z" fill="#82BC23"/>
<path d="M14.8987 20.6513C15.8093 20.6513 16.5473 21.401 16.5473 22.3257C16.5473 23.2503 15.8092 24 14.8987 24C13.9882 24 13.2497 23.2503 13.2497 22.3257C13.2497 21.401 13.9881 20.6513 14.8987 20.6513ZM14.8987 12.331C15.8093 12.331 16.5473 13.0807 16.5473 14.0057C16.5473 14.9307 15.8092 15.6803 14.8987 15.6803C13.9882 15.6803 13.2497 14.9305 13.2497 14.0057C13.2497 13.0807 13.9881 12.331 14.8987 12.331ZM2.90853 20.6926C3.80896 20.6926 4.53874 21.4327 4.53874 22.3457C4.53874 23.2584 3.80907 23.9986 2.90853 23.9986C2.0081 23.9986 1.27832 23.2584 1.27832 22.3457C1.27832 21.4327 2.0081 20.6926 2.90853 20.6926ZM2.91573 8C3.8197 8 4.55245 8.74818 4.55245 9.67135C4.55245 10.5944 3.8197 11.3427 2.91573 11.3427C2.01187 11.3427 1.27889 10.5944 1.27889 9.67135C1.27889 8.74818 2.01187 8 2.91573 8Z" fill="#82BC23"/>
<path d="M1.24242 9.729L4.56993 9.76432L4.5865 15.8935L7.66678 12.8811L10.1237 15.1719L7.9563 17.3062L10.9854 21.3896L8.2841 23.3499L5.398 19.4921L4.55758 20.2716L4.55747 22.4406L1.24219 22.3112L1.24242 9.729Z" fill="#82BC23"/>
<path d="M8.90215 12.3319C9.82166 12.3319 10.567 13.0798 10.567 14.0025C10.567 14.9251 9.82166 15.6733 8.90215 15.6733C7.98286 15.6733 7.2373 14.9251 7.2373 14.0025C7.2373 13.0799 7.98286 12.3319 8.90215 12.3319ZM9.57489 20.6422C10.4888 20.6422 11.2297 21.3937 11.2297 22.3206C11.2297 23.2472 10.4889 23.9989 9.57489 23.9989C8.66086 23.9989 7.91988 23.2475 7.91988 22.3206C7.91988 21.3937 8.66086 20.6422 9.57489 20.6422ZM20.5653 20.6926C21.4657 20.6926 22.1954 21.4327 22.1954 22.3457C22.1954 23.2584 21.4657 23.9986 20.5653 23.9986C19.6645 23.9986 18.935 23.2584 18.935 22.3457C18.935 21.4327 19.6647 20.6926 20.5653 20.6926ZM20.5724 8C21.4762 8 22.2091 8.74818 22.2091 9.67135C22.2091 10.5944 21.4765 11.3427 20.5724 11.3427C19.6685 11.3427 18.9356 10.5944 18.9356 9.67135C18.9356 8.74818 19.6685 8 20.5724 8Z" fill="#82BC23"/>
<path d="M18.8996 9.729L22.2272 9.76432L22.2436 15.8935L25.3241 12.8811L27.7808 15.1719L25.6136 17.3062L28.6427 21.3896L25.9413 23.3499L23.0553 19.4921L22.2149 20.2716L22.2148 22.4406L18.8994 22.3112L18.8996 9.729Z" fill="#82BC23"/>
<path d="M26.5594 12.332C27.4789 12.332 28.2242 13.0799 28.2242 14.0026C28.2242 14.9252 27.4789 15.6734 26.5594 15.6734C25.6401 15.6734 24.8945 14.9252 24.8945 14.0026C24.8948 13.08 25.6402 12.332 26.5594 12.332ZM27.2322 20.6423C28.1461 20.6423 28.8869 21.3938 28.8869 22.3207C28.8869 23.2473 28.1463 23.9989 27.2322 23.9989C26.3182 23.9989 25.5772 23.2476 25.5772 22.3207C25.5771 21.3938 26.3182 20.6423 27.2322 20.6423Z" fill="#82BC23"/>
</g>
</g>
<defs>
<clipPath id="clip0_7_441">
<rect width="33" height="32" fill="white" transform="translate(0.5)"/>
</clipPath>
</defs>
</svg>
