<svg width="33" height="32" viewBox="0 0 33 32" fill="none" xmlns="http://www.w3.org/2000/svg">
<g clip-path="url(#clip0_7_429)">
<mask id="mask0_7_429" style="mask-type:luminance" maskUnits="userSpaceOnUse" x="0" y="0" width="33" height="32">
<path d="M32.5 16C32.5 7.16344 25.3366 0 16.5 0C7.66344 0 0.5 7.16344 0.5 16C0.5 24.8366 7.66344 32 16.5 32C25.3366 32 32.5 24.8366 32.5 16Z" fill="white"/>
</mask>
<g mask="url(#mask0_7_429)">
<path d="M25.5666 32H7.43337C3.60425 32 0.5 28.8958 0.5 25.0666V6.93337C0.5 3.10425 3.60425 0 7.43337 0H25.5667C29.3958 0 32.5 3.10425 32.5 6.93337V25.0667C32.5 28.8958 29.3958 32 25.5666 32Z" fill="#00B900"/>
<path d="M28.0994 14.5932C28.0994 9.37981 22.8731 5.13818 16.4485 5.13818C10.0235 5.13818 4.79785 9.37981 4.79785 14.5932C4.79785 19.2669 8.9426 23.1812 14.5416 23.9212C14.9211 24.0031 15.4374 24.1716 15.5679 24.4958C15.6854 24.7902 15.6446 25.2518 15.6054 25.5496L15.4391 26.5471C15.3882 26.8414 15.2047 27.6991 16.4482 27.1751C17.6917 26.6511 23.1582 23.2242 25.6024 20.4106C27.2908 18.5591 28.0994 16.6797 28.0994 14.5932Z" fill="black"/>
<path d="M14.0805 12.0746H13.263C13.1376 12.0746 13.0361 12.1762 13.0361 12.3012V17.3777C13.0361 17.5025 13.1378 17.6027 13.263 17.6027H14.0805C14.2059 17.6027 14.3074 17.5027 14.3074 17.3777V12.3C14.3074 12.175 14.2058 12.0734 14.0805 12.0734M19.7055 12.0746H18.8871C18.7615 12.0746 18.6603 12.1762 18.6603 12.3012V15.3172L16.3336 12.1754C16.3283 12.1674 16.3221 12.1596 16.3161 12.1525L16.3149 12.1509L16.297 12.133L16.2848 12.123C16.2829 12.1214 16.281 12.1197 16.2789 12.1185L16.2671 12.1105C16.265 12.1089 16.2626 12.108 16.2603 12.1065L16.2483 12.0996L16.241 12.0961L16.2279 12.0905L16.2206 12.088C16.2162 12.0862 16.2116 12.0847 16.2069 12.0835L16.1989 12.0814L16.1861 12.0789C16.1829 12.0781 16.1795 12.0776 16.1765 12.0776C16.1725 12.0769 16.1685 12.0764 16.1645 12.076L16.1528 12.0752C16.1499 12.0752 16.1474 12.075 16.1448 12.075H15.3276C15.2023 12.075 15.1008 12.1766 15.1008 12.3016V17.3781C15.1008 17.5029 15.2024 17.6031 15.3276 17.6031H16.1448C16.2704 17.6031 16.372 17.5031 16.372 17.3781V14.3629L18.7011 17.5087C18.7169 17.5307 18.7365 17.5497 18.759 17.5647L18.7611 17.5666L18.7753 17.5749L18.7815 17.5786C18.7851 17.5805 18.7887 17.5822 18.7924 17.5837L18.8033 17.5885L18.8099 17.591L18.8256 17.5957L18.8289 17.5965C18.8478 17.6016 18.8674 17.6041 18.887 17.604H19.7041C19.8295 17.604 19.931 17.504 19.931 17.379V12.2999C19.931 12.1749 19.8294 12.0732 19.7041 12.0732" fill="#00B900"/>
<path d="M12.1108 16.3319H9.89014V12.3001C9.89014 12.1748 9.78852 12.0733 9.66352 12.0733H8.84601C8.72064 12.0733 8.61914 12.1749 8.61914 12.3001V17.3751C8.61912 17.4337 8.64189 17.4899 8.68264 17.5319L8.68564 17.5354L8.68914 17.5386C8.73119 17.5791 8.78727 17.6018 8.84564 17.6019H12.1106C12.236 17.6019 12.3373 17.5 12.3373 17.375V16.5575C12.3373 16.4321 12.2373 16.3306 12.1106 16.3306M24.2186 13.3435C24.344 13.3435 24.4453 13.2419 24.4453 13.1166V12.2991C24.4453 12.1738 24.3453 12.0723 24.2186 12.0723H20.9536C20.8948 12.0722 20.8383 12.0952 20.7963 12.1363L20.7938 12.1388L20.7903 12.1428C20.7528 12.1833 20.7274 12.2383 20.7274 12.299V17.3756C20.7274 17.4364 20.7516 17.4916 20.7909 17.5324L20.7938 17.5356L20.797 17.5386C20.8378 17.5779 20.893 17.6021 20.9538 17.6021H24.2188C24.3441 17.6021 24.4454 17.5005 24.4454 17.3755V16.558C24.4454 16.4326 24.3454 16.3311 24.2188 16.3311H21.9999V15.473H24.2201C24.2499 15.4731 24.2794 15.4672 24.307 15.4558C24.3345 15.4445 24.3595 15.4277 24.3806 15.4067C24.4016 15.3856 24.4183 15.3605 24.4297 15.333C24.441 15.3055 24.4468 15.2759 24.4468 15.2461V14.429C24.4468 14.3036 24.3468 14.2018 24.2201 14.2018H21.9999V13.3439H24.2201L24.2186 13.3435Z" fill="#00B900"/>
</g>
</g>
<defs>
<clipPath id="clip0_7_429">
<rect width="32" height="32" fill="white" transform="translate(0.5)"/>
</clipPath>
</defs>
</svg>
