<svg width="33" height="32" viewBox="0 0 33 32" fill="none" xmlns="http://www.w3.org/2000/svg">
<g clip-path="url(#clip0_7_456)">
<path d="M32.5 16C32.5 7.16344 25.3366 0 16.5 0C7.66344 0 0.5 7.16344 0.5 16C0.5 24.8366 7.66344 32 16.5 32C25.3366 32 32.5 24.8366 32.5 16Z" fill="#0078B5"/>
<path d="M8.27862 13.0085H11.7718V24.2504H8.27862V13.0085ZM10.0266 7.42041C11.1436 7.42041 12.0505 8.32723 12.0505 9.44695C12.0505 10.5667 11.1436 11.4735 10.0266 11.4735C8.90682 11.4735 8.00001 10.5667 8.00001 9.44695C7.99738 8.32986 8.9042 7.42041 10.0266 7.42041Z" fill="black"/>
<path d="M13.9639 13.0083H17.3152V14.5433H17.3625C17.8277 13.6602 18.9658 12.7271 20.6691 12.7271C24.207 12.7271 24.8615 15.0559 24.8615 18.0812V24.2502H21.3682V18.7857C21.3682 17.4793 21.3446 15.805 19.552 15.805C17.7331 15.805 17.4545 17.2243 17.4545 18.691V24.2529H13.9639V13.0083Z" fill="black"/>
</g>
<defs>
<clipPath id="clip0_7_456">
<rect width="32" height="32" fill="white" transform="translate(0.5)"/>
</clipPath>
</defs>
</svg>
