<svg width="57" height="57" viewBox="0 0 57 57" fill="none" xmlns="http://www.w3.org/2000/svg">
<g clip-path="url(#clip0_7_453)">
<path d="M29.1242 2.44903L54.2516 34.5925C56.4199 37.3663 55.9291 41.3728 53.1553 43.5411C50.3815 45.7095 46.3751 45.2186 44.2067 42.4448L19.0793 10.3013C16.911 7.52755 17.4018 3.52111 20.1756 1.35277C22.9494 -0.815593 26.9558 -0.324772 29.1242 2.44903Z" fill="url(#paint0_linear_7_453)"/>
<path d="M26.9802 54.5515L1.85277 22.408C-0.315588 19.6342 0.17522 15.6278 2.94903 13.4595C5.72284 11.2911 9.72925 11.7819 11.8976 14.5557L37.025 46.6992C39.1934 49.473 38.7026 53.4794 35.9288 55.6478C33.1549 57.8162 29.1485 57.3253 26.9802 54.5515Z" fill="url(#paint1_linear_7_453)"/>
</g>
<defs>
<linearGradient id="paint0_linear_7_453" x1="21.4397" y1="6.06149" x2="51.5639" y2="37.6458" gradientUnits="userSpaceOnUse">
<stop stop-color="white"/>
<stop offset="1" stop-color="white" stop-opacity="0.15"/>
</linearGradient>
<linearGradient id="paint1_linear_7_453" x1="3.80627" y1="15.9809" x2="33.8889" y2="54.7285" gradientUnits="userSpaceOnUse">
<stop stop-color="white" stop-opacity="0.16"/>
<stop offset="1" stop-color="white"/>
</linearGradient>
<clipPath id="clip0_7_453">
<rect width="56" height="57" fill="white" transform="translate(0.5)"/>
</clipPath>
</defs>
</svg>
