<svg width="33" height="33" viewBox="0 0 33 33" fill="none" xmlns="http://www.w3.org/2000/svg">
<g clip-path="url(#clip0_7_460)">
<mask id="mask0_7_460" style="mask-type:luminance" maskUnits="userSpaceOnUse" x="0" y="0" width="33" height="33">
<path d="M32.5 0.5H0.5V32.5H32.5V0.5Z" fill="white"/>
</mask>
<g mask="url(#mask0_7_460)">
<path fill-rule="evenodd" clip-rule="evenodd" d="M32.4498 16.4999C32.4498 7.69711 25.303 0.550293 16.5002 0.550293C7.69742 0.550293 0.549805 7.69711 0.549805 16.4999C0.549805 25.3027 7.69662 32.4495 16.4994 32.4495C25.3022 32.4495 32.4498 25.3027 32.4498 16.4999ZM18.1013 16.5C18.1013 20.4207 14.9446 23.599 11.0507 23.599C7.1568 23.599 3.9998 20.42 3.9998 16.5C3.9998 12.58 7.15655 9.40079 11.0507 9.40079C14.9448 9.40079 18.1013 12.5794 18.1013 16.5ZM25.8361 16.5C25.8361 20.1905 24.2577 23.1834 22.3107 23.1834C20.3636 23.1834 18.7852 20.1905 18.7852 16.5C18.7852 12.8095 20.3634 9.81661 22.3104 9.81661C24.2575 9.81661 25.8361 12.8086 25.8361 16.5ZM28.9998 16.5C28.9998 19.8058 28.4447 22.4873 27.7599 22.4873C27.0751 22.4873 26.5202 19.8065 26.5202 16.5C26.5202 13.1935 27.0752 10.5128 27.7599 10.5128C28.4446 10.5128 28.9998 13.1933 28.9998 16.5Z" fill="white"/>
</g>
</g>
<defs>
<clipPath id="clip0_7_460">
<rect width="32" height="33" fill="white" transform="translate(0.5)"/>
</clipPath>
</defs>
</svg>
