<svg width="33" height="33" viewBox="0 0 33 33" fill="none" xmlns="http://www.w3.org/2000/svg">
<path d="M7.52275 25.126C7.58275 25.4366 7.3975 25.7309 7.08688 25.7962C6.79263 25.8561 6.493 25.6709 6.43313 25.3603C6.37319 25.0661 6.55844 24.7555 6.85269 24.69C7.14681 24.6247 7.45731 24.8154 7.52275 25.126Z" fill="#ED1C40"/>
<path d="M15.3196 29.0162C14.9763 29.2669 14.8837 29.7463 15.1179 30.1059C15.3686 30.4655 15.8481 30.5581 16.2076 30.3075C16.551 30.0569 16.6436 29.5775 16.3929 29.2178C16.1641 28.8637 15.6791 28.7655 15.3196 29.0162Z" fill="#ED1C40"/>
<path d="M10.6342 3.82757C10.9775 3.75132 11.1954 3.40807 11.1191 3.06476C11.0591 2.70519 10.7159 2.48719 10.3727 2.56888C10.0294 2.64519 9.81147 2.98838 9.87678 3.33169C9.9531 3.69132 10.2909 3.90919 10.6342 3.82757Z" fill="#ED1C40"/>
<path d="M4.00293 14.8826C3.45799 14.5066 2.71161 14.6483 2.33561 15.2095C1.95968 15.7544 2.10136 16.5171 2.64624 16.8932C3.19105 17.2799 3.93755 17.1438 4.31343 16.5825C4.68949 16.0159 4.54774 15.2695 4.00293 14.8826Z" fill="#ED1C40"/>
<path d="M18.8232 5.57128C19.4008 5.22803 19.5696 4.48153 19.2426 3.92035C18.8994 3.34285 18.1694 3.15753 17.6082 3.50078C17.047 3.8441 16.8618 4.59053 17.2052 5.16803C17.5319 5.72928 18.2619 5.91453 18.8232 5.57128Z" fill="#ED1C40"/>
<path d="M8.41047 8.73118C8.82997 8.43693 8.92266 7.85937 8.64472 7.43987C8.36685 7.02031 7.78935 6.92768 7.3861 7.20556C6.9666 7.49981 6.87397 8.07737 7.15185 8.49687C7.42972 8.92187 8.00179 9.01443 8.41047 8.73118Z" fill="#ED1C40"/>
<path d="M28.6955 17.2308C28.2925 17.3234 28.0253 17.7266 28.118 18.1516C28.1944 18.5548 28.6029 18.8218 29.0061 18.7291C29.4094 18.6527 29.6763 18.2442 29.5837 17.8246C29.5019 17.4217 29.0987 17.1546 28.6955 17.2308Z" fill="#ED1C40"/>
<path d="M30.8587 14.136C30.7988 13.8255 30.4992 13.6402 30.2049 13.7002C29.8943 13.7601 29.7091 14.0761 29.769 14.3867C29.829 14.681 30.1287 14.8825 30.4392 14.8226C30.7335 14.7409 30.9351 14.4466 30.8587 14.136Z" fill="#ED1C40"/>
<path d="M26.4836 10.1207C26.0151 10.4476 25.9061 11.0852 26.2166 11.5538C26.5272 12.0223 27.1646 12.1314 27.6331 11.8208C28.0854 11.4939 28.1944 10.8564 27.8839 10.3878C27.5734 9.91374 26.9357 9.7938 26.4836 10.1207Z" fill="#ED1C40"/>
<path d="M26.1405 17.7157C27.5736 20.0642 26.9632 23.1643 24.7075 24.7498C23.7595 25.42 22.6861 25.7142 21.6072 25.6816C20.9535 28.2478 17.8261 29.2012 15.8809 27.4577C15.8209 27.5068 15.7392 27.5503 15.6792 27.6157C13.5489 29.0922 10.6502 28.5638 9.17368 26.4007C8.64518 25.6216 8.37824 24.7335 8.35099 23.8454C4.78762 23.2516 3.44731 18.7237 6.11162 16.2337C4.56962 13.6783 6.14431 10.382 9.02112 9.97335C10.3887 6.36647 14.8837 4.6556 17.9349 7.02022C21.6072 5.80522 25.3612 8.62216 25.0671 12.5287C27.3065 13.2153 27.9439 16.1738 26.1405 17.7157Z" fill="#ED1C40"/>
<path d="M22.3267 21.7641C22.1578 20.6418 20.0981 21.5135 19.9783 20.2877C19.8093 18.5441 22.3593 14.7792 22.1578 13.3136C21.9725 12.0059 21.1007 11.7279 20.338 11.7117C19.6078 11.6953 19.4171 11.8208 19.172 11.9624C19.014 12.055 18.8123 12.2294 18.5345 11.946C18.1913 11.6191 17.9298 11.3086 17.4775 11.2432C16.8073 11.1342 16.5132 11.3522 16.0282 11.7717C15.843 11.9297 15.3744 12.4746 14.9385 12.2675C14.7533 12.1748 14.0995 11.8479 13.6309 11.6464C12.7428 11.2595 11.4515 11.897 10.9829 12.736C10.28 13.9838 8.91247 18.8984 8.71085 19.5522C8.24222 21.0015 9.30472 22.2002 10.7213 22.1185C11.3262 22.0859 11.7185 21.8678 12.1053 21.1704C12.3232 20.7673 14.3773 15.3024 14.5354 15.0354C14.6443 14.8501 15.0202 14.5994 15.3308 14.7575C15.6414 14.9264 15.7068 15.2697 15.6577 15.5803C15.5978 16.1088 14.1322 19.4433 14.0831 19.8138C13.8978 21.0616 15.5488 21.263 16.1863 20.0316C16.3878 19.6449 18.6762 14.9863 18.8777 14.6758C19.112 14.3325 19.281 14.2235 19.5152 14.2399C19.6841 14.2399 19.9675 14.2889 19.9021 14.8338C19.8258 15.3459 17.9896 18.7731 17.7826 19.6121C17.532 20.7345 18.1422 21.8678 19.1392 22.3691C19.7604 22.6796 22.5445 23.2245 22.3267 21.7641Z" fill="black"/>
<path d="M22.6373 26.7934C22.0761 27.1966 21.9344 27.9922 22.3267 28.5697C22.7134 29.1472 23.4927 29.2833 24.0703 28.8965C24.6478 28.4933 24.7839 27.6978 24.3971 27.1203C23.9939 26.5427 23.2148 26.3848 22.6373 26.7934Z" fill="#ED1C40"/>
</svg>
