<svg width="33" height="32" viewBox="0 0 33 32" fill="none" xmlns="http://www.w3.org/2000/svg">
<g clip-path="url(#clip0_7_479)">
<path d="M32.5 16C32.5 7.16344 25.3366 0 16.5 0C7.66344 0 0.5 7.16344 0.5 16C0.5 24.8366 7.66344 32 16.5 32C25.3366 32 32.5 24.8366 32.5 16Z" fill="black"/>
<path fill-rule="evenodd" clip-rule="evenodd" d="M16.5 3.8125C9.45837 3.8125 4 8.9705 4 15.9375C4 19.5817 5.4935 22.7307 7.9257 24.9058C8.12988 25.0885 8.25312 25.3445 8.2615 25.6185L8.32958 27.842C8.35133 28.5512 9.08393 29.0128 9.73293 28.7262L12.214 27.631C12.4243 27.5382 12.66 27.521 12.8816 27.582C14.0218 27.8955 15.2352 28.0625 16.5 28.0625C23.5416 28.0625 29 22.9045 29 15.9375C29 8.9705 23.5416 3.8125 16.5 3.8125Z" fill="url(#paint0_radial_7_479)"/>
<path fill-rule="evenodd" clip-rule="evenodd" d="M8.99396 19.4834L12.6658 13.6579C13.2499 12.7311 14.5007 12.5004 15.377 13.1576L18.2975 15.3479C18.5654 15.5489 18.9341 15.5479 19.2009 15.3454L23.1451 12.352C23.6715 11.9525 24.3587 12.5825 24.0064 13.1416L20.3345 18.9671C19.7504 19.8938 18.4997 20.1246 17.6233 19.4673L14.7028 17.2769C14.4349 17.076 14.0662 17.0771 13.7994 17.2796L9.85521 20.2729C9.32879 20.6724 8.64159 20.0424 8.99396 19.4834Z" fill="black"/>
</g>
<defs>
<radialGradient id="paint0_radial_7_479" cx="0" cy="0" r="1" gradientUnits="userSpaceOnUse" gradientTransform="translate(8.81186 28.6788) scale(27.2399 27.2398)">
<stop stop-color="#0099FF"/>
<stop offset="0.609754" stop-color="#A033FF"/>
<stop offset="0.934823" stop-color="#FF5280"/>
<stop offset="1" stop-color="#FF7061"/>
</radialGradient>
<clipPath id="clip0_7_479">
<rect width="32" height="32" fill="white" transform="translate(0.5)"/>
</clipPath>
</defs>
</svg>
