<svg width="33" height="33" viewBox="0 0 33 33" fill="none" xmlns="http://www.w3.org/2000/svg">
<g clip-path="url(#clip0_7_483)">
<mask id="mask0_7_483" style="mask-type:luminance" maskUnits="userSpaceOnUse" x="0" y="0" width="33" height="33">
<path d="M32.5 16.5C32.5 7.66344 25.3366 0.5 16.5 0.5C7.66344 0.5 0.5 7.66344 0.5 16.5C0.5 25.3366 7.66344 32.5 16.5 32.5C25.3366 32.5 32.5 25.3366 32.5 16.5Z" fill="white"/>
</mask>
<g mask="url(#mask0_7_483)">
<path d="M7.43223 0.5H25.5678C29.3938 0.5 32.5 3.60625 32.5 7.43223V25.5678C32.5 29.3938 29.3938 32.5 25.5678 32.5H7.43223C3.60625 32.5 0.5 29.3938 0.5 25.5678V7.43223C0.5 3.60625 3.60625 0.5 7.43223 0.5Z" fill="#FFD02F"/>
<path d="M21.4034 7.5H18.6227L20.9387 11.5698L15.842 7.5H13.0613L15.6097 12.4767L10.2807 7.5H7.5L10.2807 13.8333L7.5 26.5H10.2807L15.6097 12.9264L13.0613 26.5H15.842L20.9387 12.027L18.6227 26.5H21.4034L26.5 10.6629L21.4034 7.5Z" fill="#050038"/>
</g>
</g>
<defs>
<clipPath id="clip0_7_483">
<rect width="32" height="33" fill="white" transform="translate(0.5)"/>
</clipPath>
</defs>
</svg>
