<svg width="33" height="32" viewBox="0 0 33 32" fill="none" xmlns="http://www.w3.org/2000/svg">
<g clip-path="url(#clip0_7_490)">
<path fill-rule="evenodd" clip-rule="evenodd" d="M16.5003 31.111C9.55858 31.111 3.82812 25.6739 3.38515 18.8393C1.72044 18.2382 0.5 16.3507 0.5 14.1267C0.5 11.9152 1.70672 10.0375 3.35706 9.42399V4.1672L5.55359 5.83584C8.1062 2.59069 12.0674 0.5 16.5003 0.5C20.9332 0.5 24.8945 2.59069 27.4471 5.83584L29.6436 4.1672V9.42399C31.2939 10.0375 32.5 11.9152 32.5 14.1267C32.5 16.3507 31.2796 18.2382 29.6148 18.8393C29.1719 25.6732 23.4421 31.111 16.5003 31.111Z" fill="#565473"/>
<path fill-rule="evenodd" clip-rule="evenodd" d="M16.4993 4.8655C13.3829 4.8655 10.5826 5.8932 8.32797 7.71929L7.72559 7.24823C9.80844 4.70673 12.97 3.08057 16.4993 3.08057C20.028 3.08057 23.1902 4.70673 25.273 7.24823L24.6706 7.71929C22.4153 5.89385 19.6157 4.8655 16.4993 4.8655Z" fill="black"/>
<path fill-rule="evenodd" clip-rule="evenodd" d="M16.4992 28.3313C11.3371 28.3313 7.03751 24.5158 6.27637 19.5608V8.84798L8.94657 10.9361C10.8367 8.91397 13.5239 7.64648 16.4992 7.64648C19.4739 7.64648 22.1617 8.91397 24.0512 10.9361L26.7214 8.84798V19.5608C25.9609 24.5158 21.6612 28.3313 16.4992 28.3313ZM16.4992 27.5198C15.3964 27.5198 14.2994 27.1768 13.5167 26.711C13.0215 26.415 12.8797 26.1315 12.8954 25.9838C12.9156 25.7911 13.3619 25.7708 13.6637 25.8342C15.3264 26.185 17.6739 26.185 19.334 25.8342C19.6359 25.7702 20.0828 25.7911 20.1024 25.9838C20.1181 26.1321 19.9763 26.415 19.4804 26.711C18.699 27.1762 17.602 27.5198 16.4992 27.5198ZM19.0975 23.5932C18.5624 24.3269 17.4799 24.7608 16.4201 24.7738C15.3232 24.7875 14.2497 24.3537 13.8277 23.5259C13.699 23.2731 13.8048 23.3548 14.0577 23.3548C14.858 23.4096 15.6512 23.4724 16.4816 23.4724C17.312 23.4724 18.1397 23.3933 18.9061 23.3548C19.2276 23.3548 19.3321 23.2718 19.0975 23.5932Z" fill="black"/>
<path fill-rule="evenodd" clip-rule="evenodd" d="M16.897 21.6559H22.3563L24.1204 18.5996H18.661L16.897 21.6559ZM16.1058 21.6559H10.6459L8.88184 18.5996H14.3412L16.1058 21.6559Z" fill="#7A9172"/>
</g>
<defs>
<clipPath id="clip0_7_490">
<rect width="32" height="32" fill="white" transform="translate(0.5)"/>
</clipPath>
</defs>
</svg>
