<svg width="33" height="33" viewBox="0 0 33 33" fill="none" xmlns="http://www.w3.org/2000/svg">
<mask id="mask0_7_495" style="mask-type:luminance" maskUnits="userSpaceOnUse" x="1" y="0" width="31" height="33">
<path d="M31.5672 0.5H1.5V32.5H31.5672V0.5Z" fill="white"/>
</mask>
<g mask="url(#mask0_7_495)">
<path d="M12.2438 1.50495C7.34695 1.86728 3.1841 2.20051 2.98837 2.23953C2.4396 2.33739 1.94038 2.70964 1.70563 3.19957L1.5 3.63066L1.51982 13.9049L1.54893 24.1792L1.86234 24.8159C2.03886 25.1684 3.23365 26.8141 4.5362 28.5081C7.11221 31.8478 7.29802 32.0342 8.27726 32.1321C8.56156 32.1612 10.6966 32.0633 13.0081 31.9264C15.3295 31.7796 19.0508 31.5542 21.2842 31.4272C30.8233 30.8481 30.3334 30.897 30.8815 30.4269C31.5672 29.8589 31.5183 30.7893 31.5474 18.3019C31.5672 7.71424 31.5573 7.01929 31.4006 6.69597C31.2148 6.33364 30.8815 6.07907 26.5329 3.02305C23.6243 0.985905 23.4186 0.878133 22.1155 0.858313C21.5772 0.839112 17.1307 1.1327 12.2438 1.50495ZM23.252 2.84652C23.6633 3.03234 26.6704 5.12832 27.1108 5.5303C27.2284 5.64798 27.2675 5.74584 27.2086 5.80469C27.0717 5.92237 8.46245 7.0292 7.92421 6.95054C7.67956 6.91152 7.31722 6.76472 7.11159 6.62722C6.25932 6.04934 4.14413 4.31569 4.14413 4.18872C4.14413 3.85549 4.07538 3.85549 12.3714 3.25841C13.9582 3.15064 16.5633 2.95492 18.1502 2.82732C21.5871 2.55294 22.6159 2.56285 23.252 2.84652ZM29.1677 8.20416C29.3046 8.34105 29.4223 8.60552 29.4613 8.86009C29.4904 9.09545 29.5102 13.4831 29.4904 18.5955C29.4613 27.3709 29.4514 27.9197 29.2848 28.1742C29.1869 28.3309 28.9912 28.4975 28.8438 28.5465C28.4331 28.7131 8.93318 29.8199 8.53183 29.7022C8.34601 29.6533 8.09083 29.4966 7.95394 29.3597L7.71858 29.1052L7.68947 19.6441C7.66965 13.0037 7.68947 10.0654 7.76813 9.80093C7.82697 9.6052 7.97376 9.36984 8.10136 9.2918C8.27788 9.17411 9.43364 9.07625 13.4101 8.84151C16.2016 8.6848 20.5206 8.42033 22.9987 8.27354C28.8933 7.91058 28.8741 7.91058 29.1677 8.20416Z" fill="white"/>
<path d="M23.928 11.4461C22.8701 11.5148 21.9298 11.6127 21.8221 11.6715C21.4988 11.8381 21.303 12.1125 21.264 12.4259C21.2349 12.7493 21.3328 12.7883 22.39 12.9159L22.8502 12.9747V17.1568C22.8502 19.6442 22.8112 21.2899 22.7623 21.241C22.7134 21.1821 21.3229 19.0669 19.6673 16.5399C18.0123 14.0035 16.641 11.9168 16.6211 11.8976C16.6013 11.8778 15.5242 11.9366 14.2316 12.0252C12.6447 12.133 11.7732 12.2308 11.5967 12.3287C11.3124 12.4755 10.999 12.9945 10.999 13.3377C10.999 13.5433 11.3713 13.6511 12.1548 13.6511H12.5661V25.6782L11.9002 25.8838C11.3812 26.0405 11.2047 26.1384 11.1167 26.3341C10.96 26.6674 10.9699 26.9708 11.1266 26.9708C11.1855 26.9708 12.2923 26.9021 13.5651 26.8241C16.0823 26.6773 16.366 26.6085 16.6304 26.0895C16.7091 25.9328 16.7772 25.7662 16.7772 25.7172C16.7772 25.6782 16.4347 25.5605 16.0228 25.4627C15.6016 25.3648 15.1805 25.2669 15.0925 25.2471C14.9259 25.1982 14.916 24.8947 14.916 20.6829V16.1676L17.8933 20.8396C21.0175 25.7364 21.4096 26.2951 21.8896 26.5398C22.4873 26.8532 24.0054 26.6376 24.7691 26.1384L25.0045 25.9916L25.0243 19.3122L25.0534 12.6229L25.5724 12.525C26.1893 12.4074 26.4736 12.1237 26.4736 11.6338C26.4736 11.3203 26.4538 11.3005 26.1602 11.3104C25.9849 11.3185 24.976 11.3773 23.928 11.4461Z" fill="white"/>
</g>
</svg>
