<svg width="41" height="32" viewBox="0 0 41 32" fill="none" xmlns="http://www.w3.org/2000/svg">
<mask id="mask0_7_502" style="mask-type:luminance" maskUnits="userSpaceOnUse" x="0" y="6" width="41" height="20">
<path d="M40.5 6.5H0.5V25.524H40.5V6.5Z" fill="white"/>
</mask>
<g mask="url(#mask0_7_502)">
<path d="M17.2263 12.2305L23.1798 15.7956L26.7272 14.3024C27.4483 13.991 28.2255 13.8308 29.011 13.8318C29.1421 13.8318 29.2715 13.838 29.4 13.846C28.9737 12.1828 28.0734 10.6793 26.8086 9.51824C25.5437 8.35714 23.9689 7.58846 22.2754 7.30564C20.5819 7.02281 18.8427 7.23801 17.2692 7.92509C15.6958 8.61217 14.3558 9.74153 13.4121 11.1759L13.5025 11.1732C14.8181 11.1715 16.1079 11.5377 17.2263 12.2305Z" fill="#0364B8"/>
<path d="M17.2274 12.2297C16.1087 11.5371 14.8185 11.1712 13.5027 11.1733L13.4123 11.176C12.1247 11.1921 10.8658 11.5588 9.77085 12.2366C8.67592 12.9143 7.78636 13.8777 7.19774 15.023C6.60913 16.1683 6.3437 17.4524 6.42999 18.7373C6.51628 20.0221 6.95102 21.2592 7.68751 22.3155L12.9356 20.1062L15.2698 19.1243L20.4656 16.9372L23.1791 15.7958L17.2274 12.2297Z" fill="#0078D4"/>
<path d="M29.3999 13.8462C29.2704 13.8372 29.1407 13.8324 29.0109 13.832C28.2257 13.8314 27.4487 13.9919 26.728 14.3035L23.1797 15.7958L24.2086 16.4118L27.5805 18.4314L29.0516 19.3123L34.0826 22.3253C34.5397 21.4768 34.7766 20.5271 34.7716 19.5633C34.7665 18.5995 34.5197 17.6524 34.0538 16.8087C33.5879 15.9649 32.9176 15.2516 32.1046 14.7341C31.2915 14.2165 30.3615 13.9112 29.3999 13.8462Z" fill="#1490DF"/>
<path d="M29.0518 19.3123L27.5807 18.4315L24.2087 16.4109L23.1807 15.7959L20.4663 16.9373L15.2705 19.1245L12.9354 20.1064L7.68555 22.3157C8.33808 23.2537 9.20798 24.0199 10.2209 24.5488C11.2339 25.0777 12.3598 25.3535 13.5025 25.3527H29.011C30.0509 25.353 31.0716 25.0718 31.9645 24.5388C32.8575 24.0058 33.5895 23.2409 34.0827 22.3254L29.0518 19.3123Z" fill="#28A8EA"/>
</g>
</svg>
