<svg width="24" height="23" viewBox="0 0 24 23" fill="none" xmlns="http://www.w3.org/2000/svg">
<path d="M20.3288 11.8833C20.0977 11.8833 19.8761 11.9751 19.7127 12.1385C19.5494 12.3019 19.4576 12.5235 19.4576 12.7545V18.853C19.4576 19.3344 19.0677 19.7242 18.5864 19.7242H4.64696C4.16562 19.7242 3.77575 19.3344 3.77575 18.853V4.91364C3.77575 4.43229 4.16562 4.04243 4.64696 4.04243H10.7454C10.9765 4.04243 11.1981 3.95064 11.3615 3.78726C11.5249 3.62387 11.6167 3.40228 11.6167 3.17122C11.6167 2.94016 11.5249 2.71856 11.3615 2.55518C11.1981 2.39179 10.9765 2.3 10.7454 2.3H4.64696C3.20358 2.3 2.03333 3.47026 2.03333 4.91364V18.853C2.03333 20.2964 3.20358 21.4667 4.64696 21.4667H18.5864C20.0297 21.4667 21.2 20.2964 21.2 18.853V12.7545C21.2 12.5235 21.1082 12.3019 20.9448 12.1385C20.7814 11.9751 20.5598 11.8833 20.3288 11.8833ZM21.2 3.17122V8.39849C21.2 8.62955 21.1082 8.85114 20.9448 9.01453C20.7814 9.17791 20.5598 9.2697 20.3288 9.2697C20.0977 9.2697 19.8761 9.17791 19.7127 9.01453C19.5494 8.85114 19.4576 8.62955 19.4576 8.39849V5.27432L12.3199 12.4117C12.1554 12.5692 11.9357 12.656 11.708 12.6535C11.4802 12.6509 11.2625 12.5594 11.1015 12.3983C10.9405 12.2372 10.8489 12.0195 10.8464 11.7918C10.844 11.564 10.9308 11.3444 11.0883 11.1798L18.2255 4.04243H15.1015C14.8704 4.04243 14.6489 3.95064 14.4855 3.78726C14.3221 3.62387 14.2303 3.40228 14.2303 3.17122C14.2303 2.94016 14.3221 2.71856 14.4855 2.55518C14.6489 2.39179 14.8704 2.3 15.1015 2.3H20.3288C20.5598 2.3 20.7814 2.39179 20.9448 2.55518C21.1082 2.71856 21.2 2.94016 21.2 3.17122Z" fill="white"/>
</svg>
