<svg width="33" height="32" viewBox="0 0 33 32" fill="none" xmlns="http://www.w3.org/2000/svg">
<g clip-path="url(#clip0_7_513)">
<path d="M32.5 16C32.5 7.16344 25.3366 0 16.5 0C7.66344 0 0.5 7.16344 0.5 16C0.5 24.8366 7.66344 32 16.5 32C25.3366 32 32.5 24.8366 32.5 16Z" fill="black"/>
<path d="M21.188 9.875H14.6251C14.1291 9.875 13.5002 10.0895 13.3199 11.1115C13.2977 11.2358 11.126 25.3071 11.126 25.625C11.126 26.124 11.502 26.5 12.0005 26.5H16.8135C17.0275 26.5 17.21 26.3453 17.245 26.1343L18.0589 21.25H19.438C23.056 21.25 25.9997 18.3063 25.9997 14.6875C25.9997 12.0339 23.8412 9.875 21.188 9.875Z" fill="#009ADA"/>
<path d="M19.3962 5.5H10.6887C10.0821 5.5 9.57192 5.97382 9.38906 6.70697C9.363 6.8125 6.75167 22.4903 6.75081 23.0765C6.74782 23.2444 6.74355 23.4742 6.92812 23.6622C7.11184 23.8494 7.37246 23.875 7.62667 23.875H11.3723L12.3007 17.75H16.8137C20.9215 17.75 24.2618 14.4022 24.2503 10.2914C24.2429 7.63637 22.0512 5.5 19.3962 5.5Z" fill="#273691"/>
<path opacity="0.2" d="M12.3008 17.75H16.8138C20.6981 17.75 23.8919 14.7554 24.2186 10.9539C23.3907 10.2804 22.3363 9.875 21.1884 9.875H14.6254C14.1294 9.875 13.5005 10.0895 13.3202 11.1115L12.3008 17.75Z" fill="white"/>
</g>
<defs>
<clipPath id="clip0_7_513">
<rect width="32" height="32" fill="white" transform="translate(0.5)"/>
</clipPath>
</defs>
</svg>
