<svg width="43" height="43" viewBox="0 0 43 43" fill="none" xmlns="http://www.w3.org/2000/svg">
<circle cx="21.5" cy="21.5" r="21.5" fill="#191C1B"/>
<path d="M13.0008 17.2441C13.0008 17.9558 13.2617 18.738 13.5933 19.568C13.9248 20.398 14.352 21.1802 14.6843 21.7727C15.5856 23.3379 16.7472 24.8788 18.0749 26.1587C19.4026 27.4387 20.9678 28.5061 22.7219 29.1465C23.7416 29.5493 24.7612 30 25.8993 30C26.4683 30 27.2748 29.7868 28.0092 29.478C28.7208 29.17 29.3604 28.6958 29.5979 28.1268C29.6927 27.9136 29.8111 27.6291 29.8824 27.2968C29.9537 26.9888 30.0008 26.68 30.0008 26.4668C30.0008 26.3484 30.0008 26.2293 29.9772 26.2058C29.9059 26.0632 29.7398 25.9448 29.5501 25.8264C29.123 25.6132 29.0524 25.5419 28.4121 25.1626C27.7482 24.7832 27.0608 24.3561 26.4675 24.0481C26.183 23.8819 25.9933 23.8106 25.922 23.8106C25.5427 23.8106 25.0685 24.3326 24.6656 24.9016C24.2385 25.4706 23.7643 25.9926 23.4328 25.9926C23.2666 25.9926 23.1005 25.9213 22.9108 25.8029C22.7211 25.6846 22.5314 25.5897 22.4131 25.5184C20.3267 24.3326 18.9277 22.9343 17.7426 20.8714C17.5999 20.634 17.2684 20.1363 17.2684 19.8753C17.2684 19.5672 17.6955 19.2114 18.1219 18.8321C18.5248 18.4762 18.9519 18.0498 18.9519 17.5279C18.9519 17.4566 18.9041 17.2434 18.8093 16.9353C18.5961 16.3185 18.3116 15.6076 18.0741 14.9202C17.9558 14.5879 17.8609 14.3512 17.8367 14.2329C17.7889 14.1616 17.7653 14.0667 17.7418 13.9484C17.7183 13.83 17.6705 13.7352 17.647 13.6403C17.5757 13.4271 17.4573 13.261 17.339 13.1662C17.2206 13.1184 16.9361 13.0478 16.6516 13.0235C16.3671 13.0235 16.0348 13 15.8929 13C15.8216 13 15.7267 13 15.6319 13.0235H15.3239C14.5652 13.3558 14.0197 14.0197 13.6168 14.8019C13.2375 15.5841 13 16.4619 13 17.2441H13.0008Z" fill="white"/>
</svg>
