<svg width="33" height="32" viewBox="0 0 33 32" fill="none" xmlns="http://www.w3.org/2000/svg">
<path d="M16.4777 1.2002C8.29996 1.2002 1.67773 7.82242 1.67773 16.0002C1.67773 22.2669 5.56662 27.6224 11.0777 29.778C10.9444 28.6002 10.8333 26.8224 11.1222 25.5335C11.3888 24.378 12.8555 18.178 12.8555 18.178C12.8555 18.178 12.4111 17.2891 12.4111 15.978C12.4111 13.9113 13.6111 12.378 15.0777 12.378C16.3444 12.378 16.9444 13.3335 16.9444 14.4669C16.9444 15.7335 16.1444 17.6446 15.7222 19.4002C15.3666 20.8669 16.4555 22.0669 17.9222 22.0669C20.5444 22.0669 22.5666 19.2891 22.5666 15.2891C22.5666 11.7558 20.0111 9.26686 16.3888 9.26686C12.1888 9.26686 9.69996 12.4224 9.69996 15.6891C9.69996 16.9558 10.1888 18.3335 10.8111 19.0669C10.9222 19.2224 10.9444 19.3335 10.9222 19.4891C10.8111 19.9557 10.5666 20.9557 10.5222 21.1558C10.4555 21.4224 10.3 21.4891 10.0333 21.3558C8.18885 20.4891 7.03329 17.8002 7.03329 15.6224C7.03329 10.9558 10.4333 6.66686 16.8111 6.66686C21.9444 6.66686 25.9222 10.3335 25.9222 15.2002C25.9222 20.2891 22.7 24.4002 18.2555 24.4002C16.7666 24.4002 15.3444 23.6224 14.8555 22.7113C14.8555 22.7113 14.1222 25.5335 13.9444 26.2224C13.6111 27.5113 12.7 29.1113 12.1 30.1113C13.4777 30.5335 14.9444 30.778 16.4777 30.778C24.6555 30.778 31.2777 24.1558 31.2777 15.978C31.2777 7.82242 24.6555 1.2002 16.4777 1.2002Z" fill="#BD081C"/>
</svg>
