<svg width="33" height="32" viewBox="0 0 33 32" fill="none" xmlns="http://www.w3.org/2000/svg">
<g clip-path="url(#clip0_7_522)">
<path d="M1.14767 22.0695C-0.051634 22.869 0.348133 24.3881 2.90664 25.1077C5.5451 25.9872 8.42342 26.227 11.2218 25.7473C11.3817 25.7473 11.5416 25.6674 11.6216 25.6674V22.9489L8.90314 23.8284C7.86375 24.1482 6.82435 24.2282 5.78496 23.9883C4.98543 23.7485 5.14533 23.2688 6.10477 22.869L11.6216 20.9501V17.9918L3.94603 20.6303C2.98659 20.9501 2.02715 21.4298 1.14767 22.0695ZM19.6968 10.0765V17.8319C22.9749 19.431 25.5334 17.8319 25.5334 13.6744C25.5334 9.43683 24.0143 7.51795 19.6169 5.99883C17.2982 5.1993 14.8996 4.47972 12.501 4V27.1065L18.0978 28.7855V9.35688C18.0978 8.47739 18.0978 7.83776 18.7374 8.07762C19.6169 8.31748 19.6968 9.19697 19.6968 10.0765ZM30.0908 20.2305C27.7721 19.431 25.2936 19.1112 22.895 19.351C21.6157 19.431 20.4164 19.7508 19.2971 20.1506L19.0572 20.2305V23.3487L24.2542 21.4298C25.2936 21.11 26.333 21.0301 27.3724 21.2699C28.1719 21.5098 28.012 21.9895 27.0526 22.3893L19.0572 25.3475V28.3858L30.0908 24.3082C30.8903 23.9883 31.6099 23.5886 32.2495 22.9489C32.8092 22.1494 32.5693 21.0301 30.0908 20.2305Z" fill="white"/>
</g>
<defs>
<clipPath id="clip0_7_522">
<rect width="32" height="32" fill="white" transform="translate(0.5)"/>
</clipPath>
</defs>
</svg>
