<svg width="33" height="33" viewBox="0 0 33 33" fill="none" xmlns="http://www.w3.org/2000/svg">
<g clip-path="url(#clip0_7_524)">
<mask id="mask0_7_524" style="mask-type:luminance" maskUnits="userSpaceOnUse" x="0" y="0" width="33" height="33">
<path d="M32.4981 16.4991C32.4981 7.66304 25.3351 0.5 16.4991 0.5C7.66302 0.5 0.5 7.66304 0.5 16.4991V16.5009C0.5 25.337 7.66302 32.5 16.4991 32.5C25.3351 32.5 32.4981 25.337 32.4981 16.5009V16.4991Z" fill="white"/>
</mask>
<g mask="url(#mask0_7_524)">
<path fill-rule="evenodd" clip-rule="evenodd" d="M30.9148 2.25635C31.6355 3.20874 31.9603 4.78746 32.1202 6.70673C32.3317 9.57085 32.4167 13.0078 32.4979 16.5593C32.3928 20.1769 32.35 23.8253 32.1202 26.4118C31.9389 28.3972 31.5537 29.7266 30.9104 30.533C30.092 31.3381 28.5221 32.0179 26.2837 32.1791C23.5612 32.4114 20.2024 32.4088 16.4966 32.5001C12.3773 32.4296 9.58374 32.4598 6.6529 32.1803C4.36665 32.0217 2.87102 31.3501 1.95072 30.5393C1.269 29.624 1.06946 28.6509 0.880615 26.3697C0.644562 23.7353 0.592315 20.1655 0.50293 16.5788C0.637008 13.0109 0.645191 9.41474 0.882503 6.72688C1.04176 4.60618 1.29292 3.18041 1.93687 2.27397C2.84017 1.50412 4.38113 1.1214 6.67997 0.932559C9.82735 0.564316 13.1044 0.491926 16.4922 0.500109C19.9789 0.505775 23.3258 0.605232 26.312 0.899197C28.3264 1.06034 29.9932 1.40718 30.9116 2.25635H30.9148Z" fill="#B92B27"/>
<path d="M20.5282 22.3579C21.7501 21.5885 22.7563 20.5211 23.4524 19.256C24.1485 17.991 24.5117 16.5698 24.5078 15.1258C24.5078 10.4318 20.7536 6.62793 16.1219 6.62793C11.4902 6.62793 7.7373 10.4337 7.7373 15.1258C7.7373 19.818 11.4909 23.6238 16.1219 23.6238C16.788 23.6236 17.4517 23.5428 18.0985 23.3833C18.8948 24.8311 20.1071 25.8565 22.681 25.3661V23.9278C22.681 23.9278 21.0318 23.513 20.5282 22.3579ZM20.4697 16.252C20.4697 17.6714 20.0184 18.9587 19.2844 19.9105C18.7522 19.3371 18.0997 18.8887 17.3736 18.5973C16.6476 18.306 15.8661 18.179 15.0852 18.2254V19.896C15.0852 19.896 16.3284 19.9451 17.1801 21.4067C16.8576 21.5023 16.5231 21.5511 16.1867 21.5515C13.8212 21.5515 11.9063 19.1784 11.9063 16.2501V14.0595C11.9063 11.1318 13.8231 8.75807 16.1867 8.75807C18.5504 8.75807 20.4672 11.1318 20.4672 14.0595V16.2482L20.4697 16.252Z" fill="black"/>
</g>
</g>
<defs>
<clipPath id="clip0_7_524">
<rect width="32" height="33" fill="white" transform="translate(0.5)"/>
</clipPath>
</defs>
</svg>
