<svg width="33" height="32" viewBox="0 0 33 32" fill="none" xmlns="http://www.w3.org/2000/svg">
<g clip-path="url(#clip0_7_531)">
<path d="M32.5 16C32.5 7.16344 25.3366 0 16.5 0C7.66344 0 0.5 7.16344 0.5 16C0.5 24.8366 7.66344 32 16.5 32C25.3366 32 32.5 24.8366 32.5 16Z" fill="#FF4500"/>
<path d="M20.167 19.3346C19.2485 19.3346 18.4998 18.5858 18.4998 17.6674C18.4998 16.749 19.2485 16.0002 20.167 16.0002C21.0854 16.0002 21.8342 16.749 21.8342 17.6674C21.8342 18.5858 21.0854 19.3346 20.167 19.3346ZM20.4614 22.0706C19.3222 23.2066 17.143 23.2962 16.503 23.2962C15.863 23.2962 13.6806 23.2066 12.5445 22.0706C12.3749 21.901 12.3749 21.629 12.5445 21.4594C12.7141 21.2898 12.9862 21.2898 13.1558 21.4594C13.8726 22.1762 15.4054 22.4322 16.503 22.4322C17.5974 22.4322 19.1334 22.1762 19.8502 21.4594C20.0198 21.2898 20.2917 21.2898 20.4614 21.4594C20.6278 21.629 20.6278 21.901 20.4614 22.0706ZM11.1653 17.6674C11.1653 16.749 11.9142 16.0002 12.8326 16.0002C13.751 16.0002 14.4998 16.749 14.4998 17.6674C14.4998 18.5858 13.751 19.3346 12.8326 19.3346C11.9142 19.3346 11.1653 18.5858 11.1653 17.6674ZM27.1653 16.0002C27.1653 14.7106 26.1222 13.6674 24.8326 13.6674C24.2022 13.6674 23.6326 13.917 23.2134 14.3234C21.6198 13.1714 19.4214 12.429 16.9734 12.3426L18.0358 7.34101L21.5078 8.08021C21.5494 8.96341 22.2726 9.66741 23.1653 9.66741C24.087 9.66741 24.8326 8.92181 24.8326 8.00021C24.8326 7.07861 24.087 6.33301 23.1653 6.33301C22.5093 6.33301 21.9494 6.71381 21.6774 7.26421L17.799 6.43861C17.6901 6.41621 17.5781 6.43541 17.4854 6.49621C17.3926 6.55701 17.3286 6.64981 17.3062 6.75861L16.1413 12.2466C16.1349 12.2786 16.1413 12.3074 16.1413 12.3394C13.6486 12.4034 11.4085 13.149 9.78935 14.317C9.37015 13.9138 8.80375 13.6674 8.17655 13.6674C6.88695 13.6674 5.84375 14.7138 5.84375 16.0002C5.84375 16.9474 6.41015 17.7634 7.22295 18.1282C7.18775 18.3586 7.16855 18.5954 7.16855 18.8354C7.16855 22.4258 11.3478 25.3346 16.503 25.3346C21.6582 25.3346 25.8374 22.4258 25.8374 18.8354C25.8374 18.5986 25.8181 18.365 25.7829 18.1346C26.5926 17.7698 27.1653 16.9538 27.1653 16.0002Z" fill="black"/>
</g>
<defs>
<clipPath id="clip0_7_531">
<rect width="32" height="32" fill="white" transform="translate(0.5)"/>
</clipPath>
</defs>
</svg>
