<svg width="34" height="33" viewBox="0 0 34 33" fill="none" xmlns="http://www.w3.org/2000/svg">
<path d="M17.0672 4.1665C14.8314 4.1665 12.1399 4.492 10.7211 4.68817C10.1342 4.76917 9.68341 5.23717 9.60991 5.82484L7.09024 25.9827C6.89791 27.5215 8.05574 28.928 9.60574 28.876C10.9237 28.8318 12.0629 28.6765 13.0951 28.3562C13.9366 28.095 14.4717 27.3112 14.5907 26.4382L15.4006 20.4998L17.7657 27.0698C18.1466 28.1278 19.1521 28.852 20.2746 28.7848C21.9826 28.683 23.2929 28.4025 24.9059 27.7882C25.6897 27.4897 25.9499 26.5285 25.5177 25.8097C23.8752 23.0778 23.2614 20.7025 22.4006 17.8332C22.4006 17.8332 26.0672 15.4998 26.0672 11.4998C26.0672 5.49984 21.0672 4.1665 17.0672 4.1665Z" stroke="white" stroke-width="2" stroke-linejoin="round"/>
<path d="M14.8892 15.0314L15.6164 9.6981C15.684 9.20243 16.108 8.8256 16.6064 8.86743C19.2577 9.0896 20.128 10.3834 19.901 12.4998C19.7107 14.2756 18.6757 15.7888 15.8794 16.1056C15.2772 16.1738 14.8072 15.6319 14.8892 15.0314Z" fill="white"/>
</svg>
