<svg width="29" height="28" viewBox="0 0 29 28" fill="none" xmlns="http://www.w3.org/2000/svg">
<path d="M11 7L14.5 3.5M14.5 3.5L18 7M14.5 3.5V15.1667M8.66696 11.6667C7.57976 11.6667 7.03617 11.6667 6.60736 11.8442C6.03563 12.0811 5.58112 12.5356 5.3443 13.1074C5.16669 13.5361 5.16669 14.0794 5.16669 15.1667V20.7667C5.16669 22.0734 5.16669 22.7264 5.42101 23.2255C5.64471 23.6645 6.0014 24.0222 6.44045 24.2459C6.93909 24.5 7.59218 24.5 8.89642 24.5H20.1042C21.4084 24.5 22.0606 24.5 22.5592 24.2459C22.9983 24.0222 23.3556 23.6645 23.5793 23.2255C23.8334 22.7269 23.8334 22.0745 23.8334 20.7703V15.1667C23.8334 14.0794 23.8332 13.5361 23.6557 13.1074C23.4188 12.5356 22.9647 12.0811 22.393 11.8442C21.9641 11.6667 21.4206 11.6667 20.3334 11.6667" stroke="white" stroke-width="2" stroke-linecap="round" stroke-linejoin="round"/>
</svg>
