<svg width="33" height="33" viewBox="0 0 33 33" fill="none" xmlns="http://www.w3.org/2000/svg">
<mask id="mask0_7_541" style="mask-type:luminance" maskUnits="userSpaceOnUse" x="2" y="0" width="29" height="33">
<path d="M30.625 0.5H2.56738V32.5H30.625V0.5Z" fill="white"/>
</mask>
<g mask="url(#mask0_7_541)">
<path d="M27.0923 6.78391C27.0702 6.62391 26.9301 6.53537 26.8142 6.52561C26.6986 6.51597 24.2517 6.3346 24.2517 6.3346C24.2517 6.3346 22.5523 4.64748 22.3658 4.46074C22.1792 4.27411 21.8147 4.33087 21.6732 4.37252C21.6524 4.37865 21.3019 4.48682 20.7222 4.66622C20.1545 3.03268 19.1526 1.53153 17.3901 1.53153C17.3415 1.53153 17.2914 1.5335 17.2413 1.53635C16.74 0.873449 16.1191 0.585449 15.5828 0.585449C11.477 0.585449 9.51549 5.71805 8.90047 8.32627C7.30508 8.82063 6.17171 9.17208 6.02694 9.21756C5.13642 9.4969 5.10826 9.52496 4.99132 10.3641C4.90332 10.9994 2.57324 29.019 2.57324 29.019L20.7297 32.4208L30.5675 30.2926C30.5675 30.2926 27.114 6.94391 27.0923 6.78391ZM19.7187 4.97657L18.1823 5.45208C18.1829 5.34381 18.1834 5.23728 18.1834 5.12079C18.1834 4.10556 18.0425 3.28813 17.8164 2.64013C18.7246 2.75411 19.3294 3.78742 19.7187 4.97657ZM16.6898 2.84145C16.9423 3.47411 17.1065 4.38205 17.1065 5.60726C17.1065 5.66994 17.106 5.72726 17.1054 5.78523C16.1063 6.09471 15.0206 6.43071 13.9325 6.76781C14.5434 4.40989 15.6886 3.27104 16.6898 2.84145ZM15.47 1.68671C15.6472 1.68671 15.8257 1.74687 15.9966 1.86446C14.6807 2.48364 13.2703 4.04309 12.6747 7.15728L10.1667 7.93405C10.8643 5.55871 12.521 1.68671 15.47 1.68671Z" fill="#95BF46"/>
<path d="M26.8141 6.52565C26.6985 6.516 24.2516 6.33463 24.2516 6.33463C24.2516 6.33463 22.5522 4.64751 22.3656 4.46077C22.2958 4.39129 22.2017 4.35567 22.1033 4.34033L20.7305 32.4207L30.5674 30.2927C30.5674 30.2927 27.1138 6.94395 27.0921 6.78395C27.0701 6.62395 26.9299 6.5354 26.8141 6.52565Z" fill="#5E8E3E"/>
<path d="M17.39 11.9612L16.177 15.5696C16.177 15.5696 15.1142 15.0023 13.8114 15.0023C11.9015 15.0023 11.8054 16.2009 11.8054 16.5029C11.8054 18.1509 16.1013 18.7824 16.1013 22.6426C16.1013 25.6796 14.175 27.6352 11.5778 27.6352C8.46105 27.6352 6.86719 25.6955 6.86719 25.6955L7.70171 22.9382C7.70171 22.9382 9.34006 24.3448 10.7225 24.3448C11.6259 24.3448 11.9933 23.6336 11.9933 23.1139C11.9933 20.9642 8.46894 20.8683 8.46894 17.3359C8.46894 14.3629 10.6029 11.4858 14.9104 11.4858C16.5701 11.4858 17.39 11.9612 17.39 11.9612Z" fill="black"/>
</g>
</svg>
