<svg width="33" height="33" viewBox="0 0 33 33" fill="none" xmlns="http://www.w3.org/2000/svg">
<path d="M6.56662 27.8974L10.086 27.0747C15.7554 30.5153 23.3317 28.8216 26.9413 23.0926C34.4565 10.4491 18.374 -2.30036 7.73078 7.80716C3.7407 11.6721 2.9647 18.1838 5.89142 22.8907L5.06646 26.4017C4.83478 27.2651 5.69814 28.1326 6.56662 27.8974Z" fill="#4477E8"/>
<path d="M12.5448 29.7029C11.8434 29.4914 11.1602 29.2242 10.5016 28.9036C9.78035 28.5087 7.35731 28.1631 7.56979 29.5193C7.65907 29.9013 8.04115 30.1391 8.42323 30.0501C8.72083 29.9938 9.18067 29.8034 9.46515 29.9861C10.3141 30.43 11.2037 30.7913 12.1208 31.0652C13.0139 31.3209 13.4299 29.9922 12.5448 29.7029Z" fill="#4477E8"/>
<path d="M4.34783 24.8905L4.59871 23.8121C4.63935 23.638 4.61023 23.4565 4.52191 23.3013C4.00927 22.3993 3.60063 21.4412 3.30495 20.4479C3.01919 19.5621 1.68863 19.973 1.94463 20.869C2.21951 21.7865 2.58143 22.6761 3.02399 23.525C3.20607 23.8069 3.01567 24.2716 2.95999 24.5653C2.77023 25.4834 4.11071 25.8015 4.34783 24.8905Z" fill="#4477E8"/>
<path d="M5.43789 29.2749L4.31725 29.537C3.80397 29.657 3.34317 29.1965 3.46285 28.6833L3.72717 27.5485C3.91757 26.6305 2.57485 26.3159 2.33933 27.2253L1.81549 29.4737C1.63501 30.2404 2.11245 31.0074 2.87661 31.1853C3.08941 31.2349 3.31213 31.2349 3.52717 31.1853L5.77293 30.6692C6.69261 30.4298 6.36237 29.081 5.43789 29.2749Z" fill="#4477E8"/>
<path d="M15.0979 2.79545C16.0311 2.70073 16.9709 2.70073 17.904 2.79545C18.8355 2.85977 18.9587 1.48953 18.0311 1.37721C17.0135 1.27481 15.9875 1.27449 14.9699 1.37721C14.5629 1.41817 14.2717 1.79065 14.3335 2.19513C14.3901 2.56537 14.7248 2.83321 15.0979 2.79545Z" fill="#4477E8"/>
<path d="M29.6977 12.541C29.8058 12.9029 30.1809 13.1141 30.5476 13.0226C30.9444 12.9247 31.1764 12.5135 31.059 12.1221C30.7649 11.142 30.3726 10.1944 29.8878 9.29363C29.4343 8.47795 28.2026 9.12467 28.6295 9.95859C29.0721 10.781 29.4298 11.6466 29.6977 12.541Z" fill="#4477E8"/>
<path d="M4.84873 7.90921C5.16553 8.14537 5.61001 8.09769 5.87081 7.80073C6.38249 7.21801 7.21673 6.30121 7.79977 5.82537C8.51113 5.21161 7.62665 4.14345 6.88649 4.72201C6.09513 5.36809 5.37065 6.09257 4.72457 6.88393C4.46697 7.19945 4.52233 7.66601 4.84873 7.90921Z" fill="#4477E8"/>
<path d="M27.1751 7.7971C27.4164 8.09342 27.851 8.14142 28.154 7.9091C28.4804 7.6659 28.5358 7.19902 28.2785 6.88382C27.6324 6.09246 26.9079 5.36798 26.1166 4.7219C25.3767 4.1379 24.4935 5.22366 25.211 5.83134C25.93 6.41918 26.5882 7.07774 27.1751 7.7971Z" fill="#4477E8"/>
<path d="M28.1508 25.0877C27.8442 24.8598 27.4129 24.9113 27.1713 25.207C26.5822 25.9277 25.9217 26.5865 25.2004 27.1747C24.907 27.4137 24.8561 27.8429 25.0826 28.1462C25.3249 28.4749 25.793 28.5321 26.1095 28.2742C26.9015 27.6288 27.6273 26.9049 28.2753 26.1149C28.5335 25.7993 28.4782 25.3312 28.1508 25.0877Z" fill="#4477E8"/>
<path d="M17.9016 30.2023C16.9694 30.2967 16.0306 30.2967 15.0984 30.2019C14.1666 30.1373 14.0427 31.5104 14.971 31.6227C15.9886 31.7251 17.0149 31.7255 18.0325 31.6227C18.4395 31.5818 18.7307 31.2093 18.669 30.8051C18.6123 30.4333 18.2763 30.1645 17.9016 30.2023Z" fill="#4477E8"/>
<path d="M30.5438 19.9721C30.1774 19.8815 29.8033 20.0927 29.6954 20.4543C29.4276 21.3513 29.0692 22.2179 28.626 23.0422C28.4468 23.375 28.5636 23.7897 28.8881 23.9836C29.2378 24.1942 29.6922 24.0675 29.8858 23.7081C30.3719 22.8054 30.7642 21.855 31.0574 20.8742C31.1742 20.4822 30.9412 20.0703 30.5438 19.9721Z" fill="#4477E8"/>
<path d="M31.6205 14.9688C31.5796 14.5624 31.2077 14.2712 30.8039 14.3323C30.4308 14.3887 30.1655 14.7269 30.2039 15.1023C30.2989 16.0306 30.2986 16.9682 30.2039 17.8968C30.1351 18.8328 31.5063 18.9615 31.6208 18.0303C31.7229 17.0123 31.7229 15.9864 31.6205 14.9688Z" fill="#4477E8"/>
<path d="M23.0417 28.6271C22.2193 29.07 21.354 29.4278 20.4593 29.6953C19.5681 29.9897 19.9735 31.3065 20.8779 31.0566C21.858 30.7625 22.8055 30.3702 23.7063 29.8854C24.0657 29.6921 24.1927 29.238 23.9825 28.8879C23.7886 28.5641 23.3745 28.4479 23.0417 28.6271Z" fill="#4477E8"/>
<path d="M2.79809 17.8976C2.70401 16.9686 2.70401 16.0307 2.79809 15.1017C2.86561 14.1657 1.49409 14.0384 1.37953 14.9693C1.27713 15.9869 1.27713 17.0128 1.37953 18.0304C1.49345 18.96 2.86529 18.8345 2.79809 17.8976Z" fill="#4477E8"/>
<path d="M3.30438 12.5433C3.5719 11.6469 3.92998 10.781 4.37286 9.95702C4.55174 9.62422 4.43526 9.20982 4.11078 9.01558C3.7719 8.8127 3.33222 8.94038 3.1575 9.29462C2.78086 10.0578 2.18502 11.3189 1.94342 12.1247C1.69382 13.0284 3.00966 13.4357 3.30438 12.5433Z" fill="#4477E8"/>
<path d="M20.4547 3.30252C21.3517 3.57036 22.2183 3.92876 23.0426 4.37196C23.3754 4.55084 23.7898 4.43436 23.9837 4.1102C24.1946 3.76044 24.0675 3.30572 23.7079 3.11244C22.8061 2.62764 21.856 2.23564 20.8739 1.94156C19.9712 1.69164 19.5613 3.00652 20.4547 3.30252Z" fill="#4477E8"/>
<path d="M9.95862 4.37137C10.7826 3.92817 11.6492 3.57009 12.5455 3.30225C13.4377 3.00753 13.0306 1.69137 12.126 1.94161C11.1458 2.23601 10.1977 2.62833 9.2943 3.11313C8.93462 3.30609 8.80758 3.76017 9.0175 4.11025C9.21238 4.43409 9.62614 4.55025 9.95862 4.37137Z" fill="#4477E8"/>
</svg>
