<svg width="33" height="32" viewBox="0 0 33 32" fill="none" xmlns="http://www.w3.org/2000/svg">
<g clip-path="url(#clip0_7_567)">
<path d="M32.5 16C32.5 7.16344 25.3366 0 16.5 0C7.66344 0 0.5 7.16344 0.5 16C0.5 24.8366 7.66344 32 16.5 32C25.3366 32 32.5 24.8366 32.5 16Z" fill="#0078D7"/>
<path d="M16.5417 22.186C13.1273 22.186 11.5672 20.4466 11.5672 19.1708C11.5668 18.8664 11.6917 18.5753 11.9126 18.366C12.1335 18.1566 12.4308 18.0475 12.7347 18.0642C14.1966 18.0642 13.8142 20.2571 16.5417 20.2571C17.936 20.2571 18.7549 19.4178 18.7549 18.6293C18.7549 18.1556 18.4842 17.6141 17.5637 17.3976L14.5181 16.6294C12.0714 16.0067 11.6451 14.6463 11.6451 13.3841C11.6451 10.7649 14.041 9.81734 16.3218 9.81734C18.4233 9.81734 20.9207 10.9781 20.9207 12.5483C20.9207 13.2251 20.3555 13.5871 19.699 13.5871C18.4503 13.5871 18.6601 11.8342 16.1492 11.8342C14.9005 11.8342 14.244 12.4197 14.244 13.2386C14.244 14.0575 15.2152 14.335 16.068 14.5211L18.315 15.0287C20.7786 15.5837 21.4351 17.0287 21.4351 18.4128C21.4351 20.5413 19.787 22.186 16.5384 22.186H16.5417ZM25.9696 17.6818C26.0672 17.1231 26.1159 16.557 26.1152 15.9898C26.1271 13.1408 24.8753 10.4332 22.6972 8.59674C20.519 6.7603 17.6388 5.98407 14.8328 6.47731C13.9704 5.98075 12.9922 5.72045 11.997 5.72267C9.95427 5.73515 8.07135 6.82995 7.04999 8.59906C6.02863 10.3682 6.02202 12.5462 7.03263 14.3215C6.46872 17.42 7.45653 20.5984 9.67743 22.8315C11.8983 25.0645 15.0713 26.0696 18.1728 25.5226C19.0343 26.0187 20.0112 26.279 21.0053 26.2773C23.047 26.2641 24.9287 25.1698 25.9499 23.4017C26.971 21.6337 26.9785 19.4569 25.9696 17.6818Z" fill="black"/>
</g>
<defs>
<clipPath id="clip0_7_567">
<rect width="32" height="32" fill="white" transform="translate(0.5)"/>
</clipPath>
</defs>
</svg>
