<svg width="33" height="32" viewBox="0 0 33 32" fill="none" xmlns="http://www.w3.org/2000/svg">
<g clip-path="url(#clip0_7_570)">
<path d="M32.5 16C32.5 7.16344 25.3366 0 16.5 0C7.66344 0 0.5 7.16344 0.5 16C0.5 24.8366 7.66344 32 16.5 32C25.3366 32 32.5 24.8366 32.5 16Z" fill="#4A154B"/>
<path d="M11.8758 18.1146C11.8758 19.0446 11.1242 19.7962 10.1942 19.7962C9.26429 19.7962 8.5127 19.0446 8.5127 18.1146C8.5127 17.1847 9.26429 16.4331 10.1942 16.4331H11.8758V18.1146Z" fill="#E01E5A"/>
<path d="M12.7168 18.1146C12.7168 17.1847 13.4684 16.4331 14.3983 16.4331C15.3283 16.4331 16.0799 17.1847 16.0799 18.1146V22.3185C16.0799 23.2484 15.3283 24 14.3983 24C13.4684 24 12.7168 23.2484 12.7168 22.3185V18.1146Z" fill="#E01E5A"/>
<path d="M14.3983 11.3631C13.4684 11.3631 12.7168 10.6115 12.7168 9.68153C12.7168 8.75159 13.4684 8 14.3983 8C15.3283 8 16.0799 8.75159 16.0799 9.68153V11.3631H14.3983Z" fill="#36C5F0"/>
<path d="M14.3981 12.2168C15.328 12.2168 16.0796 12.9684 16.0796 13.8983C16.0796 14.8283 15.328 15.5799 14.3981 15.5799H10.1815C9.25159 15.5799 8.5 14.8283 8.5 13.8983C8.5 12.9684 9.25159 12.2168 10.1815 12.2168H14.3981Z" fill="#36C5F0"/>
<path d="M21.1367 13.8983C21.1367 12.9684 21.8883 12.2168 22.8182 12.2168C23.7482 12.2168 24.4998 12.9684 24.4998 13.8983C24.4998 14.8283 23.7482 15.5799 22.8182 15.5799H21.1367V13.8983Z" fill="#2EB67D"/>
<path d="M20.2967 13.8981C20.2967 14.828 19.5451 15.5796 18.6151 15.5796C17.6852 15.5796 16.9336 14.828 16.9336 13.8981V9.68153C16.9336 8.75159 17.6852 8 18.6151 8C19.5451 8 20.2967 8.75159 20.2967 9.68153V13.8981Z" fill="#2EB67D"/>
<path d="M18.6151 20.6367C19.5451 20.6367 20.2967 21.3883 20.2967 22.3182C20.2967 23.2482 19.5451 23.9998 18.6151 23.9998C17.6852 23.9998 16.9336 23.2482 16.9336 22.3182V20.6367H18.6151Z" fill="#ECB22E"/>
<path d="M18.6151 19.7962C17.6852 19.7962 16.9336 19.0446 16.9336 18.1146C16.9336 17.1847 17.6852 16.4331 18.6151 16.4331H22.8317C23.7616 16.4331 24.5132 17.1847 24.5132 18.1146C24.5132 19.0446 23.7616 19.7962 22.8317 19.7962H18.6151Z" fill="#ECB22E"/>
</g>
<defs>
<clipPath id="clip0_7_570">
<rect width="32" height="32" fill="white" transform="translate(0.5)"/>
</clipPath>
</defs>
</svg>
