<svg width="33" height="32" viewBox="0 0 33 32" fill="none" xmlns="http://www.w3.org/2000/svg">
<g clip-path="url(#clip0_7_580)">
<path d="M32.5 16C32.5 7.16344 25.3366 0 16.5 0C7.66344 0 0.5 7.16344 0.5 16C0.5 24.8366 7.66344 32 16.5 32C25.3366 32 32.5 24.8366 32.5 16Z" fill="#FFFC00"/>
<path d="M16.6197 25.4152C16.5659 25.4152 16.516 25.4152 16.4699 25.4075C16.4353 25.4075 16.4008 25.4152 16.3662 25.4152C15.1754 25.4152 14.4148 24.8736 13.6734 24.3512C13.1664 23.9862 12.6785 23.652 12.1177 23.556C11.8449 23.5099 11.5607 23.4869 11.3033 23.4869C10.8231 23.4869 10.4467 23.5637 10.174 23.6175C10.0088 23.652 9.85897 23.6789 9.74757 23.6789C9.63233 23.6789 9.5094 23.652 9.45178 23.4677C9.40569 23.3102 9.37112 23.1527 9.33654 23.0029C9.25588 22.6187 9.19441 22.3806 9.02924 22.3537C7.14314 22.0579 6.60151 21.6622 6.47859 21.3818C6.46323 21.3396 6.4517 21.3011 6.4517 21.2589C6.44402 21.1475 6.52085 21.0515 6.6284 21.0399C9.52861 20.5598 10.8308 17.5981 10.8846 17.4675C10.8846 17.4598 10.8846 17.4598 10.8923 17.4521C11.069 17.0949 11.1036 16.7799 10.996 16.5264C10.7963 16.0616 10.1471 15.8465 9.72068 15.7158C9.61696 15.6813 9.51325 15.6544 9.44026 15.6198C8.58364 15.2856 8.50681 14.9361 8.54139 14.7555C8.59517 14.452 9.00235 14.2408 9.32886 14.2408C9.41721 14.2408 9.50172 14.2561 9.56318 14.2907C9.94732 14.4674 10.2969 14.5634 10.5965 14.5634C11.0075 14.5634 11.1919 14.3906 11.215 14.3637C11.1996 14.1639 11.1957 13.9604 11.1804 13.7529C11.092 12.3816 10.9883 10.676 11.4185 9.70415C12.7208 6.79242 15.475 6.56579 16.2894 6.56579C16.3086 6.56579 16.6466 6.55811 16.6466 6.55811H16.6965C17.5109 6.55811 20.2728 6.78473 21.575 9.70415C22.0053 10.676 21.9054 12.3854 21.8132 13.7529L21.8055 13.8144C21.7902 14.0065 21.7863 14.1908 21.7709 14.3714C21.7902 14.3906 21.9553 14.5481 22.3318 14.5711C22.6199 14.5558 22.9502 14.4674 23.3036 14.2984C23.4074 14.2523 23.5303 14.2369 23.6071 14.2369C23.73 14.2369 23.8529 14.2561 23.9567 14.3061H23.9643C24.2601 14.4098 24.4445 14.6134 24.4522 14.8285C24.4599 15.0282 24.3024 15.3279 23.5456 15.6313C23.4688 15.6582 23.3689 15.6928 23.2652 15.7274C22.835 15.8657 22.1897 16.0693 21.9899 16.5379C21.8785 16.7914 21.9131 17.1064 22.0936 17.4637C22.0936 17.4713 22.0936 17.4713 22.1013 17.479C22.1551 17.6019 23.4573 20.5713 26.3575 21.0476C26.4689 21.0668 26.5419 21.1629 26.5342 21.2666C26.5342 21.3088 26.5188 21.3472 26.5073 21.3895C26.3921 21.6699 25.8504 22.0694 23.9567 22.3575C23.8069 22.3767 23.7454 22.5842 23.6494 23.0029C23.6148 23.1527 23.5802 23.3025 23.5341 23.4638C23.4919 23.6021 23.4112 23.6636 23.2652 23.6636H23.246C23.1423 23.6636 23.0079 23.6444 22.8196 23.6098C22.497 23.5483 22.1397 23.4869 21.6903 23.4869C21.4214 23.4869 21.1486 23.5061 20.8759 23.556C20.3074 23.652 19.8272 23.9862 19.3202 24.3512C18.575 24.8736 17.8067 25.4152 16.6197 25.4152Z" fill="black"/>
<path d="M16.6884 6.3584H16.6423H16.2851C15.4438 6.3584 12.5705 6.59272 11.2222 9.62737C10.7689 10.6492 10.8803 12.3816 10.961 13.7722C10.9763 13.9374 10.9802 14.1064 10.9879 14.2715C10.9187 14.3138 10.7881 14.3599 10.5922 14.3599C10.3233 14.3599 10.0083 14.2792 9.64725 14.1064C9.55121 14.0641 9.43981 14.0372 9.32457 14.0372C8.90587 14.0372 8.40649 14.31 8.32967 14.721C8.27589 15.0168 8.40649 15.447 9.35915 15.8234C9.4475 15.858 9.55121 15.8926 9.65493 15.9272C10.0467 16.0501 10.6422 16.2422 10.7996 16.6186C10.8803 16.8184 10.8457 17.0719 10.7036 17.3715C10.7036 17.3792 10.6959 17.3869 10.6959 17.3907C10.6422 17.5136 9.38603 20.3716 6.60491 20.8325C6.39363 20.8671 6.23614 21.0592 6.24766 21.2781C6.25535 21.3396 6.26687 21.4087 6.29376 21.4702C6.50503 21.9581 7.3847 22.3191 8.99422 22.565C9.048 22.6418 9.10562 22.8953 9.13635 23.0528C9.17092 23.2027 9.20549 23.3678 9.25159 23.533C9.29768 23.6982 9.42445 23.8979 9.75096 23.8979C9.88157 23.8979 10.0391 23.871 10.2158 23.8288C10.4847 23.775 10.8534 23.7059 11.3067 23.7059C11.5602 23.7059 11.8291 23.7251 12.0865 23.775C12.6089 23.8634 13.0468 24.1707 13.5539 24.5356C14.2876 25.0503 15.1096 25.6381 16.3696 25.6381C16.4042 25.6381 16.4387 25.6381 16.4733 25.6304C16.5156 25.6304 16.5693 25.6381 16.6231 25.6381C17.8831 25.6381 18.7051 25.0542 19.4388 24.5356C19.9535 24.1707 20.3915 23.8634 20.9062 23.775C21.1751 23.7328 21.4325 23.7059 21.686 23.7059C22.1239 23.7059 22.4658 23.7596 22.7769 23.8211C22.969 23.8634 23.1265 23.8749 23.2417 23.8749H23.2571H23.2725C23.5106 23.8749 23.6758 23.752 23.7449 23.5176C23.791 23.3525 23.8256 23.195 23.8602 23.0452C23.8948 22.8877 23.9485 22.6341 24.0023 22.5573C25.6042 22.3115 26.4915 21.9465 26.7028 21.4625C26.7297 21.4011 26.745 21.3319 26.7489 21.2705C26.7642 21.0515 26.6067 20.8594 26.3916 20.8249C23.6028 20.3639 22.3467 17.5021 22.3006 17.383C22.3006 17.3753 22.2929 17.3677 22.2929 17.3638C22.1431 17.0642 22.1085 16.8107 22.1969 16.6109C22.3544 16.2345 22.9498 16.0424 23.3416 15.9195C23.453 15.8849 23.5529 15.8503 23.6374 15.8158C24.3288 15.543 24.6784 15.205 24.6707 14.817C24.663 14.5097 24.4249 14.2331 24.0484 14.1025C23.9178 14.0488 23.768 14.0219 23.622 14.0219C23.5183 14.0219 23.3685 14.0372 23.2302 14.1025C22.8999 14.26 22.6002 14.3407 22.3467 14.3561C22.1738 14.3484 22.0663 14.31 22.0048 14.2677C22.0125 14.1256 22.0202 13.9796 22.0317 13.8298L22.0394 13.7683C22.1277 12.3778 22.2391 10.6415 21.7782 9.62353C20.4107 6.58888 17.5373 6.3584 16.6884 6.3584ZM16.6884 6.78095C17.4644 6.78095 20.1226 6.98838 21.3748 9.79639C21.7859 10.7222 21.6821 12.4008 21.5938 13.7453C21.5784 13.9566 21.5669 14.164 21.5592 14.3637L21.5515 14.4444L21.6053 14.5059C21.6245 14.5328 21.8435 14.7517 22.3198 14.7748H22.3275H22.3352C22.6502 14.7594 23.0074 14.6634 23.3915 14.4867C23.4453 14.4598 23.5221 14.4444 23.6028 14.4444C23.6912 14.4444 23.7872 14.4636 23.8717 14.4905L23.8871 14.4982C24.0945 14.5673 24.229 14.7056 24.2366 14.8285C24.2366 14.8977 24.1905 15.1435 23.4684 15.4239C23.3992 15.4508 23.3032 15.4777 23.1995 15.5123C22.7347 15.6621 22.0279 15.8811 21.7859 16.4457C21.6476 16.7607 21.6898 17.1295 21.8973 17.5482C21.9779 17.748 23.3147 20.748 26.311 21.2436C26.311 21.2589 26.3033 21.2705 26.2956 21.2935C26.2495 21.4087 25.9191 21.8275 23.9101 22.1348C23.5951 22.1809 23.5183 22.5381 23.43 22.9453C23.3954 23.0874 23.3685 23.2411 23.3186 23.3909C23.3032 23.437 23.3032 23.437 23.2494 23.437H23.2302C23.1419 23.437 23.0036 23.4178 22.8461 23.3909C22.558 23.3371 22.1662 23.268 21.6745 23.268C21.394 23.268 21.1059 23.2948 20.8255 23.3371C20.2071 23.4408 19.7077 23.7981 19.1814 24.1668C18.467 24.6662 17.7371 25.1886 16.6116 25.1886C16.5655 25.1886 16.5156 25.1886 16.4695 25.1809H16.4541H16.4387H16.3581C15.2325 25.1809 14.5027 24.6585 13.7882 24.1591C13.2619 23.7827 12.7587 23.4331 12.1441 23.3294C11.856 23.2833 11.5679 23.2603 11.2952 23.2603C10.7958 23.2603 10.404 23.3371 10.1236 23.3909C9.96608 23.4255 9.82779 23.4447 9.73944 23.4447C9.66261 23.4447 9.66261 23.437 9.65109 23.3909C9.60499 23.2411 9.57426 23.0836 9.53969 22.9376C9.45134 22.5266 9.37451 22.1693 9.05952 22.1232C7.0505 21.8159 6.72783 21.3972 6.67405 21.282C6.66637 21.2628 6.65869 21.2474 6.65869 21.2359C9.65877 20.7442 10.9917 17.7403 11.0724 17.5405C11.2798 17.1218 11.3105 16.7531 11.1838 16.4381C10.9456 15.8772 10.2388 15.6583 9.77017 15.5046C9.65877 15.47 9.57042 15.4432 9.50127 15.4163C8.89818 15.1781 8.70612 14.9361 8.73301 14.794C8.76758 14.6211 9.05568 14.4521 9.30921 14.4521C9.36299 14.4521 9.42061 14.4598 9.45134 14.479C9.86236 14.671 10.2465 14.7748 10.5768 14.7748C11.0993 14.7748 11.3298 14.5366 11.3566 14.5059L11.4104 14.4444L11.4027 14.3637C11.3874 14.164 11.3835 13.9604 11.3682 13.7453C11.2875 12.397 11.1761 10.7222 11.5871 9.79639C12.8356 6.99222 15.4861 6.78095 16.2697 6.78095H16.627C16.6615 6.78095 16.673 6.78095 16.6884 6.78095Z" fill="white"/>
</g>
<defs>
<clipPath id="clip0_7_580">
<rect width="32" height="32" fill="white" transform="translate(0.5)"/>
</clipPath>
</defs>
</svg>
