<svg width="33" height="32" viewBox="0 0 33 32" fill="none" xmlns="http://www.w3.org/2000/svg">
<g clip-path="url(#clip0_7_584)">
<path d="M32.5 16C32.5 7.16344 25.3366 0 16.5 0C7.66344 0 0.5 7.16344 0.5 16C0.5 24.8366 7.66344 32 16.5 32C25.3366 32 32.5 24.8366 32.5 16Z" fill="#FF5100"/>
<path d="M5.0825 17.2409L4.91309 18.7229L5.0825 20.1794C5.08879 20.2407 5.12708 20.2834 5.17547 20.2834C5.22231 20.2834 5.26047 20.2411 5.26789 20.18L5.46876 18.7229L5.26789 17.2405C5.26077 17.1795 5.22209 17.1364 5.17547 17.1364C5.12712 17.1364 5.08874 17.1795 5.0825 17.2409ZM6.44446 16.3266L6.21661 18.7227L6.44446 21.0657C6.45091 21.1286 6.49152 21.1739 6.54091 21.1739C6.58934 21.1739 6.62908 21.1296 6.63704 21.0664L6.89621 18.7227L6.63736 16.3266C6.62942 16.2629 6.58975 16.219 6.54091 16.219C6.4918 16.219 6.45116 16.2644 6.44446 16.3266ZM7.72445 15.8028L7.52018 18.7236L7.72445 21.5495C7.72991 21.637 7.78876 21.7031 7.86055 21.7031C7.93152 21.7031 7.99013 21.6369 7.99642 21.5495L8.22875 18.7236L7.99642 15.8022C7.99022 15.7146 7.93161 15.6485 7.86055 15.6485C7.78877 15.6485 7.73024 15.7147 7.72445 15.8028ZM9.01639 16.0143L8.8238 18.7237L9.01639 21.5729C9.02193 21.6734 9.08844 21.7494 9.17217 21.7494C9.25469 21.7494 9.32145 21.6733 9.32765 21.5731L9.54649 18.7237L9.32765 16.013C9.32177 15.9129 9.25491 15.8374 9.17217 15.8374C9.0884 15.8374 9.02164 15.9135 9.01639 16.0143ZM10.3089 14.3165L10.1273 18.7248L10.3089 21.5737C10.3136 21.6851 10.4025 21.7728 10.496 21.7728C10.589 21.7728 10.6835 21.6847 10.6835 21.573L10.8766 18.7248L10.6655 14.3165C10.6599 14.2045 10.577 14.1164 10.484 14.1164C10.3906 14.1164 10.3133 14.2045 10.3089 14.3165ZM11.6003 13.309L11.4309 18.7256L11.6007 21.5566C11.6049 21.6803 11.6906 21.7783 11.7958 21.7783C11.9 21.7783 11.9859 21.6803 11.9909 21.5556L12.1824 18.7256L11.9909 13.309C11.9857 13.184 11.8999 13.0864 11.7957 13.0864C11.6906 13.0864 11.6049 13.1842 11.6003 13.309ZM12.8805 12.6597L12.7345 18.7262L12.8807 21.5108C12.8842 21.6601 13.0098 21.778 13.1377 21.778C13.2652 21.778 13.3948 21.6601 13.3948 21.5099L13.5366 18.7264L13.3611 12.6596C13.357 12.5091 13.2426 12.3908 13.1152 12.3908C12.9872 12.3908 12.884 12.5087 12.8805 12.6597ZM14.1607 13.0316L14.0381 18.7274L14.1607 21.4682C14.1637 21.6428 14.2874 21.7808 14.4384 21.7808C14.589 21.7808 14.7156 21.643 14.7156 21.4664L14.8502 18.7277L14.7111 13.0312C14.7074 12.8548 14.5859 12.7167 14.4353 12.7167C14.2846 12.7167 14.1637 12.8548 14.1607 13.0316ZM15.4702 11.336L15.3417 18.7289L15.4706 21.4118C15.4728 21.608 15.6288 21.7693 15.8 21.7693C15.9707 21.7693 16.1293 21.6078 16.1293 21.4088L16.2536 18.7289L16.106 11.3355C16.1035 11.1372 15.9553 10.9755 15.7845 10.9755C15.6133 10.9755 15.4728 11.1372 15.4702 11.336ZM24.1338 15.4842C23.9069 12.5265 21.7527 10.2065 19.125 10.2065C18.482 10.2065 17.8582 10.3522 17.3047 10.5987C17.0896 10.6945 17.0331 10.7933 17.0331 10.9845V21.4001C17.0331 21.601 17.1679 21.7683 17.338 21.7879C17.3452 21.7889 25.1865 21.7934 25.2373 21.7934C26.8114 21.7934 28.0868 20.324 28.0868 18.5115C28.0868 16.699 26.8101 15.2294 25.2362 15.2294C24.8457 15.2294 24.473 15.3203 24.1338 15.4842Z" fill="black"/>
</g>
<defs>
<clipPath id="clip0_7_584">
<rect width="32" height="32" fill="white" transform="translate(0.5)"/>
</clipPath>
</defs>
</svg>
