<svg width="33" height="32" viewBox="0 0 33 32" fill="none" xmlns="http://www.w3.org/2000/svg">
<g clip-path="url(#clip0_7_587)">
<path d="M32.5 16C32.5 7.16344 25.3366 0 16.5 0C7.66344 0 0.5 7.16344 0.5 16C0.5 24.8366 7.66344 32 16.5 32C25.3366 32 32.5 24.8366 32.5 16Z" fill="#10BC4C"/>
<path fill-rule="evenodd" clip-rule="evenodd" d="M16.5 5C10.45 5 5.5 9.95 5.5 16C5.5 22.05 10.45 27 16.5 27C22.55 27 27.5 22.05 27.5 16C27.5 9.95 22.605 5 16.5 5ZM21.56 20.895C21.34 21.225 20.955 21.335 20.625 21.115C18.04 19.52 14.795 19.19 10.945 20.07C10.56 20.18 10.23 19.905 10.12 19.575C10.01 19.19 10.285 18.86 10.615 18.75C14.795 17.815 18.425 18.2 21.285 19.96C21.67 20.125 21.725 20.565 21.56 20.895ZM22.88 17.87C22.605 18.255 22.11 18.42 21.725 18.145C18.755 16.33 14.245 15.78 10.78 16.88C10.34 16.99 9.845 16.77 9.735 16.33C9.625 15.89 9.845 15.395 10.285 15.285C14.3 14.075 19.25 14.68 22.66 16.77C22.99 16.935 23.155 17.485 22.88 17.87ZM22.99 14.79C19.47 12.7 13.585 12.48 10.23 13.525C9.68 13.69 9.13 13.36 8.965 12.865C8.8 12.315 9.13 11.765 9.625 11.6C13.53 10.445 19.965 10.665 24.035 13.085C24.53 13.36 24.695 14.02 24.42 14.515C24.145 14.9 23.485 15.065 22.99 14.79Z" fill="black"/>
</g>
<defs>
<clipPath id="clip0_7_587">
<rect width="32" height="32" fill="white" transform="translate(0.5)"/>
</clipPath>
</defs>
</svg>
