<svg width="34" height="33" viewBox="0 0 34 33" fill="none" xmlns="http://www.w3.org/2000/svg">
<g clip-path="url(#clip0_7_590)">
<mask id="mask0_7_590" style="mask-type:luminance" maskUnits="userSpaceOnUse" x="0" y="0" width="33" height="33">
<path d="M32.625 0.5H0.625V32.5H32.625V0.5Z" fill="white"/>
</mask>
<g mask="url(#mask0_7_590)">
<path d="M27.2771 0.5H5.97288C4.55453 0.5 3.19428 1.06344 2.19136 2.06636C1.18843 3.06928 0.625 4.42953 0.625 5.84788V27.1521C0.625 28.5705 1.18843 29.9307 2.19136 30.9336C3.19428 31.9366 4.55453 32.5 5.97288 32.5H27.2771C27.9794 32.5001 28.6749 32.3618 29.3238 32.0931C29.9727 31.8244 30.5622 31.4305 31.0589 30.9339C31.5555 30.4372 31.9494 29.8477 32.2181 29.1988C32.4868 28.5499 32.6251 27.8544 32.625 27.1521V5.84788C32.6252 5.14553 32.487 4.45003 32.2183 3.80111C31.9496 3.15219 31.5557 2.56257 31.0591 2.06593C30.5624 1.5693 29.9728 1.17538 29.3239 0.906694C28.675 0.638006 27.9795 0.499809 27.2771 0.5ZM26.8074 24.9967C26.8072 25.444 26.6293 25.8729 26.3129 26.1892C25.9966 26.5054 25.5676 26.6831 25.1202 26.6831H8.13341C7.91185 26.6832 7.69245 26.6396 7.48772 26.5549C7.28299 26.4702 7.09695 26.346 6.94022 26.1894C6.78349 26.0329 6.65914 25.8469 6.57426 25.6423C6.48939 25.4376 6.44566 25.2182 6.44556 24.9967V8.00914C6.44547 7.78746 6.48906 7.56793 6.57385 7.36311C6.65864 7.15829 6.78296 6.97219 6.93971 6.81544C7.09646 6.65869 7.28256 6.53436 7.48738 6.44957C7.69221 6.36479 7.91173 6.32119 8.13341 6.32129H25.1195C25.3411 6.32129 25.5606 6.36495 25.7653 6.44978C25.97 6.53461 26.1561 6.65895 26.3127 6.81569C26.4694 6.97243 26.5937 7.15851 26.6784 7.36328C26.7631 7.56806 26.8067 7.78752 26.8066 8.00914L26.8074 24.9967Z" fill="#2E3B4E"/>
<path d="M13.2294 20.8642C12.9718 20.8634 12.7251 20.7604 12.5435 20.5778C12.3619 20.3952 12.2602 20.148 12.2607 19.8904V13.11C12.2607 12.5726 12.6942 12.1362 13.2294 12.1362H20.02C20.5567 12.1362 20.9887 12.5726 20.9887 13.11V19.8904C20.9887 20.4271 20.5567 20.8642 20.02 20.8642H13.2294Z" fill="#2E3B4E"/>
</g>
</g>
<defs>
<clipPath id="clip0_7_590">
<rect width="33" height="33" fill="white" transform="translate(0.5)"/>
</clipPath>
</defs>
</svg>
