<svg width="33" height="33" viewBox="0 0 33 33" fill="none" xmlns="http://www.w3.org/2000/svg">
<g clip-path="url(#clip0_7_597)">
<mask id="mask0_7_597" style="mask-type:luminance" maskUnits="userSpaceOnUse" x="0" y="0" width="33" height="33">
<path d="M32.5 16.5C32.5 7.66344 25.3366 0.5 16.5 0.5C7.66344 0.5 0.5 7.66344 0.5 16.5C0.5 25.3366 7.66344 32.5 16.5 32.5C25.3366 32.5 32.5 25.3366 32.5 16.5Z" fill="white"/>
</mask>
<g mask="url(#mask0_7_597)">
<path d="M0.5 0.5H32.5V32.5H0.5V0.5Z" fill="#FC4C02"/>
<path opacity="0.6" fill-rule="evenodd" clip-rule="evenodd" d="M14.2998 18.1001L19.2998 27.1001L24.0998 18.1001H21.0998L19.2998 21.5001L17.2998 18.1001H14.2998Z" fill="black"/>
<path fill-rule="evenodd" clip-rule="evenodd" d="M14.9 5.5L21.1 18.1H8.5L14.9 5.5ZM14.9 13.1L17.3 18.1H12.3L14.9 13.1Z" fill="black"/>
</g>
</g>
<defs>
<clipPath id="clip0_7_597">
<rect width="32" height="33" fill="white" transform="translate(0.5)"/>
</clipPath>
</defs>
</svg>
