<svg width="33" height="32" viewBox="0 0 33 32" fill="none" xmlns="http://www.w3.org/2000/svg">
<g clip-path="url(#clip0_7_605)">
<mask id="mask0_7_605" style="mask-type:luminance" maskUnits="userSpaceOnUse" x="0" y="0" width="33" height="32">
<path d="M32.5 0H0.5V31.4624H32.5V0Z" fill="white"/>
</mask>
<g mask="url(#mask0_7_605)">
<path d="M17.403 10.4877C19.9373 10.4877 21.9916 8.43335 21.9916 5.89914C21.9916 3.36493 19.9373 1.31055 17.403 1.31055C14.8688 1.31055 12.8145 3.36493 12.8145 5.89914C12.8145 8.43335 14.8688 10.4877 17.403 10.4877Z" fill="#7B83EB"/>
<path opacity="0.1" d="M17.0749 6.88232H12.9189L12.9396 6.97376L12.9416 6.98163L12.9632 7.06618C13.2652 8.21132 13.9979 9.19554 15.0082 9.81332C16.0186 10.4311 17.2286 10.6347 18.3855 10.3815V8.19293C18.3845 7.84565 18.2461 7.5129 18.0005 7.26734C17.755 7.02178 17.4222 6.88336 17.0749 6.88232Z" fill="white"/>
<path opacity="0.2" d="M16.0924 7.86572H13.2568C13.629 8.65034 14.2161 9.31325 14.9501 9.77742C15.684 10.2416 16.5346 10.488 17.403 10.4879V9.17633C17.402 8.82905 17.2635 8.4963 17.018 8.25074C16.7724 8.00517 16.4397 7.86676 16.0924 7.86572Z" fill="white"/>
<path d="M27.7264 10.815C29.6269 10.815 31.1676 9.27434 31.1676 7.37382C31.1676 5.47329 29.6269 3.93262 27.7264 3.93262C25.8258 3.93262 24.2852 5.47329 24.2852 7.37382C24.2852 9.27434 25.8258 10.815 27.7264 10.815Z" fill="#5059C9"/>
<path d="M30.6754 11.7983H22.9465C22.7796 11.7983 22.6196 11.8646 22.5016 11.9826C22.3836 12.1006 22.3173 12.2607 22.3173 12.4276V20.4013C22.296 21.5554 22.6718 22.6817 23.3819 23.5917C24.0919 24.5016 25.093 25.14 26.2176 25.3999C26.9339 25.5502 27.6746 25.5389 28.3859 25.3668C29.0973 25.1946 29.7612 24.8661 30.3295 24.4049C30.8978 23.9438 31.3562 23.3618 31.6711 22.7012C31.9861 22.0406 32.1498 21.318 32.1502 20.5862V13.2731C32.1502 12.882 31.9949 12.5069 31.7183 12.2303C31.4417 11.9537 31.0666 11.7983 30.6754 11.7983Z" fill="#5059C9"/>
<path d="M25.2683 13.2731V22.6135C25.2693 24.3445 24.6989 26.0274 23.6456 27.401C22.5923 28.7747 21.1151 29.7622 19.4432 30.2105C17.7712 30.6587 15.9981 30.5426 14.3989 29.88C12.7998 29.2175 11.464 28.0457 10.599 26.5463C10.4098 26.2319 10.2454 25.9032 10.1074 25.5631C9.97868 25.2425 9.87031 24.9142 9.78291 24.5799C9.62082 23.937 9.53827 23.2766 9.53711 22.6135V13.2731C9.53685 13.0794 9.57482 12.8875 9.64885 12.7085C9.72287 12.5294 9.83149 12.3667 9.96849 12.2297C10.1055 12.0927 10.2682 11.9841 10.4472 11.9101C10.6263 11.8361 10.8182 11.7981 11.0119 11.7983H23.7935C23.9873 11.7981 24.1791 11.8361 24.3582 11.9101C24.5372 11.9841 24.6999 12.0927 24.8369 12.2297C24.9739 12.3667 25.0826 12.5294 25.1566 12.7085C25.2306 12.8875 25.2686 13.0794 25.2683 13.2731Z" fill="#7B83EB"/>
<path opacity="0.2" d="M16.0924 7.86572H13.2568C13.629 8.65034 14.2161 9.31325 14.9501 9.77742C15.684 10.2416 16.5346 10.488 17.403 10.4879V9.17633C17.402 8.82905 17.2635 8.4963 17.018 8.25074C16.7724 8.00517 16.4397 7.86676 16.0924 7.86572Z" fill="white"/>
<path opacity="0.1" d="M18.3859 11.7983V24.2555C18.3859 24.5519 18.2845 24.8393 18.0985 25.0701C17.9124 25.3008 17.653 25.4609 17.3634 25.5238C17.2709 25.5513 17.1747 25.5646 17.0783 25.5631H10.1074C9.97868 25.2425 9.87031 24.9142 9.78291 24.5799C9.62082 23.937 9.53827 23.2766 9.53711 22.6135V13.2731C9.53685 13.0794 9.57482 12.8875 9.64885 12.7085C9.72287 12.5294 9.83149 12.3667 9.96849 12.2297C10.1055 12.0927 10.2682 11.9841 10.4472 11.9101C10.6263 11.8361 10.8182 11.7981 11.0119 11.7983H18.3859Z" fill="white"/>
<path opacity="0.2" d="M17.4027 11.7983V25.2387C17.4041 25.3352 17.3909 25.4313 17.3634 25.5238C17.3005 25.8135 17.1404 26.0729 16.9097 26.2589C16.6789 26.4449 16.3914 26.5464 16.0951 26.5463H10.599C10.4098 26.2319 10.2454 25.9032 10.1074 25.5631C9.97868 25.2425 9.87031 24.9142 9.78291 24.5799C9.62082 23.937 9.53827 23.2766 9.53711 22.6135V13.2731C9.53685 13.0794 9.57482 12.8875 9.64885 12.7085C9.72287 12.5294 9.83149 12.3667 9.96849 12.2297C10.1055 12.0927 10.2682 11.9841 10.4472 11.9101C10.6263 11.8361 10.8182 11.7981 11.0119 11.7983H17.4027Z" fill="white"/>
<path opacity="0.2" d="M17.4027 11.7983V23.2723C17.4012 23.6186 17.2629 23.9503 17.018 24.1952C16.7731 24.4401 16.4414 24.5784 16.0951 24.5799H9.78291C9.62082 23.937 9.53827 23.2766 9.53711 22.6135V13.2731C9.53685 13.0794 9.57482 12.8875 9.64885 12.7085C9.72287 12.5294 9.83149 12.3667 9.96849 12.2297C10.1055 12.0927 10.2682 11.9841 10.4472 11.9101C10.6263 11.8361 10.8182 11.7981 11.0119 11.7983H17.4027Z" fill="white"/>
<path opacity="0.2" d="M11.0119 11.7983C10.8182 11.7981 10.6263 11.8361 10.4472 11.9101C10.2682 11.9841 10.1055 12.0927 9.96849 12.2297C9.83149 12.3667 9.72287 12.5294 9.64885 12.7085C9.57482 12.8875 9.53685 13.0794 9.53711 13.2731V22.6135C9.53827 23.2766 9.62082 23.937 9.78291 24.5799H15.1119C15.4582 24.5784 15.7899 24.4401 16.0348 24.1952C16.2797 23.9503 16.418 23.6186 16.4195 23.2723V11.7983H11.0119Z" fill="white"/>
<path d="M1.99908 7.86572H15.1091C15.4567 7.86572 15.79 8.0038 16.0358 8.24959C16.2816 8.49538 16.4197 8.82873 16.4197 9.17633V22.2863C16.4197 22.6339 16.2816 22.9673 16.0358 23.2131C15.79 23.4588 15.4567 23.5969 15.1091 23.5969H1.99908C1.65149 23.5969 1.31813 23.4588 1.07234 23.2131C0.826558 22.9673 0.688477 22.6339 0.688477 22.2863V9.17633C0.688477 8.82873 0.826558 8.49538 1.07234 8.24959C1.31813 8.0038 1.65149 7.86572 1.99908 7.86572Z" fill="#4B53BC"/>
<path d="M12.4669 12.7572H9.52713V20.6425H7.59809V12.7572H4.64062V10.8203H12.4669V12.7572Z" fill="black"/>
</g>
</g>
<defs>
<clipPath id="clip0_7_605">
<rect width="32" height="32" fill="white" transform="translate(0.5)"/>
</clipPath>
</defs>
</svg>
