<svg width="33" height="32" viewBox="0 0 33 32" fill="none" xmlns="http://www.w3.org/2000/svg">
<g clip-path="url(#clip0_7_623)">
<path d="M32.5 16C32.5 7.16344 25.3366 0 16.5 0C7.66344 0 0.5 7.16344 0.5 16C0.5 24.8366 7.66344 32 16.5 32C25.3366 32 32.5 24.8366 32.5 16Z" fill="black"/>
<path d="M16.5 29.25C23.8178 29.25 29.75 23.3178 29.75 16C29.75 8.68223 23.8178 2.75 16.5 2.75C9.18223 2.75 3.25 8.68223 3.25 16C3.25 23.3178 9.18223 29.25 16.5 29.25Z" fill="url(#paint0_linear_7_623)"/>
<path d="M22.9486 10.3738L20.5833 22.304C20.5833 22.304 20.252 23.1322 19.3411 22.7336L13.8807 18.5464L11.8932 17.5889L8.5496 16.4657C8.5496 16.4657 8.0372 16.2846 7.98544 15.8861C7.93368 15.4875 8.56513 15.2753 8.56513 15.2753L21.8565 10.0633C21.8565 10.0581 22.9486 9.57678 22.9486 10.3738Z" fill="black"/>
<path d="M13.4566 22.1696C13.4566 22.1696 13.2962 22.1541 13.0995 21.5278C12.9028 20.9016 11.8936 17.5891 11.8936 17.5891L19.9212 12.4909C19.9212 12.4909 20.387 12.2114 20.3663 12.4909C20.3663 12.4909 20.4491 12.5427 20.2007 12.7704C19.9522 13.0033 13.8966 18.4482 13.8966 18.4482" fill="#D2E4F0"/>
<path d="M15.9712 20.151L13.8129 22.1229C13.8129 22.1229 13.6421 22.2523 13.4609 22.1695L13.875 18.5103" fill="#B5CFE4"/>
</g>
<defs>
<linearGradient id="paint0_linear_7_623" x1="16.5" y1="2.75" x2="16.5" y2="29.1533" gradientUnits="userSpaceOnUse">
<stop stop-color="#41BCE7"/>
<stop offset="1" stop-color="#22A6DC"/>
</linearGradient>
<clipPath id="clip0_7_623">
<rect width="32" height="32" fill="white" transform="translate(0.5)"/>
</clipPath>
</defs>
</svg>
