<svg width="33" height="32" viewBox="0 0 33 32" fill="none" xmlns="http://www.w3.org/2000/svg">
<mask id="mask0_7_629" style="mask-type:luminance" maskUnits="userSpaceOnUse" x="3" y="0" width="28" height="32">
<path d="M30.5 0H3.5V32H30.5V0Z" fill="white"/>
</mask>
<g mask="url(#mask0_7_629)">
<path d="M24.5099 14.8314C24.3747 14.7653 24.2374 14.7017 24.0983 14.6409C23.8561 10.0897 21.4172 7.48417 17.322 7.4575C17.3034 7.45738 17.285 7.45738 17.2664 7.45738C14.817 7.45738 12.7798 8.52348 11.5259 10.4635L13.7782 12.0388C14.7148 10.5897 16.1849 10.2808 17.2675 10.2808C17.28 10.2808 17.2926 10.2808 17.3049 10.2809C18.6533 10.2897 19.6708 10.6894 20.3294 11.469C20.8086 12.0366 21.1292 12.8208 21.2879 13.8106C20.0924 13.6035 18.7995 13.5398 17.4173 13.6206C13.5238 13.8492 11.0207 16.1646 11.1888 19.382C11.2741 21.014 12.0715 22.418 13.4339 23.3352C14.5858 24.1105 16.0695 24.4897 17.6114 24.4038C19.6476 24.29 21.2451 23.4978 22.3595 22.0493C23.2059 20.9493 23.7412 19.5238 23.9775 17.7277C24.948 18.3248 25.6672 19.1107 26.0643 20.0553C26.7397 21.6612 26.7791 24.3 24.6675 26.4513C22.8173 28.336 20.5934 29.1513 17.2323 29.1765C13.5041 29.1483 10.6844 27.9292 8.85118 25.5528C7.13448 23.3277 6.24729 20.1137 6.21419 16C6.24729 11.8863 7.13448 8.67227 8.85118 6.44712C10.6844 4.07082 13.504 2.85167 17.2323 2.82342C20.9876 2.85188 23.8564 4.0769 25.7598 6.46467C26.6932 7.6356 27.3968 9.10813 27.8607 10.8251L30.5 10.107C29.9377 7.9937 29.0529 6.17262 27.8489 4.66233C25.4087 1.60111 21.8399 0.0325247 17.2415 0H17.2231C12.6341 0.0324117 9.10518 1.60697 6.73448 4.67988C4.62487 7.4144 3.53668 11.2193 3.50011 15.9888L3.5 16L3.50011 16.0112C3.53668 20.7807 4.62487 24.5857 6.73448 27.3202C9.10518 30.393 12.6341 31.9677 17.2231 32H17.2415C21.3214 31.9712 24.1972 30.882 26.5663 28.4685C29.6659 25.311 29.5726 21.3532 28.551 18.9235C27.818 17.1812 26.4207 15.766 24.5099 14.8314ZM17.4656 21.5845C15.7591 21.6825 13.9863 20.9015 13.8989 19.2287C13.8341 17.9883 14.7646 16.6043 17.5703 16.4395C17.8916 16.4206 18.2069 16.4113 18.5167 16.4113C19.5358 16.4113 20.4893 16.5123 21.3561 16.7055C21.0327 20.8225 19.1363 21.491 17.4656 21.5845Z" fill="white"/>
</g>
</svg>
