<svg width="33" height="32" viewBox="0 0 33 32" fill="none" xmlns="http://www.w3.org/2000/svg">
<g clip-path="url(#clip0_7_635)">
<mask id="mask0_7_635" style="mask-type:luminance" maskUnits="userSpaceOnUse" x="0" y="8" width="33" height="17">
<path d="M32.5 8.5H0.5V24.0648H32.5V8.5Z" fill="white"/>
</mask>
<g mask="url(#mask0_7_635)">
<path d="M13.6446 8.5H13.6622C13.7965 8.65411 13.9484 8.7906 14.0915 8.9381L15.0646 9.91118V9.92879C14.5935 10.3977 14.1245 10.871 13.6534 11.34C13.1801 10.8688 12.7089 10.3955 12.2356 9.92439C12.2599 9.87816 12.306 9.84733 12.3413 9.80991C12.775 9.37181 13.2153 8.94031 13.6446 8.5ZM16.4845 8.5H16.5022C16.5154 8.51981 16.5286 8.53743 16.5462 8.55504C17.0019 9.00635 17.4511 9.46427 17.9111 9.91338C17.9001 9.9398 17.8759 9.95741 17.8561 9.97723C17.4004 10.4307 16.9469 10.8865 16.4912 11.34C16.0156 10.871 15.5489 10.3933 15.0712 9.92659C15.5335 9.44446 16.02 8.97993 16.4845 8.5ZM19.3245 8.5H19.3421C19.4302 8.60567 19.5337 8.69594 19.6283 8.795C19.985 9.15165 20.3395 9.5061 20.6961 9.86275C20.7137 9.88256 20.7423 9.90017 20.7489 9.92879C20.2712 10.3933 19.8089 10.8754 19.3289 11.34L17.975 9.98603C17.953 9.96181 17.9243 9.9442 17.9133 9.91338C18.1533 9.68002 18.3867 9.44005 18.6244 9.20449C18.8578 8.96893 19.0956 8.73997 19.3245 8.5ZM15.091 12.7379C15.5555 12.2734 16.0222 11.8089 16.4867 11.3422L16.5065 11.351C16.9732 11.8199 17.44 12.2888 17.9111 12.7534C17.8957 12.7886 17.8627 12.8084 17.8384 12.837C17.4995 13.1738 17.1604 13.5151 16.8213 13.8519C16.7113 13.9576 16.6056 14.0765 16.4934 14.1755C16.3326 14.0302 16.1851 13.8673 16.0288 13.7176C15.7118 13.4006 15.397 13.0836 15.0778 12.7688C15.0822 12.76 15.0866 12.7467 15.091 12.7379ZM0.505859 18.845H4.7416C4.7438 19.184 4.7438 19.5231 4.7416 19.8599H3.21594V23.8667C3.21374 23.9327 3.22034 23.9988 3.20713 24.0648H2.02932C2.03372 22.6624 2.03152 21.2623 2.03152 19.8599H0.505859V18.845ZM8.27505 18.845C8.67133 18.845 9.0676 18.845 9.46388 18.8472C9.46167 20.5864 9.46828 22.3256 9.45947 24.0648H8.27725C8.27065 23.6025 8.27505 23.1402 8.27285 22.6778C8.27505 21.401 8.27285 20.1241 8.27505 18.845ZM29.2358 18.845C29.6321 18.845 30.0283 18.845 30.4246 18.8472V23.0169C31.1137 23.0212 31.805 23.0191 32.4941 23.0191V24.0648H29.238C29.2314 22.3256 29.238 20.5864 29.2358 18.845ZM18.0608 20.5952C17.942 20.1857 17.7108 19.8137 17.3894 19.5341C16.9645 19.1576 16.4097 18.9529 15.8527 18.8802C15.5379 18.834 15.2187 18.8472 14.9017 18.845H13.4949C13.4685 18.845 13.4399 18.8472 13.4135 18.8516C13.4201 20.5754 13.4135 22.2992 13.4179 24.0229C13.4157 24.0339 13.4135 24.0538 13.4113 24.0648H15.4454C15.6282 24.0317 15.8153 24.0339 15.9958 23.9943C16.6122 23.882 17.2044 23.576 17.6073 23.0895C17.9045 22.7372 18.0873 22.2947 18.1467 21.839C18.1995 21.423 18.1775 20.9959 18.0608 20.5952ZM16.7201 22.3278C16.5726 22.5634 16.3547 22.7505 16.1015 22.865C15.8725 22.9706 15.6193 23.0191 15.3683 23.0257C15.1041 23.0279 14.84 23.0257 14.5758 23.0279C14.5626 22.7351 14.5736 22.4423 14.5692 22.1495C14.5692 21.3856 14.5692 20.6239 14.5714 19.8599H15.3882C15.7977 19.8687 16.2138 20.0096 16.511 20.3002C16.7773 20.5578 16.9271 20.9211 16.9513 21.2887C16.9755 21.6475 16.9094 22.0196 16.7201 22.3278ZM25.5725 22.8363C25.0749 21.6277 24.5796 20.4169 24.0777 19.2104C24.0314 19.0893 23.983 18.9661 23.9279 18.8494C23.5184 18.8428 23.109 18.8428 22.6995 18.8494C21.9994 20.5336 21.2993 22.2177 20.5992 23.8997C20.5772 23.9547 20.5508 24.0076 20.5398 24.0648H21.8057C21.9312 23.717 22.0655 23.3735 22.191 23.0257C22.9086 23.0147 23.6285 23.0235 24.3484 23.0213C24.3859 23.0103 24.3969 23.0499 24.4057 23.0763C24.5268 23.4065 24.6501 23.7346 24.7689 24.0648H26.0745C25.9159 23.6509 25.7398 23.2458 25.5725 22.8363ZM22.5255 22.0988C22.5189 22.0526 22.5476 22.013 22.5608 21.9711C22.8007 21.3437 23.0473 20.7163 23.2851 20.0888C23.2895 20.0866 23.2983 20.0844 23.3027 20.0844C23.5515 20.7449 23.8046 21.4031 24.0556 22.0636C24.0556 22.0724 24.0578 22.09 24.0578 22.0988C23.5471 22.0944 23.0363 22.0944 22.5255 22.0988Z" fill="white" stroke="white" stroke-width="0.161675"/>
</g>
</g>
<defs>
<clipPath id="clip0_7_635">
<rect width="32" height="32" fill="white" transform="translate(0.5)"/>
</clipPath>
</defs>
</svg>
