<svg width="33" height="32" viewBox="0 0 33 32" fill="none" xmlns="http://www.w3.org/2000/svg">
<g clip-path="url(#clip0_7_641)">
<path d="M32.5 16C32.5 7.16344 25.3366 0 16.5 0C7.66344 0 0.5 7.16344 0.5 16C0.5 24.8366 7.66344 32 16.5 32C25.3366 32 32.5 24.8366 32.5 16Z" fill="white"/>
<path d="M25.9996 11.3845V14.7826C25.8169 14.7826 25.5976 14.8191 25.3784 14.8191C23.7342 14.8191 22.1996 14.198 21.0303 13.2114V20.446C21.0303 21.9076 20.5553 23.296 19.715 24.3922C18.5457 25.9634 16.6457 27.023 14.49 27.023C12.1515 27.023 10.1054 25.7807 8.97266 23.9537C10.1419 25.0499 11.713 25.7441 13.4303 25.7441C15.5496 25.7441 17.4496 24.721 18.6188 23.1134C19.4226 22.0172 19.9342 20.6653 19.9342 19.1672V11.8961C21.1034 12.9191 22.6015 13.5037 24.2823 13.5037C24.5015 13.5037 24.6842 13.5037 24.9034 13.4672V11.2749C25.2323 11.348 25.5246 11.3845 25.8534 11.3845H25.9996Z" fill="#FF004F"/>
<path d="M15.4037 13.9057V17.6691C15.148 17.5961 14.8556 17.5595 14.5999 17.5595C12.9922 17.5595 11.6768 18.9114 11.6768 20.5557C11.6768 20.9211 11.7499 21.2499 11.8595 21.5787C11.1287 21.0307 10.6172 20.1538 10.6172 19.1672C10.6172 17.523 11.9326 16.1711 13.5403 16.1711C13.8326 16.1711 14.0883 16.2076 14.3441 16.2807V13.8691C14.4172 13.8691 14.4903 13.8691 14.5633 13.8691C14.8556 13.8691 15.148 13.8691 15.4037 13.9057Z" fill="#FF004F"/>
<path d="M21.5789 8.6805C20.9212 8.09589 20.4462 7.29204 20.1904 6.45166H21.0674C21.0674 6.63435 21.0674 6.78051 21.0674 6.9632C21.1404 7.54781 21.3231 8.13243 21.5789 8.6805Z" fill="#FF004F"/>
<path d="M24.9407 11.3113V13.5036C24.758 13.5401 24.5388 13.5401 24.3196 13.5401C22.6754 13.5401 21.1407 12.919 19.9715 11.9324V19.167C19.9715 20.6286 19.4965 22.017 18.6561 23.1132C17.4504 24.7209 15.5869 25.744 13.4677 25.744C11.7504 25.744 10.1792 25.0497 9.00998 23.9536C8.38882 22.9305 8.02344 21.7613 8.02344 20.4824C8.02344 16.9382 10.8369 14.0517 14.3446 13.942V16.3536C14.0888 16.2805 13.7965 16.244 13.5407 16.244C11.933 16.244 10.6177 17.5959 10.6177 19.2401C10.6177 20.2267 11.0927 21.1401 11.86 21.6516C12.2619 22.7843 13.358 23.6247 14.6004 23.6247C16.208 23.6247 17.5234 22.2728 17.5234 20.6286V6.45166H20.1907C20.4465 7.32858 20.9215 8.09589 21.5792 8.6805C22.2369 9.99589 23.4792 10.9824 24.9407 11.3113Z" fill="black"/>
<path d="M14.3442 12.6268V13.8691C10.8365 13.9787 8.02308 16.8652 8.02308 20.4095C8.02308 21.6883 8.38846 22.8575 9.00961 23.8806C7.76731 22.6749 7 20.9941 7 19.0941C7 15.4768 9.92307 12.5537 13.5038 12.5537C13.7961 12.5537 14.0885 12.5902 14.3442 12.6268Z" fill="#00F7EF"/>
<path d="M20.1901 6.45185H17.5228V20.5557C17.5228 22.1999 16.2074 23.5518 14.5998 23.5518C13.3209 23.5518 12.2613 22.748 11.8594 21.5788C12.3344 21.9076 12.919 22.1268 13.5401 22.1268C15.1478 22.1268 16.4632 20.8115 16.4632 19.1672V5.02686H20.0074V5.09993C20.0074 5.24609 20.0074 5.39224 20.044 5.53839C20.044 5.8307 20.1171 6.15955 20.1901 6.45185Z" fill="#00F7EF"/>
<path d="M24.9401 9.95951V11.2749C23.4785 10.9826 22.2362 9.99605 21.542 8.68066C22.4555 9.52105 23.6247 9.99605 24.9401 9.95951Z" fill="#00F7EF"/>
</g>
<defs>
<clipPath id="clip0_7_641">
<rect width="32" height="32" fill="white" transform="translate(0.5)"/>
</clipPath>
</defs>
</svg>
