<svg width="33" height="32" viewBox="0 0 33 32" fill="none" xmlns="http://www.w3.org/2000/svg">
<g clip-path="url(#clip0_7_658)">
<path d="M32.5 16C32.5 7.16344 25.3366 0 16.5 0C7.66344 0 0.5 7.16344 0.5 16C0.5 24.8366 7.66344 32 16.5 32C25.3366 32 32.5 24.8366 32.5 16Z" fill="#39475D"/>
<path d="M22.0169 24.2592C21.3801 24.9408 19.9017 25.4016 18.5769 25.424H18.4329C13.9849 25.424 13.0217 22.1536 13.0217 20.2464V14.944H11.2713C11.0697 14.944 10.9033 14.7808 10.9033 14.576V12.0736C10.9033 11.808 11.0697 11.5744 11.3193 11.4848C13.6009 10.6816 14.3177 8.68795 14.4233 7.17435C14.4521 6.77115 14.6633 6.57275 15.0153 6.57275H17.6265C17.8281 6.57275 17.9945 6.73595 17.9945 6.94075V11.1808H21.0505C21.2521 11.1808 21.4185 11.344 21.4185 11.5456V14.5536C21.4185 14.7552 21.2553 14.9216 21.0505 14.9216H17.9785V19.824C17.9785 21.056 18.7913 21.3952 19.2905 21.3952C19.7705 21.3824 20.2441 21.2384 20.4809 21.1424C20.6569 21.072 20.8105 21.024 20.9513 21.0592C21.0793 21.0912 21.1657 21.184 21.2233 21.3504L22.0329 23.7184C22.0969 23.9104 22.1513 24.1152 22.0169 24.2592Z" fill="black"/>
</g>
<defs>
<clipPath id="clip0_7_658">
<rect width="32" height="32" fill="white" transform="translate(0.5)"/>
</clipPath>
</defs>
</svg>
