<svg width="33" height="32" viewBox="0 0 33 32" fill="none" xmlns="http://www.w3.org/2000/svg">
<g clip-path="url(#clip0_7_665)">
<mask id="mask0_7_665" style="mask-type:luminance" maskUnits="userSpaceOnUse" x="0" y="0" width="33" height="32">
<path d="M32.5 16C32.5 7.16344 25.3366 0 16.5 0C7.66344 0 0.5 7.16344 0.5 16C0.5 24.8366 7.66344 32 16.5 32C25.3366 32 32.5 24.8366 32.5 16Z" fill="white"/>
</mask>
<g mask="url(#mask0_7_665)">
<path d="M27.7 0H5.3C2.64903 0 0.5 2.14903 0.5 4.8V27.2C0.5 29.851 2.64903 32 5.3 32H27.7C30.351 32 32.5 29.851 32.5 27.2V4.8C32.5 2.14903 30.351 0 27.7 0Z" fill="#3396CD"/>
<path d="M24.3377 6.58105C25.0252 7.7123 25.3314 8.8748 25.3314 10.3498C25.3314 15.0436 21.3252 21.1436 18.0689 25.4248H10.6439L7.66895 7.6123L14.1752 6.99355L15.7564 19.6686C17.2252 17.2686 19.0439 13.4998 19.0439 10.9373C19.0439 9.53105 18.8002 8.5748 18.4252 7.7873L24.3377 6.58105Z" fill="black"/>
</g>
</g>
<defs>
<clipPath id="clip0_7_665">
<rect width="32" height="32" fill="white" transform="translate(0.5)"/>
</clipPath>
</defs>
</svg>
