<svg width="33" height="33" viewBox="0 0 33 33" fill="none" xmlns="http://www.w3.org/2000/svg">
<g clip-path="url(#clip0_7_672)">
<mask id="mask0_7_672" style="mask-type:luminance" maskUnits="userSpaceOnUse" x="0" y="0" width="33" height="33">
<path d="M32.5 16.5C32.5 7.66344 25.3366 0.5 16.5 0.5C7.66344 0.5 0.5 7.66344 0.5 16.5C0.5 25.3366 7.66344 32.5 16.5 32.5C25.3366 32.5 32.5 25.3366 32.5 16.5Z" fill="white"/>
</mask>
<g mask="url(#mask0_7_672)">
<path d="M28.5 0.5H4.5C2.29086 0.5 0.5 2.29086 0.5 4.5V28.5C0.5 30.7091 2.29086 32.5 4.5 32.5H28.5C30.7091 32.5 32.5 30.7091 32.5 28.5V4.5C32.5 2.29086 30.7091 0.5 28.5 0.5Z" fill="#7B519D"/>
<path fill-rule="evenodd" clip-rule="evenodd" d="M24.9617 20.8979C24.3397 20.4002 23.6748 19.9535 23.0205 19.4972C21.7154 18.5864 20.5217 18.5156 19.5478 19.981C19.0009 20.8037 18.2353 20.8397 17.4349 20.4788C15.228 19.4845 13.524 17.9525 12.5258 15.7236C12.0842 14.7376 12.09 13.8535 13.1232 13.156C13.6701 12.7872 14.2212 12.3508 14.1772 11.5448C14.1196 10.494 11.5519 6.98212 10.5379 6.61147C10.1183 6.45806 9.70048 6.46799 9.27362 6.61059C6.89593 7.40511 5.91115 9.34817 6.8543 11.6488C9.66796 18.5128 14.6196 23.2913 21.4358 26.2079C21.8244 26.3739 22.2562 26.4403 22.4748 26.4999C24.0266 26.5154 25.8445 25.0297 26.3695 23.5553C26.875 22.1368 25.8067 21.5737 24.9617 20.8979Z" fill="black"/>
<path fill-rule="evenodd" clip-rule="evenodd" d="M17.5101 7.54907C22.4834 8.28433 24.7771 10.5578 25.4104 15.3733C25.4691 15.8182 25.2968 16.4875 25.9569 16.4998C26.6468 16.5125 26.4806 15.8531 26.4864 15.4078C26.5447 10.8724 22.4312 6.66796 17.6539 6.51293C17.2934 6.56276 16.5476 6.27396 16.5011 7.05059C16.4701 7.57424 17.098 7.48816 17.5101 7.54907Z" fill="black"/>
<path fill-rule="evenodd" clip-rule="evenodd" d="M17.7755 9.29149C17.2778 9.287 16.6001 9.11343 16.5771 9.87234C16.5536 10.6687 17.2645 10.5008 17.7416 10.5575C20.9813 10.9417 22.2304 12.0617 23.168 15.4171C23.3048 15.9062 23.2498 16.7005 24.007 16.477C24.5681 16.3111 24.2795 15.6714 24.2798 15.2771C23.9021 11.9916 20.9687 9.31915 17.7755 9.29149Z" fill="black"/>
<path fill-rule="evenodd" clip-rule="evenodd" d="M18.3524 12.5005C18.0101 12.5087 17.6742 12.5445 17.5484 12.8981C17.3595 13.4265 17.7569 13.5526 18.1615 13.6154C19.512 13.825 20.2227 14.5949 20.3576 15.8968C20.3941 16.2502 20.626 16.5365 20.9792 16.4962C21.4684 16.4398 21.5126 16.0188 21.4977 15.6189C21.5218 14.1562 19.8117 12.4655 18.3524 12.5005Z" fill="black"/>
</g>
</g>
<defs>
<clipPath id="clip0_7_672">
<rect width="32" height="33" fill="white" transform="translate(0.5)"/>
</clipPath>
</defs>
</svg>
