<svg width="33" height="32" viewBox="0 0 33 32" fill="none" xmlns="http://www.w3.org/2000/svg">
<g clip-path="url(#clip0_7_682)">
<mask id="mask0_7_682" style="mask-type:luminance" maskUnits="userSpaceOnUse" x="0" y="2" width="33" height="28">
<path d="M32.5 2H0.5V29.6096H32.5V2Z" fill="white"/>
</mask>
<g mask="url(#mask0_7_682)">
<path d="M32.4809 8.38697C32.3375 11.4935 30.1628 15.7482 25.9567 21.1498C21.6073 26.7895 17.926 29.6107 14.9154 29.6107C13.0517 29.6107 11.4735 27.8903 10.1833 24.4484L7.60279 14.9841C6.64535 11.5409 5.61751 9.82057 4.51927 9.82057C4.27991 9.82057 3.44407 10.3223 2.00919 11.3258L0.503906 9.39049C2.06807 8.01577 3.62071 6.62953 5.16439 5.23177C7.26743 3.41545 8.84439 2.45929 9.89655 2.36457C12.3823 2.12521 13.9119 3.82249 14.4853 7.45513C15.1061 11.3745 15.5375 13.8129 15.7756 14.7678C16.4924 18.0177 17.2809 19.6433 18.141 19.6433C18.8105 19.6433 19.814 18.5911 21.1529 16.4881C22.4917 14.385 23.2085 12.7838 23.3033 11.6842C23.494 9.86793 22.7772 8.95913 21.1529 8.95913C20.3887 8.95913 19.5989 9.12681 18.7874 9.46089C20.3644 4.34601 23.3762 1.86153 27.8217 2.00489C31.1189 2.10089 32.6716 4.22825 32.4809 8.38697Z" fill="#1AB7EA"/>
</g>
</g>
<defs>
<clipPath id="clip0_7_682">
<rect width="32" height="32" fill="white" transform="translate(0.5)"/>
</clipPath>
</defs>
</svg>
