<svg width="33" height="32" viewBox="0 0 33 32" fill="none" xmlns="http://www.w3.org/2000/svg">
<path d="M2.50024 6.9502C3.55024 6.9502 5.15024 6.9502 6.05024 6.9502C6.50024 6.9502 6.85024 7.2502 7.00024 7.6502C7.45024 8.9502 8.45024 11.8002 9.60024 13.7502C11.1502 16.3002 12.1502 17.2502 12.8002 17.1502C13.4502 17.0002 13.2502 15.3002 13.2502 13.9502C13.2502 12.6002 13.4002 10.3002 12.7502 9.2502L11.7502 7.8002C11.5002 7.4502 11.7502 7.0002 12.1502 7.0002H17.8502C18.4002 7.0002 18.8502 7.4502 18.8502 8.0002V15.2502C18.8502 15.2502 19.1002 16.5502 20.5002 15.2002C21.9002 13.8502 23.4002 11.3502 24.6502 8.8002L25.1502 7.6002C25.3002 7.2502 25.6502 7.0002 26.0502 7.0002H29.7502C30.4502 7.0002 30.9502 7.70019 30.7002 8.35019L30.3002 9.4002C30.3002 9.4002 28.9502 12.1002 27.5502 14.0002C26.1502 15.9502 25.8502 16.4002 26.0502 16.9002C26.2502 17.4002 29.8502 20.7502 30.7502 22.3502C31.0002 22.8002 31.2002 23.2002 31.4002 23.5502C31.7502 24.2002 31.2502 25.0502 30.5002 25.0502H26.3002C25.9502 25.0502 25.6002 24.8502 25.4502 24.5502L25.0502 23.9002C25.0502 23.9002 22.5002 20.9002 20.9502 19.9502C19.3502 19.0502 19.4002 20.3502 19.4002 20.3502V23.0002C19.4002 24.1002 18.5002 25.0002 17.4002 25.0002H16.4002C16.4002 25.0002 10.9002 25.0002 6.50024 18.4502C3.05024 13.3502 1.90024 10.0502 1.50024 8.1502C1.40024 7.5502 1.85024 6.9502 2.50024 6.9502Z" fill="#5181B8"/>
</svg>
