<svg width="33" height="32" viewBox="0 0 33 32" fill="none" xmlns="http://www.w3.org/2000/svg">
<path d="M16.4899 1.91121C16.4236 1.91228 16.3578 1.92366 16.2949 1.94496C15.2095 1.96099 14.1427 2.07739 13.1324 2.32996C12.6943 2.43664 12.2612 2.57146 11.8312 2.72871C11.7281 2.74032 11.6295 2.77678 11.5437 2.83496C10.9939 3.03597 10.4604 3.26881 9.95367 3.53746C9.12182 3.9695 8.34268 4.50597 7.61367 5.10246C7.51608 5.1421 7.42978 5.20521 7.36242 5.28621C7.29431 5.34315 7.22622 5.39998 7.15992 5.46121C6.31598 6.21138 5.5588 7.06163 4.90867 7.99996C4.71736 8.27502 4.54208 8.56154 4.37367 8.84996C4.30624 8.92584 4.25782 9.01667 4.23242 9.11496C3.49337 10.4225 2.9601 11.8636 2.67867 13.3862C2.63561 13.4763 2.6142 13.5751 2.61617 13.675C2.57893 13.8828 2.54322 14.0923 2.51992 14.3137C2.45361 14.8675 2.41992 15.4281 2.41992 16C2.41992 16.5718 2.45361 17.1324 2.51992 17.6862C2.54322 17.9076 2.57893 18.1171 2.61617 18.325C2.6144 18.4243 2.6358 18.5228 2.67867 18.6125C2.95983 20.1343 3.49152 21.5753 4.22992 22.8825C4.25569 22.9819 4.30499 23.0736 4.37367 23.15C4.54226 23.4387 4.71714 23.7259 4.90867 24.0012C5.55949 24.9404 6.3168 25.7836 7.15742 26.5375C7.22351 26.5986 7.29206 26.6544 7.35992 26.7112L7.36117 26.7125C7.42893 26.7947 7.51615 26.8587 7.61492 26.8987H7.61617C8.34459 27.4945 9.12264 28.0308 9.95367 28.4625C10.4604 28.7311 10.9939 28.9639 11.5437 29.165C11.6291 29.2229 11.7273 29.2594 11.8299 29.2712C12.2603 29.4287 12.6939 29.5632 13.1324 29.67C14.1427 29.9225 15.2095 30.0389 16.2949 30.055C16.4279 30.0999 16.572 30.0999 16.7049 30.055C17.7903 30.0389 18.8572 29.9225 19.8674 29.67C20.3056 29.5633 20.7387 29.4285 21.1687 29.2712C21.2717 29.2596 21.3704 29.2231 21.4562 29.165C22.0059 28.9639 22.5394 28.7311 23.0462 28.4625C23.878 28.0304 24.6572 27.4939 25.3862 26.8975C25.4838 26.8578 25.5701 26.7947 25.6374 26.7137C25.7062 26.6562 25.7755 26.5994 25.8424 26.5375C26.683 25.7836 27.4404 24.9404 28.0912 24.0012V24C28.2825 23.7249 28.4578 23.4384 28.6262 23.15C28.6936 23.0741 28.742 22.9832 28.7674 22.885C29.5065 21.5774 30.0397 20.1363 30.3212 18.6137C30.3642 18.5236 30.3856 18.4248 30.3837 18.325C30.4209 18.1171 30.4566 17.9076 30.4799 17.6862C30.5462 17.1324 30.5799 16.5718 30.5799 16C30.5799 15.4281 30.5462 14.8675 30.4799 14.3137C30.4566 14.0923 30.4209 13.8828 30.3837 13.675C30.3854 13.5756 30.364 13.4771 30.3212 13.3875C30.04 11.8656 29.5083 10.4246 28.7699 9.11746C28.7442 9.01805 28.6949 8.9263 28.6262 8.84996C28.4578 8.56154 28.2825 8.27502 28.0912 7.99996V7.99871C27.4412 7.06072 26.6836 6.21117 25.8399 5.46121C25.7745 5.40079 25.7071 5.34494 25.6399 5.28871L25.6387 5.28746C25.5709 5.20522 25.4837 5.1412 25.3849 5.10121H25.3837C24.6553 4.50546 23.8772 3.96907 23.0462 3.53746C22.5394 3.26881 22.0059 3.03597 21.4562 2.83496C21.3707 2.77697 21.2725 2.74051 21.1699 2.72871C20.7395 2.57126 20.306 2.43674 19.8674 2.32996C18.8572 2.07739 17.7903 1.96099 16.7049 1.94496C16.6357 1.92152 16.563 1.9101 16.4899 1.91121ZM11.6937 2.76871C11.6893 2.77025 11.6856 2.7734 11.6812 2.77496C11.6792 2.77572 11.677 2.77544 11.6749 2.77621L11.6937 2.76871ZM21.3062 2.76871L21.3249 2.77621C21.3229 2.77544 21.3207 2.77572 21.3187 2.77496C21.3143 2.7734 21.3106 2.77026 21.3062 2.76871ZM15.8599 3.27746V5.83621C15.246 5.87504 14.6306 5.91264 14.0512 6.05371H14.0499C13.9019 6.09 13.7576 6.14482 13.6112 6.18746L12.7362 3.78621C12.9693 3.7145 13.1935 3.6321 13.4387 3.57246L13.4424 3.57121C14.2111 3.37902 15.035 3.31944 15.8599 3.27746ZM17.1399 3.27746C17.9649 3.31944 18.7887 3.37902 19.5574 3.57121L19.5612 3.57246C19.8064 3.6321 20.0306 3.7145 20.2637 3.78621L19.3887 6.18746C19.2422 6.14482 19.0979 6.09 18.9499 6.05371H18.9487C18.3693 5.91264 17.7538 5.87504 17.1399 5.83621V3.27746ZM11.5374 4.23246L12.4112 6.63621C12.187 6.7341 11.9587 6.81727 11.7412 6.93496L11.7399 6.93621C11.3966 7.11698 11.0902 7.3691 10.7662 7.58871C10.6354 7.60593 10.5132 7.66312 10.4162 7.75246L8.80617 5.83496C9.36475 5.41211 9.92899 4.99144 10.5487 4.66996L10.5537 4.66746C10.8737 4.49781 11.2072 4.37138 11.5374 4.23246ZM21.4624 4.23246C21.7926 4.37138 22.1262 4.49781 22.4462 4.66746L22.4512 4.66996C23.0709 4.99144 23.6351 5.41211 24.1937 5.83496L22.5837 7.75246C22.4865 7.66357 22.3643 7.60683 22.2337 7.58996C21.9094 7.37019 21.6035 7.11709 21.2599 6.93621C21.0419 6.81821 20.8133 6.73432 20.5887 6.63621L21.4624 4.23246ZM7.81242 6.64121L9.46367 8.60871C8.95672 9.09208 8.47035 9.60157 8.06867 10.1837C8.03331 10.2345 8.0063 10.2876 7.97242 10.3387L5.75367 9.05746C5.82338 8.94916 5.88717 8.83453 5.95992 8.72996V8.72871C6.49426 7.9575 7.1319 7.27443 7.81242 6.64121ZM25.1874 6.64121C25.8679 7.27443 26.5056 7.9575 27.0399 8.72871V8.72996C27.1127 8.83453 27.1765 8.94916 27.2462 9.05746L25.0274 10.3387C24.9935 10.2876 24.9665 10.2345 24.9312 10.1837L24.9287 10.1812C24.5275 9.60017 24.0423 9.09127 23.5362 8.60871L25.1874 6.64121ZM15.8599 7.11621V9.63246C14.9259 9.72587 14.0529 10.0259 13.2799 10.4787L11.7924 8.43246C11.9791 8.31703 12.1416 8.17051 12.3374 8.06746C12.3395 8.06622 12.3416 8.06497 12.3437 8.06371C12.6685 7.88751 13.0171 7.73887 13.3724 7.60621C13.421 7.59384 13.468 7.5758 13.5124 7.55246C13.7816 7.45367 14.0583 7.36896 14.3549 7.29621L14.3537 7.29746C14.8363 7.17997 15.35 7.15298 15.8599 7.11621ZM17.1399 7.11621C17.6498 7.15297 18.1636 7.17996 18.6462 7.29746L18.6449 7.29621C18.9419 7.36906 19.2192 7.45349 19.4887 7.55246C19.5338 7.57641 19.5816 7.59488 19.6312 7.60746C19.9852 7.7398 20.3324 7.88812 20.6562 8.06371C20.6582 8.06497 20.6603 8.06622 20.6624 8.06746C20.8582 8.17051 21.0207 8.31703 21.2074 8.43246L19.7199 10.4787C18.947 10.0259 18.0739 9.72587 17.1399 9.63246V7.11621ZM10.7349 9.15371L12.2462 11.2337C11.5682 11.8396 11.017 12.5839 10.6449 13.4262L8.21367 12.6337C8.35792 12.2691 8.51649 11.9144 8.70992 11.5825C8.73958 11.5418 8.76434 11.4977 8.78367 11.4512C8.89203 11.2649 9.00204 11.0846 9.12117 10.9137L9.12242 10.9112C9.53413 10.3145 10.019 9.76978 10.5574 9.29121L10.5599 9.28871C10.5994 9.25315 10.622 9.2345 10.6499 9.21121L10.6524 9.20996C10.6813 9.19338 10.7089 9.17458 10.7349 9.15371ZM22.2649 9.15371C22.2902 9.17361 22.3169 9.19158 22.3449 9.20746C22.3737 9.23129 22.3983 9.25128 22.4399 9.28871L22.4424 9.29121C22.9808 9.76978 23.4657 10.3145 23.8774 10.9112L23.8787 10.9137C23.998 11.0849 24.1076 11.2658 24.2162 11.4525C24.2357 11.4999 24.2609 11.5448 24.2912 11.5862L24.2924 11.5875C24.4835 11.9159 24.6422 12.269 24.7899 12.6325L22.3549 13.4262C21.9828 12.5839 21.4317 11.8396 20.7537 11.2337L22.2649 9.15371ZM5.13992 10.18L7.35867 11.46C7.2107 11.7585 7.04661 12.0503 6.93117 12.3625V12.3637C6.89766 12.4495 6.88618 12.5456 6.85492 12.6325C6.80306 12.6987 6.76477 12.7746 6.74225 12.8556C6.71973 12.9367 6.71342 13.0214 6.72367 13.105C6.67397 13.268 6.62598 13.4317 6.58492 13.5987L4.05992 13.1537C4.29581 12.1078 4.65953 11.1119 5.13992 10.18ZM27.8599 10.18C28.3403 11.1119 28.704 12.1078 28.9399 13.1537L26.4174 13.5987C26.3763 13.4283 26.3276 13.2607 26.2774 13.0937C26.2942 12.9329 26.2496 12.7717 26.1524 12.6425C26.1201 12.5516 26.11 12.4523 26.0749 12.3625C25.9561 12.0515 25.7925 11.7578 25.6437 11.4587L27.8599 10.18ZM16.4249 10.8837C16.4764 10.89 16.5284 10.89 16.5799 10.8837C17.6206 10.8997 18.5849 11.2212 19.3849 11.7662C19.4483 11.8418 19.5283 11.9017 19.6187 11.9412C20.3912 12.5349 20.9858 13.3432 21.3187 14.28C21.3271 14.3816 21.3597 14.4797 21.4137 14.5662C21.5456 15.0214 21.6199 15.5013 21.6199 16C21.6199 16.4978 21.5452 16.9767 21.4137 17.4312C21.3593 17.5184 21.3267 17.6175 21.3187 17.72C20.9862 18.6556 20.3923 19.4627 19.6212 20.0562C19.5297 20.0961 19.4487 20.1569 19.3849 20.2337C18.5836 20.7796 17.6175 21.1012 16.5749 21.1162C16.5234 21.1099 16.4714 21.1099 16.4199 21.1162C14.2249 21.0825 12.3775 19.6793 11.6812 17.72C11.6728 17.6183 11.6402 17.5202 11.5862 17.4337C11.4543 16.9785 11.3799 16.4986 11.3799 16C11.3799 15.5021 11.4547 15.0232 11.5862 14.5687C11.6406 14.4815 11.6732 14.3824 11.6812 14.28C12.378 12.3191 14.2277 10.9153 16.4249 10.8837ZM25.1674 13.855C25.2108 14.0309 25.2802 14.1964 25.3124 14.3775C25.3159 14.4271 25.3251 14.4762 25.3399 14.5237C25.3598 14.658 25.3799 14.7887 25.3937 14.9125V14.9175C25.4357 15.2721 25.4599 15.6375 25.4599 16C25.4599 16.3624 25.4357 16.7278 25.3937 17.0825V17.0875C25.3798 17.212 25.36 17.3435 25.3399 17.4787C25.3254 17.525 25.3162 17.5728 25.3124 17.6212C25.2802 17.8027 25.2109 17.9687 25.1674 18.145L22.7512 17.3587C22.8466 16.9202 22.8999 16.4665 22.8999 16C22.8999 15.5334 22.8466 15.0797 22.7512 14.6412L25.1674 13.855ZM7.83492 13.8562L10.2487 14.6412C10.1533 15.0797 10.0999 15.5334 10.0999 16C10.0999 16.4665 10.1533 16.9202 10.2487 17.3587L7.83492 18.1437C7.79073 17.9681 7.71952 17.801 7.68742 17.6212C7.68388 17.572 7.67465 17.5233 7.65992 17.4762C7.64004 17.342 7.61992 17.2112 7.60617 17.0875V17.0825C7.56409 16.7278 7.53992 16.3624 7.53992 16C7.53992 15.6375 7.56409 15.2721 7.60617 14.9175V14.9125C7.62001 14.7879 7.63989 14.6564 7.65992 14.5212C7.67437 14.4753 7.68359 14.4279 7.68742 14.38C7.71956 14.1997 7.79063 14.0322 7.83492 13.8562ZM3.79867 14.4075L6.32992 14.8537C6.28846 15.2277 6.25992 15.6112 6.25992 16C6.25992 16.3887 6.28846 16.7722 6.32992 17.1462L3.79867 17.5925C3.79719 17.5792 3.79382 17.5657 3.79242 17.5525C3.79203 17.5491 3.79161 17.5458 3.79117 17.5425C3.73028 17.037 3.69992 16.5256 3.69992 16C3.69992 15.4744 3.73028 14.9629 3.79117 14.4575C3.79161 14.4541 3.79203 14.4508 3.79242 14.4475C3.79382 14.4342 3.79719 14.4207 3.79867 14.4075ZM29.2012 14.4075C29.2026 14.4207 29.206 14.4342 29.2074 14.4475C29.2078 14.4508 29.2082 14.4541 29.2087 14.4575C29.2695 14.9629 29.2999 15.4744 29.2999 16C29.2999 16.5256 29.2696 17.037 29.2087 17.5425C29.2082 17.5458 29.2078 17.5491 29.2074 17.5525C29.206 17.5657 29.2026 17.5792 29.2012 17.5925L26.6699 17.1462C26.7114 16.7722 26.7399 16.3887 26.7399 16C26.7399 15.6112 26.7114 15.2277 26.6699 14.8537L29.2012 14.4075ZM6.58492 18.4012C6.62608 18.5686 6.67384 18.7328 6.72367 18.8962C6.7033 19.0645 6.7505 19.2339 6.85492 19.3675C6.88618 19.4543 6.89766 19.5504 6.93117 19.6362V19.6375C7.04661 19.9496 7.2107 20.2414 7.35867 20.54L5.13992 21.82C4.65953 20.888 4.29581 19.8921 4.05992 18.8462L6.58492 18.4012ZM26.4174 18.4012L28.9399 18.8462C28.704 19.8921 28.3403 20.8881 27.8599 21.82L25.6437 20.5412C25.7925 20.2422 25.9561 19.9484 26.0749 19.6375C26.1102 19.5472 26.12 19.4475 26.1524 19.3562C26.2499 19.2266 26.2946 19.0649 26.2774 18.9037C26.3274 18.7375 26.3765 18.5708 26.4174 18.4012ZM10.6449 18.5737C11.017 19.416 11.5682 20.1603 12.2462 20.7662L10.7349 22.8462C10.7096 22.8263 10.6829 22.8083 10.6549 22.7925C10.6261 22.7686 10.6015 22.7486 10.5599 22.7112L10.5574 22.7087C10.019 22.2301 9.53413 21.6854 9.12242 21.0887L9.12117 21.0862C9.00184 20.915 8.8922 20.7341 8.78367 20.5475C8.76412 20.5 8.73894 20.4551 8.70867 20.4137V20.4125C8.5163 20.0818 8.35729 19.7293 8.21367 19.3662L10.6449 18.5737ZM22.3549 18.5737L24.7899 19.3675C24.6416 19.7323 24.4819 20.0867 24.2899 20.4162C24.2602 20.4573 24.2354 20.5018 24.2162 20.5487C24.1078 20.735 23.9978 20.9153 23.8787 21.0862L23.8774 21.0887C23.4657 21.6854 22.9808 22.2301 22.4424 22.7087L22.4399 22.7112C22.4004 22.7468 22.3779 22.7654 22.3499 22.7887L22.3474 22.79C22.3185 22.8065 22.2909 22.8253 22.2649 22.8462L20.7537 20.7662C21.4317 20.1603 21.9828 19.416 22.3549 18.5737ZM13.2799 21.5212C14.0529 21.974 14.9259 22.274 15.8599 22.3675V24.8837C15.35 24.8469 14.8363 24.82 14.3537 24.7025L14.3549 24.7037C14.0579 24.6309 13.7807 24.5464 13.5112 24.4475C13.466 24.4235 13.4182 24.405 13.3687 24.3925C13.0146 24.2601 12.6674 24.1118 12.3437 23.9362C12.3416 23.9349 12.3395 23.9337 12.3374 23.9325C12.1416 23.8294 11.9791 23.6829 11.7924 23.5675L13.2799 21.5212ZM19.7199 21.5212L21.2074 23.5675C21.0207 23.6829 20.8582 23.8294 20.6624 23.9325C20.6603 23.9337 20.6582 23.9349 20.6562 23.9362C20.3313 24.1124 19.9828 24.261 19.6274 24.3937C19.5788 24.4061 19.5318 24.4241 19.4874 24.4475C19.2182 24.5462 18.9415 24.631 18.6449 24.7037L18.6462 24.7025C18.1636 24.82 17.6498 24.8469 17.1399 24.8837V22.3675C18.0739 22.274 18.947 21.974 19.7199 21.5212ZM7.97242 21.6612C8.00694 21.7133 8.0351 21.767 8.07117 21.8187C8.47237 22.3997 8.95757 22.9086 9.46367 23.3912L7.81242 25.3587C7.13034 24.7203 6.49308 24.0407 5.95992 23.2712V23.27C5.88717 23.1654 5.82338 23.0508 5.75367 22.9425L7.97242 21.6612ZM25.0274 21.6612L27.2462 22.9425C27.1765 23.0508 27.1127 23.1654 27.0399 23.27V23.2712C26.5068 24.0407 25.8695 24.7203 25.1874 25.3587L23.5362 23.3912C24.0423 22.9086 24.5275 22.3997 24.9287 21.8187L24.9312 21.8162C24.9665 21.7654 24.9935 21.7124 25.0274 21.6612ZM10.4162 24.2475C10.5132 24.3368 10.6354 24.394 10.7662 24.4112C11.0902 24.6308 11.3966 24.8829 11.7399 25.0637L11.7412 25.065C11.9587 25.1826 12.187 25.2658 12.4112 25.3637L11.5374 27.7675C11.2072 27.6285 10.8737 27.5021 10.5537 27.3325L10.5487 27.33C9.92895 27.0084 9.36475 26.5878 8.80617 26.165L10.4162 24.2475ZM22.5837 24.2487L24.1937 26.165C23.6351 26.5878 23.0709 27.0085 22.4512 27.33L22.4462 27.3325C22.1262 27.5021 21.7926 27.6285 21.4624 27.7675L20.5887 25.3637C20.8128 25.2658 21.0411 25.1826 21.2587 25.065L21.2599 25.0637C21.6033 24.8829 21.9096 24.6308 22.2337 24.4112C22.3643 24.3943 22.4865 24.3376 22.5837 24.2487ZM13.6112 25.8125C13.7576 25.8551 13.9019 25.9099 14.0499 25.9462H14.0512C14.6306 26.0873 15.246 26.1249 15.8599 26.1637V28.7225C15.035 28.6805 14.2112 28.6209 13.4424 28.4287L13.4387 28.4275C13.1935 28.3678 12.9693 28.2854 12.7362 28.2137L13.6112 25.8125ZM19.3887 25.8125L20.2637 28.2137C20.0306 28.2854 19.8064 28.3678 19.5612 28.4275L19.5574 28.4287C18.7887 28.6208 17.9649 28.6805 17.1399 28.7225V26.1637C17.7538 26.1249 18.3693 26.0873 18.9487 25.9462H18.9499C19.0979 25.9099 19.2422 25.8551 19.3887 25.8125ZM11.6749 29.2237C11.6769 29.2245 11.6791 29.2242 11.6812 29.225C11.6856 29.2265 11.6892 29.2296 11.6937 29.2312L11.6749 29.2237ZM21.3249 29.2237L21.3062 29.2312C21.3107 29.2297 21.3142 29.2266 21.3187 29.225C21.3207 29.2243 21.3229 29.2244 21.3249 29.2237Z" fill="white"/>
</svg>
