<svg width="34" height="32" viewBox="0 0 34 32" fill="none" xmlns="http://www.w3.org/2000/svg">
<g clip-path="url(#clip0_7_692)">
<mask id="mask0_7_692" style="mask-type:luminance" maskUnits="userSpaceOnUse" x="1" y="0" width="33" height="32">
<path d="M33.2324 0H1.23242V32H33.2324V0Z" fill="white"/>
</mask>
<g mask="url(#mask0_7_692)">
<path fill-rule="evenodd" clip-rule="evenodd" d="M18.8316 1.71143C14.8758 1.71143 11.1875 3.48871 8.69851 6.64455C6.96475 8.86663 6.03163 11.6225 6.03163 14.4225V16.7777C6.03163 17.7997 5.63163 18.7777 4.96475 19.4887C4.43163 20.0225 3.76475 20.4225 3.05371 20.6004C3.32059 21.2666 3.94267 22.2887 5.05371 23.4004C5.98747 24.3777 7.09851 25.1777 8.29851 25.7556V25.7114C9.05371 24.5556 10.2985 23.8887 11.6758 23.8887C11.9427 23.8887 12.1648 23.9335 12.4316 23.9777C14.0316 24.2887 15.2758 25.5335 15.5875 27.0887H18.8758C22.2985 27.0887 25.5427 25.6666 27.8985 23.3556C31.5427 19.7114 32.6537 14.2445 30.6537 9.53351C28.6537 4.77767 24.0316 1.71143 18.8316 1.71143Z" fill="black"/>
<path fill-rule="evenodd" clip-rule="evenodd" d="M18.8319 0.111328C14.4319 0.111328 10.2988 2.06653 7.49882 5.57757C5.49882 8.11133 4.43194 11.2224 4.43194 14.4665V16.7776C4.43194 17.9776 3.58778 19.0886 1.94298 19.1776C1.54298 19.1776 1.23194 19.4886 1.18778 19.8886C1.14298 20.9555 2.29882 22.9555 3.89882 24.5555C5.00986 25.6665 6.29882 26.5555 7.6761 27.2665C7.23194 29.7113 9.14298 31.9334 11.6319 31.9334H11.6761C13.5878 31.9334 15.1878 30.6003 15.5878 28.7776H18.9209C19.2761 30.6003 20.8761 31.9334 22.8319 31.9334C23.2761 31.9334 23.7651 31.8444 24.2099 31.7113C25.3209 31.3555 26.1651 30.5113 26.5651 29.3996C26.9209 28.3776 26.8761 27.3555 26.5651 26.5113C27.454 25.9334 28.254 25.3113 29.0099 24.5555C31.7209 21.8886 33.2319 18.2444 33.2319 14.4665C33.2319 10.6444 31.7209 7.08861 29.0099 4.37757C26.2988 1.57757 22.654 0.111328 18.8319 0.111328ZM18.8319 1.71133C23.9878 1.71133 28.654 4.82237 30.654 9.57757C32.654 14.3334 31.543 19.7996 27.8988 23.4003C25.543 25.7555 22.2988 27.1334 18.8761 27.1334H15.5878C15.2761 25.5334 14.0319 24.3334 12.4319 24.0224C12.1651 23.9776 11.943 23.9334 11.6761 23.9334C10.343 23.9334 9.05402 24.6003 8.29882 25.7555V25.8003C7.09882 25.1776 6.03194 24.3776 5.05402 23.4444C3.94298 22.3334 3.3209 21.2665 3.05402 20.6444C3.80986 20.4665 4.43194 20.0665 4.96506 19.5334C5.63194 18.7776 6.03194 17.8444 6.03194 16.8224V14.4665C6.03194 11.6665 6.96506 8.91133 8.69882 6.68861C11.1878 3.44445 14.8761 1.71133 18.8319 1.71133Z" fill="white"/>
<path fill-rule="evenodd" clip-rule="evenodd" d="M25.2318 9.62256C24.3429 9.62256 23.6318 10.3336 23.6318 11.2226C23.6318 12.1115 24.3429 12.8226 25.2318 12.8226C26.1208 12.8226 26.8318 12.1115 26.8318 11.2226C26.8318 10.3336 26.1208 9.62256 25.2318 9.62256Z" fill="white"/>
<path fill-rule="evenodd" clip-rule="evenodd" d="M15.6322 9.62256C14.7433 9.62256 14.0322 10.3336 14.0322 11.2226C14.0322 12.1115 14.7433 12.8226 15.6322 12.8226C16.5212 12.8226 17.2322 12.1115 17.2322 11.2226C17.2322 10.3336 16.5212 9.62256 15.6322 9.62256Z" fill="white"/>
<path fill-rule="evenodd" clip-rule="evenodd" d="M15.3646 15.9775C14.7873 15.9775 14.3873 16.5555 14.6535 17.0886C15.7204 19.3113 17.9425 20.7334 20.4315 20.7334C22.9204 20.7334 25.1425 19.3113 26.2094 17.0886C26.4315 16.5555 26.0756 15.9775 25.4983 15.9775C25.1873 15.9775 24.9204 16.1555 24.7873 16.4223C23.9873 18.0665 22.2983 19.1334 20.4756 19.1334C18.6094 19.1334 16.9204 18.0665 16.1646 16.4223C15.9873 16.1555 15.7204 15.9775 15.3646 15.9775Z" fill="white"/>
</g>
</g>
<defs>
<clipPath id="clip0_7_692">
<rect width="33" height="32" fill="white" transform="translate(0.5)"/>
</clipPath>
</defs>
</svg>
