<svg width="33" height="32" viewBox="0 0 33 32" fill="none" xmlns="http://www.w3.org/2000/svg">
<g clip-path="url(#clip0_7_702)">
<path d="M7.81409 15.5961C8.17752 16.8227 8.63181 18.0493 9.26782 19.185C9.5404 19.6848 9.81297 20.1845 10.3127 20.5025L10.5853 20.6388C11.3121 20.7751 11.721 20.1845 11.9936 19.6848C12.357 18.8216 12.675 17.9585 12.9476 17.0499C12.993 16.8682 13.0384 16.7319 13.0839 16.5502C13.1747 16.2322 13.2656 15.9141 13.311 15.5961L16.5365 6.96461C17.2179 6.05603 18.0811 5.32916 19.0805 4.82944C20.0345 4.28429 21.1248 4.01172 22.2606 4.01172C23.8506 4.01172 25.4406 4.55687 26.7126 5.55631C28.8478 7.14633 30.0744 10.3264 30.0744 10.3264C30.2561 10.7352 30.3469 11.1895 30.3469 11.6438C30.3469 12.0527 30.2561 12.4615 30.1198 12.8704C29.9381 13.2338 29.7109 13.5973 29.4384 13.9153C29.1658 14.1878 28.8023 14.4604 28.3935 14.5967C28.0301 14.733 27.5758 14.8239 27.1669 14.8239C26.7126 14.8239 26.2583 14.733 25.8495 14.5058C25.4406 14.3241 25.0772 14.0061 24.7592 13.6881C24.7592 13.6881 24.7592 13.6427 24.7137 13.6427C24.532 13.3701 24.3503 13.0521 24.214 12.7341C24.0323 12.3252 23.8506 11.9618 23.6234 11.5984C23.4871 11.4167 23.3963 11.2349 23.26 11.0532C23.1691 10.8715 23.0329 10.7352 22.8511 10.5989C22.5331 10.3718 22.1697 10.2809 21.8517 10.4627L21.8063 10.5081C21.4428 10.7352 21.2157 11.2349 21.034 11.6438C20.5342 12.7341 20.2617 13.8244 19.9437 15.0056L19.8074 15.687L18.4445 20.0482L16.5819 24.1823C15.9005 25.0454 15.0373 25.7723 14.0379 26.2266C13.0384 26.7263 11.9481 26.9534 10.8578 26.9989C6.2695 27.0897 4.13433 22.9557 4.13433 22.9557C1.54487 18.6853 0.772575 13.0521 0.590858 11.2349C0.5 10.8261 0.5 10.5989 0.5 10.5989C0.5 10.0538 0.636287 9.46321 0.954291 9.00892C1.22687 8.5092 1.63573 8.10034 2.13545 7.82777C2.6806 7.55519 3.22575 7.46433 3.81633 7.46433C4.36148 7.46433 4.8612 7.64605 5.36092 7.91862C5.72435 8.14577 6.04235 8.41834 6.2695 8.73635C6.67836 9.32693 6.81465 10.0992 6.86008 10.8261C7.04179 12.4615 7.3598 14.0516 7.81409 15.5961Z" fill="url(#paint0_linear_7_702)"/>
<path d="M7.81409 15.5961C8.17752 16.8227 8.63181 18.0493 9.26782 19.185C9.5404 19.6848 9.81297 20.1845 10.3127 20.5025L10.5853 20.6388C11.3121 20.7751 11.721 20.1845 11.9936 19.6848C12.357 18.8216 12.675 17.9585 12.9476 17.0499C12.993 16.8682 13.0384 16.7319 13.0839 16.5502C13.1747 16.2322 13.2656 15.9141 13.311 15.5961L16.5365 6.96461C17.2179 6.05603 18.0811 5.32916 19.0805 4.82944C20.0345 4.28429 21.1248 4.01172 22.2606 4.01172C23.8506 4.01172 25.4406 4.55687 26.7126 5.55631C28.8478 7.14633 30.0744 10.3264 30.0744 10.3264C30.2561 10.7352 30.3469 11.1895 30.3469 11.6438C30.3469 12.0527 30.2561 12.4615 30.1198 12.8704C29.9381 13.2338 29.7109 13.5973 29.4384 13.9153C29.1658 14.1878 28.8023 14.4604 28.3935 14.5967C28.0301 14.733 27.5758 14.8239 27.1669 14.8239C26.7126 14.8239 26.2583 14.733 25.8495 14.5058C25.4406 14.3241 25.0772 14.0061 24.7592 13.6881C24.7592 13.6881 24.7592 13.6427 24.7137 13.6427C24.532 13.3701 24.3503 13.0521 24.214 12.7341C24.0323 12.3252 23.8506 11.9618 23.6234 11.5984C23.4871 11.4167 23.3963 11.2349 23.26 11.0532C23.1691 10.8715 23.0329 10.7352 22.8511 10.5989C22.5331 10.3718 22.1697 10.2809 21.8517 10.4627L21.8063 10.5081C21.4428 10.7352 21.2157 11.2349 21.034 11.6438C20.5342 12.7341 20.2617 13.8244 19.9437 15.0056L19.8074 15.687L18.4445 20.0482L16.5819 24.1823C15.9005 25.0454 15.0373 25.7723 14.0379 26.2266C13.0384 26.7263 11.9481 26.9534 10.8578 26.9989C6.2695 27.0897 4.13433 22.9557 4.13433 22.9557C1.54487 18.6853 0.772575 13.0521 0.590858 11.2349C0.5 10.8261 0.5 10.5989 0.5 10.5989C0.5 10.0538 0.636287 9.46321 0.954291 9.00892C1.22687 8.5092 1.63573 8.10034 2.13545 7.82777C2.6806 7.55519 3.22575 7.46433 3.81633 7.46433C4.36148 7.46433 4.8612 7.64605 5.36092 7.91862C5.72435 8.14577 6.04235 8.41834 6.2695 8.73635C6.67836 9.32693 6.81465 10.0992 6.86008 10.8261C7.04179 12.4615 7.3598 14.0516 7.81409 15.5961Z" fill="url(#paint1_radial_7_702)"/>
<path d="M7.81409 15.5961C8.17752 16.8227 8.63181 18.0493 9.26782 19.185C9.5404 19.6848 9.81297 20.1845 10.3127 20.5025L10.5853 20.6388C11.3121 20.7751 11.721 20.1845 11.9936 19.6848C12.357 18.8216 12.675 17.9585 12.9476 17.0499C12.993 16.8682 13.0384 16.7319 13.0839 16.5502C13.1747 16.2322 13.2656 15.9141 13.311 15.5961L16.5365 6.96461C17.2179 6.05603 18.0811 5.32916 19.0805 4.82944C20.0345 4.28429 21.1248 4.01172 22.2606 4.01172C23.8506 4.01172 25.4406 4.55687 26.7126 5.55631C28.8478 7.14633 30.0744 10.3264 30.0744 10.3264C30.2561 10.7352 30.3469 11.1895 30.3469 11.6438C30.3469 12.0527 30.2561 12.4615 30.1198 12.8704C29.9381 13.2338 29.7109 13.5973 29.4384 13.9153C29.1658 14.1878 28.8023 14.4604 28.3935 14.5967C28.0301 14.733 27.5758 14.8239 27.1669 14.8239C26.7126 14.8239 26.2583 14.733 25.8495 14.5058C25.4406 14.3241 25.0772 14.0061 24.7592 13.6881C24.7592 13.6881 24.7592 13.6427 24.7137 13.6427C24.532 13.3701 24.3503 13.0521 24.214 12.7341C24.0323 12.3252 23.8506 11.9618 23.6234 11.5984C23.4871 11.4167 23.3963 11.2349 23.26 11.0532C23.1691 10.8715 23.0329 10.7352 22.8511 10.5989C22.5331 10.3718 22.1697 10.2809 21.8517 10.4627L21.8063 10.5081C21.4428 10.7352 21.2157 11.2349 21.034 11.6438C20.5342 12.7341 20.2617 13.8244 19.9437 15.0056L19.8074 15.687L18.4445 20.0482L16.5819 24.1823C15.9005 25.0454 15.0373 25.7723 14.0379 26.2266C13.0384 26.7263 11.9481 26.9534 10.8578 26.9989C6.2695 27.0897 4.13433 22.9557 4.13433 22.9557C1.54487 18.6853 0.772575 13.0521 0.590858 11.2349C0.5 10.8261 0.5 10.5989 0.5 10.5989C0.5 10.0538 0.636287 9.46321 0.954291 9.00892C1.22687 8.5092 1.63573 8.10034 2.13545 7.82777C2.6806 7.55519 3.22575 7.46433 3.81633 7.46433C4.36148 7.46433 4.8612 7.64605 5.36092 7.91862C5.72435 8.14577 6.04235 8.41834 6.2695 8.73635C6.67836 9.32693 6.81465 10.0992 6.86008 10.8261C7.04179 12.4615 7.3598 14.0516 7.81409 15.5961Z" fill="url(#paint2_radial_7_702)"/>
<path d="M7.81409 15.5961C8.17752 16.8227 8.63181 18.0493 9.26782 19.185C9.5404 19.6848 9.81297 20.1845 10.3127 20.5025L10.5853 20.6388C11.3121 20.7751 11.721 20.1845 11.9936 19.6848C12.357 18.8216 12.675 17.9585 12.9476 17.0499C12.993 16.8682 13.0384 16.7319 13.0839 16.5502C13.1747 16.2322 13.2656 15.9141 13.311 15.5961L16.5365 6.96461C17.2179 6.05603 18.0811 5.32916 19.0805 4.82944C20.0345 4.28429 21.1248 4.01172 22.2606 4.01172C23.8506 4.01172 25.4406 4.55687 26.7126 5.55631C28.8478 7.14633 30.0744 10.3264 30.0744 10.3264C30.2561 10.7352 30.3469 11.1895 30.3469 11.6438C30.3469 12.0527 30.2561 12.4615 30.1198 12.8704C29.9381 13.2338 29.7109 13.5973 29.4384 13.9153C29.1658 14.1878 28.8023 14.4604 28.3935 14.5967C28.0301 14.733 27.5758 14.8239 27.1669 14.8239C26.7126 14.8239 26.2583 14.733 25.8495 14.5058C25.4406 14.3241 25.0772 14.0061 24.7592 13.6881C24.7592 13.6881 24.7592 13.6427 24.7137 13.6427C24.532 13.3701 24.3503 13.0521 24.214 12.7341C24.0323 12.3252 23.8506 11.9618 23.6234 11.5984C23.4871 11.4167 23.3963 11.2349 23.26 11.0532C23.1691 10.8715 23.0329 10.7352 22.8511 10.5989C22.5331 10.3718 22.1697 10.2809 21.8517 10.4627L21.8063 10.5081C21.4428 10.7352 21.2157 11.2349 21.034 11.6438C20.5342 12.7341 20.2617 13.8244 19.9437 15.0056L19.8074 15.687L18.4445 20.0482L16.5819 24.1823C15.9005 25.0454 15.0373 25.7723 14.0379 26.2266C13.0384 26.7263 11.9481 26.9534 10.8578 26.9989C6.2695 27.0897 4.13433 22.9557 4.13433 22.9557C1.54487 18.6853 0.772575 13.0521 0.590858 11.2349C0.5 10.8261 0.5 10.5989 0.5 10.5989C0.5 10.0538 0.636287 9.46321 0.954291 9.00892C1.22687 8.5092 1.63573 8.10034 2.13545 7.82777C2.6806 7.55519 3.22575 7.46433 3.81633 7.46433C4.36148 7.46433 4.8612 7.64605 5.36092 7.91862C5.72435 8.14577 6.04235 8.41834 6.2695 8.73635C6.67836 9.32693 6.81465 10.0992 6.86008 10.8261C7.04179 12.4615 7.3598 14.0516 7.81409 15.5961Z" fill="url(#paint3_radial_7_702)"/>
<path d="M7.81409 15.5961C8.17752 16.8227 8.63181 18.0493 9.26782 19.185C9.5404 19.6848 9.81297 20.1845 10.3127 20.5025L10.5853 20.6388C11.3121 20.7751 11.721 20.1845 11.9936 19.6848C12.357 18.8216 12.675 17.9585 12.9476 17.0499C12.993 16.8682 13.0384 16.7319 13.0839 16.5502C13.1747 16.2322 13.2656 15.9141 13.311 15.5961L16.5365 6.96461C17.2179 6.05603 18.0811 5.32916 19.0805 4.82944C20.0345 4.28429 21.1248 4.01172 22.2606 4.01172C23.8506 4.01172 25.4406 4.55687 26.7126 5.55631C28.8478 7.14633 30.0744 10.3264 30.0744 10.3264C30.2561 10.7352 30.3469 11.1895 30.3469 11.6438C30.3469 12.0527 30.2561 12.4615 30.1198 12.8704C29.9381 13.2338 29.7109 13.5973 29.4384 13.9153C29.1658 14.1878 28.8023 14.4604 28.3935 14.5967C28.0301 14.733 27.5758 14.8239 27.1669 14.8239C26.7126 14.8239 26.2583 14.733 25.8495 14.5058C25.4406 14.3241 25.0772 14.0061 24.7592 13.6881C24.7592 13.6881 24.7592 13.6427 24.7137 13.6427C24.532 13.3701 24.3503 13.0521 24.214 12.7341C24.0323 12.3252 23.8506 11.9618 23.6234 11.5984C23.4871 11.4167 23.3963 11.2349 23.26 11.0532C23.1691 10.8715 23.0329 10.7352 22.8511 10.5989C22.5331 10.3718 22.1697 10.2809 21.8517 10.4627L21.8063 10.5081C21.4428 10.7352 21.2157 11.2349 21.034 11.6438C20.5342 12.7341 20.2617 13.8244 19.9437 15.0056L19.8074 15.687L18.4445 20.0482L16.5819 24.1823C15.9005 25.0454 15.0373 25.7723 14.0379 26.2266C13.0384 26.7263 11.9481 26.9534 10.8578 26.9989C6.2695 27.0897 4.13433 22.9557 4.13433 22.9557C1.54487 18.6853 0.772575 13.0521 0.590858 11.2349C0.5 10.8261 0.5 10.5989 0.5 10.5989C0.5 10.0538 0.636287 9.46321 0.954291 9.00892C1.22687 8.5092 1.63573 8.10034 2.13545 7.82777C2.6806 7.55519 3.22575 7.46433 3.81633 7.46433C4.36148 7.46433 4.8612 7.64605 5.36092 7.91862C5.72435 8.14577 6.04235 8.41834 6.2695 8.73635C6.67836 9.32693 6.81465 10.0992 6.86008 10.8261C7.04179 12.4615 7.3598 14.0516 7.81409 15.5961Z" fill="url(#paint4_radial_7_702)"/>
<path d="M7.81409 15.5961C8.17752 16.8227 8.63181 18.0493 9.26782 19.185C9.5404 19.6848 9.81297 20.1845 10.3127 20.5025L10.5853 20.6388C11.3121 20.7751 11.721 20.1845 11.9936 19.6848C12.357 18.8216 12.675 17.9585 12.9476 17.0499C12.993 16.8682 13.0384 16.7319 13.0839 16.5502C13.1747 16.2322 13.2656 15.9141 13.311 15.5961L16.5365 6.96461C17.2179 6.05603 18.0811 5.32916 19.0805 4.82944C20.0345 4.28429 21.1248 4.01172 22.2606 4.01172C23.8506 4.01172 25.4406 4.55687 26.7126 5.55631C28.8478 7.14633 30.0744 10.3264 30.0744 10.3264C30.2561 10.7352 30.3469 11.1895 30.3469 11.6438C30.3469 12.0527 30.2561 12.4615 30.1198 12.8704C29.9381 13.2338 29.7109 13.5973 29.4384 13.9153C29.1658 14.1878 28.8023 14.4604 28.3935 14.5967C28.0301 14.733 27.5758 14.8239 27.1669 14.8239C26.7126 14.8239 26.2583 14.733 25.8495 14.5058C25.4406 14.3241 25.0772 14.0061 24.7592 13.6881C24.7592 13.6881 24.7592 13.6427 24.7137 13.6427C24.532 13.3701 24.3503 13.0521 24.214 12.7341C24.0323 12.3252 23.8506 11.9618 23.6234 11.5984C23.4871 11.4167 23.3963 11.2349 23.26 11.0532C23.1691 10.8715 23.0329 10.7352 22.8511 10.5989C22.5331 10.3718 22.1697 10.2809 21.8517 10.4627L21.8063 10.5081C21.4428 10.7352 21.2157 11.2349 21.034 11.6438C20.5342 12.7341 20.2617 13.8244 19.9437 15.0056L19.8074 15.687L18.4445 20.0482L16.5819 24.1823C15.9005 25.0454 15.0373 25.7723 14.0379 26.2266C13.0384 26.7263 11.9481 26.9534 10.8578 26.9989C6.2695 27.0897 4.13433 22.9557 4.13433 22.9557C1.54487 18.6853 0.772575 13.0521 0.590858 11.2349C0.5 10.8261 0.5 10.5989 0.5 10.5989C0.5 10.0538 0.636287 9.46321 0.954291 9.00892C1.22687 8.5092 1.63573 8.10034 2.13545 7.82777C2.6806 7.55519 3.22575 7.46433 3.81633 7.46433C4.36148 7.46433 4.8612 7.64605 5.36092 7.91862C5.72435 8.14577 6.04235 8.41834 6.2695 8.73635C6.67836 9.32693 6.81465 10.0992 6.86008 10.8261C7.04179 12.4615 7.3598 14.0516 7.81409 15.5961Z" fill="url(#paint5_radial_7_702)"/>
<path d="M7.81409 15.5961C8.17752 16.8227 8.63181 18.0493 9.26782 19.185C9.5404 19.6848 9.81297 20.1845 10.3127 20.5025L10.5853 20.6388C11.3121 20.7751 11.721 20.1845 11.9936 19.6848C12.357 18.8216 12.675 17.9585 12.9476 17.0499C12.993 16.8682 13.0384 16.7319 13.0839 16.5502C13.1747 16.2322 13.2656 15.9141 13.311 15.5961L16.5365 6.96461C17.2179 6.05603 18.0811 5.32916 19.0805 4.82944C20.0345 4.28429 21.1248 4.01172 22.2606 4.01172C23.8506 4.01172 25.4406 4.55687 26.7126 5.55631C28.8478 7.14633 30.0744 10.3264 30.0744 10.3264C30.2561 10.7352 30.3469 11.1895 30.3469 11.6438C30.3469 12.0527 30.2561 12.4615 30.1198 12.8704C29.9381 13.2338 29.7109 13.5973 29.4384 13.9153C29.1658 14.1878 28.8023 14.4604 28.3935 14.5967C28.0301 14.733 27.5758 14.8239 27.1669 14.8239C26.7126 14.8239 26.2583 14.733 25.8495 14.5058C25.4406 14.3241 25.0772 14.0061 24.7592 13.6881C24.7592 13.6881 24.7592 13.6427 24.7137 13.6427C24.532 13.3701 24.3503 13.0521 24.214 12.7341C24.0323 12.3252 23.8506 11.9618 23.6234 11.5984C23.4871 11.4167 23.3963 11.2349 23.26 11.0532C23.1691 10.8715 23.0329 10.7352 22.8511 10.5989C22.5331 10.3718 22.1697 10.2809 21.8517 10.4627L21.8063 10.5081C21.4428 10.7352 21.2157 11.2349 21.034 11.6438C20.5342 12.7341 20.2617 13.8244 19.9437 15.0056L19.8074 15.687L18.4445 20.0482L16.5819 24.1823C15.9005 25.0454 15.0373 25.7723 14.0379 26.2266C13.0384 26.7263 11.9481 26.9534 10.8578 26.9989C6.2695 27.0897 4.13433 22.9557 4.13433 22.9557C1.54487 18.6853 0.772575 13.0521 0.590858 11.2349C0.5 10.8261 0.5 10.5989 0.5 10.5989C0.5 10.0538 0.636287 9.46321 0.954291 9.00892C1.22687 8.5092 1.63573 8.10034 2.13545 7.82777C2.6806 7.55519 3.22575 7.46433 3.81633 7.46433C4.36148 7.46433 4.8612 7.64605 5.36092 7.91862C5.72435 8.14577 6.04235 8.41834 6.2695 8.73635C6.67836 9.32693 6.81465 10.0992 6.86008 10.8261C7.04179 12.4615 7.3598 14.0516 7.81409 15.5961Z" fill="url(#paint6_radial_7_702)"/>
<path d="M7.81409 15.5961C8.17752 16.8227 8.63181 18.0493 9.26782 19.185C9.5404 19.6848 9.81297 20.1845 10.3127 20.5025L10.5853 20.6388C11.3121 20.7751 11.721 20.1845 11.9936 19.6848C12.357 18.8216 12.675 17.9585 12.9476 17.0499C12.993 16.8682 13.0384 16.7319 13.0839 16.5502C13.1747 16.2322 13.2656 15.9141 13.311 15.5961L16.5365 6.96461C17.2179 6.05603 18.0811 5.32916 19.0805 4.82944C20.0345 4.28429 21.1248 4.01172 22.2606 4.01172C23.8506 4.01172 25.4406 4.55687 26.7126 5.55631C28.8478 7.14633 30.0744 10.3264 30.0744 10.3264C30.2561 10.7352 30.3469 11.1895 30.3469 11.6438C30.3469 12.0527 30.2561 12.4615 30.1198 12.8704C29.9381 13.2338 29.7109 13.5973 29.4384 13.9153C29.1658 14.1878 28.8023 14.4604 28.3935 14.5967C28.0301 14.733 27.5758 14.8239 27.1669 14.8239C26.7126 14.8239 26.2583 14.733 25.8495 14.5058C25.4406 14.3241 25.0772 14.0061 24.7592 13.6881C24.7592 13.6881 24.7592 13.6427 24.7137 13.6427C24.532 13.3701 24.3503 13.0521 24.214 12.7341C24.0323 12.3252 23.8506 11.9618 23.6234 11.5984C23.4871 11.4167 23.3963 11.2349 23.26 11.0532C23.1691 10.8715 23.0329 10.7352 22.8511 10.5989C22.5331 10.3718 22.1697 10.2809 21.8517 10.4627L21.8063 10.5081C21.4428 10.7352 21.2157 11.2349 21.034 11.6438C20.5342 12.7341 20.2617 13.8244 19.9437 15.0056L19.8074 15.687L18.4445 20.0482L16.5819 24.1823C15.9005 25.0454 15.0373 25.7723 14.0379 26.2266C13.0384 26.7263 11.9481 26.9534 10.8578 26.9989C6.2695 27.0897 4.13433 22.9557 4.13433 22.9557C1.54487 18.6853 0.772575 13.0521 0.590858 11.2349C0.5 10.8261 0.5 10.5989 0.5 10.5989C0.5 10.0538 0.636287 9.46321 0.954291 9.00892C1.22687 8.5092 1.63573 8.10034 2.13545 7.82777C2.6806 7.55519 3.22575 7.46433 3.81633 7.46433C4.36148 7.46433 4.8612 7.64605 5.36092 7.91862C5.72435 8.14577 6.04235 8.41834 6.2695 8.73635C6.67836 9.32693 6.81465 10.0992 6.86008 10.8261C7.04179 12.4615 7.3598 14.0516 7.81409 15.5961Z" fill="url(#paint7_radial_7_702)"/>
<path d="M7.81409 15.5961C8.17752 16.8227 8.63181 18.0493 9.26782 19.185C9.5404 19.6848 9.81297 20.1845 10.3127 20.5025L10.5853 20.6388C11.3121 20.7751 11.721 20.1845 11.9936 19.6848C12.357 18.8216 12.675 17.9585 12.9476 17.0499C12.993 16.8682 13.0384 16.7319 13.0839 16.5502C13.1747 16.2322 13.2656 15.9141 13.311 15.5961L16.5365 6.96461C17.2179 6.05603 18.0811 5.32916 19.0805 4.82944C20.0345 4.28429 21.1248 4.01172 22.2606 4.01172C23.8506 4.01172 25.4406 4.55687 26.7126 5.55631C28.8478 7.14633 30.0744 10.3264 30.0744 10.3264C30.2561 10.7352 30.3469 11.1895 30.3469 11.6438C30.3469 12.0527 30.2561 12.4615 30.1198 12.8704C29.9381 13.2338 29.7109 13.5973 29.4384 13.9153C29.1658 14.1878 28.8023 14.4604 28.3935 14.5967C28.0301 14.733 27.5758 14.8239 27.1669 14.8239C26.7126 14.8239 26.2583 14.733 25.8495 14.5058C25.4406 14.3241 25.0772 14.0061 24.7592 13.6881C24.7592 13.6881 24.7592 13.6427 24.7137 13.6427C24.532 13.3701 24.3503 13.0521 24.214 12.7341C24.0323 12.3252 23.8506 11.9618 23.6234 11.5984C23.4871 11.4167 23.3963 11.2349 23.26 11.0532C23.1691 10.8715 23.0329 10.7352 22.8511 10.5989C22.5331 10.3718 22.1697 10.2809 21.8517 10.4627L21.8063 10.5081C21.4428 10.7352 21.2157 11.2349 21.034 11.6438C20.5342 12.7341 20.2617 13.8244 19.9437 15.0056L19.8074 15.687L18.4445 20.0482L16.5819 24.1823C15.9005 25.0454 15.0373 25.7723 14.0379 26.2266C13.0384 26.7263 11.9481 26.9534 10.8578 26.9989C6.2695 27.0897 4.13433 22.9557 4.13433 22.9557C1.54487 18.6853 0.772575 13.0521 0.590858 11.2349C0.5 10.8261 0.5 10.5989 0.5 10.5989C0.5 10.0538 0.636287 9.46321 0.954291 9.00892C1.22687 8.5092 1.63573 8.10034 2.13545 7.82777C2.6806 7.55519 3.22575 7.46433 3.81633 7.46433C4.36148 7.46433 4.8612 7.64605 5.36092 7.91862C5.72435 8.14577 6.04235 8.41834 6.2695 8.73635C6.67836 9.32693 6.81465 10.0992 6.86008 10.8261C7.04179 12.4615 7.3598 14.0516 7.81409 15.5961Z" fill="url(#paint8_radial_7_702)"/>
<path d="M7.81409 15.5961C8.17752 16.8227 8.63181 18.0493 9.26782 19.185C9.5404 19.6848 9.81297 20.1845 10.3127 20.5025L10.5853 20.6388C11.3121 20.7751 11.721 20.1845 11.9936 19.6848C12.357 18.8216 12.675 17.9585 12.9476 17.0499C12.993 16.8682 13.0384 16.7319 13.0839 16.5502C13.1747 16.2322 13.2656 15.9141 13.311 15.5961L16.5365 6.96461C17.2179 6.05603 18.0811 5.32916 19.0805 4.82944C20.0345 4.28429 21.1248 4.01172 22.2606 4.01172C23.8506 4.01172 25.4406 4.55687 26.7126 5.55631C28.8478 7.14633 30.0744 10.3264 30.0744 10.3264C30.2561 10.7352 30.3469 11.1895 30.3469 11.6438C30.3469 12.0527 30.2561 12.4615 30.1198 12.8704C29.9381 13.2338 29.7109 13.5973 29.4384 13.9153C29.1658 14.1878 28.8023 14.4604 28.3935 14.5967C28.0301 14.733 27.5758 14.8239 27.1669 14.8239C26.7126 14.8239 26.2583 14.733 25.8495 14.5058C25.4406 14.3241 25.0772 14.0061 24.7592 13.6881C24.7592 13.6881 24.7592 13.6427 24.7137 13.6427C24.532 13.3701 24.3503 13.0521 24.214 12.7341C24.0323 12.3252 23.8506 11.9618 23.6234 11.5984C23.4871 11.4167 23.3963 11.2349 23.26 11.0532C23.1691 10.8715 23.0329 10.7352 22.8511 10.5989C22.5331 10.3718 22.1697 10.2809 21.8517 10.4627L21.8063 10.5081C21.4428 10.7352 21.2157 11.2349 21.034 11.6438C20.5342 12.7341 20.2617 13.8244 19.9437 15.0056L19.8074 15.687L18.4445 20.0482L16.5819 24.1823C15.9005 25.0454 15.0373 25.7723 14.0379 26.2266C13.0384 26.7263 11.9481 26.9534 10.8578 26.9989C6.2695 27.0897 4.13433 22.9557 4.13433 22.9557C1.54487 18.6853 0.772575 13.0521 0.590858 11.2349C0.5 10.8261 0.5 10.5989 0.5 10.5989C0.5 10.0538 0.636287 9.46321 0.954291 9.00892C1.22687 8.5092 1.63573 8.10034 2.13545 7.82777C2.6806 7.55519 3.22575 7.46433 3.81633 7.46433C4.36148 7.46433 4.8612 7.64605 5.36092 7.91862C5.72435 8.14577 6.04235 8.41834 6.2695 8.73635C6.67836 9.32693 6.81465 10.0992 6.86008 10.8261C7.04179 12.4615 7.3598 14.0516 7.81409 15.5961Z" fill="url(#paint9_radial_7_702)"/>
<path d="M7.81409 15.5961C8.17752 16.8227 8.63181 18.0493 9.26782 19.185C9.5404 19.6848 9.81297 20.1845 10.3127 20.5025L10.5853 20.6388C11.3121 20.7751 11.721 20.1845 11.9936 19.6848C12.357 18.8216 12.675 17.9585 12.9476 17.0499C12.993 16.8682 13.0384 16.7319 13.0839 16.5502C13.1747 16.2322 13.2656 15.9141 13.311 15.5961L16.5365 6.96461C17.2179 6.05603 18.0811 5.32916 19.0805 4.82944C20.0345 4.28429 21.1248 4.01172 22.2606 4.01172C23.8506 4.01172 25.4406 4.55687 26.7126 5.55631C28.8478 7.14633 30.0744 10.3264 30.0744 10.3264C30.2561 10.7352 30.3469 11.1895 30.3469 11.6438C30.3469 12.0527 30.2561 12.4615 30.1198 12.8704C29.9381 13.2338 29.7109 13.5973 29.4384 13.9153C29.1658 14.1878 28.8023 14.4604 28.3935 14.5967C28.0301 14.733 27.5758 14.8239 27.1669 14.8239C26.7126 14.8239 26.2583 14.733 25.8495 14.5058C25.4406 14.3241 25.0772 14.0061 24.7592 13.6881C24.7592 13.6881 24.7592 13.6427 24.7137 13.6427C24.532 13.3701 24.3503 13.0521 24.214 12.7341C24.0323 12.3252 23.8506 11.9618 23.6234 11.5984C23.4871 11.4167 23.3963 11.2349 23.26 11.0532C23.1691 10.8715 23.0329 10.7352 22.8511 10.5989C22.5331 10.3718 22.1697 10.2809 21.8517 10.4627L21.8063 10.5081C21.4428 10.7352 21.2157 11.2349 21.034 11.6438C20.5342 12.7341 20.2617 13.8244 19.9437 15.0056L19.8074 15.687L18.4445 20.0482L16.5819 24.1823C15.9005 25.0454 15.0373 25.7723 14.0379 26.2266C13.0384 26.7263 11.9481 26.9534 10.8578 26.9989C6.2695 27.0897 4.13433 22.9557 4.13433 22.9557C1.54487 18.6853 0.772575 13.0521 0.590858 11.2349C0.5 10.8261 0.5 10.5989 0.5 10.5989C0.5 10.0538 0.636287 9.46321 0.954291 9.00892C1.22687 8.5092 1.63573 8.10034 2.13545 7.82777C2.6806 7.55519 3.22575 7.46433 3.81633 7.46433C4.36148 7.46433 4.8612 7.64605 5.36092 7.91862C5.72435 8.14577 6.04235 8.41834 6.2695 8.73635C6.67836 9.32693 6.81465 10.0992 6.86008 10.8261C7.04179 12.4615 7.3598 14.0516 7.81409 15.5961Z" fill="url(#paint10_radial_7_702)"/>
<path d="M7.81409 15.5961C8.17752 16.8227 8.63181 18.0493 9.26782 19.185C9.5404 19.6848 9.81297 20.1845 10.3127 20.5025L10.5853 20.6388C11.3121 20.7751 11.721 20.1845 11.9936 19.6848C12.357 18.8216 12.675 17.9585 12.9476 17.0499C12.993 16.8682 13.0384 16.7319 13.0839 16.5502C13.1747 16.2322 13.2656 15.9141 13.311 15.5961L16.5365 6.96461C17.2179 6.05603 18.0811 5.32916 19.0805 4.82944C20.0345 4.28429 21.1248 4.01172 22.2606 4.01172C23.8506 4.01172 25.4406 4.55687 26.7126 5.55631C28.8478 7.14633 30.0744 10.3264 30.0744 10.3264C30.2561 10.7352 30.3469 11.1895 30.3469 11.6438C30.3469 12.0527 30.2561 12.4615 30.1198 12.8704C29.9381 13.2338 29.7109 13.5973 29.4384 13.9153C29.1658 14.1878 28.8023 14.4604 28.3935 14.5967C28.0301 14.733 27.5758 14.8239 27.1669 14.8239C26.7126 14.8239 26.2583 14.733 25.8495 14.5058C25.4406 14.3241 25.0772 14.0061 24.7592 13.6881C24.7592 13.6881 24.7592 13.6427 24.7137 13.6427C24.532 13.3701 24.3503 13.0521 24.214 12.7341C24.0323 12.3252 23.8506 11.9618 23.6234 11.5984C23.4871 11.4167 23.3963 11.2349 23.26 11.0532C23.1691 10.8715 23.0329 10.7352 22.8511 10.5989C22.5331 10.3718 22.1697 10.2809 21.8517 10.4627L21.8063 10.5081C21.4428 10.7352 21.2157 11.2349 21.034 11.6438C20.5342 12.7341 20.2617 13.8244 19.9437 15.0056L19.8074 15.687L18.4445 20.0482L16.5819 24.1823C15.9005 25.0454 15.0373 25.7723 14.0379 26.2266C13.0384 26.7263 11.9481 26.9534 10.8578 26.9989C6.2695 27.0897 4.13433 22.9557 4.13433 22.9557C1.54487 18.6853 0.772575 13.0521 0.590858 11.2349C0.5 10.8261 0.5 10.5989 0.5 10.5989C0.5 10.0538 0.636287 9.46321 0.954291 9.00892C1.22687 8.5092 1.63573 8.10034 2.13545 7.82777C2.6806 7.55519 3.22575 7.46433 3.81633 7.46433C4.36148 7.46433 4.8612 7.64605 5.36092 7.91862C5.72435 8.14577 6.04235 8.41834 6.2695 8.73635C6.67836 9.32693 6.81465 10.0992 6.86008 10.8261C7.04179 12.4615 7.3598 14.0516 7.81409 15.5961Z" fill="url(#paint11_radial_7_702)"/>
<path d="M7.81409 15.5961C8.17752 16.8227 8.63181 18.0493 9.26782 19.185C9.5404 19.6848 9.81297 20.1845 10.3127 20.5025L10.5853 20.6388C11.3121 20.7751 11.721 20.1845 11.9936 19.6848C12.357 18.8216 12.675 17.9585 12.9476 17.0499C12.993 16.8682 13.0384 16.7319 13.0839 16.5502C13.1747 16.2322 13.2656 15.9141 13.311 15.5961L16.5365 6.96461C17.2179 6.05603 18.0811 5.32916 19.0805 4.82944C20.0345 4.28429 21.1248 4.01172 22.2606 4.01172C23.8506 4.01172 25.4406 4.55687 26.7126 5.55631C28.8478 7.14633 30.0744 10.3264 30.0744 10.3264C30.2561 10.7352 30.3469 11.1895 30.3469 11.6438C30.3469 12.0527 30.2561 12.4615 30.1198 12.8704C29.9381 13.2338 29.7109 13.5973 29.4384 13.9153C29.1658 14.1878 28.8023 14.4604 28.3935 14.5967C28.0301 14.733 27.5758 14.8239 27.1669 14.8239C26.7126 14.8239 26.2583 14.733 25.8495 14.5058C25.4406 14.3241 25.0772 14.0061 24.7592 13.6881C24.7592 13.6881 24.7592 13.6427 24.7137 13.6427C24.532 13.3701 24.3503 13.0521 24.214 12.7341C24.0323 12.3252 23.8506 11.9618 23.6234 11.5984C23.4871 11.4167 23.3963 11.2349 23.26 11.0532C23.1691 10.8715 23.0329 10.7352 22.8511 10.5989C22.5331 10.3718 22.1697 10.2809 21.8517 10.4627L21.8063 10.5081C21.4428 10.7352 21.2157 11.2349 21.034 11.6438C20.5342 12.7341 20.2617 13.8244 19.9437 15.0056L19.8074 15.687L18.4445 20.0482L16.5819 24.1823C15.9005 25.0454 15.0373 25.7723 14.0379 26.2266C13.0384 26.7263 11.9481 26.9534 10.8578 26.9989C6.2695 27.0897 4.13433 22.9557 4.13433 22.9557C1.54487 18.6853 0.772575 13.0521 0.590858 11.2349C0.5 10.8261 0.5 10.5989 0.5 10.5989C0.5 10.0538 0.636287 9.46321 0.954291 9.00892C1.22687 8.5092 1.63573 8.10034 2.13545 7.82777C2.6806 7.55519 3.22575 7.46433 3.81633 7.46433C4.36148 7.46433 4.8612 7.64605 5.36092 7.91862C5.72435 8.14577 6.04235 8.41834 6.2695 8.73635C6.67836 9.32693 6.81465 10.0992 6.86008 10.8261C7.04179 12.4615 7.3598 14.0516 7.81409 15.5961Z" fill="url(#paint12_radial_7_702)"/>
<path d="M7.81409 15.5961C8.17752 16.8227 8.63181 18.0493 9.26782 19.185C9.5404 19.6848 9.81297 20.1845 10.3127 20.5025L10.5853 20.6388C11.3121 20.7751 11.721 20.1845 11.9936 19.6848C12.357 18.8216 12.675 17.9585 12.9476 17.0499C12.993 16.8682 13.0384 16.7319 13.0839 16.5502C13.1747 16.2322 13.2656 15.9141 13.311 15.5961L16.5365 6.96461C17.2179 6.05603 18.0811 5.32916 19.0805 4.82944C20.0345 4.28429 21.1248 4.01172 22.2606 4.01172C23.8506 4.01172 25.4406 4.55687 26.7126 5.55631C28.8478 7.14633 30.0744 10.3264 30.0744 10.3264C30.2561 10.7352 30.3469 11.1895 30.3469 11.6438C30.3469 12.0527 30.2561 12.4615 30.1198 12.8704C29.9381 13.2338 29.7109 13.5973 29.4384 13.9153C29.1658 14.1878 28.8023 14.4604 28.3935 14.5967C28.0301 14.733 27.5758 14.8239 27.1669 14.8239C26.7126 14.8239 26.2583 14.733 25.8495 14.5058C25.4406 14.3241 25.0772 14.0061 24.7592 13.6881C24.7592 13.6881 24.7592 13.6427 24.7137 13.6427C24.532 13.3701 24.3503 13.0521 24.214 12.7341C24.0323 12.3252 23.8506 11.9618 23.6234 11.5984C23.4871 11.4167 23.3963 11.2349 23.26 11.0532C23.1691 10.8715 23.0329 10.7352 22.8511 10.5989C22.5331 10.3718 22.1697 10.2809 21.8517 10.4627L21.8063 10.5081C21.4428 10.7352 21.2157 11.2349 21.034 11.6438C20.5342 12.7341 20.2617 13.8244 19.9437 15.0056L19.8074 15.687L18.4445 20.0482L16.5819 24.1823C15.9005 25.0454 15.0373 25.7723 14.0379 26.2266C13.0384 26.7263 11.9481 26.9534 10.8578 26.9989C6.2695 27.0897 4.13433 22.9557 4.13433 22.9557C1.54487 18.6853 0.772575 13.0521 0.590858 11.2349C0.5 10.8261 0.5 10.5989 0.5 10.5989C0.5 10.0538 0.636287 9.46321 0.954291 9.00892C1.22687 8.5092 1.63573 8.10034 2.13545 7.82777C2.6806 7.55519 3.22575 7.46433 3.81633 7.46433C4.36148 7.46433 4.8612 7.64605 5.36092 7.91862C5.72435 8.14577 6.04235 8.41834 6.2695 8.73635C6.67836 9.32693 6.81465 10.0992 6.86008 10.8261C7.04179 12.4615 7.3598 14.0516 7.81409 15.5961Z" fill="url(#paint13_radial_7_702)"/>
<path d="M7.81409 15.5961C8.17752 16.8227 8.63181 18.0493 9.26782 19.185C9.5404 19.6848 9.81297 20.1845 10.3127 20.5025L10.5853 20.6388C11.3121 20.7751 11.721 20.1845 11.9936 19.6848C12.357 18.8216 12.675 17.9585 12.9476 17.0499C12.993 16.8682 13.0384 16.7319 13.0839 16.5502C13.1747 16.2322 13.2656 15.9141 13.311 15.5961L16.5365 6.96461C17.2179 6.05603 18.0811 5.32916 19.0805 4.82944C20.0345 4.28429 21.1248 4.01172 22.2606 4.01172C23.8506 4.01172 25.4406 4.55687 26.7126 5.55631C28.8478 7.14633 30.0744 10.3264 30.0744 10.3264C30.2561 10.7352 30.3469 11.1895 30.3469 11.6438C30.3469 12.0527 30.2561 12.4615 30.1198 12.8704C29.9381 13.2338 29.7109 13.5973 29.4384 13.9153C29.1658 14.1878 28.8023 14.4604 28.3935 14.5967C28.0301 14.733 27.5758 14.8239 27.1669 14.8239C26.7126 14.8239 26.2583 14.733 25.8495 14.5058C25.4406 14.3241 25.0772 14.0061 24.7592 13.6881C24.7592 13.6881 24.7592 13.6427 24.7137 13.6427C24.532 13.3701 24.3503 13.0521 24.214 12.7341C24.0323 12.3252 23.8506 11.9618 23.6234 11.5984C23.4871 11.4167 23.3963 11.2349 23.26 11.0532C23.1691 10.8715 23.0329 10.7352 22.8511 10.5989C22.5331 10.3718 22.1697 10.2809 21.8517 10.4627L21.8063 10.5081C21.4428 10.7352 21.2157 11.2349 21.034 11.6438C20.5342 12.7341 20.2617 13.8244 19.9437 15.0056L19.8074 15.687L18.4445 20.0482L16.5819 24.1823C15.9005 25.0454 15.0373 25.7723 14.0379 26.2266C13.0384 26.7263 11.9481 26.9534 10.8578 26.9989C6.2695 27.0897 4.13433 22.9557 4.13433 22.9557C1.54487 18.6853 0.772575 13.0521 0.590858 11.2349C0.5 10.8261 0.5 10.5989 0.5 10.5989C0.5 10.0538 0.636287 9.46321 0.954291 9.00892C1.22687 8.5092 1.63573 8.10034 2.13545 7.82777C2.6806 7.55519 3.22575 7.46433 3.81633 7.46433C4.36148 7.46433 4.8612 7.64605 5.36092 7.91862C5.72435 8.14577 6.04235 8.41834 6.2695 8.73635C6.67836 9.32693 6.81465 10.0992 6.86008 10.8261C7.04179 12.4615 7.3598 14.0516 7.81409 15.5961Z" fill="url(#paint14_radial_7_702)"/>
<path d="M7.81409 15.5961C8.17752 16.8227 8.63181 18.0493 9.26782 19.185C9.5404 19.6848 9.81297 20.1845 10.3127 20.5025L10.5853 20.6388C11.3121 20.7751 11.721 20.1845 11.9936 19.6848C12.357 18.8216 12.675 17.9585 12.9476 17.0499C12.993 16.8682 13.0384 16.7319 13.0839 16.5502C13.1747 16.2322 13.2656 15.9141 13.311 15.5961L16.5365 6.96461C17.2179 6.05603 18.0811 5.32916 19.0805 4.82944C20.0345 4.28429 21.1248 4.01172 22.2606 4.01172C23.8506 4.01172 25.4406 4.55687 26.7126 5.55631C28.8478 7.14633 30.0744 10.3264 30.0744 10.3264C30.2561 10.7352 30.3469 11.1895 30.3469 11.6438C30.3469 12.0527 30.2561 12.4615 30.1198 12.8704C29.9381 13.2338 29.7109 13.5973 29.4384 13.9153C29.1658 14.1878 28.8023 14.4604 28.3935 14.5967C28.0301 14.733 27.5758 14.8239 27.1669 14.8239C26.7126 14.8239 26.2583 14.733 25.8495 14.5058C25.4406 14.3241 25.0772 14.0061 24.7592 13.6881C24.7592 13.6881 24.7592 13.6427 24.7137 13.6427C24.532 13.3701 24.3503 13.0521 24.214 12.7341C24.0323 12.3252 23.8506 11.9618 23.6234 11.5984C23.4871 11.4167 23.3963 11.2349 23.26 11.0532C23.1691 10.8715 23.0329 10.7352 22.8511 10.5989C22.5331 10.3718 22.1697 10.2809 21.8517 10.4627L21.8063 10.5081C21.4428 10.7352 21.2157 11.2349 21.034 11.6438C20.5342 12.7341 20.2617 13.8244 19.9437 15.0056L19.8074 15.687L18.4445 20.0482L16.5819 24.1823C15.9005 25.0454 15.0373 25.7723 14.0379 26.2266C13.0384 26.7263 11.9481 26.9534 10.8578 26.9989C6.2695 27.0897 4.13433 22.9557 4.13433 22.9557C1.54487 18.6853 0.772575 13.0521 0.590858 11.2349C0.5 10.8261 0.5 10.5989 0.5 10.5989C0.5 10.0538 0.636287 9.46321 0.954291 9.00892C1.22687 8.5092 1.63573 8.10034 2.13545 7.82777C2.6806 7.55519 3.22575 7.46433 3.81633 7.46433C4.36148 7.46433 4.8612 7.64605 5.36092 7.91862C5.72435 8.14577 6.04235 8.41834 6.2695 8.73635C6.67836 9.32693 6.81465 10.0992 6.86008 10.8261C7.04179 12.4615 7.3598 14.0516 7.81409 15.5961Z" fill="url(#paint15_radial_7_702)"/>
<path d="M7.81409 15.5961C8.17752 16.8227 8.63181 18.0493 9.26782 19.185C9.5404 19.6848 9.81297 20.1845 10.3127 20.5025L10.5853 20.6388C11.3121 20.7751 11.721 20.1845 11.9936 19.6848C12.357 18.8216 12.675 17.9585 12.9476 17.0499C12.993 16.8682 13.0384 16.7319 13.0839 16.5502C13.1747 16.2322 13.2656 15.9141 13.311 15.5961L16.5365 6.96461C17.2179 6.05603 18.0811 5.32916 19.0805 4.82944C20.0345 4.28429 21.1248 4.01172 22.2606 4.01172C23.8506 4.01172 25.4406 4.55687 26.7126 5.55631C28.8478 7.14633 30.0744 10.3264 30.0744 10.3264C30.2561 10.7352 30.3469 11.1895 30.3469 11.6438C30.3469 12.0527 30.2561 12.4615 30.1198 12.8704C29.9381 13.2338 29.7109 13.5973 29.4384 13.9153C29.1658 14.1878 28.8023 14.4604 28.3935 14.5967C28.0301 14.733 27.5758 14.8239 27.1669 14.8239C26.7126 14.8239 26.2583 14.733 25.8495 14.5058C25.4406 14.3241 25.0772 14.0061 24.7592 13.6881C24.7592 13.6881 24.7592 13.6427 24.7137 13.6427C24.532 13.3701 24.3503 13.0521 24.214 12.7341C24.0323 12.3252 23.8506 11.9618 23.6234 11.5984C23.4871 11.4167 23.3963 11.2349 23.26 11.0532C23.1691 10.8715 23.0329 10.7352 22.8511 10.5989C22.5331 10.3718 22.1697 10.2809 21.8517 10.4627L21.8063 10.5081C21.4428 10.7352 21.2157 11.2349 21.034 11.6438C20.5342 12.7341 20.2617 13.8244 19.9437 15.0056L19.8074 15.687L18.4445 20.0482L16.5819 24.1823C15.9005 25.0454 15.0373 25.7723 14.0379 26.2266C13.0384 26.7263 11.9481 26.9534 10.8578 26.9989C6.2695 27.0897 4.13433 22.9557 4.13433 22.9557C1.54487 18.6853 0.772575 13.0521 0.590858 11.2349C0.5 10.8261 0.5 10.5989 0.5 10.5989C0.5 10.0538 0.636287 9.46321 0.954291 9.00892C1.22687 8.5092 1.63573 8.10034 2.13545 7.82777C2.6806 7.55519 3.22575 7.46433 3.81633 7.46433C4.36148 7.46433 4.8612 7.64605 5.36092 7.91862C5.72435 8.14577 6.04235 8.41834 6.2695 8.73635C6.67836 9.32693 6.81465 10.0992 6.86008 10.8261C7.04179 12.4615 7.3598 14.0516 7.81409 15.5961Z" fill="url(#paint16_linear_7_702)"/>
<path d="M7.81409 15.5961C8.17752 16.8227 8.63181 18.0493 9.26782 19.185C9.5404 19.6848 9.81297 20.1845 10.3127 20.5025L10.5853 20.6388C11.3121 20.7751 11.721 20.1845 11.9936 19.6848C12.357 18.8216 12.675 17.9585 12.9476 17.0499C12.993 16.8682 13.0384 16.7319 13.0839 16.5502C13.1747 16.2322 13.2656 15.9141 13.311 15.5961L16.5365 6.96461C17.2179 6.05603 18.0811 5.32916 19.0805 4.82944C20.0345 4.28429 21.1248 4.01172 22.2606 4.01172C23.8506 4.01172 25.4406 4.55687 26.7126 5.55631C28.8478 7.14633 30.0744 10.3264 30.0744 10.3264C30.2561 10.7352 30.3469 11.1895 30.3469 11.6438C30.3469 12.0527 30.2561 12.4615 30.1198 12.8704C29.9381 13.2338 29.7109 13.5973 29.4384 13.9153C29.1658 14.1878 28.8023 14.4604 28.3935 14.5967C28.0301 14.733 27.5758 14.8239 27.1669 14.8239C26.7126 14.8239 26.2583 14.733 25.8495 14.5058C25.4406 14.3241 25.0772 14.0061 24.7592 13.6881C24.7592 13.6881 24.7592 13.6427 24.7137 13.6427C24.532 13.3701 24.3503 13.0521 24.214 12.7341C24.0323 12.3252 23.8506 11.9618 23.6234 11.5984C23.4871 11.4167 23.3963 11.2349 23.26 11.0532C23.1691 10.8715 23.0329 10.7352 22.8511 10.5989C22.5331 10.3718 22.1697 10.2809 21.8517 10.4627L21.8063 10.5081C21.4428 10.7352 21.2157 11.2349 21.034 11.6438C20.5342 12.7341 20.2617 13.8244 19.9437 15.0056L19.8074 15.687L18.4445 20.0482L16.5819 24.1823C15.9005 25.0454 15.0373 25.7723 14.0379 26.2266C13.0384 26.7263 11.9481 26.9534 10.8578 26.9989C6.2695 27.0897 4.13433 22.9557 4.13433 22.9557C1.54487 18.6853 0.772575 13.0521 0.590858 11.2349C0.5 10.8261 0.5 10.5989 0.5 10.5989C0.5 10.0538 0.636287 9.46321 0.954291 9.00892C1.22687 8.5092 1.63573 8.10034 2.13545 7.82777C2.6806 7.55519 3.22575 7.46433 3.81633 7.46433C4.36148 7.46433 4.8612 7.64605 5.36092 7.91862C5.72435 8.14577 6.04235 8.41834 6.2695 8.73635C6.67836 9.32693 6.81465 10.0992 6.86008 10.8261C7.04179 12.4615 7.3598 14.0516 7.81409 15.5961Z" fill="url(#paint17_linear_7_702)"/>
<path d="M7.81409 15.5961C8.17752 16.8227 8.63181 18.0493 9.26782 19.185C9.5404 19.6848 9.81297 20.1845 10.3127 20.5025L10.5853 20.6388C11.3121 20.7751 11.721 20.1845 11.9936 19.6848C12.357 18.8216 12.675 17.9585 12.9476 17.0499C12.993 16.8682 13.0384 16.7319 13.0839 16.5502C13.1747 16.2322 13.2656 15.9141 13.311 15.5961L16.5365 6.96461C17.2179 6.05603 18.0811 5.32916 19.0805 4.82944C20.0345 4.28429 21.1248 4.01172 22.2606 4.01172C23.8506 4.01172 25.4406 4.55687 26.7126 5.55631C28.8478 7.14633 30.0744 10.3264 30.0744 10.3264C30.2561 10.7352 30.3469 11.1895 30.3469 11.6438C30.3469 12.0527 30.2561 12.4615 30.1198 12.8704C29.9381 13.2338 29.7109 13.5973 29.4384 13.9153C29.1658 14.1878 28.8023 14.4604 28.3935 14.5967C28.0301 14.733 27.5758 14.8239 27.1669 14.8239C26.7126 14.8239 26.2583 14.733 25.8495 14.5058C25.4406 14.3241 25.0772 14.0061 24.7592 13.6881C24.7592 13.6881 24.7592 13.6427 24.7137 13.6427C24.532 13.3701 24.3503 13.0521 24.214 12.7341C24.0323 12.3252 23.8506 11.9618 23.6234 11.5984C23.4871 11.4167 23.3963 11.2349 23.26 11.0532C23.1691 10.8715 23.0329 10.7352 22.8511 10.5989C22.5331 10.3718 22.1697 10.2809 21.8517 10.4627L21.8063 10.5081C21.4428 10.7352 21.2157 11.2349 21.034 11.6438C20.5342 12.7341 20.2617 13.8244 19.9437 15.0056L19.8074 15.687L18.4445 20.0482L16.5819 24.1823C15.9005 25.0454 15.0373 25.7723 14.0379 26.2266C13.0384 26.7263 11.9481 26.9534 10.8578 26.9989C6.2695 27.0897 4.13433 22.9557 4.13433 22.9557C1.54487 18.6853 0.772575 13.0521 0.590858 11.2349C0.5 10.8261 0.5 10.5989 0.5 10.5989C0.5 10.0538 0.636287 9.46321 0.954291 9.00892C1.22687 8.5092 1.63573 8.10034 2.13545 7.82777C2.6806 7.55519 3.22575 7.46433 3.81633 7.46433C4.36148 7.46433 4.8612 7.64605 5.36092 7.91862C5.72435 8.14577 6.04235 8.41834 6.2695 8.73635C6.67836 9.32693 6.81465 10.0992 6.86008 10.8261C7.04179 12.4615 7.3598 14.0516 7.81409 15.5961Z" fill="url(#paint18_linear_7_702)"/>
<path d="M7.81409 15.5961C8.17752 16.8227 8.63181 18.0493 9.26782 19.185C9.5404 19.6848 9.81297 20.1845 10.3127 20.5025L10.5853 20.6388C11.3121 20.7751 11.721 20.1845 11.9936 19.6848C12.357 18.8216 12.675 17.9585 12.9476 17.0499C12.993 16.8682 13.0384 16.7319 13.0839 16.5502C13.1747 16.2322 13.2656 15.9141 13.311 15.5961L16.5365 6.96461C17.2179 6.05603 18.0811 5.32916 19.0805 4.82944C20.0345 4.28429 21.1248 4.01172 22.2606 4.01172C23.8506 4.01172 25.4406 4.55687 26.7126 5.55631C28.8478 7.14633 30.0744 10.3264 30.0744 10.3264C30.2561 10.7352 30.3469 11.1895 30.3469 11.6438C30.3469 12.0527 30.2561 12.4615 30.1198 12.8704C29.9381 13.2338 29.7109 13.5973 29.4384 13.9153C29.1658 14.1878 28.8023 14.4604 28.3935 14.5967C28.0301 14.733 27.5758 14.8239 27.1669 14.8239C26.7126 14.8239 26.2583 14.733 25.8495 14.5058C25.4406 14.3241 25.0772 14.0061 24.7592 13.6881C24.7592 13.6881 24.7592 13.6427 24.7137 13.6427C24.532 13.3701 24.3503 13.0521 24.214 12.7341C24.0323 12.3252 23.8506 11.9618 23.6234 11.5984C23.4871 11.4167 23.3963 11.2349 23.26 11.0532C23.1691 10.8715 23.0329 10.7352 22.8511 10.5989C22.5331 10.3718 22.1697 10.2809 21.8517 10.4627L21.8063 10.5081C21.4428 10.7352 21.2157 11.2349 21.034 11.6438C20.5342 12.7341 20.2617 13.8244 19.9437 15.0056L19.8074 15.687L18.4445 20.0482L16.5819 24.1823C15.9005 25.0454 15.0373 25.7723 14.0379 26.2266C13.0384 26.7263 11.9481 26.9534 10.8578 26.9989C6.2695 27.0897 4.13433 22.9557 4.13433 22.9557C1.54487 18.6853 0.772575 13.0521 0.590858 11.2349C0.5 10.8261 0.5 10.5989 0.5 10.5989C0.5 10.0538 0.636287 9.46321 0.954291 9.00892C1.22687 8.5092 1.63573 8.10034 2.13545 7.82777C2.6806 7.55519 3.22575 7.46433 3.81633 7.46433C4.36148 7.46433 4.8612 7.64605 5.36092 7.91862C5.72435 8.14577 6.04235 8.41834 6.2695 8.73635C6.67836 9.32693 6.81465 10.0992 6.86008 10.8261C7.04179 12.4615 7.3598 14.0516 7.81409 15.5961Z" fill="url(#paint19_linear_7_702)"/>
<path d="M14.4453 12.3707L16.4896 6.87375C17.1711 5.96517 18.0342 5.23831 19.0337 4.73858C20.0331 4.28429 21.1234 4.01172 22.2591 4.01172C23.8491 4.01172 25.4392 4.55687 26.7112 5.55631C28.8463 7.14633 30.0729 10.3264 30.0729 10.3264C30.2546 10.7352 30.3455 11.1895 30.3455 11.6438C30.3455 12.0527 30.2546 12.4615 30.1184 12.8704C29.9366 13.2338 29.7095 13.5973 29.4369 13.9153C29.1643 14.1878 28.8009 14.4604 28.3921 14.5967C28.0286 14.733 27.5743 14.8239 27.1655 14.8239C26.7112 14.8239 26.2569 14.733 25.848 14.5058C25.4392 14.3241 25.0757 14.0061 24.7577 13.6881C24.7577 13.6881 24.7577 13.6427 24.7123 13.6427C24.5306 13.3701 24.3489 13.0521 24.2126 12.7341C24.0309 12.3252 23.8491 11.9618 23.622 11.5984C23.4857 11.4167 23.3948 11.235 23.2586 11.0532C23.1677 10.8715 23.0314 10.7352 22.8497 10.5989C22.5317 10.3718 22.1683 10.2809 21.8503 10.4627L21.8048 10.5081C21.4414 10.7352 21.2143 11.235 21.0325 11.6438C20.5328 12.7341 20.2602 13.8244 19.9422 15.0056L19.8059 15.687L18.4431 20.0482L14.4453 12.3707Z" fill="url(#paint20_linear_7_702)"/>
<path d="M29.3497 7.46513C29.0772 7.46513 28.8046 7.51056 28.5774 7.55599C29.168 8.41914 29.6677 9.32773 30.0766 10.2817C30.2583 10.6906 30.3492 11.1449 30.3492 11.5992C30.3492 12.008 30.2583 12.4169 30.122 12.8258C29.9403 13.1892 29.7132 13.5526 29.4406 13.8706C29.168 14.1886 28.8046 14.4158 28.3957 14.5521C28.0323 14.6884 27.578 14.7792 27.1691 14.7792C26.624 14.7792 26.0334 14.6429 25.5791 14.3249L25.2611 15.5515C24.6705 17.5504 24.2617 18.2773 24.2617 18.2773C24.0345 18.8224 23.7619 19.3221 23.4439 19.8219C23.2168 20.1399 22.9442 20.4579 22.5808 20.5942C22.4445 20.6396 22.3082 20.6396 22.1719 20.6396C22.0356 20.6396 21.8994 20.5941 21.7631 20.5033C21.5359 20.3216 21.3088 20.049 21.1725 19.7764C20.9908 19.4584 20.8545 19.1404 20.7182 18.8224C20.4456 18.141 19.9913 16.4601 19.9913 16.4601L19.537 14.6884L19.0828 12.9166L18.7647 11.7355C17.947 8.69172 16.7659 7.19256 16.7659 7.19256C15.8573 5.87511 14.5398 4.9211 13.0407 4.37595C11.3144 3.73994 9.4972 4.10338 9.4972 4.10338C6.63517 4.64853 5.13601 6.60198 4.5 7.55599C4.818 7.64685 5.09058 7.73771 5.36315 7.91942C5.72659 8.14657 6.04459 8.41914 6.27174 8.73715C6.6806 9.32773 6.81689 10.1 6.86231 10.8269C7.04403 12.4169 7.36203 13.9615 7.7709 15.5061C8.72491 12.2806 9.90607 10.7815 9.90607 10.7815C10.0423 10.5997 10.1786 10.4635 10.3604 10.3726C10.4512 10.3272 10.5421 10.2817 10.6784 10.2817C10.8601 10.2817 11.0872 10.3272 11.2235 10.418C11.2689 10.418 11.2689 10.4635 11.3144 10.4635C11.4507 10.5997 11.5869 10.736 11.7232 10.9177C11.9504 11.372 12.1775 11.7809 12.3592 12.2806C12.7227 13.2801 13.0407 14.5521 13.0407 14.5521L13.9493 18.1864C14.6307 20.685 15.1758 21.8662 15.1758 21.8662C16.5841 25.0916 18.7193 26.0002 18.7193 26.0002C19.7642 26.5454 20.9453 26.8634 22.1265 26.9088C23.2622 26.9542 24.398 26.7271 25.3974 26.2274C26.4877 25.6822 27.4871 24.8645 28.2594 23.9105C28.7592 23.3199 29.5314 21.8662 29.5314 21.8662C30.3946 20.1853 31.0306 18.4136 31.4849 16.5964C31.8029 15.4607 32.0301 14.3249 32.2118 13.1438C32.3026 12.5532 32.3935 12.008 32.4389 11.4175C32.5298 10.8723 32.5298 10.3272 32.3935 9.78202C32.3481 9.69116 32.3481 9.6003 32.3026 9.50944C32.0301 8.82801 31.5303 8.28286 30.8943 7.91942C30.44 7.60142 29.8949 7.46513 29.3497 7.46513Z" fill="url(#paint21_linear_7_702)"/>
<path d="M29.3497 7.46513C29.0772 7.46513 28.8046 7.51056 28.5774 7.55599C29.168 8.41914 29.6677 9.32773 30.0766 10.2817C30.2583 10.6906 30.3492 11.1449 30.3492 11.5992C30.3492 12.008 30.2583 12.4169 30.122 12.8258C29.9403 13.1892 29.7132 13.5526 29.4406 13.8706C29.168 14.1886 28.8046 14.4158 28.3957 14.5521C28.0323 14.6884 27.578 14.7792 27.1691 14.7792C26.624 14.7792 26.0334 14.6429 25.5791 14.3249L25.2611 15.5515C24.6705 17.5504 24.2617 18.2773 24.2617 18.2773C24.0345 18.8224 23.7619 19.3221 23.4439 19.8219C23.2168 20.1399 22.9442 20.4579 22.5808 20.5942C22.4445 20.6396 22.3082 20.6396 22.1719 20.6396C22.0356 20.6396 21.8994 20.5941 21.7631 20.5033C21.5359 20.3216 21.3088 20.049 21.1725 19.7764C20.9908 19.4584 20.8545 19.1404 20.7182 18.8224C20.4456 18.141 19.9913 16.4601 19.9913 16.4601L19.537 14.6884L19.0828 12.9166L18.7647 11.7355C17.947 8.69172 16.7659 7.19256 16.7659 7.19256C15.8573 5.87511 14.5398 4.9211 13.0407 4.37595C11.3144 3.73994 9.4972 4.10338 9.4972 4.10338C6.63517 4.64853 5.13601 6.60198 4.5 7.55599C4.818 7.64685 5.09058 7.73771 5.36315 7.91942C5.72659 8.14657 6.04459 8.41914 6.27174 8.73715C6.6806 9.32773 6.81689 10.1 6.86231 10.8269C7.04403 12.4169 7.36203 13.9615 7.7709 15.5061C8.72491 12.2806 9.90607 10.7815 9.90607 10.7815C10.0423 10.5997 10.1786 10.4635 10.3604 10.3726C10.4512 10.3272 10.5421 10.2817 10.6784 10.2817C10.8601 10.2817 11.0872 10.3272 11.2235 10.418C11.2689 10.418 11.2689 10.4635 11.3144 10.4635C11.4507 10.5997 11.5869 10.736 11.7232 10.9177C11.9504 11.372 12.1775 11.7809 12.3592 12.2806C12.7227 13.2801 13.0407 14.5521 13.0407 14.5521L13.9493 18.1864C14.6307 20.685 15.1758 21.8662 15.1758 21.8662C16.5841 25.0916 18.7193 26.0002 18.7193 26.0002C19.7642 26.5454 20.9453 26.8634 22.1265 26.9088C23.2622 26.9542 24.398 26.7271 25.3974 26.2274C26.4877 25.6822 27.4871 24.8645 28.2594 23.9105C28.7592 23.3199 29.5314 21.8662 29.5314 21.8662C30.3946 20.1853 31.0306 18.4136 31.4849 16.5964C31.8029 15.4607 32.0301 14.3249 32.2118 13.1438C32.3026 12.5532 32.3935 12.008 32.4389 11.4175C32.5298 10.8723 32.5298 10.3272 32.3935 9.78202C32.3481 9.69116 32.3481 9.6003 32.3026 9.50944C32.0301 8.82801 31.5303 8.28286 30.8943 7.91942C30.44 7.60142 29.8949 7.46513 29.3497 7.46513Z" fill="url(#paint22_radial_7_702)"/>
<path d="M29.3497 7.46513C29.0772 7.46513 28.8046 7.51056 28.5774 7.55599C29.168 8.41914 29.6677 9.32773 30.0766 10.2817C30.2583 10.6906 30.3492 11.1449 30.3492 11.5992C30.3492 12.008 30.2583 12.4169 30.122 12.8258C29.9403 13.1892 29.7132 13.5526 29.4406 13.8706C29.168 14.1886 28.8046 14.4158 28.3957 14.5521C28.0323 14.6884 27.578 14.7792 27.1691 14.7792C26.624 14.7792 26.0334 14.6429 25.5791 14.3249L25.2611 15.5515C24.6705 17.5504 24.2617 18.2773 24.2617 18.2773C24.0345 18.8224 23.7619 19.3221 23.4439 19.8219C23.2168 20.1399 22.9442 20.4579 22.5808 20.5942C22.4445 20.6396 22.3082 20.6396 22.1719 20.6396C22.0356 20.6396 21.8994 20.5941 21.7631 20.5033C21.5359 20.3216 21.3088 20.049 21.1725 19.7764C20.9908 19.4584 20.8545 19.1404 20.7182 18.8224C20.4456 18.141 19.9913 16.4601 19.9913 16.4601L19.537 14.6884L19.0828 12.9166L18.7647 11.7355C17.947 8.69172 16.7659 7.19256 16.7659 7.19256C15.8573 5.87511 14.5398 4.9211 13.0407 4.37595C11.3144 3.73994 9.4972 4.10338 9.4972 4.10338C6.63517 4.64853 5.13601 6.60198 4.5 7.55599C4.818 7.64685 5.09058 7.73771 5.36315 7.91942C5.72659 8.14657 6.04459 8.41914 6.27174 8.73715C6.6806 9.32773 6.81689 10.1 6.86231 10.8269C7.04403 12.4169 7.36203 13.9615 7.7709 15.5061C8.72491 12.2806 9.90607 10.7815 9.90607 10.7815C10.0423 10.5997 10.1786 10.4635 10.3604 10.3726C10.4512 10.3272 10.5421 10.2817 10.6784 10.2817C10.8601 10.2817 11.0872 10.3272 11.2235 10.418C11.2689 10.418 11.2689 10.4635 11.3144 10.4635C11.4507 10.5997 11.5869 10.736 11.7232 10.9177C11.9504 11.372 12.1775 11.7809 12.3592 12.2806C12.7227 13.2801 13.0407 14.5521 13.0407 14.5521L13.9493 18.1864C14.6307 20.685 15.1758 21.8662 15.1758 21.8662C16.5841 25.0916 18.7193 26.0002 18.7193 26.0002C19.7642 26.5454 20.9453 26.8634 22.1265 26.9088C23.2622 26.9542 24.398 26.7271 25.3974 26.2274C26.4877 25.6822 27.4871 24.8645 28.2594 23.9105C28.7592 23.3199 29.5314 21.8662 29.5314 21.8662C30.3946 20.1853 31.0306 18.4136 31.4849 16.5964C31.8029 15.4607 32.0301 14.3249 32.2118 13.1438C32.3026 12.5532 32.3935 12.008 32.4389 11.4175C32.5298 10.8723 32.5298 10.3272 32.3935 9.78202C32.3481 9.69116 32.3481 9.6003 32.3026 9.50944C32.0301 8.82801 31.5303 8.28286 30.8943 7.91942C30.44 7.60142 29.8949 7.46513 29.3497 7.46513Z" fill="url(#paint23_radial_7_702)"/>
<path d="M29.3497 7.46513C29.0772 7.46513 28.8046 7.51056 28.5774 7.55599C29.168 8.41914 29.6677 9.32773 30.0766 10.2817C30.2583 10.6906 30.3492 11.1449 30.3492 11.5992C30.3492 12.008 30.2583 12.4169 30.122 12.8258C29.9403 13.1892 29.7132 13.5526 29.4406 13.8706C29.168 14.1886 28.8046 14.4158 28.3957 14.5521C28.0323 14.6884 27.578 14.7792 27.1691 14.7792C26.624 14.7792 26.0334 14.6429 25.5791 14.3249L25.2611 15.5515C24.6705 17.5504 24.2617 18.2773 24.2617 18.2773C24.0345 18.8224 23.7619 19.3221 23.4439 19.8219C23.2168 20.1399 22.9442 20.4579 22.5808 20.5942C22.4445 20.6396 22.3082 20.6396 22.1719 20.6396C22.0356 20.6396 21.8994 20.5941 21.7631 20.5033C21.5359 20.3216 21.3088 20.049 21.1725 19.7764C20.9908 19.4584 20.8545 19.1404 20.7182 18.8224C20.4456 18.141 19.9913 16.4601 19.9913 16.4601L19.537 14.6884L19.0828 12.9166L18.7647 11.7355C17.947 8.69172 16.7659 7.19256 16.7659 7.19256C15.8573 5.87511 14.5398 4.9211 13.0407 4.37595C11.3144 3.73994 9.4972 4.10338 9.4972 4.10338C6.63517 4.64853 5.13601 6.60198 4.5 7.55599C4.818 7.64685 5.09058 7.73771 5.36315 7.91942C5.72659 8.14657 6.04459 8.41914 6.27174 8.73715C6.6806 9.32773 6.81689 10.1 6.86231 10.8269C7.04403 12.4169 7.36203 13.9615 7.7709 15.5061C8.72491 12.2806 9.90607 10.7815 9.90607 10.7815C10.0423 10.5997 10.1786 10.4635 10.3604 10.3726C10.4512 10.3272 10.5421 10.2817 10.6784 10.2817C10.8601 10.2817 11.0872 10.3272 11.2235 10.418C11.2689 10.418 11.2689 10.4635 11.3144 10.4635C11.4507 10.5997 11.5869 10.736 11.7232 10.9177C11.9504 11.372 12.1775 11.7809 12.3592 12.2806C12.7227 13.2801 13.0407 14.5521 13.0407 14.5521L13.9493 18.1864C14.6307 20.685 15.1758 21.8662 15.1758 21.8662C16.5841 25.0916 18.7193 26.0002 18.7193 26.0002C19.7642 26.5454 20.9453 26.8634 22.1265 26.9088C23.2622 26.9542 24.398 26.7271 25.3974 26.2274C26.4877 25.6822 27.4871 24.8645 28.2594 23.9105C28.7592 23.3199 29.5314 21.8662 29.5314 21.8662C30.3946 20.1853 31.0306 18.4136 31.4849 16.5964C31.8029 15.4607 32.0301 14.3249 32.2118 13.1438C32.3026 12.5532 32.3935 12.008 32.4389 11.4175C32.5298 10.8723 32.5298 10.3272 32.3935 9.78202C32.3481 9.69116 32.3481 9.6003 32.3026 9.50944C32.0301 8.82801 31.5303 8.28286 30.8943 7.91942C30.44 7.60142 29.8949 7.46513 29.3497 7.46513Z" fill="url(#paint24_radial_7_702)"/>
<path d="M29.3497 7.46513C29.0772 7.46513 28.8046 7.51056 28.5774 7.55599C29.168 8.41914 29.6677 9.32773 30.0766 10.2817C30.2583 10.6906 30.3492 11.1449 30.3492 11.5992C30.3492 12.008 30.2583 12.4169 30.122 12.8258C29.9403 13.1892 29.7132 13.5526 29.4406 13.8706C29.168 14.1886 28.8046 14.4158 28.3957 14.5521C28.0323 14.6884 27.578 14.7792 27.1691 14.7792C26.624 14.7792 26.0334 14.6429 25.5791 14.3249L25.2611 15.5515C24.6705 17.5504 24.2617 18.2773 24.2617 18.2773C24.0345 18.8224 23.7619 19.3221 23.4439 19.8219C23.2168 20.1399 22.9442 20.4579 22.5808 20.5942C22.4445 20.6396 22.3082 20.6396 22.1719 20.6396C22.0356 20.6396 21.8994 20.5941 21.7631 20.5033C21.5359 20.3216 21.3088 20.049 21.1725 19.7764C20.9908 19.4584 20.8545 19.1404 20.7182 18.8224C20.4456 18.141 19.9913 16.4601 19.9913 16.4601L19.537 14.6884L19.0828 12.9166L18.7647 11.7355C17.947 8.69172 16.7659 7.19256 16.7659 7.19256C15.8573 5.87511 14.5398 4.9211 13.0407 4.37595C11.3144 3.73994 9.4972 4.10338 9.4972 4.10338C6.63517 4.64853 5.13601 6.60198 4.5 7.55599C4.818 7.64685 5.09058 7.73771 5.36315 7.91942C5.72659 8.14657 6.04459 8.41914 6.27174 8.73715C6.6806 9.32773 6.81689 10.1 6.86231 10.8269C7.04403 12.4169 7.36203 13.9615 7.7709 15.5061C8.72491 12.2806 9.90607 10.7815 9.90607 10.7815C10.0423 10.5997 10.1786 10.4635 10.3604 10.3726C10.4512 10.3272 10.5421 10.2817 10.6784 10.2817C10.8601 10.2817 11.0872 10.3272 11.2235 10.418C11.2689 10.418 11.2689 10.4635 11.3144 10.4635C11.4507 10.5997 11.5869 10.736 11.7232 10.9177C11.9504 11.372 12.1775 11.7809 12.3592 12.2806C12.7227 13.2801 13.0407 14.5521 13.0407 14.5521L13.9493 18.1864C14.6307 20.685 15.1758 21.8662 15.1758 21.8662C16.5841 25.0916 18.7193 26.0002 18.7193 26.0002C19.7642 26.5454 20.9453 26.8634 22.1265 26.9088C23.2622 26.9542 24.398 26.7271 25.3974 26.2274C26.4877 25.6822 27.4871 24.8645 28.2594 23.9105C28.7592 23.3199 29.5314 21.8662 29.5314 21.8662C30.3946 20.1853 31.0306 18.4136 31.4849 16.5964C31.8029 15.4607 32.0301 14.3249 32.2118 13.1438C32.3026 12.5532 32.3935 12.008 32.4389 11.4175C32.5298 10.8723 32.5298 10.3272 32.3935 9.78202C32.3481 9.69116 32.3481 9.6003 32.3026 9.50944C32.0301 8.82801 31.5303 8.28286 30.8943 7.91942C30.44 7.60142 29.8949 7.46513 29.3497 7.46513Z" fill="url(#paint25_radial_7_702)"/>
<path d="M29.3497 7.46513C29.0772 7.46513 28.8046 7.51056 28.5774 7.55599C29.168 8.41914 29.6677 9.32773 30.0766 10.2817C30.2583 10.6906 30.3492 11.1449 30.3492 11.5992C30.3492 12.008 30.2583 12.4169 30.122 12.8258C29.9403 13.1892 29.7132 13.5526 29.4406 13.8706C29.168 14.1886 28.8046 14.4158 28.3957 14.5521C28.0323 14.6884 27.578 14.7792 27.1691 14.7792C26.624 14.7792 26.0334 14.6429 25.5791 14.3249L25.2611 15.5515C24.6705 17.5504 24.2617 18.2773 24.2617 18.2773C24.0345 18.8224 23.7619 19.3221 23.4439 19.8219C23.2168 20.1399 22.9442 20.4579 22.5808 20.5942C22.4445 20.6396 22.3082 20.6396 22.1719 20.6396C22.0356 20.6396 21.8994 20.5941 21.7631 20.5033C21.5359 20.3216 21.3088 20.049 21.1725 19.7764C20.9908 19.4584 20.8545 19.1404 20.7182 18.8224C20.4456 18.141 19.9913 16.4601 19.9913 16.4601L19.537 14.6884L19.0828 12.9166L18.7647 11.7355C17.947 8.69172 16.7659 7.19256 16.7659 7.19256C15.8573 5.87511 14.5398 4.9211 13.0407 4.37595C11.3144 3.73994 9.4972 4.10338 9.4972 4.10338C6.63517 4.64853 5.13601 6.60198 4.5 7.55599C4.818 7.64685 5.09058 7.73771 5.36315 7.91942C5.72659 8.14657 6.04459 8.41914 6.27174 8.73715C6.6806 9.32773 6.81689 10.1 6.86231 10.8269C7.04403 12.4169 7.36203 13.9615 7.7709 15.5061C8.72491 12.2806 9.90607 10.7815 9.90607 10.7815C10.0423 10.5997 10.1786 10.4635 10.3604 10.3726C10.4512 10.3272 10.5421 10.2817 10.6784 10.2817C10.8601 10.2817 11.0872 10.3272 11.2235 10.418C11.2689 10.418 11.2689 10.4635 11.3144 10.4635C11.4507 10.5997 11.5869 10.736 11.7232 10.9177C11.9504 11.372 12.1775 11.7809 12.3592 12.2806C12.7227 13.2801 13.0407 14.5521 13.0407 14.5521L13.9493 18.1864C14.6307 20.685 15.1758 21.8662 15.1758 21.8662C16.5841 25.0916 18.7193 26.0002 18.7193 26.0002C19.7642 26.5454 20.9453 26.8634 22.1265 26.9088C23.2622 26.9542 24.398 26.7271 25.3974 26.2274C26.4877 25.6822 27.4871 24.8645 28.2594 23.9105C28.7592 23.3199 29.5314 21.8662 29.5314 21.8662C30.3946 20.1853 31.0306 18.4136 31.4849 16.5964C31.8029 15.4607 32.0301 14.3249 32.2118 13.1438C32.3026 12.5532 32.3935 12.008 32.4389 11.4175C32.5298 10.8723 32.5298 10.3272 32.3935 9.78202C32.3481 9.69116 32.3481 9.6003 32.3026 9.50944C32.0301 8.82801 31.5303 8.28286 30.8943 7.91942C30.44 7.60142 29.8949 7.46513 29.3497 7.46513Z" fill="url(#paint26_radial_7_702)"/>
<path d="M29.3497 7.46513C29.0772 7.46513 28.8046 7.51056 28.5774 7.55599C29.168 8.41914 29.6677 9.32773 30.0766 10.2817C30.2583 10.6906 30.3492 11.1449 30.3492 11.5992C30.3492 12.008 30.2583 12.4169 30.122 12.8258C29.9403 13.1892 29.7132 13.5526 29.4406 13.8706C29.168 14.1886 28.8046 14.4158 28.3957 14.5521C28.0323 14.6884 27.578 14.7792 27.1691 14.7792C26.624 14.7792 26.0334 14.6429 25.5791 14.3249L25.2611 15.5515C24.6705 17.5504 24.2617 18.2773 24.2617 18.2773C24.0345 18.8224 23.7619 19.3221 23.4439 19.8219C23.2168 20.1399 22.9442 20.4579 22.5808 20.5942C22.4445 20.6396 22.3082 20.6396 22.1719 20.6396C22.0356 20.6396 21.8994 20.5941 21.7631 20.5033C21.5359 20.3216 21.3088 20.049 21.1725 19.7764C20.9908 19.4584 20.8545 19.1404 20.7182 18.8224C20.4456 18.141 19.9913 16.4601 19.9913 16.4601L19.537 14.6884L19.0828 12.9166L18.7647 11.7355C17.947 8.69172 16.7659 7.19256 16.7659 7.19256C15.8573 5.87511 14.5398 4.9211 13.0407 4.37595C11.3144 3.73994 9.4972 4.10338 9.4972 4.10338C6.63517 4.64853 5.13601 6.60198 4.5 7.55599C4.818 7.64685 5.09058 7.73771 5.36315 7.91942C5.72659 8.14657 6.04459 8.41914 6.27174 8.73715C6.6806 9.32773 6.81689 10.1 6.86231 10.8269C7.04403 12.4169 7.36203 13.9615 7.7709 15.5061C8.72491 12.2806 9.90607 10.7815 9.90607 10.7815C10.0423 10.5997 10.1786 10.4635 10.3604 10.3726C10.4512 10.3272 10.5421 10.2817 10.6784 10.2817C10.8601 10.2817 11.0872 10.3272 11.2235 10.418C11.2689 10.418 11.2689 10.4635 11.3144 10.4635C11.4507 10.5997 11.5869 10.736 11.7232 10.9177C11.9504 11.372 12.1775 11.7809 12.3592 12.2806C12.7227 13.2801 13.0407 14.5521 13.0407 14.5521L13.9493 18.1864C14.6307 20.685 15.1758 21.8662 15.1758 21.8662C16.5841 25.0916 18.7193 26.0002 18.7193 26.0002C19.7642 26.5454 20.9453 26.8634 22.1265 26.9088C23.2622 26.9542 24.398 26.7271 25.3974 26.2274C26.4877 25.6822 27.4871 24.8645 28.2594 23.9105C28.7592 23.3199 29.5314 21.8662 29.5314 21.8662C30.3946 20.1853 31.0306 18.4136 31.4849 16.5964C31.8029 15.4607 32.0301 14.3249 32.2118 13.1438C32.3026 12.5532 32.3935 12.008 32.4389 11.4175C32.5298 10.8723 32.5298 10.3272 32.3935 9.78202C32.3481 9.69116 32.3481 9.6003 32.3026 9.50944C32.0301 8.82801 31.5303 8.28286 30.8943 7.91942C30.44 7.60142 29.8949 7.46513 29.3497 7.46513Z" fill="url(#paint27_radial_7_702)"/>
<path d="M29.3497 7.46513C29.0772 7.46513 28.8046 7.51056 28.5774 7.55599C29.168 8.41914 29.6677 9.32773 30.0766 10.2817C30.2583 10.6906 30.3492 11.1449 30.3492 11.5992C30.3492 12.008 30.2583 12.4169 30.122 12.8258C29.9403 13.1892 29.7132 13.5526 29.4406 13.8706C29.168 14.1886 28.8046 14.4158 28.3957 14.5521C28.0323 14.6884 27.578 14.7792 27.1691 14.7792C26.624 14.7792 26.0334 14.6429 25.5791 14.3249L25.2611 15.5515C24.6705 17.5504 24.2617 18.2773 24.2617 18.2773C24.0345 18.8224 23.7619 19.3221 23.4439 19.8219C23.2168 20.1399 22.9442 20.4579 22.5808 20.5942C22.4445 20.6396 22.3082 20.6396 22.1719 20.6396C22.0356 20.6396 21.8994 20.5941 21.7631 20.5033C21.5359 20.3216 21.3088 20.049 21.1725 19.7764C20.9908 19.4584 20.8545 19.1404 20.7182 18.8224C20.4456 18.141 19.9913 16.4601 19.9913 16.4601L19.537 14.6884L19.0828 12.9166L18.7647 11.7355C17.947 8.69172 16.7659 7.19256 16.7659 7.19256C15.8573 5.87511 14.5398 4.9211 13.0407 4.37595C11.3144 3.73994 9.4972 4.10338 9.4972 4.10338C6.63517 4.64853 5.13601 6.60198 4.5 7.55599C4.818 7.64685 5.09058 7.73771 5.36315 7.91942C5.72659 8.14657 6.04459 8.41914 6.27174 8.73715C6.6806 9.32773 6.81689 10.1 6.86231 10.8269C7.04403 12.4169 7.36203 13.9615 7.7709 15.5061C8.72491 12.2806 9.90607 10.7815 9.90607 10.7815C10.0423 10.5997 10.1786 10.4635 10.3604 10.3726C10.4512 10.3272 10.5421 10.2817 10.6784 10.2817C10.8601 10.2817 11.0872 10.3272 11.2235 10.418C11.2689 10.418 11.2689 10.4635 11.3144 10.4635C11.4507 10.5997 11.5869 10.736 11.7232 10.9177C11.9504 11.372 12.1775 11.7809 12.3592 12.2806C12.7227 13.2801 13.0407 14.5521 13.0407 14.5521L13.9493 18.1864C14.6307 20.685 15.1758 21.8662 15.1758 21.8662C16.5841 25.0916 18.7193 26.0002 18.7193 26.0002C19.7642 26.5454 20.9453 26.8634 22.1265 26.9088C23.2622 26.9542 24.398 26.7271 25.3974 26.2274C26.4877 25.6822 27.4871 24.8645 28.2594 23.9105C28.7592 23.3199 29.5314 21.8662 29.5314 21.8662C30.3946 20.1853 31.0306 18.4136 31.4849 16.5964C31.8029 15.4607 32.0301 14.3249 32.2118 13.1438C32.3026 12.5532 32.3935 12.008 32.4389 11.4175C32.5298 10.8723 32.5298 10.3272 32.3935 9.78202C32.3481 9.69116 32.3481 9.6003 32.3026 9.50944C32.0301 8.82801 31.5303 8.28286 30.8943 7.91942C30.44 7.60142 29.8949 7.46513 29.3497 7.46513Z" fill="url(#paint28_radial_7_702)"/>
<path d="M29.3497 7.46513C29.0772 7.46513 28.8046 7.51056 28.5774 7.55599C29.168 8.41914 29.6677 9.32773 30.0766 10.2817C30.2583 10.6906 30.3492 11.1449 30.3492 11.5992C30.3492 12.008 30.2583 12.4169 30.122 12.8258C29.9403 13.1892 29.7132 13.5526 29.4406 13.8706C29.168 14.1886 28.8046 14.4158 28.3957 14.5521C28.0323 14.6884 27.578 14.7792 27.1691 14.7792C26.624 14.7792 26.0334 14.6429 25.5791 14.3249L25.2611 15.5515C24.6705 17.5504 24.2617 18.2773 24.2617 18.2773C24.0345 18.8224 23.7619 19.3221 23.4439 19.8219C23.2168 20.1399 22.9442 20.4579 22.5808 20.5942C22.4445 20.6396 22.3082 20.6396 22.1719 20.6396C22.0356 20.6396 21.8994 20.5941 21.7631 20.5033C21.5359 20.3216 21.3088 20.049 21.1725 19.7764C20.9908 19.4584 20.8545 19.1404 20.7182 18.8224C20.4456 18.141 19.9913 16.4601 19.9913 16.4601L19.537 14.6884L19.0828 12.9166L18.7647 11.7355C17.947 8.69172 16.7659 7.19256 16.7659 7.19256C15.8573 5.87511 14.5398 4.9211 13.0407 4.37595C11.3144 3.73994 9.4972 4.10338 9.4972 4.10338C6.63517 4.64853 5.13601 6.60198 4.5 7.55599C4.818 7.64685 5.09058 7.73771 5.36315 7.91942C5.72659 8.14657 6.04459 8.41914 6.27174 8.73715C6.6806 9.32773 6.81689 10.1 6.86231 10.8269C7.04403 12.4169 7.36203 13.9615 7.7709 15.5061C8.72491 12.2806 9.90607 10.7815 9.90607 10.7815C10.0423 10.5997 10.1786 10.4635 10.3604 10.3726C10.4512 10.3272 10.5421 10.2817 10.6784 10.2817C10.8601 10.2817 11.0872 10.3272 11.2235 10.418C11.2689 10.418 11.2689 10.4635 11.3144 10.4635C11.4507 10.5997 11.5869 10.736 11.7232 10.9177C11.9504 11.372 12.1775 11.7809 12.3592 12.2806C12.7227 13.2801 13.0407 14.5521 13.0407 14.5521L13.9493 18.1864C14.6307 20.685 15.1758 21.8662 15.1758 21.8662C16.5841 25.0916 18.7193 26.0002 18.7193 26.0002C19.7642 26.5454 20.9453 26.8634 22.1265 26.9088C23.2622 26.9542 24.398 26.7271 25.3974 26.2274C26.4877 25.6822 27.4871 24.8645 28.2594 23.9105C28.7592 23.3199 29.5314 21.8662 29.5314 21.8662C30.3946 20.1853 31.0306 18.4136 31.4849 16.5964C31.8029 15.4607 32.0301 14.3249 32.2118 13.1438C32.3026 12.5532 32.3935 12.008 32.4389 11.4175C32.5298 10.8723 32.5298 10.3272 32.3935 9.78202C32.3481 9.69116 32.3481 9.6003 32.3026 9.50944C32.0301 8.82801 31.5303 8.28286 30.8943 7.91942C30.44 7.60142 29.8949 7.46513 29.3497 7.46513Z" fill="url(#paint29_radial_7_702)"/>
<path d="M29.3497 7.46513C29.0772 7.46513 28.8046 7.51056 28.5774 7.55599C29.168 8.41914 29.6677 9.32773 30.0766 10.2817C30.2583 10.6906 30.3492 11.1449 30.3492 11.5992C30.3492 12.008 30.2583 12.4169 30.122 12.8258C29.9403 13.1892 29.7132 13.5526 29.4406 13.8706C29.168 14.1886 28.8046 14.4158 28.3957 14.5521C28.0323 14.6884 27.578 14.7792 27.1691 14.7792C26.624 14.7792 26.0334 14.6429 25.5791 14.3249L25.2611 15.5515C24.6705 17.5504 24.2617 18.2773 24.2617 18.2773C24.0345 18.8224 23.7619 19.3221 23.4439 19.8219C23.2168 20.1399 22.9442 20.4579 22.5808 20.5942C22.4445 20.6396 22.3082 20.6396 22.1719 20.6396C22.0356 20.6396 21.8994 20.5941 21.7631 20.5033C21.5359 20.3216 21.3088 20.049 21.1725 19.7764C20.9908 19.4584 20.8545 19.1404 20.7182 18.8224C20.4456 18.141 19.9913 16.4601 19.9913 16.4601L19.537 14.6884L19.0828 12.9166L18.7647 11.7355C17.947 8.69172 16.7659 7.19256 16.7659 7.19256C15.8573 5.87511 14.5398 4.9211 13.0407 4.37595C11.3144 3.73994 9.4972 4.10338 9.4972 4.10338C6.63517 4.64853 5.13601 6.60198 4.5 7.55599C4.818 7.64685 5.09058 7.73771 5.36315 7.91942C5.72659 8.14657 6.04459 8.41914 6.27174 8.73715C6.6806 9.32773 6.81689 10.1 6.86231 10.8269C7.04403 12.4169 7.36203 13.9615 7.7709 15.5061C8.72491 12.2806 9.90607 10.7815 9.90607 10.7815C10.0423 10.5997 10.1786 10.4635 10.3604 10.3726C10.4512 10.3272 10.5421 10.2817 10.6784 10.2817C10.8601 10.2817 11.0872 10.3272 11.2235 10.418C11.2689 10.418 11.2689 10.4635 11.3144 10.4635C11.4507 10.5997 11.5869 10.736 11.7232 10.9177C11.9504 11.372 12.1775 11.7809 12.3592 12.2806C12.7227 13.2801 13.0407 14.5521 13.0407 14.5521L13.9493 18.1864C14.6307 20.685 15.1758 21.8662 15.1758 21.8662C16.5841 25.0916 18.7193 26.0002 18.7193 26.0002C19.7642 26.5454 20.9453 26.8634 22.1265 26.9088C23.2622 26.9542 24.398 26.7271 25.3974 26.2274C26.4877 25.6822 27.4871 24.8645 28.2594 23.9105C28.7592 23.3199 29.5314 21.8662 29.5314 21.8662C30.3946 20.1853 31.0306 18.4136 31.4849 16.5964C31.8029 15.4607 32.0301 14.3249 32.2118 13.1438C32.3026 12.5532 32.3935 12.008 32.4389 11.4175C32.5298 10.8723 32.5298 10.3272 32.3935 9.78202C32.3481 9.69116 32.3481 9.6003 32.3026 9.50944C32.0301 8.82801 31.5303 8.28286 30.8943 7.91942C30.44 7.60142 29.8949 7.46513 29.3497 7.46513Z" fill="url(#paint30_radial_7_702)"/>
<path d="M29.3497 7.46513C29.0772 7.46513 28.8046 7.51056 28.5774 7.55599C29.168 8.41914 29.6677 9.32773 30.0766 10.2817C30.2583 10.6906 30.3492 11.1449 30.3492 11.5992C30.3492 12.008 30.2583 12.4169 30.122 12.8258C29.9403 13.1892 29.7132 13.5526 29.4406 13.8706C29.168 14.1886 28.8046 14.4158 28.3957 14.5521C28.0323 14.6884 27.578 14.7792 27.1691 14.7792C26.624 14.7792 26.0334 14.6429 25.5791 14.3249L25.2611 15.5515C24.6705 17.5504 24.2617 18.2773 24.2617 18.2773C24.0345 18.8224 23.7619 19.3221 23.4439 19.8219C23.2168 20.1399 22.9442 20.4579 22.5808 20.5942C22.4445 20.6396 22.3082 20.6396 22.1719 20.6396C22.0356 20.6396 21.8994 20.5941 21.7631 20.5033C21.5359 20.3216 21.3088 20.049 21.1725 19.7764C20.9908 19.4584 20.8545 19.1404 20.7182 18.8224C20.4456 18.141 19.9913 16.4601 19.9913 16.4601L19.537 14.6884L19.0828 12.9166L18.7647 11.7355C17.947 8.69172 16.7659 7.19256 16.7659 7.19256C15.8573 5.87511 14.5398 4.9211 13.0407 4.37595C11.3144 3.73994 9.4972 4.10338 9.4972 4.10338C6.63517 4.64853 5.13601 6.60198 4.5 7.55599C4.818 7.64685 5.09058 7.73771 5.36315 7.91942C5.72659 8.14657 6.04459 8.41914 6.27174 8.73715C6.6806 9.32773 6.81689 10.1 6.86231 10.8269C7.04403 12.4169 7.36203 13.9615 7.7709 15.5061C8.72491 12.2806 9.90607 10.7815 9.90607 10.7815C10.0423 10.5997 10.1786 10.4635 10.3604 10.3726C10.4512 10.3272 10.5421 10.2817 10.6784 10.2817C10.8601 10.2817 11.0872 10.3272 11.2235 10.418C11.2689 10.418 11.2689 10.4635 11.3144 10.4635C11.4507 10.5997 11.5869 10.736 11.7232 10.9177C11.9504 11.372 12.1775 11.7809 12.3592 12.2806C12.7227 13.2801 13.0407 14.5521 13.0407 14.5521L13.9493 18.1864C14.6307 20.685 15.1758 21.8662 15.1758 21.8662C16.5841 25.0916 18.7193 26.0002 18.7193 26.0002C19.7642 26.5454 20.9453 26.8634 22.1265 26.9088C23.2622 26.9542 24.398 26.7271 25.3974 26.2274C26.4877 25.6822 27.4871 24.8645 28.2594 23.9105C28.7592 23.3199 29.5314 21.8662 29.5314 21.8662C30.3946 20.1853 31.0306 18.4136 31.4849 16.5964C31.8029 15.4607 32.0301 14.3249 32.2118 13.1438C32.3026 12.5532 32.3935 12.008 32.4389 11.4175C32.5298 10.8723 32.5298 10.3272 32.3935 9.78202C32.3481 9.69116 32.3481 9.6003 32.3026 9.50944C32.0301 8.82801 31.5303 8.28286 30.8943 7.91942C30.44 7.60142 29.8949 7.46513 29.3497 7.46513Z" fill="url(#paint31_radial_7_702)"/>
<path d="M29.3497 7.46513C29.0772 7.46513 28.8046 7.51056 28.5774 7.55599C29.168 8.41914 29.6677 9.32773 30.0766 10.2817C30.2583 10.6906 30.3492 11.1449 30.3492 11.5992C30.3492 12.008 30.2583 12.4169 30.122 12.8258C29.9403 13.1892 29.7132 13.5526 29.4406 13.8706C29.168 14.1886 28.8046 14.4158 28.3957 14.5521C28.0323 14.6884 27.578 14.7792 27.1691 14.7792C26.624 14.7792 26.0334 14.6429 25.5791 14.3249L25.2611 15.5515C24.6705 17.5504 24.2617 18.2773 24.2617 18.2773C24.0345 18.8224 23.7619 19.3221 23.4439 19.8219C23.2168 20.1399 22.9442 20.4579 22.5808 20.5942C22.4445 20.6396 22.3082 20.6396 22.1719 20.6396C22.0356 20.6396 21.8994 20.5941 21.7631 20.5033C21.5359 20.3216 21.3088 20.049 21.1725 19.7764C20.9908 19.4584 20.8545 19.1404 20.7182 18.8224C20.4456 18.141 19.9913 16.4601 19.9913 16.4601L19.537 14.6884L19.0828 12.9166L18.7647 11.7355C17.947 8.69172 16.7659 7.19256 16.7659 7.19256C15.8573 5.87511 14.5398 4.9211 13.0407 4.37595C11.3144 3.73994 9.4972 4.10338 9.4972 4.10338C6.63517 4.64853 5.13601 6.60198 4.5 7.55599C4.818 7.64685 5.09058 7.73771 5.36315 7.91942C5.72659 8.14657 6.04459 8.41914 6.27174 8.73715C6.6806 9.32773 6.81689 10.1 6.86231 10.8269C7.04403 12.4169 7.36203 13.9615 7.7709 15.5061C8.72491 12.2806 9.90607 10.7815 9.90607 10.7815C10.0423 10.5997 10.1786 10.4635 10.3604 10.3726C10.4512 10.3272 10.5421 10.2817 10.6784 10.2817C10.8601 10.2817 11.0872 10.3272 11.2235 10.418C11.2689 10.418 11.2689 10.4635 11.3144 10.4635C11.4507 10.5997 11.5869 10.736 11.7232 10.9177C11.9504 11.372 12.1775 11.7809 12.3592 12.2806C12.7227 13.2801 13.0407 14.5521 13.0407 14.5521L13.9493 18.1864C14.6307 20.685 15.1758 21.8662 15.1758 21.8662C16.5841 25.0916 18.7193 26.0002 18.7193 26.0002C19.7642 26.5454 20.9453 26.8634 22.1265 26.9088C23.2622 26.9542 24.398 26.7271 25.3974 26.2274C26.4877 25.6822 27.4871 24.8645 28.2594 23.9105C28.7592 23.3199 29.5314 21.8662 29.5314 21.8662C30.3946 20.1853 31.0306 18.4136 31.4849 16.5964C31.8029 15.4607 32.0301 14.3249 32.2118 13.1438C32.3026 12.5532 32.3935 12.008 32.4389 11.4175C32.5298 10.8723 32.5298 10.3272 32.3935 9.78202C32.3481 9.69116 32.3481 9.6003 32.3026 9.50944C32.0301 8.82801 31.5303 8.28286 30.8943 7.91942C30.44 7.60142 29.8949 7.46513 29.3497 7.46513Z" fill="url(#paint32_radial_7_702)"/>
<path d="M29.3497 7.46513C29.0772 7.46513 28.8046 7.51056 28.5774 7.55599C29.168 8.41914 29.6677 9.32773 30.0766 10.2817C30.2583 10.6906 30.3492 11.1449 30.3492 11.5992C30.3492 12.008 30.2583 12.4169 30.122 12.8258C29.9403 13.1892 29.7132 13.5526 29.4406 13.8706C29.168 14.1886 28.8046 14.4158 28.3957 14.5521C28.0323 14.6884 27.578 14.7792 27.1691 14.7792C26.624 14.7792 26.0334 14.6429 25.5791 14.3249L25.2611 15.5515C24.6705 17.5504 24.2617 18.2773 24.2617 18.2773C24.0345 18.8224 23.7619 19.3221 23.4439 19.8219C23.2168 20.1399 22.9442 20.4579 22.5808 20.5942C22.4445 20.6396 22.3082 20.6396 22.1719 20.6396C22.0356 20.6396 21.8994 20.5941 21.7631 20.5033C21.5359 20.3216 21.3088 20.049 21.1725 19.7764C20.9908 19.4584 20.8545 19.1404 20.7182 18.8224C20.4456 18.141 19.9913 16.4601 19.9913 16.4601L19.537 14.6884L19.0828 12.9166L18.7647 11.7355C17.947 8.69172 16.7659 7.19256 16.7659 7.19256C15.8573 5.87511 14.5398 4.9211 13.0407 4.37595C11.3144 3.73994 9.4972 4.10338 9.4972 4.10338C6.63517 4.64853 5.13601 6.60198 4.5 7.55599C4.818 7.64685 5.09058 7.73771 5.36315 7.91942C5.72659 8.14657 6.04459 8.41914 6.27174 8.73715C6.6806 9.32773 6.81689 10.1 6.86231 10.8269C7.04403 12.4169 7.36203 13.9615 7.7709 15.5061C8.72491 12.2806 9.90607 10.7815 9.90607 10.7815C10.0423 10.5997 10.1786 10.4635 10.3604 10.3726C10.4512 10.3272 10.5421 10.2817 10.6784 10.2817C10.8601 10.2817 11.0872 10.3272 11.2235 10.418C11.2689 10.418 11.2689 10.4635 11.3144 10.4635C11.4507 10.5997 11.5869 10.736 11.7232 10.9177C11.9504 11.372 12.1775 11.7809 12.3592 12.2806C12.7227 13.2801 13.0407 14.5521 13.0407 14.5521L13.9493 18.1864C14.6307 20.685 15.1758 21.8662 15.1758 21.8662C16.5841 25.0916 18.7193 26.0002 18.7193 26.0002C19.7642 26.5454 20.9453 26.8634 22.1265 26.9088C23.2622 26.9542 24.398 26.7271 25.3974 26.2274C26.4877 25.6822 27.4871 24.8645 28.2594 23.9105C28.7592 23.3199 29.5314 21.8662 29.5314 21.8662C30.3946 20.1853 31.0306 18.4136 31.4849 16.5964C31.8029 15.4607 32.0301 14.3249 32.2118 13.1438C32.3026 12.5532 32.3935 12.008 32.4389 11.4175C32.5298 10.8723 32.5298 10.3272 32.3935 9.78202C32.3481 9.69116 32.3481 9.6003 32.3026 9.50944C32.0301 8.82801 31.5303 8.28286 30.8943 7.91942C30.44 7.60142 29.8949 7.46513 29.3497 7.46513Z" fill="url(#paint33_radial_7_702)"/>
<path d="M29.3497 7.46513C29.0772 7.46513 28.8046 7.51056 28.5774 7.55599C29.168 8.41914 29.6677 9.32773 30.0766 10.2817C30.2583 10.6906 30.3492 11.1449 30.3492 11.5992C30.3492 12.008 30.2583 12.4169 30.122 12.8258C29.9403 13.1892 29.7132 13.5526 29.4406 13.8706C29.168 14.1886 28.8046 14.4158 28.3957 14.5521C28.0323 14.6884 27.578 14.7792 27.1691 14.7792C26.624 14.7792 26.0334 14.6429 25.5791 14.3249L25.2611 15.5515C24.6705 17.5504 24.2617 18.2773 24.2617 18.2773C24.0345 18.8224 23.7619 19.3221 23.4439 19.8219C23.2168 20.1399 22.9442 20.4579 22.5808 20.5942C22.4445 20.6396 22.3082 20.6396 22.1719 20.6396C22.0356 20.6396 21.8994 20.5941 21.7631 20.5033C21.5359 20.3216 21.3088 20.049 21.1725 19.7764C20.9908 19.4584 20.8545 19.1404 20.7182 18.8224C20.4456 18.141 19.9913 16.4601 19.9913 16.4601L19.537 14.6884L19.0828 12.9166L18.7647 11.7355C17.947 8.69172 16.7659 7.19256 16.7659 7.19256C15.8573 5.87511 14.5398 4.9211 13.0407 4.37595C11.3144 3.73994 9.4972 4.10338 9.4972 4.10338C6.63517 4.64853 5.13601 6.60198 4.5 7.55599C4.818 7.64685 5.09058 7.73771 5.36315 7.91942C5.72659 8.14657 6.04459 8.41914 6.27174 8.73715C6.6806 9.32773 6.81689 10.1 6.86231 10.8269C7.04403 12.4169 7.36203 13.9615 7.7709 15.5061C8.72491 12.2806 9.90607 10.7815 9.90607 10.7815C10.0423 10.5997 10.1786 10.4635 10.3604 10.3726C10.4512 10.3272 10.5421 10.2817 10.6784 10.2817C10.8601 10.2817 11.0872 10.3272 11.2235 10.418C11.2689 10.418 11.2689 10.4635 11.3144 10.4635C11.4507 10.5997 11.5869 10.736 11.7232 10.9177C11.9504 11.372 12.1775 11.7809 12.3592 12.2806C12.7227 13.2801 13.0407 14.5521 13.0407 14.5521L13.9493 18.1864C14.6307 20.685 15.1758 21.8662 15.1758 21.8662C16.5841 25.0916 18.7193 26.0002 18.7193 26.0002C19.7642 26.5454 20.9453 26.8634 22.1265 26.9088C23.2622 26.9542 24.398 26.7271 25.3974 26.2274C26.4877 25.6822 27.4871 24.8645 28.2594 23.9105C28.7592 23.3199 29.5314 21.8662 29.5314 21.8662C30.3946 20.1853 31.0306 18.4136 31.4849 16.5964C31.8029 15.4607 32.0301 14.3249 32.2118 13.1438C32.3026 12.5532 32.3935 12.008 32.4389 11.4175C32.5298 10.8723 32.5298 10.3272 32.3935 9.78202C32.3481 9.69116 32.3481 9.6003 32.3026 9.50944C32.0301 8.82801 31.5303 8.28286 30.8943 7.91942C30.44 7.60142 29.8949 7.46513 29.3497 7.46513Z" fill="url(#paint34_linear_7_702)"/>
</g>
<defs>
<linearGradient id="paint0_linear_7_702" x1="1.9401" y1="19.4903" x2="26.8439" y2="9.42369" gradientUnits="userSpaceOnUse">
<stop offset="0.13" stop-color="#1CBBF3"/>
<stop offset="0.34" stop-color="#1F99A5"/>
<stop offset="0.45" stop-color="#209CA6"/>
<stop offset="0.51" stop-color="#24A4AA"/>
<stop offset="0.57" stop-color="#2BB3B0"/>
<stop offset="0.6" stop-color="#30BDB4"/>
<stop offset="0.79" stop-color="#38BA90"/>
<stop offset="1" stop-color="#60F05A"/>
</linearGradient>
<radialGradient id="paint1_radial_7_702" cx="0" cy="0" r="1" gradientUnits="userSpaceOnUse" gradientTransform="translate(18.533 13.5608) rotate(74.3201) scale(11.9028 9.04614)">
<stop stop-color="#227B60"/>
<stop offset="0.14" stop-color="#227B60" stop-opacity="0.81"/>
<stop offset="0.58" stop-color="#227B60" stop-opacity="0.23"/>
<stop offset="0.78" stop-color="#227B60" stop-opacity="0"/>
</radialGradient>
<radialGradient id="paint2_radial_7_702" cx="0" cy="0" r="1" gradientUnits="userSpaceOnUse" gradientTransform="translate(20.3129 12.7077) rotate(91.1458) scale(8.04883 6.11626)">
<stop stop-color="#227B60"/>
<stop offset="0.25" stop-color="#227B60" stop-opacity="0.7"/>
<stop offset="0.71" stop-color="#227B60" stop-opacity="0.2"/>
<stop offset="0.92" stop-color="#227B60" stop-opacity="0"/>
</radialGradient>
<radialGradient id="paint3_radial_7_702" cx="0" cy="0" r="1" gradientUnits="userSpaceOnUse" gradientTransform="translate(19.9326 13.0405) rotate(88.6) scale(7.50291 5.32702)">
<stop stop-color="#227B60"/>
<stop offset="0.07" stop-color="#227B60" stop-opacity="0.9"/>
<stop offset="0.34" stop-color="#227B60" stop-opacity="0.51"/>
<stop offset="0.59" stop-color="#227B60" stop-opacity="0.23"/>
<stop offset="0.79" stop-color="#227B60" stop-opacity="0.06"/>
<stop offset="0.92" stop-color="#227B60" stop-opacity="0"/>
</radialGradient>
<radialGradient id="paint4_radial_7_702" cx="0" cy="0" r="1" gradientUnits="userSpaceOnUse" gradientTransform="translate(20.0609 12.709) rotate(88.6) scale(6.05806 4.30124)">
<stop stop-color="#227B60"/>
<stop offset="0.36" stop-color="#227B60" stop-opacity="0.63"/>
<stop offset="0.92" stop-color="#227B60" stop-opacity="0"/>
</radialGradient>
<radialGradient id="paint5_radial_7_702" cx="0" cy="0" r="1" gradientUnits="userSpaceOnUse" gradientTransform="translate(20.3222 13.0425) rotate(88.5997) scale(4.83165 3.09228)">
<stop stop-color="#20735A"/>
<stop offset="0.15" stop-color="#20745A" stop-opacity="0.93"/>
<stop offset="0.38" stop-color="#21755C" stop-opacity="0.74"/>
<stop offset="0.67" stop-color="#21785D" stop-opacity="0.43"/>
<stop offset="1" stop-color="#227B60" stop-opacity="0"/>
</radialGradient>
<radialGradient id="paint6_radial_7_702" cx="0" cy="0" r="1" gradientUnits="userSpaceOnUse" gradientTransform="translate(20.9676 13.8269) rotate(23.7999) scale(7.77502 5.83127)">
<stop stop-color="#227A61"/>
<stop offset="0.36" stop-color="#227A61" stop-opacity="0.56"/>
<stop offset="0.72" stop-color="#227A61" stop-opacity="0.16"/>
<stop offset="0.9" stop-color="#227A61" stop-opacity="0"/>
</radialGradient>
<radialGradient id="paint7_radial_7_702" cx="0" cy="0" r="1" gradientUnits="userSpaceOnUse" gradientTransform="translate(18.2875 1.19094) rotate(35.2724) scale(10.3689 9.4809)">
<stop stop-color="#3CD9C3"/>
<stop offset="0.07" stop-color="#3BD7C1" stop-opacity="0.9"/>
<stop offset="0.41" stop-color="#38CEB9" stop-opacity="0.42"/>
<stop offset="0.65" stop-color="#36C8B4" stop-opacity="0.12"/>
<stop offset="0.76" stop-color="#35C6B2" stop-opacity="0"/>
</radialGradient>
<radialGradient id="paint8_radial_7_702" cx="0" cy="0" r="1" gradientUnits="userSpaceOnUse" gradientTransform="translate(-17003.4 -23101.7) rotate(35.2724) scale(1842.14 1292.72)">
<stop stop-color="#3CD9C3"/>
<stop offset="0.07" stop-color="#3BD7C1" stop-opacity="0.9"/>
<stop offset="0.41" stop-color="#38CEB9" stop-opacity="0.42"/>
<stop offset="0.65" stop-color="#36C8B4" stop-opacity="0.12"/>
<stop offset="0.76" stop-color="#35C6B2" stop-opacity="0"/>
</radialGradient>
<radialGradient id="paint9_radial_7_702" cx="0" cy="0" r="1" gradientUnits="userSpaceOnUse" gradientTransform="translate(22.4532 15.8023) rotate(100.972) scale(9.14496 11.3007)">
<stop stop-color="#237F66" stop-opacity="0.8"/>
<stop offset="0.06" stop-color="#2C8C70" stop-opacity="0.65"/>
<stop offset="0.21" stop-color="#3DA785" stop-opacity="0.37"/>
<stop offset="0.35" stop-color="#4ABA93" stop-opacity="0.17"/>
<stop offset="0.47" stop-color="#51C59C" stop-opacity="0.04"/>
<stop offset="0.56" stop-color="#54C99F" stop-opacity="0"/>
</radialGradient>
<radialGradient id="paint10_radial_7_702" cx="0" cy="0" r="1" gradientUnits="userSpaceOnUse" gradientTransform="translate(17.3804 16.2559) rotate(-50.82) scale(11.9498 12.9058)">
<stop stop-color="#167C8A"/>
<stop offset="0.04" stop-color="#167C8A" stop-opacity="0.93"/>
<stop offset="0.33" stop-color="#177F8D" stop-opacity="0.43"/>
<stop offset="0.54" stop-color="#17818F" stop-opacity="0.12"/>
<stop offset="0.65" stop-color="#178290" stop-opacity="0"/>
</radialGradient>
<radialGradient id="paint11_radial_7_702" cx="0" cy="0" r="1" gradientUnits="userSpaceOnUse" gradientTransform="translate(16.6496 17.4439) rotate(-31.6599) scale(11.6575 9.20946)">
<stop offset="0.05" stop-color="#177D87"/>
<stop offset="0.11" stop-color="#177E89" stop-opacity="0.8"/>
<stop offset="0.21" stop-color="#177F8B" stop-opacity="0.52"/>
<stop offset="0.32" stop-color="#17818D" stop-opacity="0.29"/>
<stop offset="0.42" stop-color="#17818F" stop-opacity="0.13"/>
<stop offset="0.51" stop-color="#178290" stop-opacity="0.03"/>
<stop offset="0.6" stop-color="#178290" stop-opacity="0"/>
</radialGradient>
<radialGradient id="paint12_radial_7_702" cx="0" cy="0" r="1" gradientUnits="userSpaceOnUse" gradientTransform="translate(14.2286 17.2963) rotate(-130.539) scale(6.9455 5.46897)">
<stop offset="0.26" stop-color="#177F8A"/>
<stop offset="0.27" stop-color="#177F8A" stop-opacity="0.98"/>
<stop offset="0.38" stop-color="#17808C" stop-opacity="0.68"/>
<stop offset="0.5" stop-color="#17818D" stop-opacity="0.43"/>
<stop offset="0.62" stop-color="#17818F" stop-opacity="0.24"/>
<stop offset="0.74" stop-color="#17828F" stop-opacity="0.11"/>
<stop offset="0.86" stop-color="#178290" stop-opacity="0.03"/>
<stop offset="1" stop-color="#178290" stop-opacity="0"/>
</radialGradient>
<radialGradient id="paint13_radial_7_702" cx="0" cy="0" r="1" gradientUnits="userSpaceOnUse" gradientTransform="translate(12.5262 19.3431) rotate(-173.11) scale(6.51499)">
<stop stop-color="#13656E"/>
<stop offset="0.11" stop-color="#13646E" stop-opacity="0.73"/>
<stop offset="0.27" stop-color="#12646E" stop-opacity="0.41"/>
<stop offset="0.42" stop-color="#12636E" stop-opacity="0.18"/>
<stop offset="0.55" stop-color="#12636E" stop-opacity="0.05"/>
<stop offset="0.66" stop-color="#12636E" stop-opacity="0"/>
</radialGradient>
<radialGradient id="paint14_radial_7_702" cx="0" cy="0" r="1" gradientUnits="userSpaceOnUse" gradientTransform="translate(12.3604 20.3408) rotate(-119.32) scale(4.55617 3.82718)">
<stop offset="0.13" stop-color="#146A73"/>
<stop offset="0.24" stop-color="#156F79" stop-opacity="0.79"/>
<stop offset="0.45" stop-color="#167783" stop-opacity="0.45"/>
<stop offset="0.65" stop-color="#167D8A" stop-opacity="0.2"/>
<stop offset="0.82" stop-color="#17818E" stop-opacity="0.05"/>
<stop offset="0.95" stop-color="#178290" stop-opacity="0"/>
</radialGradient>
<radialGradient id="paint15_radial_7_702" cx="0" cy="0" r="1" gradientUnits="userSpaceOnUse" gradientTransform="translate(11.3432 18.268) rotate(-55.9924) scale(4.28598 3.39544)">
<stop stop-color="#198E9C"/>
<stop offset="0.1" stop-color="#198E9C" stop-opacity="0.87"/>
<stop offset="0.41" stop-color="#198E9C" stop-opacity="0.5"/>
<stop offset="0.67" stop-color="#198E9C" stop-opacity="0.23"/>
<stop offset="0.88" stop-color="#198E9C" stop-opacity="0.06"/>
<stop offset="1" stop-color="#198E9C" stop-opacity="0"/>
</radialGradient>
<linearGradient id="paint16_linear_7_702" x1="3.54193" y1="3.49156" x2="14.5308" y2="13.6609" gradientUnits="userSpaceOnUse">
<stop offset="0.13" stop-color="#2BF9FF"/>
<stop offset="0.27" stop-color="#29F9FF" stop-opacity="0.64"/>
<stop offset="0.4" stop-color="#27FAFF" stop-opacity="0.3"/>
<stop offset="0.49" stop-color="#26FAFF" stop-opacity="0.08"/>
<stop offset="0.54" stop-color="#26FAFF" stop-opacity="0"/>
</linearGradient>
<linearGradient id="paint17_linear_7_702" x1="-2.67913" y1="20.085" x2="10.156" y2="16.4461" gradientUnits="userSpaceOnUse">
<stop stop-color="#26FAFF"/>
<stop offset="0.06" stop-color="#26FAFF" stop-opacity="0.88"/>
<stop offset="0.24" stop-color="#26FAFF" stop-opacity="0.51"/>
<stop offset="0.39" stop-color="#26FAFF" stop-opacity="0.23"/>
<stop offset="0.5" stop-color="#26FAFF" stop-opacity="0.06"/>
<stop offset="0.55" stop-color="#26FAFF" stop-opacity="0"/>
</linearGradient>
<linearGradient id="paint18_linear_7_702" x1="0.72124" y1="19.6389" x2="15.1863" y2="14.4831" gradientUnits="userSpaceOnUse">
<stop stop-color="#21DEFF"/>
<stop offset="0.04" stop-color="#21DEFF" stop-opacity="0.88"/>
<stop offset="0.17" stop-color="#21DEFF" stop-opacity="0.51"/>
<stop offset="0.27" stop-color="#21DEFF" stop-opacity="0.23"/>
<stop offset="0.34" stop-color="#21DEFF" stop-opacity="0.06"/>
<stop offset="0.38" stop-color="#21DEFF" stop-opacity="0"/>
</linearGradient>
<linearGradient id="paint19_linear_7_702" x1="14.4663" y1="12.1772" x2="22.5572" y2="25.3734" gradientUnits="userSpaceOnUse">
<stop offset="0.62" stop-color="#21DEFF" stop-opacity="0"/>
<stop offset="0.66" stop-color="#21DEFF" stop-opacity="0.06"/>
<stop offset="0.73" stop-color="#21DEFF" stop-opacity="0.23"/>
<stop offset="0.83" stop-color="#21DEFF" stop-opacity="0.51"/>
<stop offset="0.96" stop-color="#21DEFF" stop-opacity="0.88"/>
<stop offset="1" stop-color="#21DEFF"/>
</linearGradient>
<linearGradient id="paint20_linear_7_702" x1="23.4694" y1="17.1076" x2="22.1973" y2="10.8997" gradientUnits="userSpaceOnUse">
<stop stop-color="#44B044"/>
<stop offset="0.11" stop-color="#44B044" stop-opacity="0.8"/>
<stop offset="0.27" stop-color="#44B044" stop-opacity="0.52"/>
<stop offset="0.43" stop-color="#44B044" stop-opacity="0.29"/>
<stop offset="0.58" stop-color="#44B044" stop-opacity="0.13"/>
<stop offset="0.7" stop-color="#44B044" stop-opacity="0.03"/>
<stop offset="0.8" stop-color="#44B044" stop-opacity="0"/>
</linearGradient>
<linearGradient id="paint21_linear_7_702" x1="5.72113" y1="10.6665" x2="32.5052" y2="19.5334" gradientUnits="userSpaceOnUse">
<stop stop-color="#3066FB"/>
<stop offset="0.38" stop-color="#2F64F7"/>
<stop offset="0.74" stop-color="#2857D9"/>
<stop offset="1" stop-color="#3C7EFF"/>
</linearGradient>
<radialGradient id="paint22_radial_7_702" cx="0" cy="0" r="1" gradientUnits="userSpaceOnUse" gradientTransform="translate(24.6408 14.7294) rotate(98.6901) scale(14.3236 9.45362)">
<stop stop-color="#1A3D9C"/>
<stop offset="0.4" stop-color="#1A3D9C" stop-opacity="0.42"/>
<stop offset="0.7" stop-color="#1A3D9C" stop-opacity="0"/>
</radialGradient>
<radialGradient id="paint23_radial_7_702" cx="0" cy="0" r="1" gradientUnits="userSpaceOnUse" gradientTransform="translate(8717.3 -22489.2) rotate(98.69) scale(1762.1 950.109)">
<stop stop-color="#1A3D9C"/>
<stop offset="0.4" stop-color="#1A3D9C" stop-opacity="0.42"/>
<stop offset="0.7" stop-color="#1A3D9C" stop-opacity="0"/>
</radialGradient>
<radialGradient id="paint24_radial_7_702" cx="0" cy="0" r="1" gradientUnits="userSpaceOnUse" gradientTransform="translate(7654.06 -22838.5) rotate(98.6156) scale(2098.57 866.965)">
<stop stop-color="#1A3D9C"/>
<stop offset="0.4" stop-color="#1A3D9C" stop-opacity="0.42"/>
<stop offset="0.7" stop-color="#1A3D9C" stop-opacity="0"/>
</radialGradient>
<radialGradient id="paint25_radial_7_702" cx="0" cy="0" r="1" gradientUnits="userSpaceOnUse" gradientTransform="translate(22.8452 14.1816) rotate(83.0887) scale(12.52 8.73571)">
<stop stop-color="#1A3D9C"/>
<stop offset="0.16" stop-color="#1A3D9C" stop-opacity="0.69"/>
<stop offset="0.33" stop-color="#1A3D9C" stop-opacity="0.4"/>
<stop offset="0.49" stop-color="#1A3D9C" stop-opacity="0.18"/>
<stop offset="0.61" stop-color="#1A3D9C" stop-opacity="0.05"/>
<stop offset="0.7" stop-color="#1A3D9C" stop-opacity="0"/>
</radialGradient>
<radialGradient id="paint26_radial_7_702" cx="0" cy="0" r="1" gradientUnits="userSpaceOnUse" gradientTransform="translate(25.108 16.0921) rotate(74.6399) scale(12.0322 8.18188)">
<stop stop-color="#18388F"/>
<stop offset="0.37" stop-color="#193B96" stop-opacity="0.45"/>
<stop offset="0.7" stop-color="#1A3D9C" stop-opacity="0"/>
</radialGradient>
<radialGradient id="paint27_radial_7_702" cx="0" cy="0" r="1" gradientUnits="userSpaceOnUse" gradientTransform="translate(23.9052 19.3115) rotate(74.6401) scale(5.5944 5.31465)">
<stop stop-color="#18388F"/>
<stop offset="0.09" stop-color="#183992" stop-opacity="0.78"/>
<stop offset="0.22" stop-color="#193B96" stop-opacity="0.5"/>
<stop offset="0.35" stop-color="#193C98" stop-opacity="0.28"/>
<stop offset="0.47" stop-color="#1A3C9A" stop-opacity="0.13"/>
<stop offset="0.59" stop-color="#1A3D9C" stop-opacity="0.03"/>
<stop offset="0.7" stop-color="#1A3D9C" stop-opacity="0"/>
</radialGradient>
<radialGradient id="paint28_radial_7_702" cx="0" cy="0" r="1" gradientUnits="userSpaceOnUse" gradientTransform="translate(24.0393 20.2659) rotate(74.6401) scale(5.5944 5.31465)">
<stop stop-color="#1A3D9C" stop-opacity="0.8"/>
<stop offset="0.01" stop-color="#1A3D9C" stop-opacity="0.78"/>
<stop offset="0.24" stop-color="#1A3D9C" stop-opacity="0.45"/>
<stop offset="0.44" stop-color="#1A3D9C" stop-opacity="0.2"/>
<stop offset="0.6" stop-color="#1A3D9C" stop-opacity="0.05"/>
<stop offset="0.7" stop-color="#1A3D9C" stop-opacity="0"/>
</radialGradient>
<radialGradient id="paint29_radial_7_702" cx="0" cy="0" r="1" gradientUnits="userSpaceOnUse" gradientTransform="translate(10.1826 16.8427) rotate(67.0272) scale(13.351 8.85969)">
<stop stop-color="#1A3D9C"/>
<stop offset="0.4" stop-color="#1A3D9C" stop-opacity="0.56"/>
<stop offset="0.48" stop-color="#1A3D9C" stop-opacity="0.43"/>
<stop offset="0.69" stop-color="#1A3D9C" stop-opacity="0.12"/>
<stop offset="0.79" stop-color="#1A3D9C" stop-opacity="0"/>
</radialGradient>
<radialGradient id="paint30_radial_7_702" cx="0" cy="0" r="1" gradientUnits="userSpaceOnUse" gradientTransform="translate(9.33411 13.8172) rotate(76.1027) scale(9.90286 6.53778)">
<stop stop-color="#1A3D9C"/>
<stop offset="0.06" stop-color="#1A3D9C" stop-opacity="0.88"/>
<stop offset="0.21" stop-color="#1A3D9C" stop-opacity="0.61"/>
<stop offset="0.36" stop-color="#1A3D9C" stop-opacity="0.39"/>
<stop offset="0.51" stop-color="#1A3D9C" stop-opacity="0.22"/>
<stop offset="0.67" stop-color="#1A3D9C" stop-opacity="0.1"/>
<stop offset="0.83" stop-color="#1A3D9C" stop-opacity="0.02"/>
<stop offset="1" stop-color="#1A3D9C" stop-opacity="0"/>
</radialGradient>
<radialGradient id="paint31_radial_7_702" cx="0" cy="0" r="1" gradientUnits="userSpaceOnUse" gradientTransform="translate(9.33411 13.8172) rotate(76.1027) scale(9.90286 6.53778)">
<stop stop-color="#1B3E9E"/>
<stop offset="0.06" stop-color="#1B3E9E" stop-opacity="0.87"/>
<stop offset="0.21" stop-color="#1B3E9D" stop-opacity="0.61"/>
<stop offset="0.36" stop-color="#1A3D9D" stop-opacity="0.39"/>
<stop offset="0.52" stop-color="#1A3D9C" stop-opacity="0.22"/>
<stop offset="0.67" stop-color="#1A3D9C" stop-opacity="0.1"/>
<stop offset="0.83" stop-color="#1A3D9C" stop-opacity="0.02"/>
<stop offset="1" stop-color="#1A3D9C" stop-opacity="0"/>
</radialGradient>
<radialGradient id="paint32_radial_7_702" cx="0" cy="0" r="1" gradientUnits="userSpaceOnUse" gradientTransform="translate(9.71667 12.8468) rotate(76.1029) scale(7.5761 5.0017)">
<stop stop-color="#183991"/>
<stop offset="0.03" stop-color="#183992" stop-opacity="0.95"/>
<stop offset="0.18" stop-color="#193A95" stop-opacity="0.66"/>
<stop offset="0.34" stop-color="#193B97" stop-opacity="0.42"/>
<stop offset="0.5" stop-color="#1A3C99" stop-opacity="0.24"/>
<stop offset="0.66" stop-color="#1A3D9B" stop-opacity="0.1"/>
<stop offset="0.82" stop-color="#1A3D9C" stop-opacity="0.03"/>
<stop offset="1" stop-color="#1A3D9C" stop-opacity="0"/>
</radialGradient>
<radialGradient id="paint33_radial_7_702" cx="0" cy="0" r="1" gradientUnits="userSpaceOnUse" gradientTransform="translate(11.0565 13.6154) rotate(87.1375) scale(5.98662 5.26999)">
<stop offset="0.04" stop-color="#2453D6" stop-opacity="0.6"/>
<stop offset="0.2" stop-color="#2453D6" stop-opacity="0.49"/>
<stop offset="0.52" stop-color="#2453D6" stop-opacity="0.2"/>
<stop offset="0.73" stop-color="#2453D6" stop-opacity="0"/>
</radialGradient>
<linearGradient id="paint34_linear_7_702" x1="23.1164" y1="-0.265087" x2="16.3511" y2="16.4578" gradientUnits="userSpaceOnUse">
<stop stop-color="#3774FF"/>
<stop offset="0.05" stop-color="#3774FF" stop-opacity="0.91"/>
<stop offset="0.16" stop-color="#3774FF" stop-opacity="0.66"/>
<stop offset="0.32" stop-color="#3774FF" stop-opacity="0.28"/>
<stop offset="0.43" stop-color="#3774FF" stop-opacity="0"/>
</linearGradient>
<clipPath id="clip0_7_702">
<rect width="32" height="32" fill="white" transform="translate(0.5)"/>
</clipPath>
</defs>
</svg>
