<svg width="33" height="32" viewBox="0 0 33 32" fill="none" xmlns="http://www.w3.org/2000/svg">
<g clip-path="url(#clip0_7_738)">
<path d="M32.5 16C32.5 7.16344 25.3366 0 16.5 0C7.66344 0 0.5 7.16344 0.5 16C0.5 24.8366 7.66344 32 16.5 32C25.3366 32 32.5 24.8366 32.5 16Z" fill="#20C300"/>
<path fill-rule="evenodd" clip-rule="evenodd" d="M21.7515 12.2C20.8443 12.3011 19.9558 12.3307 19.099 12.51C17.1084 12.9294 15.4714 13.9417 14.3264 15.6544C13.3332 17.1396 13.13 18.7626 13.5763 20.4789C13.6006 20.5722 13.6292 20.666 13.6737 20.8262C13.1367 20.7941 12.6277 20.7987 12.1316 20.7251C11.5023 20.6308 10.8839 20.467 10.2577 20.3483C10.1374 20.326 9.98606 20.3431 9.87824 20.4001C9.11106 20.7972 8.35165 21.2093 7.58913 21.6162C7.48649 21.6706 7.38074 21.7204 7.21798 21.8002C7.25737 21.6514 7.27707 21.5529 7.30921 21.4581C7.52019 20.8241 7.72442 20.1886 7.95147 19.5619C8.02145 19.3665 7.98361 19.2732 7.81669 19.155C6.46842 18.196 5.41924 16.9872 4.94441 15.3787C4.1368 12.6432 4.95737 10.3437 7.01374 8.48384C9.00168 6.68666 11.4095 6.03455 14.0532 6.22531C16.0266 6.36683 17.8098 7.03449 19.3348 8.31278C20.5017 9.29094 21.3207 10.5055 21.7064 11.9942C21.7235 12.0601 21.7395 12.1269 21.7504 12.1948C21.7551 12.2192 21.7395 12.2477 21.7515 12.2ZM17.4132 10.958C17.434 10.309 16.9047 9.74711 16.2505 9.72067C15.5637 9.69527 15.0329 10.1986 15.0132 10.8974C14.9945 11.5557 15.4963 12.1124 16.1277 12.1368C16.8109 12.1617 17.3925 11.6283 17.4132 10.958ZM11.4914 10.9295C11.4976 10.2945 10.9347 9.72793 10.2893 9.7186C9.61232 9.70927 9.08928 10.239 9.08358 10.9394C9.0784 11.5852 9.6175 12.1352 10.2551 12.1342C10.9362 12.1321 11.4852 11.5977 11.4914 10.9295Z" fill="black"/>
<path fill-rule="evenodd" clip-rule="evenodd" d="M26.0276 25.7274C25.8057 25.6082 25.5849 25.4863 25.3625 25.3692C24.8861 25.1183 24.4279 24.8104 23.9246 24.6331C23.3953 24.447 22.8842 24.7912 22.3581 24.8638C19.9829 25.1878 17.8114 24.728 15.9427 23.1874C13.0819 20.8283 13.085 16.8892 15.9396 14.5218C17.5849 13.157 19.5096 12.6308 21.6225 12.7702C23.3051 12.8817 24.8302 13.4322 26.125 14.5317C28.9558 16.9353 28.9558 20.751 26.1359 23.1656C26.1219 23.1786 26.1059 23.191 26.0903 23.2029C25.885 23.3812 25.5647 23.5279 25.5061 23.7457C25.446 23.9675 25.6419 24.2588 25.7249 24.5201C25.8467 24.9078 25.9695 25.2956 26.0913 25.6844C26.0691 25.6989 26.0483 25.7129 26.0276 25.7274ZM19.802 16.8991C19.802 16.3926 19.3235 15.9167 18.8145 15.9167C18.2811 15.9167 17.8586 16.3584 17.8628 16.911C17.8669 17.4262 18.2883 17.8487 18.8031 17.8523C19.3505 17.8565 19.802 17.4252 19.802 16.8991ZM24.5575 16.9068C24.5554 16.3864 24.0961 15.9199 23.5866 15.9199C23.0988 15.9199 22.5856 16.3978 22.5804 16.8576C22.5747 17.376 23.0646 17.8601 23.5866 17.8518C24.1195 17.8435 24.5585 17.4164 24.5575 16.9068Z" fill="black"/>
</g>
<defs>
<clipPath id="clip0_7_738">
<rect width="32" height="32" fill="white" transform="translate(0.5)"/>
</clipPath>
</defs>
</svg>
