<svg width="33" height="32" viewBox="0 0 33 32" fill="none" xmlns="http://www.w3.org/2000/svg">
<g clip-path="url(#clip0_7_742)">
<mask id="mask0_7_742" style="mask-type:luminance" maskUnits="userSpaceOnUse" x="0" y="9" width="33" height="15">
<path d="M32.502 9H0.501953V23.8352H32.502V9Z" fill="white"/>
</mask>
<g mask="url(#mask0_7_742)">
<path d="M18.9257 16.2722C18.9257 11.8119 22.1255 9.09696 26.2948 9.09696C29.9794 9.09696 32.5004 10.9392 32.5004 13.5572C32.5004 16.0782 30.3673 17.6296 28.0402 17.6296C26.6827 17.6296 25.81 17.4357 25.1313 16.8539C24.9374 16.757 24.8404 16.757 24.8404 17.0479C24.8404 18.0175 25.2283 18.6962 25.81 19.3749C26.2948 19.8598 27.2645 20.2476 28.1371 20.2476C29.1067 20.2476 29.8824 20.0537 30.6581 19.6658C31.4338 19.278 31.9186 19.4719 32.3065 20.0537C32.7913 20.7324 32.2095 21.6051 31.6278 22.1868C30.6581 23.1565 28.8159 23.9322 26.4888 23.9322C21.7376 23.6413 19.0227 20.5385 18.9257 16.2722ZM9.32648 19.278C9.71433 19.278 10.1022 19.4719 10.2961 20.0537L11.6536 22.1868C12.1384 22.9625 12.6232 23.5443 13.4958 23.5443C14.3685 23.5443 14.9503 23.1565 15.4351 22.0899C16.0169 20.8294 16.6956 19.0841 17.1804 16.9509C17.8591 14.4299 18.15 12.9754 18.15 11.8119C18.15 10.6484 17.7622 9.87266 16.4047 9.58177C14.5624 9.09696 11.9445 9 9.32648 9C6.7085 9 4.09053 9.09696 2.24825 9.48481C0.890778 9.7757 0.50293 10.4544 0.50293 11.7149C0.50293 12.9754 0.793816 14.4299 1.37559 16.8539C1.95736 19.0841 2.53913 20.6355 3.12091 21.9929C3.60572 23.0595 4.09053 23.4474 4.96319 23.4474C5.83584 23.4474 6.32065 22.8656 6.80547 22.0899L8.16293 19.9567C8.55078 19.5689 8.84167 19.278 9.32648 19.278Z" fill="#484A4D"/>
</g>
</g>
<defs>
<clipPath id="clip0_7_742">
<rect width="32" height="32" fill="white" transform="translate(0.5)"/>
</clipPath>
</defs>
</svg>
