<svg width="33" height="32" viewBox="0 0 33 32" fill="none" xmlns="http://www.w3.org/2000/svg">
<g clip-path="url(#clip0_7_748)">
<path d="M32.5 16C32.5 7.16344 25.3366 0 16.5 0C7.66344 0 0.5 7.16344 0.5 16C0.5 24.8366 7.66344 32 16.5 32C25.3366 32 32.5 24.8366 32.5 16Z" fill="#25D366"/>
<path fill-rule="evenodd" clip-rule="evenodd" d="M24.735 7.80062C22.751 5.81342 20.1078 4.71902 17.295 4.71582C11.4998 4.71582 6.77976 9.43262 6.77976 15.231C6.77976 17.0838 7.26296 18.895 8.18456 20.4886L6.69336 25.9382L12.2678 24.4758C13.8038 25.3142 15.5318 25.7558 17.2918 25.7558H17.295C23.0902 25.7558 27.807 21.039 27.8102 15.2406C27.8134 12.431 26.7222 9.78782 24.735 7.80062ZM17.2982 23.9798H17.295C15.727 23.9798 14.1878 23.5574 12.847 22.7606L12.527 22.5718L9.21816 23.439L10.1014 20.2134L9.89336 19.8838C9.01976 18.4918 8.55576 16.8854 8.55576 15.231C8.55896 10.4118 12.479 6.49182 17.3014 6.49182C19.6374 6.49182 21.8294 7.40382 23.4806 9.05502C25.1318 10.7062 26.0406 12.9046 26.0374 15.2374C26.0374 20.0598 22.1142 23.9798 17.2982 23.9798ZM22.0918 17.4326C21.8294 17.3014 20.5366 16.6646 20.2966 16.5782C20.0566 16.4918 19.8806 16.447 19.7046 16.7094C19.5286 16.9718 19.0262 17.5638 18.8726 17.7398C18.719 17.9158 18.5654 17.9382 18.303 17.807C18.0406 17.6758 17.1926 17.3974 16.191 16.5014C15.4102 15.8038 14.8822 14.943 14.7286 14.6806C14.575 14.4182 14.7126 14.2742 14.8438 14.143C14.9622 14.0246 15.1062 13.8358 15.2374 13.6822C15.3686 13.5286 15.4134 13.4198 15.4998 13.2438C15.5862 13.0678 15.5446 12.9142 15.4774 12.783C15.4102 12.6518 14.8854 11.359 14.6678 10.831C14.4534 10.319 14.239 10.3894 14.0758 10.3798C13.9222 10.3734 13.7462 10.3702 13.5734 10.3702C13.3974 10.3702 13.1126 10.4374 12.8726 10.6998C12.6326 10.9622 11.9542 11.599 11.9542 12.8918C11.9542 14.1846 12.895 15.4358 13.0262 15.6086C13.1574 15.7846 14.879 18.4374 17.5158 19.5766C18.143 19.8486 18.6326 20.0086 19.0134 20.1302C19.6438 20.3318 20.2166 20.303 20.6678 20.2358C21.1734 20.159 22.223 19.599 22.4406 18.9878C22.6582 18.3734 22.6582 17.8486 22.5942 17.7398C22.5302 17.631 22.3542 17.567 22.0918 17.4326Z" fill="black"/>
</g>
<defs>
<clipPath id="clip0_7_748">
<rect width="32" height="32" fill="white" transform="translate(0.5)"/>
</clipPath>
</defs>
</svg>
