<svg width="33" height="32" viewBox="0 0 33 32" fill="none" xmlns="http://www.w3.org/2000/svg">
<g clip-path="url(#clip0_7_769)">
<mask id="mask0_7_769" style="mask-type:luminance" maskUnits="userSpaceOnUse" x="0" y="0" width="33" height="32">
<path d="M32.5 16C32.5 7.16344 25.3366 0 16.5 0C7.66344 0 0.5 7.16344 0.5 16C0.5 24.8366 7.66344 32 16.5 32C25.3366 32 32.5 24.8366 32.5 16Z" fill="white"/>
</mask>
<g mask="url(#mask0_7_769)">
<path d="M14.9044 31.9342C12.4393 31.6982 9.94373 30.8135 7.79997 29.4155C6.00359 28.2445 5.59819 27.7624 5.59819 26.8015C5.59819 24.8712 7.72187 21.4897 11.3555 17.6358C13.4186 15.4464 16.2928 12.8815 16.6034 12.9507C17.2081 13.0856 22.0394 17.7956 23.8484 20.0133C26.7085 23.5186 28.0229 26.3897 27.3549 27.6695C26.8472 28.6423 23.6963 30.544 21.3818 31.2744C19.4739 31.8766 16.9682 32.1316 14.9044 31.9342ZM3.17177 24.7947C1.67888 22.5056 0.92462 20.2523 0.560881 16.9931C0.440378 15.917 0.482777 15.3018 0.833499 13.0923C1.26976 10.3416 2.83816 7.15601 4.7238 5.19707C5.52641 4.36442 5.59782 4.34212 6.57672 4.67295C7.76315 5.0744 9.0314 5.95016 10.9989 7.72845L12.1481 8.76702L11.5196 9.53648C8.60816 13.1087 5.53534 18.1751 4.37866 21.3087C3.75011 23.0112 3.4972 24.7211 3.76871 25.4329C3.95095 25.9139 3.78358 25.7347 3.16991 24.7958L3.17177 24.7947ZM29.3748 25.1838C29.5224 24.4642 29.3357 23.1431 28.8987 21.8102C27.9522 18.9238 24.7875 13.5543 21.8817 9.90336L20.9667 8.75401L21.9568 7.84591C23.2489 6.66014 24.1459 5.95016 25.1144 5.34687C25.878 4.87107 26.9696 4.44992 27.4389 4.44992C27.7279 4.44992 28.7466 5.50931 29.5686 6.66163C30.842 8.44586 31.7785 10.613 32.2531 12.8656C32.5599 14.3227 32.5856 17.4377 32.3026 18.8911C32.0683 20.0835 31.5773 21.6291 31.1013 22.6777C30.7405 23.4632 29.8516 24.9891 29.4611 25.4857C29.2602 25.741 29.2602 25.7407 29.3718 25.1898L29.3748 25.1838ZM15.1685 3.90498C13.8273 3.22475 11.7587 2.49432 10.6162 2.29731C10.216 2.22855 9.53275 2.18952 9.09872 2.21182C8.15553 2.2594 8.19755 2.21033 9.70979 1.49627C10.9669 0.902638 12.0157 0.553597 13.4402 0.254738C15.0413 -0.0816646 18.052 -0.0853818 19.6278 0.24656C21.3294 0.605266 23.3337 1.35056 24.4628 2.04566L24.799 2.25159L24.0292 2.21294C22.4983 2.13562 20.2675 2.75378 17.8724 3.91799C17.1501 4.26964 16.5223 4.54991 16.4762 4.54248C16.4304 4.53356 15.8417 4.24696 15.167 3.90498H15.1685Z" fill="#107C10"/>
</g>
</g>
<defs>
<clipPath id="clip0_7_769">
<rect width="32" height="32" fill="white" transform="translate(0.5)"/>
</clipPath>
</defs>
</svg>
