<svg width="33" height="32" viewBox="0 0 33 32" fill="none" xmlns="http://www.w3.org/2000/svg">
<mask id="mask0_7_760" style="mask-type:luminance" maskUnits="userSpaceOnUse" x="4" y="0" width="25" height="32">
<path d="M28.8092 0H4.50195V32H28.8092V0Z" fill="white"/>
</mask>
<g mask="url(#mask0_7_760)">
<path d="M5.12082 15.4071C4.60148 16.2386 4.38377 18.8537 4.56476 20.5875C4.62771 21.1593 4.73262 21.6366 4.88213 21.9225C5.08935 22.316 5.4382 22.5521 5.83426 22.5652C6.08869 22.5783 6.24869 22.5337 11.0356 20.994C11.0356 20.994 13.1628 20.3147 13.1733 20.3094C13.7031 20.173 14.0625 19.6852 14.0966 19.0635C14.1307 18.4235 13.8028 17.8596 13.2572 17.6576C13.2572 17.6576 11.7569 17.0465 11.7543 17.0465C6.60803 14.9245 6.37721 14.8406 6.11754 14.838C5.71885 14.8248 5.36738 15.0242 5.12082 15.4071ZM16.6303 31.2209C16.7143 30.9796 16.7248 30.8144 16.7379 25.7835C16.7379 25.7835 16.7484 23.5619 16.751 23.5383C16.7851 22.9927 16.4336 22.497 15.8566 22.274C15.2611 22.0458 14.6211 22.1875 14.2618 22.6334C14.2618 22.6334 13.2126 23.8793 13.2074 23.8793C9.60344 28.1127 9.45131 28.3094 9.36476 28.5586C9.30967 28.7055 9.29131 28.8629 9.30705 29.0203C9.32803 29.2458 9.43033 29.4662 9.5982 29.6734C10.4349 30.6675 14.4428 32.1416 15.7228 31.9212C16.1713 31.8452 16.4939 31.596 16.6303 31.2209ZM24.7641 29.4714C25.9733 28.9888 28.6093 25.6366 28.7956 24.3435C28.8611 23.895 28.7195 23.5068 28.41 23.2603C28.208 23.1081 28.0533 23.0478 23.2664 21.4766C23.2664 21.4766 21.168 20.7842 21.1392 20.7711C20.6303 20.5744 20.0507 20.758 19.6625 21.238C19.2559 21.7311 19.1956 22.3842 19.5208 22.8747L20.3654 24.2491C23.2061 28.8629 23.4238 29.1881 23.6284 29.3481C23.9431 29.5973 24.3444 29.6393 24.7641 29.4714ZM22.2907 17.5947C27.728 16.278 27.9405 16.2071 28.153 16.0655C28.4834 15.8425 28.6487 15.4727 28.6198 15.0216C28.6198 15.0085 28.6225 14.9927 28.6198 14.977C28.4808 13.6393 26.1411 10.1665 24.9871 9.60255C24.5779 9.40583 24.1687 9.41894 23.8303 9.64714C23.6205 9.78353 23.4657 9.99075 20.5543 13.975C20.5543 13.975 19.2402 15.7665 19.2244 15.7848C18.8782 16.2071 18.873 16.8104 19.2113 17.3298C19.5628 17.8675 20.1556 18.1271 20.6985 17.9776C20.6985 17.9776 20.6775 18.017 20.6723 18.0222C20.9398 17.9199 21.4172 17.8019 22.2907 17.5947ZM16.8323 13.1042C16.7379 10.9481 16.09 1.35075 16.0139 0.907467C15.9038 0.503532 15.589 0.217631 15.1379 0.102221C13.7477 -0.241386 8.44148 1.24583 7.45787 2.25829C7.14049 2.58878 7.02508 2.99271 7.11951 3.35206C7.27426 3.66943 13.85 14.0144 13.85 14.0144C14.8205 15.5907 15.6152 15.3442 15.8749 15.2629C16.132 15.1868 16.9215 14.9403 16.8323 13.1042Z" fill="#BF2519"/>
</g>
</svg>
