<svg width="33" height="32" viewBox="0 0 33 32" fill="none" xmlns="http://www.w3.org/2000/svg">
<g clip-path="url(#clip0_7_766)">
<path d="M32.5 16C32.5 7.16344 25.3366 0 16.5 0C7.66344 0 0.5 7.16344 0.5 16C0.5 24.8366 7.66344 32 16.5 32C25.3366 32 32.5 24.8366 32.5 16Z" fill="#FF0000"/>
<path d="M26.6824 10.8514C26.4392 9.92981 25.7192 9.20661 24.804 8.96021C23.1464 8.51221 16.5032 8.51221 16.5032 8.51221C16.5032 8.51221 9.85678 8.51221 8.20238 8.96021C7.28718 9.20661 6.56718 9.92981 6.32398 10.8514C5.87598 12.5186 5.87598 16.0002 5.87598 16.0002C5.87598 16.0002 5.87598 19.4818 6.32078 21.149C6.56398 22.0706 7.28398 22.7938 8.19918 23.0402C9.85678 23.4882 16.5 23.4882 16.5 23.4882C16.5 23.4882 23.1464 23.4882 24.8008 23.0402C25.716 22.7938 26.436 22.0706 26.6792 21.149C27.124 19.4818 27.124 16.0002 27.124 16.0002C27.124 16.0002 27.124 12.5186 26.6824 10.8514ZM14.3272 19.1586V12.8418L19.8792 16.0002L14.3272 19.1586Z" fill="black"/>
</g>
<defs>
<clipPath id="clip0_7_766">
<rect width="32" height="32" fill="white" transform="translate(0.5)"/>
</clipPath>
</defs>
</svg>
