<svg width="43" height="43" viewBox="0 0 43 43" fill="none" xmlns="http://www.w3.org/2000/svg">
<circle cx="21.5" cy="21.5" r="21.5" fill="#F5F5F5"/>
<path d="M26.1695 17.0847C26.1695 14.281 23.8885 12 21.0847 12C18.281 12 16 14.281 16 17.0847C16 19.7742 18.1 21.9766 20.7458 22.1522V31.661C20.7458 31.8485 20.8976 32 21.0847 32C21.2719 32 21.4237 31.8485 21.4237 31.661V22.1522C24.0695 21.9766 26.1695 19.7742 26.1695 17.0847ZM19.3898 17.0847C18.642 17.0847 18.0339 16.4766 18.0339 15.7288C18.0339 14.981 18.642 14.3729 19.3898 14.3729C20.1376 14.3729 20.7458 14.981 20.7458 15.7288C20.7458 16.4766 20.1376 17.0847 19.3898 17.0847Z" fill="black"/>
</svg>
