<svg width="32" height="32" viewBox="0 0 32 32" fill="none" xmlns="http://www.w3.org/2000/svg">
<g clip-path="url(#clip0_6163_1833)">
<path d="M28.6459 25.9141C28.4219 27.5804 27.3006 29.0213 25.7314 29.6618C24.9624 29.9813 24.1293 30.0784 23.2961 29.9813C22.4958 29.8858 21.694 29.629 20.8624 29.1497C19.7097 28.5077 18.5556 27.5162 17.2103 26.0426C19.3245 23.4476 20.6056 21.078 21.0864 18.9638C21.3103 17.9709 21.3432 17.0735 21.2461 16.2404C21.1177 15.4401 20.8295 14.7025 20.3816 14.062C19.3887 12.6211 17.7224 11.788 15.865 11.788C14.0076 11.788 12.3413 12.6525 11.3484 14.062C10.9005 14.7025 10.6123 15.4401 10.4839 16.2404C10.3555 17.0735 10.3883 18.0022 10.6437 18.9638C11.1244 21.078 12.4369 23.4804 14.5197 26.0739C13.2058 27.5476 12.0218 28.5405 10.8676 29.181C10.0345 29.6618 9.23417 29.9186 8.43387 30.0142C7.60819 30.1068 6.77355 29.9963 6.00013 29.6947C4.43089 29.0541 3.30957 27.6118 3.08561 25.947C2.99005 25.1467 3.05425 24.3464 3.37378 23.449C3.46933 23.128 3.63059 22.8085 3.79035 22.4248C4.01431 21.9127 4.27113 21.3677 4.52645 20.8227L4.55929 20.7585C6.76907 15.9851 9.14011 11.1161 11.6067 6.37551L11.7023 6.1829C11.9591 5.70362 12.2144 5.19 12.4712 4.70922C12.728 4.19709 13.0162 3.71631 13.3686 3.29974C14.0419 2.5308 14.9378 2.11422 15.9307 2.11422C16.9236 2.11422 17.821 2.5308 18.4929 3.29974C18.8452 3.71631 19.1334 4.19709 19.3902 4.70922C19.647 5.19 19.9023 5.70213 20.1591 6.18141L20.2562 6.37402C22.6899 11.146 25.061 16.0149 27.2708 20.7884V20.8197C27.5276 21.3318 27.7515 21.9097 28.0068 22.4218C28.1666 22.807 28.3279 23.1265 28.4234 23.4461C28.6787 24.2807 28.7743 25.081 28.6459 25.9141ZM15.865 24.4076C14.136 22.2292 13.0147 20.1792 12.6295 18.4502C12.4697 17.7126 12.4369 17.072 12.5339 16.4957C12.5981 15.9836 12.7907 15.5342 13.046 15.1504C13.6552 14.2859 14.6795 13.7409 15.865 13.7409C17.0505 13.7409 18.1076 14.2546 18.684 15.1504C18.9408 15.5356 19.1319 15.9836 19.1961 16.4957C19.2917 17.072 19.2603 17.7454 19.1005 18.4502C18.7168 20.1478 17.5955 22.1978 15.865 24.4076ZM30.3122 22.7428C30.1524 22.3591 29.9912 21.9425 29.8314 21.5901C29.5746 21.0138 29.3193 20.4688 29.0938 19.9567L29.0625 19.9253C26.8527 15.1206 24.4817 10.2516 21.9837 5.44681L21.8881 5.2542C21.6313 4.77342 21.376 4.26129 21.1192 3.74916C20.7982 3.17283 20.4787 2.56364 19.9665 1.98731C18.9408 0.704741 17.4671 0 15.8979 0C14.2958 0 12.8549 0.704741 11.7963 1.92161C11.3155 2.49795 10.9632 3.10713 10.6437 3.68346C10.3868 4.1956 10.1315 4.70773 9.87471 5.1885L9.77915 5.37962C7.31256 10.1844 4.91017 15.0534 2.70039 19.8582L2.66904 19.9224C2.44507 20.4345 2.18826 20.9795 1.93145 21.5558C1.75974 21.9351 1.59998 22.3203 1.45067 22.7085C1.0341 23.894 0.905691 25.0153 1.06545 26.168C1.41782 28.5704 3.01991 30.589 5.22969 31.4849C6.06284 31.8373 6.92734 31.997 7.82469 31.997C8.0815 31.997 8.40103 31.9657 8.65784 31.9328C9.71495 31.8044 10.8034 31.4535 11.8605 30.8443C13.1744 30.1083 14.4227 29.0511 15.8322 27.5133C17.2416 29.0511 18.5227 30.1083 19.8038 30.8443C20.8609 31.4535 21.9494 31.8044 23.0065 31.9328C23.2633 31.9657 23.5828 31.997 23.8396 31.997C24.737 31.997 25.6328 31.8373 26.4346 31.4849C28.6772 30.5875 30.2465 28.5375 30.5989 26.168C30.8557 25.0482 30.7273 23.9283 30.3122 22.7428Z" fill="#E0565B"/>
</g>
<defs>
<clipPath id="clip0_6163_1833">
<rect width="29.732" height="32" fill="white" transform="translate(1)"/>
</clipPath>
</defs>
</svg>
