<svg width="32" height="32" viewBox="0 0 32 32" fill="none" xmlns="http://www.w3.org/2000/svg">
<g clip-path="url(#clip0_6027_2393)">
<path d="M9.01338 13.4501C9.01338 13.8438 9.05595 14.1631 9.13044 14.3972C9.21558 14.6313 9.322 14.8867 9.47098 15.1634C9.52419 15.2486 9.54547 15.3337 9.54547 15.4082C9.54547 15.5146 9.48162 15.621 9.34328 15.7274L8.67284 16.1744C8.57707 16.2383 8.48129 16.2702 8.39616 16.2702C8.28974 16.2702 8.18332 16.217 8.0769 16.1212C7.92792 15.9616 7.80021 15.7913 7.6938 15.621C7.58738 15.4401 7.48096 15.2379 7.3639 14.9932C6.53383 15.9722 5.49094 16.4617 4.2352 16.4617C3.34128 16.4617 2.62828 16.2063 2.10683 15.6955C1.58538 15.1847 1.31934 14.5036 1.31934 13.6523C1.31934 12.7477 1.63859 12.0134 2.28774 11.4601C2.93689 10.9067 3.79888 10.63 4.89499 10.63C5.25681 10.63 5.62928 10.6619 6.02303 10.7151C6.41677 10.7684 6.82116 10.8535 7.24684 10.9493V10.1724C7.24684 9.36363 7.07657 8.79961 6.74667 8.46972C6.40613 8.13982 5.83147 7.98019 5.01205 7.98019C4.63959 7.98019 4.25648 8.02276 3.86273 8.11854C3.46899 8.21431 3.08588 8.33137 2.71342 8.48036C2.54315 8.55485 2.41544 8.59742 2.34095 8.6187C2.26646 8.63999 2.21325 8.65063 2.17068 8.65063C2.0217 8.65063 1.9472 8.54421 1.9472 8.32073V7.79928C1.9472 7.62901 1.96849 7.50131 2.0217 7.42682C2.07491 7.35232 2.17068 7.27783 2.31967 7.20334C2.69213 7.01178 3.13909 6.85216 3.66054 6.72446C4.18199 6.58611 4.73536 6.52226 5.32067 6.52226C6.58704 6.52226 7.51288 6.80959 8.10883 7.38425C8.69413 7.95891 8.9921 8.83154 8.9921 10.0021V13.4501H9.01338ZM4.6928 15.0677C5.04398 15.0677 5.4058 15.0038 5.78891 14.8761C6.17201 14.7484 6.51255 14.5143 6.79988 14.195C6.97015 13.9928 7.09785 13.7694 7.1617 13.5139C7.22555 13.2585 7.26812 12.9499 7.26812 12.5881V12.1411C6.95951 12.0667 6.62961 12.0028 6.28907 11.9602C5.94853 11.9177 5.61864 11.8964 5.28874 11.8964C4.57574 11.8964 4.05429 12.0347 3.70311 12.3221C3.35193 12.6094 3.18166 13.0138 3.18166 13.5459C3.18166 14.046 3.30936 14.4185 3.5754 14.6739C3.83081 14.94 4.20327 15.0677 4.6928 15.0677ZM13.2382 16.217C13.0466 16.217 12.9189 16.185 12.8338 16.1106C12.7487 16.0467 12.6742 15.8977 12.6103 15.6955L10.1095 7.46938C10.0456 7.25655 10.0137 7.1182 10.0137 7.04371C10.0137 6.87344 10.0988 6.77766 10.2691 6.77766H11.312C11.5142 6.77766 11.6526 6.80959 11.727 6.88408C11.8122 6.94793 11.876 7.09692 11.9399 7.29911L13.7277 14.344L15.3878 7.29911C15.4411 7.08628 15.5049 6.94793 15.59 6.88408C15.6752 6.82023 15.8242 6.77766 16.0157 6.77766H16.8671C17.0693 6.77766 17.2076 6.80959 17.2927 6.88408C17.3779 6.94793 17.4524 7.09692 17.4949 7.29911L19.1763 14.4291L21.0174 7.29911C21.0812 7.08628 21.1557 6.94793 21.2302 6.88408C21.3153 6.82023 21.4537 6.77766 21.6452 6.77766H22.6349C22.8052 6.77766 22.901 6.8628 22.901 7.04371C22.901 7.09692 22.8903 7.15013 22.8797 7.21398C22.8691 7.27783 22.8478 7.36297 22.8052 7.48003L20.2405 15.7062C20.1767 15.919 20.1022 16.0573 20.017 16.1212C19.9319 16.185 19.7936 16.2276 19.6127 16.2276H18.6975C18.4953 16.2276 18.3569 16.1957 18.2718 16.1212C18.1866 16.0467 18.1122 15.9084 18.0696 15.6955L16.4201 8.83154L14.7813 15.6849C14.728 15.8977 14.6642 16.0361 14.5791 16.1106C14.4939 16.185 14.3449 16.217 14.1534 16.217H13.2382ZM26.9129 16.5043C26.3596 16.5043 25.8062 16.4405 25.2741 16.3127C24.742 16.185 24.327 16.0467 24.0503 15.8871C23.88 15.7913 23.763 15.6849 23.7204 15.5891C23.6778 15.4933 23.6565 15.3869 23.6565 15.2911V14.7484C23.6565 14.5249 23.7417 14.4185 23.9013 14.4185C23.9652 14.4185 24.029 14.4291 24.0929 14.4504C24.1567 14.4717 24.2525 14.5143 24.3589 14.5568C24.7207 14.7165 25.1145 14.8442 25.5295 14.9293C25.9552 15.0144 26.3702 15.057 26.7959 15.057C27.4663 15.057 27.9878 14.94 28.3496 14.7058C28.7114 14.4717 28.903 14.1312 28.903 13.6949C28.903 13.3969 28.8072 13.1521 28.6156 12.9499C28.4241 12.7477 28.0623 12.5668 27.5408 12.3966L25.9978 11.9177C25.2209 11.6729 24.6462 11.3111 24.2951 10.8322C23.9439 10.364 23.763 9.84251 23.763 9.28914C23.763 8.84218 23.8587 8.44843 24.0503 8.10789C24.2418 7.76736 24.4973 7.46938 24.8165 7.23526C25.1358 6.9905 25.4976 6.80959 25.9233 6.68189C26.3489 6.55419 26.7959 6.50098 27.2641 6.50098C27.4983 6.50098 27.743 6.51162 27.9771 6.54354C28.2219 6.57547 28.4454 6.61804 28.6689 6.6606C28.8817 6.71381 29.0839 6.76702 29.2754 6.83087C29.467 6.89472 29.616 6.95858 29.7224 7.02243C29.8714 7.10756 29.9778 7.1927 30.0416 7.28847C30.1055 7.37361 30.1374 7.49067 30.1374 7.63965V8.13982C30.1374 8.3633 30.0523 8.48036 29.8927 8.48036C29.8075 8.48036 29.6692 8.43779 29.4883 8.35266C28.8817 8.07597 28.2006 7.93762 27.445 7.93762C26.8385 7.93762 26.3596 8.0334 26.0297 8.2356C25.6998 8.43779 25.5295 8.7464 25.5295 9.18272C25.5295 9.48069 25.6359 9.73609 25.8488 9.93829C26.0616 10.1405 26.4553 10.3427 27.0194 10.5236L28.5305 11.0025C29.2967 11.2472 29.8501 11.5878 30.18 12.0241C30.5099 12.4604 30.6695 12.9606 30.6695 13.5139C30.6695 13.9715 30.5737 14.3866 30.3928 14.7484C30.2013 15.1102 29.9459 15.4295 29.616 15.6849C29.2861 15.9509 28.8923 16.1425 28.4347 16.2808C27.9559 16.4298 27.4557 16.5043 26.9129 16.5043Z" fill="#252F3E"/>
<path d="M28.925 21.6763C25.4238 24.2623 20.337 25.6351 15.9632 25.6351C9.83353 25.6351 4.31042 23.3684 0.138821 19.6012C-0.191076 19.3032 0.106896 18.8988 0.500644 19.1329C5.01278 21.7508 10.5785 23.3364 16.3357 23.3364C20.22 23.3364 24.4873 22.5277 28.4142 20.8675C28.9995 20.6015 29.4996 21.2506 28.925 21.6763Z" fill="#FF9900"/>
<path d="M30.382 20.0161C29.935 19.4415 27.4235 19.7395 26.2848 19.8778C25.9443 19.9204 25.8911 19.6224 26.1997 19.3989C28.2004 17.9942 31.4887 18.3986 31.8718 18.8668C32.2549 19.3457 31.7654 22.634 29.8924 24.209C29.6051 24.4538 29.3284 24.3261 29.4561 24.0068C29.8818 22.9533 30.8289 20.5802 30.382 20.0161Z" fill="#FF9900"/>
</g>
<defs>
<clipPath id="clip0_6027_2393">
<rect width="32" height="19.136" fill="white" transform="translate(0 6.5)"/>
</clipPath>
</defs>
</svg>
