<svg width="56" height="57" viewBox="0 0 56 57" fill="none" xmlns="http://www.w3.org/2000/svg">
<defs>
<linearGradient id="paint0_linear_5719_2367" x1="20.9397" y1="6.06149" x2="51.0639" y2="37.6458" gradientUnits="userSpaceOnUse">
<stop stop-color="white"/>
<stop offset="1" stop-color="white" stop-opacity="0.5"/>
<stop offset="1" stop-color="white" stop-opacity="0.15"/>
</linearGradient>
<linearGradient id="paint1_linear_5719_2367" x1="3.30627" y1="15.9809" x2="33.3889" y2="54.7285" gradientUnits="userSpaceOnUse">
<stop stop-color="white" stop-opacity="0.16"/>
<stop offset="1" stop-color="white"/>
</linearGradient>
</defs>
<path d="M28.6242 2.44903L53.7516 34.5925C55.9199 37.3663 55.4291 41.3728 52.6553 43.5411C49.8815 45.7095 45.8751 45.2186 43.7067 42.4448L18.5793 10.3013C16.411 7.52755 16.9018 3.52111 19.6756 1.35277C22.4494 -0.815592 26.4558 -0.324772 28.6242 2.44903Z" fill="url(#paint0_linear_5719_2367)"/>
<path d="M26.4802 54.5515L1.35277 22.408C-0.815587 19.6342 -0.324779 15.6278 2.44903 13.4595C5.22284 11.2911 9.22925 11.7819 11.3976 14.5557L36.525 46.6992C38.6934 49.473 38.2026 53.4794 35.4288 55.6478C32.6549 57.8162 28.6485 57.3253 26.4802 54.5515Z" fill="url(#paint1_linear_5719_2367)"/>
</svg>
