<svg width="32" height="32" viewBox="0 0 32 32" fill="none" xmlns="http://www.w3.org/2000/svg">
<path d="M24.1964 15.8011C24.183 13.3511 25.301 11.502 27.5641 10.1402C26.2979 8.34446 24.385 7.35648 21.8592 7.16288C19.4681 6.97597 16.8548 8.54473 15.8984 8.54473C14.888 8.54473 12.5711 7.22964 10.7525 7.22964C6.99411 7.28972 3 10.2003 3 16.1215C3 17.8705 3.3233 19.6773 3.9699 21.5421C4.83204 23.992 7.94381 30 11.1903 29.8999C12.8876 29.8598 14.0865 28.7049 16.2958 28.7049C18.4376 28.7049 19.549 29.8999 21.4416 29.8999C24.7151 29.8531 27.5305 24.3925 28.3522 21.9359C23.9607 19.8865 24.1964 15.9279 24.1964 15.8011ZM20.3842 4.83979C22.2229 2.6769 22.0546 0.70761 22.0007 0C20.3774 0.0934579 18.4982 1.09479 17.4273 2.32977C16.2486 3.65154 15.5549 5.28705 15.703 7.12951C17.461 7.26302 19.064 6.36849 20.3842 4.83979Z" fill="black"/>
</svg>
