<svg width="32" height="32" viewBox="0 0 32 32" fill="none" xmlns="http://www.w3.org/2000/svg">
<g clip-path="url(#clip0_6027_2379)">
<path d="M25.0409 17.1602C21.1968 17.1602 18.0811 20.2759 18.0811 24.1194C18.0811 27.9631 21.1968 31.0795 25.0409 31.0795C28.8843 31.0795 32 27.9631 32 24.1194C32 20.2759 28.8843 17.1602 25.0409 17.1602ZM6.95945 17.1606C3.116 17.1609 0 20.2759 0 24.1197C0 27.9631 3.116 31.0791 6.95945 31.0791C10.8032 31.0791 13.9192 27.9631 13.9192 24.1197C13.9192 20.2759 10.8032 17.1606 6.95911 17.1606H6.95945ZM22.9595 8.46092C22.9595 12.3044 19.8438 15.421 16.0004 15.421C12.1563 15.421 9.04057 12.3044 9.04057 8.46092C9.04057 4.61747 12.1563 1.50146 16.0003 1.50146C19.8438 1.50146 22.9591 4.61747 22.9591 8.46092H22.9595Z" fill="url(#paint0_radial_6027_2379)"/>
</g>
<defs>
<radialGradient id="paint0_radial_6027_2379" cx="0" cy="0" r="1" gradientUnits="userSpaceOnUse" gradientTransform="translate(16.0043 17.6849) scale(21.216 19.6102)">
<stop stop-color="#FFB900"/>
<stop offset="0.6" stop-color="#F95D8F"/>
<stop offset="0.999" stop-color="#F95353"/>
</radialGradient>
<clipPath id="clip0_6027_2379">
<rect width="32" height="29.5808" fill="white" transform="translate(0 1.5)"/>
</clipPath>
</defs>
</svg>
