<svg width="32" height="32" viewBox="0 0 32 32" fill="none" xmlns="http://www.w3.org/2000/svg">
<rect width="32" height="32" rx="16" fill="#1769FF"/>
<path fill-rule="evenodd" clip-rule="evenodd" d="M15.0521 10.4813C15.4862 11.0725 15.7038 11.7787 15.7038 12.6026C15.7038 13.4503 15.4861 14.1341 15.0465 14.6498C14.8004 14.9382 14.4394 15.2025 13.962 15.4406C14.6868 15.6998 15.2331 16.1084 15.605 16.6679C15.9728 17.226 16.1581 17.9057 16.1581 18.7046C16.1581 19.5286 15.9471 20.2678 15.5238 20.9212C15.2561 21.3537 14.9206 21.7187 14.5177 22.0149C14.0647 22.3547 13.5305 22.5861 12.9126 22.7131C12.2946 22.8387 11.6266 22.8996 10.9044 22.8996H4.5V9H11.3684C13.102 9.02512 14.3285 9.51834 15.0521 10.4813ZM7.33312 11.4136V14.4806H10.7896C11.4048 14.4806 11.9065 14.3655 12.2934 14.1353C12.6774 13.9052 12.8709 13.4978 12.8709 12.9161C12.8709 12.2668 12.6166 11.8395 12.1081 11.6306C11.6673 11.4864 11.1074 11.4136 10.4272 11.4136H7.33312ZM7.33312 16.7803V20.4873H10.7842C11.4009 20.4873 11.8823 20.4053 12.2244 20.2425C12.8477 19.9383 13.1588 19.3617 13.1588 18.5074C13.1588 17.7826 12.8585 17.2867 12.254 17.0156C11.916 16.8649 11.4413 16.7855 10.8327 16.7801H7.33312V16.7803ZM24.7507 12.83C25.4851 13.1501 26.0896 13.658 26.5655 14.3509C26.9997 14.9618 27.2782 15.6708 27.4054 16.4761C27.4798 16.9469 27.5094 17.6293 27.4974 18.5167H19.8391C19.8851 19.547 20.2476 20.2703 20.9399 20.6843C21.3591 20.9422 21.8635 21.0717 22.4559 21.0717C23.0793 21.0717 23.5892 20.9142 23.98 20.6009C24.1951 20.4303 24.3843 20.195 24.5466 19.8934H27.3526C27.2782 20.5017 26.9375 21.1219 26.3343 21.7516C25.3931 22.7502 24.0745 23.25 22.3801 23.25C20.9805 23.25 19.7459 22.8294 18.6789 21.9857C17.6065 21.1433 17.0738 19.7705 17.0738 17.8713C17.0738 16.0899 17.5566 14.7237 18.5208 13.7729C19.4877 12.8247 20.7385 12.3471 22.2788 12.3471C23.1943 12.3473 24.0178 12.5085 24.7507 12.83ZM20.6397 15.1523C20.2515 15.5438 20.0068 16.0741 19.9067 16.7433H24.6438C24.5938 16.0292 24.3477 15.4894 23.9121 15.1179C23.4713 14.749 22.929 14.5652 22.2798 14.5652C21.5769 14.5652 21.0278 14.7609 20.6397 15.1523ZM19.1968 11.3778H25.2876V9.64802H19.1968V11.3778Z" fill="white"/>
</svg>
