<svg width="32" height="33" viewBox="0 0 32 33" fill="none" xmlns="http://www.w3.org/2000/svg">
<g clip-path="url(#clip0_6027_2403)">
<path d="M9.78865 13.946L16.0036 7.73355L22.2212 13.9511L25.8354 10.3343L16.0036 0.5L6.17188 10.3318L9.78865 13.946Z" fill="#F3BA2F"/>
<path d="M0 16.5011L3.61425 12.8843L7.23102 16.5011L3.61425 20.1153L0 16.5011Z" fill="#F3BA2F"/>
<path d="M9.78865 19.0538L16.0036 25.2688L22.2212 19.0513L25.8379 22.663L16.0062 32.4973L6.17188 22.6706L9.78865 19.0538Z" fill="#F3BA2F"/>
<path d="M24.7686 16.5011L28.3828 12.8843L31.9996 16.4985L28.3828 20.1178L24.7686 16.5011Z" fill="#F3BA2F"/>
<path d="M19.6716 16.499L16.0042 12.8291L13.2923 15.5411L12.9789 15.8519L12.3369 16.4939L16.0042 20.1587L19.6716 16.5015V16.499Z" fill="#F3BA2F"/>
</g>
<defs>
<clipPath id="clip0_6027_2403">
<rect width="32" height="32" fill="white" transform="translate(0 0.5)"/>
</clipPath>
</defs>
</svg>
