<svg width="32" height="32" viewBox="0 0 32 32" fill="none" xmlns="http://www.w3.org/2000/svg">
<g clip-path="url(#clip0_6027_2385)">
<path d="M1.15084 1.69198C1.00232 1.69006 0.855175 1.72068 0.719746 1.78168C0.584317 1.84269 0.463886 1.93261 0.366911 2.04512C0.269936 2.15763 0.198768 2.29001 0.158406 2.43295C0.118044 2.5759 0.109466 2.72595 0.133274 2.87257L4.45303 29.0962C4.50684 29.4171 4.67201 29.7088 4.91952 29.92C5.16703 30.1313 5.48106 30.2485 5.80644 30.2512H26.53C26.7739 30.2543 27.0108 30.1697 27.1975 30.0128C27.3842 29.856 27.5084 29.6372 27.5474 29.3964L31.8673 2.87765C31.8911 2.73105 31.8825 2.58101 31.8421 2.43809C31.8017 2.29516 31.7305 2.16281 31.6335 2.05033C31.5365 1.93784 31.4161 1.84795 31.2807 1.78697C31.1453 1.72598 30.9981 1.69538 30.8496 1.69731L1.15084 1.69198ZM19.3405 20.6449H12.7261L10.9351 11.288H20.9433L19.3405 20.6449Z" fill="#2684FF"/>
<path d="M30.4671 11.2749H20.9246L19.3231 20.6243H12.714L4.91016 29.8873C5.1575 30.1011 5.47285 30.22 5.79981 30.2227H26.5119C26.7556 30.2259 26.9924 30.1414 27.179 29.9846C27.3656 29.8278 27.4898 29.6093 27.5288 29.3687L30.4671 11.2749Z" fill="url(#paint0_linear_6027_2385)"/>
</g>
<defs>
<linearGradient id="paint0_linear_6027_2385" x1="7165.96" y1="615.645" x2="4229.52" y2="4346.99" gradientUnits="userSpaceOnUse">
<stop offset="0.18" stop-color="#0052CC"/>
<stop offset="1" stop-color="#2684FF"/>
</linearGradient>
<clipPath id="clip0_6027_2385">
<rect width="32" height="28.8768" fill="white" transform="translate(0 1.5)"/>
</clipPath>
</defs>
</svg>
