<svg width="32" height="33" viewBox="0 0 32 33" fill="none" xmlns="http://www.w3.org/2000/svg">
<g clip-path="url(#clip0_6027_2371)">
<path d="M19.23 18.0774C19.6807 18.0774 20.0563 18.2527 20.3568 18.6034C20.6572 18.9037 20.8075 19.2793 20.8075 19.73C20.8075 20.1807 20.6572 20.5563 20.3566 20.8568C20.0563 21.1572 19.6807 21.3075 19.23 21.3075H12.6949C12.244 21.3075 11.8684 21.1572 11.5681 20.8566C11.2675 20.5563 11.1172 20.1807 11.1172 19.73C11.1172 19.2793 11.2675 18.9037 11.5681 18.6032C11.8685 18.2527 12.2441 18.0774 12.6949 18.0774H19.23ZM12.6949 13.27C12.244 13.27 11.8684 13.1197 11.5681 12.8192C11.2675 12.5187 11.1172 12.1431 11.1172 11.6924C11.1172 11.2418 11.2675 10.8662 11.5681 10.5658C11.8685 10.2652 12.2441 10.1149 12.6949 10.1149H16.9013C17.3521 10.1149 17.7277 10.2652 18.0281 10.5658C18.3286 10.8662 18.4789 11.2418 18.4789 11.6924C18.4789 12.1432 18.3286 12.5188 18.0281 12.8192C17.7276 13.1197 17.352 13.27 16.9013 13.27H12.6949ZM22.3848 13.27V10.1149C22.3848 8.8128 21.9091 7.68602 20.9577 6.73456C20.0062 5.78311 18.8794 5.30738 17.5774 5.30738H11.1924C9.89038 5.30738 8.76365 5.78311 7.81219 6.73456C6.86073 7.68602 6.385 8.8128 6.385 10.1149V21.3073C6.385 22.6093 6.86073 23.736 7.81219 24.6875C8.76365 25.6391 9.89038 26.1148 11.1924 26.1148H20.8075C22.1095 26.1148 23.2362 25.6391 24.1877 24.6875C25.1392 23.736 25.615 22.6093 25.615 21.3073V16.4999C25.615 16.0491 25.4647 15.6734 25.1642 15.373C24.8637 15.0725 24.4882 14.9223 24.0375 14.9223C23.5868 14.9223 23.1862 14.7721 22.8356 14.4716C22.535 14.1211 22.3848 13.7204 22.3848 13.2697V13.27ZM28.8452 0.5C29.6965 0.5 30.4226 0.825501 31.0235 1.4765C31.6745 2.07741 32 2.80356 32 3.65493V29.3449C32 30.1963 31.6745 30.9475 31.0235 31.5985C30.4226 32.1994 29.6965 32.4998 28.8452 32.4998H3.15493C2.30356 32.4998 1.55237 32.1994 0.901363 31.5985C0.300454 30.9475 0 30.1963 0 29.3451V3.65493C0 2.80356 0.300454 2.07741 0.901363 1.4765C1.55237 0.825501 2.30356 0.5 3.15493 0.5L28.8452 0.5Z" fill="#FF5722"/>
<path d="M10.5129 26.0412C9.02036 25.8496 7.55928 24.7556 6.86271 23.3078C6.41027 22.3671 6.43985 22.8995 6.43985 15.7335C6.43985 9.66522 6.44512 9.32661 6.54584 8.95075C6.99509 7.27512 8.3361 5.9429 10.0573 5.46264C10.5046 5.33778 10.5513 5.33634 14.3531 5.33474C18.1589 5.33314 18.2017 5.33458 18.6971 5.46072C20.0327 5.80109 21.2481 6.7923 21.8677 8.04635C22.3042 8.92964 22.3074 8.95347 22.3456 11.466L22.3795 13.6988L22.5266 14.0096C22.8089 14.6066 23.1733 14.8382 23.9998 14.946C24.6203 15.0269 24.8836 15.1326 25.1512 15.408C25.5624 15.8314 25.5448 15.6667 25.5448 19.0968C25.5448 22.1703 25.5445 22.1783 25.4123 22.5993C25.1386 23.4709 24.7028 24.1558 24.0107 24.8023C23.255 25.508 22.4289 25.9051 21.4263 26.0445C20.8876 26.1195 11.1001 26.1165 10.5129 26.0412ZM19.8925 21.1956C20.2294 21.0421 20.4735 20.812 20.6434 20.4883C20.7736 20.2403 20.7953 20.1302 20.7953 19.7185C20.7955 19.1633 20.7039 18.9375 20.3167 18.5386C19.8493 18.0569 20.0869 18.082 15.9611 18.0806L12.3123 18.0793L12.021 18.2243C11.4909 18.4886 11.1601 18.9957 11.1158 19.612C11.0664 20.2995 11.3751 20.8622 11.9622 21.1548L12.2557 21.3011L15.9611 21.2998C19.4249 21.2987 19.6813 21.2918 19.8925 21.1956ZM17.575 13.1399C18.1838 12.8516 18.477 12.381 18.477 11.6921C18.477 11.0069 18.1764 10.5242 17.575 10.2428L17.2923 10.1106L14.8295 10.11C11.9926 10.1093 11.9962 10.1089 11.5483 10.5688C11.2359 10.8897 11.103 11.2334 11.103 11.7215C11.103 12.356 11.5273 12.985 12.0901 13.1848C12.2744 13.2504 12.7974 13.2667 14.8054 13.2699L17.2923 13.2737L17.575 13.1399Z" fill="white"/>
</g>
<defs>
<clipPath id="clip0_6027_2371">
<rect y="0.5" width="32" height="32" rx="16" fill="white"/>
</clipPath>
</defs>
</svg>
