<svg width="32" height="32" viewBox="0 0 32 32" fill="none" xmlns="http://www.w3.org/2000/svg">
<g clip-path="url(#clip0_6027_2439)">
<path d="M26.6955 32H5.3045C2.37488 32 0 29.6251 0 26.6955V5.3045C0 2.37488 2.37488 0 5.3045 0H26.6955C29.6251 0 32 2.37488 32 5.3045V26.6955C32 29.6251 29.6251 32 26.6955 32Z" fill="#00AEEF"/>
<path d="M16.3779 13.4732C14.7131 13.4732 13.2643 14.4097 12.5347 15.7846C11.8048 14.4097 10.3568 13.4732 8.69082 13.4732C7.74904 13.4722 6.8325 13.7776 6.07957 14.3433V10.6779C6.07537 10.4501 5.98181 10.233 5.81904 10.0735C5.65627 9.91397 5.43734 9.8248 5.20945 9.8252C4.7342 9.8252 4.3517 10.2043 4.34082 10.6779V17.8957H4.3417C4.38007 20.2656 6.31132 22.1747 8.69082 22.1747C10.3568 22.1747 11.8048 21.2373 12.5347 19.8638C13.2643 21.2373 14.7131 22.1747 16.3779 22.1747C18.7799 22.1747 20.7284 20.2269 20.7284 17.8231C20.7284 15.4204 18.7799 13.4732 16.3779 13.4732ZM8.69082 20.4328C7.24945 20.4328 6.07957 19.2652 6.07957 17.8237C6.07957 16.3827 7.24945 15.2149 8.69082 15.2149C10.1321 15.2149 11.2994 16.3827 11.2994 17.8231C11.2994 19.2648 10.1321 20.4328 8.69082 20.4328ZM16.3779 20.4328C14.9362 20.4328 13.7672 19.2648 13.7672 17.8231C13.7672 16.3827 14.9362 15.2149 16.3779 15.2149C17.8191 15.2149 18.9874 16.3827 18.9874 17.8231C18.9874 19.2648 17.8191 20.4328 16.3779 20.4328Z" fill="white"/>
<path d="M27.479 20.7181L25.1142 17.8175L27.4818 14.9112C27.7812 14.5279 27.6953 13.9925 27.2821 13.7081C26.8683 13.4212 26.2878 13.4947 25.9677 13.8667V13.8662L23.9307 16.3627L21.8956 13.8662V13.8667C21.5787 13.4947 20.9946 13.4212 20.5821 13.7081C20.1696 13.9927 20.0833 14.5279 20.3842 14.9112H20.3833L22.7468 17.8175L20.3833 20.7181H20.3842C20.0833 21.1027 20.1696 21.6364 20.5821 21.922C20.9946 22.2076 21.5787 22.1349 21.8956 21.7624L23.9307 19.2694L25.9648 21.7624C26.2853 22.1349 26.8656 22.2076 27.2793 21.922C27.6927 21.6364 27.779 21.1027 27.479 20.7181Z" fill="white"/>
</g>
<defs>
<clipPath id="clip0_6027_2439">
<rect width="32" height="32" rx="16" fill="white"/>
</clipPath>
</defs>
</svg>
