<svg width="32" height="32" viewBox="0 0 32 32" fill="none" xmlns="http://www.w3.org/2000/svg">
<path d="M21.5267 20.7011C20.3232 21.9798 18.6684 22.7319 16.9384 22.7319H15.5092C13.9296 22.7319 12.3501 22.1302 11.2218 21.0019C10.1687 19.8737 9.567 18.4445 9.64222 16.9402V15.0597C9.64222 13.4801 10.244 12.051 11.297 10.9227C12.4253 9.79445 13.9296 9.1927 15.5092 9.1927H16.8631C18.5932 9.1927 20.3232 9.94488 21.5267 11.2236C22.6549 12.4271 24.2345 13.0288 25.8893 12.9536C26.2654 12.9536 26.6415 12.9536 27.0176 12.8784C26.8671 12.5023 26.7167 12.1262 26.4911 11.8253L24.8363 9.04227C23.3319 6.48485 20.624 4.90527 17.6153 4.90527H14.381C11.3722 4.90527 8.66438 6.48485 7.16002 9.04227L5.50522 11.8253C4.00086 14.3827 4.00086 17.6171 5.50522 20.1745L7.16002 23.0328C8.66438 25.5902 11.3722 27.1698 14.381 27.1698H17.6153C20.624 27.1698 23.3319 25.5902 24.8363 23.0328L26.4911 20.2498C26.7167 19.9489 26.8671 19.5728 27.0176 19.1967C26.6415 19.1215 26.2654 19.1215 25.8893 19.1215C24.2345 18.8958 22.6549 19.4976 21.5267 20.7011Z" fill="#006BFF"/>
<path d="M16.8673 10.9234H15.4381C13.2568 10.8481 11.3763 12.5029 11.2259 14.7595C11.2259 14.8347 11.2259 14.9851 11.2259 15.0604V16.9408C11.1507 19.1221 12.9559 21.0026 15.1372 21.0026C15.2125 21.0026 15.2877 21.0026 15.4381 21.0026H16.792C20.4777 21.0026 20.1768 17.2417 25.743 17.2417C26.2695 17.2417 26.796 17.3169 27.3226 17.3921C27.473 16.4143 27.473 15.4364 27.3226 14.5338C26.796 14.609 26.2695 14.6843 25.743 14.6843C20.3273 14.6843 20.6282 10.9234 16.8673 10.9234Z" fill="#006BFF"/>
<path d="M30.6299 18.7455C29.6521 18.0685 28.599 17.6172 27.3955 17.3915C27.3203 17.9181 27.1699 18.5198 26.9442 19.0463C27.9221 19.1968 28.8247 19.5729 29.5769 20.0994C27.2451 27.6212 19.272 31.8334 11.675 29.5769C4.07794 27.3203 -0.0590499 19.272 2.27271 11.675C4.60447 4.07794 12.5776 -0.0590489 20.1746 2.19749C24.6877 3.62663 28.2229 7.16188 29.6521 11.675C28.8999 12.2767 27.9973 12.5776 27.0194 12.728C27.2451 13.2545 27.3955 13.7811 27.4708 14.3828C28.599 14.2324 29.7273 13.7811 30.7051 13.1793C31.3821 12.8032 31.6077 11.9758 31.3069 11.2989C28.6742 2.87445 19.7233 -1.86428 11.2989 0.693131C2.87445 3.32576 -1.86428 12.2767 0.693132 20.7011C3.25054 29.1255 12.2767 33.8643 20.7011 31.3069C25.7407 29.7273 29.7273 25.816 31.3069 20.7011C31.5325 20.0242 31.3069 19.1968 30.6299 18.7455Z" fill="#006BFF"/>
<path d="M26.9418 12.8781C26.5657 12.9533 26.1896 12.9533 25.8135 12.9533C24.1587 13.0285 22.5791 12.4268 21.4509 11.2233C20.2474 9.94457 18.5926 9.2676 16.8626 9.19238H15.4334C13.8538 9.19238 12.3495 9.79413 11.2212 10.9224C10.1682 12.0507 9.56641 13.4798 9.56641 15.0594V16.9398C9.56641 18.4442 10.1682 19.9486 11.2212 21.0768C12.3495 22.2051 13.8538 22.8068 15.4334 22.7316H16.7873C18.5174 22.7316 20.2474 21.9795 21.4509 20.7007C22.5791 19.4973 24.1587 18.8203 25.8135 18.9707C26.1896 18.9707 26.5657 18.9707 26.9418 19.0459C27.1674 18.5194 27.3179 17.9929 27.3931 17.3911C26.8666 17.3159 26.34 17.2407 25.8135 17.2407C20.2474 17.2407 20.5482 21.0016 16.8626 21.0016H15.4334C13.2521 21.0768 11.3716 19.3468 11.2964 17.1655C11.2964 17.0903 11.2964 17.0151 11.2964 16.9398V14.9842C11.2212 12.8029 13.0264 10.9224 15.2078 10.8472C15.283 10.8472 15.3582 10.8472 15.4334 10.8472H16.7873C20.473 10.8472 20.1721 14.6081 25.7383 14.6081C26.2648 14.6081 26.7913 14.5329 27.3179 14.4576C27.3179 14.0063 27.1674 13.4798 26.9418 12.8781Z" fill="#0AE8F0"/>
<path d="M26.9418 12.8781C26.5657 12.9533 26.1896 12.9533 25.8135 12.9533C24.1587 13.0285 22.5791 12.4268 21.4509 11.2233C20.2474 9.94457 18.5926 9.2676 16.8626 9.19238H15.4334C13.8538 9.19238 12.3495 9.79413 11.2212 10.9224C10.1682 12.0507 9.56641 13.4798 9.56641 15.0594V16.9398C9.56641 18.4442 10.1682 19.9486 11.2212 21.0768C12.3495 22.2051 13.8538 22.8068 15.4334 22.7316H16.7873C18.5174 22.7316 20.2474 21.9795 21.4509 20.7007C22.5791 19.4973 24.1587 18.8203 25.8135 18.9707C26.1896 18.9707 26.5657 18.9707 26.9418 19.0459C27.1674 18.5194 27.3179 17.9929 27.3931 17.3911C26.8666 17.3159 26.34 17.2407 25.8135 17.2407C20.2474 17.2407 20.5482 21.0016 16.8626 21.0016H15.4334C13.2521 21.0768 11.3716 19.3468 11.2964 17.1655C11.2964 17.0903 11.2964 17.0151 11.2964 16.9398V14.9842C11.2212 12.8029 13.0264 10.9224 15.2078 10.8472C15.283 10.8472 15.3582 10.8472 15.4334 10.8472H16.7873C20.473 10.8472 20.1721 14.6081 25.7383 14.6081C26.2648 14.6081 26.7913 14.5329 27.3179 14.4576C27.3179 14.0063 27.1674 13.4798 26.9418 12.8781Z" fill="#0AE8F0"/>
</svg>
