<svg width="33" height="33" viewBox="0 0 33 33" fill="none" xmlns="http://www.w3.org/2000/svg">
<g clip-path="url(#clip0_6027_2709)">
<path d="M20.975 0.5C24.175 0.5 25.775 0.5 27.525 1.05C28.454 1.38985 29.2977 1.9283 29.9972 2.62779C30.6967 3.32729 31.2352 4.17098 31.575 5.1C32.125 6.85 32.125 8.45 32.125 11.655V21.34C32.125 24.55 32.125 26.16 31.575 27.89C31.2352 28.819 30.6967 29.6627 29.9972 30.3622C29.2977 31.0617 28.454 31.6002 27.525 31.94C25.775 32.5 24.175 32.5 20.975 32.5H11.275C8.065 32.5 6.455 32.5 4.725 31.95C3.79598 31.6102 2.95229 31.0717 2.25279 30.3722C1.5533 29.6727 1.01485 28.829 0.675 27.9C0.125 26.15 0.125 24.55 0.125 21.345V11.65C0.125 8.44 0.125 6.83 0.675 5.1C1.01485 4.17098 1.5533 3.32729 2.25279 2.62779C2.95229 1.9283 3.79598 1.38985 4.725 1.05C6.475 0.5 8.075 0.5 11.275 0.5H20.975Z" fill="#00D632"/>
<path d="M21.3598 12.3999C21.6098 12.6499 22.0248 12.6499 22.2598 12.3999L23.5098 11.0999C23.7748 10.8499 23.7598 10.3999 23.4798 10.1299C22.4975 9.27433 21.3556 8.62177 20.1198 8.20988L20.5148 6.30988C20.5998 5.89488 20.2898 5.50488 19.8748 5.50488H17.4548C17.3035 5.50651 17.1574 5.56004 17.0409 5.65652C16.9244 5.753 16.8446 5.88658 16.8148 6.03488L16.4648 7.72488C13.2448 7.88988 10.5148 9.52488 10.5148 12.8749C10.5148 15.7749 12.7698 17.0199 15.1548 17.8749C17.4098 18.7349 18.6048 19.0549 18.6048 20.2649C18.6048 21.5099 17.4148 22.2399 15.6548 22.2399C14.0548 22.2399 12.3748 21.7049 11.0748 20.3999C11.0144 20.3394 10.9427 20.2914 10.8638 20.2587C10.7848 20.226 10.7002 20.2091 10.6148 20.2091C10.5293 20.2091 10.4447 20.226 10.3658 20.2587C10.2869 20.2914 10.2152 20.3394 10.1548 20.3999L8.80478 21.7499C8.67777 21.8773 8.60645 22.0499 8.60645 22.2299C8.60645 22.4098 8.67777 22.5824 8.80478 22.7099C9.85478 23.7449 11.1848 24.4949 12.7008 24.9099L12.3308 26.6949C12.2458 27.1099 12.5508 27.4949 12.9658 27.4999L15.3908 27.5199C15.5438 27.5206 15.6922 27.4681 15.8108 27.3714C15.9294 27.2747 16.0107 27.1399 16.0408 26.9899L16.3908 25.2949C20.2648 25.0349 22.6248 22.8999 22.6248 19.7849C22.6248 16.9149 20.2748 15.7049 17.4248 14.7199C15.7948 14.1149 14.3848 13.6999 14.3848 12.4549C14.3848 11.2449 15.6998 10.7649 17.0198 10.7649C18.6998 10.7649 20.3148 11.4599 21.3698 12.4099L21.3598 12.3999Z" fill="white"/>
</g>
<defs>
<clipPath id="clip0_6027_2709">
<rect x="0.125" y="0.5" width="32" height="32" rx="16" fill="white"/>
</clipPath>
</defs>
</svg>
