<svg width="33" height="32" viewBox="0 0 33 32" fill="none" xmlns="http://www.w3.org/2000/svg">
<g clip-path="url(#clip0_6027_2468)">
<path d="M8.57146 13.5905C8.99475 14.994 9.50715 16.3105 10.0641 17.5804C11.0221 19.8548 11.6682 21.0578 12.5613 22.5505C13.653 24.3328 14.858 26.3621 16.8408 27.6766C18.2889 28.6345 20.0509 29.1247 21.7441 29.1247C24.1299 29.1247 26.1796 28.0776 27.496 26.8502C28.7882 25.6472 30.4611 23.3282 30.4611 18.8036C30.4611 17.2442 31.1517 15.9054 31.6641 14.8361C31.6641 14.8138 31.6864 14.7692 31.7309 14.6801C31.9315 14.2345 32.1765 13.6553 32.1765 13.0761C32.1765 12.6528 32.0651 12.1626 31.7755 11.7393C31.3299 10.9819 30.5279 10.7145 29.7907 10.7145C28.0753 10.7145 26.8925 11.9176 26.2909 13.1449L26.0904 13.5459C25.8454 13.1895 25.6003 12.8107 25.3998 12.4766C24.776 11.3849 24.4196 10.6497 24.1077 9.712C23.8626 8.97681 23.6621 8.13023 23.5284 7.43757C23.1497 5.25226 22.5259 4.53935 21.499 4.272C20.7416 4.0715 19.8504 4.22745 19.2023 4.65074C18.7588 3.64821 18.0013 3.20264 16.9968 3.20264C15.5709 3.20264 14.2768 4.13833 14.2768 5.72213C14.2768 5.92264 14.2991 6.12314 14.3213 6.36821C14.1431 6.32365 13.9426 6.30137 13.7421 6.30137C12.2049 6.30137 11.0666 7.37074 11.0666 8.82086C11.0666 9.15504 11.1112 9.53378 11.2226 9.97934C11.0889 9.95707 10.9553 9.95707 10.8216 9.95707C10.0641 10.0016 9.37348 10.2912 8.88133 10.8928C8.39323 11.472 8.19272 12.3631 8.57146 13.5905Z" fill="#1F1F1A"/>
<path d="M9.8414 13.1895C9.64089 12.5435 9.66317 12.0533 9.90823 11.7414C10.1533 11.4518 10.4875 11.3181 10.8885 11.2959C11.5791 11.2736 11.8465 11.7637 12.2475 13.0336C12.4925 13.8356 12.9827 14.9961 13.2723 15.6422C13.651 16.4219 14.1857 17.469 14.4308 17.8275C14.6313 18.1394 14.8095 18.2285 15.01 18.2285C15.3665 18.2285 15.6338 18.028 15.6338 17.6716C15.6338 17.4711 15.4333 17.1369 15.3219 16.9364C15.1214 16.5576 14.6981 15.8002 14.4085 15.1541C14.0966 14.4412 13.7401 13.55 13.4505 12.746C13.2723 12.2781 13.0718 11.6098 12.8713 10.9414C12.5594 9.91662 12.4034 9.29283 12.4034 8.82295C12.4034 8.11004 12.9381 7.64219 13.7401 7.64219C14.3194 7.64219 14.6981 7.93181 14.9432 8.9789C15.1437 9.93688 15.5001 11.4984 16.0125 12.7237C16.3467 13.5257 16.8368 14.5971 17.1265 15.1318C17.3047 15.4437 17.5052 15.7111 17.5052 15.8224C17.5052 15.9784 17.2156 16.2235 16.9705 16.5576C16.8146 16.7581 16.7477 16.8918 16.7477 17.0478C16.7477 17.1814 16.8368 17.3151 16.9705 17.4933C17.1042 17.6716 17.2379 17.8498 17.3938 17.8498C17.5052 17.8498 17.572 17.8052 17.6389 17.7161C18.3295 16.8473 19.087 16.2457 19.9579 15.7536C20.9827 15.1743 22.0318 14.8847 22.8561 14.7065C23.2571 14.6174 23.3685 14.5283 23.3685 14.3055C23.3685 14.0381 23.168 13.8822 22.9006 13.8599C22.7001 13.8376 22.5219 13.8599 22.21 13.8822C21.9872 13.9045 21.8758 13.7931 21.7422 13.5035C21.3411 12.6569 20.5614 11.229 20.0935 9.40219C19.893 8.62245 19.7148 7.79814 19.6034 6.72675C19.5366 6.23662 19.6257 6.0584 19.8708 5.83561C20.1827 5.56827 20.7396 5.45688 21.1629 5.56827C21.6753 5.70194 21.9427 6.10295 22.21 7.66447C22.3437 8.39966 22.5665 9.33536 22.8338 10.1394C23.168 11.1642 23.5913 12.0128 24.2373 13.149C24.5938 13.7728 25.0394 14.4189 25.5072 15.0447C25.4181 15.3121 25.2622 15.4903 24.7498 15.9136C24.2373 16.3369 23.7249 16.7824 23.2571 17.6068C22.9229 18.2083 22.767 18.8766 22.767 19.3222C22.767 19.7455 22.8561 19.8346 23.1234 19.8346C23.5913 19.8346 23.97 19.7455 23.9923 19.545C24.1037 18.743 24.2373 18.2305 24.6829 17.627C24.9503 17.2928 25.4181 16.8695 25.7968 16.5354C26.5098 15.9561 26.7548 15.6219 26.9999 14.7976C27.1113 14.4189 27.2449 14.0624 27.4232 13.7283C27.8465 12.9485 28.6039 12.0574 29.7867 12.0574C30.1654 12.0574 30.4773 12.1688 30.6779 12.4807C30.7892 12.6589 30.8338 12.904 30.8338 13.0822C30.8338 13.4832 30.5442 14.0402 30.4105 14.3075C29.9204 15.3546 29.1184 16.9607 29.1184 18.8098C29.1184 22.8442 27.6925 24.8513 26.5766 25.8761C25.4849 26.9009 23.7675 27.7941 21.7401 27.7941C20.292 27.7941 18.7973 27.3708 17.572 26.5688C15.8566 25.4326 14.7852 23.6483 13.6935 21.866C12.8247 20.4179 12.2232 19.2797 11.2854 17.0741C10.7568 15.7961 10.2647 14.5485 9.8414 13.1895Z" fill="#FFE450"/>
<path d="M15.5703 5.72226C15.5703 4.87568 16.3501 4.5415 16.9961 4.5415C17.6868 4.5415 17.9318 4.87568 18.1101 5.58859C18.266 6.16783 18.3328 6.70252 18.3997 7.32631C18.4888 7.95011 18.8007 9.37796 18.8898 9.73442C19.224 10.9597 19.8923 12.4099 20.6944 14.1476C20.2265 14.3035 19.6027 14.5709 19.1794 14.7937C18.6447 15.0833 18.5334 15.0833 18.3106 14.66C17.8427 13.7911 17.5085 13.145 17.2189 12.3856C16.9739 11.7618 16.7288 11.0488 16.5283 10.2225C16.1941 8.81897 16.1496 8.41796 15.8822 7.76986C15.7263 7.10353 15.5703 6.27923 15.5703 5.72226Z" fill="#FFE450"/>
<path d="M7.59097 20.6448C7.11907 20.9364 4.61781 22.2468 4.05274 22.4554C3.6497 22.6053 3.21224 22.5688 2.95502 21.8073C2.63907 20.8655 3.08262 20.6427 3.71451 20.3977C4.2735 20.181 6.59249 19.3425 7.13122 19.1967C7.50996 19.0954 7.77325 19.223 7.95553 19.6787C8.15603 20.1789 8.01831 20.3794 7.59097 20.6448Z" fill="#1F1F1A"/>
<path d="M5.52919 15.3363C4.85678 15.3546 2.06387 15.2351 1.4259 15.1723C0.870959 15.1176 0.646149 14.8725 0.706908 14.0685C0.771718 13.2057 1.10792 13.1531 1.65273 13.2057C2.28463 13.2665 5.21121 13.7424 5.67703 13.8862C6.15906 14.0361 6.2259 14.2548 6.16716 14.6761C6.09222 15.2229 5.84514 15.3262 5.52919 15.3363Z" fill="#1F1F1A"/>
<path d="M5.87578 9.68157C5.10616 9.43853 2.8216 8.05524 2.22616 7.69879C1.68743 7.37473 1.61857 7.08309 1.99325 6.3722C2.3254 5.74435 2.69401 5.63499 3.24085 5.91853C3.87477 6.24866 6.11274 7.99043 6.54009 8.33473C6.95325 8.66689 6.89654 8.83904 6.67983 9.26638C6.46312 9.69372 6.26059 9.80309 5.87578 9.68157Z" fill="#1F1F1A"/>
</g>
<defs>
<clipPath id="clip0_6027_2468">
<rect width="32" height="26.3291" fill="white" transform="translate(0.4375 3)"/>
</clipPath>
</defs>
</svg>
