<svg width="28" height="28" viewBox="0 0 28 28" fill="none" xmlns="http://www.w3.org/2000/svg">
<path d="M21.8727 6.31216V19.5795C21.8729 20.8923 21.3596 22.1559 20.4367 23.1142C19.5139 24.0724 18.2507 24.6535 16.9034 24.7397L16.5545 24.75H7.16476C7.38469 25.3548 7.79204 25.8784 8.33072 26.2488C8.86941 26.6192 9.51294 26.8181 10.1727 26.8182H17.6182C19.3107 26.8182 20.934 26.1645 22.1308 25.0009C23.3276 23.8373 24 22.2592 24 20.6136V9.23864C24.0003 8.59683 23.7959 7.97071 23.4149 7.44658C23.0339 6.92244 22.4951 6.5261 21.8727 6.31216ZM5.91818 2C5.0719 2 4.26028 2.32685 3.66187 2.90863C3.06346 3.49042 2.72727 4.2795 2.72727 5.10227V19.5795C2.72727 20.4023 3.06346 21.1914 3.66187 21.7732C4.26028 22.355 5.0719 22.6818 5.91818 22.6818H16.5545C17.4008 22.6818 18.2124 22.355 18.8109 21.7732C19.4093 21.1914 19.7455 20.4023 19.7455 19.5795V5.10227C19.7455 4.2795 19.4093 3.49042 18.8109 2.90863C18.2124 2.32685 17.4008 2 16.5545 2H5.91818ZM5.91818 4.06818H16.5545C16.8366 4.06818 17.1072 4.17713 17.3066 4.37106C17.5061 4.56499 17.6182 4.82801 17.6182 5.10227V19.5795C17.6182 19.8538 17.5061 20.1168 17.3066 20.3108C17.1072 20.5047 16.8366 20.6136 16.5545 20.6136H5.91818C5.63609 20.6136 5.36555 20.5047 5.16608 20.3108C4.96661 20.1168 4.85455 19.8538 4.85455 19.5795V5.10227C4.85455 4.82801 4.96661 4.56499 5.16608 4.37106C5.36555 4.17713 5.63609 4.06818 5.91818 4.06818Z" fill="black"/>
</svg>
