<svg width="32" height="32" viewBox="0 0 32 32" fill="none" xmlns="http://www.w3.org/2000/svg">
<g clip-path="url(#clip0_5954_21486)">
<rect width="32" height="32" fill="#5865F2"/>
<path d="M23.6936 9.20753C22.3112 8.56635 20.8288 8.09396 19.2789 7.8234C19.2506 7.81818 19.2224 7.83123 19.2079 7.85733C19.0173 8.20009 18.8061 8.64725 18.6582 8.99872C16.9912 8.74644 15.3327 8.74644 13.6998 8.99872C13.5519 8.63944 13.333 8.20009 13.1415 7.85733C13.127 7.8321 13.0988 7.81905 13.0706 7.8234C11.5215 8.09309 10.0391 8.56548 8.65587 9.20753C8.64389 9.21274 8.63363 9.22145 8.62682 9.23275C5.81504 13.4791 5.04477 17.621 5.42264 21.7116C5.42435 21.7317 5.43546 21.7508 5.45085 21.763C7.30598 23.1401 9.10299 23.9762 10.8666 24.5303C10.8949 24.539 10.9248 24.5286 10.9427 24.5051C11.3599 23.9292 11.7318 23.322 12.0507 22.6834C12.0695 22.646 12.0515 22.6016 12.0131 22.5868C11.4232 22.3606 10.8615 22.0848 10.3212 21.7717C10.2785 21.7464 10.2751 21.6847 10.3144 21.6551C10.4281 21.5689 10.5418 21.4793 10.6504 21.3889C10.67 21.3723 10.6974 21.3689 10.7205 21.3793C14.27 23.0175 18.1128 23.0175 21.6204 21.3793C21.6435 21.368 21.6709 21.3715 21.6914 21.388C21.8 21.4785 21.9137 21.5689 22.0282 21.6551C22.0675 21.6847 22.065 21.7464 22.0222 21.7717C21.4819 22.0909 20.9203 22.3606 20.3295 22.586C20.2911 22.6007 20.274 22.646 20.2928 22.6834C20.6185 23.3211 20.9904 23.9283 21.3999 24.5042C21.417 24.5286 21.4477 24.539 21.476 24.5303C23.2482 23.9762 25.0452 23.1401 26.9003 21.763C26.9165 21.7508 26.9268 21.7325 26.9285 21.7125C27.3807 16.9833 26.1711 12.8753 23.7218 9.23362C23.7158 9.22145 23.7055 9.21274 23.6936 9.20753ZM12.5807 19.2209C11.5121 19.2209 10.6315 18.2291 10.6315 17.0112C10.6315 15.7932 11.495 14.8015 12.5807 14.8015C13.675 14.8015 14.547 15.8019 14.5299 17.0112C14.5299 18.2291 13.6664 19.2209 12.5807 19.2209ZM19.7875 19.2209C18.7189 19.2209 17.8384 18.2291 17.8384 17.0112C17.8384 15.7932 18.7018 14.8015 19.7875 14.8015C20.8818 14.8015 21.7538 15.8019 21.7367 17.0112C21.7367 18.2291 20.8818 19.2209 19.7875 19.2209Z" fill="white"/>
</g>
<defs>
<clipPath id="clip0_5954_21486">
<rect width="32" height="32" rx="16" fill="white"/>
</clipPath>
</defs>
</svg>
