<svg width="32" height="32" viewBox="0 0 32 32" fill="none" xmlns="http://www.w3.org/2000/svg">
<rect width="32" height="32" rx="16" fill="white"/>
<path d="M16 27.04C22.0972 27.04 27.04 22.0972 27.04 16C27.04 9.90274 22.0972 4.95996 16 4.95996C9.90274 4.95996 4.95996 9.90274 4.95996 16C4.95996 22.0972 9.90274 27.04 16 27.04Z" fill="#EA4C89"/>
<path fill-rule="evenodd" clip-rule="evenodd" d="M16 4.5C9.65133 4.5 4.5 9.65133 4.5 16C4.5 22.3487 9.65133 27.5 16 27.5C22.3363 27.5 27.5 22.3487 27.5 16C27.5 9.65133 22.3363 4.5 16 4.5ZM23.596 9.80105C24.9679 11.4725 25.7914 13.6053 25.8161 15.9126C25.4919 15.8503 22.2489 15.1892 18.981 15.601C18.9063 15.4388 18.8437 15.264 18.769 15.0894C18.5694 14.6156 18.3448 14.1292 18.1204 13.6676C21.7376 12.1958 23.3839 10.0754 23.596 9.80105ZM16 6.19625C18.4946 6.19625 20.7771 7.13188 22.5108 8.66601C22.3363 8.91533 20.8518 10.8986 17.3595 12.2082C15.7505 9.25224 13.967 6.83243 13.6926 6.45823C14.4284 6.28367 15.2016 6.19625 16 6.19625ZM11.8216 7.11926C12.0836 7.46862 13.8297 9.90087 15.4636 12.7945C10.8737 14.0167 6.81999 13.9919 6.38348 13.9919C7.0194 10.9485 9.07745 8.41642 11.8216 7.11926ZM6.17141 16.0124V15.7132C6.59552 15.7256 11.3602 15.7879 16.262 14.3161C16.5488 14.865 16.8108 15.4262 17.0601 15.9876C16.9354 16.0251 16.7984 16.0624 16.6734 16.0998C11.6095 17.7338 8.91533 22.1989 8.69085 22.5731C7.13188 20.8394 6.17141 18.5321 6.17141 16.0124ZM16 25.8286C13.7299 25.8286 11.6346 25.0554 9.97562 23.7581C10.1502 23.3963 12.1459 19.5549 17.6839 17.6215C17.7086 17.6091 17.7213 17.6091 17.7462 17.5964C19.1307 21.1762 19.6919 24.1823 19.8417 25.0429C18.6567 25.5542 17.3595 25.8286 16 25.8286ZM21.4756 24.1447C21.3758 23.5461 20.8521 20.6773 19.5673 17.1475C22.6482 16.661 25.3421 17.4593 25.6789 17.5716C25.255 20.3031 23.6834 22.6606 21.4756 24.1447Z" fill="#C32361"/>
</svg>
