<svg width="43" height="43" viewBox="0 0 43 43" fill="none" xmlns="http://www.w3.org/2000/svg">
<circle cx="21.5" cy="21.5" r="21.5" fill="#F5F5F5"/>
<g clip-path="url(#clip0_175_4375)">
<path d="M31.8239 15.9735L25.7583 22L31.8239 28.0266C31.9335 27.7974 32.0001 27.544 32.0001 27.2735V16.7266C32.0001 16.456 31.9335 16.2027 31.8239 15.9735Z" fill="black"/>
<path d="M30.2421 14.9688H13.7577C13.4871 14.9688 13.2338 15.0353 13.0046 15.1449L20.7571 22.8583C21.4426 23.5438 22.5573 23.5438 23.2427 22.8583L30.9952 15.1449C30.766 15.0353 30.5127 14.9688 30.2421 14.9688Z" fill="black"/>
<path d="M12.1762 15.9735C12.0665 16.2027 12 16.456 12 16.7266V27.2735C12 27.5441 12.0665 27.7974 12.1762 28.0266L18.2418 22L12.1762 15.9735Z" fill="black"/>
<path d="M24.9296 22.8286L24.0713 23.6869C22.9291 24.8291 21.0707 24.8291 19.9285 23.6869L19.0702 22.8286L13.0046 28.8551C13.2338 28.9648 13.4871 29.0313 13.7577 29.0313H30.2421C30.5127 29.0313 30.766 28.9648 30.9952 28.8551L24.9296 22.8286Z" fill="black"/>
</g>
<defs>
<clipPath id="clip0_175_4375">
<rect width="20" height="20" fill="white" transform="translate(12 12)"/>
</clipPath>
</defs>
</svg>
