<svg width="32" height="32" viewBox="0 0 32 32" fill="none" xmlns="http://www.w3.org/2000/svg">
<g clip-path="url(#clip0_6027_2501)">
<path d="M3.4318 13.4833V9.19385C3.4318 9.03491 3.44765 8.93958 3.71788 8.93958H7.3559C7.99148 8.93958 8.34099 9.47983 8.59526 10.4965L8.80177 11.3069H9.4213C9.53239 9.00338 9.62763 8.00244 9.62763 8.00244C9.62763 8.00244 8.07076 8.17715 7.14929 8.17715H2.49466L0 8.09767V8.76497L0.842188 8.92382C1.43001 9.0351 1.57272 9.16204 1.62076 9.70239C1.62076 9.70239 1.66852 11.2911 1.66852 13.9126C1.66852 16.5337 1.62076 18.1067 1.62076 18.1067C1.62076 18.5832 1.43001 18.758 0.842188 18.8695L0 19.0285V19.6954L2.49466 19.6161H6.65708C7.59441 19.6161 9.7709 19.6954 9.7709 19.6954C9.81838 19.1233 10.1364 16.5337 10.184 16.2481H9.5962L8.97657 17.6621C8.48398 18.7739 7.76921 18.8535 6.97469 18.8535H4.60735C3.81292 18.8535 3.43161 18.5357 3.43161 17.8526V14.2303C3.43161 14.2303 5.16327 14.2303 5.76685 14.278C6.21178 14.3099 6.48172 14.437 6.6249 15.0565L6.81565 15.8826H7.49842L7.45094 13.8012L7.54618 11.7043H6.86322L6.64094 12.6256C6.49776 13.2293 6.40262 13.3408 5.7829 13.4041C5.08399 13.4838 3.43151 13.4678 3.43151 13.4678V13.4836H3.4318V13.4833ZM12.8528 9.63877C12.6304 10.6238 12.4079 11.3863 11.6294 11.8947C11.1529 12.2123 10.6761 12.3234 10.4858 12.3394V12.9431H11.8996V17.8203C11.8996 19.1868 12.8053 19.8542 14.0126 19.8542C14.95 19.8542 15.919 19.4571 16.2527 18.6307L15.919 18.2017C15.76 18.472 15.252 18.869 14.6164 18.869C13.9175 18.869 13.5362 18.3923 13.5362 17.1851V12.8798L15.8876 13.0547L16.0146 11.9741L13.5362 12.0695V9.65454L12.8528 9.63877ZM17.8733 17.1408L17.2696 17.1566C17.3013 17.506 17.3174 17.9511 17.3174 18.3641C17.3174 18.7931 17.3015 19.1902 17.2696 19.3808C17.2696 19.3808 18.4771 19.8252 19.7004 19.8252C21.3526 19.8252 22.6714 19.0309 22.6714 17.474C22.6714 14.8053 18.6678 15.2025 18.6678 13.407C18.6678 12.6604 19.335 12.3743 20.0658 12.3743C20.6378 12.3743 21.1143 12.5808 21.2097 12.8829L21.6069 14.0744L22.1948 14.0427C22.2426 13.4071 22.2742 12.6763 22.3696 12.0886C21.8611 11.8661 20.7965 11.7388 20.1298 11.7388C18.5725 11.7388 17.3176 12.4221 17.3176 13.9473C17.3176 16.6003 21.2257 16.0602 21.2257 18.0146C21.2257 18.7133 20.7965 19.2059 19.8277 19.2059C18.9382 19.2059 18.4932 18.7453 18.3188 18.2843L17.8733 17.1408ZM27.4488 18.9762C26.529 21.5454 25.4031 22.211 24.3883 22.211C23.9599 22.211 23.754 22.0205 23.6903 21.7197L23.4524 20.4824L22.7862 20.5142C22.6594 21.2437 22.5325 22.0528 22.3583 22.7187C22.7548 23.0196 23.4205 23.1785 23.9441 23.1785C25.0385 23.1785 26.7035 23.0355 28.2256 19.4201L30.779 13.3941C30.9853 12.9024 31.0643 12.8548 31.6669 12.6168L32 12.4902V11.9351L30.4933 12.0144L28.8759 11.9351V12.4902L29.288 12.6168C29.7001 12.7439 29.8908 12.9024 29.8908 13.1879C29.8908 13.3305 29.843 13.4733 29.7636 13.6951C29.5257 14.2981 28.0509 17.8819 27.6548 18.6433L28.0508 18.5003C27.3529 16.7718 26.2909 13.8854 26.1322 13.3942C26.1004 13.299 26.0846 13.2197 26.0846 13.14C26.0846 12.8864 26.259 12.6802 26.6397 12.601L27.163 12.4903V11.9352L24.9902 12.0145L23.2617 11.9352V12.4903L23.5473 12.5853C23.9437 12.7122 24.0389 12.8233 24.2768 13.3783C25.5926 16.3915 26.2114 18.0404 27.0515 20.1974L27.4488 18.9762Z" fill="#F27224"/>
</g>
<defs>
<clipPath id="clip0_6027_2501">
<rect width="32" height="15.1808" fill="white" transform="translate(0 8)"/>
</clipPath>
</defs>
</svg>
