<svg width="32" height="33" viewBox="0 0 32 33" fill="none" xmlns="http://www.w3.org/2000/svg">
<g clip-path="url(#clip0_6026_3913)">
<path d="M7.344 0.5H24.656C28.7253 0.5 32 3.77467 32 7.844V25.156C32 29.2253 28.7253 32.5 24.656 32.5H7.344C3.27467 32.5 0 29.2253 0 25.156V7.844C0 3.77467 3.27467 0.5 7.344 0.5Z" fill="url(#paint0_linear_6026_3913)"/>
<path d="M4.87988 12.6228V20.4148C4.87988 22.1161 6.26122 23.4921 7.95722 23.4921H17.3332C19.0345 23.4921 20.4105 22.1108 20.4105 20.4148V12.6228C20.4105 10.9214 19.0292 9.54543 17.3332 9.54543H7.96255C6.26122 9.54009 4.87988 10.9214 4.87988 12.6228ZM25.1092 10.5374L21.5785 13.4494C21.2639 13.7108 21.0825 14.0948 21.0825 14.5001V18.5321C21.0825 18.9374 21.2585 19.3161 21.5679 19.5774L25.0985 22.5428C25.9039 23.2148 27.1252 22.6441 27.1252 21.5988V11.4868C27.1305 10.4468 25.9145 9.87076 25.1092 10.5374Z" fill="white"/>
</g>
<defs>
<linearGradient id="paint0_linear_6026_3913" x1="15.9067" y1="1.16821" x2="16.0976" y2="32.5366" gradientUnits="userSpaceOnUse">
<stop stop-color="#5DF777"/>
<stop offset="1" stop-color="#0ABC28"/>
</linearGradient>
<clipPath id="clip0_6026_3913">
<rect width="32" height="32" fill="white" transform="translate(0 0.5)"/>
</clipPath>
</defs>
</svg>
