<svg width="32" height="32" viewBox="0 0 32 32" fill="none" xmlns="http://www.w3.org/2000/svg">
<path d="M32 16C32 7.16344 24.8366 0 16 0C7.16344 0 0 7.16344 0 16C0 24.8366 7.16344 32 16 32C24.8366 32 32 24.8366 32 16Z" fill="black"/>
<path d="M15.9834 16.0002C15.9834 14.5274 17.1773 13.3335 18.6501 13.3335C20.1228 13.3335 21.3167 14.5274 21.3167 16.0002C21.3167 17.4729 20.1228 18.6668 18.6501 18.6668C17.1773 18.6668 15.9834 17.4729 15.9834 16.0002Z" fill="#1ABCFE"/>
<path d="M10.6504 21.3332C10.6504 19.8604 11.8443 18.6665 13.3171 18.6665H15.9837V21.3332C15.9837 22.8059 14.7898 23.9998 13.3171 23.9998C11.8443 23.9998 10.6504 22.8059 10.6504 21.3332Z" fill="#0ACF83"/>
<path d="M15.9834 8V13.3333H18.6501C20.1228 13.3333 21.3167 12.1394 21.3167 10.6667C21.3167 9.19391 20.1228 8 18.6501 8H15.9834Z" fill="#FF7262"/>
<path d="M10.6504 10.6667C10.6504 12.1394 11.8443 13.3333 13.3171 13.3333H15.9837V8H13.3171C11.8443 8 10.6504 9.19391 10.6504 10.6667Z" fill="#F24E1E"/>
<path d="M10.6504 16.0002C10.6504 17.4729 11.8443 18.6668 13.3171 18.6668H15.9837V13.3335H13.3171C11.8443 13.3335 10.6504 14.5274 10.6504 16.0002Z" fill="#A259FF"/>
</svg>
