<svg width="43" height="43" viewBox="0 0 43 43" fill="none" xmlns="http://www.w3.org/2000/svg">
<circle cx="21.5" cy="21.5" r="21.5" fill="#F5F5F5"/>
<path d="M28.9452 16.1511L25.1787 12.5877C24.7781 12.2087 24.2537 12 23.7022 12H16.5312C15.3466 12 14.3828 12.9638 14.3828 14.1484V29.8516C14.3828 31.0362 15.3466 32 16.5312 32H27.4688C28.6534 32 29.6172 31.0362 29.6172 29.8516V17.7118C29.6172 17.1239 29.3723 16.5551 28.9452 16.1511ZM27.8071 16.6875H24.8906C24.7829 16.6875 24.6953 16.5999 24.6953 16.4922V13.7436L27.8071 16.6875ZM27.4688 30.8281H16.5312C15.9928 30.8281 15.5547 30.39 15.5547 29.8516V14.1484C15.5547 13.61 15.9928 13.1719 16.5312 13.1719H23.5234V16.4922C23.5234 17.2461 24.1368 17.8594 24.8906 17.8594H28.4453V29.8516C28.4453 30.39 28.0072 30.8281 27.4688 30.8281Z" fill="black"/>
<path d="M26.1797 19.8125H17.5859C17.2623 19.8125 17 20.0748 17 20.3984C17 20.722 17.2623 20.9844 17.5859 20.9844H26.1797C26.5033 20.9844 26.7656 20.722 26.7656 20.3984C26.7656 20.0748 26.5033 19.8125 26.1797 19.8125Z" fill="black"/>
<path d="M26.1797 22.9375H17.5859C17.2623 22.9375 17 23.1998 17 23.5234C17 23.847 17.2623 24.1094 17.5859 24.1094H26.1797C26.5033 24.1094 26.7656 23.847 26.7656 23.5234C26.7656 23.1998 26.5033 22.9375 26.1797 22.9375Z" fill="black"/>
<path d="M20.4266 26.0625H17.5859C17.2623 26.0625 17 26.3248 17 26.6484C17 26.972 17.2623 27.2344 17.5859 27.2344H20.4266C20.7502 27.2344 21.0125 26.972 21.0125 26.6484C21.0125 26.3248 20.7502 26.0625 20.4266 26.0625Z" fill="black"/>
</svg>
