<svg width="35" height="35" viewBox="0 0 35 35" fill="none" xmlns="http://www.w3.org/2000/svg">
<path d="M2.91675 17.4998C2.91675 10.6252 2.91675 7.18786 5.05243 5.05219C7.1881 2.9165 10.6254 2.9165 17.5001 2.9165C24.3747 2.9165 27.8121 2.9165 29.9477 5.05219C32.0834 7.18786 32.0834 10.6252 32.0834 17.4998C32.0834 24.3744 32.0834 27.8119 29.9477 29.9474C27.8121 32.0832 24.3747 32.0832 17.5001 32.0832C10.6254 32.0832 7.1881 32.0832 5.05243 29.9474C2.91675 27.8119 2.91675 24.3744 2.91675 17.4998Z" stroke="black" stroke-width="2"/>
<path d="M23.3334 14.5833C24.9442 14.5833 26.2501 13.2775 26.2501 11.6667C26.2501 10.0558 24.9442 8.75 23.3334 8.75C21.7226 8.75 20.4167 10.0558 20.4167 11.6667C20.4167 13.2775 21.7226 14.5833 23.3334 14.5833Z" stroke="black" stroke-width="2"/>
<path d="M2.91675 18.2294L5.47115 15.9944C6.80009 14.8317 8.80299 14.8983 10.0516 16.1469L16.3075 22.4028C17.3096 23.4051 18.8872 23.5417 20.0469 22.7267L20.4818 22.4211C22.1504 21.2483 24.4081 21.3843 25.9241 22.7487L30.6251 26.9794" stroke="black" stroke-width="2" stroke-linecap="round"/>
</svg>
