<svg width="32" height="32" viewBox="0 0 32 32" fill="none" xmlns="http://www.w3.org/2000/svg">
<g clip-path="url(#clip0_6027_2506)">
<path d="M31.9499 14.7177C31.9865 15.587 31.8833 16.4529 31.6434 17.2889C31.407 18.1249 31.034 18.9142 30.541 19.6303C30.0513 20.3469 29.4484 20.979 28.7558 21.5021L28.7392 21.5154L22.0814 26.5046L18.8074 28.9859L16.8124 30.4913C16.6958 30.5813 16.5659 30.6479 16.4294 30.6945C16.2928 30.7411 16.1463 30.7644 15.9997 30.7644C15.8565 30.7644 15.71 30.7411 15.5734 30.6945C15.4369 30.6479 15.307 30.5813 15.1904 30.4913L13.1954 28.9859L9.92143 26.5046L3.30357 21.5454L3.2636 21.5188L3.25028 21.5054C2.55419 20.9825 1.95136 20.3497 1.45843 19.6336C0.965506 18.9176 0.592481 18.1249 0.352679 17.2889C0.112878 16.4529 0.00963008 15.5837 0.0462664 14.7144C0.0862333 13.8451 0.262754 12.9892 0.572498 12.1765L0.615795 12.0599L4.96886 0.719307C4.99106 0.663798 5.01771 0.610508 5.04879 0.55944C5.07766 0.508371 5.11207 0.460632 5.15204 0.416225C5.18979 0.369597 5.23086 0.326299 5.27527 0.286332C5.31968 0.248586 5.36631 0.21306 5.41516 0.179754C5.5184 0.116473 5.62498 0.0698448 5.74155 0.0432002C5.85479 0.013225 5.97469 -9.73023e-05 6.09126 0.00656385C6.21116 0.013225 6.32773 0.036539 6.43764 0.0798365C6.54755 0.119803 6.65413 0.179754 6.74739 0.253027C6.79179 0.290773 6.83509 0.33074 6.87728 0.372927C6.91725 0.417335 6.95277 0.465073 6.98386 0.516142C7.01716 0.56499 7.04603 0.61717 7.07045 0.672679C7.09488 0.725968 7.11486 0.781478 7.1304 0.839208L10.0646 9.82177H21.9415L24.8757 0.839208C24.8913 0.781478 24.9124 0.725968 24.939 0.672679C24.9634 0.61939 24.9923 0.567211 25.0256 0.516142C25.0567 0.467294 25.0922 0.420666 25.1322 0.376258C25.1721 0.33185 25.2154 0.290773 25.2621 0.253027C25.3553 0.179754 25.4586 0.123134 25.5685 0.0798365C25.6817 0.0398696 25.7983 0.0165556 25.9149 0.00989443C26.0348 0.00323327 26.1513 0.013225 26.2679 0.0432002C26.3811 0.0731754 26.491 0.119803 26.591 0.183084C26.642 0.21417 26.6898 0.249696 26.7342 0.289663C26.7786 0.327409 26.8197 0.369597 26.8574 0.416225C26.8952 0.462853 26.9296 0.511701 26.9607 0.56277C26.9895 0.613839 27.0151 0.667128 27.0373 0.722638L31.3837 12.0666L31.427 12.1832C31.7367 12.9925 31.9132 13.8484 31.9499 14.7177Z" fill="#E24329"/>
<path d="M31.9535 14.7214C31.9901 15.5873 31.8869 16.4566 31.647 17.2926C31.4072 18.1285 31.0342 18.9212 30.5413 19.6373C30.0484 20.3534 29.4455 20.9862 28.7528 21.5091L28.7361 21.5224L22.0783 26.5116C22.0783 26.5116 19.2506 24.3767 16 21.9154L25.5421 14.6947C25.9717 14.3717 26.4214 14.0752 26.8843 13.8021C27.3473 13.5257 27.8269 13.2792 28.3165 13.0594C28.8094 12.8396 29.3123 12.6431 29.8219 12.4799C30.3348 12.3134 30.8544 12.1768 31.3839 12.0669L31.4272 12.1835C31.737 12.9961 31.9135 13.8521 31.9535 14.7214Z" fill="#FC6D26"/>
<path d="M16.0002 21.915C19.2508 24.3697 22.0818 26.5112 22.0818 26.5112L18.8079 28.9925L16.8128 30.4979C16.6963 30.5879 16.5664 30.6545 16.4298 30.7011C16.2933 30.7477 16.1467 30.771 16.0002 30.771C15.857 30.771 15.7104 30.7477 15.5739 30.7011C15.4373 30.6545 15.3074 30.5879 15.1908 30.4979L13.1958 28.9925L9.92188 26.5112C9.92188 26.5112 12.7495 24.3697 16.0002 21.915Z" fill="#FCA326"/>
<path d="M15.9997 21.9086C12.7458 24.3699 9.92143 26.5048 9.92143 26.5048L3.30357 21.5455L3.2636 21.5189L3.25028 21.5056C2.55419 20.9827 1.95136 20.3499 1.45843 19.6338C0.965506 18.9177 0.592481 18.125 0.352679 17.2891C0.112878 16.4531 0.00963008 15.5838 0.0462664 14.7145C0.0862333 13.8452 0.262754 12.9893 0.572498 12.1766L0.615795 12.0601C1.14536 12.17 1.66493 12.3065 2.17784 12.473C2.68741 12.6396 3.19033 12.8328 3.68326 13.0559C4.17285 13.2757 4.65245 13.5255 5.1154 13.7986C5.57835 14.0717 6.02465 14.3715 6.45763 14.6945L15.9997 21.9086Z" fill="#FC6D26"/>
</g>
<defs>
<clipPath id="clip0_6027_2506">
<rect width="32" height="30.7712" fill="white"/>
</clipPath>
</defs>
</svg>
