<svg width="32" height="32" viewBox="0 0 32 32" fill="none" xmlns="http://www.w3.org/2000/svg">
<rect width="32" height="32" rx="16" fill="white"/>
<path d="M27.2496 11.8252L21.8809 15.8274V24.5638H25.639C26.5175 24.5638 27.2496 23.8561 27.2496 22.9532V11.8252Z" fill="#4CAF50"/>
<path d="M4.75 11.8252L10.0944 15.8518V24.5882H6.36063C5.4821 24.5882 4.75 23.8805 4.75 22.9776V11.8252Z" fill="#1E88E5"/>
<path d="M21.8816 9.14062L16.0004 13.5576L10.1191 9.14062V15.8272L16.0004 20.2442L21.8816 15.8272V9.14062Z" fill="#E53935"/>
<path d="M4.75 9.72654V11.8252L10.0944 15.8518V9.14086L8.43492 7.89628C8.04447 7.60344 7.5564 7.43262 7.04392 7.43262C5.77494 7.43262 4.75 8.45756 4.75 9.72654Z" fill="#C62828"/>
<path d="M27.2496 9.72654V11.8252L21.8809 15.8274V9.14086L23.5647 7.89628C23.9552 7.60344 24.4432 7.43262 24.9557 7.43262C26.2247 7.43262 27.2496 8.45756 27.2496 9.72654Z" fill="#5436EB"/>
</svg>
