<svg width="32" height="32" viewBox="0 0 32 32" fill="none" xmlns="http://www.w3.org/2000/svg">
<path d="M27.4356 13.2178C27.4356 5.91963 21.5136 0 14.2178 0C6.92201 0 1 5.91963 1 13.2178C1 20.132 7.306 25.7392 14.2178 25.7392V30.6094C22.2458 26.5358 27.4356 19.9817 27.4356 13.2178Z" fill="#00897B"/>
<path d="M22.3925 8.43604L20.6586 13.218H11.0899L7.25 17.926L21.324 32.0001H30.7401V16.7836L22.3925 8.43604Z" fill="url(#paint0_linear_6027_2514)"/>
<path opacity="0.2" d="M14.2178 25.5648C7.33224 25.5648 1.05247 20.0029 1.00239 13.1245C1.00239 13.1555 1 13.1865 1 13.2175C1 20.1317 7.306 25.7389 14.2178 25.7389V25.5648ZM14.2178 30.435V30.6091C22.2458 26.5355 27.4356 19.9815 27.4356 13.2175C27.4356 13.1889 27.4332 13.1603 27.4332 13.1341C27.3879 19.8646 22.21 26.3805 14.2178 30.435ZM17.1752 18.4336H8.47944C8.03344 18.4336 7.58982 18.2642 7.24876 17.9232C6.9077 17.5821 6.73837 17.1385 6.73837 16.6925V16.8666C6.73837 17.3126 6.9077 17.7562 7.24876 18.0973C7.58982 18.4383 8.03344 18.6077 8.47944 18.6077H17.1752C17.6212 18.6077 18.0648 18.4383 18.4059 18.0973C18.5678 17.9358 18.6962 17.744 18.7837 17.5328C18.8713 17.3216 18.9164 17.0952 18.9163 16.8666V16.6925C18.9163 17.1385 18.747 17.5821 18.4059 17.9232C18.0648 18.2642 17.6188 18.4336 17.1752 18.4336ZM18.9139 14.6962L22.3913 18.1736V17.9995L18.9139 14.5221V14.6962Z" fill="#263238"/>
<path d="M18.9138 11.9133V9.74058C18.9138 9.29458 18.7445 8.85097 18.4034 8.50991C18.242 8.34805 18.0501 8.21965 17.839 8.13206C17.6278 8.04448 17.4014 7.99943 17.1728 7.99951H8.47935C8.03335 7.99951 7.58973 8.16885 7.24868 8.50991C7.08682 8.67137 6.95842 8.86319 6.87083 9.07438C6.78325 9.28556 6.7382 9.51195 6.73828 9.74058V16.6977C6.73828 17.1437 6.90762 17.5873 7.24868 17.9284C7.58973 18.2694 8.03335 18.4388 8.47935 18.4388H17.1751C17.6211 18.4388 18.0648 18.2694 18.4058 17.9284C18.5677 17.7669 18.6961 17.5751 18.7837 17.3639C18.8712 17.1527 18.9163 16.9263 18.9162 16.6977V14.5249L22.3936 18.0023V8.43597L18.9138 11.9133Z" fill="#F5F5F5"/>
<path d="M6.74122 9.74058V13.2179H22.3917V8.43597L18.9144 11.9133V9.74058C18.9144 9.29458 18.745 8.85097 18.404 8.50991C18.2425 8.34805 18.0507 8.21965 17.8395 8.13206C17.6283 8.04448 17.4019 7.99943 17.1733 7.99951H8.4799C8.0339 7.99951 7.59028 8.16885 7.24922 8.50991C7.08769 8.67149 6.95966 8.86339 6.87248 9.07458C6.7853 9.28577 6.74069 9.5121 6.74122 9.74058Z" fill="#E0E0E0"/>
<path d="M6.74121 13.0439H22.3917V13.2181H6.74121V13.0439Z" fill="#212121" fill-opacity="0.02"/>
<path d="M27.4356 13.2178C27.4356 5.91963 21.5136 0 14.2178 0C6.92201 0 1 5.91963 1 13.2178C1 20.132 7.306 25.7392 14.2178 25.7392V30.6094C22.2458 26.5358 27.4356 19.9817 27.4356 13.2178Z" fill="url(#paint1_radial_6027_2514)"/>
<defs>
<linearGradient id="paint0_linear_6027_2514" x1="14.0752" y1="12.4343" x2="25.5093" y2="23.8683" gradientUnits="userSpaceOnUse">
<stop stop-color="#263238" stop-opacity="0.2"/>
<stop offset="1" stop-color="#263238" stop-opacity="0.02"/>
</linearGradient>
<radialGradient id="paint1_radial_6027_2514" cx="0" cy="0" r="1" gradientUnits="userSpaceOnUse" gradientTransform="translate(4.76881 3.79767) scale(26.9887)">
<stop stop-color="white" stop-opacity="0.1"/>
<stop offset="1" stop-color="white" stop-opacity="0"/>
</radialGradient>
</defs>
</svg>
