<svg width="32" height="32" viewBox="0 0 32 32" fill="none" xmlns="http://www.w3.org/2000/svg">
<g clip-path="url(#clip0_6027_2653)">
<path d="M21.8712 20.9878H10.1637L5.15039 29.7448C5.7535 30.0515 6.43839 30.2481 6.88135 30.2481C11.4868 30.2481 20.8858 30.18 25.5516 30.18C26.0313 30.18 26.4804 30.0164 26.8832 29.7602L21.8712 20.9878Z" fill="#4185F3"/>
<path d="M5.1505 29.7448L10.1638 20.9878H0.00497143C-0.000139687 21.5964 0.216231 22.1531 0.555268 22.7883C1.4998 24.5553 3.09788 27.3801 4.03662 28.8555C4.26798 29.2191 5.18662 29.7632 5.1505 29.7448Z" fill="#1767D1"/>
<path d="M21.8711 20.9875L26.8848 29.7585C27.5345 29.3455 28.0641 28.6913 28.4079 28.0889C29.1841 26.7303 30.4966 24.4682 31.402 22.9365C31.8228 22.2244 31.9863 21.5848 31.9761 20.9868L21.8711 20.9875Z" fill="#E94235"/>
<path d="M10.1652 20.9882L16.013 10.8218L10.7867 2.1084C10.2214 2.48015 9.73793 2.98478 9.5185 3.36914C7.23724 7.37012 2.64166 15.57 0.330758 19.6228C0.0939627 20.0375 -0.0194109 20.5112 0.00398705 20.9882H10.1652Z" fill="#30A753"/>
<path d="M21.8711 20.9885L16.0127 10.8222L21.0955 2.11865C21.6608 2.49074 22.2813 2.98516 22.5007 3.36985C24.782 7.37049 29.3776 15.5704 31.6895 19.6232C31.928 20.0399 31.9999 20.5115 31.9767 20.9885H21.8711Z" fill="#F9BC00"/>
<path d="M10.7861 2.10973L16.0131 10.8218L21.0959 2.11825C20.5712 1.81158 19.828 1.62996 19.1084 1.60713C17.1062 1.54035 13.8603 1.51343 12.1133 1.58942C11.6826 1.60816 10.7916 2.10598 10.7861 2.10973Z" fill="#0F8038"/>
</g>
<defs>
<clipPath id="clip0_6027_2653">
<rect width="32" height="28.7616" fill="white" transform="translate(0 1.5)"/>
</clipPath>
</defs>
</svg>
