<svg width="33" height="32" viewBox="0 0 33 32" fill="none" xmlns="http://www.w3.org/2000/svg">
<g clip-path="url(#clip0_6027_2528)">
<path d="M29.2385 9.0127H3.45683C2.84425 9.0127 2.34766 9.50929 2.34766 10.1219V28.8401C2.34766 29.4526 2.84425 29.9492 3.45683 29.9492H29.2385C29.8511 29.9492 30.3477 29.4526 30.3477 28.8401V10.1219C30.3477 9.50929 29.8511 9.0127 29.2385 9.0127Z" fill="#4989F5"/>
<path d="M28.9149 8.85547H3.74945C2.9699 8.85547 2.36328 14.8886 2.36328 15.6681L16.1446 29.9493H28.9149C29.6968 29.9472 30.3302 29.3138 30.3323 28.5319V10.2726C30.33 9.49078 29.6967 8.8576 28.9149 8.85547Z" fill="url(#paint0_linear_6027_2528)"/>
<path d="M8.74121 12.5189H16.7412V2.01904H9.93911L8.74121 12.5189Z" fill="#3C4BA6"/>
<path d="M24.7412 12.5189H16.7412V2.01904H23.5433L24.7412 12.5189ZM30.3478 4.00942L30.3578 4.04521C30.3553 4.03258 30.3505 4.02085 30.3478 4.00942Z" fill="#7BABF7"/>
<path d="M30.3574 4.04472L30.3475 4.00893C30.0939 2.84752 29.0659 2.01931 27.8771 2.01855H23.543L24.74 12.5187H32.74L30.3574 4.04472Z" fill="#3F51B5"/>
<path d="M3.13492 4.00928L3.125 4.04507C3.12741 4.03244 3.13222 4.02071 3.13492 4.00928Z" fill="#7BABF7"/>
<path d="M3.12429 4.04472L3.13422 4.00893C3.38784 2.84752 4.41581 2.01931 5.6046 2.01855H9.93903L8.74024 12.5187H0.740234L3.12429 4.04472Z" fill="#7BABF7"/>
<path fill-rule="evenodd" clip-rule="evenodd" d="M8.75428 12.5161C8.75428 14.724 6.96441 16.5139 4.75653 16.5139C2.54865 16.5139 0.758789 14.724 0.758789 12.5161H8.75428Z" fill="#709BE0"/>
<path fill-rule="evenodd" clip-rule="evenodd" d="M16.7504 12.5161C16.7504 14.724 14.9605 16.5139 12.7526 16.5139C10.5447 16.5139 8.75488 14.724 8.75488 12.5161H16.7504Z" fill="#3C4BA6"/>
<path fill-rule="evenodd" clip-rule="evenodd" d="M24.7455 12.5161C24.7455 14.724 22.9556 16.5139 20.7477 16.5139C18.5399 16.5139 16.75 14.724 16.75 12.5161H24.7455Z" fill="#709BE0"/>
<path fill-rule="evenodd" clip-rule="evenodd" d="M32.7406 12.5161C32.7406 14.724 30.9507 16.5139 28.7429 16.5139C26.535 16.5139 24.7451 14.724 24.7451 12.5161H32.7406Z" fill="#3C4BA6"/>
<path d="M28.7422 23.3472C28.7281 23.1568 28.7046 22.983 28.6712 22.761H24.3103C24.3103 23.371 24.3103 24.0365 24.3079 24.6468H26.8342C26.7806 24.9311 26.6712 25.2021 26.5125 25.4441C26.3538 25.6862 26.1488 25.8944 25.9094 26.057C25.9094 26.057 25.9094 26.0465 25.9076 26.0462C25.5984 26.2492 25.25 26.3851 24.885 26.4453C24.5191 26.5122 24.1439 26.5106 23.7786 26.4404C23.4076 26.3637 23.0564 26.2114 22.7467 25.9932C22.2896 25.6691 21.937 25.2186 21.7323 24.697C21.7166 24.6564 21.7022 24.6155 21.6875 24.574V24.5695L21.6914 24.5665C21.4926 23.9831 21.4921 23.3504 21.6899 22.7668C21.8292 22.3573 22.0584 21.9843 22.3608 21.675C23.0702 20.9412 24.1301 20.6652 25.1073 20.9598C25.482 21.0748 25.8244 21.2763 26.1067 21.5481L26.959 20.6958C27.1094 20.5439 27.2655 20.3968 27.4102 20.2398C26.978 19.8367 26.4707 19.5226 25.9172 19.3153C24.91 18.9501 23.808 18.9404 22.7945 19.288C22.7592 19.3 22.7241 19.3125 22.6893 19.3256C21.5958 19.7366 20.6963 20.5428 20.1684 21.5848C19.9819 21.9536 19.8462 22.346 19.7647 22.7511C19.282 25.1503 20.7459 27.5118 23.1094 28.1466C23.882 28.3535 24.7034 28.3484 25.482 28.1716C26.1895 28.0118 26.8436 27.6719 27.381 27.1848C27.9416 26.669 28.3434 25.9818 28.5539 25.2519C28.7299 24.6333 28.7937 23.9882 28.7422 23.3472Z" fill="white"/>
</g>
<defs>
<linearGradient id="paint0_linear_6027_2528" x1="2.36328" y1="9803.48" x2="29761.1" y2="9803.48" gradientUnits="userSpaceOnUse">
<stop offset="0.03" stop-color="#4079D8"/>
<stop offset="1" stop-color="#4989F5"/>
</linearGradient>
<clipPath id="clip0_6027_2528">
<rect width="32" height="27.968" fill="white" transform="translate(0.740234 2)"/>
</clipPath>
</defs>
</svg>
