<svg width="24" height="24" viewBox="0 0 24 24" fill="none" xmlns="http://www.w3.org/2000/svg">
<path d="M3.96 10C2.868 10 2 10.812 2 11.904C2 12.996 2.868 13.78 3.96 13.78C5.052 13.78 5.948 12.996 5.948 11.904C5.948 10.812 5.052 10 3.96 10Z" fill="#2D3031"/>
<path d="M12.3975 10C11.3055 10 10.4375 10.812 10.4375 11.904C10.4375 12.996 11.3055 13.78 12.3975 13.78C13.4895 13.78 14.3855 12.996 14.3855 11.904C14.3855 10.812 13.4895 10 12.3975 10Z" fill="#2D3031"/>
<path d="M20.835 10C19.743 10 18.875 10.812 18.875 11.904C18.875 12.996 19.743 13.78 20.835 13.78C21.927 13.78 22.823 12.996 22.823 11.904C22.823 10.812 21.927 10 20.835 10Z" fill="#2D3031"/>
</svg>
