<svg width="32" height="32" viewBox="0 0 32 32" fill="none" xmlns="http://www.w3.org/2000/svg">
<path d="M17.9054 19.6836L16.133 17.9261C15.2778 17.0779 14.8502 16.6539 14.3595 16.4989C13.9279 16.3625 13.464 16.3675 13.0355 16.5132C12.5482 16.6788 12.1299 17.112 11.2932 17.9784L7.04685 22.1726M17.9054 19.6836L18.2681 19.3239C19.1244 18.4748 19.5525 18.0502 20.0438 17.8952C20.4758 17.7589 20.94 17.7643 21.3688 17.9105C21.8563 18.0767 22.2746 18.511 23.1111 19.3796L24 20.2742M17.9054 19.6836L22.1672 23.9538M7.04685 22.1726C7.07981 22.4404 7.13596 22.652 7.23161 22.8398C7.43534 23.2396 7.76042 23.5647 8.16027 23.7684C8.61483 24 9.20988 24 10.4 24H20.6C21.2952 24 21.7874 24 22.1672 23.9538M7.04685 22.1726C7 21.7922 7 21.2986 7 20.6V10.4C7 9.20989 7 8.61483 7.23161 8.16027C7.43534 7.76042 7.76042 7.43534 8.16027 7.23161C8.61483 7 9.20988 7 10.4 7H20.6C21.7901 7 22.3852 7 22.8398 7.23161C23.2396 7.43534 23.5647 7.76042 23.7684 8.16027C24 8.61483 24 9.20989 24 10.4V20.2742M24 20.2742V20.6C24 21.7901 24 22.3852 23.7684 22.8398C23.5647 23.2396 23.2396 23.5647 22.8398 23.7684C22.6507 23.8647 22.4374 23.9209 22.1672 23.9538M20.8125 12.3124C20.8125 13.486 19.8611 14.4374 18.6875 14.4374C17.5139 14.4374 16.5625 13.486 16.5625 12.3124C16.5625 11.1388 17.5139 10.1874 18.6875 10.1874C19.8611 10.1874 20.8125 11.1388 20.8125 12.3124Z" stroke="black" stroke-width="2" stroke-linecap="round" stroke-linejoin="round"/>
</svg>
