<svg width="33" height="32" viewBox="0 0 33 32" fill="none" xmlns="http://www.w3.org/2000/svg">
<g clip-path="url(#clip0_6027_2570)">
<path d="M30.8956 15.8306C31.9131 15.8306 32.7376 16.6516 32.7376 17.6645C32.7376 18.6772 31.9131 19.4982 30.8956 19.4982C29.8781 19.4982 29.0537 18.6772 29.0537 17.6645C29.0536 16.6518 29.878 15.8306 30.8956 15.8306Z" fill="#3DB4E7"/>
<path d="M16.0667 22.3478L12.7285 22.3477L12.7321 14.0444L16.0663 14.0561L16.0667 22.3478Z" fill="#82BC23"/>
<path d="M14.3987 20.6513C15.3093 20.6513 16.0473 21.401 16.0473 22.3257C16.0473 23.2503 15.3092 24 14.3987 24C13.4882 24 12.7497 23.2503 12.7497 22.3257C12.7497 21.401 13.4881 20.6513 14.3987 20.6513ZM14.3987 12.331C15.3093 12.331 16.0473 13.0807 16.0473 14.0057C16.0473 14.9307 15.3092 15.6803 14.3987 15.6803C13.4882 15.6803 12.7497 14.9305 12.7497 14.0057C12.7497 13.0807 13.4881 12.331 14.3987 12.331ZM2.40853 20.6926C3.30896 20.6926 4.03874 21.4327 4.03874 22.3457C4.03874 23.2584 3.30907 23.9986 2.40853 23.9986C1.5081 23.9986 0.77832 23.2584 0.77832 22.3457C0.77832 21.4327 1.5081 20.6926 2.40853 20.6926ZM2.41573 8C3.3197 8 4.05245 8.74818 4.05245 9.67135C4.05245 10.5944 3.3197 11.3427 2.41573 11.3427C1.51187 11.3427 0.778892 10.5944 0.778892 9.67135C0.778892 8.74818 1.51187 8 2.41573 8Z" fill="#82BC23"/>
<path d="M0.742416 9.729L4.06993 9.76432L4.0865 15.8935L7.16678 12.8811L9.6237 15.1719L7.4563 17.3062L10.4854 21.3896L7.7841 23.3499L4.898 19.4921L4.05758 20.2716L4.05747 22.4406L0.742188 22.3112L0.742416 9.729Z" fill="#82BC23"/>
<path d="M8.40215 12.3319C9.32166 12.3319 10.067 13.0798 10.067 14.0025C10.067 14.9251 9.32166 15.6733 8.40215 15.6733C7.48286 15.6733 6.7373 14.9251 6.7373 14.0025C6.7373 13.0799 7.48286 12.3319 8.40215 12.3319ZM9.07489 20.6422C9.98881 20.6422 10.7297 21.3937 10.7297 22.3206C10.7297 23.2472 9.98892 23.9989 9.07489 23.9989C8.16086 23.9989 7.41988 23.2475 7.41988 22.3206C7.41988 21.3937 8.16086 20.6422 9.07489 20.6422ZM20.0653 20.6926C20.9657 20.6926 21.6954 21.4327 21.6954 22.3457C21.6954 23.2584 20.9657 23.9986 20.0653 23.9986C19.1645 23.9986 18.435 23.2584 18.435 22.3457C18.435 21.4327 19.1647 20.6926 20.0653 20.6926ZM20.0724 8C20.9762 8 21.7091 8.74818 21.7091 9.67135C21.7091 10.5944 20.9765 11.3427 20.0724 11.3427C19.1685 11.3427 18.4356 10.5944 18.4356 9.67135C18.4356 8.74818 19.1685 8 20.0724 8Z" fill="#82BC23"/>
<path d="M18.3996 9.729L21.7272 9.76432L21.7436 15.8935L24.8241 12.8811L27.2808 15.1719L25.1136 17.3062L28.1427 21.3896L25.4413 23.3499L22.5553 19.4921L21.7149 20.2716L21.7148 22.4406L18.3994 22.3112L18.3996 9.729Z" fill="#82BC23"/>
<path d="M26.0594 12.332C26.9789 12.332 27.7242 13.0799 27.7242 14.0026C27.7242 14.9252 26.9789 15.6734 26.0594 15.6734C25.1401 15.6734 24.3945 14.9252 24.3945 14.0026C24.3948 13.08 25.1402 12.332 26.0594 12.332ZM26.7322 20.6423C27.6461 20.6423 28.3869 21.3938 28.3869 22.3207C28.3869 23.2473 27.6463 23.9989 26.7322 23.9989C25.8182 23.9989 25.0772 23.2476 25.0772 22.3207C25.0771 21.3938 25.8182 20.6423 26.7322 20.6423Z" fill="#82BC23"/>
</g>
<defs>
<clipPath id="clip0_6027_2570">
<rect width="32" height="16" fill="white" transform="translate(0.740234 8)"/>
</clipPath>
</defs>
</svg>
