<svg width="32" height="32" viewBox="0 0 32 32" fill="none" xmlns="http://www.w3.org/2000/svg">
<g clip-path="url(#clip0_5954_22454)">
<path d="M25.0666 32H6.93337C3.10425 32 0 28.8958 0 25.0666V6.93337C0 3.10425 3.10425 0 6.93337 0H25.0667C28.8958 0 32 3.10425 32 6.93337V25.0667C32 28.8958 28.8958 32 25.0666 32Z" fill="#00B900"/>
<path d="M27.5994 14.5932C27.5994 9.37981 22.3731 5.13818 15.9485 5.13818C9.52348 5.13818 4.29785 9.37981 4.29785 14.5932C4.29785 19.2669 8.4426 23.1812 14.0416 23.9212C14.4211 24.0031 14.9374 24.1716 15.0679 24.4958C15.1854 24.7902 15.1446 25.2518 15.1054 25.5496L14.9391 26.5471C14.8882 26.8414 14.7047 27.6991 15.9482 27.1751C17.1917 26.6511 22.6582 23.2242 25.1024 20.4106H25.1019C26.7903 18.5591 27.5994 16.6799 27.5994 14.5934" fill="white"/>
<path d="M13.5805 12.0746H12.763C12.6376 12.0746 12.5361 12.1762 12.5361 12.3012V17.3777C12.5361 17.5025 12.6378 17.6027 12.763 17.6027H13.5805C13.7059 17.6027 13.8074 17.5027 13.8074 17.3777V12.3C13.8074 12.175 13.7058 12.0734 13.5805 12.0734M19.2055 12.0746H18.3871C18.2615 12.0746 18.1603 12.1762 18.1603 12.3012V15.3172L15.8336 12.1754C15.8283 12.1674 15.8221 12.1596 15.8161 12.1525L15.8149 12.1509L15.797 12.133L15.7848 12.123C15.7829 12.1214 15.781 12.1197 15.7789 12.1185L15.7671 12.1105C15.765 12.1089 15.7626 12.108 15.7603 12.1065L15.7483 12.0996L15.741 12.0961L15.7279 12.0905L15.7206 12.088C15.7162 12.0862 15.7116 12.0847 15.7069 12.0835L15.6989 12.0814L15.6861 12.0789C15.6829 12.0781 15.6795 12.0776 15.6765 12.0776C15.6725 12.0769 15.6685 12.0764 15.6645 12.076L15.6528 12.0752C15.6499 12.0752 15.6474 12.075 15.6448 12.075H14.8276C14.7023 12.075 14.6008 12.1766 14.6008 12.3016V17.3781C14.6008 17.5029 14.7024 17.6031 14.8276 17.6031H15.6448C15.7704 17.6031 15.872 17.5031 15.872 17.3781V14.3629L18.2011 17.5087C18.2169 17.5307 18.2365 17.5497 18.259 17.5647C18.2595 17.5652 18.2603 17.566 18.2611 17.5666L18.2753 17.5749L18.2815 17.5786C18.2851 17.5805 18.2887 17.5822 18.2924 17.5837L18.3033 17.5885L18.3099 17.591L18.3256 17.5957C18.3264 17.596 18.3278 17.5962 18.3289 17.5965C18.3478 17.6016 18.3674 17.6041 18.387 17.604H19.2041C19.3295 17.604 19.431 17.504 19.431 17.379V12.2999C19.431 12.1749 19.3294 12.0732 19.2041 12.0732" fill="#00B900"/>
<path d="M11.6108 16.3319H9.39014V12.3001C9.39014 12.1748 9.28852 12.0733 9.16352 12.0733H8.34601C8.22064 12.0733 8.11914 12.1749 8.11914 12.3001V17.3751C8.11912 17.4337 8.14189 17.4899 8.18264 17.5319C8.18339 17.5333 8.18441 17.5344 8.18564 17.5354C8.18689 17.5364 8.18814 17.5375 8.18914 17.5386C8.23119 17.5791 8.28727 17.6018 8.34564 17.6019H11.6106C11.736 17.6019 11.8373 17.5 11.8373 17.375V16.5575C11.8373 16.4321 11.7373 16.3306 11.6106 16.3306M23.7186 13.3435C23.844 13.3435 23.9453 13.2419 23.9453 13.1166V12.2991C23.9453 12.1738 23.8453 12.0723 23.7186 12.0723H20.4536C20.3948 12.0722 20.3383 12.0952 20.2963 12.1363C20.2955 12.137 20.2944 12.1379 20.2938 12.1388C20.2931 12.1396 20.2913 12.1413 20.2903 12.1428C20.2528 12.1833 20.2274 12.2383 20.2274 12.299V17.3756C20.2274 17.4364 20.2516 17.4916 20.2909 17.5324L20.2938 17.5356L20.297 17.5386C20.3378 17.5779 20.393 17.6021 20.4538 17.6021H23.7188C23.8441 17.6021 23.9454 17.5005 23.9454 17.3755V16.558C23.9454 16.4326 23.8454 16.3311 23.7188 16.3311H21.4999V15.473H23.7201C23.7499 15.4731 23.7794 15.4672 23.807 15.4558C23.8345 15.4445 23.8595 15.4277 23.8806 15.4067C23.9016 15.3856 23.9183 15.3605 23.9297 15.333C23.941 15.3055 23.9468 15.2759 23.9468 15.2461V14.429C23.9468 14.3036 23.8468 14.2018 23.7201 14.2018H21.4999V13.3439H23.7201L23.7186 13.3435Z" fill="#00B900"/>
</g>
<defs>
<clipPath id="clip0_5954_22454">
<rect width="32" height="32" rx="16" fill="white"/>
</clipPath>
</defs>
</svg>
