<svg width="43" height="43" viewBox="0 0 43 43" fill="none" xmlns="http://www.w3.org/2000/svg">
<circle cx="21.5" cy="21.5" r="21.5" fill="#F5F5F5"/>
<path fill-rule="evenodd" clip-rule="evenodd" d="M21.0237 24.3625C21.1148 24.2713 21.1871 24.1631 21.2365 24.0441C21.2858 23.925 21.3112 23.7974 21.3112 23.6685C21.3112 23.5396 21.2858 23.4119 21.2365 23.2929C21.1871 23.1738 21.1148 23.0656 21.0237 22.9744C20.7676 22.7184 20.5645 22.4144 20.4259 22.0799C20.2874 21.7453 20.216 21.3867 20.216 21.0246C20.216 20.6625 20.2874 20.3039 20.4259 19.9694C20.5645 19.6349 20.7676 19.3309 21.0237 19.0748L24.3288 15.7706C24.5849 15.5146 24.8889 15.3115 25.2234 15.1729C25.558 15.0343 25.9165 14.963 26.2786 14.963C26.6407 14.963 26.9993 15.0343 27.3339 15.1729C27.6684 15.3115 27.9724 15.5146 28.2284 15.7706C28.4845 16.0267 28.6876 16.3307 28.8262 16.6652C28.9648 16.9998 29.0361 17.3583 29.0361 17.7204C29.0361 18.0825 28.9648 18.4411 28.8262 18.7757C28.6876 19.1102 28.4845 19.4142 28.2284 19.6702L27.2068 20.6909C27.1157 20.7821 27.0434 20.8903 26.994 21.0094C26.9447 21.1284 26.9193 21.2561 26.9193 21.385C26.9193 21.5139 26.9447 21.6415 26.994 21.7606C27.0434 21.8796 27.1157 21.9878 27.2068 22.079C27.3909 22.263 27.6405 22.3665 27.9008 22.3665C28.0297 22.3665 28.1573 22.3411 28.2764 22.2917C28.3955 22.2424 28.5037 22.1701 28.5948 22.079L29.6165 21.0583C30.5017 20.173 30.9991 18.9724 30.9991 17.7204C30.9991 16.4685 30.5017 15.2678 29.6165 14.3826C28.7312 13.4973 27.5306 13 26.2786 13C25.0267 13 23.826 13.4973 22.9408 14.3826L19.6357 17.6868C19.1973 18.1251 18.8496 18.6455 18.6123 19.2182C18.3751 19.7909 18.253 20.4047 18.253 21.0246C18.253 21.6445 18.3751 22.2584 18.6123 22.8311C18.8496 23.4038 19.1973 23.9242 19.6357 24.3625C20.0189 24.7457 20.6405 24.7457 21.0237 24.3625ZM22.9399 19.6702C22.8487 19.7614 22.7764 19.8696 22.7271 19.9887C22.6777 20.1077 22.6524 20.2354 22.6524 20.3643C22.6524 20.4932 22.6777 20.6208 22.7271 20.7399C22.7764 20.8589 22.8487 20.9671 22.9399 21.0583C23.1959 21.3143 23.399 21.6183 23.5376 21.9529C23.6762 22.2874 23.7475 22.646 23.7475 23.0081C23.7475 23.3702 23.6762 23.7288 23.5376 24.0633C23.399 24.3979 23.1959 24.7018 22.9399 24.9579L19.6684 28.2294C19.4137 28.4914 19.1094 28.7002 18.7733 28.8437C18.4372 28.9871 18.0759 29.0623 17.7105 29.0649C17.3451 29.0675 16.9828 28.9974 16.6447 28.8587C16.3066 28.72 15.9994 28.5155 15.741 28.2571C15.4827 27.9987 15.2782 27.6914 15.1396 27.3533C15.001 27.0152 14.931 26.6529 14.9337 26.2874C14.9364 25.922 15.0117 25.5608 15.1552 25.2247C15.2987 24.8886 15.5076 24.5844 15.7697 24.3298L16.7278 23.3717C16.9118 23.1876 17.0152 22.938 17.0152 22.6777C17.0152 22.4174 16.9118 22.1677 16.7278 21.9836C16.5437 21.7996 16.2941 21.6962 16.0337 21.6962C15.7734 21.6962 15.5238 21.7996 15.3397 21.9836L14.3826 22.9417C13.4973 23.827 13 25.0276 13 26.2796C13 27.5315 13.4973 28.7322 14.3826 29.6174C15.2678 30.5027 16.4685 31 17.7204 31C18.9724 31 20.173 30.5027 21.0583 29.6174L24.3298 26.3459C24.7681 25.9076 25.1158 25.3872 25.3531 24.8145C25.5903 24.2418 25.7124 23.628 25.7124 23.0081C25.7124 22.3882 25.5903 21.7744 25.3531 21.2016C25.1158 20.6289 24.7681 20.1086 24.3298 19.6702C24.2386 19.5791 24.1304 19.5068 24.0113 19.4575C23.8923 19.4081 23.7646 19.3827 23.6357 19.3827C23.5068 19.3827 23.3792 19.4081 23.2601 19.4575C23.1411 19.5068 23.0329 19.5791 22.9417 19.6702H22.9399Z" fill="black"/>
</svg>
