<svg width="32" height="32" viewBox="0 0 32 32" fill="none" xmlns="http://www.w3.org/2000/svg">
<rect width="32" height="32" rx="16" fill="#0078B5"/>
<path d="M7.77862 13.0085H11.2718V24.2504H7.77862V13.0085ZM9.52655 7.42041C10.6436 7.42041 11.5505 8.32723 11.5505 9.44695C11.5505 10.5667 10.6436 11.4735 9.52655 11.4735C8.40682 11.4735 7.50001 10.5667 7.50001 9.44695C7.49738 8.32986 8.4042 7.42041 9.52655 7.42041Z" fill="white"/>
<path d="M13.4639 13.0083H16.8152V14.5433H16.8625C17.3277 13.6602 18.4658 12.7271 20.1691 12.7271C23.707 12.7271 24.3615 15.0559 24.3615 18.0812V24.2502H20.8682V18.7857C20.8682 17.4793 20.8446 15.805 19.052 15.805C17.2331 15.805 16.9545 17.2243 16.9545 18.691V24.2529H13.4639V13.0083Z" fill="white"/>
</svg>
