<svg width="32" height="33" viewBox="0 0 32 33" fill="none" xmlns="http://www.w3.org/2000/svg">
<g clip-path="url(#clip0_6026_3775)">
<path fill-rule="evenodd" clip-rule="evenodd" d="M31.9498 16.4999C31.9498 7.69711 24.803 0.550293 16.0002 0.550293H15.9994C7.19662 0.550293 0.0498047 7.69711 0.0498047 16.4999C0.0498047 25.3027 7.19662 32.4495 15.9994 32.4495H16.0002C24.803 32.4495 31.9498 25.3027 31.9498 16.4999ZM17.6013 16.5C17.6013 20.4207 14.4446 23.599 10.5507 23.599C6.6568 23.599 3.4998 20.42 3.4998 16.5C3.4998 12.58 6.65655 9.40079 10.5507 9.40079C14.4448 9.40079 17.6013 12.5794 17.6013 16.5ZM25.3361 16.5C25.3361 20.1905 23.7577 23.1834 21.8107 23.1834C19.8636 23.1834 18.2852 20.1905 18.2852 16.5C18.2852 12.8095 19.8634 9.81661 21.8104 9.81661C23.7575 9.81661 25.3359 12.8086 25.3359 16.5H25.3361ZM28.4998 16.5C28.4998 19.8058 27.9447 22.4873 27.2599 22.4873C26.5751 22.4873 26.0202 19.8065 26.0202 16.5C26.0202 13.1935 26.5752 10.5128 27.2599 10.5128C27.9446 10.5128 28.4998 13.1933 28.4998 16.5Z" fill="black"/>
</g>
<defs>
<clipPath id="clip0_6026_3775">
<rect width="32" height="32" fill="white" transform="translate(0 0.5)"/>
</clipPath>
</defs>
</svg>
