<svg width="32" height="33" viewBox="0 0 32 33" fill="none" xmlns="http://www.w3.org/2000/svg">
<path d="M7.02275 25.126C7.08275 25.4366 6.8975 25.7309 6.58688 25.7962C6.29263 25.8561 5.993 25.6709 5.93313 25.3603C5.87319 25.0661 6.05844 24.7555 6.35269 24.69C6.64681 24.6247 6.95731 24.8154 7.02275 25.126Z" fill="#ED1C40"/>
<path d="M14.8196 29.0162C14.4763 29.2669 14.3837 29.7463 14.6179 30.1059C14.8686 30.4655 15.3481 30.5581 15.7076 30.3075C16.051 30.0569 16.1436 29.5775 15.8929 29.2178C15.6641 28.8637 15.1791 28.7655 14.8196 29.0162Z" fill="#ED1C40"/>
<path d="M10.1342 3.82757C10.4775 3.75132 10.6954 3.40807 10.6191 3.06476C10.5591 2.70519 10.2159 2.48719 9.87266 2.56888C9.52941 2.64519 9.31147 2.98838 9.37678 3.33169C9.4531 3.69132 9.79091 3.90919 10.1342 3.82757Z" fill="#ED1C40"/>
<path d="M3.50293 14.8826C2.95799 14.5066 2.21161 14.6483 1.83561 15.2095C1.45968 15.7544 1.60136 16.5171 2.14624 16.8932C2.69105 17.2799 3.43755 17.1438 3.81343 16.5825C4.18949 16.0159 4.04774 15.2695 3.50293 14.8826Z" fill="#ED1C40"/>
<path d="M18.3232 5.57128C18.9008 5.22803 19.0696 4.48153 18.7426 3.92035C18.3994 3.34285 17.6694 3.15753 17.1082 3.50078C16.547 3.8441 16.3618 4.59053 16.7052 5.16803C17.0319 5.72928 17.7619 5.91453 18.3232 5.57128Z" fill="#ED1C40"/>
<path d="M7.91047 8.73118C8.32997 8.43693 8.42266 7.85937 8.14472 7.43987C7.86685 7.02031 7.28935 6.92768 6.8861 7.20556C6.4666 7.49981 6.37397 8.07737 6.65185 8.49687C6.92972 8.92187 7.50179 9.01443 7.91047 8.73118Z" fill="#ED1C40"/>
<path d="M28.1955 17.2308C27.7925 17.3234 27.5253 17.7266 27.618 18.1516C27.6944 18.5548 28.1029 18.8218 28.5061 18.7291C28.9094 18.6527 29.1763 18.2442 29.0837 17.8246C29.0019 17.4217 28.5987 17.1546 28.1955 17.2308Z" fill="#ED1C40"/>
<path d="M30.3587 14.136C30.2988 13.8255 29.9992 13.6402 29.7049 13.7002C29.3943 13.7601 29.2091 14.0761 29.269 14.3867C29.329 14.681 29.6287 14.8825 29.9392 14.8226C30.2335 14.7409 30.4351 14.4466 30.3587 14.136Z" fill="#ED1C40"/>
<path d="M25.9836 10.1207C25.5151 10.4476 25.4061 11.0852 25.7166 11.5538C26.0272 12.0223 26.6646 12.1314 27.1331 11.8208C27.5854 11.4939 27.6944 10.8564 27.3839 10.3878C27.0734 9.91374 26.4357 9.7938 25.9836 10.1207Z" fill="#ED1C40"/>
<path d="M25.6405 17.7157C27.0736 20.0642 26.4632 23.1643 24.2075 24.7498C23.2595 25.42 22.1861 25.7142 21.1072 25.6816C20.4535 28.2478 17.3261 29.2012 15.3809 27.4577C15.3209 27.5068 15.2392 27.5503 15.1792 27.6157C13.0489 29.0922 10.1502 28.5638 8.67368 26.4007C8.14518 25.6216 7.87824 24.7335 7.85099 23.8454C4.28762 23.2516 2.94731 18.7237 5.61162 16.2337C4.06962 13.6783 5.64431 10.382 8.52112 9.97335C9.88868 6.36647 14.3837 4.6556 17.4349 7.02022C21.1072 5.80522 24.8612 8.62216 24.5671 12.5287C26.8065 13.2153 27.4439 16.1738 25.6405 17.7157Z" fill="#ED1C40"/>
<path d="M21.8267 21.7641C21.6578 20.6418 19.5981 21.5135 19.4783 20.2877C19.3093 18.5441 21.8593 14.7792 21.6578 13.3136C21.4725 12.0059 20.6007 11.7279 19.838 11.7117C19.1078 11.6953 18.9171 11.8208 18.672 11.9624C18.514 12.055 18.3123 12.2294 18.0345 11.946C17.6913 11.6191 17.4298 11.3086 16.9775 11.2432C16.3073 11.1342 16.0132 11.3522 15.5282 11.7717C15.343 11.9297 14.8744 12.4746 14.4385 12.2675C14.2533 12.1748 13.5995 11.8479 13.1309 11.6464C12.2428 11.2595 10.9515 11.897 10.4829 12.736C9.78003 13.9838 8.41247 18.8984 8.21085 19.5522C7.74222 21.0015 8.80472 22.2002 10.2213 22.1185C10.8262 22.0859 11.2185 21.8678 11.6053 21.1704C11.8232 20.7673 13.8773 15.3024 14.0354 15.0354C14.1443 14.8501 14.5202 14.5994 14.8308 14.7575C15.1414 14.9264 15.2068 15.2697 15.1577 15.5803C15.0978 16.1088 13.6322 19.4433 13.5831 19.8138C13.3978 21.0616 15.0488 21.263 15.6863 20.0316C15.8878 19.6449 18.1762 14.9863 18.3777 14.6758C18.612 14.3325 18.781 14.2235 19.0152 14.2399C19.1841 14.2399 19.4675 14.2889 19.4021 14.8338C19.3258 15.3459 17.4896 18.7731 17.2826 19.6121C17.032 20.7345 17.6422 21.8678 18.6392 22.3691C19.2604 22.6796 22.0445 23.2245 21.8267 21.7641Z" fill="white"/>
<path d="M22.1373 26.7934C21.5761 27.1966 21.4344 27.9922 21.8267 28.5697C22.2134 29.1472 22.9927 29.2833 23.5703 28.8965C24.1478 28.4933 24.2839 27.6978 23.8971 27.1203C23.4939 26.5427 22.7148 26.3848 22.1373 26.7934Z" fill="#ED1C40"/>
</svg>
