<svg width="32" height="32" viewBox="0 0 32 32" fill="none" xmlns="http://www.w3.org/2000/svg">
<rect width="32" height="32" rx="16" fill="white"/>
<path fill-rule="evenodd" clip-rule="evenodd" d="M16 3.8125C8.95837 3.8125 3.5 8.9705 3.5 15.9375C3.5 19.5817 4.9935 22.7307 7.4257 24.9058C7.62988 25.0885 7.75312 25.3445 7.7615 25.6185L7.82958 27.842C7.85133 28.5512 8.58393 29.0128 9.23293 28.7262L11.714 27.631C11.9243 27.5382 12.16 27.521 12.3816 27.582C13.5218 27.8955 14.7352 28.0625 16 28.0625C23.0416 28.0625 28.5 22.9045 28.5 15.9375C28.5 8.9705 23.0416 3.8125 16 3.8125Z" fill="url(#paint0_radial_5954_21510)"/>
<path fill-rule="evenodd" clip-rule="evenodd" d="M8.49396 19.4834L12.1658 13.6579C12.7499 12.7311 14.0007 12.5004 14.877 13.1576L17.7975 15.3479C18.0654 15.5489 18.4341 15.5479 18.7009 15.3454L22.6451 12.352C23.1715 11.9525 23.8587 12.5825 23.5064 13.1416L19.8345 18.9671C19.2504 19.8938 17.9997 20.1246 17.1233 19.4673L14.2028 17.2769C13.9349 17.076 13.5662 17.0771 13.2994 17.2796L9.35521 20.2729C8.82879 20.6724 8.14159 20.0424 8.49396 19.4834Z" fill="white"/>
<defs>
<radialGradient id="paint0_radial_5954_21510" cx="0" cy="0" r="1" gradientUnits="userSpaceOnUse" gradientTransform="translate(8.31186 28.6788) scale(27.2399 27.2398)">
<stop stop-color="#0099FF"/>
<stop offset="0.609754" stop-color="#A033FF"/>
<stop offset="0.934823" stop-color="#FF5280"/>
<stop offset="1" stop-color="#FF7061"/>
</radialGradient>
</defs>
</svg>
