<svg width="32" height="32" viewBox="0 0 32 32" fill="none" xmlns="http://www.w3.org/2000/svg">
<path fill-rule="evenodd" clip-rule="evenodd" d="M16.0003 31.111C9.05858 31.111 3.32812 25.6739 2.88515 18.8393C1.22044 18.2382 0 16.3507 0 14.1267C0 11.9152 1.20672 10.0375 2.85706 9.42399V4.1672L5.05359 5.83584C7.6062 2.59069 11.5674 0.5 16.0003 0.5C20.4332 0.5 24.3945 2.59069 26.9471 5.83584L29.1436 4.1672V9.42399C30.7939 10.0375 32 11.9152 32 14.1267C32 16.3507 30.7796 18.2382 29.1148 18.8393C28.6719 25.6732 22.9421 31.111 16.0003 31.111Z" fill="#565473"/>
<path fill-rule="evenodd" clip-rule="evenodd" d="M15.9993 4.8655C12.8829 4.8655 10.0826 5.8932 7.82797 7.71929L7.22559 7.24823C9.30844 4.70673 12.47 3.08057 15.9993 3.08057C19.528 3.08057 22.6902 4.70673 24.773 7.24823L24.1706 7.71929C21.9153 5.89385 19.1157 4.8655 15.9993 4.8655Z" fill="white"/>
<path fill-rule="evenodd" clip-rule="evenodd" d="M15.9992 28.3313C10.8371 28.3313 6.53751 24.5158 5.77637 19.5608V8.84798L8.44657 10.9361C10.3367 8.91397 13.0239 7.64648 15.9992 7.64648C18.9739 7.64648 21.6617 8.91397 23.5512 10.9361L26.2214 8.84798V19.5608C25.4609 24.5158 21.1612 28.3313 15.9992 28.3313ZM15.9992 27.5198C14.8964 27.5198 13.7994 27.1768 13.0167 26.711C12.5215 26.415 12.3797 26.1315 12.3954 25.9838C12.4156 25.7911 12.8619 25.7708 13.1637 25.8342C14.8264 26.185 17.1739 26.185 18.834 25.8342C19.1359 25.7702 19.5828 25.7911 19.6024 25.9838C19.6181 26.1321 19.4763 26.415 18.9804 26.711C18.199 27.1762 17.102 27.5198 15.9992 27.5198ZM18.5975 23.5932C18.0624 24.3269 16.9799 24.7608 15.9201 24.7738C14.8232 24.7875 13.7497 24.3537 13.3277 23.5259C13.199 23.2731 13.3048 23.3548 13.5577 23.3548C14.358 23.4096 15.1512 23.4724 15.9816 23.4724C16.812 23.4724 17.6397 23.3933 18.4061 23.3548C18.7276 23.3548 18.8321 23.2718 18.5975 23.5932Z" fill="white"/>
<path fill-rule="evenodd" clip-rule="evenodd" d="M16.397 21.6559H21.8563L23.6204 18.5996H18.161L16.397 21.6559ZM15.6058 21.6559H10.1459L8.38184 18.5996H13.8412L15.6058 21.6559Z" fill="#7A9172"/>
</svg>
