<svg width="32" height="33" viewBox="0 0 32 33" fill="none" xmlns="http://www.w3.org/2000/svg">
<g clip-path="url(#clip0_6027_2666)">
<path d="M11.7438 1.50495C6.84695 1.86728 2.6841 2.20051 2.48837 2.23953C1.9396 2.33739 1.44038 2.70964 1.20563 3.19957L1 3.63066L1.01982 13.9049L1.04893 24.1792L1.36234 24.8159C1.53886 25.1684 2.73365 26.8141 4.0362 28.5081C6.61221 31.8478 6.79802 32.0342 7.77726 32.1321C8.06156 32.1612 10.1966 32.0633 12.5081 31.9264C14.8295 31.7796 18.5508 31.5542 20.7842 31.4272C30.3233 30.8481 29.8334 30.897 30.3815 30.4269C31.0672 29.8589 31.0183 30.7893 31.0474 18.3019C31.0672 7.71424 31.0573 7.01929 30.9006 6.69597C30.7148 6.33364 30.3815 6.07907 26.0329 3.02305C23.1243 0.985905 22.9186 0.878133 21.6155 0.858313C21.0772 0.839112 16.6307 1.1327 11.7438 1.50495ZM22.752 2.84652C23.1633 3.03234 26.1704 5.12832 26.6108 5.5303C26.7284 5.64798 26.7675 5.74584 26.7086 5.80469C26.5717 5.92237 7.96245 7.0292 7.42421 6.95054C7.17956 6.91152 6.81722 6.76472 6.61159 6.62722C5.75932 6.04934 3.64413 4.31569 3.64413 4.18872C3.64413 3.85549 3.57538 3.85549 11.8714 3.25841C13.4582 3.15064 16.0633 2.95492 17.6502 2.82732C21.0871 2.55294 22.1159 2.56285 22.752 2.84652ZM28.6677 8.20416C28.8046 8.34105 28.9223 8.60552 28.9613 8.86009C28.9904 9.09545 29.0102 13.4831 28.9904 18.5955C28.9613 27.3709 28.9514 27.9197 28.7848 28.1742C28.6869 28.3309 28.4912 28.4975 28.3438 28.5465C27.9331 28.7131 8.43318 29.8199 8.03183 29.7022C7.84601 29.6533 7.59083 29.4966 7.45394 29.3597L7.21858 29.1052L7.18947 19.6441C7.16965 13.0037 7.18947 10.0654 7.26813 9.80093C7.32697 9.6052 7.47376 9.36984 7.60136 9.2918C7.77788 9.17411 8.93364 9.07625 12.9101 8.84151C15.7016 8.6848 20.0206 8.42033 22.4987 8.27354C28.3933 7.91058 28.3741 7.91058 28.6677 8.20416Z" fill="black"/>
<path d="M23.428 11.4461C22.3701 11.5148 21.4298 11.6127 21.3221 11.6715C20.9988 11.8381 20.803 12.1125 20.764 12.4259C20.7349 12.7493 20.8328 12.7883 21.89 12.9159L22.3502 12.9747V17.1568C22.3502 19.6442 22.3112 21.2899 22.2623 21.241C22.2134 21.1821 20.8229 19.0669 19.1673 16.5399C17.5123 14.0035 16.141 11.9168 16.1211 11.8976C16.1013 11.8778 15.0242 11.9366 13.7316 12.0252C12.1447 12.133 11.2732 12.2308 11.0967 12.3287C10.8124 12.4755 10.499 12.9945 10.499 13.3377C10.499 13.5433 10.8713 13.6511 11.6548 13.6511H12.0661V25.6782L11.4002 25.8838C10.8812 26.0405 10.7047 26.1384 10.6167 26.3341C10.46 26.6674 10.4699 26.9708 10.6266 26.9708C10.6855 26.9708 11.7923 26.9021 13.0651 26.8241C15.5823 26.6773 15.866 26.6085 16.1304 26.0895C16.2091 25.9328 16.2772 25.7662 16.2772 25.7172C16.2772 25.6782 15.9347 25.5605 15.5228 25.4627C15.1016 25.3648 14.6805 25.2669 14.5925 25.2471C14.4259 25.1982 14.416 24.8947 14.416 20.6829V16.1676L17.3933 20.8396C20.5175 25.7364 20.9096 26.2951 21.3896 26.5398C21.9873 26.8532 23.5054 26.6376 24.2691 26.1384L24.5045 25.9916L24.5243 19.3122L24.5534 12.6229L25.0724 12.525C25.6893 12.4074 25.9736 12.1237 25.9736 11.6338C25.9736 11.3203 25.9538 11.3005 25.6602 11.3104C25.4849 11.3185 24.476 11.3773 23.428 11.4461Z" fill="black"/>
</g>
<defs>
<clipPath id="clip0_6027_2666">
<rect width="30.0672" height="32" fill="white" transform="translate(1 0.5)"/>
</clipPath>
</defs>
</svg>
