<svg width="40" height="32" viewBox="0 0 40 32" fill="none" xmlns="http://www.w3.org/2000/svg">
<g clip-path="url(#clip0_6027_2677)">
<path d="M16.7263 12.2305L22.6798 15.7956L26.2272 14.3024C26.9483 13.991 27.7255 13.8308 28.511 13.8318C28.6421 13.8318 28.7715 13.838 28.9 13.846C28.4737 12.1828 27.5734 10.6793 26.3086 9.51824C25.0437 8.35714 23.4689 7.58846 21.7754 7.30564C20.0819 7.02281 18.3427 7.23801 16.7692 7.92509C15.1958 8.61217 13.8558 9.74153 12.9121 11.1759L13.0025 11.1732C14.3181 11.1715 15.6079 11.5377 16.7263 12.2305Z" fill="#0364B8"/>
<path d="M16.7274 12.2297C15.6087 11.5371 14.3185 11.1712 13.0027 11.1733L12.9123 11.176C11.6247 11.1921 10.3658 11.5588 9.27085 12.2366C8.17592 12.9143 7.28636 13.8777 6.69774 15.023C6.10913 16.1683 5.8437 17.4524 5.92999 18.7373C6.01628 20.0221 6.45102 21.2592 7.18751 22.3155L12.4356 20.1062L14.7698 19.1243L19.9656 16.9372L22.6791 15.7958L16.7274 12.2297Z" fill="#0078D4"/>
<path d="M28.8999 13.8462C28.7704 13.8372 28.6407 13.8324 28.5109 13.832C27.7257 13.8314 26.9487 13.9919 26.228 14.3035L22.6797 15.7958L23.7086 16.4118L27.0805 18.4314L28.5516 19.3123L33.5826 22.3253C34.0397 21.4768 34.2766 20.5271 34.2716 19.5633C34.2665 18.5995 34.0197 17.6524 33.5538 16.8087C33.0879 15.9649 32.4176 15.2516 31.6046 14.7341C30.7915 14.2165 29.8615 13.9112 28.8999 13.8462Z" fill="#1490DF"/>
<path d="M28.5518 19.3123L27.0807 18.4315L23.7087 16.4109L22.6807 15.7959L19.9663 16.9373L14.7705 19.1245L12.4354 20.1064L7.18555 22.3157C7.83808 23.2537 8.70798 24.0199 9.72094 24.5488C10.7339 25.0777 11.8598 25.3535 13.0025 25.3527H28.511C29.5509 25.353 30.5716 25.0718 31.4645 24.5388C32.3575 24.0058 33.0895 23.2409 33.5827 22.3254L28.5518 19.3123Z" fill="#28A8EA"/>
</g>
<defs>
<clipPath id="clip0_6027_2677">
<rect width="40" height="19.024" fill="white" transform="translate(0 6.5)"/>
</clipPath>
</defs>
</svg>
