<svg width="23" height="23" viewBox="0 0 23 23" fill="none" xmlns="http://www.w3.org/2000/svg">
<path d="M19.8288 11.8833C19.5977 11.8833 19.3761 11.9751 19.2127 12.1385C19.0494 12.3019 18.9576 12.5235 18.9576 12.7545V18.853C18.9576 19.3344 18.5677 19.7242 18.0864 19.7242H4.14696C3.66562 19.7242 3.27575 19.3344 3.27575 18.853V4.91364C3.27575 4.43229 3.66562 4.04243 4.14696 4.04243H10.2454C10.4765 4.04243 10.6981 3.95064 10.8615 3.78726C11.0249 3.62387 11.1167 3.40228 11.1167 3.17122C11.1167 2.94016 11.0249 2.71856 10.8615 2.55518C10.6981 2.39179 10.4765 2.3 10.2454 2.3H4.14696C2.70358 2.3 1.53333 3.47026 1.53333 4.91364V18.853C1.53333 20.2964 2.70358 21.4667 4.14696 21.4667H18.0864C19.5297 21.4667 20.7 20.2964 20.7 18.853V12.7545C20.7 12.5235 20.6082 12.3019 20.4448 12.1385C20.2814 11.9751 20.0598 11.8833 19.8288 11.8833ZM20.7 3.17122V8.39849C20.7 8.62955 20.6082 8.85114 20.4448 9.01453C20.2814 9.17791 20.0598 9.2697 19.8288 9.2697C19.5977 9.2697 19.3761 9.17791 19.2127 9.01453C19.0494 8.85114 18.9576 8.62955 18.9576 8.39849V5.27432L11.8199 12.4117C11.6554 12.5692 11.4357 12.656 11.208 12.6535C10.9802 12.6509 10.7625 12.5594 10.6015 12.3983C10.4405 12.2372 10.3489 12.0195 10.3464 11.7918C10.344 11.564 10.4308 11.3444 10.5883 11.1798L17.7255 4.04243H14.6015C14.3704 4.04243 14.1489 3.95064 13.9855 3.78726C13.8221 3.62387 13.7303 3.40228 13.7303 3.17122C13.7303 2.94016 13.8221 2.71856 13.9855 2.55518C14.1489 2.39179 14.3704 2.3 14.6015 2.3H19.8288C20.0598 2.3 20.2814 2.39179 20.4448 2.55518C20.6082 2.71856 20.7 2.94016 20.7 3.17122Z" fill="#242424"/>
</svg>
