<svg width="32" height="32" viewBox="0 0 32 32" fill="none" xmlns="http://www.w3.org/2000/svg">
<path d="M15.9777 1.2002C7.79996 1.2002 1.17773 7.82242 1.17773 16.0002C1.17773 22.2669 5.06662 27.6224 10.5777 29.778C10.4444 28.6002 10.3333 26.8224 10.6222 25.5335C10.8888 24.378 12.3555 18.178 12.3555 18.178C12.3555 18.178 11.9111 17.2891 11.9111 15.978C11.9111 13.9113 13.1111 12.378 14.5777 12.378C15.8444 12.378 16.4444 13.3335 16.4444 14.4669C16.4444 15.7335 15.6444 17.6446 15.2222 19.4002C14.8666 20.8669 15.9555 22.0669 17.4222 22.0669C20.0444 22.0669 22.0666 19.2891 22.0666 15.2891C22.0666 11.7558 19.5111 9.26686 15.8888 9.26686C11.6888 9.26686 9.19996 12.4224 9.19996 15.6891C9.19996 16.9558 9.68885 18.3335 10.3111 19.0669C10.4222 19.2224 10.4444 19.3335 10.4222 19.4891C10.3111 19.9557 10.0666 20.9557 10.0222 21.1558C9.95551 21.4224 9.79996 21.4891 9.53329 21.3558C7.68885 20.4891 6.53329 17.8002 6.53329 15.6224C6.53329 10.9558 9.93329 6.66686 16.3111 6.66686C21.4444 6.66686 25.4222 10.3335 25.4222 15.2002C25.4222 20.2891 22.2 24.4002 17.7555 24.4002C16.2666 24.4002 14.8444 23.6224 14.3555 22.7113C14.3555 22.7113 13.6222 25.5335 13.4444 26.2224C13.1111 27.5113 12.2 29.1113 11.6 30.1113C12.9777 30.5335 14.4444 30.778 15.9777 30.778C24.1555 30.778 30.7777 24.1558 30.7777 15.978C30.7777 7.82242 24.1555 1.2002 15.9777 1.2002Z" fill="#BD081C"/>
</svg>
