<svg width="32" height="32" viewBox="0 0 32 32" fill="none" xmlns="http://www.w3.org/2000/svg">
<path d="M0.647666 22.0695C-0.551634 22.869 -0.151867 24.3881 2.40664 25.1077C5.0451 25.9872 7.92342 26.227 10.7218 25.7473C10.8817 25.7473 11.0416 25.6674 11.1216 25.6674V22.9489L8.40314 23.8284C7.36375 24.1482 6.32435 24.2282 5.28496 23.9883C4.48543 23.7485 4.64533 23.2688 5.60477 22.869L11.1216 20.9501V17.9918L3.44603 20.6303C2.48659 20.9501 1.52715 21.4298 0.647666 22.0695ZM19.1968 10.0765V17.8319C22.4749 19.431 25.0334 17.8319 25.0334 13.6744C25.0334 9.43683 23.5143 7.51795 19.1169 5.99883C16.7982 5.1993 14.3996 4.47972 12.001 4V27.1065L17.5978 28.7855V9.35688C17.5978 8.47739 17.5978 7.83776 18.2374 8.07762C19.1169 8.31748 19.1968 9.19697 19.1968 10.0765ZM29.5908 20.2305C27.2721 19.431 24.7936 19.1112 22.395 19.351C21.1157 19.431 19.9164 19.7508 18.7971 20.1506L18.5572 20.2305V23.3487L23.7542 21.4298C24.7936 21.11 25.833 21.0301 26.8724 21.2699C27.6719 21.5098 27.512 21.9895 26.5526 22.3893L18.5572 25.3475V28.3858L29.5908 24.3082C30.3903 23.9883 31.1099 23.5886 31.7495 22.9489C32.3092 22.1494 32.0693 21.0301 29.5908 20.2305Z" fill="black"/>
</svg>
