<svg width="32" height="33" viewBox="0 0 32 33" fill="none" xmlns="http://www.w3.org/2000/svg">
<g clip-path="url(#clip0_6026_3782)">
<path fill-rule="evenodd" clip-rule="evenodd" d="M30.4148 2.25635C31.1355 3.20874 31.4603 4.78746 31.6202 6.70673C31.8317 9.57085 31.9167 13.0078 31.9979 16.5593C31.8928 20.1769 31.85 23.8253 31.6202 26.4118C31.4389 28.3972 31.0537 29.7266 30.4104 30.533C29.592 31.3381 28.0221 32.0179 25.7837 32.1791C23.0612 32.4114 19.7024 32.4088 15.9966 32.5001C11.8773 32.4296 9.08374 32.4598 6.1529 32.1803C3.86665 32.0217 2.37102 31.3501 1.45072 30.5393C0.769001 29.624 0.569457 28.6509 0.380615 26.3697C0.144562 23.7353 0.0923152 20.1655 0.00292969 16.5788C0.137008 13.0109 0.145191 9.41474 0.382503 6.72688C0.54176 4.60618 0.792921 3.18041 1.43687 2.27397C2.34017 1.50412 3.88113 1.1214 6.17997 0.932559C9.32735 0.564316 12.6044 0.491926 15.9922 0.500109C19.4789 0.505775 22.8258 0.605232 25.812 0.899197C27.8264 1.06034 29.4932 1.40718 30.4116 2.25635H30.4148Z" fill="#B92B27"/>
<path d="M20.0282 22.3579C21.2501 21.5885 22.2563 20.5211 22.9524 19.256C23.6485 17.991 24.0117 16.5698 24.0078 15.1258C24.0078 10.4318 20.2536 6.62793 15.6219 6.62793C10.9902 6.62793 7.2373 10.4337 7.2373 15.1258C7.2373 19.818 10.9909 23.6238 15.6219 23.6238C16.288 23.6236 16.9517 23.5428 17.5985 23.3833C18.3948 24.8311 19.6071 25.8565 22.181 25.3661V23.9278C22.181 23.9278 20.5318 23.513 20.0282 22.3579ZM19.9697 16.252C19.9697 17.6714 19.5184 18.9587 18.7844 19.9105C18.2522 19.3371 17.5997 18.8887 16.8736 18.5973C16.1476 18.306 15.3661 18.179 14.5852 18.2254V19.896C14.5852 19.896 15.8284 19.9451 16.6801 21.4067C16.3576 21.5023 16.0231 21.5511 15.6867 21.5515C13.3212 21.5515 11.4063 19.1784 11.4063 16.2501V14.0595C11.4063 11.1318 13.3231 8.75807 15.6867 8.75807C18.0504 8.75807 19.9672 11.1318 19.9672 14.0595V16.2482L19.9697 16.252Z" fill="white"/>
</g>
<defs>
<clipPath id="clip0_6026_3782">
<rect y="0.5" width="31.9981" height="32" rx="15.9991" fill="white"/>
</clipPath>
</defs>
</svg>
