<svg width="33" height="33" viewBox="0 0 33 33" fill="none" xmlns="http://www.w3.org/2000/svg">
<path d="M16.5672 4.1665C14.3314 4.1665 11.6399 4.492 10.2211 4.68817C9.63424 4.76917 9.18341 5.23717 9.10991 5.82484L6.59024 25.9827C6.39791 27.5215 7.55574 28.928 9.10574 28.876C10.4237 28.8318 11.5629 28.6765 12.5951 28.3562C13.4366 28.095 13.9717 27.3112 14.0907 26.4382L14.9006 20.4998L17.2657 27.0698C17.6466 28.1278 18.6521 28.852 19.7746 28.7848C21.4826 28.683 22.7929 28.4025 24.4059 27.7882C25.1897 27.4897 25.4499 26.5285 25.0177 25.8097C23.3752 23.0778 22.7614 20.7025 21.9006 17.8332C21.9006 17.8332 25.5672 15.4998 25.5672 11.4998C25.5672 5.49984 20.5672 4.1665 16.5672 4.1665Z" stroke="black" stroke-width="2" stroke-linejoin="round"/>
<path d="M14.3892 15.0314L15.1164 9.6981C15.184 9.20243 15.608 8.8256 16.1064 8.86743C18.7577 9.0896 19.628 10.3834 19.401 12.4998C19.2107 14.2756 18.1757 15.7888 15.3794 16.1056C14.7772 16.1738 14.3072 15.6319 14.3892 15.0314Z" fill="black"/>
</svg>
