<svg width="32" height="33" viewBox="0 0 32 33" fill="none" xmlns="http://www.w3.org/2000/svg">
<g clip-path="url(#clip0_6027_2701)">
<path d="M26.5923 6.78391C26.5702 6.62391 26.4301 6.53537 26.3142 6.52561C26.1986 6.51597 23.7517 6.3346 23.7517 6.3346C23.7517 6.3346 22.0523 4.64748 21.8658 4.46074C21.6792 4.27411 21.3147 4.33087 21.1732 4.37252C21.1524 4.37865 20.8019 4.48682 20.2222 4.66622C19.6545 3.03268 18.6526 1.53153 16.8901 1.53153C16.8415 1.53153 16.7914 1.5335 16.7413 1.53635C16.24 0.873449 15.6191 0.585449 15.0828 0.585449C10.977 0.585449 9.01549 5.71805 8.40047 8.32627C6.80508 8.82063 5.67171 9.17208 5.52694 9.21756C4.63642 9.4969 4.60826 9.52496 4.49132 10.3641C4.40332 10.9994 2.07324 29.019 2.07324 29.019L20.2297 32.4208L30.0675 30.2926C30.0675 30.2926 26.614 6.94391 26.5923 6.78391ZM19.2187 4.97657L17.6823 5.45208C17.6829 5.34381 17.6834 5.23728 17.6834 5.12079C17.6834 4.10556 17.5425 3.28813 17.3164 2.64013C18.2246 2.75411 18.8294 3.78742 19.2187 4.97657ZM16.1898 2.84145C16.4423 3.47411 16.6065 4.38205 16.6065 5.60726C16.6065 5.66994 16.606 5.72726 16.6054 5.78523C15.6063 6.09471 14.5206 6.43071 13.4325 6.76781C14.0434 4.40989 15.1886 3.27104 16.1898 2.84145ZM14.97 1.68671C15.1472 1.68671 15.3257 1.74687 15.4966 1.86446C14.1807 2.48364 12.7703 4.04309 12.1747 7.15728L9.66667 7.93405C10.3643 5.55871 12.021 1.68671 14.97 1.68671Z" fill="#95BF46"/>
<path d="M26.3141 6.52565C26.1985 6.516 23.7516 6.33463 23.7516 6.33463C23.7516 6.33463 22.0522 4.64751 21.8656 4.46077C21.7958 4.39129 21.7017 4.35567 21.6033 4.34033L20.2305 32.4207L30.0674 30.2927C30.0674 30.2927 26.6138 6.94395 26.5921 6.78395C26.5701 6.62395 26.4299 6.5354 26.3141 6.52565Z" fill="#5E8E3E"/>
<path d="M16.89 11.9612L15.677 15.5696C15.677 15.5696 14.6142 15.0023 13.3114 15.0023C11.4015 15.0023 11.3054 16.2009 11.3054 16.5029C11.3054 18.1509 15.6013 18.7824 15.6013 22.6426C15.6013 25.6796 13.675 27.6352 11.0778 27.6352C7.96105 27.6352 6.36719 25.6955 6.36719 25.6955L7.20171 22.9382C7.20171 22.9382 8.84006 24.3448 10.2225 24.3448C11.1259 24.3448 11.4933 23.6336 11.4933 23.1139C11.4933 20.9642 7.96894 20.8683 7.96894 17.3359C7.96894 14.3629 10.1029 11.4858 14.4104 11.4858C16.0701 11.4858 16.89 11.9612 16.89 11.9612Z" fill="white"/>
</g>
<defs>
<clipPath id="clip0_6027_2701">
<rect width="28.0576" height="32" fill="white" transform="translate(2.06738 0.5)"/>
</clipPath>
</defs>
</svg>
