<svg width="32" height="33" viewBox="0 0 32 33" fill="none" xmlns="http://www.w3.org/2000/svg">
<path d="M6.06662 27.8974L9.58598 27.0747C15.2554 30.5153 22.8317 28.8216 26.4413 23.0926C33.9565 10.4491 17.874 -2.30036 7.23078 7.80716C3.2407 11.6721 2.4647 18.1838 5.39142 22.8907L4.56646 26.4017C4.33478 27.2651 5.19814 28.1326 6.06662 27.8974Z" fill="#4477E8"/>
<path d="M12.0448 29.7029C11.3434 29.4914 10.6602 29.2242 10.0016 28.9036C9.28035 28.5087 6.85731 28.1631 7.06979 29.5193C7.15907 29.9013 7.54115 30.1391 7.92323 30.0501C8.22083 29.9938 8.68067 29.8034 8.96515 29.9861C9.81411 30.43 10.7037 30.7913 11.6208 31.0652C12.5139 31.3209 12.9299 29.9922 12.0448 29.7029Z" fill="#4477E8"/>
<path d="M3.84783 24.8905L4.09871 23.8121C4.13935 23.638 4.11023 23.4565 4.02191 23.3013C3.50927 22.3993 3.10063 21.4412 2.80495 20.4479C2.51919 19.5621 1.18863 19.973 1.44463 20.869C1.71951 21.7865 2.08143 22.6761 2.52399 23.525C2.70607 23.8069 2.51567 24.2716 2.45999 24.5653C2.27023 25.4834 3.61071 25.8015 3.84783 24.8905Z" fill="#4477E8"/>
<path d="M4.93789 29.2749L3.81725 29.537C3.30397 29.657 2.84317 29.1965 2.96285 28.6833L3.22717 27.5485C3.41757 26.6305 2.07485 26.3159 1.83933 27.2253L1.31549 29.4737C1.13501 30.2404 1.61245 31.0074 2.37661 31.1853C2.58941 31.2349 2.81213 31.2349 3.02717 31.1853L5.27293 30.6692C6.19261 30.4298 5.86237 29.081 4.93789 29.2749Z" fill="#4477E8"/>
<path d="M14.5979 2.79545C15.5311 2.70073 16.4709 2.70073 17.404 2.79545C18.3355 2.85977 18.4587 1.48953 17.5311 1.37721C16.5135 1.27481 15.4875 1.27449 14.4699 1.37721C14.0629 1.41817 13.7717 1.79065 13.8335 2.19513C13.8901 2.56537 14.2248 2.83321 14.5979 2.79545Z" fill="#4477E8"/>
<path d="M29.1977 12.541C29.3058 12.9029 29.6809 13.1141 30.0476 13.0226C30.4444 12.9247 30.6764 12.5135 30.559 12.1221C30.2649 11.142 29.8726 10.1944 29.3878 9.29363C28.9343 8.47795 27.7026 9.12467 28.1295 9.95859C28.5721 10.781 28.9298 11.6466 29.1977 12.541Z" fill="#4477E8"/>
<path d="M4.34873 7.90921C4.66553 8.14537 5.11001 8.09769 5.37081 7.80073C5.88249 7.21801 6.71673 6.30121 7.29977 5.82537C8.01113 5.21161 7.12665 4.14345 6.38649 4.72201C5.59513 5.36809 4.87065 6.09257 4.22457 6.88393C3.96697 7.19945 4.02233 7.66601 4.34873 7.90921Z" fill="#4477E8"/>
<path d="M26.6751 7.7971C26.9164 8.09342 27.351 8.14142 27.654 7.9091C27.9804 7.6659 28.0358 7.19902 27.7785 6.88382C27.1324 6.09246 26.4079 5.36798 25.6166 4.7219C24.8767 4.1379 23.9935 5.22366 24.711 5.83134C25.43 6.41918 26.0882 7.07774 26.6751 7.7971Z" fill="#4477E8"/>
<path d="M27.6508 25.0877C27.3442 24.8598 26.9129 24.9113 26.6713 25.207C26.0822 25.9277 25.4217 26.5865 24.7004 27.1747C24.407 27.4137 24.3561 27.8429 24.5826 28.1462C24.8249 28.4749 25.293 28.5321 25.6095 28.2742C26.4015 27.6288 27.1273 26.9049 27.7753 26.1149C28.0335 25.7993 27.9782 25.3312 27.6508 25.0877Z" fill="#4477E8"/>
<path d="M17.4016 30.2023C16.4694 30.2967 15.5306 30.2967 14.5984 30.2019C13.6666 30.1373 13.5427 31.5104 14.471 31.6227C15.4886 31.7251 16.5149 31.7255 17.5325 31.6227C17.9395 31.5818 18.2307 31.2093 18.169 30.8051C18.1123 30.4333 17.7763 30.1645 17.4016 30.2023Z" fill="#4477E8"/>
<path d="M30.0438 19.9721C29.6774 19.8815 29.3033 20.0927 29.1954 20.4543C28.9276 21.3513 28.5692 22.2179 28.126 23.0422C27.9468 23.375 28.0636 23.7897 28.3881 23.9836C28.7378 24.1942 29.1922 24.0675 29.3858 23.7081C29.8719 22.8054 30.2642 21.855 30.5574 20.8742C30.6742 20.4822 30.4412 20.0703 30.0438 19.9721Z" fill="#4477E8"/>
<path d="M31.1205 14.9688C31.0796 14.5624 30.7077 14.2712 30.3039 14.3323C29.9308 14.3887 29.6655 14.7269 29.7039 15.1023C29.7989 16.0306 29.7986 16.9682 29.7039 17.8968C29.6351 18.8328 31.0063 18.9615 31.1208 18.0303C31.2229 17.0123 31.2229 15.9864 31.1205 14.9688Z" fill="#4477E8"/>
<path d="M22.5417 28.6271C21.7193 29.07 20.854 29.4278 19.9593 29.6953C19.0681 29.9897 19.4735 31.3065 20.3779 31.0566C21.358 30.7625 22.3055 30.3702 23.2063 29.8854C23.5657 29.6921 23.6927 29.238 23.4825 28.8879C23.2886 28.5641 22.8745 28.4479 22.5417 28.6271Z" fill="#4477E8"/>
<path d="M2.29809 17.8976C2.20401 16.9686 2.20401 16.0307 2.29809 15.1017C2.36561 14.1657 0.994094 14.0384 0.879534 14.9693C0.777134 15.9869 0.777134 17.0128 0.879534 18.0304C0.993454 18.96 2.36529 18.8345 2.29809 17.8976Z" fill="#4477E8"/>
<path d="M2.80438 12.5433C3.0719 11.6469 3.42998 10.781 3.87286 9.95702C4.05174 9.62422 3.93526 9.20982 3.61078 9.01558C3.2719 8.8127 2.83222 8.94038 2.6575 9.29462C2.28086 10.0578 1.68502 11.3189 1.44342 12.1247C1.19382 13.0284 2.50966 13.4357 2.80438 12.5433Z" fill="#4477E8"/>
<path d="M19.9547 3.30252C20.8517 3.57036 21.7183 3.92876 22.5426 4.37196C22.8754 4.55084 23.2898 4.43436 23.4837 4.1102C23.6946 3.76044 23.5675 3.30572 23.2079 3.11244C22.3061 2.62764 21.356 2.23564 20.3739 1.94156C19.4712 1.69164 19.0613 3.00652 19.9547 3.30252Z" fill="#4477E8"/>
<path d="M9.45862 4.37137C10.2826 3.92817 11.1492 3.57009 12.0455 3.30225C12.9377 3.00753 12.5306 1.69137 11.626 1.94161C10.6458 2.23601 9.69766 2.62833 8.7943 3.11313C8.43462 3.30609 8.30758 3.76017 8.5175 4.11025C8.71238 4.43409 9.12614 4.55025 9.45862 4.37137Z" fill="#4477E8"/>
</svg>
