<svg width="32" height="32" viewBox="0 0 32 32" fill="none" xmlns="http://www.w3.org/2000/svg">
<rect width="32" height="32" rx="16" fill="#0078D7"/>
<path d="M16.0417 22.186C12.6273 22.186 11.0672 20.4466 11.0672 19.1708C11.0668 18.8664 11.1917 18.5753 11.4126 18.366C11.6335 18.1566 11.9308 18.0475 12.2347 18.0642C13.6966 18.0642 13.3142 20.2571 16.0417 20.2571C17.436 20.2571 18.2549 19.4178 18.2549 18.6293C18.2549 18.1556 17.9842 17.6141 17.0637 17.3976L14.0181 16.6294C11.5714 16.0067 11.1451 14.6463 11.1451 13.3841C11.1451 10.7649 13.541 9.81734 15.8218 9.81734C17.9233 9.81734 20.4207 10.9781 20.4207 12.5483C20.4207 13.2251 19.8555 13.5871 19.199 13.5871C17.9503 13.5871 18.1601 11.8342 15.6492 11.8342C14.4005 11.8342 13.744 12.4197 13.744 13.2386C13.744 14.0575 14.7152 14.335 15.568 14.5211L17.815 15.0287C20.2786 15.5837 20.9351 17.0287 20.9351 18.4128C20.9351 20.5413 19.287 22.186 16.0384 22.186H16.0417ZM25.4696 17.6818C25.5672 17.1231 25.6159 16.557 25.6152 15.9898C25.6271 13.1408 24.3753 10.4332 22.1972 8.59674C20.019 6.7603 17.1388 5.98407 14.3328 6.47731C13.4704 5.98075 12.4922 5.72045 11.497 5.72267C9.45427 5.73515 7.57135 6.82995 6.54999 8.59906C5.52863 10.3682 5.52202 12.5462 6.53263 14.3215C5.96872 17.42 6.95653 20.5984 9.17743 22.8315C11.3983 25.0645 14.5713 26.0696 17.6728 25.5226C18.5343 26.0187 19.5112 26.279 20.5053 26.2773C22.547 26.2641 24.4287 25.1698 25.4499 23.4017C26.471 21.6337 26.4785 19.4569 25.4696 17.6818Z" fill="white"/>
</svg>
