<svg width="32" height="32" viewBox="0 0 32 32" fill="none" xmlns="http://www.w3.org/2000/svg">
<rect width="32" height="32" rx="16" fill="#FFFC00"/>
<path d="M16.1197 25.4152C16.0659 25.4152 16.016 25.4152 15.9699 25.4075C15.9353 25.4075 15.9008 25.4152 15.8662 25.4152C14.6754 25.4152 13.9148 24.8736 13.1734 24.3512C12.6664 23.9862 12.1785 23.652 11.6177 23.556C11.3449 23.5099 11.0607 23.4869 10.8033 23.4869C10.3231 23.4869 9.94669 23.5637 9.67395 23.6175C9.50878 23.652 9.35897 23.6789 9.24757 23.6789C9.13233 23.6789 9.0094 23.652 8.95178 23.4677C8.90569 23.3102 8.87112 23.1527 8.83654 23.0029C8.75588 22.6187 8.69441 22.3806 8.52924 22.3537C6.64314 22.0579 6.10151 21.6622 5.97859 21.3818C5.96323 21.3396 5.9517 21.3011 5.9517 21.2589C5.94402 21.1475 6.02085 21.0515 6.1284 21.0399C9.02861 20.5598 10.3308 17.5981 10.3846 17.4675C10.3846 17.4598 10.3846 17.4598 10.3923 17.4521C10.569 17.0949 10.6036 16.7799 10.496 16.5264C10.2963 16.0616 9.64707 15.8465 9.22068 15.7158C9.11696 15.6813 9.01325 15.6544 8.94026 15.6198C8.08364 15.2856 8.00681 14.9361 8.04139 14.7555C8.09517 14.452 8.50235 14.2408 8.82886 14.2408C8.91721 14.2408 9.00172 14.2561 9.06318 14.2907C9.44732 14.4674 9.79688 14.5634 10.0965 14.5634C10.5075 14.5634 10.6919 14.3906 10.715 14.3637C10.6996 14.1639 10.6957 13.9604 10.6804 13.7529C10.592 12.3816 10.4883 10.676 10.9185 9.70416C12.2208 6.79243 14.975 6.56579 15.7894 6.56579C15.8086 6.56579 16.1466 6.55811 16.1466 6.55811H16.1965C17.0109 6.55811 19.7728 6.78474 21.075 9.70416C21.5053 10.676 21.4054 12.3854 21.3132 13.7529L21.3055 13.8144C21.2902 14.0065 21.2863 14.1908 21.2709 14.3714C21.2902 14.3906 21.4553 14.5481 21.8318 14.5711C22.1199 14.5558 22.4502 14.4674 22.8036 14.2984C22.9074 14.2523 23.0303 14.2369 23.1071 14.2369C23.23 14.2369 23.3529 14.2561 23.4567 14.3061H23.4643C23.7601 14.4098 23.9445 14.6134 23.9522 14.8285C23.9599 15.0282 23.8024 15.3279 23.0456 15.6313C22.9688 15.6582 22.8689 15.6928 22.7652 15.7274C22.335 15.8657 21.6897 16.0693 21.4899 16.5379C21.3785 16.7914 21.4131 17.1064 21.5936 17.4637C21.5936 17.4713 21.5936 17.4713 21.6013 17.479C21.6551 17.6019 22.9573 20.5713 25.8575 21.0476C25.9689 21.0668 26.0419 21.1629 26.0342 21.2666C26.0342 21.3088 26.0188 21.3472 26.0073 21.3895C25.8921 21.6699 25.3504 22.0694 23.4567 22.3575C23.3069 22.3767 23.2454 22.5842 23.1494 23.0029C23.1148 23.1527 23.0802 23.3025 23.0341 23.4638C22.9919 23.6021 22.9112 23.6636 22.7652 23.6636H22.746C22.6423 23.6636 22.5079 23.6444 22.3196 23.6098C21.997 23.5483 21.6397 23.4869 21.1903 23.4869C20.9214 23.4869 20.6486 23.5061 20.3759 23.556C19.8074 23.652 19.3272 23.9862 18.8202 24.3512C18.075 24.8736 17.3067 25.4152 16.1197 25.4152Z" fill="white"/>
<path d="M16.1884 6.3584H16.1423H15.7851C14.9438 6.3584 12.0705 6.59272 10.7222 9.62737C10.2689 10.6492 10.3803 12.3816 10.461 13.7722C10.4763 13.9374 10.4802 14.1064 10.4879 14.2715C10.4187 14.3138 10.2881 14.3599 10.0922 14.3599C9.82332 14.3599 9.50833 14.2792 9.14725 14.1064C9.05121 14.0641 8.93981 14.0372 8.82457 14.0372C8.40587 14.0372 7.90649 14.31 7.82967 14.721C7.77589 15.0168 7.90649 15.447 8.85915 15.8234C8.9475 15.858 9.05121 15.8926 9.15493 15.9272C9.54674 16.0501 10.1422 16.2422 10.2996 16.6186C10.3803 16.8184 10.3457 17.0719 10.2036 17.3715C10.2036 17.3792 10.1959 17.3869 10.1959 17.3907C10.1422 17.5136 8.88603 20.3716 6.10491 20.8325C5.89363 20.8671 5.73614 21.0592 5.74766 21.2781C5.75535 21.3396 5.76687 21.4087 5.79376 21.4702C6.00503 21.9581 6.8847 22.3191 8.49422 22.565C8.548 22.6418 8.60562 22.8953 8.63635 23.0528C8.67092 23.2027 8.70549 23.3678 8.75159 23.533C8.79768 23.6982 8.92445 23.8979 9.25096 23.8979C9.38157 23.8979 9.53906 23.871 9.71576 23.8288C9.98466 23.775 10.3534 23.7059 10.8067 23.7059C11.0602 23.7059 11.3291 23.7251 11.5865 23.775C12.1089 23.8634 12.5468 24.1707 13.0539 24.5356C13.7876 25.0503 14.6096 25.6381 15.8696 25.6381C15.9042 25.6381 15.9387 25.6381 15.9733 25.6304C16.0156 25.6304 16.0693 25.6381 16.1231 25.6381C17.3831 25.6381 18.2051 25.0542 18.9388 24.5356C19.4535 24.1707 19.8915 23.8634 20.4062 23.775C20.6751 23.7328 20.9325 23.7059 21.186 23.7059C21.6239 23.7059 21.9658 23.7596 22.2769 23.8211C22.469 23.8634 22.6265 23.8749 22.7417 23.8749H22.7571H22.7725C23.0106 23.8749 23.1758 23.752 23.2449 23.5176C23.291 23.3525 23.3256 23.195 23.3602 23.0452C23.3948 22.8877 23.4485 22.6341 23.5023 22.5573C25.1042 22.3115 25.9915 21.9465 26.2028 21.4625C26.2297 21.4011 26.245 21.3319 26.2489 21.2705C26.2642 21.0515 26.1067 20.8594 25.8916 20.8249C23.1028 20.3639 21.8467 17.5021 21.8006 17.383C21.8006 17.3753 21.7929 17.3677 21.7929 17.3638C21.6431 17.0642 21.6085 16.8107 21.6969 16.6109C21.8544 16.2345 22.4498 16.0424 22.8416 15.9195C22.953 15.8849 23.0529 15.8503 23.1374 15.8158C23.8288 15.543 24.1784 15.205 24.1707 14.817C24.163 14.5097 23.9249 14.2331 23.5484 14.1025C23.4178 14.0488 23.268 14.0219 23.122 14.0219C23.0183 14.0219 22.8685 14.0372 22.7302 14.1025C22.3999 14.26 22.1002 14.3407 21.8467 14.3561C21.6738 14.3484 21.5663 14.31 21.5048 14.2677C21.5125 14.1256 21.5202 13.9796 21.5317 13.8298L21.5394 13.7683C21.6277 12.3778 21.7391 10.6415 21.2782 9.62353C19.9107 6.58888 17.0373 6.3584 16.1884 6.3584ZM16.1884 6.78095C16.9644 6.78095 19.6226 6.98838 20.8748 9.79639C21.2859 10.7222 21.1821 12.4008 21.0938 13.7453C21.0784 13.9566 21.0669 14.164 21.0592 14.3637L21.0515 14.4444L21.1053 14.5059C21.1245 14.5328 21.3435 14.7517 21.8198 14.7748H21.8275H21.8352C22.1502 14.7594 22.5074 14.6634 22.8915 14.4867C22.9453 14.4598 23.0221 14.4444 23.1028 14.4444C23.1912 14.4444 23.2872 14.4636 23.3717 14.4905L23.3871 14.4982C23.5945 14.5673 23.729 14.7056 23.7366 14.8285C23.7366 14.8977 23.6905 15.1435 22.9684 15.4239C22.8992 15.4508 22.8032 15.4777 22.6995 15.5123C22.2347 15.6621 21.5279 15.8811 21.2859 16.4457C21.1476 16.7607 21.1898 17.1295 21.3973 17.5482C21.4779 17.748 22.8147 20.748 25.811 21.2436C25.811 21.2589 25.8033 21.2705 25.7956 21.2935C25.7495 21.4087 25.4191 21.8275 23.4101 22.1348C23.0951 22.1809 23.0183 22.5381 22.93 22.9453C22.8954 23.0874 22.8685 23.2411 22.8186 23.3909C22.8032 23.437 22.8032 23.437 22.7494 23.437H22.7302C22.6419 23.437 22.5036 23.4178 22.3461 23.3909C22.058 23.3371 21.6662 23.268 21.1745 23.268C20.894 23.268 20.6059 23.2948 20.3255 23.3371C19.7071 23.4408 19.2077 23.7981 18.6814 24.1668C17.967 24.6662 17.2371 25.1886 16.1116 25.1886C16.0655 25.1886 16.0156 25.1886 15.9695 25.1809H15.9541H15.9387H15.8581C14.7325 25.1809 14.0027 24.6585 13.2882 24.1591C12.7619 23.7827 12.2587 23.4331 11.6441 23.3294C11.356 23.2833 11.0679 23.2603 10.7952 23.2603C10.2958 23.2603 9.90399 23.3371 9.62357 23.3909C9.46608 23.4255 9.32779 23.4447 9.23944 23.4447C9.16261 23.4447 9.16261 23.437 9.15109 23.3909C9.10499 23.2411 9.07426 23.0836 9.03969 22.9376C8.95134 22.5266 8.87451 22.1693 8.55952 22.1232C6.5505 21.8159 6.22783 21.3972 6.17405 21.282C6.16637 21.2628 6.15869 21.2474 6.15869 21.2359C9.15877 20.7442 10.4917 17.7403 10.5724 17.5405C10.7798 17.1218 10.8105 16.7531 10.6838 16.4381C10.4456 15.8772 9.73881 15.6583 9.27017 15.5046C9.15877 15.47 9.07042 15.4432 9.00127 15.4163C8.39818 15.1781 8.20612 14.9361 8.23301 14.794C8.26758 14.6211 8.55568 14.4521 8.80921 14.4521C8.86299 14.4521 8.92061 14.4598 8.95134 14.479C9.36236 14.671 9.74649 14.7748 10.0768 14.7748C10.5993 14.7748 10.8298 14.5366 10.8566 14.5059L10.9104 14.4444L10.9027 14.3637C10.8874 14.164 10.8835 13.9604 10.8682 13.7453C10.7875 12.397 10.6761 10.7222 11.0871 9.79639C12.3356 6.99222 14.9861 6.78095 15.7697 6.78095H16.127C16.1615 6.78095 16.173 6.78095 16.1884 6.78095Z" fill="black"/>
</svg>
