<svg width="32" height="32" viewBox="0 0 32 32" fill="none" xmlns="http://www.w3.org/2000/svg">
<rect width="32" height="32" rx="16" fill="#FF5100"/>
<path d="M4.5825 17.2409L4.41309 18.7229L4.5825 20.1794C4.58879 20.2407 4.62708 20.2834 4.67547 20.2834C4.72231 20.2834 4.76047 20.2411 4.76789 20.18L4.96876 18.7229L4.76789 17.2405C4.76077 17.1795 4.72209 17.1364 4.67547 17.1364C4.62712 17.1364 4.58874 17.1795 4.5825 17.2409ZM5.94446 16.3266C5.94446 16.3271 5.71661 18.7227 5.71661 18.7227L5.94446 21.0657C5.95091 21.1286 5.99152 21.1739 6.04091 21.1739C6.08934 21.1739 6.12908 21.1296 6.13704 21.0664L6.39621 18.7227L6.13736 16.3266C6.12942 16.2629 6.08975 16.219 6.04091 16.219C5.9918 16.219 5.95116 16.2644 5.94446 16.3266ZM7.22445 15.8028L7.02018 18.7236L7.22445 21.5495C7.22991 21.637 7.28876 21.7031 7.36055 21.7031C7.43152 21.7031 7.49013 21.6369 7.49642 21.5495L7.72875 18.7236L7.49642 15.8022C7.49022 15.7146 7.43161 15.6485 7.36055 15.6485C7.28877 15.6485 7.23024 15.7147 7.22445 15.8028ZM8.51639 16.0143L8.3238 18.7237L8.51639 21.5729C8.52193 21.6734 8.58844 21.7494 8.67217 21.7494C8.75469 21.7494 8.82145 21.6733 8.82765 21.5731L9.04649 18.7237L8.82765 16.013C8.82177 15.9129 8.75491 15.8374 8.67217 15.8374C8.5884 15.8374 8.52164 15.9135 8.51639 16.0143ZM9.80887 14.3165L9.62732 18.7248L9.80887 21.5737C9.81359 21.6851 9.90247 21.7728 9.99598 21.7728C10.089 21.7728 10.1835 21.6847 10.1835 21.573L10.3766 18.7248L10.1655 14.3165C10.1599 14.2045 10.077 14.1164 9.98398 14.1164C9.89056 14.1164 9.8133 14.2045 9.80887 14.3165ZM11.1003 13.309C11.1003 13.3093 10.9309 18.7256 10.9309 18.7256L11.1007 21.5566C11.1049 21.6803 11.1906 21.7783 11.2958 21.7783C11.4 21.7783 11.4859 21.6803 11.4909 21.5556L11.6824 18.7256L11.4909 13.309C11.4857 13.184 11.3999 13.0864 11.2957 13.0864C11.1906 13.0864 11.1049 13.1842 11.1003 13.309ZM12.3805 12.6597L12.2345 18.7262L12.3807 21.5108C12.3842 21.6601 12.5098 21.778 12.6377 21.778C12.7652 21.778 12.8948 21.6601 12.8948 21.5099L13.0366 18.7264L12.8611 12.6596C12.857 12.5091 12.7426 12.3908 12.6152 12.3908C12.4872 12.3908 12.384 12.5087 12.3805 12.6597ZM13.6607 13.0316L13.5381 18.7274L13.6607 21.4682C13.6637 21.6428 13.7874 21.7808 13.9384 21.7808C14.089 21.7808 14.2156 21.643 14.2156 21.4664L14.3502 18.7277L14.2111 13.0312C14.2074 12.8548 14.0859 12.7167 13.9353 12.7167C13.7846 12.7167 13.6637 12.8548 13.6607 13.0316ZM14.9702 11.336L14.8417 18.7289L14.9706 21.4118C14.9728 21.608 15.1288 21.7693 15.3 21.7693C15.4707 21.7693 15.6293 21.6078 15.6293 21.4088L15.7536 18.7289L15.606 11.3355C15.6035 11.1372 15.4553 10.9755 15.2845 10.9755C15.1133 10.9755 14.9728 11.1372 14.9702 11.336ZM23.6338 15.4842C23.4069 12.5265 21.2527 10.2065 18.625 10.2065C17.982 10.2065 17.3582 10.3522 16.8047 10.5987C16.5896 10.6945 16.5331 10.7933 16.5331 10.9845V21.4001C16.5331 21.601 16.6679 21.7683 16.838 21.7879C16.8452 21.7889 24.6865 21.7934 24.7373 21.7934C26.3114 21.7934 27.5868 20.324 27.5868 18.5115C27.5868 16.699 26.3101 15.2294 24.7362 15.2294C24.3457 15.2294 23.973 15.3203 23.6338 15.4842V15.4842Z" fill="white"/>
</svg>
