<svg width="32" height="32" viewBox="0 0 32 32" fill="none" xmlns="http://www.w3.org/2000/svg">
<rect width="32" height="32" rx="16" fill="#10BC4C"/>
<path fill-rule="evenodd" clip-rule="evenodd" d="M16 5C9.95 5 5 9.95 5 16C5 22.05 9.95 27 16 27C22.05 27 27 22.05 27 16C27 9.95 22.105 5 16 5ZM21.06 20.895C20.84 21.225 20.455 21.335 20.125 21.115C17.54 19.52 14.295 19.19 10.445 20.07C10.06 20.18 9.73 19.905 9.62 19.575C9.51 19.19 9.785 18.86 10.115 18.75C14.295 17.815 17.925 18.2 20.785 19.96C21.17 20.125 21.225 20.565 21.06 20.895ZM22.38 17.87C22.105 18.255 21.61 18.42 21.225 18.145C18.255 16.33 13.745 15.78 10.28 16.88C9.84 16.99 9.345 16.77 9.235 16.33C9.125 15.89 9.345 15.395 9.785 15.285C13.8 14.075 18.75 14.68 22.16 16.77C22.49 16.935 22.655 17.485 22.38 17.87ZM22.49 14.79C18.97 12.7 13.085 12.48 9.73 13.525C9.18 13.69 8.63 13.36 8.465 12.865C8.3 12.315 8.63 11.765 9.125 11.6C13.03 10.445 19.465 10.665 23.535 13.085C24.03 13.36 24.195 14.02 23.92 14.515C23.645 14.9 22.985 15.065 22.49 14.79Z" fill="white"/>
</svg>
