<svg width="33" height="33" viewBox="0 0 33 33" fill="none" xmlns="http://www.w3.org/2000/svg">
<g clip-path="url(#clip0_6027_2726)">
<path d="M26.7771 0.5H5.47288C4.05453 0.5 2.69428 1.06344 1.69136 2.06636C0.688435 3.06928 0.125 4.42953 0.125 5.84788L0.125 27.1521C0.125 28.5705 0.688435 29.9307 1.69136 30.9336C2.69428 31.9366 4.05453 32.5 5.47288 32.5H26.7771C27.4794 32.5001 28.1749 32.3618 28.8238 32.0931C29.4727 31.8244 30.0622 31.4305 30.5589 30.9339C31.0555 30.4372 31.4494 29.8477 31.7181 29.1988C31.9868 28.5499 32.1251 27.8544 32.125 27.1521V5.84788C32.1252 5.14553 31.987 4.45003 31.7183 3.80111C31.4496 3.15219 31.0557 2.56257 30.5591 2.06593C30.0624 1.5693 29.4728 1.17538 28.8239 0.906694C28.175 0.638006 27.4795 0.499809 26.7771 0.5ZM26.3074 24.9967C26.3072 25.444 26.1293 25.8729 25.8129 26.1892C25.4966 26.5054 25.0676 26.6831 24.6202 26.6831H7.63341C7.41185 26.6832 7.19245 26.6396 6.98772 26.5549C6.78299 26.4702 6.59695 26.346 6.44022 26.1894C6.28349 26.0329 6.15914 25.8469 6.07426 25.6423C5.98939 25.4376 5.94566 25.2182 5.94556 24.9967V8.00914C5.94547 7.78746 5.98906 7.56793 6.07385 7.36311C6.15864 7.15829 6.28296 6.97219 6.43971 6.81544C6.59646 6.65869 6.78256 6.53436 6.98738 6.44957C7.19221 6.36479 7.41173 6.32119 7.63341 6.32129H24.6195C24.8411 6.32129 25.0606 6.36495 25.2653 6.44978C25.47 6.53461 25.6561 6.65895 25.8127 6.81569C25.9694 6.97243 26.0937 7.15851 26.1784 7.36328C26.2631 7.56806 26.3067 7.78752 26.3066 8.00914V24.9967H26.3074Z" fill="#2E3B4E"/>
<path d="M12.7294 20.8642C12.4718 20.8634 12.2251 20.7604 12.0435 20.5778C11.8619 20.3952 11.7602 20.148 11.7607 19.8904V13.11C11.7607 12.5726 12.1942 12.1362 12.7294 12.1362H19.52C20.0567 12.1362 20.4887 12.5726 20.4887 13.11V19.8904C20.4887 20.4271 20.0567 20.8642 19.52 20.8642H12.7294Z" fill="#2E3B4E"/>
</g>
<defs>
<clipPath id="clip0_6027_2726">
<rect width="32" height="32" fill="white" transform="translate(0.125 0.5)"/>
</clipPath>
</defs>
</svg>
