<svg width="32" height="32" viewBox="0 0 32 32" fill="none" xmlns="http://www.w3.org/2000/svg">
<g clip-path="url(#clip0_6027_2581)">
<path d="M16.903 10.4877C19.4373 10.4877 21.4916 8.43335 21.4916 5.89914C21.4916 3.36493 19.4373 1.31055 16.903 1.31055C14.3688 1.31055 12.3145 3.36493 12.3145 5.89914C12.3145 8.43335 14.3688 10.4877 16.903 10.4877Z" fill="#7B83EB"/>
<path opacity="0.1" d="M16.5749 6.88232H12.4189L12.4396 6.97376L12.4416 6.98163L12.4632 7.06618C12.7652 8.21132 13.4979 9.19554 14.5082 9.81332C15.5186 10.4311 16.7286 10.6347 17.8855 10.3815V8.19293C17.8845 7.84565 17.7461 7.5129 17.5005 7.26734C17.255 7.02178 16.9222 6.88336 16.5749 6.88232Z" fill="black"/>
<path opacity="0.2" d="M15.5924 7.86572H12.7568C13.129 8.65034 13.7161 9.31325 14.4501 9.77742C15.184 10.2416 16.0346 10.488 16.903 10.4879V9.17633C16.902 8.82905 16.7635 8.4963 16.518 8.25074C16.2724 8.00517 15.9397 7.86676 15.5924 7.86572Z" fill="black"/>
<path d="M27.2264 10.815C29.1269 10.815 30.6676 9.27434 30.6676 7.37382C30.6676 5.47329 29.1269 3.93262 27.2264 3.93262C25.3258 3.93262 23.7852 5.47329 23.7852 7.37382C23.7852 9.27434 25.3258 10.815 27.2264 10.815Z" fill="#5059C9"/>
<path d="M30.1754 11.7983H22.4465C22.2796 11.7983 22.1196 11.8646 22.0016 11.9826C21.8836 12.1006 21.8173 12.2607 21.8173 12.4276V20.4013C21.796 21.5554 22.1718 22.6817 22.8819 23.5917C23.5919 24.5016 24.593 25.14 25.7176 25.3999C26.4339 25.5502 27.1746 25.5389 27.8859 25.3668C28.5973 25.1946 29.2612 24.8661 29.8295 24.4049C30.3978 23.9438 30.8562 23.3618 31.1711 22.7012C31.4861 22.0406 31.6498 21.318 31.6502 20.5862V13.2731C31.6502 12.882 31.4949 12.5069 31.2183 12.2303C30.9417 11.9537 30.5666 11.7983 30.1754 11.7983Z" fill="#5059C9"/>
<path d="M24.7683 13.2731V22.6135C24.7693 24.3445 24.1989 26.0274 23.1456 27.401C22.0923 28.7747 20.6151 29.7622 18.9432 30.2105C17.2712 30.6587 15.4981 30.5426 13.8989 29.88C12.2998 29.2175 10.964 28.0457 10.099 26.5463C9.90977 26.2319 9.7454 25.9032 9.60737 25.5631C9.47868 25.2425 9.37031 24.9142 9.28291 24.5799C9.12082 23.937 9.03827 23.2766 9.03711 22.6135V13.2731C9.03685 13.0794 9.07482 12.8875 9.14885 12.7085C9.22287 12.5294 9.33149 12.3667 9.46849 12.2297C9.60549 12.0927 9.76818 11.9841 9.94722 11.9101C10.1263 11.8361 10.3182 11.7981 10.5119 11.7983H23.2935C23.4873 11.7981 23.6791 11.8361 23.8582 11.9101C24.0372 11.9841 24.1999 12.0927 24.3369 12.2297C24.4739 12.3667 24.5826 12.5294 24.6566 12.7085C24.7306 12.8875 24.7686 13.0794 24.7683 13.2731Z" fill="#7B83EB"/>
<path opacity="0.2" d="M15.5924 7.86572H12.7568C13.129 8.65034 13.7161 9.31325 14.4501 9.77742C15.184 10.2416 16.0346 10.488 16.903 10.4879V9.17633C16.902 8.82905 16.7635 8.4963 16.518 8.25074C16.2724 8.00517 15.9397 7.86676 15.5924 7.86572Z" fill="black"/>
<path opacity="0.1" d="M17.8859 11.7983V24.2555C17.8859 24.5519 17.7845 24.8393 17.5985 25.0701C17.4124 25.3008 17.153 25.4609 16.8634 25.5238C16.7709 25.5513 16.6747 25.5646 16.5783 25.5631H9.60737C9.47868 25.2425 9.37031 24.9142 9.28291 24.5799C9.12082 23.937 9.03827 23.2766 9.03711 22.6135V13.2731C9.03685 13.0794 9.07482 12.8875 9.14885 12.7085C9.22287 12.5294 9.33149 12.3667 9.46849 12.2297C9.60549 12.0927 9.76818 11.9841 9.94722 11.9101C10.1263 11.8361 10.3182 11.7981 10.5119 11.7983H17.8859Z" fill="black"/>
<path opacity="0.2" d="M16.9027 11.7983V25.2387C16.9041 25.3352 16.8909 25.4313 16.8634 25.5238C16.8005 25.8135 16.6404 26.0729 16.4097 26.2589C16.1789 26.4449 15.8914 26.5464 15.5951 26.5463H10.099C9.90977 26.2319 9.7454 25.9032 9.60737 25.5631C9.47868 25.2425 9.37031 24.9142 9.28291 24.5799C9.12082 23.937 9.03827 23.2766 9.03711 22.6135V13.2731C9.03685 13.0794 9.07482 12.8875 9.14885 12.7085C9.22287 12.5294 9.33149 12.3667 9.46849 12.2297C9.60549 12.0927 9.76818 11.9841 9.94722 11.9101C10.1263 11.8361 10.3182 11.7981 10.5119 11.7983H16.9027Z" fill="black"/>
<path opacity="0.2" d="M16.9027 11.7983V23.2723C16.9012 23.6186 16.7629 23.9503 16.518 24.1952C16.2731 24.4401 15.9414 24.5784 15.5951 24.5799H9.28291C9.12082 23.937 9.03827 23.2766 9.03711 22.6135V13.2731C9.03685 13.0794 9.07482 12.8875 9.14885 12.7085C9.22287 12.5294 9.33149 12.3667 9.46849 12.2297C9.60549 12.0927 9.76818 11.9841 9.94722 11.9101C10.1263 11.8361 10.3182 11.7981 10.5119 11.7983H16.9027Z" fill="black"/>
<path opacity="0.2" d="M10.5119 11.7983C10.3182 11.7981 10.1263 11.8361 9.94722 11.9101C9.76818 11.9841 9.60549 12.0927 9.46849 12.2297C9.33149 12.3667 9.22287 12.5294 9.14885 12.7085C9.07482 12.8875 9.03685 13.0794 9.03711 13.2731V22.6135C9.03827 23.2766 9.12082 23.937 9.28291 24.5799H14.6119C14.9582 24.5784 15.2899 24.4401 15.5348 24.1952C15.7797 23.9503 15.918 23.6186 15.9195 23.2723V11.7983H10.5119Z" fill="black"/>
<path d="M1.49908 7.86572H14.6091C14.9567 7.86572 15.29 8.0038 15.5358 8.24959C15.7816 8.49538 15.9197 8.82873 15.9197 9.17633V22.2863C15.9197 22.6339 15.7816 22.9673 15.5358 23.2131C15.29 23.4588 14.9567 23.5969 14.6091 23.5969H1.49908C1.15149 23.5969 0.81813 23.4588 0.572344 23.2131C0.326558 22.9673 0.188477 22.6339 0.188477 22.2863L0.188477 9.17633C0.188477 8.82873 0.326558 8.49538 0.572344 8.24959C0.81813 8.0038 1.15149 7.86572 1.49908 7.86572Z" fill="#4B53BC"/>
<path d="M11.9669 12.7572H9.02713V20.6425H7.09809V12.7572H4.14062V10.8203H11.9669V12.7572Z" fill="white"/>
</g>
<defs>
<clipPath id="clip0_6027_2581">
<rect width="32" height="31.4624" fill="white"/>
</clipPath>
</defs>
</svg>
