<svg width="32" height="32" viewBox="0 0 32 32" fill="none" xmlns="http://www.w3.org/2000/svg">
<g clip-path="url(#clip0_6027_2759)">
<path d="M13.1446 8.5H13.1622C13.2965 8.65411 13.4484 8.7906 13.5915 8.9381L14.5646 9.91118V9.92879C14.0935 10.3977 13.6245 10.871 13.1534 11.34C12.6801 10.8688 12.2089 10.3955 11.7356 9.92439C11.7599 9.87816 11.806 9.84733 11.8413 9.80991C12.275 9.37181 12.7153 8.94031 13.1446 8.5ZM15.9845 8.5H16.0022C16.0154 8.51981 16.0286 8.53743 16.0462 8.55504C16.5019 9.00635 16.9511 9.46427 17.4111 9.91338C17.4001 9.9398 17.3759 9.95741 17.3561 9.97723C16.9004 10.4307 16.4469 10.8865 15.9912 11.34C15.5156 10.871 15.0489 10.3933 14.5712 9.92659C15.0335 9.44446 15.52 8.97993 15.9845 8.5ZM18.8245 8.5H18.8421C18.9302 8.60567 19.0337 8.69594 19.1283 8.795C19.485 9.15165 19.8395 9.5061 20.1961 9.86275C20.2137 9.88256 20.2423 9.90017 20.2489 9.92879C19.7712 10.3933 19.3089 10.8754 18.8289 11.34L17.475 9.98603C17.453 9.96181 17.4243 9.9442 17.4133 9.91338C17.6533 9.68002 17.8867 9.44005 18.1244 9.20449C18.3578 8.96893 18.5956 8.73997 18.8245 8.5ZM14.591 12.7379C15.0555 12.2734 15.5222 11.8089 15.9867 11.3422L16.0065 11.351C16.4732 11.8199 16.94 12.2888 17.4111 12.7534C17.3957 12.7886 17.3627 12.8084 17.3384 12.837C16.9995 13.1738 16.6604 13.5151 16.3213 13.8519C16.2113 13.9576 16.1056 14.0765 15.9934 14.1755C15.8326 14.0302 15.6851 13.8673 15.5288 13.7176C15.2118 13.4006 14.897 13.0836 14.5778 12.7688C14.5822 12.76 14.5866 12.7467 14.591 12.7379ZM0.00585938 18.845H4.2416C4.2438 19.184 4.2438 19.5231 4.2416 19.8599H2.71594V23.8667C2.71374 23.9327 2.72034 23.9988 2.70713 24.0648H1.52932C1.53372 22.6624 1.53152 21.2623 1.53152 19.8599H0.00585938V18.845ZM7.77505 18.845C8.17133 18.845 8.5676 18.845 8.96388 18.8472C8.96167 20.5864 8.96828 22.3256 8.95947 24.0648H7.77725C7.77065 23.6025 7.77505 23.1402 7.77285 22.6778C7.77505 21.401 7.77285 20.1241 7.77505 18.845ZM28.7358 18.845C29.1321 18.845 29.5283 18.845 29.9246 18.8472V23.0169C30.6137 23.0212 31.305 23.0191 31.9941 23.0191V24.0648H28.738C28.7314 22.3256 28.738 20.5864 28.7358 18.845ZM17.5608 20.5952C17.442 20.1857 17.2108 19.8137 16.8894 19.5341C16.4645 19.1576 15.9097 18.9529 15.3527 18.8802C15.0379 18.834 14.7187 18.8472 14.4017 18.845H12.9949C12.9685 18.845 12.9399 18.8472 12.9135 18.8516C12.9201 20.5754 12.9135 22.2992 12.9179 24.0229C12.9157 24.0339 12.9135 24.0538 12.9113 24.0648H14.9454C15.1282 24.0317 15.3153 24.0339 15.4958 23.9943C16.1122 23.882 16.7044 23.576 17.1073 23.0895C17.4045 22.7372 17.5873 22.2947 17.6467 21.839C17.6995 21.423 17.6775 20.9959 17.5608 20.5952ZM16.2201 22.3278C16.0726 22.5634 15.8547 22.7505 15.6015 22.865C15.3725 22.9706 15.1193 23.0191 14.8683 23.0257C14.6041 23.0279 14.34 23.0257 14.0758 23.0279C14.0626 22.7351 14.0736 22.4423 14.0692 22.1495C14.0692 21.3856 14.0692 20.6239 14.0714 19.8599H14.8882C15.2977 19.8687 15.7138 20.0096 16.011 20.3002C16.2773 20.5578 16.4271 20.9211 16.4513 21.2887C16.4755 21.6475 16.4094 22.0196 16.2201 22.3278ZM25.0725 22.8363C24.5749 21.6277 24.0796 20.4169 23.5777 19.2104C23.5314 19.0893 23.483 18.9661 23.4279 18.8494C23.0184 18.8428 22.609 18.8428 22.1995 18.8494C21.4994 20.5336 20.7993 22.2177 20.0992 23.8997C20.0772 23.9547 20.0508 24.0076 20.0398 24.0648H21.3057C21.4312 23.717 21.5655 23.3735 21.691 23.0257C22.4086 23.0147 23.1285 23.0235 23.8484 23.0213C23.8859 23.0103 23.8969 23.0499 23.9057 23.0763C24.0268 23.4065 24.1501 23.7346 24.2689 24.0648H25.5745C25.4159 23.6509 25.2398 23.2458 25.0725 22.8363ZM22.0255 22.0988C22.0189 22.0526 22.0476 22.013 22.0608 21.9711C22.3007 21.3437 22.5473 20.7163 22.7851 20.0888C22.7895 20.0866 22.7983 20.0844 22.8027 20.0844C23.0515 20.7449 23.3046 21.4031 23.5556 22.0636C23.5556 22.0724 23.5578 22.09 23.5578 22.0988C23.0471 22.0944 22.5363 22.0944 22.0255 22.0988Z" fill="black" stroke="black" stroke-width="0.161675"/>
</g>
<defs>
<clipPath id="clip0_6027_2759">
<rect width="32" height="15.5648" fill="white" transform="translate(0 8.5)"/>
</clipPath>
</defs>
</svg>
