<svg width="32" height="32" viewBox="0 0 32 32" fill="none" xmlns="http://www.w3.org/2000/svg">
<rect width="32" height="32" rx="16" fill="black"/>
<path d="M25.4996 11.3845V14.7826C25.3169 14.7826 25.0976 14.8191 24.8784 14.8191C23.2342 14.8191 21.6996 14.198 20.5303 13.2114V20.446C20.5303 21.9076 20.0553 23.296 19.215 24.3922C18.0457 25.9634 16.1457 27.023 13.99 27.023C11.6515 27.023 9.60535 25.7807 8.47266 23.9537C9.64189 25.0499 11.213 25.7441 12.9303 25.7441C15.0496 25.7441 16.9496 24.721 18.1188 23.1134C18.9226 22.0172 19.4342 20.6653 19.4342 19.1672V11.8961C20.6034 12.9191 22.1015 13.5037 23.7823 13.5037C24.0015 13.5037 24.1842 13.5037 24.4034 13.4672V11.2749C24.7323 11.348 25.0246 11.3845 25.3534 11.3845H25.4996Z" fill="#FF004F"/>
<path d="M14.9037 13.9057V17.6691C14.648 17.5961 14.3556 17.5595 14.0999 17.5595C12.4922 17.5595 11.1768 18.9114 11.1768 20.5557C11.1768 20.9211 11.2499 21.2499 11.3595 21.5787C10.6287 21.0307 10.1172 20.1538 10.1172 19.1672C10.1172 17.523 11.4326 16.1711 13.0403 16.1711C13.3326 16.1711 13.5883 16.2076 13.8441 16.2807V13.8691C13.9172 13.8691 13.9903 13.8691 14.0633 13.8691C14.3556 13.8691 14.648 13.8691 14.9037 13.9057Z" fill="#FF004F"/>
<path d="M21.0789 8.6805C20.4212 8.09589 19.9462 7.29204 19.6904 6.45166H20.5674C20.5674 6.63435 20.5674 6.78051 20.5674 6.9632C20.6404 7.54781 20.8231 8.13243 21.0789 8.6805Z" fill="#FF004F"/>
<path d="M24.4407 11.3113V13.5036C24.258 13.5401 24.0388 13.5401 23.8196 13.5401C22.1754 13.5401 20.6407 12.919 19.4715 11.9324V19.167C19.4715 20.6286 18.9965 22.017 18.1561 23.1132C16.9504 24.7209 15.0869 25.744 12.9677 25.744C11.2504 25.744 9.67921 25.0497 8.50998 23.9536C7.88882 22.9305 7.52344 21.7613 7.52344 20.4824C7.52344 16.9382 10.3369 14.0517 13.8446 13.942V16.3536C13.5888 16.2805 13.2965 16.244 13.0407 16.244C11.433 16.244 10.1177 17.5959 10.1177 19.2401C10.1177 20.2267 10.5927 21.1401 11.36 21.6516C11.7619 22.7843 12.858 23.6247 14.1004 23.6247C15.708 23.6247 17.0234 22.2728 17.0234 20.6286V6.45166H19.6907C19.9465 7.32858 20.4215 8.09589 21.0792 8.6805C21.7369 9.99589 22.9792 10.9824 24.4407 11.3113Z" fill="white"/>
<path d="M13.8442 12.6268V13.8691C10.3365 13.9787 7.52308 16.8652 7.52308 20.4095C7.52308 21.6883 7.88846 22.8575 8.50961 23.8806C7.26731 22.6749 6.5 20.9941 6.5 19.0941C6.5 15.4768 9.42307 12.5537 13.0038 12.5537C13.2961 12.5537 13.5885 12.5902 13.8442 12.6268Z" fill="#00F7EF"/>
<path d="M19.6901 6.45185H17.0228V20.5557C17.0228 22.1999 15.7074 23.5518 14.0998 23.5518C12.8209 23.5518 11.7613 22.748 11.3594 21.5788C11.8344 21.9076 12.419 22.1268 13.0401 22.1268C14.6478 22.1268 15.9632 20.8115 15.9632 19.1672V5.02686H19.5074V5.09993C19.5074 5.24609 19.5074 5.39224 19.544 5.53839C19.544 5.8307 19.6171 6.15955 19.6901 6.45185Z" fill="#00F7EF"/>
<path d="M24.4401 9.95951V11.2749C22.9785 10.9826 21.7362 9.99605 21.042 8.68066C21.9555 9.52105 23.1247 9.99605 24.4401 9.95951Z" fill="#00F7EF"/>
</svg>
