<svg width="32" height="33" viewBox="0 0 32 33" fill="none" xmlns="http://www.w3.org/2000/svg">
<g clip-path="url(#clip0_6027_2767)">
<path d="M28.875 0.5H3.125C1.39911 0.5 0 1.89911 0 3.625V29.375C0 31.1009 1.39911 32.5 3.125 32.5H28.875C30.6009 32.5 32 31.1009 32 29.375V3.625C32 1.89911 30.6009 0.5 28.875 0.5Z" fill="url(#paint0_linear_6027_2767)"/>
<path d="M23.9242 8.5H19.0758C18.4817 8.5 18 9.02766 18 9.67857V18.3214C18 18.9723 18.4817 19.5 19.0758 19.5H23.9242C24.5183 19.5 25 18.9723 25 18.3214V9.67857C25 9.02766 24.5183 8.5 23.9242 8.5Z" fill="white"/>
<path d="M13.7705 8.5H8.22951C7.55047 8.5 7 9.01894 7 9.65909V24.3409C7 24.9811 7.55047 25.5 8.22951 25.5H13.7705C14.4495 25.5 15 24.9811 15 24.3409V9.65909C15 9.01894 14.4495 8.5 13.7705 8.5Z" fill="white"/>
</g>
<defs>
<linearGradient id="paint0_linear_6027_2767" x1="1600" y1="0.5" x2="1600" y2="3200.5" gradientUnits="userSpaceOnUse">
<stop stop-color="#0091E6"/>
<stop offset="1" stop-color="#0079BF"/>
</linearGradient>
<clipPath id="clip0_6027_2767">
<rect y="0.5" width="32" height="32" rx="16" fill="white"/>
</clipPath>
</defs>
</svg>
