<svg width="32" height="32" viewBox="0 0 32 32" fill="none" xmlns="http://www.w3.org/2000/svg">
<g clip-path="url(#clip0_5954_21468)">
<path d="M27.2 0H4.8C2.14903 0 0 2.14903 0 4.8V27.2C0 29.851 2.14903 32 4.8 32H27.2C29.851 32 32 29.851 32 27.2V4.8C32 2.14903 29.851 0 27.2 0Z" fill="#3396CD"/>
<path d="M23.8377 6.58105C24.5252 7.7123 24.8314 8.8748 24.8314 10.3498C24.8314 15.0436 20.8252 21.1436 17.5689 25.4248H10.1439L7.16895 7.6123L13.6752 6.99355L15.2564 19.6686C16.7252 17.2686 18.5439 13.4998 18.5439 10.9373C18.5439 9.53105 18.3002 8.5748 17.9252 7.7873L23.8377 6.58105Z" fill="white"/>
</g>
<defs>
<clipPath id="clip0_5954_21468">
<rect width="32" height="32" rx="16" fill="white"/>
</clipPath>
</defs>
</svg>
