<svg width="32" height="33" viewBox="0 0 32 33" fill="none" xmlns="http://www.w3.org/2000/svg">
<g clip-path="url(#clip0_6026_3854)">
<path d="M28 0.5H4C1.79086 0.5 0 2.29086 0 4.5V28.5C0 30.7091 1.79086 32.5 4 32.5H28C30.2091 32.5 32 30.7091 32 28.5V4.5C32 2.29086 30.2091 0.5 28 0.5Z" fill="#7B519D"/>
<path fill-rule="evenodd" clip-rule="evenodd" d="M24.4617 20.8979C23.8397 20.4002 23.1748 19.9535 22.5205 19.4972C21.2154 18.5864 20.0217 18.5156 19.0478 19.981C18.5009 20.8037 17.7353 20.8397 16.9349 20.4788C14.728 19.4845 13.024 17.9525 12.0258 15.7236C11.5842 14.7376 11.59 13.8535 12.6232 13.156C13.1701 12.7872 13.7212 12.3508 13.6772 11.5448C13.6196 10.494 11.0519 6.98212 10.0379 6.61147C9.61831 6.45806 9.20048 6.46799 8.77362 6.61059C6.39593 7.40511 5.41115 9.34817 6.3543 11.6488C9.16796 18.5128 14.1196 23.2913 20.9358 26.2079C21.3244 26.3739 21.7562 26.4403 21.9748 26.4999C23.5266 26.5154 25.3445 25.0297 25.8695 23.5553C26.375 22.1368 25.3067 21.5737 24.4617 20.8979Z" fill="white"/>
<path fill-rule="evenodd" clip-rule="evenodd" d="M17.0101 7.54907C21.9834 8.28433 24.2771 10.5578 24.9104 15.3733C24.9691 15.8182 24.7968 16.4875 25.4569 16.4998C26.1468 16.5125 25.9806 15.8531 25.9864 15.4078C26.0447 10.8724 21.9312 6.66796 17.1539 6.51293C16.7934 6.56276 16.0476 6.27396 16.0011 7.05059C15.9701 7.57424 16.598 7.48816 17.0101 7.54907Z" fill="white"/>
<path fill-rule="evenodd" clip-rule="evenodd" d="M17.2755 9.29148C16.7778 9.28699 16.1001 9.11342 16.0771 9.87233C16.0536 10.6687 16.7645 10.5008 17.2416 10.5575C20.4813 10.9417 21.7304 12.0617 22.668 15.4171C22.8048 15.9062 22.7498 16.7005 23.507 16.477C24.0681 16.3111 23.7795 15.6714 23.7798 15.2771C23.4021 11.9916 20.4687 9.31914 17.2755 9.29148Z" fill="white"/>
<path fill-rule="evenodd" clip-rule="evenodd" d="M17.8524 12.5005C17.5101 12.5087 17.1742 12.5445 17.0484 12.8981C16.8595 13.4265 17.2569 13.5526 17.6615 13.6154C19.012 13.825 19.7227 14.5949 19.8576 15.8968C19.8941 16.2502 20.126 16.5365 20.4792 16.4962C20.9684 16.4398 21.0126 16.0188 20.9977 15.6189C21.0218 14.1562 19.3117 12.4655 17.8524 12.5005Z" fill="white"/>
</g>
<defs>
<clipPath id="clip0_6026_3854">
<rect y="0.5" width="32" height="32" rx="16" fill="white"/>
</clipPath>
</defs>
</svg>
