<svg width="32" height="32" viewBox="0 0 32 32" fill="none" xmlns="http://www.w3.org/2000/svg">
<g clip-path="url(#clip0_6027_2778)">
<path d="M31.9809 8.38697C31.8375 11.4935 29.6628 15.7482 25.4567 21.1498C21.1073 26.7895 17.426 29.6107 14.4154 29.6107C12.5517 29.6107 10.9735 27.8903 9.68327 24.4484L7.10279 14.9841C6.14535 11.5409 5.11751 9.82057 4.01927 9.82057C3.77991 9.82057 2.94407 10.3223 1.50919 11.3258L0.00390625 9.39049C1.56807 8.01577 3.12071 6.62953 4.66439 5.23177C6.76743 3.41545 8.34439 2.45929 9.39655 2.36457C11.8823 2.12521 13.4119 3.82249 13.9853 7.45513C14.6061 11.3745 15.0375 13.8129 15.2756 14.7678C15.9924 18.0177 16.7809 19.6433 17.641 19.6433C18.3105 19.6433 19.314 18.5911 20.6529 16.4881C21.9917 14.385 22.7085 12.7838 22.8033 11.6842C22.994 9.86793 22.2772 8.95913 20.6529 8.95913C19.8887 8.95913 19.0989 9.12681 18.2874 9.46089C19.8644 4.34601 22.8762 1.86153 27.3217 2.00489C30.6189 2.10089 32.1716 4.22825 31.9809 8.38697Z" fill="#1AB7EA"/>
</g>
<defs>
<clipPath id="clip0_6027_2778">
<rect width="32" height="27.6096" fill="white" transform="translate(0 2)"/>
</clipPath>
</defs>
</svg>
