<svg width="32" height="32" viewBox="0 0 32 32" fill="none" xmlns="http://www.w3.org/2000/svg">
<path d="M2.00024 6.9502C3.05024 6.9502 4.65024 6.9502 5.55024 6.9502C6.00024 6.9502 6.35024 7.2502 6.50024 7.6502C6.95024 8.9502 7.95024 11.8002 9.10024 13.7502C10.6502 16.3002 11.6502 17.2502 12.3002 17.1502C12.9502 17.0002 12.7502 15.3002 12.7502 13.9502C12.7502 12.6002 12.9002 10.3002 12.2502 9.2502L11.2502 7.8002C11.0002 7.4502 11.2502 7.0002 11.6502 7.0002H17.3502C17.9002 7.0002 18.3502 7.4502 18.3502 8.0002V15.2502C18.3502 15.2502 18.6002 16.5502 20.0002 15.2002C21.4002 13.8502 22.9002 11.3502 24.1502 8.8002L24.6502 7.6002C24.8002 7.2502 25.1502 7.0002 25.5502 7.0002H29.2502C29.9502 7.0002 30.4502 7.7002 30.2002 8.3502L29.8002 9.4002C29.8002 9.4002 28.4502 12.1002 27.0502 14.0002C25.6502 15.9502 25.3502 16.4002 25.5502 16.9002C25.7502 17.4002 29.3502 20.7502 30.2502 22.3502C30.5002 22.8002 30.7002 23.2002 30.9002 23.5502C31.2502 24.2002 30.7502 25.0502 30.0002 25.0502H25.8002C25.4502 25.0502 25.1002 24.8502 24.9502 24.5502L24.5502 23.9002C24.5502 23.9002 22.0002 20.9002 20.4502 19.9502C18.8502 19.0502 18.9002 20.3502 18.9002 20.3502V23.0002C18.9002 24.1002 18.0002 25.0002 16.9002 25.0002H15.9002C15.9002 25.0002 10.4002 25.0002 6.00024 18.4502C2.55024 13.3502 1.40024 10.0502 1.00024 8.1502C0.90024 7.5502 1.35024 6.9502 2.00024 6.9502Z" fill="#5181B8"/>
</svg>
