<svg width="32" height="32" viewBox="0 0 32 32" fill="none" xmlns="http://www.w3.org/2000/svg">
<path d="M15.9899 1.91121C15.9236 1.91228 15.8578 1.92366 15.7949 1.94496C14.7095 1.96099 13.6427 2.07739 12.6324 2.32996C12.1943 2.43664 11.7612 2.57146 11.3312 2.72871C11.2281 2.74032 11.1295 2.77678 11.0437 2.83496C10.4939 3.03597 9.96043 3.26881 9.45367 3.53746C8.62182 3.9695 7.84268 4.50597 7.11367 5.10246C7.01608 5.1421 6.92978 5.20521 6.86242 5.28621C6.79431 5.34315 6.72622 5.39998 6.65992 5.46121C5.81598 6.21138 5.0588 7.06163 4.40867 7.99996C4.21736 8.27502 4.04208 8.56154 3.87367 8.84996C3.80624 8.92584 3.75782 9.01667 3.73242 9.11496C2.99337 10.4225 2.4601 11.8636 2.17867 13.3862C2.13561 13.4763 2.1142 13.5751 2.11617 13.675C2.07893 13.8828 2.04322 14.0923 2.01992 14.3137C1.95361 14.8675 1.91992 15.4281 1.91992 16C1.91992 16.5718 1.95361 17.1324 2.01992 17.6862C2.04322 17.9076 2.07893 18.1171 2.11617 18.325C2.1144 18.4243 2.1358 18.5228 2.17867 18.6125C2.45983 20.1343 2.99152 21.5753 3.72992 22.8825C3.75569 22.9819 3.80499 23.0736 3.87367 23.15C4.04226 23.4387 4.21714 23.7259 4.40867 24.0012C5.05949 24.9404 5.8168 25.7836 6.65742 26.5375C6.72351 26.5986 6.79206 26.6544 6.85992 26.7112L6.86117 26.7125C6.92893 26.7947 7.01615 26.8587 7.11492 26.8987H7.11617C7.84459 27.4945 8.62264 28.0308 9.45367 28.4625C9.96043 28.7311 10.4939 28.9639 11.0437 29.165C11.1291 29.2229 11.2273 29.2594 11.3299 29.2712C11.7603 29.4287 12.1939 29.5632 12.6324 29.67C13.6427 29.9225 14.7095 30.0389 15.7949 30.055C15.9279 30.0999 16.072 30.0999 16.2049 30.055C17.2903 30.0389 18.3572 29.9225 19.3674 29.67C19.8056 29.5633 20.2387 29.4285 20.6687 29.2712C20.7717 29.2596 20.8704 29.2231 20.9562 29.165C21.5059 28.9639 22.0394 28.7311 22.5462 28.4625C23.378 28.0304 24.1572 27.4939 24.8862 26.8975C24.9838 26.8578 25.0701 26.7947 25.1374 26.7137C25.2062 26.6562 25.2755 26.5994 25.3424 26.5375C26.183 25.7836 26.9404 24.9404 27.5912 24.0012V24C27.7825 23.7249 27.9578 23.4384 28.1262 23.15C28.1936 23.0741 28.242 22.9832 28.2674 22.885C29.0065 21.5774 29.5397 20.1363 29.8212 18.6137C29.8642 18.5236 29.8856 18.4248 29.8837 18.325C29.9209 18.1171 29.9566 17.9076 29.9799 17.6862C30.0462 17.1324 30.0799 16.5718 30.0799 16C30.0799 15.4281 30.0462 14.8675 29.9799 14.3137C29.9566 14.0923 29.9209 13.8828 29.8837 13.675C29.8854 13.5756 29.864 13.4771 29.8212 13.3875C29.54 11.8656 29.0083 10.4246 28.2699 9.11746C28.2442 9.01805 28.1949 8.9263 28.1262 8.84996C27.9578 8.56154 27.7825 8.27502 27.5912 7.99996V7.99871C26.9412 7.06072 26.1836 6.21117 25.3399 5.46121C25.2745 5.40079 25.2071 5.34494 25.1399 5.28871C25.1395 5.28829 25.1391 5.28787 25.1387 5.28746C25.0709 5.20522 24.9837 5.1412 24.8849 5.10121C24.8845 5.10121 24.8841 5.10121 24.8837 5.10121C24.1553 4.50546 23.3772 3.96907 22.5462 3.53746C22.0394 3.26881 21.5059 3.03597 20.9562 2.83496C20.8707 2.77697 20.7725 2.74051 20.6699 2.72871C20.2395 2.57126 19.806 2.43674 19.3674 2.32996C18.3572 2.07739 17.2903 1.96099 16.2049 1.94496C16.1357 1.92152 16.063 1.9101 15.9899 1.91121ZM11.1937 2.76871C11.1893 2.77025 11.1856 2.7734 11.1812 2.77496C11.1792 2.77572 11.177 2.77544 11.1749 2.77621L11.1937 2.76871ZM20.8062 2.76871L20.8249 2.77621C20.8229 2.77544 20.8207 2.77572 20.8187 2.77496C20.8143 2.7734 20.8106 2.77026 20.8062 2.76871ZM15.3599 3.27746V5.83621C14.746 5.87504 14.1306 5.91264 13.5512 6.05371C13.5508 6.05371 13.5503 6.05371 13.5499 6.05371C13.4019 6.09 13.2576 6.14482 13.1112 6.18746L12.2362 3.78621C12.4693 3.7145 12.6935 3.6321 12.9387 3.57246C12.9399 3.57204 12.9412 3.57163 12.9424 3.57121C13.7111 3.37902 14.535 3.31944 15.3599 3.27746ZM16.6399 3.27746C17.4649 3.31944 18.2887 3.37902 19.0574 3.57121C19.0587 3.57163 19.0599 3.57204 19.0612 3.57246C19.3064 3.6321 19.5306 3.7145 19.7637 3.78621L18.8887 6.18746C18.7422 6.14482 18.5979 6.09 18.4499 6.05371C18.4495 6.05371 18.4491 6.05371 18.4487 6.05371C17.8693 5.91264 17.2538 5.87504 16.6399 5.83621V3.27746ZM11.0374 4.23246L11.9112 6.63621C11.687 6.7341 11.4587 6.81727 11.2412 6.93496L11.2399 6.93621C10.8966 7.11698 10.5902 7.3691 10.2662 7.58871C10.1354 7.60593 10.0132 7.66312 9.91617 7.75246L8.30617 5.83496C8.86475 5.41211 9.42899 4.99144 10.0487 4.66996C10.0503 4.66913 10.052 4.6683 10.0537 4.66746C10.3737 4.49781 10.7072 4.37138 11.0374 4.23246ZM20.9624 4.23246C21.2926 4.37138 21.6262 4.49781 21.9462 4.66746C21.9478 4.6683 21.9495 4.66913 21.9512 4.66996C22.5709 4.99144 23.1351 5.41211 23.6937 5.83496L22.0837 7.75246C21.9865 7.66357 21.8643 7.60683 21.7337 7.58996C21.4094 7.37019 21.1035 7.11709 20.7599 6.93621C20.5419 6.81821 20.3133 6.73432 20.0887 6.63621L20.9624 4.23246ZM7.31242 6.64121L8.96367 8.60871C8.45672 9.09208 7.97035 9.60157 7.56867 10.1837C7.53331 10.2345 7.5063 10.2876 7.47242 10.3387L5.25367 9.05746C5.32338 8.94916 5.38717 8.83453 5.45992 8.72996C5.45992 8.72954 5.45992 8.72912 5.45992 8.72871C5.99426 7.9575 6.6319 7.27443 7.31242 6.64121ZM24.6874 6.64121C25.3679 7.27443 26.0056 7.9575 26.5399 8.72871C26.5399 8.72912 26.5399 8.72954 26.5399 8.72996C26.6127 8.83453 26.6765 8.94916 26.7462 9.05746L24.5274 10.3387C24.4935 10.2876 24.4665 10.2345 24.4312 10.1837L24.4287 10.1812C24.0275 9.60017 23.5423 9.09127 23.0362 8.60871L24.6874 6.64121ZM15.3599 7.11621V9.63246C14.4259 9.72587 13.5529 10.0259 12.7799 10.4787L11.2924 8.43246C11.4791 8.31703 11.6416 8.17051 11.8374 8.06746C11.8395 8.06622 11.8416 8.06497 11.8437 8.06371C12.1685 7.88751 12.5171 7.73887 12.8724 7.60621C12.921 7.59384 12.968 7.5758 13.0124 7.55246C13.2816 7.45367 13.5583 7.36896 13.8549 7.29621L13.8537 7.29746C14.3363 7.17997 14.85 7.15298 15.3599 7.11621ZM16.6399 7.11621C17.1498 7.15297 17.6636 7.17996 18.1462 7.29746L18.1449 7.29621C18.4419 7.36906 18.7192 7.45349 18.9887 7.55246C19.0338 7.57641 19.0816 7.59488 19.1312 7.60746C19.4852 7.7398 19.8324 7.88812 20.1562 8.06371C20.1582 8.06497 20.1603 8.06622 20.1624 8.06746C20.3582 8.17051 20.5207 8.31703 20.7074 8.43246L19.2199 10.4787C18.447 10.0259 17.5739 9.72587 16.6399 9.63246V7.11621ZM10.2349 9.15371L11.7462 11.2337C11.0682 11.8396 10.517 12.5839 10.1449 13.4262L7.71367 12.6337C7.85792 12.2691 8.01649 11.9144 8.20992 11.5825C8.23958 11.5418 8.26434 11.4977 8.28367 11.4512C8.39203 11.2649 8.50204 11.0846 8.62117 10.9137C8.62159 10.9129 8.62201 10.912 8.62242 10.9112C9.03413 10.3145 9.51903 9.76978 10.0574 9.29121C10.0583 9.29038 10.0591 9.28954 10.0599 9.28871C10.0994 9.25315 10.122 9.2345 10.1499 9.21121C10.1508 9.21079 10.1516 9.21037 10.1524 9.20996C10.1813 9.19338 10.2089 9.17458 10.2349 9.15371ZM21.7649 9.15371C21.7902 9.17361 21.8169 9.19158 21.8449 9.20746C21.8737 9.23129 21.8983 9.25128 21.9399 9.28871C21.9408 9.28954 21.9416 9.29038 21.9424 9.29121C22.4808 9.76978 22.9657 10.3145 23.3774 10.9112C23.3778 10.912 23.3783 10.9129 23.3787 10.9137C23.498 11.0849 23.6076 11.2658 23.7162 11.4525C23.7357 11.4999 23.7609 11.5448 23.7912 11.5862C23.7916 11.5866 23.792 11.587 23.7924 11.5875C23.9835 11.9159 24.1422 12.269 24.2899 12.6325L21.8549 13.4262C21.4828 12.5839 20.9317 11.8396 20.2537 11.2337L21.7649 9.15371ZM4.63992 10.18L6.85867 11.46C6.7107 11.7585 6.54661 12.0503 6.43117 12.3625V12.3637C6.39766 12.4495 6.38618 12.5456 6.35492 12.6325C6.30306 12.6987 6.26477 12.7746 6.24225 12.8556C6.21973 12.9367 6.21342 13.0214 6.22367 13.105C6.17397 13.268 6.12598 13.4317 6.08492 13.5987L3.55992 13.1537C3.79581 12.1078 4.15953 11.1119 4.63992 10.18ZM27.3599 10.18C27.8403 11.1119 28.204 12.1078 28.4399 13.1537L25.9174 13.5987C25.8763 13.4283 25.8276 13.2607 25.7774 13.0937C25.7942 12.9329 25.7496 12.7717 25.6524 12.6425C25.6201 12.5516 25.61 12.4523 25.5749 12.3625C25.4561 12.0515 25.2925 11.7578 25.1437 11.4587L27.3599 10.18ZM15.9249 10.8837C15.9764 10.89 16.0284 10.89 16.0799 10.8837C17.1206 10.8997 18.0849 11.2212 18.8849 11.7662C18.9483 11.8418 19.0283 11.9017 19.1187 11.9412C19.8912 12.5349 20.4858 13.3432 20.8187 14.28C20.8271 14.3816 20.8597 14.4797 20.9137 14.5662C21.0456 15.0214 21.1199 15.5013 21.1199 16C21.1199 16.4978 21.0452 16.9767 20.9137 17.4312C20.8593 17.5184 20.8267 17.6175 20.8187 17.72C20.4862 18.6556 19.8923 19.4627 19.1212 20.0562C19.0297 20.0961 18.9487 20.1569 18.8849 20.2337C18.0836 20.7796 17.1175 21.1012 16.0749 21.1162C16.0234 21.1099 15.9714 21.1099 15.9199 21.1162C13.7249 21.0825 11.8775 19.6793 11.1812 17.72C11.1728 17.6183 11.1402 17.5202 11.0862 17.4337C10.9543 16.9785 10.8799 16.4986 10.8799 16C10.8799 15.5021 10.9547 15.0232 11.0862 14.5687C11.1406 14.4815 11.1732 14.3824 11.1812 14.28C11.878 12.3191 13.7277 10.9153 15.9249 10.8837ZM24.6674 13.855C24.7108 14.0309 24.7802 14.1964 24.8124 14.3775C24.8159 14.4271 24.8251 14.4762 24.8399 14.5237C24.8598 14.658 24.8799 14.7887 24.8937 14.9125C24.8937 14.9141 24.8937 14.9158 24.8937 14.9175C24.9357 15.2721 24.9599 15.6375 24.9599 16C24.9599 16.3624 24.9357 16.7278 24.8937 17.0825C24.8937 17.0841 24.8937 17.0858 24.8937 17.0875C24.8798 17.212 24.86 17.3435 24.8399 17.4787C24.8254 17.525 24.8162 17.5728 24.8124 17.6212C24.7802 17.8027 24.7109 17.9687 24.6674 18.145L22.2512 17.3587C22.3466 16.9202 22.3999 16.4665 22.3999 16C22.3999 15.5334 22.3466 15.0797 22.2512 14.6412L24.6674 13.855ZM7.33492 13.8562L9.74867 14.6412C9.65327 15.0797 9.59992 15.5334 9.59992 16C9.59992 16.4665 9.65327 16.9202 9.74867 17.3587L7.33492 18.1437C7.29073 17.9681 7.21952 17.801 7.18742 17.6212C7.18388 17.572 7.17465 17.5233 7.15992 17.4762C7.14004 17.342 7.11992 17.2112 7.10617 17.0875C7.10618 17.0858 7.10618 17.0841 7.10617 17.0825C7.06409 16.7278 7.03992 16.3624 7.03992 16C7.03992 15.6375 7.06409 15.2721 7.10617 14.9175C7.10618 14.9158 7.10618 14.9141 7.10617 14.9125C7.12001 14.7879 7.13989 14.6564 7.15992 14.5212C7.17437 14.4753 7.18359 14.4279 7.18742 14.38C7.21956 14.1997 7.29063 14.0322 7.33492 13.8562ZM3.29867 14.4075L5.82992 14.8537C5.78846 15.2277 5.75992 15.6112 5.75992 16C5.75992 16.3887 5.78846 16.7722 5.82992 17.1462L3.29867 17.5925C3.29719 17.5792 3.29382 17.5657 3.29242 17.5525C3.29203 17.5491 3.29161 17.5458 3.29117 17.5425C3.23028 17.037 3.19992 16.5256 3.19992 16C3.19992 15.4744 3.23028 14.9629 3.29117 14.4575C3.29161 14.4541 3.29203 14.4508 3.29242 14.4475C3.29382 14.4342 3.29719 14.4207 3.29867 14.4075ZM28.7012 14.4075C28.7026 14.4207 28.706 14.4342 28.7074 14.4475C28.7078 14.4508 28.7082 14.4541 28.7087 14.4575C28.7695 14.9629 28.7999 15.4744 28.7999 16C28.7999 16.5256 28.7696 17.037 28.7087 17.5425C28.7082 17.5458 28.7078 17.5491 28.7074 17.5525C28.706 17.5657 28.7026 17.5792 28.7012 17.5925L26.1699 17.1462C26.2114 16.7722 26.2399 16.3887 26.2399 16C26.2399 15.6112 26.2114 15.2277 26.1699 14.8537L28.7012 14.4075ZM6.08492 18.4012C6.12608 18.5686 6.17384 18.7328 6.22367 18.8962C6.2033 19.0645 6.2505 19.2339 6.35492 19.3675C6.38618 19.4543 6.39766 19.5504 6.43117 19.6362V19.6375C6.54661 19.9496 6.7107 20.2414 6.85867 20.54L4.63992 21.82C4.15953 20.888 3.79581 19.8921 3.55992 18.8462L6.08492 18.4012ZM25.9174 18.4012L28.4399 18.8462C28.204 19.8921 27.8403 20.8881 27.3599 21.82L25.1437 20.5412C25.2925 20.2422 25.4561 19.9484 25.5749 19.6375C25.6102 19.5472 25.62 19.4475 25.6524 19.3562C25.7499 19.2266 25.7946 19.0649 25.7774 18.9037C25.8274 18.7375 25.8765 18.5708 25.9174 18.4012ZM10.1449 18.5737C10.517 19.416 11.0682 20.1603 11.7462 20.7662L10.2349 22.8462C10.2096 22.8263 10.1829 22.8083 10.1549 22.7925C10.1261 22.7686 10.1015 22.7486 10.0599 22.7112C10.0591 22.7104 10.0583 22.7095 10.0574 22.7087C9.51903 22.2301 9.03413 21.6854 8.62242 21.0887C8.62201 21.0879 8.62159 21.087 8.62117 21.0862C8.50184 20.915 8.3922 20.7341 8.28367 20.5475C8.26412 20.5 8.23894 20.4551 8.20867 20.4137C8.20867 20.4133 8.20867 20.4129 8.20867 20.4125C8.0163 20.0818 7.85729 19.7293 7.71367 19.3662L10.1449 18.5737ZM21.8549 18.5737L24.2899 19.3675C24.1416 19.7323 23.9819 20.0867 23.7899 20.4162C23.7602 20.4573 23.7354 20.5018 23.7162 20.5487C23.6078 20.735 23.4978 20.9153 23.3787 21.0862C23.3783 21.087 23.3778 21.0879 23.3774 21.0887C22.9657 21.6854 22.4808 22.2301 21.9424 22.7087C21.9416 22.7095 21.9408 22.7104 21.9399 22.7112C21.9004 22.7468 21.8779 22.7654 21.8499 22.7887C21.8493 22.7892 21.8481 22.7894 21.8474 22.79C21.8185 22.8065 21.7909 22.8253 21.7649 22.8462L20.2537 20.7662C20.9317 20.1603 21.4828 19.416 21.8549 18.5737ZM12.7799 21.5212C13.5529 21.974 14.4259 22.274 15.3599 22.3675V24.8837C14.85 24.8469 14.3363 24.82 13.8537 24.7025L13.8549 24.7037C13.5579 24.6309 13.2807 24.5464 13.0112 24.4475C12.966 24.4235 12.9182 24.405 12.8687 24.3925C12.5146 24.2601 12.1674 24.1118 11.8437 23.9362C11.8416 23.9349 11.8395 23.9337 11.8374 23.9325C11.6416 23.8294 11.4791 23.6829 11.2924 23.5675L12.7799 21.5212ZM19.2199 21.5212L20.7074 23.5675C20.5207 23.6829 20.3582 23.8294 20.1624 23.9325C20.1603 23.9337 20.1582 23.9349 20.1562 23.9362C19.8313 24.1124 19.4828 24.261 19.1274 24.3937C19.0788 24.4061 19.0318 24.4241 18.9874 24.4475C18.7182 24.5462 18.4415 24.631 18.1449 24.7037L18.1462 24.7025C17.6636 24.82 17.1498 24.8469 16.6399 24.8837V22.3675C17.5739 22.274 18.447 21.974 19.2199 21.5212ZM7.47242 21.6612C7.50694 21.7133 7.5351 21.767 7.57117 21.8187C7.97237 22.3997 8.45757 22.9086 8.96367 23.3912L7.31242 25.3587C6.63034 24.7203 5.99308 24.0407 5.45992 23.2712C5.45992 23.2708 5.45992 23.2704 5.45992 23.27C5.38717 23.1654 5.32338 23.0508 5.25367 22.9425L7.47242 21.6612ZM24.5274 21.6612L26.7462 22.9425C26.6765 23.0508 26.6127 23.1654 26.5399 23.27C26.5399 23.2704 26.5399 23.2708 26.5399 23.2712C26.0068 24.0407 25.3695 24.7203 24.6874 25.3587L23.0362 23.3912C23.5423 22.9086 24.0275 22.3997 24.4287 21.8187L24.4312 21.8162C24.4665 21.7654 24.4935 21.7124 24.5274 21.6612ZM9.91617 24.2475C10.0132 24.3368 10.1354 24.394 10.2662 24.4112C10.5902 24.6308 10.8966 24.8829 11.2399 25.0637L11.2412 25.065C11.4587 25.1826 11.687 25.2658 11.9112 25.3637L11.0374 27.7675C10.7072 27.6285 10.3737 27.5021 10.0537 27.3325C10.052 27.3316 10.0503 27.3308 10.0487 27.33C9.42895 27.0084 8.86475 26.5878 8.30617 26.165L9.91617 24.2475ZM22.0837 24.2487L23.6937 26.165C23.1351 26.5878 22.5709 27.0085 21.9512 27.33C21.9495 27.3308 21.9478 27.3316 21.9462 27.3325C21.6262 27.5021 21.2926 27.6285 20.9624 27.7675L20.0887 25.3637C20.3128 25.2658 20.5411 25.1826 20.7587 25.065L20.7599 25.0637C21.1033 24.8829 21.4096 24.6308 21.7337 24.4112C21.8643 24.3943 21.9865 24.3376 22.0837 24.2487ZM13.1112 25.8125C13.2576 25.8551 13.4019 25.9099 13.5499 25.9462C13.5503 25.9462 13.5508 25.9462 13.5512 25.9462C14.1306 26.0873 14.746 26.1249 15.3599 26.1637V28.7225C14.535 28.6805 13.7112 28.6209 12.9424 28.4287C12.9412 28.4283 12.9399 28.4279 12.9387 28.4275C12.6935 28.3678 12.4693 28.2854 12.2362 28.2137L13.1112 25.8125ZM18.8887 25.8125L19.7637 28.2137C19.5306 28.2854 19.3064 28.3678 19.0612 28.4275C19.0599 28.4279 19.0587 28.4283 19.0574 28.4287C18.2887 28.6208 17.4649 28.6805 16.6399 28.7225V26.1637C17.2538 26.1249 17.8693 26.0873 18.4487 25.9462C18.4491 25.9462 18.4495 25.9462 18.4499 25.9462C18.5979 25.9099 18.7422 25.8551 18.8887 25.8125ZM11.1749 29.2237C11.1769 29.2245 11.1791 29.2242 11.1812 29.225C11.1856 29.2265 11.1892 29.2296 11.1937 29.2312L11.1749 29.2237ZM20.8249 29.2237L20.8062 29.2312C20.8107 29.2297 20.8142 29.2266 20.8187 29.225C20.8207 29.2243 20.8229 29.2244 20.8249 29.2237Z" fill="black"/>
</svg>
