<svg width="33" height="32" viewBox="0 0 33 32" fill="none" xmlns="http://www.w3.org/2000/svg">
<g clip-path="url(#clip0_6163_1837)">
<path fill-rule="evenodd" clip-rule="evenodd" d="M18.3316 1.71143C14.3758 1.71143 10.6875 3.48871 8.19851 6.64455C6.46475 8.86663 5.53163 11.6225 5.53163 14.4225V16.7777C5.53163 17.7997 5.13163 18.7777 4.46475 19.4887C3.93163 20.0225 3.26475 20.4225 2.55371 20.6004C2.82059 21.2666 3.44267 22.2887 4.55371 23.4004C5.48747 24.3777 6.59851 25.1777 7.79851 25.7556V25.7114C8.55371 24.5556 9.79851 23.8887 11.1758 23.8887C11.4427 23.8887 11.6648 23.9335 11.9316 23.9777C13.5316 24.2887 14.7758 25.5335 15.0875 27.0887H18.3758C21.7985 27.0887 25.0427 25.6666 27.3985 23.3556C31.0427 19.7114 32.1537 14.2445 30.1537 9.53351C28.1537 4.77767 23.5316 1.71143 18.3316 1.71143Z" fill="white"/>
<path fill-rule="evenodd" clip-rule="evenodd" d="M18.3319 0.111328C13.9319 0.111328 9.79882 2.06653 6.99882 5.57757C4.99882 8.11133 3.93194 11.2224 3.93194 14.4665V16.7776C3.93194 17.9776 3.08778 19.0886 1.44298 19.1776C1.04298 19.1776 0.731942 19.4886 0.687782 19.8886C0.642982 20.9555 1.79882 22.9555 3.39882 24.5555C4.50986 25.6665 5.79882 26.5555 7.1761 27.2665C6.73194 29.7113 8.64298 31.9334 11.1319 31.9334H11.1761C13.0878 31.9334 14.6878 30.6003 15.0878 28.7776H18.4209C18.7761 30.6003 20.3761 31.9334 22.3319 31.9334C22.7761 31.9334 23.2651 31.8444 23.7099 31.7113C24.8209 31.3555 25.6651 30.5113 26.0651 29.3996C26.4209 28.3776 26.3761 27.3555 26.0651 26.5113C26.954 25.9334 27.754 25.3113 28.5099 24.5555C31.2209 21.8886 32.7319 18.2444 32.7319 14.4665C32.7319 10.6444 31.2209 7.08861 28.5099 4.37757C25.7988 1.57757 22.154 0.111328 18.3319 0.111328ZM18.3319 1.71133C23.4878 1.71133 28.154 4.82237 30.154 9.57757C32.154 14.3334 31.043 19.7996 27.3988 23.4003C25.043 25.7555 21.7988 27.1334 18.3761 27.1334H15.0878C14.7761 25.5334 13.5319 24.3334 11.9319 24.0224C11.6651 23.9776 11.443 23.9334 11.1761 23.9334C9.84298 23.9334 8.55402 24.6003 7.79882 25.7555V25.8003C6.59882 25.1776 5.53194 24.3776 4.55402 23.4444C3.44298 22.3334 2.8209 21.2665 2.55402 20.6444C3.30986 20.4665 3.93194 20.0665 4.46506 19.5334C5.13194 18.7776 5.53194 17.8444 5.53194 16.8224V14.4665C5.53194 11.6665 6.46506 8.91133 8.19882 6.68861C10.6878 3.44445 14.3761 1.71133 18.3319 1.71133Z" fill="black"/>
<path fill-rule="evenodd" clip-rule="evenodd" d="M24.7318 9.62256C23.8429 9.62256 23.1318 10.3336 23.1318 11.2226C23.1318 12.1115 23.8429 12.8226 24.7318 12.8226C25.6208 12.8226 26.3318 12.1115 26.3318 11.2226C26.3318 10.3336 25.6208 9.62256 24.7318 9.62256Z" fill="black"/>
<path fill-rule="evenodd" clip-rule="evenodd" d="M15.1322 9.62256C14.2433 9.62256 13.5322 10.3336 13.5322 11.2226C13.5322 12.1115 14.2433 12.8226 15.1322 12.8226C16.0212 12.8226 16.7322 12.1115 16.7322 11.2226C16.7322 10.3336 16.0212 9.62256 15.1322 9.62256Z" fill="black"/>
<path fill-rule="evenodd" clip-rule="evenodd" d="M14.8646 15.9775C14.2873 15.9775 13.8873 16.5555 14.1535 17.0886C15.2204 19.3113 17.4425 20.7334 19.9315 20.7334C22.4204 20.7334 24.6425 19.3113 25.7094 17.0886C25.9315 16.5555 25.5756 15.9775 24.9983 15.9775C24.6873 15.9775 24.4204 16.1555 24.2873 16.4223C23.4873 18.0665 21.7983 19.1334 19.9756 19.1334C18.1094 19.1334 16.4204 18.0665 15.6646 16.4223C15.4873 16.1555 15.2204 15.9775 14.8646 15.9775Z" fill="black"/>
</g>
<defs>
<clipPath id="clip0_6163_1837">
<rect width="32" height="32" fill="white" transform="translate(0.732422)"/>
</clipPath>
</defs>
</svg>
