<svg width="32" height="32" viewBox="0 0 32 32" fill="none" xmlns="http://www.w3.org/2000/svg">
<path d="M7.31409 15.5961C7.67752 16.8227 8.13181 18.0493 8.76782 19.185C9.0404 19.6848 9.31297 20.1845 9.81269 20.5025L10.0853 20.6388C10.8121 20.7751 11.221 20.1845 11.4936 19.6848C11.857 18.8216 12.175 17.9585 12.4476 17.0499C12.493 16.8682 12.5384 16.7319 12.5839 16.5502C12.6747 16.2322 12.7656 15.9141 12.811 15.5961L16.0365 6.96461C16.7179 6.05603 17.5811 5.32916 18.5805 4.82944C19.5345 4.28429 20.6248 4.01172 21.7606 4.01172C23.3506 4.01172 24.9406 4.55687 26.2126 5.55631C28.3478 7.14633 29.5744 10.3264 29.5744 10.3264C29.7561 10.7352 29.8469 11.1895 29.8469 11.6438C29.8469 12.0527 29.7561 12.4615 29.6198 12.8704C29.4381 13.2338 29.2109 13.5973 28.9384 13.9153C28.6658 14.1878 28.3023 14.4604 27.8935 14.5967C27.5301 14.733 27.0758 14.8239 26.6669 14.8239C26.2126 14.8239 25.7583 14.733 25.3495 14.5058C24.9406 14.3241 24.5772 14.0061 24.2592 13.6881C24.2592 13.6881 24.2592 13.6427 24.2137 13.6427C24.032 13.3701 23.8503 13.0521 23.714 12.7341C23.5323 12.3252 23.3506 11.9618 23.1234 11.5984C22.9871 11.4167 22.8963 11.2349 22.76 11.0532C22.6691 10.8715 22.5329 10.7352 22.3511 10.5989C22.0331 10.3718 21.6697 10.2809 21.3517 10.4627L21.3063 10.5081C20.9428 10.7352 20.7157 11.2349 20.534 11.6438C20.0342 12.7341 19.7617 13.8244 19.4437 15.0056L19.3074 15.687L17.9445 20.0482L16.0819 24.1823C15.4005 25.0454 14.5373 25.7723 13.5379 26.2266C12.5384 26.7263 11.4481 26.9534 10.3578 26.9989C5.7695 27.0897 3.63433 22.9557 3.63433 22.9557C1.04487 18.6853 0.272575 13.0521 0.0908583 11.2349C0 10.8261 0 10.5989 0 10.5989C0 10.0538 0.136287 9.46321 0.454291 9.00892C0.726866 8.5092 1.13573 8.10034 1.63545 7.82777C2.1806 7.55519 2.72575 7.46433 3.31633 7.46433C3.86148 7.46433 4.3612 7.64605 4.86092 7.91862C5.22435 8.14577 5.54235 8.41834 5.7695 8.73635C6.17836 9.32693 6.31465 10.0992 6.36008 10.8261C6.54179 12.4615 6.8598 14.0516 7.31409 15.5961Z" fill="url(#paint0_linear_6027_2785)"/>
<path d="M7.31409 15.5961C7.67752 16.8227 8.13181 18.0493 8.76782 19.185C9.0404 19.6848 9.31297 20.1845 9.81269 20.5025L10.0853 20.6388C10.8121 20.7751 11.221 20.1845 11.4936 19.6848C11.857 18.8216 12.175 17.9585 12.4476 17.0499C12.493 16.8682 12.5384 16.7319 12.5839 16.5502C12.6747 16.2322 12.7656 15.9141 12.811 15.5961L16.0365 6.96461C16.7179 6.05603 17.5811 5.32916 18.5805 4.82944C19.5345 4.28429 20.6248 4.01172 21.7606 4.01172C23.3506 4.01172 24.9406 4.55687 26.2126 5.55631C28.3478 7.14633 29.5744 10.3264 29.5744 10.3264C29.7561 10.7352 29.8469 11.1895 29.8469 11.6438C29.8469 12.0527 29.7561 12.4615 29.6198 12.8704C29.4381 13.2338 29.2109 13.5973 28.9384 13.9153C28.6658 14.1878 28.3023 14.4604 27.8935 14.5967C27.5301 14.733 27.0758 14.8239 26.6669 14.8239C26.2126 14.8239 25.7583 14.733 25.3495 14.5058C24.9406 14.3241 24.5772 14.0061 24.2592 13.6881C24.2592 13.6881 24.2592 13.6427 24.2137 13.6427C24.032 13.3701 23.8503 13.0521 23.714 12.7341C23.5323 12.3252 23.3506 11.9618 23.1234 11.5984C22.9871 11.4167 22.8963 11.2349 22.76 11.0532C22.6691 10.8715 22.5329 10.7352 22.3511 10.5989C22.0331 10.3718 21.6697 10.2809 21.3517 10.4627L21.3063 10.5081C20.9428 10.7352 20.7157 11.2349 20.534 11.6438C20.0342 12.7341 19.7617 13.8244 19.4437 15.0056L19.3074 15.687L17.9445 20.0482L16.0819 24.1823C15.4005 25.0454 14.5373 25.7723 13.5379 26.2266C12.5384 26.7263 11.4481 26.9534 10.3578 26.9989C5.7695 27.0897 3.63433 22.9557 3.63433 22.9557C1.04487 18.6853 0.272575 13.0521 0.0908583 11.2349C0 10.8261 0 10.5989 0 10.5989C0 10.0538 0.136287 9.46321 0.454291 9.00892C0.726866 8.5092 1.13573 8.10034 1.63545 7.82777C2.1806 7.55519 2.72575 7.46433 3.31633 7.46433C3.86148 7.46433 4.3612 7.64605 4.86092 7.91862C5.22435 8.14577 5.54235 8.41834 5.7695 8.73635C6.17836 9.32693 6.31465 10.0992 6.36008 10.8261C6.54179 12.4615 6.8598 14.0516 7.31409 15.5961Z" fill="url(#paint1_radial_6027_2785)"/>
<path d="M7.31409 15.5961C7.67752 16.8227 8.13181 18.0493 8.76782 19.185C9.0404 19.6848 9.31297 20.1845 9.81269 20.5025L10.0853 20.6388C10.8121 20.7751 11.221 20.1845 11.4936 19.6848C11.857 18.8216 12.175 17.9585 12.4476 17.0499C12.493 16.8682 12.5384 16.7319 12.5839 16.5502C12.6747 16.2322 12.7656 15.9141 12.811 15.5961L16.0365 6.96461C16.7179 6.05603 17.5811 5.32916 18.5805 4.82944C19.5345 4.28429 20.6248 4.01172 21.7606 4.01172C23.3506 4.01172 24.9406 4.55687 26.2126 5.55631C28.3478 7.14633 29.5744 10.3264 29.5744 10.3264C29.7561 10.7352 29.8469 11.1895 29.8469 11.6438C29.8469 12.0527 29.7561 12.4615 29.6198 12.8704C29.4381 13.2338 29.2109 13.5973 28.9384 13.9153C28.6658 14.1878 28.3023 14.4604 27.8935 14.5967C27.5301 14.733 27.0758 14.8239 26.6669 14.8239C26.2126 14.8239 25.7583 14.733 25.3495 14.5058C24.9406 14.3241 24.5772 14.0061 24.2592 13.6881C24.2592 13.6881 24.2592 13.6427 24.2137 13.6427C24.032 13.3701 23.8503 13.0521 23.714 12.7341C23.5323 12.3252 23.3506 11.9618 23.1234 11.5984C22.9871 11.4167 22.8963 11.2349 22.76 11.0532C22.6691 10.8715 22.5329 10.7352 22.3511 10.5989C22.0331 10.3718 21.6697 10.2809 21.3517 10.4627L21.3063 10.5081C20.9428 10.7352 20.7157 11.2349 20.534 11.6438C20.0342 12.7341 19.7617 13.8244 19.4437 15.0056L19.3074 15.687L17.9445 20.0482L16.0819 24.1823C15.4005 25.0454 14.5373 25.7723 13.5379 26.2266C12.5384 26.7263 11.4481 26.9534 10.3578 26.9989C5.7695 27.0897 3.63433 22.9557 3.63433 22.9557C1.04487 18.6853 0.272575 13.0521 0.0908583 11.2349C0 10.8261 0 10.5989 0 10.5989C0 10.0538 0.136287 9.46321 0.454291 9.00892C0.726866 8.5092 1.13573 8.10034 1.63545 7.82777C2.1806 7.55519 2.72575 7.46433 3.31633 7.46433C3.86148 7.46433 4.3612 7.64605 4.86092 7.91862C5.22435 8.14577 5.54235 8.41834 5.7695 8.73635C6.17836 9.32693 6.31465 10.0992 6.36008 10.8261C6.54179 12.4615 6.8598 14.0516 7.31409 15.5961Z" fill="url(#paint2_radial_6027_2785)"/>
<path d="M7.31409 15.5961C7.67752 16.8227 8.13181 18.0493 8.76782 19.185C9.0404 19.6848 9.31297 20.1845 9.81269 20.5025L10.0853 20.6388C10.8121 20.7751 11.221 20.1845 11.4936 19.6848C11.857 18.8216 12.175 17.9585 12.4476 17.0499C12.493 16.8682 12.5384 16.7319 12.5839 16.5502C12.6747 16.2322 12.7656 15.9141 12.811 15.5961L16.0365 6.96461C16.7179 6.05603 17.5811 5.32916 18.5805 4.82944C19.5345 4.28429 20.6248 4.01172 21.7606 4.01172C23.3506 4.01172 24.9406 4.55687 26.2126 5.55631C28.3478 7.14633 29.5744 10.3264 29.5744 10.3264C29.7561 10.7352 29.8469 11.1895 29.8469 11.6438C29.8469 12.0527 29.7561 12.4615 29.6198 12.8704C29.4381 13.2338 29.2109 13.5973 28.9384 13.9153C28.6658 14.1878 28.3023 14.4604 27.8935 14.5967C27.5301 14.733 27.0758 14.8239 26.6669 14.8239C26.2126 14.8239 25.7583 14.733 25.3495 14.5058C24.9406 14.3241 24.5772 14.0061 24.2592 13.6881C24.2592 13.6881 24.2592 13.6427 24.2137 13.6427C24.032 13.3701 23.8503 13.0521 23.714 12.7341C23.5323 12.3252 23.3506 11.9618 23.1234 11.5984C22.9871 11.4167 22.8963 11.2349 22.76 11.0532C22.6691 10.8715 22.5329 10.7352 22.3511 10.5989C22.0331 10.3718 21.6697 10.2809 21.3517 10.4627L21.3063 10.5081C20.9428 10.7352 20.7157 11.2349 20.534 11.6438C20.0342 12.7341 19.7617 13.8244 19.4437 15.0056L19.3074 15.687L17.9445 20.0482L16.0819 24.1823C15.4005 25.0454 14.5373 25.7723 13.5379 26.2266C12.5384 26.7263 11.4481 26.9534 10.3578 26.9989C5.7695 27.0897 3.63433 22.9557 3.63433 22.9557C1.04487 18.6853 0.272575 13.0521 0.0908583 11.2349C0 10.8261 0 10.5989 0 10.5989C0 10.0538 0.136287 9.46321 0.454291 9.00892C0.726866 8.5092 1.13573 8.10034 1.63545 7.82777C2.1806 7.55519 2.72575 7.46433 3.31633 7.46433C3.86148 7.46433 4.3612 7.64605 4.86092 7.91862C5.22435 8.14577 5.54235 8.41834 5.7695 8.73635C6.17836 9.32693 6.31465 10.0992 6.36008 10.8261C6.54179 12.4615 6.8598 14.0516 7.31409 15.5961Z" fill="url(#paint3_radial_6027_2785)"/>
<path d="M7.31409 15.5961C7.67752 16.8227 8.13181 18.0493 8.76782 19.185C9.0404 19.6848 9.31297 20.1845 9.81269 20.5025L10.0853 20.6388C10.8121 20.7751 11.221 20.1845 11.4936 19.6848C11.857 18.8216 12.175 17.9585 12.4476 17.0499C12.493 16.8682 12.5384 16.7319 12.5839 16.5502C12.6747 16.2322 12.7656 15.9141 12.811 15.5961L16.0365 6.96461C16.7179 6.05603 17.5811 5.32916 18.5805 4.82944C19.5345 4.28429 20.6248 4.01172 21.7606 4.01172C23.3506 4.01172 24.9406 4.55687 26.2126 5.55631C28.3478 7.14633 29.5744 10.3264 29.5744 10.3264C29.7561 10.7352 29.8469 11.1895 29.8469 11.6438C29.8469 12.0527 29.7561 12.4615 29.6198 12.8704C29.4381 13.2338 29.2109 13.5973 28.9384 13.9153C28.6658 14.1878 28.3023 14.4604 27.8935 14.5967C27.5301 14.733 27.0758 14.8239 26.6669 14.8239C26.2126 14.8239 25.7583 14.733 25.3495 14.5058C24.9406 14.3241 24.5772 14.0061 24.2592 13.6881C24.2592 13.6881 24.2592 13.6427 24.2137 13.6427C24.032 13.3701 23.8503 13.0521 23.714 12.7341C23.5323 12.3252 23.3506 11.9618 23.1234 11.5984C22.9871 11.4167 22.8963 11.2349 22.76 11.0532C22.6691 10.8715 22.5329 10.7352 22.3511 10.5989C22.0331 10.3718 21.6697 10.2809 21.3517 10.4627L21.3063 10.5081C20.9428 10.7352 20.7157 11.2349 20.534 11.6438C20.0342 12.7341 19.7617 13.8244 19.4437 15.0056L19.3074 15.687L17.9445 20.0482L16.0819 24.1823C15.4005 25.0454 14.5373 25.7723 13.5379 26.2266C12.5384 26.7263 11.4481 26.9534 10.3578 26.9989C5.7695 27.0897 3.63433 22.9557 3.63433 22.9557C1.04487 18.6853 0.272575 13.0521 0.0908583 11.2349C0 10.8261 0 10.5989 0 10.5989C0 10.0538 0.136287 9.46321 0.454291 9.00892C0.726866 8.5092 1.13573 8.10034 1.63545 7.82777C2.1806 7.55519 2.72575 7.46433 3.31633 7.46433C3.86148 7.46433 4.3612 7.64605 4.86092 7.91862C5.22435 8.14577 5.54235 8.41834 5.7695 8.73635C6.17836 9.32693 6.31465 10.0992 6.36008 10.8261C6.54179 12.4615 6.8598 14.0516 7.31409 15.5961Z" fill="url(#paint4_radial_6027_2785)"/>
<path d="M7.31409 15.5961C7.67752 16.8227 8.13181 18.0493 8.76782 19.185C9.0404 19.6848 9.31297 20.1845 9.81269 20.5025L10.0853 20.6388C10.8121 20.7751 11.221 20.1845 11.4936 19.6848C11.857 18.8216 12.175 17.9585 12.4476 17.0499C12.493 16.8682 12.5384 16.7319 12.5839 16.5502C12.6747 16.2322 12.7656 15.9141 12.811 15.5961L16.0365 6.96461C16.7179 6.05603 17.5811 5.32916 18.5805 4.82944C19.5345 4.28429 20.6248 4.01172 21.7606 4.01172C23.3506 4.01172 24.9406 4.55687 26.2126 5.55631C28.3478 7.14633 29.5744 10.3264 29.5744 10.3264C29.7561 10.7352 29.8469 11.1895 29.8469 11.6438C29.8469 12.0527 29.7561 12.4615 29.6198 12.8704C29.4381 13.2338 29.2109 13.5973 28.9384 13.9153C28.6658 14.1878 28.3023 14.4604 27.8935 14.5967C27.5301 14.733 27.0758 14.8239 26.6669 14.8239C26.2126 14.8239 25.7583 14.733 25.3495 14.5058C24.9406 14.3241 24.5772 14.0061 24.2592 13.6881C24.2592 13.6881 24.2592 13.6427 24.2137 13.6427C24.032 13.3701 23.8503 13.0521 23.714 12.7341C23.5323 12.3252 23.3506 11.9618 23.1234 11.5984C22.9871 11.4167 22.8963 11.2349 22.76 11.0532C22.6691 10.8715 22.5329 10.7352 22.3511 10.5989C22.0331 10.3718 21.6697 10.2809 21.3517 10.4627L21.3063 10.5081C20.9428 10.7352 20.7157 11.2349 20.534 11.6438C20.0342 12.7341 19.7617 13.8244 19.4437 15.0056L19.3074 15.687L17.9445 20.0482L16.0819 24.1823C15.4005 25.0454 14.5373 25.7723 13.5379 26.2266C12.5384 26.7263 11.4481 26.9534 10.3578 26.9989C5.7695 27.0897 3.63433 22.9557 3.63433 22.9557C1.04487 18.6853 0.272575 13.0521 0.0908583 11.2349C0 10.8261 0 10.5989 0 10.5989C0 10.0538 0.136287 9.46321 0.454291 9.00892C0.726866 8.5092 1.13573 8.10034 1.63545 7.82777C2.1806 7.55519 2.72575 7.46433 3.31633 7.46433C3.86148 7.46433 4.3612 7.64605 4.86092 7.91862C5.22435 8.14577 5.54235 8.41834 5.7695 8.73635C6.17836 9.32693 6.31465 10.0992 6.36008 10.8261C6.54179 12.4615 6.8598 14.0516 7.31409 15.5961Z" fill="url(#paint5_radial_6027_2785)"/>
<path d="M7.31409 15.5961C7.67752 16.8227 8.13181 18.0493 8.76782 19.185C9.0404 19.6848 9.31297 20.1845 9.81269 20.5025L10.0853 20.6388C10.8121 20.7751 11.221 20.1845 11.4936 19.6848C11.857 18.8216 12.175 17.9585 12.4476 17.0499C12.493 16.8682 12.5384 16.7319 12.5839 16.5502C12.6747 16.2322 12.7656 15.9141 12.811 15.5961L16.0365 6.96461C16.7179 6.05603 17.5811 5.32916 18.5805 4.82944C19.5345 4.28429 20.6248 4.01172 21.7606 4.01172C23.3506 4.01172 24.9406 4.55687 26.2126 5.55631C28.3478 7.14633 29.5744 10.3264 29.5744 10.3264C29.7561 10.7352 29.8469 11.1895 29.8469 11.6438C29.8469 12.0527 29.7561 12.4615 29.6198 12.8704C29.4381 13.2338 29.2109 13.5973 28.9384 13.9153C28.6658 14.1878 28.3023 14.4604 27.8935 14.5967C27.5301 14.733 27.0758 14.8239 26.6669 14.8239C26.2126 14.8239 25.7583 14.733 25.3495 14.5058C24.9406 14.3241 24.5772 14.0061 24.2592 13.6881C24.2592 13.6881 24.2592 13.6427 24.2137 13.6427C24.032 13.3701 23.8503 13.0521 23.714 12.7341C23.5323 12.3252 23.3506 11.9618 23.1234 11.5984C22.9871 11.4167 22.8963 11.2349 22.76 11.0532C22.6691 10.8715 22.5329 10.7352 22.3511 10.5989C22.0331 10.3718 21.6697 10.2809 21.3517 10.4627L21.3063 10.5081C20.9428 10.7352 20.7157 11.2349 20.534 11.6438C20.0342 12.7341 19.7617 13.8244 19.4437 15.0056L19.3074 15.687L17.9445 20.0482L16.0819 24.1823C15.4005 25.0454 14.5373 25.7723 13.5379 26.2266C12.5384 26.7263 11.4481 26.9534 10.3578 26.9989C5.7695 27.0897 3.63433 22.9557 3.63433 22.9557C1.04487 18.6853 0.272575 13.0521 0.0908583 11.2349C0 10.8261 0 10.5989 0 10.5989C0 10.0538 0.136287 9.46321 0.454291 9.00892C0.726866 8.5092 1.13573 8.10034 1.63545 7.82777C2.1806 7.55519 2.72575 7.46433 3.31633 7.46433C3.86148 7.46433 4.3612 7.64605 4.86092 7.91862C5.22435 8.14577 5.54235 8.41834 5.7695 8.73635C6.17836 9.32693 6.31465 10.0992 6.36008 10.8261C6.54179 12.4615 6.8598 14.0516 7.31409 15.5961Z" fill="url(#paint6_radial_6027_2785)"/>
<path d="M7.31409 15.5961C7.67752 16.8227 8.13181 18.0493 8.76782 19.185C9.0404 19.6848 9.31297 20.1845 9.81269 20.5025L10.0853 20.6388C10.8121 20.7751 11.221 20.1845 11.4936 19.6848C11.857 18.8216 12.175 17.9585 12.4476 17.0499C12.493 16.8682 12.5384 16.7319 12.5839 16.5502C12.6747 16.2322 12.7656 15.9141 12.811 15.5961L16.0365 6.96461C16.7179 6.05603 17.5811 5.32916 18.5805 4.82944C19.5345 4.28429 20.6248 4.01172 21.7606 4.01172C23.3506 4.01172 24.9406 4.55687 26.2126 5.55631C28.3478 7.14633 29.5744 10.3264 29.5744 10.3264C29.7561 10.7352 29.8469 11.1895 29.8469 11.6438C29.8469 12.0527 29.7561 12.4615 29.6198 12.8704C29.4381 13.2338 29.2109 13.5973 28.9384 13.9153C28.6658 14.1878 28.3023 14.4604 27.8935 14.5967C27.5301 14.733 27.0758 14.8239 26.6669 14.8239C26.2126 14.8239 25.7583 14.733 25.3495 14.5058C24.9406 14.3241 24.5772 14.0061 24.2592 13.6881C24.2592 13.6881 24.2592 13.6427 24.2137 13.6427C24.032 13.3701 23.8503 13.0521 23.714 12.7341C23.5323 12.3252 23.3506 11.9618 23.1234 11.5984C22.9871 11.4167 22.8963 11.2349 22.76 11.0532C22.6691 10.8715 22.5329 10.7352 22.3511 10.5989C22.0331 10.3718 21.6697 10.2809 21.3517 10.4627L21.3063 10.5081C20.9428 10.7352 20.7157 11.2349 20.534 11.6438C20.0342 12.7341 19.7617 13.8244 19.4437 15.0056L19.3074 15.687L17.9445 20.0482L16.0819 24.1823C15.4005 25.0454 14.5373 25.7723 13.5379 26.2266C12.5384 26.7263 11.4481 26.9534 10.3578 26.9989C5.7695 27.0897 3.63433 22.9557 3.63433 22.9557C1.04487 18.6853 0.272575 13.0521 0.0908583 11.2349C0 10.8261 0 10.5989 0 10.5989C0 10.0538 0.136287 9.46321 0.454291 9.00892C0.726866 8.5092 1.13573 8.10034 1.63545 7.82777C2.1806 7.55519 2.72575 7.46433 3.31633 7.46433C3.86148 7.46433 4.3612 7.64605 4.86092 7.91862C5.22435 8.14577 5.54235 8.41834 5.7695 8.73635C6.17836 9.32693 6.31465 10.0992 6.36008 10.8261C6.54179 12.4615 6.8598 14.0516 7.31409 15.5961Z" fill="url(#paint7_radial_6027_2785)"/>
<path d="M7.31409 15.5961C7.67752 16.8227 8.13181 18.0493 8.76782 19.185C9.0404 19.6848 9.31297 20.1845 9.81269 20.5025L10.0853 20.6388C10.8121 20.7751 11.221 20.1845 11.4936 19.6848C11.857 18.8216 12.175 17.9585 12.4476 17.0499C12.493 16.8682 12.5384 16.7319 12.5839 16.5502C12.6747 16.2322 12.7656 15.9141 12.811 15.5961L16.0365 6.96461C16.7179 6.05603 17.5811 5.32916 18.5805 4.82944C19.5345 4.28429 20.6248 4.01172 21.7606 4.01172C23.3506 4.01172 24.9406 4.55687 26.2126 5.55631C28.3478 7.14633 29.5744 10.3264 29.5744 10.3264C29.7561 10.7352 29.8469 11.1895 29.8469 11.6438C29.8469 12.0527 29.7561 12.4615 29.6198 12.8704C29.4381 13.2338 29.2109 13.5973 28.9384 13.9153C28.6658 14.1878 28.3023 14.4604 27.8935 14.5967C27.5301 14.733 27.0758 14.8239 26.6669 14.8239C26.2126 14.8239 25.7583 14.733 25.3495 14.5058C24.9406 14.3241 24.5772 14.0061 24.2592 13.6881C24.2592 13.6881 24.2592 13.6427 24.2137 13.6427C24.032 13.3701 23.8503 13.0521 23.714 12.7341C23.5323 12.3252 23.3506 11.9618 23.1234 11.5984C22.9871 11.4167 22.8963 11.2349 22.76 11.0532C22.6691 10.8715 22.5329 10.7352 22.3511 10.5989C22.0331 10.3718 21.6697 10.2809 21.3517 10.4627L21.3063 10.5081C20.9428 10.7352 20.7157 11.2349 20.534 11.6438C20.0342 12.7341 19.7617 13.8244 19.4437 15.0056L19.3074 15.687L17.9445 20.0482L16.0819 24.1823C15.4005 25.0454 14.5373 25.7723 13.5379 26.2266C12.5384 26.7263 11.4481 26.9534 10.3578 26.9989C5.7695 27.0897 3.63433 22.9557 3.63433 22.9557C1.04487 18.6853 0.272575 13.0521 0.0908583 11.2349C0 10.8261 0 10.5989 0 10.5989C0 10.0538 0.136287 9.46321 0.454291 9.00892C0.726866 8.5092 1.13573 8.10034 1.63545 7.82777C2.1806 7.55519 2.72575 7.46433 3.31633 7.46433C3.86148 7.46433 4.3612 7.64605 4.86092 7.91862C5.22435 8.14577 5.54235 8.41834 5.7695 8.73635C6.17836 9.32693 6.31465 10.0992 6.36008 10.8261C6.54179 12.4615 6.8598 14.0516 7.31409 15.5961Z" fill="url(#paint8_radial_6027_2785)"/>
<path d="M7.31409 15.5961C7.67752 16.8227 8.13181 18.0493 8.76782 19.185C9.0404 19.6848 9.31297 20.1845 9.81269 20.5025L10.0853 20.6388C10.8121 20.7751 11.221 20.1845 11.4936 19.6848C11.857 18.8216 12.175 17.9585 12.4476 17.0499C12.493 16.8682 12.5384 16.7319 12.5839 16.5502C12.6747 16.2322 12.7656 15.9141 12.811 15.5961L16.0365 6.96461C16.7179 6.05603 17.5811 5.32916 18.5805 4.82944C19.5345 4.28429 20.6248 4.01172 21.7606 4.01172C23.3506 4.01172 24.9406 4.55687 26.2126 5.55631C28.3478 7.14633 29.5744 10.3264 29.5744 10.3264C29.7561 10.7352 29.8469 11.1895 29.8469 11.6438C29.8469 12.0527 29.7561 12.4615 29.6198 12.8704C29.4381 13.2338 29.2109 13.5973 28.9384 13.9153C28.6658 14.1878 28.3023 14.4604 27.8935 14.5967C27.5301 14.733 27.0758 14.8239 26.6669 14.8239C26.2126 14.8239 25.7583 14.733 25.3495 14.5058C24.9406 14.3241 24.5772 14.0061 24.2592 13.6881C24.2592 13.6881 24.2592 13.6427 24.2137 13.6427C24.032 13.3701 23.8503 13.0521 23.714 12.7341C23.5323 12.3252 23.3506 11.9618 23.1234 11.5984C22.9871 11.4167 22.8963 11.2349 22.76 11.0532C22.6691 10.8715 22.5329 10.7352 22.3511 10.5989C22.0331 10.3718 21.6697 10.2809 21.3517 10.4627L21.3063 10.5081C20.9428 10.7352 20.7157 11.2349 20.534 11.6438C20.0342 12.7341 19.7617 13.8244 19.4437 15.0056L19.3074 15.687L17.9445 20.0482L16.0819 24.1823C15.4005 25.0454 14.5373 25.7723 13.5379 26.2266C12.5384 26.7263 11.4481 26.9534 10.3578 26.9989C5.7695 27.0897 3.63433 22.9557 3.63433 22.9557C1.04487 18.6853 0.272575 13.0521 0.0908583 11.2349C0 10.8261 0 10.5989 0 10.5989C0 10.0538 0.136287 9.46321 0.454291 9.00892C0.726866 8.5092 1.13573 8.10034 1.63545 7.82777C2.1806 7.55519 2.72575 7.46433 3.31633 7.46433C3.86148 7.46433 4.3612 7.64605 4.86092 7.91862C5.22435 8.14577 5.54235 8.41834 5.7695 8.73635C6.17836 9.32693 6.31465 10.0992 6.36008 10.8261C6.54179 12.4615 6.8598 14.0516 7.31409 15.5961Z" fill="url(#paint9_radial_6027_2785)"/>
<path d="M7.31409 15.5961C7.67752 16.8227 8.13181 18.0493 8.76782 19.185C9.0404 19.6848 9.31297 20.1845 9.81269 20.5025L10.0853 20.6388C10.8121 20.7751 11.221 20.1845 11.4936 19.6848C11.857 18.8216 12.175 17.9585 12.4476 17.0499C12.493 16.8682 12.5384 16.7319 12.5839 16.5502C12.6747 16.2322 12.7656 15.9141 12.811 15.5961L16.0365 6.96461C16.7179 6.05603 17.5811 5.32916 18.5805 4.82944C19.5345 4.28429 20.6248 4.01172 21.7606 4.01172C23.3506 4.01172 24.9406 4.55687 26.2126 5.55631C28.3478 7.14633 29.5744 10.3264 29.5744 10.3264C29.7561 10.7352 29.8469 11.1895 29.8469 11.6438C29.8469 12.0527 29.7561 12.4615 29.6198 12.8704C29.4381 13.2338 29.2109 13.5973 28.9384 13.9153C28.6658 14.1878 28.3023 14.4604 27.8935 14.5967C27.5301 14.733 27.0758 14.8239 26.6669 14.8239C26.2126 14.8239 25.7583 14.733 25.3495 14.5058C24.9406 14.3241 24.5772 14.0061 24.2592 13.6881C24.2592 13.6881 24.2592 13.6427 24.2137 13.6427C24.032 13.3701 23.8503 13.0521 23.714 12.7341C23.5323 12.3252 23.3506 11.9618 23.1234 11.5984C22.9871 11.4167 22.8963 11.2349 22.76 11.0532C22.6691 10.8715 22.5329 10.7352 22.3511 10.5989C22.0331 10.3718 21.6697 10.2809 21.3517 10.4627L21.3063 10.5081C20.9428 10.7352 20.7157 11.2349 20.534 11.6438C20.0342 12.7341 19.7617 13.8244 19.4437 15.0056L19.3074 15.687L17.9445 20.0482L16.0819 24.1823C15.4005 25.0454 14.5373 25.7723 13.5379 26.2266C12.5384 26.7263 11.4481 26.9534 10.3578 26.9989C5.7695 27.0897 3.63433 22.9557 3.63433 22.9557C1.04487 18.6853 0.272575 13.0521 0.0908583 11.2349C0 10.8261 0 10.5989 0 10.5989C0 10.0538 0.136287 9.46321 0.454291 9.00892C0.726866 8.5092 1.13573 8.10034 1.63545 7.82777C2.1806 7.55519 2.72575 7.46433 3.31633 7.46433C3.86148 7.46433 4.3612 7.64605 4.86092 7.91862C5.22435 8.14577 5.54235 8.41834 5.7695 8.73635C6.17836 9.32693 6.31465 10.0992 6.36008 10.8261C6.54179 12.4615 6.8598 14.0516 7.31409 15.5961Z" fill="url(#paint10_radial_6027_2785)"/>
<path d="M7.31409 15.5961C7.67752 16.8227 8.13181 18.0493 8.76782 19.185C9.0404 19.6848 9.31297 20.1845 9.81269 20.5025L10.0853 20.6388C10.8121 20.7751 11.221 20.1845 11.4936 19.6848C11.857 18.8216 12.175 17.9585 12.4476 17.0499C12.493 16.8682 12.5384 16.7319 12.5839 16.5502C12.6747 16.2322 12.7656 15.9141 12.811 15.5961L16.0365 6.96461C16.7179 6.05603 17.5811 5.32916 18.5805 4.82944C19.5345 4.28429 20.6248 4.01172 21.7606 4.01172C23.3506 4.01172 24.9406 4.55687 26.2126 5.55631C28.3478 7.14633 29.5744 10.3264 29.5744 10.3264C29.7561 10.7352 29.8469 11.1895 29.8469 11.6438C29.8469 12.0527 29.7561 12.4615 29.6198 12.8704C29.4381 13.2338 29.2109 13.5973 28.9384 13.9153C28.6658 14.1878 28.3023 14.4604 27.8935 14.5967C27.5301 14.733 27.0758 14.8239 26.6669 14.8239C26.2126 14.8239 25.7583 14.733 25.3495 14.5058C24.9406 14.3241 24.5772 14.0061 24.2592 13.6881C24.2592 13.6881 24.2592 13.6427 24.2137 13.6427C24.032 13.3701 23.8503 13.0521 23.714 12.7341C23.5323 12.3252 23.3506 11.9618 23.1234 11.5984C22.9871 11.4167 22.8963 11.2349 22.76 11.0532C22.6691 10.8715 22.5329 10.7352 22.3511 10.5989C22.0331 10.3718 21.6697 10.2809 21.3517 10.4627L21.3063 10.5081C20.9428 10.7352 20.7157 11.2349 20.534 11.6438C20.0342 12.7341 19.7617 13.8244 19.4437 15.0056L19.3074 15.687L17.9445 20.0482L16.0819 24.1823C15.4005 25.0454 14.5373 25.7723 13.5379 26.2266C12.5384 26.7263 11.4481 26.9534 10.3578 26.9989C5.7695 27.0897 3.63433 22.9557 3.63433 22.9557C1.04487 18.6853 0.272575 13.0521 0.0908583 11.2349C0 10.8261 0 10.5989 0 10.5989C0 10.0538 0.136287 9.46321 0.454291 9.00892C0.726866 8.5092 1.13573 8.10034 1.63545 7.82777C2.1806 7.55519 2.72575 7.46433 3.31633 7.46433C3.86148 7.46433 4.3612 7.64605 4.86092 7.91862C5.22435 8.14577 5.54235 8.41834 5.7695 8.73635C6.17836 9.32693 6.31465 10.0992 6.36008 10.8261C6.54179 12.4615 6.8598 14.0516 7.31409 15.5961Z" fill="url(#paint11_radial_6027_2785)"/>
<path d="M7.31409 15.5961C7.67752 16.8227 8.13181 18.0493 8.76782 19.185C9.0404 19.6848 9.31297 20.1845 9.81269 20.5025L10.0853 20.6388C10.8121 20.7751 11.221 20.1845 11.4936 19.6848C11.857 18.8216 12.175 17.9585 12.4476 17.0499C12.493 16.8682 12.5384 16.7319 12.5839 16.5502C12.6747 16.2322 12.7656 15.9141 12.811 15.5961L16.0365 6.96461C16.7179 6.05603 17.5811 5.32916 18.5805 4.82944C19.5345 4.28429 20.6248 4.01172 21.7606 4.01172C23.3506 4.01172 24.9406 4.55687 26.2126 5.55631C28.3478 7.14633 29.5744 10.3264 29.5744 10.3264C29.7561 10.7352 29.8469 11.1895 29.8469 11.6438C29.8469 12.0527 29.7561 12.4615 29.6198 12.8704C29.4381 13.2338 29.2109 13.5973 28.9384 13.9153C28.6658 14.1878 28.3023 14.4604 27.8935 14.5967C27.5301 14.733 27.0758 14.8239 26.6669 14.8239C26.2126 14.8239 25.7583 14.733 25.3495 14.5058C24.9406 14.3241 24.5772 14.0061 24.2592 13.6881C24.2592 13.6881 24.2592 13.6427 24.2137 13.6427C24.032 13.3701 23.8503 13.0521 23.714 12.7341C23.5323 12.3252 23.3506 11.9618 23.1234 11.5984C22.9871 11.4167 22.8963 11.2349 22.76 11.0532C22.6691 10.8715 22.5329 10.7352 22.3511 10.5989C22.0331 10.3718 21.6697 10.2809 21.3517 10.4627L21.3063 10.5081C20.9428 10.7352 20.7157 11.2349 20.534 11.6438C20.0342 12.7341 19.7617 13.8244 19.4437 15.0056L19.3074 15.687L17.9445 20.0482L16.0819 24.1823C15.4005 25.0454 14.5373 25.7723 13.5379 26.2266C12.5384 26.7263 11.4481 26.9534 10.3578 26.9989C5.7695 27.0897 3.63433 22.9557 3.63433 22.9557C1.04487 18.6853 0.272575 13.0521 0.0908583 11.2349C0 10.8261 0 10.5989 0 10.5989C0 10.0538 0.136287 9.46321 0.454291 9.00892C0.726866 8.5092 1.13573 8.10034 1.63545 7.82777C2.1806 7.55519 2.72575 7.46433 3.31633 7.46433C3.86148 7.46433 4.3612 7.64605 4.86092 7.91862C5.22435 8.14577 5.54235 8.41834 5.7695 8.73635C6.17836 9.32693 6.31465 10.0992 6.36008 10.8261C6.54179 12.4615 6.8598 14.0516 7.31409 15.5961Z" fill="url(#paint12_radial_6027_2785)"/>
<path d="M7.31409 15.5961C7.67752 16.8227 8.13181 18.0493 8.76782 19.185C9.0404 19.6848 9.31297 20.1845 9.81269 20.5025L10.0853 20.6388C10.8121 20.7751 11.221 20.1845 11.4936 19.6848C11.857 18.8216 12.175 17.9585 12.4476 17.0499C12.493 16.8682 12.5384 16.7319 12.5839 16.5502C12.6747 16.2322 12.7656 15.9141 12.811 15.5961L16.0365 6.96461C16.7179 6.05603 17.5811 5.32916 18.5805 4.82944C19.5345 4.28429 20.6248 4.01172 21.7606 4.01172C23.3506 4.01172 24.9406 4.55687 26.2126 5.55631C28.3478 7.14633 29.5744 10.3264 29.5744 10.3264C29.7561 10.7352 29.8469 11.1895 29.8469 11.6438C29.8469 12.0527 29.7561 12.4615 29.6198 12.8704C29.4381 13.2338 29.2109 13.5973 28.9384 13.9153C28.6658 14.1878 28.3023 14.4604 27.8935 14.5967C27.5301 14.733 27.0758 14.8239 26.6669 14.8239C26.2126 14.8239 25.7583 14.733 25.3495 14.5058C24.9406 14.3241 24.5772 14.0061 24.2592 13.6881C24.2592 13.6881 24.2592 13.6427 24.2137 13.6427C24.032 13.3701 23.8503 13.0521 23.714 12.7341C23.5323 12.3252 23.3506 11.9618 23.1234 11.5984C22.9871 11.4167 22.8963 11.2349 22.76 11.0532C22.6691 10.8715 22.5329 10.7352 22.3511 10.5989C22.0331 10.3718 21.6697 10.2809 21.3517 10.4627L21.3063 10.5081C20.9428 10.7352 20.7157 11.2349 20.534 11.6438C20.0342 12.7341 19.7617 13.8244 19.4437 15.0056L19.3074 15.687L17.9445 20.0482L16.0819 24.1823C15.4005 25.0454 14.5373 25.7723 13.5379 26.2266C12.5384 26.7263 11.4481 26.9534 10.3578 26.9989C5.7695 27.0897 3.63433 22.9557 3.63433 22.9557C1.04487 18.6853 0.272575 13.0521 0.0908583 11.2349C0 10.8261 0 10.5989 0 10.5989C0 10.0538 0.136287 9.46321 0.454291 9.00892C0.726866 8.5092 1.13573 8.10034 1.63545 7.82777C2.1806 7.55519 2.72575 7.46433 3.31633 7.46433C3.86148 7.46433 4.3612 7.64605 4.86092 7.91862C5.22435 8.14577 5.54235 8.41834 5.7695 8.73635C6.17836 9.32693 6.31465 10.0992 6.36008 10.8261C6.54179 12.4615 6.8598 14.0516 7.31409 15.5961Z" fill="url(#paint13_radial_6027_2785)"/>
<path d="M7.31409 15.5961C7.67752 16.8227 8.13181 18.0493 8.76782 19.185C9.0404 19.6848 9.31297 20.1845 9.81269 20.5025L10.0853 20.6388C10.8121 20.7751 11.221 20.1845 11.4936 19.6848C11.857 18.8216 12.175 17.9585 12.4476 17.0499C12.493 16.8682 12.5384 16.7319 12.5839 16.5502C12.6747 16.2322 12.7656 15.9141 12.811 15.5961L16.0365 6.96461C16.7179 6.05603 17.5811 5.32916 18.5805 4.82944C19.5345 4.28429 20.6248 4.01172 21.7606 4.01172C23.3506 4.01172 24.9406 4.55687 26.2126 5.55631C28.3478 7.14633 29.5744 10.3264 29.5744 10.3264C29.7561 10.7352 29.8469 11.1895 29.8469 11.6438C29.8469 12.0527 29.7561 12.4615 29.6198 12.8704C29.4381 13.2338 29.2109 13.5973 28.9384 13.9153C28.6658 14.1878 28.3023 14.4604 27.8935 14.5967C27.5301 14.733 27.0758 14.8239 26.6669 14.8239C26.2126 14.8239 25.7583 14.733 25.3495 14.5058C24.9406 14.3241 24.5772 14.0061 24.2592 13.6881C24.2592 13.6881 24.2592 13.6427 24.2137 13.6427C24.032 13.3701 23.8503 13.0521 23.714 12.7341C23.5323 12.3252 23.3506 11.9618 23.1234 11.5984C22.9871 11.4167 22.8963 11.2349 22.76 11.0532C22.6691 10.8715 22.5329 10.7352 22.3511 10.5989C22.0331 10.3718 21.6697 10.2809 21.3517 10.4627L21.3063 10.5081C20.9428 10.7352 20.7157 11.2349 20.534 11.6438C20.0342 12.7341 19.7617 13.8244 19.4437 15.0056L19.3074 15.687L17.9445 20.0482L16.0819 24.1823C15.4005 25.0454 14.5373 25.7723 13.5379 26.2266C12.5384 26.7263 11.4481 26.9534 10.3578 26.9989C5.7695 27.0897 3.63433 22.9557 3.63433 22.9557C1.04487 18.6853 0.272575 13.0521 0.0908583 11.2349C0 10.8261 0 10.5989 0 10.5989C0 10.0538 0.136287 9.46321 0.454291 9.00892C0.726866 8.5092 1.13573 8.10034 1.63545 7.82777C2.1806 7.55519 2.72575 7.46433 3.31633 7.46433C3.86148 7.46433 4.3612 7.64605 4.86092 7.91862C5.22435 8.14577 5.54235 8.41834 5.7695 8.73635C6.17836 9.32693 6.31465 10.0992 6.36008 10.8261C6.54179 12.4615 6.8598 14.0516 7.31409 15.5961Z" fill="url(#paint14_radial_6027_2785)"/>
<path d="M7.31409 15.5961C7.67752 16.8227 8.13181 18.0493 8.76782 19.185C9.0404 19.6848 9.31297 20.1845 9.81269 20.5025L10.0853 20.6388C10.8121 20.7751 11.221 20.1845 11.4936 19.6848C11.857 18.8216 12.175 17.9585 12.4476 17.0499C12.493 16.8682 12.5384 16.7319 12.5839 16.5502C12.6747 16.2322 12.7656 15.9141 12.811 15.5961L16.0365 6.96461C16.7179 6.05603 17.5811 5.32916 18.5805 4.82944C19.5345 4.28429 20.6248 4.01172 21.7606 4.01172C23.3506 4.01172 24.9406 4.55687 26.2126 5.55631C28.3478 7.14633 29.5744 10.3264 29.5744 10.3264C29.7561 10.7352 29.8469 11.1895 29.8469 11.6438C29.8469 12.0527 29.7561 12.4615 29.6198 12.8704C29.4381 13.2338 29.2109 13.5973 28.9384 13.9153C28.6658 14.1878 28.3023 14.4604 27.8935 14.5967C27.5301 14.733 27.0758 14.8239 26.6669 14.8239C26.2126 14.8239 25.7583 14.733 25.3495 14.5058C24.9406 14.3241 24.5772 14.0061 24.2592 13.6881C24.2592 13.6881 24.2592 13.6427 24.2137 13.6427C24.032 13.3701 23.8503 13.0521 23.714 12.7341C23.5323 12.3252 23.3506 11.9618 23.1234 11.5984C22.9871 11.4167 22.8963 11.2349 22.76 11.0532C22.6691 10.8715 22.5329 10.7352 22.3511 10.5989C22.0331 10.3718 21.6697 10.2809 21.3517 10.4627L21.3063 10.5081C20.9428 10.7352 20.7157 11.2349 20.534 11.6438C20.0342 12.7341 19.7617 13.8244 19.4437 15.0056L19.3074 15.687L17.9445 20.0482L16.0819 24.1823C15.4005 25.0454 14.5373 25.7723 13.5379 26.2266C12.5384 26.7263 11.4481 26.9534 10.3578 26.9989C5.7695 27.0897 3.63433 22.9557 3.63433 22.9557C1.04487 18.6853 0.272575 13.0521 0.0908583 11.2349C0 10.8261 0 10.5989 0 10.5989C0 10.0538 0.136287 9.46321 0.454291 9.00892C0.726866 8.5092 1.13573 8.10034 1.63545 7.82777C2.1806 7.55519 2.72575 7.46433 3.31633 7.46433C3.86148 7.46433 4.3612 7.64605 4.86092 7.91862C5.22435 8.14577 5.54235 8.41834 5.7695 8.73635C6.17836 9.32693 6.31465 10.0992 6.36008 10.8261C6.54179 12.4615 6.8598 14.0516 7.31409 15.5961Z" fill="url(#paint15_radial_6027_2785)"/>
<path d="M7.31409 15.5961C7.67752 16.8227 8.13181 18.0493 8.76782 19.185C9.0404 19.6848 9.31297 20.1845 9.81269 20.5025L10.0853 20.6388C10.8121 20.7751 11.221 20.1845 11.4936 19.6848C11.857 18.8216 12.175 17.9585 12.4476 17.0499C12.493 16.8682 12.5384 16.7319 12.5839 16.5502C12.6747 16.2322 12.7656 15.9141 12.811 15.5961L16.0365 6.96461C16.7179 6.05603 17.5811 5.32916 18.5805 4.82944C19.5345 4.28429 20.6248 4.01172 21.7606 4.01172C23.3506 4.01172 24.9406 4.55687 26.2126 5.55631C28.3478 7.14633 29.5744 10.3264 29.5744 10.3264C29.7561 10.7352 29.8469 11.1895 29.8469 11.6438C29.8469 12.0527 29.7561 12.4615 29.6198 12.8704C29.4381 13.2338 29.2109 13.5973 28.9384 13.9153C28.6658 14.1878 28.3023 14.4604 27.8935 14.5967C27.5301 14.733 27.0758 14.8239 26.6669 14.8239C26.2126 14.8239 25.7583 14.733 25.3495 14.5058C24.9406 14.3241 24.5772 14.0061 24.2592 13.6881C24.2592 13.6881 24.2592 13.6427 24.2137 13.6427C24.032 13.3701 23.8503 13.0521 23.714 12.7341C23.5323 12.3252 23.3506 11.9618 23.1234 11.5984C22.9871 11.4167 22.8963 11.2349 22.76 11.0532C22.6691 10.8715 22.5329 10.7352 22.3511 10.5989C22.0331 10.3718 21.6697 10.2809 21.3517 10.4627L21.3063 10.5081C20.9428 10.7352 20.7157 11.2349 20.534 11.6438C20.0342 12.7341 19.7617 13.8244 19.4437 15.0056L19.3074 15.687L17.9445 20.0482L16.0819 24.1823C15.4005 25.0454 14.5373 25.7723 13.5379 26.2266C12.5384 26.7263 11.4481 26.9534 10.3578 26.9989C5.7695 27.0897 3.63433 22.9557 3.63433 22.9557C1.04487 18.6853 0.272575 13.0521 0.0908583 11.2349C0 10.8261 0 10.5989 0 10.5989C0 10.0538 0.136287 9.46321 0.454291 9.00892C0.726866 8.5092 1.13573 8.10034 1.63545 7.82777C2.1806 7.55519 2.72575 7.46433 3.31633 7.46433C3.86148 7.46433 4.3612 7.64605 4.86092 7.91862C5.22435 8.14577 5.54235 8.41834 5.7695 8.73635C6.17836 9.32693 6.31465 10.0992 6.36008 10.8261C6.54179 12.4615 6.8598 14.0516 7.31409 15.5961Z" fill="url(#paint16_linear_6027_2785)"/>
<path d="M7.31409 15.5961C7.67752 16.8227 8.13181 18.0493 8.76782 19.185C9.0404 19.6848 9.31297 20.1845 9.81269 20.5025L10.0853 20.6388C10.8121 20.7751 11.221 20.1845 11.4936 19.6848C11.857 18.8216 12.175 17.9585 12.4476 17.0499C12.493 16.8682 12.5384 16.7319 12.5839 16.5502C12.6747 16.2322 12.7656 15.9141 12.811 15.5961L16.0365 6.96461C16.7179 6.05603 17.5811 5.32916 18.5805 4.82944C19.5345 4.28429 20.6248 4.01172 21.7606 4.01172C23.3506 4.01172 24.9406 4.55687 26.2126 5.55631C28.3478 7.14633 29.5744 10.3264 29.5744 10.3264C29.7561 10.7352 29.8469 11.1895 29.8469 11.6438C29.8469 12.0527 29.7561 12.4615 29.6198 12.8704C29.4381 13.2338 29.2109 13.5973 28.9384 13.9153C28.6658 14.1878 28.3023 14.4604 27.8935 14.5967C27.5301 14.733 27.0758 14.8239 26.6669 14.8239C26.2126 14.8239 25.7583 14.733 25.3495 14.5058C24.9406 14.3241 24.5772 14.0061 24.2592 13.6881C24.2592 13.6881 24.2592 13.6427 24.2137 13.6427C24.032 13.3701 23.8503 13.0521 23.714 12.7341C23.5323 12.3252 23.3506 11.9618 23.1234 11.5984C22.9871 11.4167 22.8963 11.2349 22.76 11.0532C22.6691 10.8715 22.5329 10.7352 22.3511 10.5989C22.0331 10.3718 21.6697 10.2809 21.3517 10.4627L21.3063 10.5081C20.9428 10.7352 20.7157 11.2349 20.534 11.6438C20.0342 12.7341 19.7617 13.8244 19.4437 15.0056L19.3074 15.687L17.9445 20.0482L16.0819 24.1823C15.4005 25.0454 14.5373 25.7723 13.5379 26.2266C12.5384 26.7263 11.4481 26.9534 10.3578 26.9989C5.7695 27.0897 3.63433 22.9557 3.63433 22.9557C1.04487 18.6853 0.272575 13.0521 0.0908583 11.2349C0 10.8261 0 10.5989 0 10.5989C0 10.0538 0.136287 9.46321 0.454291 9.00892C0.726866 8.5092 1.13573 8.10034 1.63545 7.82777C2.1806 7.55519 2.72575 7.46433 3.31633 7.46433C3.86148 7.46433 4.3612 7.64605 4.86092 7.91862C5.22435 8.14577 5.54235 8.41834 5.7695 8.73635C6.17836 9.32693 6.31465 10.0992 6.36008 10.8261C6.54179 12.4615 6.8598 14.0516 7.31409 15.5961Z" fill="url(#paint17_linear_6027_2785)"/>
<path d="M7.31409 15.5961C7.67752 16.8227 8.13181 18.0493 8.76782 19.185C9.0404 19.6848 9.31297 20.1845 9.81269 20.5025L10.0853 20.6388C10.8121 20.7751 11.221 20.1845 11.4936 19.6848C11.857 18.8216 12.175 17.9585 12.4476 17.0499C12.493 16.8682 12.5384 16.7319 12.5839 16.5502C12.6747 16.2322 12.7656 15.9141 12.811 15.5961L16.0365 6.96461C16.7179 6.05603 17.5811 5.32916 18.5805 4.82944C19.5345 4.28429 20.6248 4.01172 21.7606 4.01172C23.3506 4.01172 24.9406 4.55687 26.2126 5.55631C28.3478 7.14633 29.5744 10.3264 29.5744 10.3264C29.7561 10.7352 29.8469 11.1895 29.8469 11.6438C29.8469 12.0527 29.7561 12.4615 29.6198 12.8704C29.4381 13.2338 29.2109 13.5973 28.9384 13.9153C28.6658 14.1878 28.3023 14.4604 27.8935 14.5967C27.5301 14.733 27.0758 14.8239 26.6669 14.8239C26.2126 14.8239 25.7583 14.733 25.3495 14.5058C24.9406 14.3241 24.5772 14.0061 24.2592 13.6881C24.2592 13.6881 24.2592 13.6427 24.2137 13.6427C24.032 13.3701 23.8503 13.0521 23.714 12.7341C23.5323 12.3252 23.3506 11.9618 23.1234 11.5984C22.9871 11.4167 22.8963 11.2349 22.76 11.0532C22.6691 10.8715 22.5329 10.7352 22.3511 10.5989C22.0331 10.3718 21.6697 10.2809 21.3517 10.4627L21.3063 10.5081C20.9428 10.7352 20.7157 11.2349 20.534 11.6438C20.0342 12.7341 19.7617 13.8244 19.4437 15.0056L19.3074 15.687L17.9445 20.0482L16.0819 24.1823C15.4005 25.0454 14.5373 25.7723 13.5379 26.2266C12.5384 26.7263 11.4481 26.9534 10.3578 26.9989C5.7695 27.0897 3.63433 22.9557 3.63433 22.9557C1.04487 18.6853 0.272575 13.0521 0.0908583 11.2349C0 10.8261 0 10.5989 0 10.5989C0 10.0538 0.136287 9.46321 0.454291 9.00892C0.726866 8.5092 1.13573 8.10034 1.63545 7.82777C2.1806 7.55519 2.72575 7.46433 3.31633 7.46433C3.86148 7.46433 4.3612 7.64605 4.86092 7.91862C5.22435 8.14577 5.54235 8.41834 5.7695 8.73635C6.17836 9.32693 6.31465 10.0992 6.36008 10.8261C6.54179 12.4615 6.8598 14.0516 7.31409 15.5961Z" fill="url(#paint18_linear_6027_2785)"/>
<path d="M7.31409 15.5961C7.67752 16.8227 8.13181 18.0493 8.76782 19.185C9.0404 19.6848 9.31297 20.1845 9.81269 20.5025L10.0853 20.6388C10.8121 20.7751 11.221 20.1845 11.4936 19.6848C11.857 18.8216 12.175 17.9585 12.4476 17.0499C12.493 16.8682 12.5384 16.7319 12.5839 16.5502C12.6747 16.2322 12.7656 15.9141 12.811 15.5961L16.0365 6.96461C16.7179 6.05603 17.5811 5.32916 18.5805 4.82944C19.5345 4.28429 20.6248 4.01172 21.7606 4.01172C23.3506 4.01172 24.9406 4.55687 26.2126 5.55631C28.3478 7.14633 29.5744 10.3264 29.5744 10.3264C29.7561 10.7352 29.8469 11.1895 29.8469 11.6438C29.8469 12.0527 29.7561 12.4615 29.6198 12.8704C29.4381 13.2338 29.2109 13.5973 28.9384 13.9153C28.6658 14.1878 28.3023 14.4604 27.8935 14.5967C27.5301 14.733 27.0758 14.8239 26.6669 14.8239C26.2126 14.8239 25.7583 14.733 25.3495 14.5058C24.9406 14.3241 24.5772 14.0061 24.2592 13.6881C24.2592 13.6881 24.2592 13.6427 24.2137 13.6427C24.032 13.3701 23.8503 13.0521 23.714 12.7341C23.5323 12.3252 23.3506 11.9618 23.1234 11.5984C22.9871 11.4167 22.8963 11.2349 22.76 11.0532C22.6691 10.8715 22.5329 10.7352 22.3511 10.5989C22.0331 10.3718 21.6697 10.2809 21.3517 10.4627L21.3063 10.5081C20.9428 10.7352 20.7157 11.2349 20.534 11.6438C20.0342 12.7341 19.7617 13.8244 19.4437 15.0056L19.3074 15.687L17.9445 20.0482L16.0819 24.1823C15.4005 25.0454 14.5373 25.7723 13.5379 26.2266C12.5384 26.7263 11.4481 26.9534 10.3578 26.9989C5.7695 27.0897 3.63433 22.9557 3.63433 22.9557C1.04487 18.6853 0.272575 13.0521 0.0908583 11.2349C0 10.8261 0 10.5989 0 10.5989C0 10.0538 0.136287 9.46321 0.454291 9.00892C0.726866 8.5092 1.13573 8.10034 1.63545 7.82777C2.1806 7.55519 2.72575 7.46433 3.31633 7.46433C3.86148 7.46433 4.3612 7.64605 4.86092 7.91862C5.22435 8.14577 5.54235 8.41834 5.7695 8.73635C6.17836 9.32693 6.31465 10.0992 6.36008 10.8261C6.54179 12.4615 6.8598 14.0516 7.31409 15.5961Z" fill="url(#paint19_linear_6027_2785)"/>
<path d="M13.9453 12.3707L15.9896 6.87375C16.6711 5.96517 17.5342 5.23831 18.5337 4.73858C19.5331 4.28429 20.6234 4.01172 21.7591 4.01172C23.3491 4.01172 24.9392 4.55687 26.2112 5.55631C28.3463 7.14633 29.5729 10.3264 29.5729 10.3264C29.7546 10.7352 29.8455 11.1895 29.8455 11.6438C29.8455 12.0527 29.7546 12.4615 29.6184 12.8704C29.4366 13.2338 29.2095 13.5973 28.9369 13.9153C28.6643 14.1878 28.3009 14.4604 27.8921 14.5967C27.5286 14.733 27.0743 14.8239 26.6655 14.8239C26.2112 14.8239 25.7569 14.733 25.348 14.5058C24.9392 14.3241 24.5757 14.0061 24.2577 13.6881C24.2577 13.6881 24.2577 13.6427 24.2123 13.6427C24.0306 13.3701 23.8489 13.0521 23.7126 12.7341C23.5309 12.3252 23.3491 11.9618 23.122 11.5984C22.9857 11.4167 22.8948 11.235 22.7586 11.0532C22.6677 10.8715 22.5314 10.7352 22.3497 10.5989C22.0317 10.3718 21.6683 10.2809 21.3503 10.4627L21.3048 10.5081C20.9414 10.7352 20.7143 11.235 20.5325 11.6438C20.0328 12.7341 19.7602 13.8244 19.4422 15.0056L19.3059 15.687L17.9431 20.0482L13.9453 12.3707Z" fill="url(#paint20_linear_6027_2785)"/>
<path d="M28.8497 7.46513C28.5772 7.46513 28.3046 7.51056 28.0774 7.55599C28.668 8.41914 29.1677 9.32773 29.5766 10.2817C29.7583 10.6906 29.8492 11.1449 29.8492 11.5992C29.8492 12.008 29.7583 12.4169 29.622 12.8258C29.4403 13.1892 29.2132 13.5526 28.9406 13.8706C28.668 14.1886 28.3046 14.4158 27.8957 14.5521C27.5323 14.6884 27.078 14.7792 26.6691 14.7792C26.124 14.7792 25.5334 14.6429 25.0791 14.3249L24.7611 15.5515C24.1705 17.5504 23.7617 18.2773 23.7617 18.2773C23.5345 18.8224 23.2619 19.3221 22.9439 19.8219C22.7168 20.1399 22.4442 20.4579 22.0808 20.5942C21.9445 20.6396 21.8082 20.6396 21.6719 20.6396C21.5356 20.6396 21.3994 20.5941 21.2631 20.5033C21.0359 20.3216 20.8088 20.049 20.6725 19.7764C20.4908 19.4584 20.3545 19.1404 20.2182 18.8224C19.9456 18.141 19.4913 16.4601 19.4913 16.4601L19.037 14.6884L18.5828 12.9166L18.2647 11.7355C17.447 8.69172 16.2659 7.19256 16.2659 7.19256C15.3573 5.87511 14.0398 4.9211 12.5407 4.37595C10.8144 3.73994 8.9972 4.10338 8.9972 4.10338C6.13517 4.64853 4.63601 6.60198 4 7.55599C4.318 7.64685 4.59058 7.73771 4.86315 7.91942C5.22659 8.14657 5.54459 8.41914 5.77174 8.73715C6.1806 9.32773 6.31689 10.1 6.36231 10.8269C6.54403 12.4169 6.86203 13.9615 7.2709 15.5061C8.22491 12.2806 9.40607 10.7815 9.40607 10.7815C9.54235 10.5997 9.67864 10.4635 9.86036 10.3726C9.95122 10.3272 10.0421 10.2817 10.1784 10.2817C10.3601 10.2817 10.5872 10.3272 10.7235 10.418C10.7689 10.418 10.7689 10.4635 10.8144 10.4635C10.9507 10.5997 11.0869 10.736 11.2232 10.9177C11.4504 11.372 11.6775 11.7809 11.8592 12.2806C12.2227 13.2801 12.5407 14.5521 12.5407 14.5521L13.4493 18.1864C14.1307 20.685 14.6758 21.8662 14.6758 21.8662C16.0841 25.0916 18.2193 26.0002 18.2193 26.0002C19.2642 26.5454 20.4453 26.8634 21.6265 26.9088C22.7622 26.9542 23.898 26.7271 24.8974 26.2274C25.9877 25.6822 26.9871 24.8645 27.7594 23.9105C28.2592 23.3199 29.0314 21.8662 29.0314 21.8662C29.8946 20.1853 30.5306 18.4136 30.9849 16.5964C31.3029 15.4607 31.5301 14.3249 31.7118 13.1438C31.8026 12.5532 31.8935 12.008 31.9389 11.4175C32.0298 10.8723 32.0298 10.3272 31.8935 9.78202C31.8481 9.69116 31.8481 9.6003 31.8026 9.50944C31.5301 8.82801 31.0303 8.28286 30.3943 7.91942C29.94 7.60142 29.3949 7.46513 28.8497 7.46513Z" fill="url(#paint21_linear_6027_2785)"/>
<path d="M28.8497 7.46513C28.5772 7.46513 28.3046 7.51056 28.0774 7.55599C28.668 8.41914 29.1677 9.32773 29.5766 10.2817C29.7583 10.6906 29.8492 11.1449 29.8492 11.5992C29.8492 12.008 29.7583 12.4169 29.622 12.8258C29.4403 13.1892 29.2132 13.5526 28.9406 13.8706C28.668 14.1886 28.3046 14.4158 27.8957 14.5521C27.5323 14.6884 27.078 14.7792 26.6691 14.7792C26.124 14.7792 25.5334 14.6429 25.0791 14.3249L24.7611 15.5515C24.1705 17.5504 23.7617 18.2773 23.7617 18.2773C23.5345 18.8224 23.2619 19.3221 22.9439 19.8219C22.7168 20.1399 22.4442 20.4579 22.0808 20.5942C21.9445 20.6396 21.8082 20.6396 21.6719 20.6396C21.5356 20.6396 21.3994 20.5941 21.2631 20.5033C21.0359 20.3216 20.8088 20.049 20.6725 19.7764C20.4908 19.4584 20.3545 19.1404 20.2182 18.8224C19.9456 18.141 19.4913 16.4601 19.4913 16.4601L19.037 14.6884L18.5828 12.9166L18.2647 11.7355C17.447 8.69172 16.2659 7.19256 16.2659 7.19256C15.3573 5.87511 14.0398 4.9211 12.5407 4.37595C10.8144 3.73994 8.9972 4.10338 8.9972 4.10338C6.13517 4.64853 4.63601 6.60198 4 7.55599C4.318 7.64685 4.59058 7.73771 4.86315 7.91942C5.22659 8.14657 5.54459 8.41914 5.77174 8.73715C6.1806 9.32773 6.31689 10.1 6.36231 10.8269C6.54403 12.4169 6.86203 13.9615 7.2709 15.5061C8.22491 12.2806 9.40607 10.7815 9.40607 10.7815C9.54235 10.5997 9.67864 10.4635 9.86036 10.3726C9.95122 10.3272 10.0421 10.2817 10.1784 10.2817C10.3601 10.2817 10.5872 10.3272 10.7235 10.418C10.7689 10.418 10.7689 10.4635 10.8144 10.4635C10.9507 10.5997 11.0869 10.736 11.2232 10.9177C11.4504 11.372 11.6775 11.7809 11.8592 12.2806C12.2227 13.2801 12.5407 14.5521 12.5407 14.5521L13.4493 18.1864C14.1307 20.685 14.6758 21.8662 14.6758 21.8662C16.0841 25.0916 18.2193 26.0002 18.2193 26.0002C19.2642 26.5454 20.4453 26.8634 21.6265 26.9088C22.7622 26.9542 23.898 26.7271 24.8974 26.2274C25.9877 25.6822 26.9871 24.8645 27.7594 23.9105C28.2592 23.3199 29.0314 21.8662 29.0314 21.8662C29.8946 20.1853 30.5306 18.4136 30.9849 16.5964C31.3029 15.4607 31.5301 14.3249 31.7118 13.1438C31.8026 12.5532 31.8935 12.008 31.9389 11.4175C32.0298 10.8723 32.0298 10.3272 31.8935 9.78202C31.8481 9.69116 31.8481 9.6003 31.8026 9.50944C31.5301 8.82801 31.0303 8.28286 30.3943 7.91942C29.94 7.60142 29.3949 7.46513 28.8497 7.46513Z" fill="url(#paint22_radial_6027_2785)"/>
<path d="M28.8497 7.46513C28.5772 7.46513 28.3046 7.51056 28.0774 7.55599C28.668 8.41914 29.1677 9.32773 29.5766 10.2817C29.7583 10.6906 29.8492 11.1449 29.8492 11.5992C29.8492 12.008 29.7583 12.4169 29.622 12.8258C29.4403 13.1892 29.2132 13.5526 28.9406 13.8706C28.668 14.1886 28.3046 14.4158 27.8957 14.5521C27.5323 14.6884 27.078 14.7792 26.6691 14.7792C26.124 14.7792 25.5334 14.6429 25.0791 14.3249L24.7611 15.5515C24.1705 17.5504 23.7617 18.2773 23.7617 18.2773C23.5345 18.8224 23.2619 19.3221 22.9439 19.8219C22.7168 20.1399 22.4442 20.4579 22.0808 20.5942C21.9445 20.6396 21.8082 20.6396 21.6719 20.6396C21.5356 20.6396 21.3994 20.5941 21.2631 20.5033C21.0359 20.3216 20.8088 20.049 20.6725 19.7764C20.4908 19.4584 20.3545 19.1404 20.2182 18.8224C19.9456 18.141 19.4913 16.4601 19.4913 16.4601L19.037 14.6884L18.5828 12.9166L18.2647 11.7355C17.447 8.69172 16.2659 7.19256 16.2659 7.19256C15.3573 5.87511 14.0398 4.9211 12.5407 4.37595C10.8144 3.73994 8.9972 4.10338 8.9972 4.10338C6.13517 4.64853 4.63601 6.60198 4 7.55599C4.318 7.64685 4.59058 7.73771 4.86315 7.91942C5.22659 8.14657 5.54459 8.41914 5.77174 8.73715C6.1806 9.32773 6.31689 10.1 6.36231 10.8269C6.54403 12.4169 6.86203 13.9615 7.2709 15.5061C8.22491 12.2806 9.40607 10.7815 9.40607 10.7815C9.54235 10.5997 9.67864 10.4635 9.86036 10.3726C9.95122 10.3272 10.0421 10.2817 10.1784 10.2817C10.3601 10.2817 10.5872 10.3272 10.7235 10.418C10.7689 10.418 10.7689 10.4635 10.8144 10.4635C10.9507 10.5997 11.0869 10.736 11.2232 10.9177C11.4504 11.372 11.6775 11.7809 11.8592 12.2806C12.2227 13.2801 12.5407 14.5521 12.5407 14.5521L13.4493 18.1864C14.1307 20.685 14.6758 21.8662 14.6758 21.8662C16.0841 25.0916 18.2193 26.0002 18.2193 26.0002C19.2642 26.5454 20.4453 26.8634 21.6265 26.9088C22.7622 26.9542 23.898 26.7271 24.8974 26.2274C25.9877 25.6822 26.9871 24.8645 27.7594 23.9105C28.2592 23.3199 29.0314 21.8662 29.0314 21.8662C29.8946 20.1853 30.5306 18.4136 30.9849 16.5964C31.3029 15.4607 31.5301 14.3249 31.7118 13.1438C31.8026 12.5532 31.8935 12.008 31.9389 11.4175C32.0298 10.8723 32.0298 10.3272 31.8935 9.78202C31.8481 9.69116 31.8481 9.6003 31.8026 9.50944C31.5301 8.82801 31.0303 8.28286 30.3943 7.91942C29.94 7.60142 29.3949 7.46513 28.8497 7.46513Z" fill="url(#paint23_radial_6027_2785)"/>
<path d="M28.8497 7.46513C28.5772 7.46513 28.3046 7.51056 28.0774 7.55599C28.668 8.41914 29.1677 9.32773 29.5766 10.2817C29.7583 10.6906 29.8492 11.1449 29.8492 11.5992C29.8492 12.008 29.7583 12.4169 29.622 12.8258C29.4403 13.1892 29.2132 13.5526 28.9406 13.8706C28.668 14.1886 28.3046 14.4158 27.8957 14.5521C27.5323 14.6884 27.078 14.7792 26.6691 14.7792C26.124 14.7792 25.5334 14.6429 25.0791 14.3249L24.7611 15.5515C24.1705 17.5504 23.7617 18.2773 23.7617 18.2773C23.5345 18.8224 23.2619 19.3221 22.9439 19.8219C22.7168 20.1399 22.4442 20.4579 22.0808 20.5942C21.9445 20.6396 21.8082 20.6396 21.6719 20.6396C21.5356 20.6396 21.3994 20.5941 21.2631 20.5033C21.0359 20.3216 20.8088 20.049 20.6725 19.7764C20.4908 19.4584 20.3545 19.1404 20.2182 18.8224C19.9456 18.141 19.4913 16.4601 19.4913 16.4601L19.037 14.6884L18.5828 12.9166L18.2647 11.7355C17.447 8.69172 16.2659 7.19256 16.2659 7.19256C15.3573 5.87511 14.0398 4.9211 12.5407 4.37595C10.8144 3.73994 8.9972 4.10338 8.9972 4.10338C6.13517 4.64853 4.63601 6.60198 4 7.55599C4.318 7.64685 4.59058 7.73771 4.86315 7.91942C5.22659 8.14657 5.54459 8.41914 5.77174 8.73715C6.1806 9.32773 6.31689 10.1 6.36231 10.8269C6.54403 12.4169 6.86203 13.9615 7.2709 15.5061C8.22491 12.2806 9.40607 10.7815 9.40607 10.7815C9.54235 10.5997 9.67864 10.4635 9.86036 10.3726C9.95122 10.3272 10.0421 10.2817 10.1784 10.2817C10.3601 10.2817 10.5872 10.3272 10.7235 10.418C10.7689 10.418 10.7689 10.4635 10.8144 10.4635C10.9507 10.5997 11.0869 10.736 11.2232 10.9177C11.4504 11.372 11.6775 11.7809 11.8592 12.2806C12.2227 13.2801 12.5407 14.5521 12.5407 14.5521L13.4493 18.1864C14.1307 20.685 14.6758 21.8662 14.6758 21.8662C16.0841 25.0916 18.2193 26.0002 18.2193 26.0002C19.2642 26.5454 20.4453 26.8634 21.6265 26.9088C22.7622 26.9542 23.898 26.7271 24.8974 26.2274C25.9877 25.6822 26.9871 24.8645 27.7594 23.9105C28.2592 23.3199 29.0314 21.8662 29.0314 21.8662C29.8946 20.1853 30.5306 18.4136 30.9849 16.5964C31.3029 15.4607 31.5301 14.3249 31.7118 13.1438C31.8026 12.5532 31.8935 12.008 31.9389 11.4175C32.0298 10.8723 32.0298 10.3272 31.8935 9.78202C31.8481 9.69116 31.8481 9.6003 31.8026 9.50944C31.5301 8.82801 31.0303 8.28286 30.3943 7.91942C29.94 7.60142 29.3949 7.46513 28.8497 7.46513Z" fill="url(#paint24_radial_6027_2785)"/>
<path d="M28.8497 7.46513C28.5772 7.46513 28.3046 7.51056 28.0774 7.55599C28.668 8.41914 29.1677 9.32773 29.5766 10.2817C29.7583 10.6906 29.8492 11.1449 29.8492 11.5992C29.8492 12.008 29.7583 12.4169 29.622 12.8258C29.4403 13.1892 29.2132 13.5526 28.9406 13.8706C28.668 14.1886 28.3046 14.4158 27.8957 14.5521C27.5323 14.6884 27.078 14.7792 26.6691 14.7792C26.124 14.7792 25.5334 14.6429 25.0791 14.3249L24.7611 15.5515C24.1705 17.5504 23.7617 18.2773 23.7617 18.2773C23.5345 18.8224 23.2619 19.3221 22.9439 19.8219C22.7168 20.1399 22.4442 20.4579 22.0808 20.5942C21.9445 20.6396 21.8082 20.6396 21.6719 20.6396C21.5356 20.6396 21.3994 20.5941 21.2631 20.5033C21.0359 20.3216 20.8088 20.049 20.6725 19.7764C20.4908 19.4584 20.3545 19.1404 20.2182 18.8224C19.9456 18.141 19.4913 16.4601 19.4913 16.4601L19.037 14.6884L18.5828 12.9166L18.2647 11.7355C17.447 8.69172 16.2659 7.19256 16.2659 7.19256C15.3573 5.87511 14.0398 4.9211 12.5407 4.37595C10.8144 3.73994 8.9972 4.10338 8.9972 4.10338C6.13517 4.64853 4.63601 6.60198 4 7.55599C4.318 7.64685 4.59058 7.73771 4.86315 7.91942C5.22659 8.14657 5.54459 8.41914 5.77174 8.73715C6.1806 9.32773 6.31689 10.1 6.36231 10.8269C6.54403 12.4169 6.86203 13.9615 7.2709 15.5061C8.22491 12.2806 9.40607 10.7815 9.40607 10.7815C9.54235 10.5997 9.67864 10.4635 9.86036 10.3726C9.95122 10.3272 10.0421 10.2817 10.1784 10.2817C10.3601 10.2817 10.5872 10.3272 10.7235 10.418C10.7689 10.418 10.7689 10.4635 10.8144 10.4635C10.9507 10.5997 11.0869 10.736 11.2232 10.9177C11.4504 11.372 11.6775 11.7809 11.8592 12.2806C12.2227 13.2801 12.5407 14.5521 12.5407 14.5521L13.4493 18.1864C14.1307 20.685 14.6758 21.8662 14.6758 21.8662C16.0841 25.0916 18.2193 26.0002 18.2193 26.0002C19.2642 26.5454 20.4453 26.8634 21.6265 26.9088C22.7622 26.9542 23.898 26.7271 24.8974 26.2274C25.9877 25.6822 26.9871 24.8645 27.7594 23.9105C28.2592 23.3199 29.0314 21.8662 29.0314 21.8662C29.8946 20.1853 30.5306 18.4136 30.9849 16.5964C31.3029 15.4607 31.5301 14.3249 31.7118 13.1438C31.8026 12.5532 31.8935 12.008 31.9389 11.4175C32.0298 10.8723 32.0298 10.3272 31.8935 9.78202C31.8481 9.69116 31.8481 9.6003 31.8026 9.50944C31.5301 8.82801 31.0303 8.28286 30.3943 7.91942C29.94 7.60142 29.3949 7.46513 28.8497 7.46513Z" fill="url(#paint25_radial_6027_2785)"/>
<path d="M28.8497 7.46513C28.5772 7.46513 28.3046 7.51056 28.0774 7.55599C28.668 8.41914 29.1677 9.32773 29.5766 10.2817C29.7583 10.6906 29.8492 11.1449 29.8492 11.5992C29.8492 12.008 29.7583 12.4169 29.622 12.8258C29.4403 13.1892 29.2132 13.5526 28.9406 13.8706C28.668 14.1886 28.3046 14.4158 27.8957 14.5521C27.5323 14.6884 27.078 14.7792 26.6691 14.7792C26.124 14.7792 25.5334 14.6429 25.0791 14.3249L24.7611 15.5515C24.1705 17.5504 23.7617 18.2773 23.7617 18.2773C23.5345 18.8224 23.2619 19.3221 22.9439 19.8219C22.7168 20.1399 22.4442 20.4579 22.0808 20.5942C21.9445 20.6396 21.8082 20.6396 21.6719 20.6396C21.5356 20.6396 21.3994 20.5941 21.2631 20.5033C21.0359 20.3216 20.8088 20.049 20.6725 19.7764C20.4908 19.4584 20.3545 19.1404 20.2182 18.8224C19.9456 18.141 19.4913 16.4601 19.4913 16.4601L19.037 14.6884L18.5828 12.9166L18.2647 11.7355C17.447 8.69172 16.2659 7.19256 16.2659 7.19256C15.3573 5.87511 14.0398 4.9211 12.5407 4.37595C10.8144 3.73994 8.9972 4.10338 8.9972 4.10338C6.13517 4.64853 4.63601 6.60198 4 7.55599C4.318 7.64685 4.59058 7.73771 4.86315 7.91942C5.22659 8.14657 5.54459 8.41914 5.77174 8.73715C6.1806 9.32773 6.31689 10.1 6.36231 10.8269C6.54403 12.4169 6.86203 13.9615 7.2709 15.5061C8.22491 12.2806 9.40607 10.7815 9.40607 10.7815C9.54235 10.5997 9.67864 10.4635 9.86036 10.3726C9.95122 10.3272 10.0421 10.2817 10.1784 10.2817C10.3601 10.2817 10.5872 10.3272 10.7235 10.418C10.7689 10.418 10.7689 10.4635 10.8144 10.4635C10.9507 10.5997 11.0869 10.736 11.2232 10.9177C11.4504 11.372 11.6775 11.7809 11.8592 12.2806C12.2227 13.2801 12.5407 14.5521 12.5407 14.5521L13.4493 18.1864C14.1307 20.685 14.6758 21.8662 14.6758 21.8662C16.0841 25.0916 18.2193 26.0002 18.2193 26.0002C19.2642 26.5454 20.4453 26.8634 21.6265 26.9088C22.7622 26.9542 23.898 26.7271 24.8974 26.2274C25.9877 25.6822 26.9871 24.8645 27.7594 23.9105C28.2592 23.3199 29.0314 21.8662 29.0314 21.8662C29.8946 20.1853 30.5306 18.4136 30.9849 16.5964C31.3029 15.4607 31.5301 14.3249 31.7118 13.1438C31.8026 12.5532 31.8935 12.008 31.9389 11.4175C32.0298 10.8723 32.0298 10.3272 31.8935 9.78202C31.8481 9.69116 31.8481 9.6003 31.8026 9.50944C31.5301 8.82801 31.0303 8.28286 30.3943 7.91942C29.94 7.60142 29.3949 7.46513 28.8497 7.46513Z" fill="url(#paint26_radial_6027_2785)"/>
<path d="M28.8497 7.46513C28.5772 7.46513 28.3046 7.51056 28.0774 7.55599C28.668 8.41914 29.1677 9.32773 29.5766 10.2817C29.7583 10.6906 29.8492 11.1449 29.8492 11.5992C29.8492 12.008 29.7583 12.4169 29.622 12.8258C29.4403 13.1892 29.2132 13.5526 28.9406 13.8706C28.668 14.1886 28.3046 14.4158 27.8957 14.5521C27.5323 14.6884 27.078 14.7792 26.6691 14.7792C26.124 14.7792 25.5334 14.6429 25.0791 14.3249L24.7611 15.5515C24.1705 17.5504 23.7617 18.2773 23.7617 18.2773C23.5345 18.8224 23.2619 19.3221 22.9439 19.8219C22.7168 20.1399 22.4442 20.4579 22.0808 20.5942C21.9445 20.6396 21.8082 20.6396 21.6719 20.6396C21.5356 20.6396 21.3994 20.5941 21.2631 20.5033C21.0359 20.3216 20.8088 20.049 20.6725 19.7764C20.4908 19.4584 20.3545 19.1404 20.2182 18.8224C19.9456 18.141 19.4913 16.4601 19.4913 16.4601L19.037 14.6884L18.5828 12.9166L18.2647 11.7355C17.447 8.69172 16.2659 7.19256 16.2659 7.19256C15.3573 5.87511 14.0398 4.9211 12.5407 4.37595C10.8144 3.73994 8.9972 4.10338 8.9972 4.10338C6.13517 4.64853 4.63601 6.60198 4 7.55599C4.318 7.64685 4.59058 7.73771 4.86315 7.91942C5.22659 8.14657 5.54459 8.41914 5.77174 8.73715C6.1806 9.32773 6.31689 10.1 6.36231 10.8269C6.54403 12.4169 6.86203 13.9615 7.2709 15.5061C8.22491 12.2806 9.40607 10.7815 9.40607 10.7815C9.54235 10.5997 9.67864 10.4635 9.86036 10.3726C9.95122 10.3272 10.0421 10.2817 10.1784 10.2817C10.3601 10.2817 10.5872 10.3272 10.7235 10.418C10.7689 10.418 10.7689 10.4635 10.8144 10.4635C10.9507 10.5997 11.0869 10.736 11.2232 10.9177C11.4504 11.372 11.6775 11.7809 11.8592 12.2806C12.2227 13.2801 12.5407 14.5521 12.5407 14.5521L13.4493 18.1864C14.1307 20.685 14.6758 21.8662 14.6758 21.8662C16.0841 25.0916 18.2193 26.0002 18.2193 26.0002C19.2642 26.5454 20.4453 26.8634 21.6265 26.9088C22.7622 26.9542 23.898 26.7271 24.8974 26.2274C25.9877 25.6822 26.9871 24.8645 27.7594 23.9105C28.2592 23.3199 29.0314 21.8662 29.0314 21.8662C29.8946 20.1853 30.5306 18.4136 30.9849 16.5964C31.3029 15.4607 31.5301 14.3249 31.7118 13.1438C31.8026 12.5532 31.8935 12.008 31.9389 11.4175C32.0298 10.8723 32.0298 10.3272 31.8935 9.78202C31.8481 9.69116 31.8481 9.6003 31.8026 9.50944C31.5301 8.82801 31.0303 8.28286 30.3943 7.91942C29.94 7.60142 29.3949 7.46513 28.8497 7.46513Z" fill="url(#paint27_radial_6027_2785)"/>
<path d="M28.8497 7.46513C28.5772 7.46513 28.3046 7.51056 28.0774 7.55599C28.668 8.41914 29.1677 9.32773 29.5766 10.2817C29.7583 10.6906 29.8492 11.1449 29.8492 11.5992C29.8492 12.008 29.7583 12.4169 29.622 12.8258C29.4403 13.1892 29.2132 13.5526 28.9406 13.8706C28.668 14.1886 28.3046 14.4158 27.8957 14.5521C27.5323 14.6884 27.078 14.7792 26.6691 14.7792C26.124 14.7792 25.5334 14.6429 25.0791 14.3249L24.7611 15.5515C24.1705 17.5504 23.7617 18.2773 23.7617 18.2773C23.5345 18.8224 23.2619 19.3221 22.9439 19.8219C22.7168 20.1399 22.4442 20.4579 22.0808 20.5942C21.9445 20.6396 21.8082 20.6396 21.6719 20.6396C21.5356 20.6396 21.3994 20.5941 21.2631 20.5033C21.0359 20.3216 20.8088 20.049 20.6725 19.7764C20.4908 19.4584 20.3545 19.1404 20.2182 18.8224C19.9456 18.141 19.4913 16.4601 19.4913 16.4601L19.037 14.6884L18.5828 12.9166L18.2647 11.7355C17.447 8.69172 16.2659 7.19256 16.2659 7.19256C15.3573 5.87511 14.0398 4.9211 12.5407 4.37595C10.8144 3.73994 8.9972 4.10338 8.9972 4.10338C6.13517 4.64853 4.63601 6.60198 4 7.55599C4.318 7.64685 4.59058 7.73771 4.86315 7.91942C5.22659 8.14657 5.54459 8.41914 5.77174 8.73715C6.1806 9.32773 6.31689 10.1 6.36231 10.8269C6.54403 12.4169 6.86203 13.9615 7.2709 15.5061C8.22491 12.2806 9.40607 10.7815 9.40607 10.7815C9.54235 10.5997 9.67864 10.4635 9.86036 10.3726C9.95122 10.3272 10.0421 10.2817 10.1784 10.2817C10.3601 10.2817 10.5872 10.3272 10.7235 10.418C10.7689 10.418 10.7689 10.4635 10.8144 10.4635C10.9507 10.5997 11.0869 10.736 11.2232 10.9177C11.4504 11.372 11.6775 11.7809 11.8592 12.2806C12.2227 13.2801 12.5407 14.5521 12.5407 14.5521L13.4493 18.1864C14.1307 20.685 14.6758 21.8662 14.6758 21.8662C16.0841 25.0916 18.2193 26.0002 18.2193 26.0002C19.2642 26.5454 20.4453 26.8634 21.6265 26.9088C22.7622 26.9542 23.898 26.7271 24.8974 26.2274C25.9877 25.6822 26.9871 24.8645 27.7594 23.9105C28.2592 23.3199 29.0314 21.8662 29.0314 21.8662C29.8946 20.1853 30.5306 18.4136 30.9849 16.5964C31.3029 15.4607 31.5301 14.3249 31.7118 13.1438C31.8026 12.5532 31.8935 12.008 31.9389 11.4175C32.0298 10.8723 32.0298 10.3272 31.8935 9.78202C31.8481 9.69116 31.8481 9.6003 31.8026 9.50944C31.5301 8.82801 31.0303 8.28286 30.3943 7.91942C29.94 7.60142 29.3949 7.46513 28.8497 7.46513Z" fill="url(#paint28_radial_6027_2785)"/>
<path d="M28.8497 7.46513C28.5772 7.46513 28.3046 7.51056 28.0774 7.55599C28.668 8.41914 29.1677 9.32773 29.5766 10.2817C29.7583 10.6906 29.8492 11.1449 29.8492 11.5992C29.8492 12.008 29.7583 12.4169 29.622 12.8258C29.4403 13.1892 29.2132 13.5526 28.9406 13.8706C28.668 14.1886 28.3046 14.4158 27.8957 14.5521C27.5323 14.6884 27.078 14.7792 26.6691 14.7792C26.124 14.7792 25.5334 14.6429 25.0791 14.3249L24.7611 15.5515C24.1705 17.5504 23.7617 18.2773 23.7617 18.2773C23.5345 18.8224 23.2619 19.3221 22.9439 19.8219C22.7168 20.1399 22.4442 20.4579 22.0808 20.5942C21.9445 20.6396 21.8082 20.6396 21.6719 20.6396C21.5356 20.6396 21.3994 20.5941 21.2631 20.5033C21.0359 20.3216 20.8088 20.049 20.6725 19.7764C20.4908 19.4584 20.3545 19.1404 20.2182 18.8224C19.9456 18.141 19.4913 16.4601 19.4913 16.4601L19.037 14.6884L18.5828 12.9166L18.2647 11.7355C17.447 8.69172 16.2659 7.19256 16.2659 7.19256C15.3573 5.87511 14.0398 4.9211 12.5407 4.37595C10.8144 3.73994 8.9972 4.10338 8.9972 4.10338C6.13517 4.64853 4.63601 6.60198 4 7.55599C4.318 7.64685 4.59058 7.73771 4.86315 7.91942C5.22659 8.14657 5.54459 8.41914 5.77174 8.73715C6.1806 9.32773 6.31689 10.1 6.36231 10.8269C6.54403 12.4169 6.86203 13.9615 7.2709 15.5061C8.22491 12.2806 9.40607 10.7815 9.40607 10.7815C9.54235 10.5997 9.67864 10.4635 9.86036 10.3726C9.95122 10.3272 10.0421 10.2817 10.1784 10.2817C10.3601 10.2817 10.5872 10.3272 10.7235 10.418C10.7689 10.418 10.7689 10.4635 10.8144 10.4635C10.9507 10.5997 11.0869 10.736 11.2232 10.9177C11.4504 11.372 11.6775 11.7809 11.8592 12.2806C12.2227 13.2801 12.5407 14.5521 12.5407 14.5521L13.4493 18.1864C14.1307 20.685 14.6758 21.8662 14.6758 21.8662C16.0841 25.0916 18.2193 26.0002 18.2193 26.0002C19.2642 26.5454 20.4453 26.8634 21.6265 26.9088C22.7622 26.9542 23.898 26.7271 24.8974 26.2274C25.9877 25.6822 26.9871 24.8645 27.7594 23.9105C28.2592 23.3199 29.0314 21.8662 29.0314 21.8662C29.8946 20.1853 30.5306 18.4136 30.9849 16.5964C31.3029 15.4607 31.5301 14.3249 31.7118 13.1438C31.8026 12.5532 31.8935 12.008 31.9389 11.4175C32.0298 10.8723 32.0298 10.3272 31.8935 9.78202C31.8481 9.69116 31.8481 9.6003 31.8026 9.50944C31.5301 8.82801 31.0303 8.28286 30.3943 7.91942C29.94 7.60142 29.3949 7.46513 28.8497 7.46513Z" fill="url(#paint29_radial_6027_2785)"/>
<path d="M28.8497 7.46513C28.5772 7.46513 28.3046 7.51056 28.0774 7.55599C28.668 8.41914 29.1677 9.32773 29.5766 10.2817C29.7583 10.6906 29.8492 11.1449 29.8492 11.5992C29.8492 12.008 29.7583 12.4169 29.622 12.8258C29.4403 13.1892 29.2132 13.5526 28.9406 13.8706C28.668 14.1886 28.3046 14.4158 27.8957 14.5521C27.5323 14.6884 27.078 14.7792 26.6691 14.7792C26.124 14.7792 25.5334 14.6429 25.0791 14.3249L24.7611 15.5515C24.1705 17.5504 23.7617 18.2773 23.7617 18.2773C23.5345 18.8224 23.2619 19.3221 22.9439 19.8219C22.7168 20.1399 22.4442 20.4579 22.0808 20.5942C21.9445 20.6396 21.8082 20.6396 21.6719 20.6396C21.5356 20.6396 21.3994 20.5941 21.2631 20.5033C21.0359 20.3216 20.8088 20.049 20.6725 19.7764C20.4908 19.4584 20.3545 19.1404 20.2182 18.8224C19.9456 18.141 19.4913 16.4601 19.4913 16.4601L19.037 14.6884L18.5828 12.9166L18.2647 11.7355C17.447 8.69172 16.2659 7.19256 16.2659 7.19256C15.3573 5.87511 14.0398 4.9211 12.5407 4.37595C10.8144 3.73994 8.9972 4.10338 8.9972 4.10338C6.13517 4.64853 4.63601 6.60198 4 7.55599C4.318 7.64685 4.59058 7.73771 4.86315 7.91942C5.22659 8.14657 5.54459 8.41914 5.77174 8.73715C6.1806 9.32773 6.31689 10.1 6.36231 10.8269C6.54403 12.4169 6.86203 13.9615 7.2709 15.5061C8.22491 12.2806 9.40607 10.7815 9.40607 10.7815C9.54235 10.5997 9.67864 10.4635 9.86036 10.3726C9.95122 10.3272 10.0421 10.2817 10.1784 10.2817C10.3601 10.2817 10.5872 10.3272 10.7235 10.418C10.7689 10.418 10.7689 10.4635 10.8144 10.4635C10.9507 10.5997 11.0869 10.736 11.2232 10.9177C11.4504 11.372 11.6775 11.7809 11.8592 12.2806C12.2227 13.2801 12.5407 14.5521 12.5407 14.5521L13.4493 18.1864C14.1307 20.685 14.6758 21.8662 14.6758 21.8662C16.0841 25.0916 18.2193 26.0002 18.2193 26.0002C19.2642 26.5454 20.4453 26.8634 21.6265 26.9088C22.7622 26.9542 23.898 26.7271 24.8974 26.2274C25.9877 25.6822 26.9871 24.8645 27.7594 23.9105C28.2592 23.3199 29.0314 21.8662 29.0314 21.8662C29.8946 20.1853 30.5306 18.4136 30.9849 16.5964C31.3029 15.4607 31.5301 14.3249 31.7118 13.1438C31.8026 12.5532 31.8935 12.008 31.9389 11.4175C32.0298 10.8723 32.0298 10.3272 31.8935 9.78202C31.8481 9.69116 31.8481 9.6003 31.8026 9.50944C31.5301 8.82801 31.0303 8.28286 30.3943 7.91942C29.94 7.60142 29.3949 7.46513 28.8497 7.46513Z" fill="url(#paint30_radial_6027_2785)"/>
<path d="M28.8497 7.46513C28.5772 7.46513 28.3046 7.51056 28.0774 7.55599C28.668 8.41914 29.1677 9.32773 29.5766 10.2817C29.7583 10.6906 29.8492 11.1449 29.8492 11.5992C29.8492 12.008 29.7583 12.4169 29.622 12.8258C29.4403 13.1892 29.2132 13.5526 28.9406 13.8706C28.668 14.1886 28.3046 14.4158 27.8957 14.5521C27.5323 14.6884 27.078 14.7792 26.6691 14.7792C26.124 14.7792 25.5334 14.6429 25.0791 14.3249L24.7611 15.5515C24.1705 17.5504 23.7617 18.2773 23.7617 18.2773C23.5345 18.8224 23.2619 19.3221 22.9439 19.8219C22.7168 20.1399 22.4442 20.4579 22.0808 20.5942C21.9445 20.6396 21.8082 20.6396 21.6719 20.6396C21.5356 20.6396 21.3994 20.5941 21.2631 20.5033C21.0359 20.3216 20.8088 20.049 20.6725 19.7764C20.4908 19.4584 20.3545 19.1404 20.2182 18.8224C19.9456 18.141 19.4913 16.4601 19.4913 16.4601L19.037 14.6884L18.5828 12.9166L18.2647 11.7355C17.447 8.69172 16.2659 7.19256 16.2659 7.19256C15.3573 5.87511 14.0398 4.9211 12.5407 4.37595C10.8144 3.73994 8.9972 4.10338 8.9972 4.10338C6.13517 4.64853 4.63601 6.60198 4 7.55599C4.318 7.64685 4.59058 7.73771 4.86315 7.91942C5.22659 8.14657 5.54459 8.41914 5.77174 8.73715C6.1806 9.32773 6.31689 10.1 6.36231 10.8269C6.54403 12.4169 6.86203 13.9615 7.2709 15.5061C8.22491 12.2806 9.40607 10.7815 9.40607 10.7815C9.54235 10.5997 9.67864 10.4635 9.86036 10.3726C9.95122 10.3272 10.0421 10.2817 10.1784 10.2817C10.3601 10.2817 10.5872 10.3272 10.7235 10.418C10.7689 10.418 10.7689 10.4635 10.8144 10.4635C10.9507 10.5997 11.0869 10.736 11.2232 10.9177C11.4504 11.372 11.6775 11.7809 11.8592 12.2806C12.2227 13.2801 12.5407 14.5521 12.5407 14.5521L13.4493 18.1864C14.1307 20.685 14.6758 21.8662 14.6758 21.8662C16.0841 25.0916 18.2193 26.0002 18.2193 26.0002C19.2642 26.5454 20.4453 26.8634 21.6265 26.9088C22.7622 26.9542 23.898 26.7271 24.8974 26.2274C25.9877 25.6822 26.9871 24.8645 27.7594 23.9105C28.2592 23.3199 29.0314 21.8662 29.0314 21.8662C29.8946 20.1853 30.5306 18.4136 30.9849 16.5964C31.3029 15.4607 31.5301 14.3249 31.7118 13.1438C31.8026 12.5532 31.8935 12.008 31.9389 11.4175C32.0298 10.8723 32.0298 10.3272 31.8935 9.78202C31.8481 9.69116 31.8481 9.6003 31.8026 9.50944C31.5301 8.82801 31.0303 8.28286 30.3943 7.91942C29.94 7.60142 29.3949 7.46513 28.8497 7.46513Z" fill="url(#paint31_radial_6027_2785)"/>
<path d="M28.8497 7.46513C28.5772 7.46513 28.3046 7.51056 28.0774 7.55599C28.668 8.41914 29.1677 9.32773 29.5766 10.2817C29.7583 10.6906 29.8492 11.1449 29.8492 11.5992C29.8492 12.008 29.7583 12.4169 29.622 12.8258C29.4403 13.1892 29.2132 13.5526 28.9406 13.8706C28.668 14.1886 28.3046 14.4158 27.8957 14.5521C27.5323 14.6884 27.078 14.7792 26.6691 14.7792C26.124 14.7792 25.5334 14.6429 25.0791 14.3249L24.7611 15.5515C24.1705 17.5504 23.7617 18.2773 23.7617 18.2773C23.5345 18.8224 23.2619 19.3221 22.9439 19.8219C22.7168 20.1399 22.4442 20.4579 22.0808 20.5942C21.9445 20.6396 21.8082 20.6396 21.6719 20.6396C21.5356 20.6396 21.3994 20.5941 21.2631 20.5033C21.0359 20.3216 20.8088 20.049 20.6725 19.7764C20.4908 19.4584 20.3545 19.1404 20.2182 18.8224C19.9456 18.141 19.4913 16.4601 19.4913 16.4601L19.037 14.6884L18.5828 12.9166L18.2647 11.7355C17.447 8.69172 16.2659 7.19256 16.2659 7.19256C15.3573 5.87511 14.0398 4.9211 12.5407 4.37595C10.8144 3.73994 8.9972 4.10338 8.9972 4.10338C6.13517 4.64853 4.63601 6.60198 4 7.55599C4.318 7.64685 4.59058 7.73771 4.86315 7.91942C5.22659 8.14657 5.54459 8.41914 5.77174 8.73715C6.1806 9.32773 6.31689 10.1 6.36231 10.8269C6.54403 12.4169 6.86203 13.9615 7.2709 15.5061C8.22491 12.2806 9.40607 10.7815 9.40607 10.7815C9.54235 10.5997 9.67864 10.4635 9.86036 10.3726C9.95122 10.3272 10.0421 10.2817 10.1784 10.2817C10.3601 10.2817 10.5872 10.3272 10.7235 10.418C10.7689 10.418 10.7689 10.4635 10.8144 10.4635C10.9507 10.5997 11.0869 10.736 11.2232 10.9177C11.4504 11.372 11.6775 11.7809 11.8592 12.2806C12.2227 13.2801 12.5407 14.5521 12.5407 14.5521L13.4493 18.1864C14.1307 20.685 14.6758 21.8662 14.6758 21.8662C16.0841 25.0916 18.2193 26.0002 18.2193 26.0002C19.2642 26.5454 20.4453 26.8634 21.6265 26.9088C22.7622 26.9542 23.898 26.7271 24.8974 26.2274C25.9877 25.6822 26.9871 24.8645 27.7594 23.9105C28.2592 23.3199 29.0314 21.8662 29.0314 21.8662C29.8946 20.1853 30.5306 18.4136 30.9849 16.5964C31.3029 15.4607 31.5301 14.3249 31.7118 13.1438C31.8026 12.5532 31.8935 12.008 31.9389 11.4175C32.0298 10.8723 32.0298 10.3272 31.8935 9.78202C31.8481 9.69116 31.8481 9.6003 31.8026 9.50944C31.5301 8.82801 31.0303 8.28286 30.3943 7.91942C29.94 7.60142 29.3949 7.46513 28.8497 7.46513Z" fill="url(#paint32_radial_6027_2785)"/>
<path d="M28.8497 7.46513C28.5772 7.46513 28.3046 7.51056 28.0774 7.55599C28.668 8.41914 29.1677 9.32773 29.5766 10.2817C29.7583 10.6906 29.8492 11.1449 29.8492 11.5992C29.8492 12.008 29.7583 12.4169 29.622 12.8258C29.4403 13.1892 29.2132 13.5526 28.9406 13.8706C28.668 14.1886 28.3046 14.4158 27.8957 14.5521C27.5323 14.6884 27.078 14.7792 26.6691 14.7792C26.124 14.7792 25.5334 14.6429 25.0791 14.3249L24.7611 15.5515C24.1705 17.5504 23.7617 18.2773 23.7617 18.2773C23.5345 18.8224 23.2619 19.3221 22.9439 19.8219C22.7168 20.1399 22.4442 20.4579 22.0808 20.5942C21.9445 20.6396 21.8082 20.6396 21.6719 20.6396C21.5356 20.6396 21.3994 20.5941 21.2631 20.5033C21.0359 20.3216 20.8088 20.049 20.6725 19.7764C20.4908 19.4584 20.3545 19.1404 20.2182 18.8224C19.9456 18.141 19.4913 16.4601 19.4913 16.4601L19.037 14.6884L18.5828 12.9166L18.2647 11.7355C17.447 8.69172 16.2659 7.19256 16.2659 7.19256C15.3573 5.87511 14.0398 4.9211 12.5407 4.37595C10.8144 3.73994 8.9972 4.10338 8.9972 4.10338C6.13517 4.64853 4.63601 6.60198 4 7.55599C4.318 7.64685 4.59058 7.73771 4.86315 7.91942C5.22659 8.14657 5.54459 8.41914 5.77174 8.73715C6.1806 9.32773 6.31689 10.1 6.36231 10.8269C6.54403 12.4169 6.86203 13.9615 7.2709 15.5061C8.22491 12.2806 9.40607 10.7815 9.40607 10.7815C9.54235 10.5997 9.67864 10.4635 9.86036 10.3726C9.95122 10.3272 10.0421 10.2817 10.1784 10.2817C10.3601 10.2817 10.5872 10.3272 10.7235 10.418C10.7689 10.418 10.7689 10.4635 10.8144 10.4635C10.9507 10.5997 11.0869 10.736 11.2232 10.9177C11.4504 11.372 11.6775 11.7809 11.8592 12.2806C12.2227 13.2801 12.5407 14.5521 12.5407 14.5521L13.4493 18.1864C14.1307 20.685 14.6758 21.8662 14.6758 21.8662C16.0841 25.0916 18.2193 26.0002 18.2193 26.0002C19.2642 26.5454 20.4453 26.8634 21.6265 26.9088C22.7622 26.9542 23.898 26.7271 24.8974 26.2274C25.9877 25.6822 26.9871 24.8645 27.7594 23.9105C28.2592 23.3199 29.0314 21.8662 29.0314 21.8662C29.8946 20.1853 30.5306 18.4136 30.9849 16.5964C31.3029 15.4607 31.5301 14.3249 31.7118 13.1438C31.8026 12.5532 31.8935 12.008 31.9389 11.4175C32.0298 10.8723 32.0298 10.3272 31.8935 9.78202C31.8481 9.69116 31.8481 9.6003 31.8026 9.50944C31.5301 8.82801 31.0303 8.28286 30.3943 7.91942C29.94 7.60142 29.3949 7.46513 28.8497 7.46513Z" fill="url(#paint33_radial_6027_2785)"/>
<path d="M28.8497 7.46513C28.5772 7.46513 28.3046 7.51056 28.0774 7.55599C28.668 8.41914 29.1677 9.32773 29.5766 10.2817C29.7583 10.6906 29.8492 11.1449 29.8492 11.5992C29.8492 12.008 29.7583 12.4169 29.622 12.8258C29.4403 13.1892 29.2132 13.5526 28.9406 13.8706C28.668 14.1886 28.3046 14.4158 27.8957 14.5521C27.5323 14.6884 27.078 14.7792 26.6691 14.7792C26.124 14.7792 25.5334 14.6429 25.0791 14.3249L24.7611 15.5515C24.1705 17.5504 23.7617 18.2773 23.7617 18.2773C23.5345 18.8224 23.2619 19.3221 22.9439 19.8219C22.7168 20.1399 22.4442 20.4579 22.0808 20.5942C21.9445 20.6396 21.8082 20.6396 21.6719 20.6396C21.5356 20.6396 21.3994 20.5941 21.2631 20.5033C21.0359 20.3216 20.8088 20.049 20.6725 19.7764C20.4908 19.4584 20.3545 19.1404 20.2182 18.8224C19.9456 18.141 19.4913 16.4601 19.4913 16.4601L19.037 14.6884L18.5828 12.9166L18.2647 11.7355C17.447 8.69172 16.2659 7.19256 16.2659 7.19256C15.3573 5.87511 14.0398 4.9211 12.5407 4.37595C10.8144 3.73994 8.9972 4.10338 8.9972 4.10338C6.13517 4.64853 4.63601 6.60198 4 7.55599C4.318 7.64685 4.59058 7.73771 4.86315 7.91942C5.22659 8.14657 5.54459 8.41914 5.77174 8.73715C6.1806 9.32773 6.31689 10.1 6.36231 10.8269C6.54403 12.4169 6.86203 13.9615 7.2709 15.5061C8.22491 12.2806 9.40607 10.7815 9.40607 10.7815C9.54235 10.5997 9.67864 10.4635 9.86036 10.3726C9.95122 10.3272 10.0421 10.2817 10.1784 10.2817C10.3601 10.2817 10.5872 10.3272 10.7235 10.418C10.7689 10.418 10.7689 10.4635 10.8144 10.4635C10.9507 10.5997 11.0869 10.736 11.2232 10.9177C11.4504 11.372 11.6775 11.7809 11.8592 12.2806C12.2227 13.2801 12.5407 14.5521 12.5407 14.5521L13.4493 18.1864C14.1307 20.685 14.6758 21.8662 14.6758 21.8662C16.0841 25.0916 18.2193 26.0002 18.2193 26.0002C19.2642 26.5454 20.4453 26.8634 21.6265 26.9088C22.7622 26.9542 23.898 26.7271 24.8974 26.2274C25.9877 25.6822 26.9871 24.8645 27.7594 23.9105C28.2592 23.3199 29.0314 21.8662 29.0314 21.8662C29.8946 20.1853 30.5306 18.4136 30.9849 16.5964C31.3029 15.4607 31.5301 14.3249 31.7118 13.1438C31.8026 12.5532 31.8935 12.008 31.9389 11.4175C32.0298 10.8723 32.0298 10.3272 31.8935 9.78202C31.8481 9.69116 31.8481 9.6003 31.8026 9.50944C31.5301 8.82801 31.0303 8.28286 30.3943 7.91942C29.94 7.60142 29.3949 7.46513 28.8497 7.46513Z" fill="url(#paint34_linear_6027_2785)"/>
<defs>
<linearGradient id="paint0_linear_6027_2785" x1="1.4401" y1="19.4903" x2="26.3439" y2="9.42369" gradientUnits="userSpaceOnUse">
<stop offset="0.13" stop-color="#1CBBF3"/>
<stop offset="0.34" stop-color="#1F99A5"/>
<stop offset="0.45" stop-color="#209CA6"/>
<stop offset="0.51" stop-color="#24A4AA"/>
<stop offset="0.57" stop-color="#2BB3B0"/>
<stop offset="0.6" stop-color="#30BDB4"/>
<stop offset="0.79" stop-color="#38BA90"/>
<stop offset="1" stop-color="#60F05A"/>
</linearGradient>
<radialGradient id="paint1_radial_6027_2785" cx="0" cy="0" r="1" gradientUnits="userSpaceOnUse" gradientTransform="translate(18.033 13.5608) rotate(74.3201) scale(11.9028 9.04614)">
<stop stop-color="#227B60"/>
<stop offset="0.14" stop-color="#227B60" stop-opacity="0.81"/>
<stop offset="0.58" stop-color="#227B60" stop-opacity="0.23"/>
<stop offset="0.78" stop-color="#227B60" stop-opacity="0"/>
</radialGradient>
<radialGradient id="paint2_radial_6027_2785" cx="0" cy="0" r="1" gradientUnits="userSpaceOnUse" gradientTransform="translate(19.8129 12.7077) rotate(91.1458) scale(8.04883 6.11626)">
<stop stop-color="#227B60"/>
<stop offset="0.25" stop-color="#227B60" stop-opacity="0.7"/>
<stop offset="0.71" stop-color="#227B60" stop-opacity="0.2"/>
<stop offset="0.92" stop-color="#227B60" stop-opacity="0"/>
</radialGradient>
<radialGradient id="paint3_radial_6027_2785" cx="0" cy="0" r="1" gradientUnits="userSpaceOnUse" gradientTransform="translate(19.4326 13.0405) rotate(88.6) scale(7.50291 5.32702)">
<stop stop-color="#227B60"/>
<stop offset="0.07" stop-color="#227B60" stop-opacity="0.9"/>
<stop offset="0.34" stop-color="#227B60" stop-opacity="0.51"/>
<stop offset="0.59" stop-color="#227B60" stop-opacity="0.23"/>
<stop offset="0.79" stop-color="#227B60" stop-opacity="0.06"/>
<stop offset="0.92" stop-color="#227B60" stop-opacity="0"/>
</radialGradient>
<radialGradient id="paint4_radial_6027_2785" cx="0" cy="0" r="1" gradientUnits="userSpaceOnUse" gradientTransform="translate(19.5609 12.709) rotate(88.6) scale(6.05806 4.30124)">
<stop stop-color="#227B60"/>
<stop offset="0.36" stop-color="#227B60" stop-opacity="0.63"/>
<stop offset="0.92" stop-color="#227B60" stop-opacity="0"/>
</radialGradient>
<radialGradient id="paint5_radial_6027_2785" cx="0" cy="0" r="1" gradientUnits="userSpaceOnUse" gradientTransform="translate(19.8222 13.0425) rotate(88.5997) scale(4.83165 3.09228)">
<stop stop-color="#20735A"/>
<stop offset="0.15" stop-color="#20745A" stop-opacity="0.93"/>
<stop offset="0.38" stop-color="#21755C" stop-opacity="0.74"/>
<stop offset="0.67" stop-color="#21785D" stop-opacity="0.43"/>
<stop offset="1" stop-color="#227B60" stop-opacity="0"/>
</radialGradient>
<radialGradient id="paint6_radial_6027_2785" cx="0" cy="0" r="1" gradientUnits="userSpaceOnUse" gradientTransform="translate(20.4676 13.8269) rotate(23.7999) scale(7.77502 5.83127)">
<stop stop-color="#227A61"/>
<stop offset="0.36" stop-color="#227A61" stop-opacity="0.56"/>
<stop offset="0.72" stop-color="#227A61" stop-opacity="0.16"/>
<stop offset="0.9" stop-color="#227A61" stop-opacity="0"/>
</radialGradient>
<radialGradient id="paint7_radial_6027_2785" cx="0" cy="0" r="1" gradientUnits="userSpaceOnUse" gradientTransform="translate(17.7875 1.19094) rotate(35.2724) scale(10.3689 9.4809)">
<stop stop-color="#3CD9C3"/>
<stop offset="0.07" stop-color="#3BD7C1" stop-opacity="0.9"/>
<stop offset="0.41" stop-color="#38CEB9" stop-opacity="0.42"/>
<stop offset="0.65" stop-color="#36C8B4" stop-opacity="0.12"/>
<stop offset="0.76" stop-color="#35C6B2" stop-opacity="0"/>
</radialGradient>
<radialGradient id="paint8_radial_6027_2785" cx="0" cy="0" r="1" gradientUnits="userSpaceOnUse" gradientTransform="translate(-17003.9 -23101.7) rotate(35.2724) scale(1842.14 1292.72)">
<stop stop-color="#3CD9C3"/>
<stop offset="0.07" stop-color="#3BD7C1" stop-opacity="0.9"/>
<stop offset="0.41" stop-color="#38CEB9" stop-opacity="0.42"/>
<stop offset="0.65" stop-color="#36C8B4" stop-opacity="0.12"/>
<stop offset="0.76" stop-color="#35C6B2" stop-opacity="0"/>
</radialGradient>
<radialGradient id="paint9_radial_6027_2785" cx="0" cy="0" r="1" gradientUnits="userSpaceOnUse" gradientTransform="translate(21.9532 15.8023) rotate(100.972) scale(9.14496 11.3007)">
<stop stop-color="#237F66" stop-opacity="0.8"/>
<stop offset="0.06" stop-color="#2C8C70" stop-opacity="0.65"/>
<stop offset="0.21" stop-color="#3DA785" stop-opacity="0.37"/>
<stop offset="0.35" stop-color="#4ABA93" stop-opacity="0.17"/>
<stop offset="0.47" stop-color="#51C59C" stop-opacity="0.04"/>
<stop offset="0.56" stop-color="#54C99F" stop-opacity="0"/>
</radialGradient>
<radialGradient id="paint10_radial_6027_2785" cx="0" cy="0" r="1" gradientUnits="userSpaceOnUse" gradientTransform="translate(16.8804 16.2559) rotate(-50.82) scale(11.9498 12.9058)">
<stop stop-color="#167C8A"/>
<stop offset="0.04" stop-color="#167C8A" stop-opacity="0.93"/>
<stop offset="0.33" stop-color="#177F8D" stop-opacity="0.43"/>
<stop offset="0.54" stop-color="#17818F" stop-opacity="0.12"/>
<stop offset="0.65" stop-color="#178290" stop-opacity="0"/>
</radialGradient>
<radialGradient id="paint11_radial_6027_2785" cx="0" cy="0" r="1" gradientUnits="userSpaceOnUse" gradientTransform="translate(16.1496 17.4439) rotate(-31.6599) scale(11.6575 9.20946)">
<stop offset="0.05" stop-color="#177D87"/>
<stop offset="0.11" stop-color="#177E89" stop-opacity="0.8"/>
<stop offset="0.21" stop-color="#177F8B" stop-opacity="0.52"/>
<stop offset="0.32" stop-color="#17818D" stop-opacity="0.29"/>
<stop offset="0.42" stop-color="#17818F" stop-opacity="0.13"/>
<stop offset="0.51" stop-color="#178290" stop-opacity="0.03"/>
<stop offset="0.6" stop-color="#178290" stop-opacity="0"/>
</radialGradient>
<radialGradient id="paint12_radial_6027_2785" cx="0" cy="0" r="1" gradientUnits="userSpaceOnUse" gradientTransform="translate(13.7286 17.2963) rotate(-130.539) scale(6.9455 5.46897)">
<stop offset="0.26" stop-color="#177F8A"/>
<stop offset="0.27" stop-color="#177F8A" stop-opacity="0.98"/>
<stop offset="0.38" stop-color="#17808C" stop-opacity="0.68"/>
<stop offset="0.5" stop-color="#17818D" stop-opacity="0.43"/>
<stop offset="0.62" stop-color="#17818F" stop-opacity="0.24"/>
<stop offset="0.74" stop-color="#17828F" stop-opacity="0.11"/>
<stop offset="0.86" stop-color="#178290" stop-opacity="0.03"/>
<stop offset="1" stop-color="#178290" stop-opacity="0"/>
</radialGradient>
<radialGradient id="paint13_radial_6027_2785" cx="0" cy="0" r="1" gradientUnits="userSpaceOnUse" gradientTransform="translate(12.0262 19.3431) rotate(-173.11) scale(6.51499)">
<stop stop-color="#13656E"/>
<stop offset="0.11" stop-color="#13646E" stop-opacity="0.73"/>
<stop offset="0.27" stop-color="#12646E" stop-opacity="0.41"/>
<stop offset="0.42" stop-color="#12636E" stop-opacity="0.18"/>
<stop offset="0.55" stop-color="#12636E" stop-opacity="0.05"/>
<stop offset="0.66" stop-color="#12636E" stop-opacity="0"/>
</radialGradient>
<radialGradient id="paint14_radial_6027_2785" cx="0" cy="0" r="1" gradientUnits="userSpaceOnUse" gradientTransform="translate(11.8604 20.3408) rotate(-119.32) scale(4.55617 3.82718)">
<stop offset="0.13" stop-color="#146A73"/>
<stop offset="0.24" stop-color="#156F79" stop-opacity="0.79"/>
<stop offset="0.45" stop-color="#167783" stop-opacity="0.45"/>
<stop offset="0.65" stop-color="#167D8A" stop-opacity="0.2"/>
<stop offset="0.82" stop-color="#17818E" stop-opacity="0.05"/>
<stop offset="0.95" stop-color="#178290" stop-opacity="0"/>
</radialGradient>
<radialGradient id="paint15_radial_6027_2785" cx="0" cy="0" r="1" gradientUnits="userSpaceOnUse" gradientTransform="translate(10.8432 18.268) rotate(-55.9924) scale(4.28598 3.39544)">
<stop stop-color="#198E9C"/>
<stop offset="0.1" stop-color="#198E9C" stop-opacity="0.87"/>
<stop offset="0.41" stop-color="#198E9C" stop-opacity="0.5"/>
<stop offset="0.67" stop-color="#198E9C" stop-opacity="0.23"/>
<stop offset="0.88" stop-color="#198E9C" stop-opacity="0.06"/>
<stop offset="1" stop-color="#198E9C" stop-opacity="0"/>
</radialGradient>
<linearGradient id="paint16_linear_6027_2785" x1="3.04193" y1="3.49156" x2="14.0308" y2="13.6609" gradientUnits="userSpaceOnUse">
<stop offset="0.13" stop-color="#2BF9FF"/>
<stop offset="0.27" stop-color="#29F9FF" stop-opacity="0.64"/>
<stop offset="0.4" stop-color="#27FAFF" stop-opacity="0.3"/>
<stop offset="0.49" stop-color="#26FAFF" stop-opacity="0.08"/>
<stop offset="0.54" stop-color="#26FAFF" stop-opacity="0"/>
</linearGradient>
<linearGradient id="paint17_linear_6027_2785" x1="-3.17913" y1="20.085" x2="9.65596" y2="16.4461" gradientUnits="userSpaceOnUse">
<stop stop-color="#26FAFF"/>
<stop offset="0.06" stop-color="#26FAFF" stop-opacity="0.88"/>
<stop offset="0.24" stop-color="#26FAFF" stop-opacity="0.51"/>
<stop offset="0.39" stop-color="#26FAFF" stop-opacity="0.23"/>
<stop offset="0.5" stop-color="#26FAFF" stop-opacity="0.06"/>
<stop offset="0.55" stop-color="#26FAFF" stop-opacity="0"/>
</linearGradient>
<linearGradient id="paint18_linear_6027_2785" x1="0.22124" y1="19.6389" x2="14.6863" y2="14.4831" gradientUnits="userSpaceOnUse">
<stop stop-color="#21DEFF"/>
<stop offset="0.04" stop-color="#21DEFF" stop-opacity="0.88"/>
<stop offset="0.17" stop-color="#21DEFF" stop-opacity="0.51"/>
<stop offset="0.27" stop-color="#21DEFF" stop-opacity="0.23"/>
<stop offset="0.34" stop-color="#21DEFF" stop-opacity="0.06"/>
<stop offset="0.38" stop-color="#21DEFF" stop-opacity="0"/>
</linearGradient>
<linearGradient id="paint19_linear_6027_2785" x1="13.9663" y1="12.1772" x2="22.0572" y2="25.3734" gradientUnits="userSpaceOnUse">
<stop offset="0.62" stop-color="#21DEFF" stop-opacity="0"/>
<stop offset="0.66" stop-color="#21DEFF" stop-opacity="0.06"/>
<stop offset="0.73" stop-color="#21DEFF" stop-opacity="0.23"/>
<stop offset="0.83" stop-color="#21DEFF" stop-opacity="0.51"/>
<stop offset="0.96" stop-color="#21DEFF" stop-opacity="0.88"/>
<stop offset="1" stop-color="#21DEFF"/>
</linearGradient>
<linearGradient id="paint20_linear_6027_2785" x1="22.9694" y1="17.1076" x2="21.6973" y2="10.8997" gradientUnits="userSpaceOnUse">
<stop stop-color="#44B044"/>
<stop offset="0.11" stop-color="#44B044" stop-opacity="0.8"/>
<stop offset="0.27" stop-color="#44B044" stop-opacity="0.52"/>
<stop offset="0.43" stop-color="#44B044" stop-opacity="0.29"/>
<stop offset="0.58" stop-color="#44B044" stop-opacity="0.13"/>
<stop offset="0.7" stop-color="#44B044" stop-opacity="0.03"/>
<stop offset="0.8" stop-color="#44B044" stop-opacity="0"/>
</linearGradient>
<linearGradient id="paint21_linear_6027_2785" x1="5.22113" y1="10.6665" x2="32.0052" y2="19.5334" gradientUnits="userSpaceOnUse">
<stop stop-color="#3066FB"/>
<stop offset="0.38" stop-color="#2F64F7"/>
<stop offset="0.74" stop-color="#2857D9"/>
<stop offset="1" stop-color="#3C7EFF"/>
</linearGradient>
<radialGradient id="paint22_radial_6027_2785" cx="0" cy="0" r="1" gradientUnits="userSpaceOnUse" gradientTransform="translate(24.1408 14.7294) rotate(98.6901) scale(14.3236 9.45362)">
<stop stop-color="#1A3D9C"/>
<stop offset="0.4" stop-color="#1A3D9C" stop-opacity="0.42"/>
<stop offset="0.7" stop-color="#1A3D9C" stop-opacity="0"/>
</radialGradient>
<radialGradient id="paint23_radial_6027_2785" cx="0" cy="0" r="1" gradientUnits="userSpaceOnUse" gradientTransform="translate(8716.8 -22489.2) rotate(98.69) scale(1762.1 950.109)">
<stop stop-color="#1A3D9C"/>
<stop offset="0.4" stop-color="#1A3D9C" stop-opacity="0.42"/>
<stop offset="0.7" stop-color="#1A3D9C" stop-opacity="0"/>
</radialGradient>
<radialGradient id="paint24_radial_6027_2785" cx="0" cy="0" r="1" gradientUnits="userSpaceOnUse" gradientTransform="translate(7653.56 -22838.5) rotate(98.6156) scale(2098.57 866.965)">
<stop stop-color="#1A3D9C"/>
<stop offset="0.4" stop-color="#1A3D9C" stop-opacity="0.42"/>
<stop offset="0.7" stop-color="#1A3D9C" stop-opacity="0"/>
</radialGradient>
<radialGradient id="paint25_radial_6027_2785" cx="0" cy="0" r="1" gradientUnits="userSpaceOnUse" gradientTransform="translate(22.3452 14.1816) rotate(83.0887) scale(12.52 8.73571)">
<stop stop-color="#1A3D9C"/>
<stop offset="0.16" stop-color="#1A3D9C" stop-opacity="0.69"/>
<stop offset="0.33" stop-color="#1A3D9C" stop-opacity="0.4"/>
<stop offset="0.49" stop-color="#1A3D9C" stop-opacity="0.18"/>
<stop offset="0.61" stop-color="#1A3D9C" stop-opacity="0.05"/>
<stop offset="0.7" stop-color="#1A3D9C" stop-opacity="0"/>
</radialGradient>
<radialGradient id="paint26_radial_6027_2785" cx="0" cy="0" r="1" gradientUnits="userSpaceOnUse" gradientTransform="translate(24.608 16.0921) rotate(74.6399) scale(12.0322 8.18188)">
<stop stop-color="#18388F"/>
<stop offset="0.37" stop-color="#193B96" stop-opacity="0.45"/>
<stop offset="0.7" stop-color="#1A3D9C" stop-opacity="0"/>
</radialGradient>
<radialGradient id="paint27_radial_6027_2785" cx="0" cy="0" r="1" gradientUnits="userSpaceOnUse" gradientTransform="translate(23.4052 19.3115) rotate(74.6401) scale(5.5944 5.31465)">
<stop stop-color="#18388F"/>
<stop offset="0.09" stop-color="#183992" stop-opacity="0.78"/>
<stop offset="0.22" stop-color="#193B96" stop-opacity="0.5"/>
<stop offset="0.35" stop-color="#193C98" stop-opacity="0.28"/>
<stop offset="0.47" stop-color="#1A3C9A" stop-opacity="0.13"/>
<stop offset="0.59" stop-color="#1A3D9C" stop-opacity="0.03"/>
<stop offset="0.7" stop-color="#1A3D9C" stop-opacity="0"/>
</radialGradient>
<radialGradient id="paint28_radial_6027_2785" cx="0" cy="0" r="1" gradientUnits="userSpaceOnUse" gradientTransform="translate(23.5393 20.2659) rotate(74.6401) scale(5.5944 5.31465)">
<stop stop-color="#1A3D9C" stop-opacity="0.8"/>
<stop offset="0.01" stop-color="#1A3D9C" stop-opacity="0.78"/>
<stop offset="0.24" stop-color="#1A3D9C" stop-opacity="0.45"/>
<stop offset="0.44" stop-color="#1A3D9C" stop-opacity="0.2"/>
<stop offset="0.6" stop-color="#1A3D9C" stop-opacity="0.05"/>
<stop offset="0.7" stop-color="#1A3D9C" stop-opacity="0"/>
</radialGradient>
<radialGradient id="paint29_radial_6027_2785" cx="0" cy="0" r="1" gradientUnits="userSpaceOnUse" gradientTransform="translate(9.68264 16.8427) rotate(67.0272) scale(13.351 8.85969)">
<stop stop-color="#1A3D9C"/>
<stop offset="0.4" stop-color="#1A3D9C" stop-opacity="0.56"/>
<stop offset="0.48" stop-color="#1A3D9C" stop-opacity="0.43"/>
<stop offset="0.69" stop-color="#1A3D9C" stop-opacity="0.12"/>
<stop offset="0.79" stop-color="#1A3D9C" stop-opacity="0"/>
</radialGradient>
<radialGradient id="paint30_radial_6027_2785" cx="0" cy="0" r="1" gradientUnits="userSpaceOnUse" gradientTransform="translate(8.83411 13.8172) rotate(76.1027) scale(9.90286 6.53778)">
<stop stop-color="#1A3D9C"/>
<stop offset="0.06" stop-color="#1A3D9C" stop-opacity="0.88"/>
<stop offset="0.21" stop-color="#1A3D9C" stop-opacity="0.61"/>
<stop offset="0.36" stop-color="#1A3D9C" stop-opacity="0.39"/>
<stop offset="0.51" stop-color="#1A3D9C" stop-opacity="0.22"/>
<stop offset="0.67" stop-color="#1A3D9C" stop-opacity="0.1"/>
<stop offset="0.83" stop-color="#1A3D9C" stop-opacity="0.02"/>
<stop offset="1" stop-color="#1A3D9C" stop-opacity="0"/>
</radialGradient>
<radialGradient id="paint31_radial_6027_2785" cx="0" cy="0" r="1" gradientUnits="userSpaceOnUse" gradientTransform="translate(8.83411 13.8172) rotate(76.1027) scale(9.90286 6.53778)">
<stop stop-color="#1B3E9E"/>
<stop offset="0.06" stop-color="#1B3E9E" stop-opacity="0.87"/>
<stop offset="0.21" stop-color="#1B3E9D" stop-opacity="0.61"/>
<stop offset="0.36" stop-color="#1A3D9D" stop-opacity="0.39"/>
<stop offset="0.52" stop-color="#1A3D9C" stop-opacity="0.22"/>
<stop offset="0.67" stop-color="#1A3D9C" stop-opacity="0.1"/>
<stop offset="0.83" stop-color="#1A3D9C" stop-opacity="0.02"/>
<stop offset="1" stop-color="#1A3D9C" stop-opacity="0"/>
</radialGradient>
<radialGradient id="paint32_radial_6027_2785" cx="0" cy="0" r="1" gradientUnits="userSpaceOnUse" gradientTransform="translate(9.21667 12.8468) rotate(76.1029) scale(7.5761 5.0017)">
<stop stop-color="#183991"/>
<stop offset="0.03" stop-color="#183992" stop-opacity="0.95"/>
<stop offset="0.18" stop-color="#193A95" stop-opacity="0.66"/>
<stop offset="0.34" stop-color="#193B97" stop-opacity="0.42"/>
<stop offset="0.5" stop-color="#1A3C99" stop-opacity="0.24"/>
<stop offset="0.66" stop-color="#1A3D9B" stop-opacity="0.1"/>
<stop offset="0.82" stop-color="#1A3D9C" stop-opacity="0.03"/>
<stop offset="1" stop-color="#1A3D9C" stop-opacity="0"/>
</radialGradient>
<radialGradient id="paint33_radial_6027_2785" cx="0" cy="0" r="1" gradientUnits="userSpaceOnUse" gradientTransform="translate(10.5565 13.6154) rotate(87.1375) scale(5.98662 5.26999)">
<stop offset="0.04" stop-color="#2453D6" stop-opacity="0.6"/>
<stop offset="0.2" stop-color="#2453D6" stop-opacity="0.49"/>
<stop offset="0.52" stop-color="#2453D6" stop-opacity="0.2"/>
<stop offset="0.73" stop-color="#2453D6" stop-opacity="0"/>
</radialGradient>
<linearGradient id="paint34_linear_6027_2785" x1="22.6164" y1="-0.265087" x2="15.8511" y2="16.4578" gradientUnits="userSpaceOnUse">
<stop stop-color="#3774FF"/>
<stop offset="0.05" stop-color="#3774FF" stop-opacity="0.91"/>
<stop offset="0.16" stop-color="#3774FF" stop-opacity="0.66"/>
<stop offset="0.32" stop-color="#3774FF" stop-opacity="0.28"/>
<stop offset="0.43" stop-color="#3774FF" stop-opacity="0"/>
</linearGradient>
</defs>
</svg>
