<svg width="32" height="32" viewBox="0 0 32 32" fill="none" xmlns="http://www.w3.org/2000/svg">
<rect width="32" height="32" rx="16" fill="#20C300"/>
<path fill-rule="evenodd" clip-rule="evenodd" d="M21.2515 12.2C20.3443 12.3011 19.4558 12.3307 18.599 12.51C16.6084 12.9294 14.9714 13.9417 13.8264 15.6544C12.8332 17.1396 12.63 18.7626 13.0763 20.4789C13.1006 20.5722 13.1292 20.666 13.1737 20.8262C12.6367 20.7941 12.1277 20.7987 11.6316 20.7251C11.0023 20.6308 10.3839 20.467 9.75769 20.3483C9.63743 20.326 9.48606 20.3431 9.37824 20.4001C8.61106 20.7972 7.85165 21.2093 7.08913 21.6162C6.98649 21.6706 6.88074 21.7204 6.71798 21.8002C6.75737 21.6514 6.77707 21.5529 6.80921 21.4581C7.02019 20.8241 7.22442 20.1886 7.45147 19.5619C7.52145 19.3665 7.48361 19.2732 7.31669 19.155C5.96842 18.196 4.91924 16.9872 4.44441 15.3787C3.6368 12.6432 4.45737 10.3437 6.51374 8.48384C8.50168 6.68666 10.9095 6.03455 13.5532 6.22531C15.5266 6.36683 17.3098 7.03449 18.8348 8.31278C20.0017 9.29094 20.8207 10.5055 21.2064 11.9942C21.2235 12.0601 21.2395 12.1269 21.2504 12.1948C21.2551 12.2192 21.2395 12.2477 21.2515 12.2ZM16.9132 10.958C16.934 10.309 16.4047 9.74711 15.7505 9.72067C15.0637 9.69527 14.5329 10.1986 14.5132 10.8974C14.4945 11.5557 14.9963 12.1124 15.6277 12.1368C16.3109 12.1617 16.8925 11.6283 16.9132 10.958ZM10.9914 10.9295C10.9976 10.2945 10.4347 9.72793 9.78931 9.7186C9.11232 9.70927 8.58928 10.239 8.58358 10.9394C8.5784 11.5852 9.1175 12.1352 9.7551 12.1342C10.4362 12.1321 10.9852 11.5977 10.9914 10.9295Z" fill="white"/>
<path fill-rule="evenodd" clip-rule="evenodd" d="M25.5276 25.7274C25.3057 25.6082 25.0849 25.4863 24.8625 25.3692C24.3861 25.1183 23.9279 24.8104 23.4246 24.6331C22.8953 24.447 22.3842 24.7912 21.8581 24.8638C19.4829 25.1878 17.3114 24.728 15.4427 23.1874C12.5819 20.8283 12.585 16.8892 15.4396 14.5218C17.0849 13.157 19.0096 12.6308 21.1225 12.7702C22.8051 12.8817 24.3302 13.4322 25.625 14.5317C28.4558 16.9353 28.4558 20.751 25.6359 23.1656C25.6219 23.1786 25.6059 23.191 25.5903 23.2029C25.385 23.3812 25.0647 23.5279 25.0061 23.7457C24.946 23.9675 25.1419 24.2588 25.2249 24.5201C25.3467 24.9078 25.4695 25.2956 25.5913 25.6844C25.5691 25.6989 25.5483 25.7129 25.5276 25.7274ZM19.302 16.8991C19.302 16.3926 18.8235 15.9167 18.3145 15.9167C17.7811 15.9167 17.3586 16.3584 17.3628 16.911C17.3669 17.4262 17.7883 17.8487 18.3031 17.8523C18.8505 17.8565 19.302 17.4252 19.302 16.8991ZM24.0575 16.9068C24.0554 16.3864 23.5961 15.9199 23.0866 15.9199C22.5988 15.9199 22.0856 16.3978 22.0804 16.8576C22.0747 17.376 22.5646 17.8601 23.0866 17.8518C23.6195 17.8435 24.0585 17.4164 24.0575 16.9068Z" fill="white"/>
</svg>
