<svg width="32" height="32" viewBox="0 0 32 32" fill="none" xmlns="http://www.w3.org/2000/svg">
<g clip-path="url(#clip0_6027_2824)">
<path d="M18.4257 16.2722C18.4257 11.8119 21.6255 9.09696 25.7948 9.09696C29.4794 9.09696 32.0004 10.9392 32.0004 13.5572C32.0004 16.0782 29.8673 17.6296 27.5402 17.6296C26.1827 17.6296 25.31 17.4357 24.6313 16.8539C24.4374 16.757 24.3404 16.757 24.3404 17.0479C24.3404 18.0175 24.7283 18.6962 25.31 19.3749C25.7948 19.8598 26.7645 20.2476 27.6371 20.2476C28.6067 20.2476 29.3824 20.0537 30.1581 19.6658C30.9338 19.278 31.4186 19.4719 31.8065 20.0537C32.2913 20.7324 31.7095 21.6051 31.1278 22.1868C30.1581 23.1565 28.3159 23.9322 25.9888 23.9322C21.2376 23.6413 18.5227 20.5385 18.4257 16.2722ZM8.82648 19.278C9.21433 19.278 9.60218 19.4719 9.7961 20.0537L11.1536 22.1868C11.6384 22.9625 12.1232 23.5443 12.9958 23.5443C13.8685 23.5443 14.4503 23.1565 14.9351 22.0899C15.5169 20.8294 16.1956 19.0841 16.6804 16.9509C17.3591 14.4299 17.65 12.9754 17.65 11.8119C17.65 10.6484 17.2622 9.87266 15.9047 9.58177C14.0624 9.09696 11.4445 9 8.82648 9C6.2085 9 3.59053 9.09696 1.74825 9.48481C0.390778 9.7757 0.00292969 10.4544 0.00292969 11.7149C0.00292969 12.9754 0.293816 14.4299 0.875588 16.8539C1.45736 19.0841 2.03913 20.6355 2.62091 21.9929C3.10572 23.0595 3.59053 23.4474 4.46319 23.4474C5.33584 23.4474 5.82065 22.8656 6.30547 22.0899L7.66293 19.9567C8.05078 19.5689 8.34167 19.278 8.82648 19.278Z" fill="#484A4D"/>
</g>
<defs>
<clipPath id="clip0_6027_2824">
<rect width="32" height="14.8352" fill="white" transform="translate(0.00195312 9)"/>
</clipPath>
</defs>
</svg>
