<svg width="32" height="32" viewBox="0 0 32 32" fill="none" xmlns="http://www.w3.org/2000/svg">
<rect width="32" height="32" rx="16" fill="#25D366"/>
<path fill-rule="evenodd" clip-rule="evenodd" d="M24.235 7.80062C22.251 5.81342 19.6078 4.71902 16.795 4.71582C10.9998 4.71582 6.27976 9.43262 6.27976 15.231C6.27976 17.0838 6.76296 18.895 7.68456 20.4886L6.19336 25.9382L11.7678 24.4758C13.3038 25.3142 15.0318 25.7558 16.7918 25.7558H16.795C22.5902 25.7558 27.307 21.039 27.3102 15.2406C27.3134 12.431 26.2222 9.78782 24.235 7.80062ZM16.7982 23.9798H16.795C15.227 23.9798 13.6878 23.5574 12.347 22.7606L12.027 22.5718L8.71816 23.439L9.60136 20.2134L9.39336 19.8838C8.51976 18.4918 8.05576 16.8854 8.05576 15.231C8.05896 10.4118 11.979 6.49182 16.8014 6.49182C19.1374 6.49182 21.3294 7.40382 22.9806 9.05502C24.6318 10.7062 25.5406 12.9046 25.5374 15.2374C25.5374 20.0598 21.6142 23.9798 16.7982 23.9798ZM21.5918 17.4326C21.3294 17.3014 20.0366 16.6646 19.7966 16.5782C19.5566 16.4918 19.3806 16.447 19.2046 16.7094C19.0286 16.9718 18.5262 17.5638 18.3726 17.7398C18.219 17.9158 18.0654 17.9382 17.803 17.807C17.5406 17.6758 16.6926 17.3974 15.691 16.5014C14.9102 15.8038 14.3822 14.943 14.2286 14.6806C14.075 14.4182 14.2126 14.2742 14.3438 14.143C14.4622 14.0246 14.6062 13.8358 14.7374 13.6822C14.8686 13.5286 14.9134 13.4198 14.9998 13.2438C15.0862 13.0678 15.0446 12.9142 14.9774 12.783C14.9102 12.6518 14.3854 11.359 14.1678 10.831C13.9534 10.319 13.739 10.3894 13.5758 10.3798C13.4222 10.3734 13.2462 10.3702 13.0734 10.3702C12.8974 10.3702 12.6126 10.4374 12.3726 10.6998C12.1326 10.9622 11.4542 11.599 11.4542 12.8918C11.4542 14.1846 12.395 15.4358 12.5262 15.6086C12.6574 15.7846 14.379 18.4374 17.0158 19.5766C17.643 19.8486 18.1326 20.0086 18.5134 20.1302C19.1438 20.3318 19.7166 20.303 20.1678 20.2358C20.6734 20.159 21.723 19.599 21.9406 18.9878C22.1582 18.3734 22.1582 17.8486 22.0942 17.7398C22.0302 17.631 21.8542 17.567 21.5918 17.4326Z" fill="white"/>
</svg>
