<svg width="32" height="32" viewBox="0 0 32 32" fill="none" xmlns="http://www.w3.org/2000/svg">
<g clip-path="url(#clip0_6027_2863)">
<path d="M4.62082 15.4071C4.10148 16.2386 3.88377 18.8537 4.06476 20.5875C4.12771 21.1593 4.23262 21.6366 4.38213 21.9225C4.58935 22.316 4.9382 22.5521 5.33426 22.5652C5.58869 22.5783 5.74869 22.5337 10.5356 20.994C10.5356 20.994 12.6628 20.3147 12.6733 20.3094C13.2031 20.173 13.5625 19.6852 13.5966 19.0635C13.6307 18.4235 13.3028 17.8596 12.7572 17.6576C12.7572 17.6576 11.2569 17.0465 11.2543 17.0465C6.10803 14.9245 5.87721 14.8406 5.61754 14.838C5.21885 14.8248 4.86738 15.0242 4.62082 15.4071ZM16.1303 31.2209C16.2143 30.9796 16.2248 30.8144 16.2379 25.7835C16.2379 25.7835 16.2484 23.5619 16.251 23.5383C16.2851 22.9927 15.9336 22.497 15.3566 22.274C14.7611 22.0458 14.1211 22.1875 13.7618 22.6334C13.7618 22.6334 12.7126 23.8793 12.7074 23.8793C9.10344 28.1127 8.95131 28.3094 8.86476 28.5586C8.80967 28.7055 8.79131 28.8629 8.80705 29.0203C8.82803 29.2458 8.93033 29.4662 9.0982 29.6734C9.93492 30.6675 13.9428 32.1416 15.2228 31.9212C15.6713 31.8452 15.9939 31.596 16.1303 31.2209ZM24.2641 29.4714C25.4733 28.9888 28.1093 25.6366 28.2956 24.3435C28.3611 23.895 28.2195 23.5068 27.91 23.2603C27.708 23.1081 27.5533 23.0478 22.7664 21.4766C22.7664 21.4766 20.668 20.7842 20.6392 20.7711C20.1303 20.5744 19.5507 20.758 19.1625 21.238C18.7559 21.7311 18.6956 22.3842 19.0208 22.8747L19.8654 24.2491C22.7061 28.8629 22.9238 29.1881 23.1284 29.3481C23.4431 29.5973 23.8444 29.6393 24.2641 29.4714ZM21.7907 17.5947C27.228 16.278 27.4405 16.2071 27.653 16.0655C27.9834 15.8425 28.1487 15.4727 28.1198 15.0216C28.1198 15.0085 28.1225 14.9927 28.1198 14.977C27.9808 13.6393 25.6411 10.1665 24.4871 9.60255C24.0779 9.40583 23.6687 9.41894 23.3303 9.64714C23.1205 9.78353 22.9657 9.99075 20.0543 13.975C20.0543 13.975 18.7402 15.7665 18.7244 15.7848C18.3782 16.2071 18.373 16.8104 18.7113 17.3298C19.0628 17.8675 19.6556 18.1271 20.1985 17.9776C20.1985 17.9776 20.1775 18.017 20.1723 18.0222C20.4398 17.9199 20.9172 17.8019 21.7907 17.5947ZM16.3323 13.1042C16.2379 10.9481 15.59 1.35075 15.5139 0.907467C15.4038 0.503532 15.089 0.217631 14.6379 0.102221C13.2477 -0.241386 7.94148 1.24583 6.95787 2.25829C6.64049 2.58878 6.52508 2.99271 6.61951 3.35206C6.77426 3.66943 13.35 14.0144 13.35 14.0144C14.3205 15.5907 15.1152 15.3442 15.3749 15.2629C15.632 15.1868 16.4215 14.9403 16.3323 13.1042Z" fill="#BF2519"/>
</g>
<defs>
<clipPath id="clip0_6027_2863">
<rect width="24.3072" height="32" fill="white" transform="translate(4.00195)"/>
</clipPath>
</defs>
</svg>
