<svg width="32" height="32" viewBox="0 0 32 32" fill="none" xmlns="http://www.w3.org/2000/svg">
<rect width="32" height="32" rx="16" fill="#FF0000"/>
<path d="M26.1824 10.8514C25.9392 9.92981 25.2192 9.20661 24.304 8.96021C22.6464 8.51221 16.0032 8.51221 16.0032 8.51221C16.0032 8.51221 9.35678 8.51221 7.70238 8.96021C6.78718 9.20661 6.06718 9.92981 5.82398 10.8514C5.37598 12.5186 5.37598 16.0002 5.37598 16.0002C5.37598 16.0002 5.37598 19.4818 5.82078 21.149C6.06398 22.0706 6.78398 22.7938 7.69918 23.0402C9.35678 23.4882 16 23.4882 16 23.4882C16 23.4882 22.6464 23.4882 24.3008 23.0402C25.216 22.7938 25.936 22.0706 26.1792 21.149C26.624 19.4818 26.624 16.0002 26.624 16.0002C26.624 16.0002 26.624 12.5186 26.1824 10.8514ZM13.8272 19.1586V12.8418L19.3792 16.0002L13.8272 19.1586Z" fill="white"/>
</svg>
