<svg width="25" height="25" viewBox="0 0 25 25" fill="none" xmlns="http://www.w3.org/2000/svg">
<g clip-path="url(#clip0_175_4010)">
<rect width="25" height="25" rx="12.5" fill="#25D366"/>
<circle cx="12.5" cy="12.5" r="12.5" fill="white"/>
<path d="M17.2143 13.2857H13.2857V17.2143C13.2857 17.4227 13.2029 17.6225 13.0556 17.7699C12.9082 17.9172 12.7084 18 12.5 18C12.2916 18 12.0918 17.9172 11.9444 17.7699C11.7971 17.6225 11.7143 17.4227 11.7143 17.2143V13.2857H7.78571C7.57733 13.2857 7.37748 13.2029 7.23013 13.0556C7.08278 12.9082 7 12.7084 7 12.5C7 12.2916 7.08278 12.0918 7.23013 11.9444C7.37748 11.7971 7.57733 11.7143 7.78571 11.7143H11.7143V7.78571C11.7143 7.57733 11.7971 7.37748 11.9444 7.23013C12.0918 7.08278 12.2916 7 12.5 7C12.7084 7 12.9082 7.08278 13.0556 7.23013C13.2029 7.37748 13.2857 7.57733 13.2857 7.78571V11.7143H17.2143C17.4227 11.7143 17.6225 11.7971 17.7699 11.9444C17.9172 12.0918 18 12.2916 18 12.5C18 12.7084 17.9172 12.9082 17.7699 13.0556C17.6225 13.2029 17.4227 13.2857 17.2143 13.2857Z" fill="black"/>
</g>
<defs>
<clipPath id="clip0_175_4010">
<rect width="25" height="25" rx="12.5" fill="white"/>
</clipPath>
</defs>
</svg>
