<svg width="448" height="480" viewBox="0 0 448 480" fill="none" xmlns="http://www.w3.org/2000/svg">
<path d="M224 256C294.692 256 352 198.692 352 128C352 57.3075 294.692 0 224 0C153.308 0 96 57.3075 96 128C96 198.692 153.308 256 224 256Z" fill="white"/>
<path d="M48 480H245.76C217.665 457.482 199.061 425.226 193.637 389.631C188.213 354.037 196.367 317.704 216.48 287.84C175.116 285.785 136.142 267.845 107.68 237.76C75.7744 251.228 48.545 273.8 29.3939 302.655C10.2427 331.51 0.0189884 365.368 0 400V432C0.0379854 444.719 5.10731 456.906 14.1008 465.899C23.0944 474.893 35.2813 479.962 48 480Z" fill="white"/>
<path d="M224 368C224 390.152 230.569 411.806 242.875 430.224C255.182 448.642 272.674 462.998 293.139 471.475C313.605 479.952 336.124 482.17 357.85 477.848C379.576 473.526 399.532 462.859 415.196 447.196C430.859 431.532 441.526 411.576 445.848 389.85C450.17 368.124 447.952 345.605 439.475 325.139C430.998 304.674 416.642 287.182 398.224 274.875C379.806 262.569 358.152 256 336 256C306.306 256.034 277.838 267.845 256.841 288.841C235.845 309.838 224.034 338.306 224 368ZM352 336V352H368C372.243 352 376.313 353.686 379.314 356.686C382.314 359.687 384 363.757 384 368C384 372.243 382.314 376.313 379.314 379.314C376.313 382.314 372.243 384 368 384H352V400C352 404.243 350.314 408.313 347.314 411.314C344.313 414.314 340.243 416 336 416C331.757 416 327.687 414.314 324.686 411.314C321.686 408.313 320 404.243 320 400V384H304C299.757 384 295.687 382.314 292.686 379.314C289.686 376.313 288 372.243 288 368C288 363.757 289.686 359.687 292.686 356.686C295.687 353.686 299.757 352 304 352H320V336C320 331.757 321.686 327.687 324.686 324.686C327.687 321.686 331.757 320 336 320C340.243 320 344.313 321.686 347.314 324.686C350.314 327.687 352 331.757 352 336Z" fill="white"/>
</svg>
