<svg width="34" height="34" viewBox="0 0 34 34" fill="none" xmlns="http://www.w3.org/2000/svg">
<circle cx="17" cy="17" r="17" fill="black" fill-opacity="0.3"/>
<path d="M17 21.2917C17.9205 21.2917 18.6667 22.0068 18.6667 22.8889C18.6667 23.771 17.9205 24.4861 17 24.4861C16.0796 24.4861 15.3334 23.771 15.3334 22.8889C15.3334 22.0068 16.0796 21.2917 17 21.2917Z" fill="white"/>
<path d="M17 14.9028C17.9205 14.9028 18.6667 15.6179 18.6667 16.5C18.6667 17.3821 17.9205 18.0972 17 18.0972C16.0796 18.0972 15.3334 17.3821 15.3334 16.5C15.3334 15.6179 16.0796 14.9028 17 14.9028Z" fill="white"/>
<path d="M17 8.51392C17.9205 8.51392 18.6667 9.22902 18.6667 10.1111C18.6667 10.9933 17.9205 11.7084 17 11.7084C16.0796 11.7084 15.3334 10.9933 15.3334 10.1111C15.3334 9.22902 16.0796 8.51392 17 8.51392Z" fill="white"/>
</svg>
