<svg width="342" height="354" viewBox="0 0 342 354" fill="none" xmlns="http://www.w3.org/2000/svg">
<path d="M177.428 15.1803L333.18 214.423C346.621 231.616 343.579 256.45 326.385 269.891C309.192 283.331 284.358 280.289 270.917 263.095L115.164 63.8531C101.724 46.6597 104.766 21.8257 121.96 8.38516C139.153 -5.05547 163.987 -2.0131 177.428 15.1803Z" fill="url(#paint0_linear_910_3196)"/>
<path d="M164.138 338.139L8.38515 138.897C-5.05544 121.703 -2.01315 96.8692 15.1804 83.4287C32.3739 69.9881 57.2077 73.0304 70.6484 90.224L226.401 289.466C239.842 306.66 236.799 331.493 219.606 344.934C202.412 358.375 177.579 355.332 164.138 338.139Z" fill="url(#paint1_linear_910_3196)"/>
<defs>
<linearGradient id="paint0_linear_910_3196" x1="129.795" y1="37.5723" x2="298.337" y2="237.978" gradientUnits="userSpaceOnUse">
<stop stop-color="white"/>
<stop offset="0.3" stop-color="white"/>
<stop offset="1" stop-color="white" stop-opacity="0"/>
</linearGradient>
<linearGradient id="paint1_linear_910_3196" x1="48" y1="120.5" x2="207.087" y2="339.077" gradientUnits="userSpaceOnUse">
<stop stop-color="white" stop-opacity="0"/>
<stop offset="0.7" stop-color="white"/>
<stop offset="1" stop-color="white"/>
</linearGradient>
</defs>
</svg>
