<svg width="135" height="135" viewBox="0 0 135 135" fill="none" xmlns="http://www.w3.org/2000/svg">
<g clip-path="url(#clip0_228_521)">
<path d="M66.7911 65.175C74.2281 65.175 80.257 59.1461 80.257 51.7091C80.257 44.2721 74.2281 38.2432 66.7911 38.2432C59.3541 38.2432 53.3252 44.2721 53.3252 51.7091C53.3252 59.1461 59.3541 65.175 66.7911 65.175Z" fill="white"/>
<path d="M88.3365 84.0272C88.3365 88.4707 84.7005 92.1067 80.2569 92.1067H53.3251C48.8816 92.1067 45.2456 88.4707 45.2456 84.0272C45.2456 76.5946 51.2783 70.5613 58.7115 70.5613H74.8706C82.3038 70.5613 88.3365 76.5946 88.3365 84.0272Z" fill="white"/>
</g>
<circle cx="67.0602" cy="67.0602" r="67.0602" fill="#D9D9D9" fill-opacity="0.5"/>
<defs>
<clipPath id="clip0_228_521">
<rect width="53.8636" height="53.8636" fill="white" transform="translate(39.8591 38.2432)"/>
</clipPath>
</defs>
</svg>
